<?xml version="1.0" encoding="UTF-8"?>
<svg width="16px" height="16px" viewBox="0 0 16 16" version="1.1" xmlns="http://www.w3.org/2000/svg" xmlns:xlink="http://www.w3.org/1999/xlink">
    <title>icon38备份</title>
    <g id="页面-1" stroke="none" stroke-width="1" fill="none" fill-rule="evenodd">
        <g id="弹出卡片_立减金备份-10" transform="translate(-127.000000, -613.000000)">
            <g id="编组-3备份" transform="translate(24.000000, 134.000000)">
                <g id="编组-3" transform="translate(103.000000, 477.000000)">
                    <g id="icon38备份" transform="translate(0.000000, 2.000000)">
                        <rect id="矩形" x="0" y="0" width="16" height="16"></rect>
                        <path d="M5.2,4 L5.2,4.96 L2.96,4.96 L2.96,15.04 L13.84,15.04 L13.84,4.96 L11.6,4.96 L11.6,4 L14.0008348,4 C14.4406958,4 14.8,4.35667093 14.8,4.79664681 L14.8,15.2033532 C14.8,15.6408638 14.4433291,16 14.0033532,16 L2.79664681,16 C2.35913616,16 2,15.6433291 2,15.2033532 L2,4.79664681 C2,4.35913616 2.35779847,4 2.79916525,4 L5.2,4 Z M8.96568542,0.5372583 L11.2284271,2.8 L10.5496046,3.47882254 L8.87999516,1.8092131 L8.87999516,9.2 L7.91999512,9.2 L7.91999512,1.80922283 L6.25039541,3.47882254 L5.57157288,2.8 L7.83431458,0.5372583 C8.14673401,0.224838867 8.65326599,0.224838867 8.96568542,0.5372583 Z" id="图标颜色" fill="#576B95"></path>
                    </g>
                </g>
            </g>
        </g>
    </g>
</svg>