<svg width="48" height="48" viewBox="0 0 48 48" fill="none" xmlns="http://www.w3.org/2000/svg">
<g id="0.&#229;&#155;&#190;&#230;&#160;&#135;/&#233;&#157;&#162;&#229;&#158;&#139;/icons_filled_mini_program">
<g id="icon9">
<path id="XMLID_19_" fill-rule="evenodd" clip-rule="evenodd" d="M34.0086 25.9815L33.5367 25.9891C32.11 25.9891 31.2799 24.9425 31.8162 23.7359C32.1835 22.8789 33.0121 22.2171 33.9907 21.9997C36.6089 21.3677 38.3879 19.3214 38.3879 16.9425C38.3879 14.0583 35.6342 11.708 32.1949 11.708C28.7555 11.708 26.0019 14.0583 26.0019 16.9425V31.3195C26.0019 36.3833 21.4758 40.462 15.901 40.462C10.3261 40.462 5.8 36.3833 5.8 31.3195C5.8 26.8793 9.30469 23.0893 14.0799 22.3687H14.4633C15.5434 22.3687 16.3214 23.0153 16.3214 23.9387C16.3219 24.0969 16.318 24.1701 16.3024 24.2638C16.2813 24.3902 16.2403 24.5111 16.1838 24.6219C15.8396 25.4251 14.9595 26.1206 14.0093 26.3581C11.41 26.9855 9.61214 29.0193 9.61214 31.3195C9.61214 34.2036 12.3658 36.554 15.8051 36.554C19.2445 36.554 21.9981 34.2036 21.9981 31.3195V16.9425C21.9981 11.8787 26.5242 7.8 32.099 7.8C37.6739 7.8 42.2 11.8787 42.2 16.9425C42.2 21.4062 38.7778 25.1521 34.0086 25.9815Z" fill="black" fill-opacity="0.3"/>
</g>
</g>
</svg>
