<?xml version="1.0" encoding="UTF-8"?>
<svg width="24px" height="24px" viewBox="0 0 24 24" version="1.1" xmlns="http://www.w3.org/2000/svg" xmlns:xlink="http://www.w3.org/1999/xlink">
    <title>Icons_Filled_Activity@2x</title>
    <g id="Icons_Filled_Activity" stroke="none" stroke-width="1" fill="none" fill-rule="evenodd">
        <path d="M8.84765339,21.6930306 L1.6535866,6.83965941 C1.53936063,6.59335476 1.63747561,6.30077059 1.8771449,6.17299647 C1.90039099,6.1420125 1.92986935,6.11623465 1.9636836,6.09732122 C2.67774521,5.58806921 3.46742053,5.19407994 4.30383405,4.92976016 C5.15281256,4.66010786 6.03489237,4.50853586 6.92523524,4.47931222 L7.28581313,4.47931222 C8.29307813,4.48129719 9.29443753,4.63310995 10.2569749,4.92976016 C11.3803663,5.32562627 12.5543849,5.5598017 13.743763,5.62525177 C14.93367,5.62525177 15.4565079,5.17120025 16.1163654,4.59462689 L16.2750197,4.45769072 C16.4402968,4.30220553 16.6574583,4.21359596 16.8843963,4.20904346 C17.0110529,4.20926808 17.1354164,4.24282579 17.2449742,4.30634021 C17.6380041,4.54057314 17.6271868,5.02705692 17.5875232,5.35498302 C17.5236896,5.76955444 17.4136293,6.17568363 17.2593973,6.56578708 C16.8204756,7.74118284 16.1399876,8.81162374 15.2617959,9.7081119 C14.7698721,10.2058981 14.1905182,10.6090002 13.5526567,10.8972945 L13.4300602,10.9477446 C12.8886124,11.1687256 12.3093839,11.2825426 11.7245269,11.2828779 L11.3459201,11.2828779 C10.9637075,11.2504456 10.5995238,11.2360313 10.2641864,11.2360313 C7.37956338,11.2360313 6.71610008,12.389178 6.1319639,13.3981814 L6.10311767,13.4522352 L9.88972347,21.2678077 C9.94451992,21.3930116 9.94451992,21.5353944 9.88972347,21.6605983 C9.83328134,21.8020454 9.72115975,21.9140987 9.57962649,21.9705065 C9.5125414,21.9945789 9.44176926,22.0067736 9.37049133,22.0065877 C9.1509064,22.0092789 8.9485714,21.8879518 8.84765339,21.6930306 Z" id="路径" fill="#07C160" transform="translate(9.606023, 13.107816) rotate(-334.000000) translate(-9.606023, -13.107816) "></path>
    </g>
</svg>