<?xml version="1.0" encoding="UTF-8"?>
<svg width="48px" height="48px" viewBox="0 0 48 48" version="1.1" xmlns="http://www.w3.org/2000/svg" xmlns:xlink="http://www.w3.org/1999/xlink">
    <title>画板</title>
    <g id="画板" stroke="none" stroke-width="1" fill="none" fill-rule="evenodd" fill-opacity="0.3">
        <g id="Frame-929-(1)" transform="translate(5.000000, 7.000000)" fill="#000000">
            <path d="M34.8207,0.55402 C35.8629,1.04513 36.6463,2.00355 37.1545,3.2757 C37.8451,5.0042 37.925,7.7807 37.6601,10.8349 C37.3913,13.9333 36.7527,17.4635 35.896,20.7925 C35.0404,24.1169 33.958,27.2773 32.788,29.624 C32.2048,30.7939 31.5816,31.7989 30.9284,32.5236 C30.2958,33.2253 29.5112,33.8001 28.6017,33.8001 C27.6381,33.8001 26.7406,33.3971 25.8957,32.7571 C25.0539,32.1195 24.2121,31.2077 23.3415,30.0926 C22.5507,29.0795 21.7322,27.8811 20.8973,26.5405 C20.2486,25.4988 19.6118,24.4072 19,23.3036 C18.3881,24.4074 17.7514,25.4991 17.1028,26.5405 C16.2679,27.8811 15.4494,29.0795 14.6586,30.0926 C13.788,31.2077 12.9462,32.1195 12.1044,32.7571 C11.2594,33.3971 10.362,33.8001 9.3984,33.8001 C8.4889,33.8001 7.7043,33.2253 7.0717,32.5236 C6.4185,31.7989 5.7953,30.7939 5.2121,29.624 C4.04213,27.2773 2.95969,24.117 2.10413,20.7926 C1.24738,17.4635 0.60874,13.9333 0.34001,10.835 C0.07511,7.7808 0.15496,5.0043 0.84558,3.2758 L0.950889837,3.02559407 C1.45941111,1.87790982 2.206672,1.01240867 3.17942,0.55403 C4.23151,0.05827 5.4199,0.09878 6.6049,0.57814 C8.2798,1.25566 10.0248,2.82112 11.8742,4.9939 C12.9876,6.3019 14.1455,7.8427 15.3308,9.5644 C16.596,11.4022 17.8345,13.3598 19,15.3184 L19,15.3184 C19.9238,13.7661 20.8932,12.2147 21.8854,10.7232 L21.8888,10.7179 L22.6693,9.5644 C23.8546,7.8426 25.0125,6.3019 26.1258,4.9939 C27.9753,2.82112 29.7203,1.25566 31.3952,0.57814 C32.5802,0.09878 33.7686,0.05827 34.8207,0.55402 Z M33.2061,4.032 C33.1742,4.0296 33.0742,4.0362 32.8459,4.1286 C31.9795,4.479 30.6756,5.5787 29.0648,7.4711 C28.051,8.6622 26.9707,10.098 25.8467,11.7306 C24.8421,13.1898 23.8492,14.7371 22.8959,16.3043 C22.8953,16.3052 22.8948,16.3062 22.8942,16.3072 L21.8885,17.9924 L21.1798,19.2237 L21.2952,19.4469 L21.2982,19.4527 L21.726,20.264 C21.7263,20.2646 21.7266,20.2652 21.7269,20.2658 C22.5045,21.7216 23.3316,23.1734 24.1712,24.5215 C24.9477,25.7685 25.691,26.8547 26.3832,27.7413 C27.0031,28.5355 27.5578,29.128 27.9989,29.5131 C28.1826,29.6735 28.3361,29.7886 28.4573,29.8659 C28.5233,29.7752 28.6025,29.655 28.6939,29.5013 C28.9948,28.995 29.3643,28.2336 29.7681,27.2594 C30.5727,25.3183 31.4807,22.6121 32.2267,19.5948 L32.5324,18.3091 C33.2347,15.232 33.6957,12.2921 33.8749,9.8656 C33.9646,8.6516 33.9828,7.578 33.9286,6.6866 C33.8736,5.783 33.7467,5.1179 33.5764,4.6917 C33.4723,4.431 33.3831,4.2609 33.3087,4.1519 C33.2545,4.0726 33.2189,4.0417 33.2061,4.032 Z M8.935,7.4711 C7.3242,5.5787 6.0203,4.479 5.154,4.1286 C4.92562,4.0362 4.82565,4.0296 4.79374,4.032 C4.78093,4.0417 4.74538,4.0726 4.69114,4.1519 C4.61669,4.2609 4.52748,4.4311 4.42332,4.6919 C4.35352421,4.86657368 4.29253241,5.07616814 4.24097256,5.31907382 L4.20482681,5.5040126 C4.04026479,6.41558615 3.99391316,7.72683158 4.09195,9.3722 C4.22239,11.5614 4.59911,14.2198 5.1908,17.045 L5.4682,18.3126 L5.7731,19.5948 C6.5191,22.6121 7.4271,25.3182 8.2317,27.2594 C8.6355,28.2336 9.005,28.995 9.3059,29.5013 C9.3973,29.655 9.4765,29.7752 9.5425,29.8659 C9.6637,29.7886 9.8172,29.6735 10.0009,29.5132 C10.442,29.128 10.9967,28.5355 11.6167,27.7413 C12.3088,26.8547 13.0521,25.7685 13.8287,24.5215 C14.4578,23.5112 15.0802,22.4424 15.6801,21.357 L16.4078,20.0122 L16.8184,19.2213 L16.3941,18.4783 L15.8128,17.4854 C15.8124,17.4848 15.8121,17.4843 15.8117,17.4837 C14.6472,15.5176 13.4093,13.5553 12.1531,11.7306 C11.7784667,11.1864 11.4086667,10.6640667 11.0445556,10.1653741 L10.8638268,9.9210126 L10.6823724,9.67462743 C10.082,8.87006914 9.49822222,8.13282222 8.935,7.4711 Z" id="形状结合"></path>
        </g>
    </g>
</svg>