<?xml version="1.0" encoding="UTF-8"?>
<svg width="56px" height="56px" viewBox="0 0 56 56" version="1.1" xmlns="http://www.w3.org/2000/svg" xmlns:xlink="http://www.w3.org/1999/xlink">
    <!-- Generator: Sketch 55.2 (78181) - https://sketchapp.com -->
    <title>Add_emoticon_button_nor</title>
    <desc>Created with Sketch.</desc>
    <g id="Add_emoticon_button_nor" stroke="none" stroke-width="1" fill="none" fill-rule="evenodd">
        <path d="M54.9801717,50 L55.9800726,50 C55.9801387,50.0114602 55.9801717,50.0229206 55.9801717,50.0343809 C55.9801717,53.328525 53.3097403,55.9989564 50.0155962,55.9989564 L50,55.9989564 L50,55.0035501 L50.0035766,54.9999464 C52.7542333,54.9873401 54.9801717,52.7536179 54.9801717,50 Z M1,50 C1,52.7536179 3.22593842,54.9873401 5.97659514,54.9999464 L5.98017173,55.0035501 L5.98017173,55.9989564 L5.96457549,55.9989564 C2.67043141,55.9989564 1.66533454e-15,53.328525 7.77156117e-16,50.0343809 C7.77156117e-16,50.0229206 3.30301046e-05,50.0114602 9.90899022e-05,50 L1,50 Z M54.9801717,5.99895642 C54.9801717,3.24533849 52.7542333,1.01161632 50.0035766,0.999010047 L50,0.995406301 L50,-1.00423003e-11 L50.0155962,-1.00423003e-11 C53.3097403,-1.00431885e-11 55.9801717,2.67043141 55.9801717,5.96457549 C55.9801717,5.97603587 55.9801387,5.98749623 55.9800726,5.99895642 L54.9801717,5.99895642 Z M1,5.99895642 L9.90899022e-05,5.99895642 C3.30301046e-05,5.98749623 7.77156117e-16,5.97603587 7.77156117e-16,5.96457549 C1.66533454e-15,2.67043141 2.67043141,-1.00431885e-11 5.96457549,-1.00423003e-11 L5.98017173,-1.00423003e-11 L5.98017173,0.995406301 L5.97659514,0.999010047 C3.22593842,1.01161632 1,3.24533849 1,5.99895642 Z M10,1 L10,1.22124533e-15 L16,1.22124533e-15 L16,1 L10,1 Z M10,56 L10,55 L16,55 L16,56 L10,56 Z M20,56 L20,55 L26,55 L26,56 L20,56 Z M30,1 L30,1.22124533e-15 L36,1.22124533e-15 L36,1 L30,1 Z M40,1 L40,1.22124533e-15 L46,1.22124533e-15 L46,1 L40,1 Z M40,56 L40,55 L46,55 L46,56 L40,56 Z M55,10 L56,10 L56,16 L55,16 L55,10 Z M1.22124533e-15,20 L1,20 L1,26 L1.22124533e-15,26 L1.22124533e-15,20 Z M1.22124533e-15,10 L1,10 L1,16 L1.22124533e-15,16 L1.22124533e-15,10 Z M30,56 L30,55 L36,55 L36,56 L30,56 Z M56,26 L55,26 L55,20 L56,20 L56,26 Z M1,36 L1.22124533e-15,36 L1.22124533e-15,30 L1,30 L1,36 Z M56,36 L55,36 L55,30 L56,30 L56,36 Z M1,46 L1.22124533e-15,46 L1.22124533e-15,40 L1,40 L1,46 Z M20,1 L20,1.22124533e-15 L26,1.22124533e-15 L26,1 L20,1 Z M56,46 L55,46 L55,40 L56,40 L56,46 Z M27.25,27.25 L27.25,16.8 L28.75,16.8 L28.75,27.25 L39.2,27.25 L39.2,28.75 L28.75,28.75 L28.75,39.2 L27.25,39.2 L27.25,28.75 L16.8,28.75 L16.8,27.25 L27.25,27.25 Z" id="形状结合" fill="#000000"></path>
    </g>
</svg>