<svg width="48" height="48" viewBox="0 0 48 48" fill="none" xmlns="http://www.w3.org/2000/svg">
<g id="0.&#229;&#155;&#190;&#230;&#160;&#135;/&#233;&#157;&#162;&#229;&#158;&#139;/icons_filled_link">
<path id="Combined Shape" fill-rule="evenodd" clip-rule="evenodd" d="M32.4853 21.1716L35.3137 24L39.5564 19.7574C42.6806 16.6332 42.6806 11.5678 39.5564 8.44365C36.4322 5.31945 31.3668 5.31945 28.2427 8.44365L19.7574 16.9289C16.6332 20.0531 16.6332 25.1184 19.7574 28.2426L22.5858 25.4142C21.0237 23.8521 21.0237 21.3195 22.5858 19.7574L31.0711 11.2721C32.6332 9.70998 35.1658 9.70998 36.7279 11.2721C38.29 12.8342 38.29 15.3668 36.7279 16.9289L32.4853 21.1716ZM15.5147 26.8284L12.6863 24L8.44367 28.2426C5.31948 31.3668 5.31948 36.4322 8.44367 39.5564C11.5679 42.6805 16.6332 42.6805 19.7574 39.5564L28.2427 31.0711C31.3669 27.9469 31.3669 22.8816 28.2427 19.7574L25.4142 22.5858C26.9763 24.1479 26.9763 26.6805 25.4142 28.2426L16.929 36.7279C15.3669 38.29 12.8342 38.29 11.2721 36.7279C9.71 35.1658 9.71 32.6332 11.2721 31.0711L15.5147 26.8284Z" fill="black" fill-opacity="0.3"/>
</g>
</svg>
