<?xml version="1.0" encoding="UTF-8"?>
<svg width="40px" height="40px" viewBox="0 0 40 40" version="1.1" xmlns="http://www.w3.org/2000/svg" xmlns:xlink="http://www.w3.org/1999/xlink">
    <title>app_attach_file_icon_红包</title>
    <g id="app_attach_file_icon_红包" stroke="none" stroke-width="1" fill="none" fill-rule="evenodd">
        <g id="编组" transform="translate(8.000000, 4.000000)">
            <path d="M20.640368,0 L3.35963203,0 C1.50713646,0 0,1.54653912 0,3.44746644 L0,28.5525336 C0,30.4534609 1.50713646,32 3.35963203,32 L20.640368,32 C22.4928635,32 24,30.4534609 24,28.5525336 L24,3.44746644 C24,1.54653912 22.4928635,0 20.640368,0" id="路径" fill="#D03D3B"></path>
            <path d="M20.3496949,0.85400885 C21.8901695,0.85400885 23.1505085,2.14792833 23.1505085,3.72944735 L23.1505085,27.9787096 C23.1505085,29.5600894 21.8901695,30.8540088 20.3496949,30.8540088 L3.66616949,30.8540088 C2.12569492,30.8540088 0.865355932,29.5600894 0.865355932,27.9787096 L0.865355932,3.72944735 C0.865355932,2.14792833 2.12569492,0.85400885 3.66616949,0.85400885 L20.3496949,0.85400885" id="Fill-2" fill="#D03D3B"></path>
            <path d="M15.623322,14.2199469 C15.623322,16.3156018 13.9438644,18.0145664 11.8722712,18.0145664 C9.80067797,18.0145664 8.12122034,16.3156018 8.12122034,14.2199469 C8.12122034,12.124292 9.80067797,10.4253274 11.8722712,10.4253274 C13.9438644,10.4253274 15.623322,12.124292 15.623322,14.2199469" id="Fill-3" fill="#C63636"></path>
            <path d="M20.3496949,2.00183186 L3.66616949,2.00183186 C1.99972881,2.00183186 0.643932203,3.37323894 0.643932203,5.05917257 L0.643932203,10.6506947 C1.89708475,11.3162345 4.20677966,13.5195664 7.91159322,14.2863363 C10.6136949,14.8455708 13.4021695,14.8455708 16.1042712,14.2863363 C19.8090847,13.5195664 22.1187797,11.3162345 23.3719322,10.6506947 L23.3719322,5.05917257 C23.3719322,3.37323894 22.0161356,2.00183186 20.3496949,2.00183186" id="Fill-4" fill="#C63636"></path>
            <path d="M20.3496949,0.630150442 L3.66616949,0.630150442 C1.99972881,0.630150442 0.643932203,2.00155752 0.643932203,3.68749115 L0.643932203,10.4941858 C1.89708475,11.1597257 4.20677966,12.1477478 7.91159322,12.9146549 C10.6136949,13.4738894 13.4021695,13.4738894 16.1042712,12.9146549 C19.8090847,12.1477478 22.1187797,11.1597257 23.3719322,10.4941858 L23.3719322,3.68749115 C23.3719322,2.00155752 22.0161356,0.630150442 20.3496949,0.630150442" id="Fill-5" fill="#E74C4B"></path>
            <path d="M15.8858305,13.0540177 C15.8858305,15.2963053 14.0889492,17.1141947 11.8722712,17.1141947 C9.65572881,17.1141947 7.85884746,15.2963053 7.85884746,13.0540177 C7.85884746,10.8117301 9.65572881,8.99384071 11.8722712,8.99384071 C14.0889492,8.99384071 15.8858305,10.8117301 15.8858305,13.0540177" id="Fill-6" fill="#D03D3B"></path>
            <path d="M15.4740339,13.0540177 C15.4740339,15.0662743 13.8615593,16.6974779 11.8724068,16.6974779 C9.88311864,16.6974779 8.27064407,15.0662743 8.27064407,13.0540177 C8.27064407,11.0417611 9.88311864,9.41055752 11.8724068,9.41055752 C13.8615593,9.41055752 15.4740339,11.0417611 15.4740339,13.0540177" id="Fill-7" fill="#FAD534"></path>
            <path d="M13.7886102,11.0231062 C13.8945085,10.9159779 13.8945085,10.742323 13.7886102,10.6351947 C13.6828475,10.5280664 13.5109153,10.5280664 13.4051525,10.6351947 L11.8722712,12.1858805 L10.3395254,10.6351947 C10.2336271,10.5280664 10.0618305,10.5280664 9.9559322,10.6351947 C9.8500339,10.742323 9.8500339,10.9159779 9.9559322,11.0231062 L11.6010847,12.6873673 L11.6010847,12.7869513 L10.2790508,12.7869513 C10.1293559,12.7869513 10.0078644,12.909854 10.0078644,13.0612876 C10.0078644,13.2128584 10.1293559,13.3356239 10.2790508,13.3356239 L11.6010847,13.3356239 L11.6010847,14.1071947 L10.2790508,14.1071947 C10.1293559,14.1071947 10.0078644,14.2300973 10.0078644,14.381531 C10.0078644,14.5331018 10.1293559,14.6558673 10.2790508,14.6558673 L11.6010847,14.6558673 L11.6010847,15.8389425 C11.6010847,15.9905133 11.7225763,16.1132788 11.8722712,16.1132788 C12.0221017,16.1132788 12.1434576,15.9905133 12.1434576,15.8389425 L12.1434576,14.6558673 L13.4654915,14.6558673 C13.615322,14.6558673 13.736678,14.5331018 13.736678,14.381531 C13.736678,14.2300973 13.615322,14.1071947 13.4654915,14.1071947 L12.1434576,14.1071947 L12.1434576,13.3356239 L13.4654915,13.3356239 C13.615322,13.3356239 13.736678,13.2128584 13.736678,13.0612876 C13.736678,12.909854 13.615322,12.7869513 13.4654915,12.7869513 L12.1434576,12.7869513 L12.1434576,12.6873673 L13.7886102,11.0231062" id="Fill-8" fill="#FFA329"></path>
        </g>
    </g>
</svg>