<?xml version="1.0" encoding="UTF-8"?>
<svg width="50px" height="50px" viewBox="0 0 50 50" version="1.1" xmlns="http://www.w3.org/2000/svg" xmlns:xlink="http://www.w3.org/1999/xlink">
    <!-- Generator: Sketch 60.1 (88133) - https://sketch.com -->
    <title>avatar_dotline_minus_bg备份</title>
    <desc>Created with Sketch.</desc>
    <g id="avatar_dotline_minus_bg备份" stroke="none" stroke-width="1" fill="none" fill-rule="evenodd">
        <path d="M14.2551675,49.0021383 L14.2551675,50 L8.90947969,50 L8.90947969,49.0021383 L14.2551675,49.0021383 Z M23.1646472,49.0021383 L23.1646472,50 L17.8189594,50 L17.8189594,49.0021383 L23.1646472,49.0021383 Z M40.9836066,49.0021383 L40.9836066,50 L35.6379187,50 L35.6379187,49.0021383 L40.9836066,49.0021383 Z M32.0741269,49.0021383 L32.0741269,50 L26.7284391,50 L26.7284391,49.0021383 L32.0741269,49.0021383 Z M49.875332,44.5473984 L49.8754203,44.5780301 C49.8754203,47.512941 47.4962048,49.8921565 44.5612939,49.8921565 L44.5612939,49.8921565 L44.5473984,49.8921565 L44.5473984,49.0053013 C47.0008568,48.9912806 48.9844723,47.0009887 48.9844723,44.5473984 L48.9844723,44.5473984 L49.875332,44.5473984 Z M0.890947969,44.5473984 C0.890947969,47.0009887 2.87456352,48.9912806 5.32561423,49.002094 L5.32802185,49.0053013 L5.32802185,49.8921565 L5.31412642,49.8921565 C2.37921544,49.8921565 -4.4408921e-16,47.512941 -1.33226763e-15,44.5780301 L8.8283947e-05,44.5473984 L0.890947969,44.5473984 Z M0.997861725,35.6379187 L0.997861725,40.9836066 L0,40.9836066 L0,35.6379187 L0.997861725,35.6379187 Z M50,35.6379187 L50,40.9836066 L49.0021383,40.9836066 L49.0021383,35.6379187 L50,35.6379187 Z M0.997861725,26.7284391 L0.997861725,32.0741269 L0,32.0741269 L0,26.7284391 L0.997861725,26.7284391 Z M50,26.7284391 L50,32.0741269 L49.0021383,32.0741269 L49.0021383,26.7284391 L50,26.7284391 Z M34.9251604,24.2783321 L34.9251604,25.6147541 L14.9679259,25.6147541 L14.9679259,24.2783321 L34.9251604,24.2783321 Z M0.997861725,17.8189594 L0.997861725,23.1646472 L0,23.1646472 L0,17.8189594 L0.997861725,17.8189594 Z M50,17.8189594 L50,23.1646472 L49.0021383,23.1646472 L49.0021383,17.8189594 L50,17.8189594 Z M50,8.90947969 L50,14.2551675 L49.0021383,14.2551675 L49.0021383,8.90947969 L50,8.90947969 Z M0.997861725,8.90947969 L0.997861725,14.2551675 L0,14.2551675 L0,8.90947969 L0.997861725,8.90947969 Z M44.5612939,-1.05968567e-11 C47.4962048,-1.05977449e-11 49.8754203,2.37921544 49.8754203,5.31412642 L49.875332,5.34475804 L48.9844723,5.34475804 C48.9844723,2.89116781 47.0008568,0.900875823 44.5498061,0.890062469 L44.5473984,0.886855222 L44.5473984,-1.05968567e-11 L44.5612939,-1.05968567e-11 Z M5.32802185,-1.05968567e-11 L5.32802185,0.886855222 C2.87456352,0.900875823 0.890947969,2.89116781 0.890947969,5.34475804 L0.890947969,5.34475804 L8.8283947e-05,5.34475804 L-1.33226763e-15,5.31412642 C-4.4408921e-16,2.37921544 2.37921544,-1.05986331e-11 5.31412642,-1.05968567e-11 L5.31412642,-1.05968567e-11 L5.32802185,-1.05968567e-11 Z M14.2551675,0 L14.2551675,0.997861725 L8.90947969,0.997861725 L8.90947969,0 L14.2551675,0 Z M32.0741269,0 L32.0741269,0.997861725 L26.7284391,0.997861725 L26.7284391,0 L32.0741269,0 Z M40.9836066,0 L40.9836066,0.997861725 L35.6379187,0.997861725 L35.6379187,0 L40.9836066,0 Z M23.1646472,0 L23.1646472,0.997861725 L17.8189594,0.997861725 L17.8189594,0 L23.1646472,0 Z" id="形状结合" fill="#B2B2B2"></path>
    </g>
</svg>