<?xml version="1.0" encoding="UTF-8"?>
<svg width="24px" height="24px" viewBox="0 0 24 24" version="1.1" xmlns="http://www.w3.org/2000/svg" xmlns:xlink="http://www.w3.org/1999/xlink">
    <title>icons_filled_wallet</title>
    <g id="icons_filled_wallet" stroke="none" stroke-width="1" fill="none" fill-rule="evenodd">
        <g id="icons_filled_wallet">
            <path d="M9.11627434,6.34169781 C10.0429197,6.55461894 11.0082361,6.6671534 12,6.6671534 C12.9903405,6.6671534 13.9543093,6.55494174 14.8797356,6.34261396 L14.8355665,6.32494396 C18.4230611,7.64391677 21.375,11.3574867 21.375,15.3148973 C21.375,20.0986345 18.2336785,21.75 11.9969354,21.75 C5.7601923,21.75 2.625,20.0986345 2.625,15.3148973 C2.625,11.4485581 5.44123596,7.81531953 8.90993137,6.42072366 Z M11.9542718,2.25 C13.3365279,2.25 14.6778791,2.47284732 15.9783257,2.91854195 C16.1864205,2.98994848 16.2973133,3.21648742 16.225985,3.42460902 C16.2115795,3.46664133 16.1902434,3.50596742 16.1628603,3.54095883 C15.5096767,4.37562728 15.0227749,4.99781309 14.7021549,5.40751625 C13.8351372,5.60981202 12.9301433,5.71682265 12,5.71682265 C11.0820248,5.71682265 10.1885452,5.61259352 9.33088999,5.4153938 C9.29512512,5.3680318 9.25607196,5.31782002 9.214783,5.26473359 L8.8087234,4.74265093 C8.54027288,4.39749628 8.21655315,3.98128038 7.83756419,3.49400323 C7.70235077,3.32032309 7.73365132,3.06993002 7.90739467,2.93479787 C7.94313955,2.90699662 7.98336108,2.88549057 8.02633179,2.87120339 C9.27190292,2.4570678 10.5812163,2.25 11.9542718,2.25 Z" id="形状结合" fill="#FEC300" fill-rule="nonzero"></path>
            <path d="M13.3965335,10.55 L15.1054308,10.55 L13.7393593,13.1970588 L15.1375,13.1970588 L15.1375,14.4205882 L12.6330357,14.4205882 L12.6330357,15.4029412 L15.1375,15.4029412 L15.1375,16.6264706 L12.6330357,16.6264706 L12.6330357,17.95 L11.3669643,17.95 L11.3669643,16.6264706 L8.8625,16.6264706 L8.8625,15.4029412 L11.3669643,15.4029412 L11.3669643,14.4205882 L8.8625,14.4205882 L8.8625,13.1970588 L10.2606407,13.1970588 L8.89456923,10.55 L10.6034665,10.55 L12,13.2560857 L13.3965335,10.55 Z" id="Combined-Shape" stroke="#FEC300" stroke-width="0.1" fill="#FFFFFF"></path>
        </g>
    </g>
</svg>