<?xml version="1.0" encoding="UTF-8"?>
<svg width="24px" height="24px" viewBox="0 0 24 24" version="1.1" xmlns="http://www.w3.org/2000/svg" xmlns:xlink="http://www.w3.org/1999/xlink">
    <title>编组 6</title>
    <g id="页面-1" stroke="none" stroke-width="1" fill="none" fill-rule="evenodd">
        <g id="编组-6">
            <circle id="Oval-6" fill="#FFFFFF" cx="12" cy="12" r="12"></circle>
            <path d="M12,2 C17.5228475,2 22,6.4771525 22,12 C22,17.5228475 17.5228475,22 12,22 C6.4771525,22 2,17.5228475 2,12 C2,6.4771525 6.4771525,2 12,2 Z M10.5,8 L8.5,8 L10,11 L8.5,11 L8.5,12.5 L11.25,12.5 L11.25,13.5 L8.5,13.5 L8.5,15 L11.25,15 L11.25,16.5 L12.75,16.5 L12.75,15 L15.5,15 L15.5,13.5 L12.75,13.5 L12.75,12.5 L15.5,12.5 L15.5,11 L14,11 L15.5,8 L13.5,8 L12,11 L10.5,8 Z" id="图标颜色" fill="#FFC300"></path>
        </g>
    </g>
</svg>