<?xml version="1.0" encoding="UTF-8"?>
<svg width="21px" height="18px" viewBox="0 0 21 18" version="1.1" xmlns="http://www.w3.org/2000/svg" xmlns:xlink="http://www.w3.org/1999/xlink">
    <title>3.Icons/Filled/close</title>
    <g id="页面-1" stroke="none" stroke-width="1" fill="none" fill-rule="evenodd">
        <g id="1级模块_规范名_负责人_版本号V1.0_200407_规范模版" transform="translate(-1574.000000, -6077.000000)" fill="#111111">
            <g id="编组-7" transform="translate(191.000000, 5493.000000)">
                <g id="编组-6" transform="translate(87.000000, 40.000000)">
                    <g id="3.Icons/Filled/close" transform="translate(1294.000000, 541.000000)">
                        <path d="M15.3333333,3.53616509 C15.7015232,3.53616509 16,3.83464193 16,4.20283176 L16,4.20283176 L16,19.7971682 C16,19.9221147 15.964887,20.0445465 15.8986655,20.1505009 C15.7035253,20.4627252 15.2922251,20.5576407 14.9800007,20.3625004 L14.9800007,20.3625004 L8,16 L6,16 C3.790861,16 2,14.209139 2,12 C2,9.790861 3.790861,8 6,8 L6,8 L8,8 L14.9800007,3.63749956 C15.0859551,3.57127806 15.2083869,3.53616509 15.3333333,3.53616509 Z M18.4429582,15.1053983 L22.4468644,17.1053983 L21.5531356,18.8946017 L17.5492293,16.8946017 L18.4429582,15.1053983 Z M22,11 L22,13 L17.9960938,13 L17.9960938,11 L22,11 Z M21.5531356,5.10539832 L22.4468644,6.89460168 L18.4429582,8.89460168 L17.5492293,7.10539832 L21.5531356,5.10539832 Z" id="形状结合"></path>
                    </g>
                </g>
            </g>
        </g>
    </g>
</svg>