<?xml version="1.0" encoding="UTF-8"?>
<svg width="24px" height="24px" viewBox="0 0 24 24" version="1.1" xmlns="http://www.w3.org/2000/svg" xmlns:xlink="http://www.w3.org/1999/xlink">
    <!-- Generator: Sketch 55 (78076) - https://sketchapp.com -->
    <title>weidou</title>
    <desc>Created with Sketch.</desc>
    <g id="weidou" stroke="none" stroke-width="1" fill="none" fill-rule="evenodd">
        <g id="编组">
            <polygon id="Fill-1" points="0 24 24 24 24 0 0 0"></polygon>
            <path d="M18.6267166,6.57278079 C17.6147215,5.56078561 16.2937277,4.9947883 14.8437346,4.84478902 C14.6607355,5.29278689 14.3767369,5.79878448 13.9477389,6.39078166 C12.7327447,8.06877367 10.8717536,8.86376989 10.8717536,8.86376989 C10.8717536,8.86376989 12.8227443,6.78677977 13.0537432,4.79978923 C13.1687426,3.81079394 12.9657436,2.5787998 12.5257457,2.13380192 C12.2637469,1.86680319 11.8147491,2.02280245 11.7777492,2.39480068 C11.7187495,3.00479778 11.4917506,3.8397938 10.8977534,4.63179003 C10.4217557,5.26678701 9.4117605,5.99878353 9.05076222,6.24978233 C8.18076636,6.7607799 7.34177036,7.40077685 6.57077403,8.17177318 C2.80079197,11.9417552 2.08479538,17.3397295 4.97278163,20.2277158 C7.85976789,23.1147021 13.2577422,22.3997055 17.0277243,18.6287234 C20.7987063,14.8577414 21.5147029,9.46076705 18.6267166,6.57278079" id="Fill-2" fill="#000000"></path>
        </g>
    </g>
</svg>