<?xml version="1.0" encoding="UTF-8"?>
<svg width="20px" height="20px" viewBox="0 0 20 20" version="1.1" xmlns="http://www.w3.org/2000/svg" xmlns:xlink="http://www.w3.org/1999/xlink">
    <title>画板</title>
    <g id="画板" stroke="none" stroke-width="1" fill="none" fill-rule="evenodd">
        <g id="编组" fill="#7AD300">
            <path d="M14.6601158,5.92958559 C13.8952103,5.17058921 12.8967516,4.74609123 11.8007901,4.63359176 C11.6624722,4.96959016 11.4478149,5.34908836 11.1235614,5.79308624 C10.2052213,7.05158025 8.7986114,7.64782742 8.7986114,7.64782742 C8.7986114,7.64782742 10.2732465,6.09008483 10.4478445,4.59984192 C10.5347656,3.85809546 10.381331,2.93409985 10.0487633,2.60035144 C9.85073444,2.4001024 9.51136429,2.51710184 9.48339838,2.79610051 C9.43880408,3.25359833 9.26722942,3.87984535 8.81826313,4.47384252 C8.45848542,4.95009026 7.69509155,5.49908764 7.42223493,5.68733675 C6.76465803,6.07058492 6.13051203,6.55058264 5.54776285,7.12882989 C2.69826296,9.95631643 2.15708473,14.0047972 4.3399377,16.1707868 C6.52203483,18.3360265 10.6020349,17.7997791 13.4515348,14.9715426 C16.3017906,12.143306 16.8429688,8.09557528 14.6601158,5.92958559" id="Fill-2"></path>
        </g>
    </g>
</svg>