<?xml version="1.0" encoding="UTF-8"?>
<svg width="24px" height="24px" viewBox="0 0 24 24" version="1.1" xmlns="http://www.w3.org/2000/svg" xmlns:xlink="http://www.w3.org/1999/xlink">
    <title>编组 2</title>
    <g id="页面-1" stroke="none" stroke-width="1" fill="none" fill-rule="evenodd">
        <g id="新手引导" transform="translate(-195.000000, -606.000000)">
            <g id="编组-3" transform="translate(0.000000, 558.000000)">
                <g id="编组-2" transform="translate(195.000000, 48.000000)">
                    <rect id="矩形" fill="#FFFFFF" opacity="0" x="0" y="0" width="24" height="24"></rect>
                    <path d="M10.1304318,10.2078706 C10.1304318,10.2078706 13.0994318,8.42087064 13.3634318,4.91587064 C13.4344318,3.98787064 13.1324318,2.54087064 12.7214318,2.12487064 C12.4764318,1.87587064 12.0554318,2.02087064 12.0224318,2.36887064 C11.9664318,2.93887064 11.7544318,4.01887064 11.1994318,4.75887064 C10.7534318,5.35287064 9.80943185,6.03787064 9.47143185,6.27187064 C8.65743185,6.74987064 7.87243185,7.34887064 7.15243185,8.06887064 C3.62643185,11.5948706 2.95743185,16.6418706 5.65743185,19.3428706 C8.35843185,22.0428706 13.4054318,21.3738706 16.9314318,17.8478706 C20.4574318,14.3218706 21.1264318,9.27387064 18.4264318,6.57387064 C17.4804318,5.62787064 16.0814318,5.06287064 15.0374318,4.94587064 C13.9934318,4.82987064 13.3974318,4.91587064 13.3974318,4.91587064" id="Stroke-4备份" stroke-opacity="0.3" stroke="#000000" stroke-width="1.2"></path>
                </g>
            </g>
        </g>
    </g>
</svg>