<?xml version="1.0" encoding="UTF-8"?>
<svg width="48px" height="48px" viewBox="0 0 48 48" version="1.1" xmlns="http://www.w3.org/2000/svg" xmlns:xlink="http://www.w3.org/1999/xlink">
    <title>guide_ic_03</title>
    <g id="正式的稿" stroke="none" stroke-width="1" fill="none" fill-rule="evenodd" opacity="0.149999991">
        <g id="超时教育浮层" transform="translate(-287.000000, -610.000000)">
            <g id="guide_ic_03" transform="translate(287.000000, 610.000000)">
                <rect id="Rectangle-664" x="0" y="0" width="48" height="48"></rect>
                <path d="M24,4 C35.045695,4 44,12.954305 44,24 C44,35.045695 35.045695,44 24,44 C12.954305,44 4,35.045695 4,24 C4,12.954305 12.954305,4 24,4 Z M24,6.4 C14.2797884,6.4 6.4,14.2797884 6.4,24 C6.4,33.7202116 14.2797884,41.6 24,41.6 C33.7202116,41.6 41.6,33.7202116 41.6,24 C41.6,14.2797884 33.7202116,6.4 24,6.4 Z M24.4331966,22.9806521 C26.9678146,22.9806521 29.414767,23.6027202 31.600103,24.7732253 L31.8177581,24.8921012 L30.6502146,26.988966 C28.7650319,25.9392881 26.6410192,25.3806521 24.4331966,25.3806521 C22.1585959,25.3806521 19.9736985,25.973794 18.049559,27.0833765 L17.8514473,27.2 L16.6154384,25.1427489 C18.9578338,23.7354236 21.6416293,22.9806521 24.4331966,22.9806521 Z M17,11.8 C18.6568542,11.8 20,13.1431458 20,14.8 C20,16.4568542 18.6568542,17.8 17,17.8 C15.3431458,17.8 14,16.4568542 14,14.8 C14,13.1431458 15.3431458,11.8 17,11.8 Z M31,11.8 C32.6568542,11.8 34,13.1431458 34,14.8 C34,16.4568542 32.6568542,17.8 31,17.8 C29.3431458,17.8 28,16.4568542 28,14.8 C28,13.1431458 29.3431458,11.8 31,11.8 Z" id="Combined-Shape" fill-opacity="0.9" fill="#000000"></path>
            </g>
        </g>
    </g>
</svg>