<?xml version="1.0" encoding="UTF-8"?>
<svg width="202px" height="269px" viewBox="0 0 202 269" version="1.1" xmlns="http://www.w3.org/2000/svg" xmlns:xlink="http://www.w3.org/1999/xlink">
    <title>Path</title>
    <defs>
        <linearGradient x1="50%" y1="0%" x2="50%" y2="100%" id="linearGradient-1">
            <stop stop-color="#FFFFFF" stop-opacity="0.7" offset="0%"></stop>
            <stop stop-color="#FFFFFF" stop-opacity="0.3" offset="48.5303759%"></stop>
            <stop stop-color="#FFFFFF" stop-opacity="0.7" offset="100%"></stop>
        </linearGradient>
    </defs>
    <g id="正式的稿" stroke="none" stroke-width="1" fill="none" fill-rule="evenodd">
        <g id="人脸位置调整阶段" transform="translate(-106.000000, -209.000000)" fill="url(#linearGradient-1)" fill-rule="nonzero">
            <g id="Group-4" transform="translate(106.000000, 209.000000)">
                <path d="M101,0.5 L99.3422711,0.513398628 C44.5528109,1.40071902 0.5,46.0463016 0.5,100.77684 L0.5,143.428684 L0.514282567,144.967063 C1.03857157,173.437594 15.8622066,213.226273 33.9160104,234.578336 C51.9224627,255.874397 76.5152927,268.275077 100.995493,268.49576 C125.323999,268.715075 149.633127,256.399996 168.08399,234.578336 C186.505099,212.791864 201.5,171.923107 201.5,143.428684 L201.5,100.77684 C201.5,45.4283463 156.486918,0.5 101,0.5 Z M99.3544138,1.5133167 L101,1.5 C155.935054,1.5 200.5,45.9810533 200.5,100.77684 L200.5,143.428684 C200.5,171.686461 185.589007,212.326526 167.320368,233.932672 C149.053162,255.537123 125.020199,267.712296 101.004507,267.495801 C76.8262727,267.27784 52.5042976,255.013736 34.6796317,233.932672 C16.7751874,212.757255 2.03418851,173.190382 1.51417619,144.953208 L1.49997839,143.424035 L1.49997839,100.77684 C1.49997839,46.5929032 45.1142754,2.39175701 99.3544138,1.5133167 Z" id="Path"></path>
            </g>
        </g>
    </g>
</svg>