<?xml version="1.0" encoding="UTF-8"?>
<svg width="48px" height="48px" viewBox="0 0 48 48" version="1.1" xmlns="http://www.w3.org/2000/svg" xmlns:xlink="http://www.w3.org/1999/xlink">
    <title>guide_ic_01</title>
    <g id="正式的稿" stroke="none" stroke-width="1" fill="none" fill-rule="evenodd" opacity="0.149999991">
        <g id="超时教育浮层" transform="translate(-79.000000, -610.000000)">
            <g id="guide_ic_01" transform="translate(79.000000, 610.000000)">
                <path d="M24,4 C35.045695,4 44,12.954305 44,24 C44,35.045695 35.045695,44 24,44 C12.954305,44 4,35.045695 4,24 C4,12.954305 12.954305,4 24,4 Z M24,6.4 C14.2797884,6.4 6.4,14.2797884 6.4,24 C6.4,33.7202116 14.2797884,41.6 24,41.6 C33.7202116,41.6 41.6,33.7202116 41.6,24 C41.6,14.2797884 33.7202116,6.4 24,6.4 Z" id="Combined-Shape" fill-opacity="0.9" fill="#000000"></path>
                <rect id="Rectangle" stroke="#000000" stroke-width="2.4" x="26.8" y="16.4" width="12" height="11.2" rx="5.6"></rect>
                <rect id="Rectangle" stroke="#000000" stroke-width="2.4" x="9.2" y="16.4" width="12" height="11.2" rx="5.6"></rect>
                <path d="M26.8,22.8 C26.8,21.2536027 25.5463973,20 24,20 C22.4536027,20 21.2,21.2536027 21.2,22.8" id="Path" stroke="#000000" stroke-width="2.4"></path>
            </g>
        </g>
    </g>
</svg>