<?xml version="1.0" encoding="UTF-8"?>
<svg width="48px" height="48px" viewBox="0 0 48 48" version="1.1" xmlns="http://www.w3.org/2000/svg" xmlns:xlink="http://www.w3.org/1999/xlink">
    <title>guide_ic_02</title>
    <g id="正式的稿" stroke="none" stroke-width="1" fill="none" fill-rule="evenodd" opacity="0.149999991">
        <g id="超时教育浮层" transform="translate(-183.000000, -610.000000)">
            <g id="guide_ic_02" transform="translate(183.000000, 610.000000)">
                <rect id="Rectangle" x="0" y="0" width="48" height="48"></rect>
                <path d="M24,4 C34.5988403,4 43.2720825,12.2444651 43.9564901,22.6701586 C43.4438119,22.3797987 42.8696612,22.1793125 42.2528131,22.0920567 C41.9971755,22.0558441 41.7415311,22.0203927 41.4858802,21.9857026 C40.4866772,13.214191 33.0391084,6.4 24,6.4 C14.9608916,6.4 7.51332282,13.214191 6.5139896,21.9858772 C6.25838458,22.0204168 6.00258795,22.055889 5.74679719,22.0921233 C5.13022177,22.1793405 4.55629475,22.3797329 4.04391209,22.6695221 C4.72813985,12.2442537 13.4012956,4 24,4 Z" id="Path" fill="#000000"></path>
                <path d="M17,15 C18.6568542,15 20,16.3431458 20,18 C20,19.6568542 18.6568542,21 17,21 C15.3431458,21 14,19.6568542 14,18 C14,16.3431458 15.3431458,15 17,15 Z" id="Path" fill="#000000"></path>
                <path d="M31,15 C32.6568542,15 34,16.3431458 34,18 C34,19.6568542 32.6568542,21 31,21 C29.3431458,21 28,19.6568542 28,18 C28,16.3431458 29.3431458,15 31,15 Z" id="Path" fill="#000000"></path>
                <path d="M24.00792,23.2 C29.98352,23.2004 35.95872,23.6292 41.93432,24.4868 C43.11712,24.6564 44.00312,25.654 44.01112,26.8484 L44.0144022,27.4418736 L44.0156502,28.0406951 L44.0137348,28.6436659 L44.0101429,29.0473595 L44.0004465,29.6545817 L43.9906219,30.0599996 L43.9777188,30.4654857 C43.9752932,30.5330526 43.9727253,30.6006076 43.9700083,30.6681432 L43.9518602,31.0730655 C43.945177,31.2079227 43.9378413,31.3426432 43.9297974,31.477168 L43.9034852,31.8800953 C43.8892111,32.0812061 43.873218,32.281743 43.8553178,32.4815063 L43.8169188,32.8799421 C43.4884928,36.0582296 42.6397354,39.0043692 40.49992,40.9 C38.5112851,42.6618856 35.2744662,43.4240832 31.9322514,43.7529343 L31.4653268,43.796065 C31.3874303,43.8028037 31.3095056,43.8093223 31.2315671,43.8156279 L30.763884,43.8509625 C30.6859474,43.8564446 30.6080257,43.8617279 30.5301332,43.8668197 L30.063244,43.8951274 C29.985526,43.8994811 29.9078659,43.9036574 29.8302782,43.9076634 L29.3657352,43.9297136 L28.9036188,43.9480194 L28.4446189,43.9629229 C28.3684169,43.9651422 28.2923736,43.9672341 28.2165032,43.9692055 L27.7634716,43.9796464 L27.0932172,43.9906378 L26.4361841,43.997051 L25.5847312,44.0004748 L22.2211385,44.00004 L21.3622559,43.9953508 L20.7005555,43.9875397 L20.2523637,43.9796464 L19.7993304,43.9692055 L19.1122114,43.9480194 L18.6500922,43.9297136 L18.185546,43.9076634 L17.7192626,43.881527 C17.5636219,43.8720959 17.4078067,43.8619267 17.251932,43.8509625 L16.784244,43.8156279 C16.7063045,43.8093223 16.6283789,43.8028037 16.5504815,43.796065 L16.083551,43.7529343 C12.741291,43.4240832 9.50437296,42.6618856 7.51552,40.9 C5.17536615,38.8266538 4.37950964,35.4965954 4.11950003,31.980602 L4.09132203,31.5661624 C4.08701746,31.4969677 4.0829037,31.4277177 4.07897314,31.3584204 L4.05752751,30.9421338 C4.05429938,30.8726797 4.05123926,30.8031945 4.04833953,30.7336862 L4.02636764,30.1077072 L4.01592358,29.690342 L4.00565104,29.0651942 L4.00075603,28.4422886 L3.9998696,28.0406951 C3.9998696,27.6399645 4.00173538,27.242 4.00432,26.8484 C4.01232,25.654 4.89872,24.6564 6.08112,24.4868 C12.05672,23.6292 18.03232,23.2004 24.00792,23.2 Z M24.0076,25.5996 L23.243475,25.6024349 C17.8912444,25.6361662 12.5391989,26.0203193 7.18654974,26.7551275 L6.40533659,26.8654543 L6.39986925,28.0354301 L6.40073475,28.4321812 L6.40458216,28.9238044 L6.41198534,29.4028485 L6.42302714,29.8694701 C6.42517526,29.9462138 6.42747844,30.0224465 6.42993841,30.0981713 L6.4465935,30.5464523 C6.45278155,30.6938654 6.45961056,30.8392733 6.46709435,30.9827019 L6.49152382,31.4070766 L6.51996477,31.8197327 L6.55250006,32.2208267 C6.55826841,32.2867209 6.5642108,32.3521399 6.57032898,32.4170869 L6.60916113,32.8011312 L6.65229476,33.1740046 C7.00723872,36.0515017 7.76572457,37.9152087 9.1069717,39.1035364 C9.77736342,39.6974232 10.6606724,40.1659975 11.7842813,40.5289385 L12.0585752,40.6140262 C12.6629359,40.7940323 13.332866,40.9459009 14.0722158,41.072399 L14.4183973,41.1289914 L14.7745214,41.1820413 C14.8948959,41.1991409 15.0169415,41.2156602 15.1406722,41.2316092 L15.5169337,41.2777555 L15.9033901,41.3205408 L16.3001255,41.3600254 L16.707224,41.3962699 L17.1247698,41.4293346 L17.5528469,41.4592801 L17.9915395,41.4861667 L18.4409317,41.510055 L18.9011077,41.5310054 L19.3721514,41.5490783 L19.8541472,41.5643342 L20.347179,41.5768336 L20.851331,41.5866369 L21.3666873,41.5938046 C21.4535184,41.5947829 21.5408198,41.5956539 21.6285934,41.5964189 L22.4313494,41.6004777 L25.5810219,41.6004777 L26.3841536,41.5964215 L26.9053774,41.5905488 L27.415342,41.5820707 L27.9141318,41.5709268 L28.4018313,41.5570565 L28.8785248,41.5403995 L29.344297,41.5208953 L29.7992322,41.4984835 L30.2434148,41.4731035 C30.3165539,41.4686228 30.3892485,41.4640159 30.4615004,41.4592816 L30.8897126,41.429336 L31.3073835,41.3962713 L31.7145975,41.3600268 L32.111439,41.3205421 L32.4979925,41.2777568 L32.8743424,41.2316105 L33.2405733,41.1820426 L33.5967695,41.1289927 L33.9430156,41.0724004 L34.2793959,41.0122051 C34.8871013,40.8985076 35.4454927,40.7663408 35.9569123,40.6140281 L36.2312241,40.5289405 C37.3548973,40.166 38.2381463,39.6974266 38.9084634,39.1035408 C39.7511168,38.3570466 40.3550588,37.398399 40.7753834,36.0878499 L40.8476635,35.8528951 L40.9161987,35.6104638 C40.9606556,35.4463128 41.0026607,35.2770636 41.0423038,35.1024887 L41.1000082,34.8366036 L41.154237,34.5625592 C41.1629892,34.5161957 41.1715994,34.4694852 41.180069,34.422424 L41.2292103,34.1358208 C41.237123,34.0873428 41.2448979,34.0385071 41.2525364,33.9893101 L41.2967417,33.689764 C41.3038402,33.6391076 41.310805,33.5880827 41.3176377,33.5366859 L41.3570583,33.223813 L41.3933734,32.9018421 L41.42665,32.5706026 L41.4569556,32.2299239 L41.4843574,31.8796352 L41.5089226,31.519566 L41.5307187,31.1495455 L41.5498128,30.769403 L41.5662722,30.378968 L41.5801642,29.9780698 L41.5915562,29.5665376 L41.6005153,29.1442008 L41.607109,28.7108888 L41.6114043,28.2664308 L41.6136854,27.5784719 L41.6125295,27.1054024 C41.6121631,27.0255837 41.6117107,26.9452756 41.6111738,26.8644747 L41.5933726,26.8624588 C35.9858538,26.0576847 30.3793274,25.6377712 24.7723501,25.6024349 L24.0076,25.5996 Z" id="Fill-1" fill="#000000" fill-rule="nonzero"></path>
            </g>
        </g>
    </g>
</svg>