<?xml version="1.0" encoding="UTF-8"?>
<svg width="28px" height="28px" viewBox="0 0 28 28" version="1.1" xmlns="http://www.w3.org/2000/svg" xmlns:xlink="http://www.w3.org/1999/xlink">
    <title>画板</title>
    <g id="画板" stroke="none" stroke-width="1" fill="none" fill-rule="evenodd">
        <path d="M15.1153316,2.63005999 L18.1821695,8.75075779 C18.3479458,9.08095649 18.6716073,9.31177302 19.0476395,9.36744086 L26.0183179,10.4025006 C26.9658794,10.5431411 27.3345665,11.6700579 26.642257,12.3091053 L21.5497496,17.0114253 C21.2748414,17.265203 21.1472189,17.633047 21.2081802,17.9951138 L22.3409401,24.703801 C22.4947339,25.6158389 21.4969236,26.3018788 20.6521713,25.8650073 L14.4379213,22.6503452 C14.1025659,22.4769882 13.6999963,22.4736582 13.3614525,22.6416401 L7.09077957,25.752564 C6.23859355,26.175382 5.25328017,25.472979 5.42320096,24.5636888 L6.67536704,17.8748988 C6.74288095,17.5139773 6.62187376,17.1437773 6.35162243,16.8855402 L1.34336572,12.0995833 C0.662967375,11.4490134 1.05153239,10.3287668 2.00143997,10.2038067 L8.98944475,9.28425373 C9.36641821,9.23455591 9.69420728,9.00943803 9.8657708,8.6817037 L13.0412753,2.61274758 C13.4727557,1.78783377 14.6986008,1.79801105 15.1153316,2.63005999" id="Fill-1" stroke="#C13A23" stroke-width="1.10769231" fill="#FF6146"></path>
    </g>
</svg>