<?xml version="1.0" encoding="UTF-8"?>
<svg width="139px" height="162px" viewBox="0 0 139 162" version="1.1" xmlns="http://www.w3.org/2000/svg" xmlns:xlink="http://www.w3.org/1999/xlink">
    <!-- Generator: Sketch 61.2 (89653) - https://sketch.com -->
    <title>z z z z</title>
    <desc>Created with Sketch.</desc>
    <g id="z-z-z-z" stroke="none" stroke-width="1" fill="none" fill-rule="evenodd" fill-opacity="0.3">
        <path d="M138.298118,2.15247031 L137.283584,2.79024067 C136.665806,1.80710868 135.588815,1.19852035 134.406609,1.19852035 L134.406609,0 C136.005233,0 137.463288,0.823920793 138.298118,2.15247031 Z M139,10.4641464 L137.801724,10.4641464 L137.801724,6.46907857 L139,6.46907857 L139,10.4641464 Z M139,18.454282 L137.801724,18.454282 L137.801724,14.4592142 L139,14.4592142 L139,18.454282 Z M139,26.4444177 L137.801724,26.4444177 L137.801724,22.4493498 L139,22.4493498 L139,26.4444177 Z M139,34.4345533 L137.801724,34.4345533 L137.801724,30.4394855 L139,30.4394855 L139,34.4345533 Z M139,42.4246889 L137.801724,42.4246889 L137.801724,38.4296211 L139,38.4296211 L139,42.4246889 Z M139,50.4148246 L137.801724,50.4148246 L137.801724,46.4197567 L139,46.4197567 L139,50.4148246 Z M139,58.4049602 L137.801724,58.4049602 L137.801724,54.4098924 L139,54.4098924 L139,58.4049602 Z M139,66.3950958 L137.801724,66.3950958 L137.801724,62.400028 L139,62.400028 L139,66.3950958 Z M139,74.3852315 L137.801724,74.3852315 L137.801724,70.3901636 L139,70.3901636 L139,74.3852315 Z M139,82.3753671 L137.801724,82.3753671 L137.801724,78.3802993 L139,78.3802993 L139,82.3753671 Z M139,90.3655027 L137.801724,90.3655027 L137.801724,86.3704349 L139,86.3704349 L139,90.3655027 Z M139,98.3556384 L137.801724,98.3556384 L137.801724,94.3605706 L139,94.3605706 L139,98.3556384 Z M139,106.345774 L137.801724,106.345774 L137.801724,102.350706 L139,102.350706 L139,106.345774 Z M139,114.33591 L137.801724,114.33591 L137.801724,110.340842 L139,110.340842 L139,114.33591 Z M139,122.326045 L137.801724,122.326045 L137.801724,118.330977 L139,118.330977 L139,122.326045 Z M139,130.316181 L137.801724,130.316181 L137.801724,126.321113 L139,126.321113 L139,130.316181 Z M139,138.306317 L137.801724,138.306317 L137.801724,134.311249 L139,134.311249 L139,138.306317 Z M139,146.296452 L137.801724,146.296452 L137.801724,142.301384 L139,142.301384 L139,146.296452 Z M139,154.286588 L137.801724,154.286588 L137.801724,150.29152 L139,150.29152 L139,154.286588 Z M135.941132,161.7372 L135.540907,160.607507 C136.637725,160.21877 137.467748,159.285354 137.720867,158.146313 L138.890597,158.406358 C138.547654,159.94961 137.426071,161.210904 135.941132,161.7372 Z M127.662183,162 L127.662183,160.80148 L131.656436,160.80148 L131.656436,162 L127.662183,162 Z M119.673677,162 L119.673677,160.80148 L123.66793,160.80148 L123.66793,162 L119.673677,162 Z M111.685172,162 L111.685172,160.80148 L115.679425,160.80148 L115.679425,162 L111.685172,162 Z M103.696666,162 L103.696666,160.80148 L107.690919,160.80148 L107.690919,162 L103.696666,162 Z M95.7081603,162 L95.7081603,160.80148 L99.7024131,160.80148 L99.7024131,162 L95.7081603,162 Z M87.7196545,162 L87.7196545,160.80148 L91.7139074,160.80148 L91.7139074,162 L87.7196545,162 Z M79.7311488,162 L79.7311488,160.80148 L83.7254016,160.80148 L83.7254016,162 L79.7311488,162 Z M71.742643,162 L71.742643,160.80148 L75.7368959,160.80148 L75.7368959,162 L71.742643,162 Z M63.7541373,162 L63.7541373,160.80148 L67.7483901,160.80148 L67.7483901,162 L63.7541373,162 Z M55.7656315,162 L55.7656315,160.80148 L59.7598844,160.80148 L59.7598844,162 L55.7656315,162 Z M47.7771258,162 L47.7771258,160.80148 L51.7713786,160.80148 L51.7713786,162 L47.7771258,162 Z M39.78862,162 L39.78862,160.80148 L43.7828729,160.80148 L43.7828729,162 L39.78862,162 Z M31.8001143,162 L31.8001143,160.80148 L35.7943671,160.80148 L35.7943671,162 L31.8001143,162 Z M23.8116085,162 L23.8116085,160.80148 L27.8058614,160.80148 L27.8058614,162 L23.8116085,162 Z M15.8231028,162 L15.8231028,160.80148 L19.8173557,160.80148 L19.8173557,162 L15.8231028,162 Z M7.83459703,162 L7.83459703,160.80148 L11.8288499,160.80148 L11.8288499,162 L7.83459703,162 Z M0.312276875,159.073692 L1.42873507,158.638418 C1.85117009,159.722387 2.80809262,160.523779 3.95537817,160.741725 L3.73178914,161.919196 C2.17728589,161.623892 0.884041936,160.540842 0.312276875,159.073692 Z M0,150.782653 L1.19827586,150.782653 L1.19827586,154.777721 L0,154.777721 L0,150.782653 Z M0,142.792518 L1.19827586,142.792518 L1.19827586,146.787586 L0,146.787586 L0,142.792518 Z M0,134.802382 L1.19827586,134.802382 L1.19827586,138.79745 L0,138.79745 L0,134.802382 Z M0,126.812246 L1.19827586,126.812246 L1.19827586,130.807314 L0,130.807314 L0,126.812246 Z M0,118.822111 L1.19827586,118.822111 L1.19827586,122.817179 L0,122.817179 L0,118.822111 Z M0,110.831975 L1.19827586,110.831975 L1.19827586,114.827043 L0,114.827043 L0,110.831975 Z M0,102.84184 L1.19827586,102.84184 L1.19827586,106.836907 L0,106.836907 L0,102.84184 Z M0,94.8517039 L1.19827586,94.8517039 L1.19827586,98.8467717 L0,98.8467717 L0,94.8517039 Z M0,86.8615682 L1.19827586,86.8615682 L1.19827586,90.8566361 L0,90.8566361 L0,86.8615682 Z M0,78.8714326 L1.19827586,78.8714326 L1.19827586,82.8665004 L0,82.8665004 L0,78.8714326 Z M0,70.881297 L1.19827586,70.881297 L1.19827586,74.8763648 L0,74.8763648 L0,70.881297 Z M0,62.8911613 L1.19827586,62.8911613 L1.19827586,66.8862292 L0,66.8862292 L0,62.8911613 Z M0,54.9010257 L1.19827586,54.9010257 L1.19827586,58.8960935 L0,58.8960935 L0,54.9010257 Z M0,46.9108901 L1.19827586,46.9108901 L1.19827586,50.9059579 L0,50.9059579 L0,46.9108901 Z M0,38.9207544 L1.19827586,38.9207544 L1.19827586,42.9158223 L0,42.9158223 L0,38.9207544 Z M0,30.9306188 L1.19827586,30.9306188 L1.19827586,34.9256866 L0,34.9256866 L0,30.9306188 Z M0,22.9404832 L1.19827586,22.9404832 L1.19827586,26.935551 L0,26.935551 L0,22.9404832 Z M0,14.9503475 L1.19827586,14.9503475 L1.19827586,18.9454154 L0,18.9454154 L0,14.9503475 Z M0,6.9602119 L1.19827586,6.9602119 L1.19827586,10.9552797 L0,10.9552797 L0,6.9602119 Z M3.90943697,0.0506661723 L4.08655535,1.23602152 C2.92957662,1.40897036 1.94407822,2.17264411 1.47940668,3.23877094 L0.380968786,2.75982124 C1.00967881,1.31733002 2.34188454,0.284988864 3.90943697,0.0506661723 Z M12.0908634,0 L12.0908634,1.19852035 L8.09661053,1.19852035 L8.09661053,0 L12.0908634,0 Z M20.0793692,0 L20.0793692,1.19852035 L16.0851163,1.19852035 L16.0851163,0 L20.0793692,0 Z M28.0678749,0 L28.0678749,1.19852035 L24.073622,1.19852035 L24.073622,0 L28.0678749,0 Z M36.0563806,0 L36.0563806,1.19852035 L32.0621278,1.19852035 L32.0621278,0 L36.0563806,0 Z M44.0448864,0 L44.0448864,1.19852035 L40.0506335,1.19852035 L40.0506335,0 L44.0448864,0 Z M52.0333921,0 L52.0333921,1.19852035 L48.0391393,1.19852035 L48.0391393,0 L52.0333921,0 Z M60.0218979,0 L60.0218979,1.19852035 L56.027645,1.19852035 L56.027645,0 L60.0218979,0 Z M68.0104036,0 L68.0104036,1.19852035 L64.0161508,1.19852035 L64.0161508,0 L68.0104036,0 Z M75.9989094,0 L75.9989094,1.19852035 L72.0046565,1.19852035 L72.0046565,0 L75.9989094,0 Z M83.9874151,0 L83.9874151,1.19852035 L79.9931623,1.19852035 L79.9931623,0 L83.9874151,0 Z M91.9759209,0 L91.9759209,1.19852035 L87.981668,1.19852035 L87.981668,0 L91.9759209,0 Z M99.9644266,0 L99.9644266,1.19852035 L95.9701737,1.19852035 L95.9701737,0 L99.9644266,0 Z M107.952932,0 L107.952932,1.19852035 L103.958679,1.19852035 L103.958679,0 L107.952932,0 Z M115.941438,0 L115.941438,1.19852035 L111.947185,1.19852035 L111.947185,0 L115.941438,0 Z M123.929944,0 L123.929944,1.19852035 L119.935691,1.19852035 L119.935691,0 L123.929944,0 Z M131.91845,0 L131.91845,1.19852035 L127.924197,1.19852035 L127.924197,0 L131.91845,0 Z" id="矩形备份-23" fill="#FFFFFF" fill-rule="nonzero" transform="translate(69.500000, 81.000000) scale(1, -1) translate(-69.500000, -81.000000) "></path>
    </g>
</svg>