<?xml version="1.0" encoding="UTF-8"?>
<svg width="28px" height="28px" viewBox="0 0 28 28" version="1.1" xmlns="http://www.w3.org/2000/svg" xmlns:xlink="http://www.w3.org/1999/xlink">
    <title>画板备份 3</title>
    <g id="画板备份-3" stroke="none" stroke-width="1" fill="none" fill-rule="evenodd">
        <path d="M18.0365029,4.34837515 C17.9579188,4.34837515 17.8785933,4.35569961 17.8012448,4.37034854 C17.3690322,4.44485604 17.0060131,4.72874221 16.8253685,5.13083011 L15.754351,7.467082 L17.4990172,7.46581916 L18.5942525,6.94022563 C18.9893971,6.75357804 19.2669127,6.38255599 19.3383304,5.94611888 C19.4161731,5.50564068 19.2782803,5.06011113 18.9701218,4.74970534 C18.7225077,4.49334905 18.3837063,4.34837515 18.0365029,4.34837515 L18.0365029,4.34837515 Z M8.9568248,4.35367907 C8.60937427,4.35367907 8.27007869,4.49915811 8.02592426,4.75248358 C7.71455323,5.0674356 7.57715459,5.51296515 7.65450311,5.94839199 C7.72789771,6.38912275 8.00590756,6.76014481 8.39907526,6.94527698 L9.49678171,7.47061795 L11.2412008,7.46935511 L10.1689477,5.13689173 C9.98632616,4.73303586 9.62305996,4.44965482 9.19653107,4.37641017 C9.11399304,4.3612561 9.0351618,4.35367907 8.9568248,4.35367907 L8.9568248,4.35367907 Z M4.93074794,14.6013639 C3.86788539,14.6013639 3.00247162,13.7173767 3.00197738,12.6310827 L3.00000021,9.44620306 C2.99950618,8.3588988 3.8641786,7.47390133 4.9277825,7.47339619 L5.77342668,7.47289106 C5.58907526,7.12586294 5.45933733,6.74928439 5.39088513,6.35805691 C5.18676412,5.16795757 5.56288056,3.94805523 6.39740435,3.09361845 C7.07303006,2.40208789 8.00936723,2.00555649 8.96621536,2.00555649 C9.68360433,2.00555649 10.3854247,2.22402761 10.9960579,2.63722849 C11.5325552,3.00042095 11.9761353,3.54091598 12.2788572,4.19961273 L13.4976523,6.85005893 L14.7003847,4.22537464 C15.0651337,3.42902846 15.6226361,2.81099512 16.3133361,2.43769995 C16.8374773,2.15179323 17.4295765,2 18.0241469,2 C18.9940924,2 19.906459,2.38541842 20.5932051,3.08477858 C21.4292116,3.93845765 21.8068107,5.15785486 21.6041724,6.3471965 C21.5357202,6.73918168 21.4064765,7.1160128 21.2226194,7.46354605 L22.0680164,7.46304092 C23.1321146,7.46304092 23.9975283,8.34677555 23.9980226,9.43332211 L24.0000002,12.6184543 C24.0002467,13.1450581 23.7998325,13.6403435 23.4358249,14.012881 C23.0715702,14.3851659 22.5874624,14.590756 22.0722175,14.5910086 L4.93198354,14.6013639 L4.93074794,14.6013639 Z M6.24419003,25.9967166 C5.18132748,25.9967166 4.31616083,25.112982 4.31541947,24.0264354 L4.31121835,16.8600775 C4.31097131,16.2119886 4.82646336,15.6843745 5.46032581,15.6841219 L11.6931831,15.6803334 C12.3272927,15.6803334 12.8432789,16.2071898 12.8435261,16.8547735 L12.8482214,24.8174777 C12.8484685,25.4655666 12.3332235,25.9931807 11.699114,25.9934332 L6.24542563,25.9967166 L6.24419003,25.9967166 Z M15.309041,26 C14.6754256,26 14.1596865,25.4731436 14.1594393,24.8253073 L14.1547437,16.8626031 C14.1544969,16.5486614 14.2738558,16.2536622 14.4908271,16.0314026 C14.7077983,15.8093955 14.9964343,15.6871527 15.3036043,15.6869002 L21.5367087,15.6831116 C22.1708183,15.6831116 22.6868046,16.209968 22.6870517,16.8572992 L22.691253,24.0239097 C22.6914999,24.5505136 22.4910856,25.045799 22.1270781,25.4183364 C21.7628234,25.7906213 21.2787156,25.9962115 20.7634707,25.9964641 L15.3097823,26 L15.309041,26 Z" id="Fill-1" stroke="#006CB1" stroke-width="0.8" fill="#13ADFE"></path>
    </g>
</svg>