<?xml version="1.0" encoding="UTF-8"?>
<svg width="24px" height="24px" viewBox="0 0 24 24" version="1.1" xmlns="http://www.w3.org/2000/svg" xmlns:xlink="http://www.w3.org/1999/xlink">
    <title>finder_outlined_like_lock</title>
    <g id="finder_outlined_like_lock" stroke="none" stroke-width="1" fill="none" fill-rule="evenodd">
        <path d="M11.2855866,5.46446609 C11.4683933,5.6472728 11.7040956,5.87463262 11.9926934,6.14654555 C12.2812912,5.87463262 12.5169935,5.6472728 12.6998002,5.46446609 C14.6524216,3.51184464 17.8182465,3.51184464 19.770868,5.46446609 C21.7053262,7.39892429 21.7233205,10.5241205 19.8248509,12.4807312 L19.676683,12.627813 C19.4974386,12.2421022 19.2712358,11.8946969 19.0078556,11.5978208 L18.9636235,11.6450953 C20.4077405,10.1567519 20.3908828,7.7815372 18.9223398,6.31299423 C17.4383475,4.82900192 15.0323206,4.82900192 13.5483283,6.31299423 C13.3560635,6.50525906 13.1121912,6.74049974 12.8155986,7.0199452 L11.9926934,7.79527533 L11.1697881,7.0199452 C10.8731956,6.74049974 10.6293233,6.50525906 10.4370585,6.31299423 C8.95306616,4.82900192 6.54703924,4.82900192 5.06304693,6.31299423 C3.59452199,7.78151917 3.57756803,10.1568704 5.00865851,11.6326173 L11.9926509,18.6166823 L12,18.608 L12.0007166,19.8994997 C11.7421318,19.9015711 11.4828957,19.8039642 11.2855866,19.6066757 L4.16012597,12.4811411 C2.26206629,10.5241205 2.28006059,7.39892429 4.21451879,5.46446609 C6.16714025,3.51184464 9.33296515,3.51184464 11.2855866,5.46446609 Z M16.7475,11.625 C17.9901407,11.625 18.9975,12.6995166 18.9975,14.025 L18.9975,14.25 L19.7509518,14.25 C20.163259,14.25 20.4975,14.585024 20.4975,14.9969566 L20.4975,19.1280434 C20.4975,19.5405762 20.1557517,19.875 19.7509518,19.875 L13.7440482,19.875 C13.331741,19.875 12.9975,19.539976 12.9975,19.1280434 L12.9975,14.9969566 C12.9975,14.5844238 13.3392483,14.25 13.7440482,14.25 L14.4975,14.25 L14.4975,14.025 C14.4975,12.6995166 15.5048593,11.625 16.7475,11.625 Z M19.5975,15.15 L13.8975,15.15 L13.8975,18.975 L19.5975,18.975 L19.5975,15.15 Z M16.7475,12.525 C16.0153627,12.525 15.3975,13.1840536 15.3975,14.025 L15.3975,14.25 L18.0975,14.25 L18.0975,14.025 C18.0975,13.1840536 17.4796373,12.525 16.7475,12.525 Z" id="形状结合" fill-opacity="0.9" fill="#000000"></path>
        <path d="M15.729,14.249 L14.4975,14.25 L14.4975,14.25 C14.4105688,12.666111 15.5421385,11.625 16.7475,11.625 C17.9528615,11.625 19.0891457,12.6842422 18.9975,14.25 L17.745,14.249 L17.7450027,14.25 L19.725,14.25 C20.1392136,14.25 20.475,14.5857864 20.475,15 L20.475,19.125 C20.475,19.5392136 20.1392136,19.875 19.725,19.875 L13.725,19.875 C13.3107864,19.875 12.975,19.5392136 12.975,19.125 L12.975,15 C12.975,14.5857864 13.3107864,14.25 13.725,14.25 L15.7292251,14.25 L15.7292251,14.25 L15.729,14.249 Z M19.275,15.45 L14.175,15.45 L14.175,18.675 L19.275,18.675 L19.275,15.45 Z M16.7475,12.825 C16.238794,12.825 15.7889436,13.3193848 15.7346994,14.091861 L15.729,14.249 L17.745,14.249 L17.7397617,14.091861 C17.6877997,13.3193848 17.256206,12.825 16.7475,12.825 Z" id="形状结合" fill="#000000" fill-rule="nonzero"></path>
    </g>
</svg>