<?xml version="1.0" encoding="UTF-8"?>
<svg width="16px" height="16px" viewBox="0 0 16 16" version="1.1" xmlns="http://www.w3.org/2000/svg" xmlns:xlink="http://www.w3.org/1999/xlink">
    <title>认证 1@2x</title>
    <g id="认证-1" stroke="none" stroke-width="1" fill="none" fill-rule="evenodd">
        <g id="编组-19">
            <g id="Fav" fill="#FFFFFF" opacity="0" stroke="#000000" stroke-opacity="0.2" stroke-width="0.5">
                <rect id="Rectangle-11" x="0.25" y="0.25" width="15.5" height="15.5"></rect>
            </g>
            <path d="M11.0234596,2.05574605 L11.8792669,4.12064177 L13.944254,4.97654036 C14.3184333,5.13153053 14.4961213,5.56050718 14.3411311,5.93468654 L13.4851542,7.99944453 L14.3411311,10.0653135 C14.4961213,10.4394928 14.3184333,10.8684695 13.944254,11.0234596 L11.8782665,11.8788147 L11.0234596,13.944254 C10.8684695,14.3184333 10.4394928,14.4961213 10.0653135,14.3411311 L8.00038763,13.4850847 L5.93468654,14.3411311 C5.56050718,14.4961213 5.13153053,14.3184333 4.97654036,13.944254 L4.12101747,11.878197 L2.05574605,11.0234596 C1.68156669,10.8684695 1.50387874,10.4394928 1.65886891,10.0653135 L2.51382356,7.99993542 L1.65886891,5.93468654 C1.50387874,5.56050718 1.68156669,5.13153053 2.05574605,4.97654036 L4.1207113,4.12056526 L4.97654036,2.05574605 C5.13153053,1.68156669 5.56050718,1.50387874 5.93468654,1.65886891 L7.99989674,2.51375404 L10.0653135,1.65886891 C10.4394928,1.50387874 10.8684695,1.68156669 11.0234596,2.05574605 Z" id="形状结合" fill="#FFC300"></path>
        </g>
        <path d="M7.21562488,9.42621108 L10.9485027,5.69333331 L11.6568544,6.40168501 L7.68860927,10.3682813 C7.4282781,10.6286492 7.00616812,10.6285615 6.7458727,10.3681579 C6.74584854,10.3681337 6.7458244,10.3681095 6.74587274,10.3680129 L4.66666667,8.28730298 L4.66666667,8.28730298 L5.37169173,7.58227792 L7.21562488,9.42621108 Z" id="Combined-Shape" fill="#FFFFFF"></path>
    </g>
</svg>