<?xml version="1.0" encoding="UTF-8"?>
<svg width="28px" height="28px" viewBox="0 0 28 28" version="1.1" xmlns="http://www.w3.org/2000/svg" xmlns:xlink="http://www.w3.org/1999/xlink">
    <title>画板备份 9</title>
    <defs>
        <radialGradient cx="50.0526596%" cy="50.0413564%" fx="50.0526596%" fy="50.0413564%" r="50.0493351%" id="radialGradient-1">
            <stop stop-color="#E63A38" stop-opacity="0.4" offset="0%"></stop>
            <stop stop-color="#E63A38" stop-opacity="0.35" offset="13.2%"></stop>
            <stop stop-color="#E63A38" stop-opacity="0.28" offset="27.81%"></stop>
            <stop stop-color="#E63A38" stop-opacity="0.11" offset="54.17%"></stop>
            <stop stop-color="#FFFFFF" stop-opacity="0" offset="100%"></stop>
        </radialGradient>
        <radialGradient cx="50.0183511%" cy="50.0413564%" fx="50.0183511%" fy="50.0413564%" r="50.0493351%" id="radialGradient-2">
            <stop stop-color="#E63A38" stop-opacity="0.4" offset="0%"></stop>
            <stop stop-color="#E63A38" stop-opacity="0.35" offset="13.2%"></stop>
            <stop stop-color="#E63A38" stop-opacity="0.28" offset="27.81%"></stop>
            <stop stop-color="#E63A38" stop-opacity="0.11" offset="54.17%"></stop>
            <stop stop-color="#FFFFFF" stop-opacity="0" offset="100%"></stop>
        </radialGradient>
    </defs>
    <g id="画板备份-9" stroke="none" stroke-width="1" fill="none" fill-rule="evenodd">
        <g id="编组" fill-rule="nonzero">
            <g transform="translate(19.455347, 3.627268)">
                <path d="M0.82437912,12.711926 C0.82437912,12.711926 2.47313736,14.6409732 4.78139889,10.3212266 C4.78139889,10.3212266 6.64449571,6.72693362 7.05668527,3.67673087 C7.05668527,3.66024329 7.05668527,3.64375571 7.07317285,3.62726813 C7.10614801,3.49536747 7.25453625,2.68747593 6.7434212,2.20933604 C6.7434212,2.20933604 4.48462241,0.148388242 3.29751648,0.34623923 C3.06669033,0.395701977 2.85235175,0.560577801 2.80288901,0.791403955 C2.78640142,0.873841867 2.76991384,0.956279779 2.80288901,1.03871769 C2.88532692,1.30251901 4.23730868,3.21507857 4.00648252,3.59429296 C4.00648252,3.59429296 1.89607198,8.09540296 0.675990878,10.2223011 C0.675990878,10.2387887 0.659503296,10.2552762 0.659503296,10.2717638 C0.560577801,10.4696148 -0.0659503296,11.8710593 0.82437912,12.711926 Z" id="路径" fill="#F7D234"></path>
                <path d="M1.81363406,13.3714293 L1.81363406,13.3714293 C1.13764319,13.3714293 0.725453625,12.9427522 0.643015713,12.8768019 C-0.329751648,11.9370097 0.296776483,10.4531272 0.445164725,10.1728383 C0.461652307,10.1563508 0.461652307,10.1398632 0.478139889,10.106888 C1.69822099,8.01296504 3.79214395,3.54483021 3.80863153,3.49536747 C3.85809428,3.24805373 3.21507857,2.20933604 2.95127725,1.76417132 C2.7204511,1.38495692 2.6215256,1.20359351 2.58855044,1.10466802 C2.55557527,0.989254944 2.55557527,0.857354285 2.58855044,0.741941208 C2.67098835,0.428677142 2.93478967,0.181363406 3.26454131,0.131900659 C3.33049164,0.115413077 3.41292956,0.115413077 3.47887989,0.115413077 C4.76491131,0.115413077 6.80937153,1.96202231 6.89180944,2.04446022 C7.48536241,2.60503802 7.32048658,3.51185505 7.28751142,3.67673087 C7.28751142,3.69321846 7.28751142,3.69321846 7.28751142,3.70970604 C6.87532186,6.75990878 5.0616878,10.2882514 4.97924988,10.4366397 C3.94053219,12.3821744 2.86883934,13.3714293 1.81363406,13.3714293 Z M3.49536747,0.577065384 C3.44590472,0.577065384 3.39644197,0.577065384 3.36346681,0.593552966 C3.21507857,0.626528131 3.08317791,0.725453625 3.05020274,0.873841867 C3.03371516,0.923304614 3.03371516,0.956279779 3.05020274,0.989254944 C3.06669033,1.05520527 3.23156615,1.31900659 3.36346681,1.54983275 C4.1218956,2.80288901 4.41867208,3.41292956 4.23730868,3.72619362 C4.22082109,3.75916879 2.12689813,8.2437912 0.906817032,10.3542017 C0.906817032,10.3706893 0.890329449,10.3706893 0.890329449,10.3871769 C0.82437912,10.5355652 0.230826154,11.8215966 1.00574253,12.5635378 L1.02223011,12.5800254 C1.03871769,12.5965129 1.33549417,12.9262646 1.84660923,12.9262646 C2.44016219,12.9262646 3.41292956,12.4646123 4.60003549,10.2223011 C4.61652307,10.1893259 6.44664472,6.62800812 6.85883428,3.64375571 C6.85883428,3.62726813 6.85883428,3.59429296 6.87532186,3.57780538 C6.89180944,3.49536747 7.04019768,2.78640142 6.62800812,2.39069945 C6.03445516,1.87958439 4.41867208,0.577065384 3.49536747,0.577065384 Z" id="形状" fill="#B37112"></path>
            </g>
            <g>
                <circle id="椭圆形" fill="#FAD534" transform="translate(13.005537, 13.090250) rotate(-76.990781) translate(-13.005537, -13.090250) " cx="13.0055369" cy="13.0902501" r="10.8154782"></circle>
                <path d="M12.9922149,2.7204511 C18.713406,2.7204511 23.3629043,7.36994933 23.3629043,13.0911404 C23.3629043,18.8123315 18.713406,23.4618297 12.9922149,23.4618297 C7.27102384,23.4618297 2.6215256,18.8123315 2.6215256,13.0911404 C2.6215256,7.36994933 7.27102384,2.7204511 12.9922149,2.7204511 M12.9922149,2.27528637 C7.0237101,2.27528637 2.17636088,7.12263559 2.17636088,13.0911404 C2.17636088,19.0596452 7.0237101,23.9069945 12.9922149,23.9069945 C18.9607198,23.9069945 23.808069,19.0596452 23.808069,13.0911404 C23.808069,7.12263559 18.9607198,2.27528637 12.9922149,2.27528637 L12.9922149,2.27528637 Z" id="形状" fill="#B37112"></path>
            </g>
            <g transform="translate(0.494627, 8.903294)" id="椭圆形">
                <circle fill="url(#radialGradient-1)" cx="6.28176889" cy="6.28176889" r="6.19933098"></circle>
                <circle fill="url(#radialGradient-2)" cx="18.6969184" cy="6.28176889" r="6.19933098"></circle>
            </g>
            <g transform="translate(3.132641, 7.089660)">
                <g transform="translate(9.892549, 0.000000)">
                    <circle id="椭圆形" fill="#FFFFFF" transform="translate(4.733301, 4.795948) rotate(-45.000000) translate(-4.733301, -4.795948) " cx="4.73330132" cy="4.79594754" r="3.31397228"></circle>
                    <path d="M4.73193615,8.32622911 C2.78640142,8.32622911 1.18710593,6.7434212 1.18710593,4.78139889 C1.18710593,2.81937659 2.76991384,1.23656868 4.73193615,1.23656868 C6.69395845,1.23656868 8.27676636,2.81937659 8.27676636,4.78139889 C8.27676636,6.7434212 6.67747087,8.32622911 4.73193615,8.32622911 Z M4.73193615,1.71470857 C3.03371516,1.71470857 1.66524582,3.09966549 1.66524582,4.78139889 C1.66524582,6.4631323 3.05020274,7.84808922 4.73193615,7.84808922 C6.41366955,7.84808922 7.79862647,6.4631323 7.79862647,4.78139889 C7.79862647,3.09966549 6.43015713,1.71470857 4.73193615,1.71470857 Z" id="形状" fill="#7D5D2F"></path>
                </g>
                <path d="M17.3284491,5.60577801 C17.3284491,6.3642068 16.701921,6.99073494 15.9434922,6.99073494 C15.1850634,6.99073494 14.5585353,6.3642068 14.5585353,5.60577801 C14.5585353,4.84734922 15.1850634,4.22082109 15.9434922,4.22082109 C16.701921,4.22082109 17.3284491,4.84734922 17.3284491,5.60577801 Z" id="路径" fill="#000000"></path>
                <g>
                    <circle id="椭圆形" fill="#FFFFFF" transform="translate(4.701922, 4.799545) rotate(-45.000000) translate(-4.701922, -4.799545) " cx="4.70192215" cy="4.79954513" r="3.31397228"></circle>
                    <path d="M4.69896098,8.32622911 C2.75342626,8.32622911 1.15413077,6.7434212 1.15413077,4.78139889 C1.15413077,2.81937659 2.73693868,1.23656868 4.69896098,1.23656868 C6.64449571,1.23656868 8.2437912,2.81937659 8.2437912,4.78139889 C8.2437912,6.7434212 6.64449571,8.32622911 4.69896098,8.32622911 Z M4.69896098,1.71470857 C3.00074,1.71470857 1.63227066,3.09966549 1.63227066,4.78139889 C1.63227066,6.4631323 3.01722758,7.84808922 4.69896098,7.84808922 C6.38069439,7.84808922 7.76565131,6.4631323 7.76565131,4.78139889 C7.76565131,3.09966549 6.39718197,1.71470857 4.69896098,1.71470857 Z" id="形状" fill="#7D5D2F"></path>
                </g>
                <path d="M7.4029245,5.60577801 C7.4029245,6.3642068 6.77639636,6.99073494 6.01796757,6.99073494 C5.25953878,6.99073494 4.63301065,6.3642068 4.63301065,5.60577801 C4.63301065,4.84734922 5.25953878,4.22082109 6.01796757,4.22082109 C6.77639636,4.22082109 7.4029245,4.84734922 7.4029245,5.60577801 Z" id="路径" fill="#000000"></path>
                <path d="M12.4151495,8.21081603 C12.2997365,8.21081603 12.200811,8.30974153 12.1843234,8.4251546 C12.1843234,8.4251546 12.0689103,9.34845922 11.2280436,9.3649468 C11.2280436,9.3649468 10.2552762,9.48035988 10.0574253,8.37569186 L10.0574253,8.37569186 C10.0409377,8.22730362 9.9255246,8.11189054 9.77713636,8.11189054 C9.62874812,8.11189054 9.51333504,8.22730362 9.49684746,8.37569186 L9.49684746,8.37569186 C9.31548405,9.48035988 8.32622911,9.3649468 8.32622911,9.3649468 C7.46887483,9.34845922 7.36994933,8.4251546 7.36994933,8.4251546 C7.35346175,8.30974153 7.25453625,8.21081603 7.13912318,8.21081603 C7.00722252,8.21081603 6.90829702,8.30974153 6.90829702,8.44164219 C6.90829702,8.85383175 7.28751142,9.7441612 8.30974153,9.82659911 C8.77139383,9.85957427 9.49684746,9.66172328 9.76064878,9.00221999 C10.0244501,9.66172328 10.7663913,9.85957427 11.211556,9.82659911 C12.2337861,9.76064878 12.6130005,8.87031933 12.6130005,8.44164219 C12.6459757,8.30974153 12.5305626,8.21081603 12.4151495,8.21081603 Z" id="路径" fill="#7D5D2F"></path>
            </g>
            <g transform="translate(8.903294, 16.322707)">
                <path d="M0.247313736,6.92478461 C0.247313736,6.92478461 -0.247313736,9.6452357 5.01222505,8.62300559 C5.01222505,8.62300559 9.34845922,7.71618856 12.2172986,5.96850483 C12.2337861,5.95201724 12.2502737,5.95201724 12.2667613,5.93552966 C12.398662,5.86957933 13.1900659,5.44090219 13.2395287,4.6824734 C13.2395287,4.6824734 13.4373797,1.35198176 12.4481247,0.494627472 C12.2502737,0.329751648 11.9699848,0.263801318 11.7226711,0.379214395 C11.6402332,0.41218956 11.5742828,0.461652307 11.5248201,0.544090219 C11.3434567,0.791403955 10.6674658,3.24805373 10.1893259,3.33049164 C10.1893259,3.33049164 4.92978714,4.64949824 2.27528637,5.07817538 C2.25879879,5.07817538 2.24231121,5.07817538 2.22582362,5.09466296 C1.97850989,5.16061329 0.362726813,5.60577801 0.247313736,6.92478461 Z" id="路径" fill="#F7D234"></path>
                <path d="M2.91830208,9.0846579 L2.91830208,9.0846579 C1.73119615,9.0846579 0.873841867,8.78788142 0.395701977,8.22730362 C-0.082437912,7.65023823 -1.22444481e-13,7.00722252 0.0164875824,6.89180944 C0.148388242,5.42441461 1.81363406,4.94627472 2.14338571,4.86383681 C2.15987329,4.86383681 2.19284846,4.84734922 2.20933604,4.84734922 C4.81437406,4.43515966 10.0409377,3.11615307 10.106888,3.09966549 C10.3542017,2.98425241 10.8158541,1.66524582 10.9972175,1.17061835 C11.1620933,0.725453625 11.2445312,0.494627472 11.3104815,0.41218956 C11.3764319,0.313264066 11.4918449,0.230826154 11.607258,0.164875824 C11.9205221,0.0164875824 12.2997365,0.082437912 12.5800254,0.313264066 C13.6352306,1.2200811 13.4868424,4.33623417 13.4538672,4.69896098 C13.3879169,5.58929043 12.5305626,6.05094274 12.3491992,6.13338065 C12.3327116,6.13338065 12.3327116,6.14986823 12.316224,6.14986823 C9.44738471,7.89755197 5.22656362,8.804369 5.04520021,8.83734416 C4.25379626,9.01870757 3.52834263,9.0846579 2.91830208,9.0846579 Z M11.9699848,0.560577801 C11.9040345,0.560577801 11.8545717,0.577065384 11.805109,0.593552966 C11.7556462,0.610040549 11.7226711,0.643015713 11.6896959,0.675990878 C11.6567208,0.741941208 11.5413077,1.05520527 11.4423822,1.33549417 C10.9147795,2.81937659 10.6015155,3.49536747 10.2058135,3.5613178 C10.1728383,3.57780538 4.92978714,4.88032439 2.29177395,5.30900153 C2.27528637,5.30900153 2.27528637,5.30900153 2.25879879,5.30900153 C2.09392296,5.35846428 0.577065384,5.75416626 0.478139889,6.92478461 L0.478139889,6.94127219 C0.478139889,6.95775977 0.395701977,7.46887483 0.774916373,7.91403955 C1.15413077,8.37569186 1.87958439,8.60651801 2.93478967,8.60651801 L2.93478967,8.60651801 C3.52834263,8.60651801 4.20433351,8.5240801 4.97924988,8.37569186 C5.01222505,8.35920427 9.29899647,7.45238724 12.1018855,5.75416626 C12.1183731,5.73767867 12.1513482,5.73767867 12.1678358,5.72119109 C12.2502737,5.68821593 12.9757273,5.30900153 13.0087025,4.66598582 C13.0581653,3.77565637 13.0251901,1.30251901 12.2832489,0.659503296 C12.1843234,0.610040549 12.0853979,0.560577801 11.9699848,0.560577801 Z" id="形状" fill="#B37112"></path>
            </g>
        </g>
    </g>
</svg>