<?xml version="1.0" encoding="UTF-8"?>
<svg width="24px" height="24px" viewBox="0 0 24 24" version="1.1" xmlns="http://www.w3.org/2000/svg" xmlns:xlink="http://www.w3.org/1999/xlink">
    <!-- Generator: Sketch 57.1 (83088) - https://sketch.com -->
    <title>Combined Shape</title>
    <desc>Created with Sketch.</desc>
    <g id="Page-1" stroke="none" stroke-width="1" fill="none" fill-rule="evenodd">
        <g id="1.iOS/3.Element/Alert" fill="#FA5151">
            <path d="M12.3636364,0 C18.627417,0 24,5.372583 24,12.3636364 C24,18.627417 18.627417,24 12.3636364,24 C5.372583,24 0,18.627417 0,12.3636364 C0,5.372583 5.372583,0 12.3636364,0 Z M12.0000002,15.5 C11.3372585,15.5 10.8000002,16.0372583 10.8000002,16.7 C10.8000002,17.3627417 11.3372585,17.9 12.0000002,17.9 C12.662742,17.9 13.2000003,17.3627417 13.2000003,16.7 C13.2000003,16.0372583 12.662742,15.5 12.0000002,15.5 Z M12.6994068,6.00056593 L11.3243763,6 C11.0482339,6 10.8243763,6.22385763 10.8243763,6.5 L10.8249422,6.52378258 L11.2000002,14.4 L12.8000002,14.4 L13.1750583,6.52378258 C13.188193,6.24795276 12.9752366,6.01370069 12.6994068,6.00056593 Z" id="Combined-Shape"></path>
        </g>
    </g>
</svg>