<?xml version="1.0" encoding="UTF-8"?>
<svg width="24px" height="24px" viewBox="0 0 24 24" version="1.1" xmlns="http://www.w3.org/2000/svg" xmlns:xlink="http://www.w3.org/1999/xlink">
    <title>finder_filled_like_lock</title>
    <g id="finder_filled_like_lock" stroke="none" stroke-width="1" fill="none" fill-rule="evenodd" fill-opacity="0.9">
        <path d="M11.2855866,5.46446609 C11.4683933,5.6472728 11.7040956,5.87463262 11.9926934,6.14654555 C12.2812912,5.87463262 12.5169935,5.6472728 12.6998002,5.46446609 C14.6524216,3.51184464 17.8182465,3.51184464 19.770868,5.46446609 C21.7053262,7.39892429 21.7233205,10.5241205 19.8248509,12.4807312 L19.676683,12.627813 C19.085429,11.3555109 17.9832349,10.5 16.7211535,10.5 C15.3067668,10.5 14.0931856,11.5744522 13.5743795,13.1042256 C12.6945486,13.1660857 12,13.8994326 12,14.795 L12,14.795 L12.0007166,19.8994997 C11.7421318,19.9015711 11.4828957,19.8039642 11.2855866,19.6066757 L4.16012597,12.4811411 C2.26206629,10.5241205 2.28006059,7.39892429 4.21451879,5.46446609 C6.16714025,3.51184464 9.33296515,3.51184464 11.2855866,5.46446609 Z" id="形状结合" fill="#000000"></path>
        <path d="M16.75,11.625 C17.9926407,11.625 19,12.6995166 19,14.025 L19,14.25 L19.7534518,14.25 C20.165759,14.25 20.5,14.585024 20.5,14.9969566 L20.5,19.1280434 C20.5,19.5405762 20.1582517,19.875 19.7534518,19.875 L13.7465482,19.875 C13.334241,19.875 13,19.539976 13,19.1280434 L13,14.9969566 C13,14.5844238 13.3417483,14.25 13.7465482,14.25 L14.5,14.25 L14.5,14.025 C14.5,12.6995166 15.5073593,11.625 16.75,11.625 Z M16.75,12.525 C16.0178627,12.525 15.4,13.1840536 15.4,14.025 L15.4,14.25 L18.1,14.25 L18.1,14.025 C18.1,13.1840536 17.4821373,12.525 16.75,12.525 Z" id="Combined-Shape" fill="#000000"></path>
    </g>
</svg>