<?xml version="1.0" encoding="UTF-8"?>
<svg width="48px" height="48px" viewBox="0 0 48 48" version="1.1" xmlns="http://www.w3.org/2000/svg" xmlns:xlink="http://www.w3.org/1999/xlink">
    <title>ic_filled_thumbs_dark</title>
    <g id="页面-1" stroke="none" stroke-width="1" fill="none" fill-rule="evenodd">
        <g id="ic_filled_thumbs_dark">
            <rect id="矩形" fill="#202020" x="0" y="0" width="48" height="48" rx="4"></rect>
            <g id="3.Icons/Filled/thumb" transform="translate(13.000000, 12.000000)" fill="#FFC300" fill-rule="nonzero" opacity="0.800000012">
                <g id="icon-fill-thumb备份">
                    <path d="M15.3614481,1.95264511 C16.1266572,3.07988602 16.3321293,4.26914392 16.3321293,6.7692992 C16.3321293,7.4514791 16.1497216,7.6214328 16.3936005,8.051712 C16.9059999,8.0601029 19.500208,8.2342687 20.2090944,8.4901606 C21.0894219,8.8079388 21.7646025,9.3189203 22.1078435,10.0837712 C23.3329949,12.8138006 21.7948727,20.1818507 18.9173911,22.5505285 C18.0540347,23.261504 16.3037663,23.1740446 14.9636107,23.2837852 C14.3326036,23.3353298 11.7362024,23.3427213 7.2074957,23.3222209 L7.2070984,9.8475856 C7.4057091,9.7485646 7.6291419,9.6238366 7.9003776,9.4647982 C8.6864648,9.0039148 9.1496955,8.480839 9.4974297,7.5613472 C9.6940427,7.0406474 9.7608072,6.529837 9.8322991,5.01840792 C9.8417817,4.81827505 9.8441518,4.75530229 9.8602637,4.30099715 C9.9333344,2.24063212 10.1518032,1.5065357 11.2928778,0.97663983 C12.8179017,0.26835197 14.6396405,0.88911533 15.3614481,1.95264511 Z M5.7071088,10.2783627 L5.7073649,23.314808 C4.63548658,23.3091166 3.47267681,23.3021912 2.21927424,23.2941983 C1.15558164,23.2878598 0.29411765,22.4336769 0.29411765,21.3759875 L0.29411765,12.2753478 C0.29411765,11.2130893 1.16520652,10.3571245 2.23376187,10.3571245 L4.5770869,10.3571245 C4.95663092,10.3571245 5.3201802,10.3339673 5.7071088,10.2783627 Z" id="形状结合"></path>
                </g>
            </g>
        </g>
    </g>
</svg>