<?xml version="1.0" encoding="UTF-8"?>
<svg width="48px" height="48px" viewBox="0 0 48 48" version="1.1" xmlns="http://www.w3.org/2000/svg" xmlns:xlink="http://www.w3.org/1999/xlink">
    <title>ic_filled_bell</title>
    <g id="页面-1" stroke="none" stroke-width="1" fill="none" fill-rule="evenodd">
        <g id="index-message-empty" transform="translate(-16.000000, -172.000000)">
            <g id="编组-4" transform="translate(0.000000, 88.000000)">
                <g id="打招呼的人备份" transform="translate(0.000000, 72.000000)">
                    <g id="编组" transform="translate(16.000000, 3.000000)">
                        <g id="ic_filled_bell" transform="translate(0.000000, 9.000000)">
                            <rect id="矩形" fill="#F7F7F7" x="0" y="0" width="48" height="48" rx="4"></rect>
                            <g id="Group" transform="translate(8.000000, 8.000000)" fill="#10AEFF">
                                <path d="M14.75,26.5 L7.48338341,26.5 C7.21715704,26.5 6.95788467,26.4149979 6.74333447,26.2573759 C6.18700047,25.8486581 6.06733385,25.0663291 6.4760516,24.5099951 L6.47601608,24.509969 C7.82533869,22.6733127 8.5,20.8366563 8.5,19 L8.5,14 C8.5,10.7216702 10.60339,7.93461341 13.5342459,6.91475393 C13.5117218,6.7798533 13.5,6.64129553 13.5,6.5 C13.5,5.11928813 14.6192881,4 16,4 C17.3807119,4 18.5,5.11928813 18.5,6.5 C18.5,6.64129553 18.4882782,6.7798533 18.4657541,6.91475393 C21.39661,7.93461341 23.5,10.7216702 23.5,14 L23.5,19 C23.5,20.8366364 24.1746467,22.6732729 25.52394,24.5099093 C25.6815696,24.7244722 25.7665757,24.9837589 25.7665757,25.25 C25.7665757,25.9403754 25.2069159,26.5000353 24.5165405,26.5000353 L17.25,26.5 L17.25,26.7500001 C17.25,27.440356 16.6903559,28 16,28 C15.3096441,28 14.75,27.440356 14.75,26.7500001 L14.75,26.5 Z" id="图标颜色"></path>
                            </g>
                        </g>
                    </g>
                </g>
            </g>
        </g>
    </g>
</svg>