<?xml version="1.0" encoding="UTF-8"?>
<svg width="48px" height="48px" viewBox="0 0 48 48" version="1.1" xmlns="http://www.w3.org/2000/svg" xmlns:xlink="http://www.w3.org/1999/xlink">
    <title>ic_filled_bell_dark</title>
    <g id="页面-1" stroke="none" stroke-width="1" fill="none" fill-rule="evenodd">
        <g id="ic_filled_bell_dark">
            <rect id="矩形" fill="#202020" x="0" y="0" width="48" height="48" rx="4"></rect>
            <g id="Group" transform="translate(14.000000, 12.000000)" fill="#10AEFF" fill-rule="nonzero" opacity="0.800000012">
                <path d="M8.75,22.5 L1.48338341,22.5 C1.21715704,22.5 0.95788467,22.4149979 0.74333447,22.2573759 C0.18700047,21.8486581 0.06733385,21.0663291 0.4760516,20.5099951 L0.47601608,20.509969 C1.82533869,18.6733127 2.5,16.8366563 2.5,15 L2.5,10 C2.5,6.7216702 4.60339,3.93461341 7.5342459,2.91475393 C7.5117218,2.7798533 7.5,2.64129553 7.5,2.5 C7.5,1.11928813 8.6192881,0 10,0 C11.3807119,0 12.5,1.11928813 12.5,2.5 C12.5,2.64129553 12.4882782,2.7798533 12.4657541,2.91475393 C15.39661,3.93461341 17.5,6.7216702 17.5,10 L17.5,15 C17.5,16.8366364 18.1746467,18.6732729 19.52394,20.5099093 C19.6815696,20.7244722 19.7665757,20.9837589 19.7665757,21.25 C19.7665757,21.9403754 19.2069159,22.5000353 18.5165405,22.5000353 L11.25,22.5 L11.25,22.7500001 C11.25,23.440356 10.6903559,24 10,24 C9.3096441,24 8.75,23.440356 8.75,22.7500001 L8.75,22.5 Z" id="图标颜色"></path>
            </g>
        </g>
    </g>
</svg>