<?xml version="1.0" encoding="UTF-8"?>
<svg width="48px" height="48px" viewBox="0 0 48 48" version="1.1" xmlns="http://www.w3.org/2000/svg" xmlns:xlink="http://www.w3.org/1999/xlink">
    <title>ic_filled_thumbs</title>
    <g id="页面-1" stroke="none" stroke-width="1" fill="none" fill-rule="evenodd">
        <g id="index-message-empty" transform="translate(-16.000000, -100.000000)">
            <g id="编组-4" transform="translate(0.000000, 88.000000)">
                <g id="打招呼的人备份-2">
                    <g id="编组" transform="translate(16.000000, 3.000000)">
                        <g id="ic_filled_thumbs" transform="translate(0.000000, 9.000000)">
                            <rect id="矩形" fill="#F7F7F7" x="0" y="0" width="48" height="48" rx="4"></rect>
                            <g id="3.Icons/Filled/thumb" transform="translate(8.000000, 8.000000)" fill="#FFC300">
                                <g id="icon-fill-thumb备份">
                                    <path d="M20.3614481,5.95264511 C21.1266572,7.07988602 21.3321293,8.26914392 21.3321293,10.7692992 C21.3321293,11.4514791 21.1497216,11.6214328 21.3936005,12.051712 C21.9059999,12.0601029 24.500208,12.2342687 25.2090944,12.4901606 C26.0894219,12.8079388 26.7646025,13.3189203 27.1078435,14.0837712 C28.3329949,16.8138006 26.7948727,24.1818507 23.9173911,26.5505285 C23.0540347,27.261504 21.3037663,27.1740446 19.9636107,27.2837852 C19.3326036,27.3353298 16.7362024,27.3427213 12.2074957,27.3222209 L12.2070984,13.8475856 C12.4057091,13.7485646 12.6291419,13.6238366 12.9003776,13.4647982 C13.6864648,13.0039148 14.1496955,12.480839 14.4974297,11.5613472 C14.6940427,11.0406474 14.7608072,10.529837 14.8322991,9.01840792 C14.8417817,8.81827505 14.8441518,8.75530229 14.8602637,8.30099715 C14.9333344,6.24063212 15.1518032,5.5065357 16.2928778,4.97663983 C17.8179017,4.26835197 19.6396405,4.88911533 20.3614481,5.95264511 Z M10.7071088,14.2783627 L10.7073649,27.314808 C9.63548658,27.3091166 8.47267681,27.3021912 7.21927424,27.2941983 C6.15558164,27.2878598 5.29411765,26.4336769 5.29411765,25.3759875 L5.29411765,16.2753478 C5.29411765,15.2130893 6.16520652,14.3571245 7.23376187,14.3571245 L9.5770869,14.3571245 C9.95663092,14.3571245 10.3201802,14.3339673 10.7071088,14.2783627 Z" id="形状结合"></path>
                                </g>
                            </g>
                        </g>
                    </g>
                </g>
            </g>
        </g>
    </g>
</svg>