<?xml version="1.0" encoding="UTF-8"?>
<svg width="24px" height="24px" viewBox="0 0 24 24" version="1.1" xmlns="http://www.w3.org/2000/svg" xmlns:xlink="http://www.w3.org/1999/xlink">
    <!-- Generator: Sketch 61 (89581) - https://sketch.com -->
    <title>icons_outlined_pay_faceid</title>
    <desc>Created with Sketch.</desc>
    <g id="icons_outlined_pay_faceid" stroke="none" stroke-width="1" fill="none" fill-rule="evenodd">
        <g id="3.Icons/Outlined/pay_face_id" transform="translate(1.000000, 1.000000)" fill="#000000" fill-rule="nonzero">
            <g id="Group">
                <path d="M20.5,14.7181818 C20.8313708,14.7181818 21.1,14.986811 21.1,15.3181818 L21.1,17.9090909 C21.1,19.6713813 19.6713813,21.1 17.9090909,21.1 L15.3181818,21.1 C14.986811,21.1 14.7181818,20.8313708 14.7181818,20.5 C14.7181818,20.1686292 14.986811,19.9 15.3181818,19.9 L17.9090909,19.9 C19.0086396,19.9 19.9,19.0086396 19.9,17.9090909 L19.9,15.3181818 C19.9,14.986811 20.1686292,14.7181818 20.5,14.7181818 Z M1.5,14.7181818 C1.83137085,14.7181818 2.1,14.986811 2.1,15.3181818 L2.1,17.9090909 C2.1,19.0086396 2.99136036,19.9 4.09090909,19.9 L6.68181818,19.9 C7.01318903,19.9 7.28181818,20.1686292 7.28181818,20.5 C7.28181818,20.8313708 7.01318903,21.1 6.68181818,21.1 L4.09090909,21.1 C2.32861866,21.1 0.9,19.6713813 0.9,17.9090909 L0.9,15.3181818 C0.9,14.986811 1.16862915,14.7181818 1.5,14.7181818 Z M14.4439456,13.596376 C14.666861,13.8415604 14.6488084,14.2210302 14.403624,14.4439456 C13.5560765,15.2145141 12.4118518,15.5934082 11,15.5934082 C9.5881482,15.5934082 8.44392351,15.2145141 7.59637601,14.4439456 C7.35119164,14.2210302 7.33313905,13.8415604 7.55605442,13.596376 C7.7789698,13.3511916 8.15843962,13.333139 8.40362399,13.5560544 C9.01294125,14.1100301 9.86871656,14.3934082 11,14.3934082 C12.1312834,14.3934082 12.9870587,14.1100301 13.596376,13.5560544 C13.8415604,13.333139 14.2210302,13.3511916 14.4439456,13.596376 Z M11,8.4 C11.3313708,8.4 11.6,8.66862915 11.6,9 L11.6,12 C11.6,12.3313708 11.3313708,12.6 11,12.6 C10.6686292,12.6 10.4,12.3313708 10.4,12 L10.4,9 C10.4,8.66862915 10.6686292,8.4 11,8.4 Z M7,7 C7.55228475,7 8,7.44771525 8,8 C8,8.55228475 7.55228475,9 7,9 C6.44771525,9 6,8.55228475 6,8 C6,7.44771525 6.44771525,7 7,7 Z M15,7 C15.5522847,7 16,7.44771525 16,8 C16,8.55228475 15.5522847,9 15,9 C14.4477153,9 14,8.55228475 14,8 C14,7.44771525 14.4477153,7 15,7 Z M6.68181818,0.9 C7.01318903,0.9 7.28181818,1.16862915 7.28181818,1.5 C7.28181818,1.83137085 7.01318903,2.1 6.68181818,2.1 L4.09090909,2.1 C2.99136036,2.1 2.1,2.99136036 2.1,4.09090909 L2.1,6.68181818 C2.1,7.01318903 1.83137085,7.28181818 1.5,7.28181818 C1.16862915,7.28181818 0.9,7.01318903 0.9,6.68181818 L0.9,4.09090909 C0.9,2.32861866 2.32861866,0.9 4.09090909,0.9 L6.68181818,0.9 Z M17.9090909,0.9 C19.6713813,0.9 21.1,2.32861866 21.1,4.09090909 L21.1,6.68181818 C21.1,7.01318903 20.8313708,7.28181818 20.5,7.28181818 C20.1686292,7.28181818 19.9,7.01318903 19.9,6.68181818 L19.9,4.09090909 C19.9,2.99136036 19.0086396,2.1 17.9090909,2.1 L15.3181818,2.1 C14.986811,2.1 14.7181818,1.83137085 14.7181818,1.5 C14.7181818,1.16862915 14.986811,0.9 15.3181818,0.9 L17.9090909,0.9 Z" id="Combined-Shape"></path>
            </g>
        </g>
    </g>
</svg>