<?xml version="1.0" encoding="UTF-8"?>
<svg width="24px" height="24px" viewBox="0 0 24 24" version="1.1" xmlns="http://www.w3.org/2000/svg" xmlns:xlink="http://www.w3.org/1999/xlink">
    <title>icons_filled_author_like_finder</title>
    <g id="icons_filled_author_like_finder" stroke="none" stroke-width="1" fill="none" fill-rule="evenodd">
        <rect id="Rectangle" x="0" y="0" width="24" height="24"></rect>
        <g transform="translate(2.755000, 4.050000)" fill="#000000" fill-rule="nonzero" id="形状">
            <path d="M8.5355866,1.46446609 L8.9217659,1.84163553 L8.9217659,1.84163553 L9.2426934,2.14654555 L9.2426934,2.14654555 L9.7050423,1.70521964 L9.7050423,1.70521964 L9.9498002,1.46446609 L9.9498002,1.46446609 C11.9024216,-0.488155362 15.0682465,-0.488155362 17.020868,1.46446609 C18.3105068,2.75410489 18.7483838,4.57296059 18.3344992,6.2219743 L18.2860012,6.3954423 C17.9841268,6.121313 17.6011179,5.947587 17.1813762,5.9084388 L16.9993674,5.9 L11.9906326,5.9 L11.8449443,5.9053564 C10.8351535,5.9799023 10.045,6.8232432 10.045,7.85 C10.045,8.4538632 10.3177624,8.9930888 10.7467265,9.3496018 C10.3174033,9.7075079 10.045,10.2471379 10.045,10.85 C10.045,11.4538632 10.3177624,11.9930888 10.7467265,12.3496018 C10.3174033,12.7075079 10.045,13.2471379 10.045,13.85 C10.045,14.3154974 10.2070846,14.7425848 10.4779425,15.0776347 L9.9497632,15.6065647 C9.5893322,15.9671017 9.0221053,15.9948635 8.6297983,15.6898594 L8.5355866,15.6066017 L1.41012597,8.4811411 C-0.487933708,6.5241205 -0.469939408,3.39892429 1.46451879,1.46446609 C3.41714025,-0.488155362 6.58296515,-0.488155362 8.5355866,1.46446609 Z M16.9993674,13.1 L17.1005453,13.1067915 C17.3946413,13.1466108 17.6342561,13.357719 17.715397,13.6390355 L17.7381933,13.7476228 L17.745,13.85 L17.7382421,13.9517706 C17.698621,14.2475892 17.48858,14.4886075 17.2089915,14.5702236 L17.1010828,14.5931534 L16.9993674,14.6 L11.9906326,14.6 L11.8894547,14.5932086 C11.5255109,14.5439322 11.245,14.232343 11.245,13.85 C11.245,13.4703043 11.5233607,13.1565091 11.8889172,13.1068467 L11.9906326,13.1 L16.9993674,13.1 Z M16.9993674,10.1 L17.1005453,10.1067915 C17.3946413,10.1466108 17.6342561,10.357719 17.715397,10.6390355 L17.7381933,10.7476228 L17.745,10.85 L17.7382421,10.9517706 C17.698621,11.2475892 17.48858,11.4886075 17.2089915,11.5702236 L17.1010828,11.5931534 L16.9993674,11.6 L11.9906326,11.6 L11.8894547,11.5932086 C11.5255109,11.5439322 11.245,11.232343 11.245,10.85 C11.245,10.4703043 11.5233607,10.1565091 11.8889172,10.1068467 L11.9906326,10.1 L16.9993674,10.1 Z M16.9993674,7.1 L17.1005453,7.1067915 C17.3946413,7.1466108 17.6342561,7.357719 17.715397,7.6390355 L17.7381933,7.7476228 L17.745,7.85 L17.7382421,7.9517706 C17.698621,8.2475892 17.48858,8.4886075 17.2089915,8.5702236 L17.1010828,8.5931534 L16.9993674,8.6 L11.9906326,8.6 L11.8894547,8.5932086 C11.5255109,8.5439322 11.245,8.232343 11.245,7.85 C11.245,7.4703043 11.5233607,7.1565091 11.8889172,7.1068467 L11.9906326,7.1 L16.9993674,7.1 Z"></path>
        </g>
    </g>
</svg>