<?xml version="1.0" encoding="UTF-8"?>
<svg width="24px" height="24px" viewBox="0 0 24 24" version="1.1" xmlns="http://www.w3.org/2000/svg" xmlns:xlink="http://www.w3.org/1999/xlink">
    <title>icons_outlined_mv_making</title>
    <g id="icons_outlined_mv_making" stroke="none" stroke-width="1" fill="none" fill-rule="evenodd">
        <path d="M13.5,4.5 L13.5,5.7 L4.7,5.7 L4.7,19.3 L18.3,19.3 L18.3,10.5 L19.5,10.5 L19.5,19.5 C19.5,20.0522847 19.0522847,20.5 18.5,20.5 L4.5,20.5 C3.94771525,20.5 3.5,20.0522847 3.5,19.5 L3.5,5.5 C3.5,4.94771525 3.94771525,4.5 4.5,4.5 L13.5,4.5 Z M9.88507135,9.5 C9.95208414,9.5 10.0179368,9.51872306 10.0761202,9.55431849 L10.0761202,9.55431849 L14.3059116,12.1420201 L14.3412201,12.1664073 C14.4983596,12.2883214 14.5476775,12.5199963 14.4491983,12.7045045 C14.4150851,12.7684182 14.3656098,12.8213873 14.3059116,12.8579094 L14.3059116,12.8579094 L10.0761202,15.445611 L10.0385696,15.4657975 C9.86068528,15.5488442 9.64921495,15.4767143 9.55073579,15.2922061 C9.51748814,15.2299141 9.5,15.1594112 9.5,15.0876663 L9.5,15.0876663 L9.5,9.91226313 L9.50198808,9.87011162 C9.52170758,9.66222543 9.68569413,9.5 9.88507135,9.5 Z M19.5,1.5 L19.499,4.499 L22.5,4.5 L22.5,5.7 L19.499,5.699 L19.5,8.7 L18.3,8.7 L18.299,5.699 L15.3,5.7 L15.3,4.5 L18.299,4.499 L18.3,1.5 L19.5,1.5 Z" id="形状结合" fill="#000000" fill-rule="nonzero"></path>
    </g>
</svg>