<?xml version="1.0" encoding="UTF-8"?>
<svg width="32px" height="33px" viewBox="0 0 32 33" version="1.1" xmlns="http://www.w3.org/2000/svg" xmlns:xlink="http://www.w3.org/1999/xlink">
    <!-- Generator: Sketch 63.1 (92452) - https://sketch.com -->
    <title>切片</title>
    <desc>Created with Sketch.</desc>
    <g id="200311-视频倍速" stroke="none" stroke-width="1" fill="none" fill-rule="evenodd">
        <g id="编组-3备份" transform="translate(0.000000, 0.000000)">
            <rect id="矩形" fill="#D8D8D8" opacity="0" x="0" y="0" width="32" height="32"></rect>
            <g id="3.Icons/Filled/max-window" transform="translate(4.000000, 3.000000)" fill="#FFFFFF">
                <g id="Max-icon" transform="translate(0.000000, 0.416667)">
                    <path d="M24,17.9166667 L24,23.25 C24,23.9863797 23.4030463,24.5833333 22.6666667,24.5833333 L17.3333333,24.5833333 L17.3333333,22.9833333 L22.4,22.9833333 L22.4,17.9166667 L24,17.9166667 Z M8.69814408,14.5599191 C9.43452375,14.5599191 10.0314774,15.1568728 10.0314774,15.8932524 L10.0314774,21.2265858 L8.43147735,21.2265858 L8.43147735,17.2912786 L1.13556503,24.5871909 L0.00419413056,23.45582 L7.30009499,16.1599192 L3.36481075,16.1599192 L3.36481075,14.5599191 L8.69814408,14.5599191 Z M22.864435,0.579475737 L23.9958059,1.71084663 L16.699905,9.00674749 L20.6351893,9.00674749 L20.6351893,10.6067476 L15.3018559,10.6067476 C14.5654763,10.6067476 13.9685226,10.0097939 13.9685226,9.27341422 L13.9685226,3.94008089 L15.5685227,3.94008089 L15.5685227,7.87538806 L22.864435,0.579475737 Z M6.66666667,0.583333333 L6.66666667,2.18333333 L1.6,2.18333333 L1.6,7.25 L0,7.25 L0,1.91666667 C0,1.180287 0.596953667,0.583333333 1.33333333,0.583333333 L6.66666667,0.583333333 Z" id="图标颜色"></path>
                </g>
            </g>
        </g>
    </g>
</svg>