<?xml version="1.0" encoding="UTF-8"?>
<svg width="24px" height="24px" viewBox="0 0 24 24" version="1.1" xmlns="http://www.w3.org/2000/svg" xmlns:xlink="http://www.w3.org/1999/xlink">
    <!-- Generator: Sketch 62 (91390) - https://sketch.com -->
    <title>icons_filled_health_note</title>
    <desc>Created with Sketch.</desc>
    <g id="icons_filled_health_note" stroke="none" stroke-width="1" fill="none" fill-rule="evenodd">
        <g id="编组" fill="#000000">
            <path d="M6.5,4 L6.5,5 C6.5,6.0543618 7.31587779,6.91816512 8.35073766,6.99451426 L8.5,7 L15.5,7 C16.5543618,7 17.4181651,6.18412221 17.4945143,5.14926234 L17.5,5 L17.5,4 L19,4 C19.5522847,4 20,4.44771525 20,5 L20,21 C20,21.5522847 19.5522847,22 19,22 L5,22 C4.44771525,22 4,21.5522847 4,21 L4,5 C4,4.44771525 4.44771525,4 5,4 L6.5,4 Z M12.75,11 L11.25,11 L11.25,13.25 L9,13.25 L9,14.75 L11.25,14.75 L11.25,17 L12.75,17 L12.75,14.75 L15,14.75 L15,13.25 L12.75,13.25 L12.75,11 Z M15.5,3 C16.0522847,3 16.5,3.44771525 16.5,4 L16.5,5 C16.5,5.55228475 16.0522847,6 15.5,6 L8.5,6 C7.94771525,6 7.5,5.55228475 7.5,5 L7.5,4 C7.5,3.44771525 7.94771525,3 8.5,3 L15.5,3 Z" id="形状结合"></path>
        </g>
    </g>
</svg>