<?xml version="1.0" encoding="UTF-8"?>
<svg width="27px" height="28px" viewBox="0 0 27 28" version="1.1" xmlns="http://www.w3.org/2000/svg" xmlns:xlink="http://www.w3.org/1999/xlink">
    <title>é¼“æŽŒ</title>
    <g id="ðŸ†•ç‚¹èµžäºŒæœŸ" stroke="none" stroke-width="1" fill="none" fill-rule="evenodd">
        <g id="ç”»æ¿" transform="translate(-43.000000, -11.000000)" fill="#FFFFFF" fill-rule="nonzero">
            <g id="é¼“æŽŒ" transform="translate(43.982488, 11.000000)">
                <g id="ç¼–ç»„-21" transform="translate(-0.000000, 3.201380)">
                    <path d="M11.0009126,1.58648202 C11.976548,0.835484112 12.5114696,1.69132684 13.1223726,2.39129159 C13.8756685,3.25440833 16.0432288,5.72703581 18.4399681,8.4695569 C18.5973456,8.65244152 18.6696488,8.76542858 18.8465837,8.71861031 C19.0235186,8.67179204 19.0809957,8.55660722 19.0859862,8.32023424 C19.0940718,7.93727165 19.1264309,6.63680499 19.1570373,5.79341801 C19.1630617,5.62741223 19.3756063,4.84656635 20.1204714,4.8036648 C20.8653366,4.76076325 21.1532209,5.32287676 21.2560688,5.6092215 C21.5965947,6.55729971 22.0856657,8.11869312 22.4210521,9.53628514 C22.8613588,11.3973489 23.4710876,14.1101008 22.6194691,16.1753724 C22.0443963,17.5699891 20.7458346,19.2925929 18.4399681,20.0638952 C15.800656,20.9467336 13.3316191,20.0562005 11.8879976,18.9099684 C11.2464924,18.4006146 13.3938763,13.963059 13.2867146,9.92078859 C13.2585407,8.85803388 13.035641,7.82401374 12.7319877,6.88983348 L14.1071311,8.52902132 C14.284632,8.74055866 14.6000098,8.76815064 14.8115472,8.59064974 C15.0234351,8.41285463 15.051944,8.09730967 14.875354,7.88441633 L14.875354,7.88441633 L10.7821339,2.94969963 L10.7821339,2.94969963 L10.7357224,2.88514795 L10.7357224,2.88514795 L10.7238732,2.86941926 C10.531643,2.62420777 10.2902193,2.13354013 11.0009126,1.58648202 Z" id="å½¢çŠ¶ç»“åˆå¤‡ä»½-2" opacity="0.400000006" transform="translate(16.785447, 10.858271) rotate(-15.000000) translate(-16.785447, -10.858271) "></path>
                    <path d="M8.44452992,2.5674901 C9.46469874,1.78221243 10.0240372,2.67712062 10.6628252,3.40903568 C11.4505057,4.31154989 13.7170056,6.89704192 16.2231455,9.76474703 C16.3877066,9.95597951 16.4633101,10.074124 16.6483213,10.0251686 C16.8333325,9.97621328 16.8934332,9.8557708 16.8986515,9.60860841 C16.9071062,9.2081653 16.9409423,7.84833806 16.9729458,6.96645418 C16.9792452,6.79287098 17.2014915,5.97638291 17.9803564,5.93152309 C18.7592214,5.88666328 19.0602464,6.47443479 19.1677888,6.77384991 C19.5238582,7.76520371 20.0352532,9.39786786 20.3859485,10.8801667 C20.8463532,12.8261798 21.4839135,15.6627568 20.5934223,17.8222991 C19.9921,19.2805739 18.6342647,21.081807 16.2231455,21.8883158 C13.4633604,22.8114519 10.8816229,21.8802699 9.37210642,20.6817172 C8.09798647,19.6700689 6.45690336,17.8303065 4.4157746,15.4738734 C3.75333967,14.7091084 2.83707672,13.5765733 2.42038848,12.9528494 C2.27087631,12.7290505 2.07913683,12.1523407 2.68135314,11.6572162 C3.28356943,11.1620919 3.7939471,11.3801687 4.13251827,11.8170245 C4.12986604,11.8069997 4.12720134,11.7969599 4.12452437,11.7869056 L6.54862153,14.6766581 C6.73422457,14.8978512 7.06399796,14.9267026 7.28519105,14.7410996 C7.50638413,14.5554966 7.53523556,14.2257231 7.34963253,14.0045301 L7.34963253,14.0045301 L3.09233311,8.93057758 L3.049989,8.86448302 C2.77812795,8.4918952 2.69261806,7.91536976 3.17204917,7.44009183 L3.28356943,7.33990748 C3.88578573,6.84784646 4.48828243,6.86994279 4.81247534,7.25383702 C4.82031041,7.26311495 4.83768241,7.28164656 4.86459135,7.30943185 L9.05008305,12.2975698 C9.23568608,12.5187629 9.56545948,12.5476143 9.78665256,12.3620113 C10.0078456,12.1764082 10.0366971,11.8466348 9.85109405,11.6254418 L9.85109405,11.6254418 L4.85320029,5.66920897 L4.8363992,5.64441117 C4.58258502,5.33871185 4.31351129,4.57650319 4.91207923,3.99050005 L5.03469394,3.88284384 C5.7895704,3.2862438 6.39248024,3.49378415 6.84529974,4.04881457 L6.78137077,3.97421746 L11.6925336,9.82692572 C11.8575141,10.0235418 12.136407,10.0681842 12.3516973,9.9453225 L12.4291032,9.89136719 C12.6506628,9.70545652 12.680473,9.37550836 12.4958225,9.15289736 L12.4958225,9.15289736 L8.16580554,3.93343728 L8.1548449,3.90898776 C7.96566405,3.66766606 7.73091781,3.19899142 8.32351034,2.66778404 L8.44452992,2.5674901 Z" id="å½¢çŠ¶ç»“åˆå¤‡ä»½" transform="translate(11.654537, 12.262496) rotate(-15.000000) translate(-11.654537, -12.262496) "></path>
                </g>
                <polygon id="è·¯å¾„å¤‡ä»½-2" points="12.1868549 3.3571985 15.6308396 4.55424948 13.0663154 0.831603292"></polygon>
                <polygon id="è·¯å¾„å¤‡ä»½-3" transform="translate(17.509420, 2.231091) rotate(-10.000000) translate(-17.509420, -2.231091) " points="16.1868549 4.26339526 18.8319854 2.44816273 17.5147784 0.19878577"></polygon>
            </g>
        </g>
    </g>
</svg>