<?xml version="1.0" encoding="UTF-8"?>
<svg width="24px" height="24px" viewBox="0 0 24 24" version="1.1" xmlns="http://www.w3.org/2000/svg" xmlns:xlink="http://www.w3.org/1999/xlink">
    <title>icons_outlined_displayoff</title>
    <g id="icons_outlined_displayoff" stroke="none" stroke-width="1" fill="none" fill-rule="evenodd">
        <path d="M13.8615167,15.6543069 L14.7201367,16.5137774 C14.3933637,16.8435457 14.0873103,17.2151181 13.801912,17.6170911 L13.6542668,17.8304269 L13.544,17.998 L13.6547532,18.166735 C14.6778121,19.6721158 15.959078,20.8064201 17.531655,20.9670298 L17.7582941,20.9832852 L18,20.9882599 C18.3644376,20.9882599 18.713907,20.9397044 19.0487856,20.8484049 L19.9985569,21.7979578 C19.3763813,22.05124 18.7096945,22.1882599 18,22.1882599 C15.6051376,22.1882599 13.6937945,20.6278498 12.3227862,18.3049737 C12.2682589,18.2029845 12.2409091,18.1013266 12.2407367,18 C12.2405672,17.8986734 12.267575,17.7975971 12.3217602,17.6967714 C12.7741424,16.9243662 13.2885751,16.2331903 13.8615167,15.6543069 Z M4,5.785 L5.199,6.985 L5.2,20.8 L12,20.8 L12,22 L5,22 C4.44771525,22 4,21.5522847 4,21 L4,5.785 Z M18.0101616,13.7768921 C20.4058343,13.7768921 22.2944459,15.3674799 23.658665,17.6967714 C23.7194381,17.7863444 23.7498246,17.8816126 23.7498246,17.982576 C23.7498246,18.0835395 23.7195538,18.1902259 23.6590121,18.3026353 C22.9514019,19.5140011 22.0949595,20.5181401 21.0978732,21.2020126 L20.2230616,20.325755 C20.9590244,19.8637157 21.6096541,19.1867941 22.1805538,18.3812878 L22.327382,18.1687367 L22.436,18 L22.3261585,17.8304269 C21.3079758,16.3215777 20.0479817,15.1613981 18.4781306,14.9983206 L18.2517509,14.9818768 L18.0101616,14.9768921 C17.1415242,14.9768921 16.3525056,15.2595801 15.6426259,15.7401846 L14.7710887,14.8692 C15.7251643,14.176792 16.8089367,13.7768921 18.0101616,13.7768921 Z M16.199,17.995 L18.0040292,19.7999956 C18.0026864,19.7999985 18.0013434,19.8 18,19.8 C17.0058875,19.8 16.2,18.9941125 16.2,18 L16.199,17.995 Z M18,16.2 C18.9941125,16.2 19.8,17.0058875 19.8,18 C19.8,18.5226473 19.5772485,18.9932682 19.2215029,19.3221052 L18.3711442,18.471468 C18.5105213,18.3615978 18.6,18.1912483 18.6,18 C18.6,17.6686292 18.3313708,17.4 18,17.4 C17.8087517,17.4 17.6384022,17.4894787 17.528532,17.6288558 L16.6788241,16.7774925 C17.0076182,16.4223322 17.4778448,16.2 18,16.2 Z M11,16 L11,17.2 L7,17.2 L7,16 L11,16 Z M11,13 L11,14.2 L7,14.2 L7,13 L11,13 Z M19,2 C19.5522847,2 20,2.44771525 20,3 L20,12 L18.799,12 L18.8,3.2 L5.2,3.2 L5.199,5.287 L4,4.087 L4,3 C4,2.44771525 4.44771525,2 5,2 L19,2 Z M8.211,10 L9.41,11.2 L7,11.2 L7,10 L8.211,10 Z M14.5,10 L14.5,11.2 L11.106,11.2 L9.907,10 L14.5,10 Z M8.5,5 C9.32842712,5 10,5.67157288 10,6.5 C10,7.32842712 9.32842712,8 8.5,8 C8.17498159,8 7.87410686,7.89662858 7.62845939,7.72096932 L7.27832561,7.37055378 C7.10309484,7.12508754 7,6.82458332 7,6.5 C7,5.67157288 7.67157288,5 8.5,5 Z" id="形状结合" fill-opacity="0.9" fill="#000000"></path>
        <polygon id="Path" fill="#000000" fill-rule="nonzero" points="2.7616186 2.84852817 3.61014677 2 22.9331874 21.3397318 22.0846592 22.1882599"></polygon>
    </g>
</svg>