<?xml version="1.0" encoding="UTF-8"?>
<svg width="24px" height="24px" viewBox="0 0 24 24" version="1.1" xmlns="http://www.w3.org/2000/svg" xmlns:xlink="http://www.w3.org/1999/xlink">
    <title>icon_filled_video-call_off</title>
    <g id="icon_filled_video-call_off" stroke="none" stroke-width="1" fill="none" fill-rule="evenodd">
        <g id="Group">
            <rect id="矩形" transform="translate(12.000000, 12.000000) scale(-1, -1) translate(-12.000000, -12.000000) " x="0" y="0" width="24" height="24"></rect>
            <path d="M2.5753788,2.45405845 L19.5459415,19.4246212 L18.4852814,20.4852814 L1.51471863,3.51471863 L2.5753788,2.45405845 Z M2.05383902,6.17546356 L14.378,18.4990585 L3,18.5 C2.44771525,18.5 2,18.0522847 2,17.5 L2,6.5 C2,6.38640175 2.01894171,6.27722757 2.05383902,6.17546356 Z M22.7808688,7.4559298 C22.9227192,7.63324285 23,7.85355335 23,8.08062485 L23,15.9193752 C23,16.4716599 22.5522847,16.9193752 22,16.9193752 C21.7729285,16.9193752 21.552618,16.8420944 21.375305,16.700244 L18,14 L18,10 L21.375305,7.29975604 C21.8065669,6.95474649 22.4358593,7.02466786 22.7808688,7.4559298 Z M5.619,5.49905845 L16,5.5 C16.5522847,5.5 17,5.94771525 17,6.5 L17,16.8790585 L5.619,5.49905845 Z" id="形状结合" fill-opacity="0.9" fill="#000000"></path>
        </g>
    </g>
</svg>