<?xml version="1.0" encoding="UTF-8"?>
<svg width="32px" height="32px" viewBox="0 0 32 32" version="1.1" xmlns="http://www.w3.org/2000/svg" xmlns:xlink="http://www.w3.org/1999/xlink">
    <title>PauseBtn_Medium</title>
    <g id="PauseBtn_Medium" stroke="none" stroke-width="1" fill="none" fill-rule="evenodd">
        <g>
            <circle id="椭圆形" fill-opacity="0.15" fill="#000000" cx="16" cy="16" r="16"></circle>
            <path d="M16,0 C24.836556,0 32,7.163444 32,16 C32,24.836556 24.836556,32 16,32 C7.163444,32 0,24.836556 0,16 C0,7.163444 7.163444,0 16,0 Z M16,1 C7.71572875,1 1,7.71572875 1,16 C1,24.2842712 7.71572875,31 16,31 C24.2842712,31 31,24.2842712 31,16 C31,7.71572875 24.2842712,1 16,1 Z M13.4722222,10.5833333 C13.8710945,10.5833333 14.1944444,10.9066832 14.1944444,11.3055556 L14.1944444,20.6944444 C14.1944444,21.0933168 13.8710945,21.4166667 13.4722222,21.4166667 L12.0277778,21.4166667 C11.6289055,21.4166667 11.3055556,21.0933168 11.3055556,20.6944444 L11.3055556,11.3055556 C11.3055556,10.9066832 11.6289055,10.5833333 12.0277778,10.5833333 L13.4722222,10.5833333 Z M19.9722222,10.5833333 C20.3710945,10.5833333 20.6944444,10.9066832 20.6944444,11.3055556 L20.6944444,20.6944444 C20.6944444,21.0933168 20.3710945,21.4166667 19.9722222,21.4166667 L18.5277778,21.4166667 C18.1289055,21.4166667 17.8055556,21.0933168 17.8055556,20.6944444 L17.8055556,11.3055556 C17.8055556,10.9066832 18.1289055,10.5833333 18.5277778,10.5833333 L19.9722222,10.5833333 Z" id="形状结合" fill="#FFFFFF" fill-rule="nonzero"></path>
        </g>
    </g>
</svg>