<?xml version="1.0" encoding="UTF-8"?>
<svg width="16px" height="16px" viewBox="0 0 16 16" version="1.1" xmlns="http://www.w3.org/2000/svg" xmlns:xlink="http://www.w3.org/1999/xlink">
    <title>编组 3</title>
    <g id="页面-1" stroke="none" stroke-width="1" fill="none" fill-rule="evenodd">
        <g id="观众侧_有购物入口备份-85" transform="translate(-41.000000, -518.000000)">
            <g id="编组-3" transform="translate(41.000000, 518.000000)">
                <circle id="椭圆形" fill="#FFFFFF" cx="8" cy="8" r="8"></circle>
                <g id="0.图标/线型/icons_outlined_arrow" transform="translate(4.000000, 4.000000)" fill="#FF6146">
                    <path d="M7.75,4.75 C7.88807119,4.75 8,4.86192881 8,5 C8,5.0720183 7.96894209,5.14053824 7.91478215,5.18800756 L5.4484119,7.34969607 C5.36534493,7.4225014 5.23898546,7.4141827 5.16618013,7.33111573 C5.10604363,7.26250323 5.09996372,7.16188966 5.15140053,7.08653497 L6.23436276,5.5 L-0.000546302843,5.5 L-0.000546302843,4.75 L7.75,4.75 Z M2.83327357,0.668884266 C2.89341007,0.737496773 2.89948998,0.838110337 2.84805317,0.91346503 L1.76509094,2.5 L8,2.5 L8,3.25 L0.249453697,3.25 C0.11138251,3.25 -0.000546302843,3.13807119 -0.000546302843,3 C-0.000546302843,2.9279817 0.0305116113,2.85946176 0.0846715493,2.81199244 L2.5510418,0.650303934 C2.63410877,0.5774986 2.76046824,0.585817298 2.83327357,0.668884266 Z" id="Combined-Shape"></path>
                </g>
            </g>
        </g>
    </g>
</svg>