<?xml version="1.0" encoding="UTF-8"?>
<svg width="16px" height="16px" viewBox="0 0 16 16" version="1.1" xmlns="http://www.w3.org/2000/svg" xmlns:xlink="http://www.w3.org/1999/xlink">
    <title>编组 14</title>
    <g id="编组-14" stroke="none" stroke-width="1" fill="none" fill-rule="evenodd">
        <path d="M9.49553563,1.33680458 L10.0856628,1.33985119 L10.6214234,1.3515728 C10.6979233,1.35400777 10.772632,1.35675127 10.845572,1.35980992 L12.7,1.35986328 C13.1418278,1.35986328 13.5,1.71803548 13.5,2.15986328 L13.5,13.8552734 C13.5,14.2971012 13.1418278,14.6552734 12.7,14.6552734 L3.3,14.6552734 C2.8581722,14.6552734 2.5,14.2971012 2.5,13.8552734 L2.5,2.15986328 C2.5,1.71803548 2.8581722,1.35986328 3.3,1.35986328 L8.016,1.35980458 L8.50515954,1.34755199 L9.17962058,1.33839893 C9.28727336,1.33753011 9.39256807,1.33699565 9.49553563,1.33680458 Z M3.59757951,6.22442632 L3.6,13.555 L12.4,13.555 L12.4020123,6.23221271 C11.6310178,6.6423158 10.6578378,6.96796941 9.67659145,7.15559602 L9.36641502,7.21023896 L9.14785191,7.24571449 C8.95594722,7.6894783 8.51423672,8 8,8 C7.48576328,8 7.04405278,7.6894783 6.85214809,7.24571449 L6.63358498,7.21023896 C5.54805898,7.03542376 4.44961107,6.68259494 3.59757951,6.22442632 Z M12.4,2.459 L3.6,2.459 L3.5986524,4.13753821 C4.12858057,5.06246527 5.22533783,5.84112602 6.54659263,6.19549524 L6.76347338,6.24935978 L6.84617861,6.26832541 C7.03477335,5.81708508 7.48035708,5.5 8,5.5 C8.51964292,5.5 8.96522665,5.81708508 9.15382139,6.26832541 L9.23652662,6.24935978 C10.6396346,5.92844431 11.8321043,5.12521067 12.4015389,4.164655 L12.4,2.459 Z" id="形状结合" fill="#000000"></path>
    </g>
</svg>