<?xml version="1.0" encoding="UTF-8"?>
<svg width="25px" height="24px" viewBox="0 0 25 24" version="1.1" xmlns="http://www.w3.org/2000/svg" xmlns:xlink="http://www.w3.org/1999/xlink">
    <title>icon_trademark_protection</title>
    <g id="icon_trademark_protection" stroke="none" stroke-width="1" fill="none" fill-rule="evenodd">
        <g>
            <rect id="矩形" fill-opacity="0" fill="#FFFFFF" x="0.5" y="0.00116441037" width="24" height="24"></rect>
            <path d="M12.8753442,1.07311451 L21.3753442,4.51520733 C21.7529119,4.66810414 22,5.03474192 22,5.44209283 L22,11.932385 C22,17.4746589 18.1464721,21.7715248 12.7303109,22.9738128 L12.7167066,22.9768327 C12.5739727,23.008517 12.4260273,23.008517 12.2832934,22.9768327 L12.2720633,22.9743398 C6.85451485,21.7717439 3,17.473649 3,11.9299556 L3,5.44209283 C3,5.03474192 3.24708813,4.66810414 3.62465578,4.51520733 L12.1246558,1.07311451 C12.3653905,0.975628497 12.6346095,0.975628497 12.8753442,1.07311451 Z M13.07,6.90616441 L9.235,6.90616441 L9.235,16.7471644 L10.834,16.7471644 L10.834,12.7431644 L13.096,12.7431644 C14.11,12.7431644 14.643,13.4321644 14.708,14.3291644 C14.812,15.5121644 14.942,16.2401644 15.163,16.7471644 L15.163,16.7471644 L16.866,16.7471644 C16.593,16.0711644 16.359,15.1091644 16.268,14.1471644 C16.19,13.0421644 15.683,12.3401644 14.877,12.0281644 L14.877,12.0281644 L14.877,12.0151644 C16.021,11.5081644 16.45,10.3511644 16.45,9.67516441 C16.45,8.08916441 15.436,6.90616441 13.07,6.90616441 L13.07,6.90616441 Z M12.888,8.33616441 C14.201,8.33616441 14.838,8.89516441 14.838,9.77916441 C14.838,10.6631644 14.149,11.3131644 12.94,11.3131644 L12.94,11.3131644 L10.834,11.3131644 L10.834,8.33616441 Z" id="形状结合" fill="#07C160" fill-rule="nonzero"></path>
        </g>
    </g>
</svg>