<?xml version="1.0" encoding="UTF-8"?>
<svg width="16px" height="16px" viewBox="0 0 16 16" version="1.1" xmlns="http://www.w3.org/2000/svg" xmlns:xlink="http://www.w3.org/1999/xlink">
    <title>视频号</title>
    <g id="201229" stroke="none" stroke-width="1" fill="none" fill-rule="evenodd">
        <g id="未关注公众号_添加视频号备份-4" transform="translate(-16.000000, -242.000000)">
            <g id="小商店" transform="translate(16.000000, 242.000000)">
                <rect id="矩形" x="0" y="0" width="16" height="16"></rect>
                <path d="M12.5117765,2.38104742 C13.2403847,2.08387087 13.8633154,2.36895185 14.1879372,3.18829891 C14.4191766,3.77180906 14.4459249,4.78528424 14.3304831,5.96020981 L14.3304831,5.96020981 L14.2868217,6.35746298 C14.2786956,6.42454567 14.270152,6.49203459 14.2612016,6.55988368 L14.2612016,6.55988368 L14.2027027,6.97093203 L14.1349532,7.38841469 L14.0584657,7.81012164 L13.9737531,8.2338429 C13.9589774,8.30450819 13.9438803,8.37516532 13.9284726,8.44576826 L13.9284726,8.44576826 L13.8323837,8.86836723 L13.7293516,9.2874555 L13.7293516,9.2874555 L13.675392,9.4949925 L13.5629065,9.90467099 L13.4447596,10.3053138 L13.3214642,10.6947109 C13.2795646,10.8223901 13.2368924,10.9478267 13.193533,11.0706524 L13.193533,11.0706524 L13.0614787,11.4309282 C13.0391546,11.4895459 13.01668,11.5474188 12.9940657,11.6045008 L12.9940657,11.6045008 L12.8567884,11.9371343 C12.3941772,13.0118227 11.8842141,13.7333333 11.41236,13.7333333 C10.7959053,13.7333333 10.1522722,13.1115734 9.38753526,11.9942028 L9.38753526,11.9942028 L9.16566252,11.661577 C8.74986493,11.0233061 8.35022099,10.3242473 7.99911684,9.65825769 C7.65021605,10.3234828 7.25036243,11.0229571 6.83433748,11.661577 L6.83433748,11.661577 L6.61246474,11.9942028 C5.84772782,13.1115734 5.20409467,13.7333333 4.58763998,13.7333333 C4.11578593,13.7333333 3.60582284,13.0118227 3.14321132,11.9371351 L3.14321132,11.9371351 L3.00593387,11.6045018 L3.00593387,11.6045018 L2.9385208,11.4309293 L2.80646642,11.0706539 C2.76310698,10.9478284 2.7204347,10.8223919 2.67853505,10.6947128 L2.67853505,10.6947128 L2.55523945,10.3053162 L2.43709237,9.90467387 L2.32460659,9.49499597 L2.32460659,9.49499597 L2.27064692,9.28745929 L2.16761451,8.86837173 L2.0715253,8.44577356 C2.05611752,8.37517076 2.0410204,8.30451376 2.02624464,8.23384862 L2.02624464,8.23384862 L1.94153167,7.81012829 L1.8650438,7.38842236 L1.79729382,6.97094083 C1.7867588,6.90183538 1.77660922,6.83299804 1.76685577,6.76447484 L1.76685577,6.76447484 L1.71317403,6.35747365 L1.66951207,5.96022188 C1.55406864,4.78530064 1.58081461,3.77183137 1.81205075,3.18832925 C2.18571508,2.24519861 2.93143943,2.03470366 3.7653999,2.51852566 C4.36045256,2.86374534 5.03150836,3.55947746 5.7764693,4.54242372 C6.3487069,5.29746841 6.93503204,6.1838132 7.50811738,7.12992168 L7.50811738,7.12992168 L7.84275977,7.69157625 L7.99890975,7.96248075 L8.19802387,7.62255397 C8.51686836,7.07976159 8.85130133,6.53687691 9.19358729,6.01377049 L9.53820442,5.49799277 C9.95566323,4.88659197 10.3612483,4.34272325 10.7489638,3.88345513 C11.4004844,3.11169673 11.9835082,2.59651156 12.5117765,2.38104742 Z M7.24958981,8.26266843 L6.93869342,7.73504627 L6.61339496,7.20072106 C6.12127975,6.40603172 5.62291108,5.66428098 5.13889073,5.02563542 C4.45349985,4.1212895 3.84319163,3.48853879 3.36394787,3.21050562 C2.93482343,2.96154916 2.74069009,3.01634701 2.55579174,3.48303137 C2.34339003,4.01900662 2.35439158,5.1584172 2.54714368,6.54482798 L2.54714368,6.54482798 L2.61038017,6.96780478 L2.68427178,7.40346299 C2.72383971,7.624106 2.76730959,7.84870257 2.81454084,8.07604971 L2.81454084,8.07604971 L2.91397685,8.534055 L3.02319328,8.99725655 C3.03897415,9.06162478 3.05495866,9.12561155 3.07112768,9.18918362 L3.07112768,9.18918362 L3.17020297,9.56537373 L3.27278887,9.93001538 L3.37796776,10.2815129 L3.48482202,10.6182706 L3.59243402,10.9386928 L3.69988613,11.2411839 L3.80626074,11.5241481 L3.9106402,11.7859898 L4.0121069,12.0251133 L4.10974321,12.239923 L4.20263151,12.4288231 L4.28985416,12.5902179 C4.4159801,12.8108834 4.51988752,12.9333333 4.58763998,12.9333333 C4.72321143,12.9333333 4.94433432,12.7717497 5.21805105,12.4774046 L5.21805105,12.4774046 L5.37236891,12.3038594 C5.39889184,12.2727986 5.42579991,12.2406839 5.45306835,12.2075369 L5.45306835,12.2075369 L5.62080542,11.9964413 L5.79600295,11.7616115 C5.85551347,11.6794946 5.9160693,11.5935952 5.97747237,11.5040866 L5.97747237,11.5040866 L6.16402513,11.2249063 C6.67402865,10.4420243 7.1642287,9.55441478 7.56117266,8.7647675 L7.548,8.78866667 L7.24958981,8.26266843 Z M13.4441962,3.48300102 C13.2801149,3.06885898 13.1215862,2.99630913 12.8139071,3.12180183 C12.4363781,3.27578412 11.9346099,3.71916829 11.3602605,4.39951357 C10.9919567,4.83578765 10.6020902,5.35857847 10.1988871,5.94910078 C9.74794865,6.60953506 9.30440695,7.31856035 8.88781833,8.02774972 L8.88781833,8.02774972 L8.67971247,8.38610067 L8.45133333,8.78933333 L8.61413348,9.10797949 C8.91588276,9.68956342 9.25964401,10.3059277 9.61882711,10.8835616 L9.61882711,10.8835616 L9.83597487,11.2249063 L10.0225276,11.5040866 C10.0839307,11.5935952 10.1444865,11.6794946 10.2039971,11.7616115 L10.2039971,11.7616115 L10.3791946,11.9964413 L10.5469316,12.2075369 L10.5469316,12.2075369 L10.6276311,12.3038594 L10.781949,12.4774046 C11.0556657,12.7717497 11.2767886,12.9333333 11.41236,12.9333333 C11.4801125,12.9333333 11.5840199,12.8108834 11.7101458,12.5902179 L11.7101458,12.5902179 L11.7973685,12.4288231 L11.8902568,12.239923 L11.9878931,12.0251133 L12.0893598,11.7859898 L12.1937393,11.5241481 L12.3001139,11.2411839 L12.407566,10.9386928 L12.515178,10.6182706 L12.6220322,10.2815129 L12.7272111,9.93001538 L12.829797,9.56537373 L12.9288723,9.18918362 L12.9768067,8.99725655 L13.0860231,8.53405499 L13.1854591,8.07604965 C13.2326904,7.84870246 13.2761602,7.62410581 13.3157281,7.40346264 L13.3157281,7.40346264 L13.3896195,6.96780404 L13.4528558,6.54482662 C13.5106811,6.12890265 13.5521487,5.73520829 13.576134,5.37336707 L13.576134,5.37336707 L13.59425,5.0225 C13.6186606,4.34342699 13.5716419,3.80459792 13.4441962,3.48300102 Z" id="形状结合" fill="#576B95"></path>
            </g>
        </g>
    </g>
</svg>