<?xml version="1.0" encoding="UTF-8"?>
<svg width="24px" height="24px" viewBox="0 0 24 24" version="1.1" xmlns="http://www.w3.org/2000/svg" xmlns:xlink="http://www.w3.org/1999/xlink">
    <!-- Generator: Sketch 59 (86127) - https://sketch.com -->
    <title>protection_icon_gray@3x</title>
    <desc>Created with Sketch.</desc>
    <g id="protection_icon_gray" stroke="none" stroke-width="1" fill="none" fill-rule="evenodd">
        <g id="icon">
            <rect id="矩形" fill-opacity="0" fill="#FFFFFF" x="0" y="0" width="24" height="24"></rect>
            <path d="M13.7320508,1.46363347 L20.2679492,5.2333298 C21.339746,5.85150776 22,6.99394775 22,8.23030367 L22,15.7696963 C22,17.0060523 21.339746,18.1484922 20.2679492,18.7666702 L13.7320508,22.5363665 C12.660254,23.1545445 11.339746,23.1545445 10.2679492,22.5363665 L3.73205081,18.7666702 C2.66025404,18.1484922 2,17.0060523 2,15.7696963 L2,8.23030367 C2,6.99394775 2.66025404,5.85150776 3.73205081,5.2333298 L10.2679492,1.46363347 C11.339746,0.845455509 12.660254,0.845455509 13.7320508,1.46363347 Z M13.1325049,2.50312599 C12.4317586,2.098958 11.5682414,2.098958 10.8674951,2.50312599 L4.33159672,6.27282232 C3.63125049,6.67675954 3.2,7.42295384 3.2,8.23030367 L3.2,15.7696963 C3.2,16.5770462 3.63125049,17.3232405 4.33159672,17.7271777 L10.8674951,21.496874 C11.5682414,21.901042 12.4317586,21.901042 13.1325049,21.496874 L19.6684033,17.7271777 C20.3687495,17.3232405 20.8,16.5770462 20.8,15.7696963 L20.8,8.23030367 C20.8,7.42295384 20.3687495,6.67675954 19.6684033,6.27282232 L13.1325049,2.50312599 Z" id="多边形" fill-opacity="0.3" fill="#000000" fill-rule="nonzero"></path>
            <path d="M10.1745,7.206 L16.212,7.206 L16.212,11.047 L10.1745,11.047 L10.1745,7.206 Z M12.6355,17.0155 L12.6355,13.9335 C11.8995,14.9685 11.014,15.739 9.5995,16.636 L8.9325,15.601 C10.508,14.8305 11.3935,14.106 12.1295,13.094 L9.5535,13.094 L9.5535,12.0475 L12.6355,12.0475 L12.6355,11.2195 L13.751,11.2195 L13.751,12.0475 L16.856,12.0475 L16.856,13.094 L14.096,13.094 C14.8435,14.037 15.8555,14.796 17.2355,15.463 L16.603,16.544 C15.5105,15.8425 14.5215,14.9455 13.751,13.9565 L13.751,17.0155 L12.6355,17.0155 Z M7.7595,17.05 L7.7595,11.622 C7.5065,12.013 7.219,12.3925 6.92,12.772 L6.2185,11.737 C7.012,10.6445 8.1505,8.494 8.6105,6.7805 L9.8065,7.068 C9.519,7.9535 9.22,8.7815 8.875,9.552 L8.875,17.05 L7.7595,17.05 Z M11.359,8.31 L11.359,9.943 L15.0275,9.943 L15.0275,8.31 L11.359,8.31 Z" id="保" fill-opacity="0.3" fill="#000000" fill-rule="nonzero"></path>
        </g>
    </g>
</svg>