<?xml version="1.0" encoding="UTF-8"?>
<svg width="24px" height="24px" viewBox="0 0 24 24" version="1.1" xmlns="http://www.w3.org/2000/svg" xmlns:xlink="http://www.w3.org/1999/xlink">
    <title>视频号filled</title>
    <g id="视频号filled" stroke="none" stroke-width="1" fill="none" fill-rule="evenodd" fill-opacity="0.9">
        <path d="M18.2350809,3.88175007 C19.4277104,3.39931208 20.4715003,3.89115584 20.9843475,5.1749449 C21.2465156,5.83106325 21.3392851,6.81551842 21.3002711,7.97351015 L21.2730442,8.51972632 C21.2246304,9.26294089 21.128502,10.0628546 20.993425,10.883392 L20.8849513,11.5020983 C20.7501984,12.2271185 20.5873033,12.9610236 20.4021387,13.679646 L20.2381094,14.2913016 C20.2099079,14.3924325 20.1812861,14.4931106 20.1522612,14.5932655 L19.9734116,15.1873515 C19.0869147,18.0229688 17.8901948,20.3 16.8008215,20.3 C15.9853891,20.3 15.205559,19.7093533 14.2495596,18.4847099 C13.8660031,17.9933708 13.4603155,17.4026957 13.0335155,16.717352 C12.7913186,16.328439 12.5472765,15.9172271 12.3029928,15.487313 L12,14.944 L11.9937233,14.9562229 C11.822897,15.2671768 11.6513586,15.5705367 11.4798924,15.8646193 L11.2228452,16.2985748 L10.9664944,16.717352 C10.5396943,17.4026957 10.1340068,17.9933708 9.75045025,18.4847099 C8.79445084,19.7093533 8.01462076,20.3 7.19918833,20.3 C6.10981781,20.3 4.91309754,18.0229706 4.02659828,15.1873581 L3.84774807,14.5932731 C3.8187231,14.4931184 3.79010125,14.3924405 3.76189963,14.2913098 L3.59786971,13.6796553 C3.43915656,13.0636945 3.29680461,12.4365057 3.17451206,11.8133082 L3.05904295,11.1920048 C3.04095817,11.0888638 3.02346484,10.9859747 3.00658007,10.8834078 L2.91271128,10.2724371 C2.82641926,9.66646071 2.76326847,9.07715845 2.72695711,8.51974961 L2.6997292,7.97353559 C2.66071295,6.81554864 2.75347989,5.83109906 3.01564546,5.17498724 C3.52850686,3.89116262 4.5722931,3.39930949 5.76492898,3.88175007 C6.54129296,4.19580191 7.38594974,4.91629789 8.36096064,6.06175318 C8.90303159,6.69858508 9.47791757,7.45995636 10.0830229,8.33889549 C10.5861281,9.06967561 11.0953293,9.85957999 11.6013545,10.690763 L12,11.355 L12.0204804,11.3205877 C12.2697496,10.8997263 12.5206679,10.487398 12.7721535,10.0857485 L13.149672,9.49155171 L13.5272301,8.91498263 L13.916987,8.33889549 C14.5220923,7.45995636 15.0969782,6.69858508 15.6390492,6.06175318 C16.6140601,4.91629789 17.4587169,4.19580191 18.2350809,3.88175007 Z M4.42077889,7.48654172 L4.43387207,7.95208446 C4.43749224,8.03276098 4.44182905,8.1149368 4.44687901,8.19854632 L4.48570845,8.71688313 C4.50937401,8.98412899 4.53939478,9.26309745 4.57567616,9.55201743 L4.65655836,10.1426013 L4.7539673,10.756574 C4.80677543,11.0688827 4.865718,11.3887815 4.93070042,11.7144993 L4.99769261,12.0420912 L5.13639293,12.6759226 L5.28941704,13.3196356 L5.4151136,13.8077376 L5.54952874,14.2932124 L5.69061316,14.7720773 L5.83631758,15.2403499 L5.98459271,15.6940473 L6.13338925,16.1291872 L6.28065791,16.5417867 L6.49421331,17.1097111 L6.62869663,17.448536 L6.81346796,17.8871299 L6.97174704,18.2302038 L7.05913303,18.3992154 C7.12519865,18.518774 7.17366265,18.583739 7.19918833,18.583739 C7.29896812,18.583739 7.63513878,18.3089065 8.0421149,17.8484709 L8.27012865,17.5794537 C8.30896953,17.5317284 8.34814676,17.4826033 8.38753595,17.4321454 C8.73148997,16.9915374 9.10427973,16.4483801 9.49959275,15.8135973 C9.72970516,15.4440892 9.96253333,15.0517048 10.1951286,14.6423669 L10.4275371,14.2275973 L10.7914549,13.5551782 L11.023,13.108 L10.7848398,12.6904544 L10.4928194,12.1917313 C9.88318113,11.16243 9.2650788,10.1884789 8.6593088,9.3085742 C8.08683354,8.47703145 7.54596632,7.76039953 7.04404008,7.17073016 C6.26087389,6.25065648 5.58729219,5.66266375 5.11486608,5.47155972 C4.88456434,5.37839892 4.81071839,5.38221265 4.6951365,5.62979854 L4.61919353,5.80877711 C4.47835347,6.16125218 4.41338334,6.74237236 4.42077889,7.48654172 Z M18.8851438,5.47155972 C18.4127176,5.66266375 17.7391359,6.25065648 16.9559697,7.17073016 C16.4540435,7.76039953 15.9131763,8.47703145 15.340701,9.3085742 C14.950133,9.8758896 14.5542451,10.48258 14.1589438,11.1178141 L13.8626701,11.5994225 L13.3588734,12.4435655 L12.975,13.109 L13.2745008,13.6790994 C13.6816825,14.4414395 14.0950594,15.1626851 14.5004171,15.8135973 C14.8957301,16.4483801 15.2685199,16.9915374 15.6124739,17.4321454 L15.7298812,17.5794537 L15.9578949,17.8484709 L16.1718646,18.0806744 C16.4793004,18.3997602 16.7191835,18.583739 16.8008215,18.583739 C16.821242,18.583739 16.8563431,18.5421614 16.9033911,18.4643214 L16.9825815,18.3210291 L17.0776421,18.1273296 L17.1865226,17.8872094 L17.3071728,17.6046549 L17.4375425,17.2836526 L17.5755815,16.9281889 L17.7192395,16.5422502 L17.8664664,16.129823 L18.0152119,15.6948936 L18.1634259,15.2414485 L18.309058,14.7734742 L18.4500581,14.294957 L18.584376,13.8098834 C18.6060915,13.7287129 18.6274432,13.6474353 18.6483884,13.5661337 L18.7099614,13.3222399 L18.8630067,12.6785412 C18.9642402,12.2351002 19.055195,11.7983729 19.1355878,11.3726029 L19.2482204,10.7426963 C19.2831004,10.5358204 19.3153047,10.3322142 19.3447976,10.1324083 L19.4251072,9.54492152 C19.4371247,9.44908398 19.4484555,9.3543291 19.4590952,9.26072318 L19.514605,8.71340576 C19.6324696,7.38223347 19.5928462,6.33941632 19.3807994,5.80873477 L19.3048632,5.62977324 C19.1892909,5.38221105 19.1154457,5.37839884 18.8851438,5.47155972 Z" id="形状" fill="#000000"></path>
    </g>
</svg>