<?xml version="1.0" encoding="UTF-8"?>
<svg width="24px" height="24px" viewBox="0 0 24 24" version="1.1" xmlns="http://www.w3.org/2000/svg" xmlns:xlink="http://www.w3.org/1999/xlink">
    <title>icon_me(视频号右上角)</title>
    <g id="icon_me(视频号右上角)" stroke="none" stroke-width="1" fill="none" fill-rule="evenodd">
        <path d="M11.9983333,3.75 C14.0233774,3.75 15.665,5.39356521 15.665,7.41685685 L15.665,8.98433688 C15.665,10.0285213 15.1158547,11.5259553 14.4440799,12.3222753 L14.112675,12.7151217 C13.5722797,13.3557048 13.7410887,14.1710311 14.4967532,14.5396345 L19.6854105,17.0705944 C20.2494347,17.3457182 20.7066667,18.0730726 20.7066667,18.7058414 L20.7066667,19.3333333 C20.7066667,19.8395944 20.296261,20.25 19.79,20.25 L4.20666667,20.25 C3.70040565,20.25 3.29,19.8395944 3.29,19.3333333 L3.29,18.7058414 C3.29,18.0778432 3.74663833,17.3459155 4.31125614,17.0703883 L9.4999132,14.5383811 C10.252429,14.1711617 10.4274041,13.3578239 9.88399146,12.7137523 L9.55258664,12.3209598 C8.87829116,11.5217614 8.33166667,10.0287051 8.33166667,8.98351632 L8.33166667,7.41628201 C8.33166667,5.39145037 9.97740981,3.75 11.9983333,3.75 Z M11.9983333,4.95 C10.6928855,4.95 9.62061751,5.96915199 9.53692478,7.25430672 L9.53166667,7.41628201 L9.53166667,8.98351632 C9.53166667,9.6863405 9.91175619,10.7791457 10.3572094,11.4017706 L10.4697524,11.5471336 L10.8011572,11.9399261 C11.8104934,13.1362265 11.5064568,14.7836837 10.1779904,15.5368845 L10.0261819,15.616825 L4.83752483,18.1488322 C4.70449075,18.2137514 4.53819261,18.4616149 4.49869673,18.6362353 L4.49,18.7058414 L4.49,19.05 L19.506,19.05 L19.5066667,18.7058414 C19.5066667,18.5553157 19.3582201,18.2992847 19.2183025,18.1874814 L19.1593176,18.1491241 L13.9706604,15.6181642 C12.5647473,14.932378 12.1781312,13.3016721 13.0889066,12.0758277 L13.195457,11.9413574 L13.5268619,11.548511 C13.9793323,11.0121539 14.395833,9.92820033 14.4572327,9.16732189 L14.465,8.98433688 L14.465,7.41685685 C14.465,6.0555575 13.3598865,4.95 11.9983333,4.95 Z" id="Path" fill="#000000" fill-rule="nonzero"></path>
    </g>
</svg>