<?xml version="1.0" encoding="UTF-8"?>
<svg width="24px" height="24px" viewBox="0 0 24 24" version="1.1" xmlns="http://www.w3.org/2000/svg" xmlns:xlink="http://www.w3.org/1999/xlink">
    <title>画板</title>
    <g id="画板" stroke="none" stroke-width="1" fill="none" fill-rule="evenodd">
        <g id="编组-5" fill="#FFFFFF">
            <path d="M6.03826889,3 C6.50094943,3.01542416 6.88651654,3.27763496 7.05616608,3.67866324 L7.05616608,3.67866324 L8.36709427,7.16452442 C8.42878501,7.33419023 8.39793964,7.42673522 8.30540354,7.59640103 C7.99694984,8.13624679 7.25666098,9.49357326 6.84024849,10.311054 C6.7322897,10.5115681 6.67059896,10.7429306 6.67059896,10.9742931 C6.67059896,11.2210797 6.74771238,11.4678663 6.87109386,11.6683805 C7.5342693,12.7943445 8.30540354,13.8586118 9.21534193,14.7686375 C10.1252803,15.6940874 11.1894456,16.4652956 12.3153016,17.1285347 C12.5157965,17.251928 12.7471367,17.3290488 13.0093224,17.3290488 C13.2560853,17.3290488 13.4720029,17.2673522 13.6724978,17.159383 C14.4744774,16.7429306 15.8316737,16.0025707 16.3868903,15.6940874 C16.5565398,15.6015424 16.6336533,15.5706941 16.8187255,15.6323907 L16.8187255,15.6323907 L20.3042522,16.9434447 C20.705242,17.1131105 20.9674277,17.4987147 20.998273,17.9614396 C21.0136957,18.1465296 20.9211596,18.3624679 20.9057369,18.4087404 C20.3505203,19.9203085 18.9162106,21 17.2197153,21 C16.7416121,21 16.2943542,20.8920308 16.1863954,20.8611825 C12.9476316,20.1208226 10.0635896,18.470437 7.79645494,16.2030848 C5.52932029,13.9357326 3.87909303,11.0514139 3.13880416,7.81233933 C3.12338148,7.70437018 3,7.25706941 3,6.77892031 C3,5.08226221 4.07958793,3.64781491 5.59101103,3.09254499 C5.63727908,3.07712082 5.85319667,3 6.03826889,3 Z M18.6666667,4.5 C18.9296594,4.5 19.1428571,4.70663781 19.1428571,4.96153846 L19.1428571,10.0384615 C19.1428571,10.2933622 18.9296594,10.5 18.6666667,10.5 L12.4761905,10.5 C12.2131977,10.5 12,10.2933622 12,10.0384615 L12,4.96153846 C12,4.70663781 12.2131977,4.5 12.4761905,4.5 L18.6666667,4.5 Z M21.8956518,5.40273683 C21.9631996,5.48457362 22,5.58625539 22,5.69105762 L22,9.30894238 C22,9.56384303 21.7868023,9.77048084 21.5238095,9.77048084 C21.4156802,9.77048084 21.3107705,9.7348128 21.2263357,9.66934337 L19.6190476,8.42307692 L19.6190476,6.57692308 L21.2263357,5.33065663 C21.4316985,5.17142146 21.7313616,5.20369286 21.8956518,5.40273683 Z" id="形状结合"></path>
        </g>
    </g>
</svg>