<?xml version="1.0" encoding="UTF-8"?>
<svg width="20px" height="20px" viewBox="0 0 20 20" version="1.1" xmlns="http://www.w3.org/2000/svg" xmlns:xlink="http://www.w3.org/1999/xlink">
    <!-- Generator: Sketch 63.1 (92452) - https://sketch.com -->
    <title>icon_help</title>
    <desc>Created with Sketch.</desc>
    <g id="icon_help" stroke="none" stroke-width="1" fill="none" fill-rule="evenodd">
        <path d="M10,0 C15.5228475,0 20,4.4771525 20,10 C20,15.5228475 15.5228475,20 10,20 C4.4771525,20 0,15.5228475 0,10 C0,4.4771525 4.4771525,0 10,0 Z M9.953125,13.1484375 C9.39941406,13.1484375 8.95507812,13.5722656 8.95507812,14.1123047 C8.95507812,14.6523437 9.39941406,15.0830078 9.953125,15.0830078 C10.5068359,15.0830078 10.9443359,14.6523437 10.9443359,14.1123047 C10.9443359,13.5722656 10.5068359,13.1484375 9.953125,13.1484375 Z M10.1992188,5 C8.16894531,5 7.0546875,6.17578125 7,7.78222656 L7,7.78222656 L7,7.8 C7,8.2418278 7.3581722,8.6 7.8,8.6 L7.8,8.6 L7.9003503,8.59376686 C8.29481185,8.54440158 8.6,8.20784105 8.6,7.8 L8.6,7.8 L8.599,7.782 C8.66113281,6.93457031 9.22851563,6.39453125 10.1103516,6.39453125 C10.9716797,6.39453125 11.5458984,6.92089844 11.5458984,7.64550781 C11.5458984,8.32226562 11.2587891,8.69140625 10.4111328,9.20410156 C9.46777344,9.7578125 9.09918213,10.2748718 9.13964844,11.3045349 L9.13964844,11.3045349 L9.15469063,11.4068793 C9.2277183,11.7397607 9.52396436,11.9847412 9.87387442,11.9847412 L9.87387442,11.9847412 L10.0039693,11.9847412 C10.3866298,11.9847412 10.7029978,11.6865281 10.7255859,11.3045349 C10.7255859,10.6950378 11.0980835,10.4273682 11.8740234,9.91503906 C12.8037109,9.36132812 13.3232422,8.62988281 13.3232422,7.58398437 C13.3232422,6.08007812 12.0722656,5 10.1992188,5 Z" id="形状结合备份" fill="#FFC300"></path>
    </g>
</svg>