<?xml version="1.0" encoding="UTF-8"?>
<svg width="24px" height="24px" viewBox="0 0 24 24" version="1.1" xmlns="http://www.w3.org/2000/svg" xmlns:xlink="http://www.w3.org/1999/xlink">
    <!-- Generator: Sketch 61.2 (89653) - https://sketch.com -->
    <title>icons_outlined_pay_safe</title>
    <desc>Created with Sketch.</desc>
    <g id="icons_outlined_pay_safe" stroke="none" stroke-width="1" fill="none" fill-rule="evenodd" fill-opacity="0.9">
        <path d="M12,2.5 L20,5.5 L20,11.2537887 C20,16.1001436 16.7016548,20.3245863 12,21.5 C7.2983452,20.3245863 4,16.1001436 4,11.2537887 L4,5.5 L12,2.5 Z M12,3.73693169 L5.2,6.43693169 L5.2,11.2537887 C5.2,15.4487902 7.9881094,19.118086 12,20.2581213 C16.0118906,19.118086 18.8,15.4487902 18.8,11.2537887 L18.8010063,10.3263827 L10.2691668,14.9449899 C10.1953911,14.9796101 10.1123369,15 10.024304,15 C9.81995004,15 9.64230011,14.89444 9.54906218,14.7385426 L8.02602515,11.6023287 C8.00995745,11.5689828 8,11.5311766 8,11.4944324 C8,11.3534026 8.12197875,11.2391345 8.2722457,11.2391345 C8.33380083,11.2391345 8.38969833,11.2580376 8.43541207,11.2898967 L10.1904124,12.4625255 C10.3182751,12.5411114 10.4719366,12.5874134 10.6366871,12.5874134 C10.702014,12.5874134 10.7655305,12.5798616 10.8264319,12.5659537 L10.915722,12.5404742 C10.915722,12.5404742 16.605129,10.1698599 18.8018071,9.25636595 L18.8,6.43693169 L12,3.73693169 Z" id="形状" fill="#000000"></path>
    </g>
</svg>