<?xml version="1.0" encoding="UTF-8"?>
<svg width="24px" height="24px" viewBox="0 0 24 24" version="1.1" xmlns="http://www.w3.org/2000/svg" xmlns:xlink="http://www.w3.org/1999/xlink">
    <title>Icons_Outlined_Activity@2x</title>
    <g id="Icons_Outlined_Activity" stroke="none" stroke-width="1" fill="none" fill-rule="evenodd">
        <path d="M9.84761615,21.6930636 L2.65354936,6.83965787 C2.53932339,6.59335256 2.63743837,6.30076762 2.87710766,6.17299316 C2.90035375,6.14200911 2.92983211,6.11623118 2.96364636,6.09731771 C3.67770797,5.58806435 4.46738329,5.19407404 5.30379681,4.92975355 C6.15277532,4.66010054 7.03485513,4.50852814 7.925198,4.47930443 L8.28577589,4.47930443 C9.29304089,4.4812894 10.2944003,4.63310256 11.2569376,4.92975355 C12.380329,5.32562072 13.5543477,5.55979677 14.7437258,5.62524701 C15.9336328,5.62524701 16.4564707,5.17119429 17.1163282,4.5946194 L17.2749825,4.45768287 C17.4402596,4.30219727 17.657421,4.21358746 17.8843591,4.20903494 C18.0110156,4.20925957 18.1353791,4.24281737 18.244937,4.30633196 C18.6379669,4.54056551 18.6271495,5.02705057 18.587486,5.35497754 C18.5236524,5.76955006 18.413592,6.17568033 18.2593601,6.5657848 C17.8204384,7.74118368 17.1399504,8.81162741 16.2617586,9.70811794 C15.7698349,10.2059055 15.1904809,10.6090086 14.5526195,10.8973036 L14.430023,10.947754 C13.8885752,11.1687355 13.3093466,11.2825528 12.7244896,11.2828881 L12.3458828,11.2828881 C11.9636703,11.2504558 11.5994866,11.2360414 11.2641492,11.2360414 C8.37952614,11.2360414 7.71606284,12.3891912 7.13192666,13.3981972 L7.10308043,13.4522511 L10.8896862,21.2678396 C10.9444827,21.3930438 10.9444827,21.5354271 10.8896862,21.6606313 C10.8332441,21.8020787 10.7211225,21.9141323 10.5795893,21.9705403 C10.5125042,21.9946127 10.441732,22.0066654 10.3704541,22.0066654 C10.1508692,22.0093128 9.94853416,21.8879853 9.84761615,21.6930636 Z M6.52255005,12.2378403 C6.87157171,11.7043028 7.33615346,11.256013 7.88192866,10.9261324 C8.74731557,10.4108186 9.86150123,10.1621707 11.2929954,10.1621707 C11.6535733,10.1621707 12.0466032,10.1621707 12.4504504,10.212621 L12.7280954,10.212621 C13.744925,10.212621 14.7040622,9.74775748 15.5730549,8.82884124 C16.2088236,8.14028701 16.7178521,7.34487845 17.0766646,6.47929857 C17.1668091,6.26668658 17.2425305,6.06488537 17.3002229,5.87029133 C16.799905,6.25910933 16.2096138,6.51565598 15.5838722,6.6162351 C15.3120871,6.66043845 15.0371133,6.68213374 14.7617546,6.68109977 C13.4444214,6.6194679 12.1427244,6.36948001 10.8963597,5.93875962 C10.0454303,5.67255079 9.15938601,5.5352911 8.26774699,5.5315536 C7.40248964,5.53346372 6.54267437,5.6683741 5.71846137,5.93155243 C5.0715412,6.13349888 4.45344169,6.41813679 3.87951416,6.77839679 L6.52255005,12.2378403 Z" id="形状" fill="#455577" transform="translate(10.605985, 13.107871) rotate(26.000000) translate(-10.605985, -13.107871) "></path>
    </g>
</svg>