<?xml version="1.0" encoding="UTF-8"?>
<svg width="24px" height="24px" viewBox="0 0 24 24" version="1.1" xmlns="http://www.w3.org/2000/svg" xmlns:xlink="http://www.w3.org/1999/xlink">
    <title>icons_outlined_people_nearby</title>
    <g id="icons_outlined_people_nearby" stroke="none" stroke-width="1" fill="none" fill-rule="evenodd">
        <g transform="translate(2.000000, 4.000000)" fill="#000000" fill-rule="nonzero" id="形状">
            <path d="M6.1307,8.1956 C9.5107,8.1956 12.2607,11.1936 12.2607,14.8786 L12.2607,15.9756 L11.0607,15.9756 L11.0607,14.8786 C11.0607,11.8556 8.8497,9.3956 6.1307,9.3956 C3.4117,9.3956 1.1997,11.8556 1.1997,14.8786 L1.1997,15.9756 L-0.0003,15.9756 L-0.0003,14.8786 C-0.0003,11.1936 2.7497,8.1956 6.1307,8.1956 Z M15.0165,9.6314 C17.6755256,9.6314 19.8503698,11.9602179 19.9601521,14.8676923 L19.9645,15.0984 L19.9645,15.9754 L18.7655,15.9754 L18.7655,15.0984 C18.7655,12.7454 17.0835,10.8314 15.0165,10.8314 C14.3925,10.8314 13.7755,11.0104 13.2295,11.3484 C13.0555,10.9854 12.8605,10.6364 12.6395,10.3064 C13.3655,9.8664 14.1845,9.6314 15.0165,9.6314 Z M15.1034,2.7927 C16.6464,2.7927 17.9024,4.0477 17.9024,5.5917 C17.9024,7.1347 16.6464,8.3907 15.1034,8.3907 C13.5594,8.3907 12.3024,7.1347 12.3024,5.5917 C12.3024,4.0477 13.5594,2.7927 15.1034,2.7927 Z M15.1034,3.9927 C14.2204,3.9927 13.5024,4.7097 13.5024,5.5917 C13.5024,6.4727 14.2204,7.1907 15.1034,7.1907 C15.9844,7.1907 16.7024,6.4727 16.7024,5.5917 C16.7024,4.7097 15.9844,3.9927 15.1034,3.9927 Z M6.0253,0.0002 C7.8713,0.0002 9.3743,1.5022 9.3743,3.3482 C9.3743,5.1952 7.8713,6.6972 6.0253,6.6972 C4.1773,6.6972 2.6743,5.1952 2.6743,3.3482 C2.6743,1.5022 4.1773,0.0002 6.0253,0.0002 Z M6.0253,1.2002 C4.8393,1.2002 3.8753,2.1642 3.8753,3.3482 C3.8753,4.5332 4.8393,5.4972 6.0253,5.4972 C7.2103,5.4972 8.1733,4.5332 8.1733,3.3482 C8.1733,2.1642 7.2103,1.2002 6.0253,1.2002 Z"></path>
        </g>
    </g>
</svg>