<?xml version="1.0" encoding="UTF-8"?>
<svg width="24px" height="24px" viewBox="0 0 24 24" version="1.1" xmlns="http://www.w3.org/2000/svg" xmlns:xlink="http://www.w3.org/1999/xlink">
    <title>icons_filled_fire_group</title>
    <g id="icons_filled_fire_group" stroke="none" stroke-width="1" fill="none" fill-rule="evenodd">
        <path d="M11.4002686,2.51733398 C13.1690386,2.51733398 14.5617676,4.00476074 15.0305176,5.49035645 C15.5522859,7.1439816 14.4144287,8.98974609 15.2469482,9.6875 C16.0794678,10.3852539 17.1376953,9.15197754 17.6754984,8.22256256 C18.3229074,9.38859158 18.7864364,10.6889759 19.0061953,12.0583244 C18.5573955,11.419344 17.8300497,11 17,11 C15.6226619,11 14.5263158,12.1562353 14.5263158,13.5553924 L14.5263158,14.2202797 L14.5350174,14.4259935 C14.5752087,14.916504 14.751698,15.4720791 15.0032819,15.9138791 L15.026,15.95 L13.452537,16.7620804 C12.8880781,17.0528329 12.5,17.7090158 12.5,18.3449024 L12.5,18.6111111 C12.5,19.3781733 13.1218267,20 13.8888889,20 L15.6489564,20.0000333 C14.5807575,20.6352176 13.3329785,21 12,21 C8.0513264,21 4.85029398,17.7989676 4.85029398,13.850294 C4.85029398,10.7048423 6.78454673,8.52393219 7.73230439,7.68889572 C7.53691572,8.5929535 7.53450481,10.4161147 7.89442156,10.6773467 C7.89891806,10.6806103 7.91090588,10.6672186 7.91234145,10.6576506 C8.57909696,6.21379154 12.5695505,5.14566753 11.4002686,2.51733398 Z" id="形状结合" fill="#000000"></path>
        <path d="M17,12 C17.8138933,12 18.4736842,12.6972701 18.4736842,13.5556362 L18.4736842,14.2206278 C18.4736842,14.6636151 18.2529751,15.2988901 17.9829795,15.6367228 L17.8497833,15.803385 C17.6325909,16.0751475 17.7004376,16.4210435 18.0041496,16.5774207 L20.089543,17.6511613 C20.3162321,17.7678804 20.5,18.076455 20.5,18.3449024 L20.5,18.6111111 C20.5,18.8258885 20.3258885,19 20.1111111,19 L13.8888889,19 C13.6741115,19 13.5,18.8258885 13.5,18.6111111 L13.5,18.3449024 C13.5,18.0784789 13.6835293,17.7679642 13.910457,17.6510738 L15.9958503,16.5768889 C16.2982968,16.4210989 16.3686218,16.0760465 16.1502167,15.802804 L16.0170205,15.6361648 C15.7460118,15.2971109 15.5263158,14.6636931 15.5263158,14.2202797 L15.5263158,13.5553924 C15.5263158,12.6963729 16.1877628,12 17,12 Z" id="路径" fill="#000000" fill-rule="nonzero"></path>
    </g>
</svg>