<?xml version="1.0" encoding="UTF-8"?>
<svg width="24px" height="24px" viewBox="0 0 24 24" version="1.1" xmlns="http://www.w3.org/2000/svg" xmlns:xlink="http://www.w3.org/1999/xlink">
    <!-- Generator: Sketch 63.1 (92452) - https://sketch.com -->
    <title>3.Icons_Filled_photo-wall</title>
    <desc>Created with Sketch.</desc>
    <g id="3.Icons_Filled_photo-wall" stroke="none" stroke-width="1" fill="none" fill-rule="evenodd">
        <g id="编组">
            <rect id="矩形" x="0" y="0" width="24" height="24"></rect>
        </g>
        <path d="M7,13 C7.27614237,13 7.5,13.2238576 7.5,13.5 L7.5,18 C7.5,18.2761424 7.27614237,18.5 7,18.5 L2.5,18.5 C2.22385763,18.5 2,18.2761424 2,18 L2,13.5 C2,13.2238576 2.22385763,13 2.5,13 L7,13 Z M14.25,13 C14.5261424,13 14.75,13.2238576 14.75,13.5 L14.75,18 C14.75,18.2761424 14.5261424,18.5 14.25,18.5 L9.75,18.5 C9.47385763,18.5 9.25,18.2761424 9.25,18 L9.25,13.5 C9.25,13.2238576 9.47385763,13 9.75,13 L14.25,13 Z M21.5,13 C21.7761424,13 22,13.2238576 22,13.5 L22,18 C22,18.2761424 21.7761424,18.5 21.5,18.5 L17,18.5 C16.7238576,18.5 16.5,18.2761424 16.5,18 L16.5,13.5 C16.5,13.2238576 16.7238576,13 17,13 L21.5,13 Z M7,5.5 C7.27614237,5.5 7.5,5.72385763 7.5,6 L7.5,10.5 C7.5,10.7761424 7.27614237,11 7,11 L2.5,11 C2.22385763,11 2,10.7761424 2,10.5 L2,6 C2,5.72385763 2.22385763,5.5 2.5,5.5 L7,5.5 Z M14.25,5.5 C14.5261424,5.5 14.75,5.72385763 14.75,6 L14.75,10.5 C14.75,10.7761424 14.5261424,11 14.25,11 L9.75,11 C9.47385763,11 9.25,10.7761424 9.25,10.5 L9.25,6 C9.25,5.72385763 9.47385763,5.5 9.75,5.5 L14.25,5.5 Z M21.5,5.5 C21.7761424,5.5 22,5.72385763 22,6 L22,10.5 C22,10.7761424 21.7761424,11 21.5,11 L17,11 C16.7238576,11 16.5,10.7761424 16.5,10.5 L16.5,6 C16.5,5.72385763 16.7238576,5.5 17,5.5 L21.5,5.5 Z" id="形状" fill="#FFFFFF"></path>
    </g>
</svg>