<?xml version="1.0" encoding="UTF-8"?>
<svg width="24px" height="24px" viewBox="0 0 24 24" version="1.1" xmlns="http://www.w3.org/2000/svg" xmlns:xlink="http://www.w3.org/1999/xlink">
    <title>icons_outlined_fire</title>
    <g id="icons_outlined_fire" stroke="none" stroke-width="1" fill="none" fill-rule="evenodd">
        <path d="M11.4002686,2.51733398 C13.1690386,2.51733398 14.5617676,4.00476074 15.0305176,5.49035645 C15.2346878,6.13742716 15.1847377,6.81391807 15.098163,7.43953254 L14.9801209,8.2364868 C14.8954902,8.86374224 14.8849832,9.38412874 15.2469482,9.6875 C15.8873479,10.2242338 16.6613026,9.61834608 17.2291981,8.88708393 L17.3930453,8.6649613 L17.5424913,8.44141968 C17.5896801,8.36734747 17.634129,8.29405602 17.6754984,8.22256256 C18.6001438,9.88791371 19.149706,11.8273262 19.149706,13.850294 C19.149706,17.0183442 17.0892103,19.7051399 14.2352557,20.6436441 C13.8252256,20.7784798 13.2562994,20.5409987 13.2973673,20.0786155 C13.3084488,19.9538482 13.3140869,19.8042798 13.3140869,19.6202393 C13.3140869,18.7541504 12.8771337,17.8807373 12.0032272,17 C11.1135025,17.8807373 10.6686401,18.7541504 10.6686401,19.6202393 C10.6686401,19.7764871 10.6817183,19.9307429 10.7070385,20.0796624 C10.7617687,20.4015555 10.2375732,20.7939201 9.85811271,20.6748438 C6.95644557,19.7642885 4.85029398,17.0532503 4.85029398,13.850294 C4.85029398,11.2471615 6.17506162,9.30464261 7.16907932,8.23888111 L7.40973507,7.9908316 L7.63086124,7.78006414 C7.66576879,7.74808477 7.69962309,7.71769008 7.73230439,7.68889572 C7.53691572,8.5929535 7.53450481,10.4161147 7.89442156,10.6773467 C7.89891806,10.6806103 7.91090588,10.6672186 7.91234145,10.6576506 C8.14941008,9.07761185 8.80665978,7.92433266 9.50276664,6.97594607 L9.76488337,6.62947211 L10.0261743,6.29960683 L10.5284043,5.67930228 L10.7604061,5.38366301 C11.4678279,4.45867459 11.8939654,3.62707481 11.4002686,2.51733398 Z M17.384,10.506 L17.3529125,10.5344979 C16.4776458,11.2683068 15.4815137,11.4498306 14.4761302,10.6071954 C13.7992877,10.039918 13.6436764,9.57572126 13.7368057,8.55881347 L13.7766877,8.19847385 L13.8327521,7.7917952 L13.8951791,7.37430854 L13.9392409,7.03834805 L13.9652827,6.75903098 L13.9740688,6.51759903 C13.9742065,6.44135164 13.9715955,6.36829204 13.9663634,6.29529387 C13.9545931,6.13107699 13.9281068,5.98447004 13.8861331,5.85144406 C13.6783705,5.19298797 13.2657167,4.61326528 12.7612011,4.22485222 L12.723,4.196 L12.6979507,4.30189641 C12.6243676,4.56994493 12.5169219,4.83646844 12.3775412,5.10273274 L12.267048,5.30240213 C12.1021262,5.58524121 11.911868,5.85766325 11.6538905,6.19015343 L10.6670749,7.42440616 C9.84691437,8.48926373 9.3676862,9.40951076 9.14848739,10.5466836 L9.09905815,10.8357053 C8.98701793,11.5824422 8.23888306,12.4101277 7.18954356,11.6485043 C6.99649816,11.5083896 6.84218898,11.3014163 6.72224859,11.0477687 L6.701,10.998 L6.59852654,11.22479 C6.28812034,11.9449444 6.09237693,12.7331342 6.05633231,13.569681 L6.05029398,13.850294 C6.05029398,16.1240502 7.33374248,18.1241069 9.23931668,19.1241725 L9.488,19.247 L9.49618559,19.1641093 C9.61519845,18.1823858 10.1175829,17.2435222 10.9588767,16.3520552 L11.1590174,16.1471755 L12.0108334,15.3039639 L12.8550522,16.1547816 C13.7996207,17.1067332 14.3613928,18.1126283 14.4870769,19.1659373 L14.495,19.253 L14.5433119,19.2315987 C16.5006495,18.30543 17.8568871,16.345878 17.9451282,14.0852012 L17.949706,13.850294 C17.949706,12.8613965 17.8021606,11.8770619 17.5205259,10.9303287 L17.384,10.506 Z" id="形状结合" fill="#000000" fill-rule="nonzero"></path>
    </g>
</svg>