<?xml version="1.0" encoding="UTF-8"?>
<svg width="24px" height="24px" viewBox="0 0 24 24" version="1.1" xmlns="http://www.w3.org/2000/svg" xmlns:xlink="http://www.w3.org/1999/xlink">
    <title>icons_filled_barrage_off</title>
    <g id="icons_filled_barrage_off" stroke="none" stroke-width="1" fill="none" fill-rule="evenodd">
        <path d="M2.9995238,5.296 L7.1205238,9.418 L6.912,9.418 L6.576,13.186 L9.06,13.186 C9.06,14.458 9.012,15.286 8.928,15.67 C8.844,16.054 8.508,16.246 7.908,16.246 C7.572,16.246 7.236,16.222 6.924,16.186 L7.248,17.35 C7.584,17.374 7.896,17.398 8.208,17.398 C9.3,17.326 9.912,16.942 10.056,16.246 C10.1672948,15.6004901 10.2373012,14.3666199 10.2468725,12.5443894 L10.9675238,13.265 L10.968,13.27 L10.9725238,13.27 L11.8965238,14.194 L10.536,14.194 L10.536,15.37 L13.0725238,15.37 L13.3915238,15.689 L13.392,17.518 L14.616,17.518 L14.6155238,16.913 L18.7015238,21 L4,21 C3.44771525,21 3,20.5522847 3,20 L2.9995238,5.296 Z M20,3 C20.5522847,3 21,3.44771525 21,4 L21,20 C21,20.3164778 20.8529848,20.5986183 20.6235227,20.7818534 L15.2115238,15.37 L17.556,15.37 L17.556,14.194 L14.616,14.194 L14.616,13.27 L17.088,13.27 L17.088,8.218 L15.696,8.218 C15.996,7.762 16.272,7.246 16.512,6.67 L15.324,6.25 C15.06,6.946 14.772,7.606 14.436,8.218 L12.78,8.218 L13.536,7.882 C13.284,7.33 12.984,6.826 12.648,6.346 L11.508,6.73 C11.832,7.162 12.132,7.654 12.408,8.218 L10.968,8.218 L10.9675238,11.126 L10.1755238,10.334 L10.176,6.79 L6.684,6.79 L6.6835238,6.842 L3.21814665,3.37647732 C3.40138168,3.1470152 3.68352222,3 4,3 L20,3 Z M15.984,11.29 L15.984,12.226 L14.616,12.226 L14.616,11.29 L15.984,11.29 Z M13.392,11.29 L13.392,12.226 L12.084,12.226 L12.084,11.29 L13.392,11.29 Z M9.8085238,12.106 L7.848,12.106 L8.016,10.486 L8.1885238,10.486 L9.8085238,12.106 Z M13.392,9.274 L13.392,10.258 L12.084,10.258 L12.084,9.274 L13.392,9.274 Z M15.984,9.274 L15.984,10.258 L14.616,10.258 L14.616,9.274 L15.984,9.274 Z M7.6995238,7.858 L8.94,7.858 L8.9395238,9.098 L7.6995238,7.858 Z" id="形状结合" fill="#000000" fill-rule="nonzero"></path>
        <polygon id="矩形" fill="#000000" fill-rule="nonzero" transform="translate(12.504042, 11.594051) rotate(-360.000000) translate(-12.504042, -11.594051) " points="3.13787842 1.15931702 22.9368683 20.9583069 21.8702056 22.0287843 2.07121574 2.22979439"></polygon>
    </g>
</svg>