<?xml version="1.0" encoding="UTF-8"?>
<svg width="36px" height="20px" viewBox="0 0 36 20" version="1.1" xmlns="http://www.w3.org/2000/svg" xmlns:xlink="http://www.w3.org/1999/xlink">
    <title>icon_game_creativity</title>
    <g id="icon_game_creativity" stroke="none" stroke-width="1" fill="none" fill-rule="evenodd">
        <g>
            <path d="M2.5638852,-1.03584031e-16 L33.4361148,1.03584031e-16 C34.3276335,-6.01853049e-17 34.6509198,0.0928256111 34.9768457,0.267132704 C35.3027716,0.441439796 35.5585602,0.697228371 35.7328673,1.0231543 C35.9071744,1.34908022 36,1.67236646 36,2.5638852 L36,17.4361148 C36,18.3276335 35.9071744,18.6509198 35.7328673,18.9768457 C35.5585602,19.3027716 35.3027716,19.5585602 34.9768457,19.7328673 C34.6509198,19.9071744 34.3276335,20 33.4361148,20 L2.5638852,20 C1.67236646,20 1.34908022,19.9071744 1.0231543,19.7328673 C0.697228371,19.5585602 0.441439796,19.3027716 0.267132704,18.9768457 C0.0928256111,18.6509198 4.01235366e-17,18.3276335 -6.90560205e-17,17.4361148 L6.90560205e-17,2.5638852 C-4.01235366e-17,1.67236646 0.0928256111,1.34908022 0.267132704,1.0231543 C0.441439796,0.697228371 0.697228371,0.441439796 1.0231543,0.267132704 C1.34908022,0.0928256111 1.67236646,6.01853049e-17 2.5638852,-1.03584031e-16 Z" id="矩形" fill="#F36D00"></path>
            <path d="M15.998,15.534 C16.778,15.534 17.174,15.114 17.174,14.274 L17.174,4.602 L16.034,4.602 L16.034,13.986 C16.034,14.334 15.89,14.514 15.602,14.514 C15.074,14.514 14.51,14.49 13.922,14.442 L14.186,15.534 L15.998,15.534 Z M11.702,15.45 C12.278,15.45 12.674,15.354 12.866,15.162 C13.082,14.946 13.226,14.31 13.322,13.266 L12.254,12.906 C12.206,13.518 12.134,13.926 12.038,14.118 C11.954,14.298 11.726,14.394 11.366,14.394 L9.278,14.394 C8.954,14.394 8.798,14.238 8.798,13.95 L8.798,9.378 L11.03,9.378 L11.03,11.298 C11.03,11.562 10.886,11.706 10.61,11.706 C10.274,11.706 9.89,11.682 9.446,11.634 L9.722,12.702 C10.142,12.726 10.586,12.738 11.054,12.738 C11.774,12.69 12.134,12.342 12.146,11.682 L12.146,8.37 L7.946,8.37 C8.738,7.518 9.434,6.63 10.058,5.706 C10.754,6.438 11.606,7.494 12.638,8.862 L13.382,8.082 C12.446,6.882 11.438,5.73 10.382,4.626 L9.542,4.626 C8.594,6.042 7.55,7.278 6.41,8.322 L7.082,9.246 L7.658,8.67 L7.658,14.37 C7.658,15.09 8.03,15.45 8.786,15.45 L11.702,15.45 Z M15.038,13.026 L15.038,5.622 L13.922,5.622 L13.922,13.026 L15.038,13.026 Z M29.294,7.89 L29.294,6.906 L26.474,6.906 L26.822,6.186 L28.73,6.186 L28.73,5.226 L24.578,5.226 C24.482,4.95 24.374,4.698 24.278,4.47 L23.042,4.662 C23.138,4.83 23.234,5.022 23.33,5.226 L19.37,5.226 L19.37,6.186 L21.242,6.186 L21.53,6.906 L18.806,6.906 L18.806,7.89 L29.294,7.89 Z M25.286,6.906 L22.718,6.906 L22.43,6.186 L25.634,6.186 L25.286,6.906 Z M28.046,12.138 L28.046,8.394 L20.054,8.394 L20.054,12.138 L28.046,12.138 Z M26.93,9.858 L21.17,9.858 L21.17,9.27 L26.93,9.27 L26.93,9.858 Z M26.93,11.274 L21.17,11.274 L21.17,10.674 L26.93,10.674 L26.93,11.274 Z M24.482,14.118 L25.43,13.458 C25.178,13.086 24.818,12.666 24.338,12.186 L23.366,12.798 C23.834,13.278 24.206,13.722 24.482,14.118 Z M28.646,15.138 L29.594,14.478 C29.246,13.902 28.742,13.218 28.082,12.438 L27.158,13.014 C27.782,13.782 28.274,14.49 28.646,15.138 Z M19.55,15.294 C20.042,14.598 20.426,13.782 20.702,12.834 L19.598,12.606 C19.382,13.35 19.046,14.034 18.566,14.682 L19.55,15.294 Z M25.73,15.45 C26.198,15.45 26.546,15.366 26.774,15.222 C27.038,15.054 27.206,14.538 27.302,13.698 L26.222,13.35 C26.174,13.878 26.09,14.19 25.97,14.298 C25.886,14.382 25.73,14.43 25.514,14.43 L23.126,14.43 C22.754,14.43 22.574,14.274 22.574,13.974 L22.574,12.678 L21.422,12.678 L21.422,14.214 C21.422,15.03 21.878,15.45 22.802,15.45 L25.73,15.45 Z" id="创意" fill="#FFFFFF" fill-rule="nonzero"></path>
        </g>
    </g>
</svg>