<?xml version="1.0" encoding="UTF-8"?>
<svg width="24px" height="24px" viewBox="0 0 24 24" version="1.1" xmlns="http://www.w3.org/2000/svg" xmlns:xlink="http://www.w3.org/1999/xlink">
    <title>icon_全屏-取消收藏</title>
    <g id="icon_全屏-取消收藏" stroke="none" stroke-width="1" fill="none" fill-rule="evenodd">
        <g id="编组" fill="#000000">
            <path d="M5.12132034,3 L9.34133895,7.22 L11.1032639,3.65194303 C11.3476862,3.15668937 11.9473121,2.95335038 12.4425657,3.19777267 C12.6397783,3.29510291 12.7994058,3.45473043 12.8967361,3.65194303 L15.2328189,8.38536382 L20.4564589,9.14440313 C21.0030037,9.22382075 21.3816852,9.7312636 21.3022676,10.2778085 C21.270643,10.4954455 21.1681559,10.6965879 21.0106722,10.8500965 L17.2308108,14.5345508 L17.3493389,15.228 L22.0918831,19.9705627 L21.0312229,21.0312229 L4.06066017,4.06066017 L5.12132034,3 Z M6.58133895,8.70328571 L18.0904008,20.2101127 C17.9803449,20.5541125 17.6871387,20.8264613 17.3065518,20.891737 C17.0897942,20.9289139 16.8668261,20.8935992 16.6721656,20.7912601 L12,18.3349573 L7.32783438,20.7912601 C6.83898979,21.0482609 6.23436264,20.8603144 5.97736183,20.3714698 C5.87502276,20.1768093 5.83970808,19.9538413 5.87688493,19.7370836 L6.76918916,14.5345508 L2.98932777,10.8500965 C2.59384419,10.4645953 2.58575189,9.83148203 2.9712531,9.43599846 C3.1247617,9.27851482 3.32590411,9.17602764 3.54354115,9.14440313 L6.58133895,8.70328571 Z" id="形状"></path>
        </g>
    </g>
</svg>