<?xml version="1.0" encoding="UTF-8"?>
<svg width="24px" height="24px" viewBox="0 0 24 24" version="1.1" xmlns="http://www.w3.org/2000/svg" xmlns:xlink="http://www.w3.org/1999/xlink">
    <!-- Generator: Sketch 61 (89581) - https://sketch.com -->
    <title>icons_filled_facebook</title>
    <desc>Created with Sketch.</desc>
    <g id="icons_filled_facebook" stroke="none" stroke-width="1" fill="none" fill-rule="evenodd">
        <path d="M3.99175412,3 C3.44527736,3 3,3.44511053 3,3.99138254 L3,20.0018734 C3,20.5481454 3.44527736,20.9932559 3.99175412,20.9932559 L12.613943,20.9932559 L12.613943,14.0266017 L10.2661169,14.0266017 L10.2661169,11.3087299 L12.613943,11.3087299 L12.613943,9.30573248 C12.613943,6.97901836 14.0374813,5.71787186 16.1086957,5.71787186 C17.1004498,5.71787186 17.9572714,5.79205695 18.2068966,5.82577744 L18.2068966,8.25365305 L16.7698651,8.25365305 C15.6431784,8.25365305 15.4205397,8.78643687 15.4205397,9.57549644 L15.4205397,11.3087299 L18.1124438,11.3087299 L17.7616192,14.0266017 L15.4205397,14.0266017 L15.4205397,21 L20.0082459,21 C20.5547226,21 21,20.5548895 21,20.0086175 L21,3.99138254 C21,3.43836643 20.5614693,3 20.0082459,3 L3.99175412,3 Z" id="White_2_" fill="#000000"></path>
    </g>
</svg>