<?xml version="1.0" encoding="UTF-8"?>
<svg width="104px" height="104px" viewBox="0 0 104 104" version="1.1" xmlns="http://www.w3.org/2000/svg" xmlns:xlink="http://www.w3.org/1999/xlink">
    <title>banner/connect_mac</title>
    <g id="banner/connect_mac" stroke="none" stroke-width="1" fill="none" fill-rule="evenodd">
        <rect id="矩形" stroke="#000000" stroke-width="0.8" x="4.4" y="16.4" width="95.2" height="62.2" rx="4"></rect>
        <line x1="4" y1="65.5" x2="100" y2="65.5" id="路径-2" stroke="#000000" stroke-width="0.8"></line>
        <path d="M44.5,79 L44.5,82.6225328 C44.5,84.1635285 43.5403684,85.5415171 42.0950228,86.0759738 L37.4877234,87.7796507 C37.1946109,87.8880372 37,88.1674899 37,88.48 C37,88.7671881 37.2328119,89 37.52,89 L66.48,89 C66.7671881,89 67,88.7671881 67,88.48 C67,88.1674899 66.8053891,87.8880372 66.5122766,87.7796507 L61.9049772,86.0759738 C60.4596316,85.5415171 59.5,84.1635285 59.5,82.6225328 L59.5,79 L59.5,79" id="路径-4" stroke="#000000" stroke-width="0.8"></path>
    </g>
</svg>