<?xml version="1.0" encoding="UTF-8"?>
<svg width="64px" height="64px" viewBox="0 0 64 64" version="1.1" xmlns="http://www.w3.org/2000/svg" xmlns:xlink="http://www.w3.org/1999/xlink">
    <title>画板</title>
    <g id="画板" stroke="none" stroke-width="1" fill="none" fill-rule="evenodd">
        <g id="Group-2" fill="#07C160" fill-rule="nonzero">
            <g id="Group-3" transform="translate(2.666667, 9.333333)">
                <path d="M29.3333333,0.902564103 C40.2021727,0.902564103 48.4103566,7.71164838 53.7878088,15.1478389 L54.2482744,15.7958942 C54.3238281,15.9041166 54.3987863,16.0124332 54.4731483,16.120825 L54.9121629,16.7719285 C54.9841384,16.8805461 55.0555167,16.9892013 55.1262974,17.0978753 L55.5438051,17.7499946 C55.6121929,17.8586686 55.6799821,17.9673238 55.7471721,18.0759413 L56.143117,18.727044 C56.2079079,18.8354357 56.2720987,18.943752 56.3356886,19.0519743 L56.7100147,19.7000281 L57.0698973,20.3449201 C57.1874482,20.5592568 57.3025876,20.772916 57.4153115,20.9857471 L57.7462324,21.6216059 L58.0626353,22.2515931 C58.1141578,22.3560515 58.1650745,22.4602276 58.2153846,22.5641026 L57.9062502,23.1908152 C57.8535162,23.2958194 57.8001768,23.401087 57.7462324,23.5065992 L57.4153115,24.142458 C57.3589496,24.2488736 57.3019837,24.3554961 57.2444145,24.4623069 L56.891763,25.1052794 C56.8317824,25.2127677 56.7711995,25.3204065 56.7100147,25.4281771 L56.3356886,26.0762309 C56.2720987,26.1844531 56.2079079,26.2927695 56.143117,26.4011611 L55.7471721,27.0522638 L55.3368458,27.7042701 C55.1976762,27.9216557 55.0561139,28.1390414 54.9121629,28.3562766 L54.4731483,29.0073801 C54.3987863,29.1157719 54.3238281,29.2240885 54.2482744,29.332311 L53.7878088,29.9803663 C48.4103566,37.4165567 40.2021727,44.225641 29.3333333,44.225641 C17.9919357,44.225641 9.54758457,36.8115908 4.19351837,29.0073801 L3.75450377,28.3562766 L3.32982089,27.7042701 C3.2602361,27.5955773 3.1912495,27.4868845 3.12286161,27.3782105 L2.71972292,26.7265431 L2.33097807,26.0762309 L1.95665193,25.4281771 C1.83428243,25.2126359 1.71432019,24.9976217 1.59676935,24.783285 L1.25135516,24.142458 L0.920434232,23.5065992 L0.604031408,22.876612 C0.552508827,22.7721537 0.501592202,22.6679776 0.451282051,22.5641026 L0.760416504,21.9373899 C0.813150481,21.8323857 0.866489896,21.7271181 0.920434232,21.6216059 L1.25135516,20.9857471 L1.59676935,20.3449201 L1.77490364,20.0229257 L1.77490364,20.0229257 L2.14201111,19.3763399 C2.20439898,19.2683247 2.26738813,19.1601965 2.33097807,19.0519743 L2.71972292,18.401662 L3.12286161,17.7499946 C3.1912495,17.6413207 3.2602361,17.5326278 3.32982089,17.423935 L3.75450377,16.7719285 L4.19351837,16.120825 C9.54758457,8.31661428 17.9919357,0.902564103 29.3333333,0.902564103 Z M29.3333333,4.9025641 C19.3913971,4.9025641 10.7456646,11.9073036 5.14441692,22.1814684 L4.938,22.563 L5.14441692,22.9467367 C10.6699721,33.0820615 19.1582846,40.0357267 28.9309963,40.2218127 L29.3333333,40.225641 C39.2752696,40.225641 47.9210021,33.2209015 53.5222497,22.9467367 L53.728,22.563 L53.5222497,22.1814684 C47.9966946,12.0461437 39.508382,5.09247843 29.7356704,4.9063924 L29.3333333,4.9025641 Z M29.3333333,10.9367521 C35.7549417,10.9367521 40.9606838,16.1424942 40.9606838,22.5641026 C40.9606838,28.9857109 35.7549417,34.191453 29.3333333,34.191453 C22.911725,34.191453 17.7059829,28.9857109 17.7059829,22.5641026 C17.7059829,16.1424942 22.911725,10.9367521 29.3333333,10.9367521 Z M29.3333333,14.9367521 C25.120864,14.9367521 21.7059829,18.3516332 21.7059829,22.5641026 C21.7059829,26.7765719 25.120864,30.191453 29.3333333,30.191453 C33.5458027,30.191453 36.9606838,26.7765719 36.9606838,22.5641026 C36.9606838,18.3516332 33.5458027,14.9367521 29.3333333,14.9367521 Z" id="形状结合"></path>
            </g>
        </g>
    </g>
</svg>