<?xml version="1.0" encoding="UTF-8"?>
<svg width="24px" height="24px" viewBox="0 0 24 24" version="1.1" xmlns="http://www.w3.org/2000/svg" xmlns:xlink="http://www.w3.org/1999/xlink">
    <!-- Generator: Sketch 63.1 (92452) - https://sketch.com -->
    <title>icon_outlined_Square</title>
    <desc>Created with Sketch.</desc>
    <g id="icon_outlined_Square" stroke="none" stroke-width="1" fill="none" fill-rule="evenodd" fill-opacity="0.9">
        <path d="M19,3 C20.1045695,3 21,3.8954305 21,5 L21,19 C21,20.1045695 20.1045695,21 19,21 L5,21 C3.8954305,21 3,20.1045695 3,19 L3,5 C3,3.8954305 3.8954305,3 5,3 L19,3 Z M19,4.2 L5,4.2 C4.59215895,4.2 4.25559842,4.50518815 4.20623314,4.8996497 L4.2,5 L4.2,19 C4.2,19.407841 4.50518815,19.7444016 4.8996497,19.7937669 L5,19.8 L19,19.8 C19.407841,19.8 19.7444016,19.4948119 19.7937669,19.1003503 L19.8,19 L19.8,5 C19.8,4.59215895 19.4948119,4.25559842 19.1003503,4.20623314 L19,4.2 Z M17.4,15.4 C17.7313708,15.4 18,15.6686292 18,16 C18,16.3313708 17.7313708,16.6 17.4,16.6 L6.6,16.6 C6.26862915,16.6 6,16.3313708 6,16 C6,15.6686292 6.26862915,15.4 6.6,15.4 L17.4,15.4 Z M17.4,11.4 C17.7313708,11.4 18,11.6686292 18,12 C18,12.3313708 17.7313708,12.6 17.4,12.6 L6.6,12.6 C6.26862915,12.6 6,12.3313708 6,12 C6,11.6686292 6.26862915,11.4 6.6,11.4 L17.4,11.4 Z M10.4,7.4 C10.7313708,7.4 11,7.66862915 11,8 C11,8.33137085 10.7313708,8.6 10.4,8.6 L6.6,8.6 C6.26862915,8.6 6,8.33137085 6,8 C6,7.66862915 6.26862915,7.4 6.6,7.4 L10.4,7.4 Z" id="形状结合" fill="#000000"></path>
    </g>
</svg>