<?xml version="1.0" encoding="UTF-8"?>
<svg width="32px" height="32px" viewBox="0 0 32 32" version="1.1" xmlns="http://www.w3.org/2000/svg" xmlns:xlink="http://www.w3.org/1999/xlink">
    <title>默认圆形头像</title>
    <defs>
        <path d="M16,0 C24.836556,-1.623249e-15 32,7.163444 32,16 C32,24.836556 24.836556,32 16,32 C7.163444,32 1.082166e-15,24.836556 0,16 C-1.082166e-15,7.163444 7.163444,1.623249e-15 16,0 Z" id="path-1"></path>
    </defs>
    <g id="页面-5" stroke="none" stroke-width="1" fill="none" fill-rule="evenodd">
        <g id="画板" transform="translate(-24.000000, -91.000000)">
            <g id="默认圆形头像" transform="translate(24.000000, 91.000000)">
                <mask id="mask-2" fill="white">
                    <use xlink:href="#path-1"></use>
                </mask>
                <use id="Mask" fill="#EDEDED" xlink:href="#path-1"></use>
                <g id="编组" mask="url(#mask-2)" fill-opacity="0.15">
                    <g transform="translate(5.600000, 5.600000)" id="icon11" fill="#000000">
                        <path d="M2.16666667,17.9333333 L2.16666667,16.7400682 L2.16666667,16.7400682 C2.16666667,16.1463244 2.59839745,15.4543202 3.13221793,15.1938217 L8.03785733,12.7999239 C8.74932684,12.4527347 8.91475785,11.6837608 8.40098586,11.0748204 L8.08765767,10.7034529 C7.45014194,9.94784713 6.93333333,8.53623028 6.93333333,7.5480518 L6.93333333,6.066303 C6.93333333,4.15191671 8.48930867,2.6 10.4,2.6 C12.3145871,2.6 13.8666667,4.15391619 13.8666667,6.06684647 L13.8666667,7.54882759 C13.8666667,8.53605649 13.3474747,9.9518123 12.7123422,10.7046966 L12.399014,11.076115 C11.8880948,11.6817573 12.047696,12.4526113 12.7621425,12.801109 L17.667782,15.1940166 C18.2010413,15.4541335 18.6333333,16.1418141 18.6333333,16.7400682 L18.6333333,17.9333333 C18.6333333,18.0806093 18.5139426,18.2 18.3666667,18.2 L2.43333333,18.2 C2.2860574,18.2 2.16666667,18.0806093 2.16666667,17.9333333 Z" id="Path-67"></path>
                    </g>
                </g>
            </g>
        </g>
    </g>
</svg>