<?xml version="1.0" encoding="UTF-8"?>
<svg width="104px" height="104px" viewBox="0 0 104 104" version="1.1" xmlns="http://www.w3.org/2000/svg" xmlns:xlink="http://www.w3.org/1999/xlink">
    <title>banner/connect_文件传输助手</title>
    <g id="banner/connect_文件传输助手" stroke="none" stroke-width="1" fill="none" fill-rule="evenodd">
        <g id="网页文件传输助手">
            <rect id="矩形" x="0" y="0" width="104" height="104"></rect>
            <path d="M38.8698199,20.2001857 L45.9764166,25.9054894 C46.137806,26.0350558 46.3385747,26.1056751 46.5455384,26.1056751 L88.5054602,26.1056751 L88.5054602,26.1056751 C89.4704507,26.1056751 90.3440857,26.4981927 90.976473,27.1328076 C91.6088604,27.7674225 92,28.6441348 92,29.6125245 L92,80.4931506 C92,81.4615404 91.6088604,82.3382527 90.976473,82.9728675 C90.3440857,83.6074825 89.4704507,84 88.5054602,84 L15.4945398,84 C14.5295493,84 13.6559143,83.6074825 13.023527,82.9728675 C12.3911397,82.3382527 12,81.4615404 12,80.4931506 L12,23.5068494 C12,22.5384596 12.3911397,21.6617473 13.023527,21.0271325 C13.6559143,20.3925175 14.5295493,20 15.4945398,20 L38.3006981,20 C38.5076618,20 38.7084305,20.0706194 38.8698199,20.2001857 Z" id="Path" stroke="#000000" stroke-width="0.8"></path>
            <line x1="12" y1="42.5" x2="92" y2="42.5" id="路径-3" stroke="#000000" stroke-width="0.8"></line>
        </g>
    </g>
</svg>