<?xml version="1.0" encoding="UTF-8"?>
<svg width="24px" height="24px" viewBox="0 0 24 24" version="1.1" xmlns="http://www.w3.org/2000/svg" xmlns:xlink="http://www.w3.org/1999/xlink">
    <!-- Generator: Sketch 63.1 (92452) - https://sketch.com -->
    <title>3.Icons/Outlined/pay_logo</title>
    <desc>Created with Sketch.</desc>
    <g id="3.Icons/Outlined/pay_logo" stroke="none" stroke-width="1" fill="none" fill-rule="evenodd" fill-opacity="0.9">
        <path d="M12,3 C17.5228475,3 22,6.80147943 22,11.4908419 C22,16.1802045 17.5228475,19.9816839 12,19.9816839 C10.8710167,19.9816839 9.78573058,19.8228286 8.77345417,19.5300068 L5.80704203,20.9509002 C5.71930907,20.9929238 5.62120793,21.0084643 5.5247639,20.995617 C5.25104461,20.9591547 5.05874167,20.707942 5.09524326,20.4345176 L5.43422396,17.8952967 C3.32992099,16.3386869 2,14.0466356 2,11.4908419 C2,6.80147943 6.4771525,3 12,3 Z M12,4.2 C7.10034067,4.2 3.2,7.51171762 3.2,11.4908419 C3.2,13.5821152 4.275666,15.545644 6.14786537,16.9305605 L6.71741578,17.3518723 L6.45608257,19.309455 L8.6675521,18.2501745 L9.10690784,18.3772672 C10.0283096,18.6438016 11.0020911,18.7816839 12,18.7816839 C16.8996593,18.7816839 20.8,15.4699663 20.8,11.4908419 C20.8,10.2744009 20.4354898,9.12033307 19.7893518,8.10418639 L9.34674091,14.3506596 L9.27360869,14.3938928 C9.18330148,14.4399517 9.08163661,14.4670785 8.97387739,14.4670785 C8.72373196,14.4670785 8.50627441,14.3266411 8.39214383,14.1192346 L8.34865232,14.0220305 L6.52782626,9.94680405 C6.50815812,9.90244054 6.49596942,9.85214306 6.49596942,9.80325842 C6.49596942,9.61563186 6.64528103,9.46360912 6.82921965,9.46360912 C6.90456799,9.46360912 6.97299094,9.48875787 7.02894817,9.53114339 L9.17720712,11.0912131 C9.33372116,11.195764 9.52181501,11.2573643 9.72348264,11.2573643 C9.84343057,11.2573643 9.9583922,11.2347587 10.0650434,11.1949163 L19.0744843,7.16143467 C17.4779117,5.3729348 14.9159238,4.2 12,4.2 Z" id="Combined-Shape" fill="#000000"></path>
    </g>
</svg>