<?xml version="1.0" encoding="UTF-8"?>
<svg width="24px" height="24px" viewBox="0 0 24 24" version="1.1" xmlns="http://www.w3.org/2000/svg" xmlns:xlink="http://www.w3.org/1999/xlink">
    <!-- Generator: Sketch 61 (89581) - https://sketch.com -->
    <title>icons_filled_twitter</title>
    <desc>Created with Sketch.</desc>
    <g id="icons_filled_twitter" stroke="none" stroke-width="1" fill="none" fill-rule="evenodd">
        <path d="M22,5.89293747 C21.2608855,6.21682411 20.4705452,6.43274854 19.6436151,6.52631579 C20.4924991,6.02968961 21.143798,5.23796671 21.4511526,4.29509672 C20.6608123,4.75573549 19.7826564,5.09401709 18.8459568,5.27395412 C18.0995243,4.4894287 17.0311014,4 15.8529089,4 C13.5843396,4 11.7475302,5.8065677 11.7475302,8.03778677 C11.7475302,8.35447593 11.78412,8.66396761 11.8572997,8.95906433 C8.4471277,8.79352227 5.4248079,7.18128655 3.39773143,4.74134053 C3.04646908,5.33873144 2.84156604,6.02968961 2.84156604,6.77103014 C2.84156604,8.17453891 3.56604464,9.40530814 4.67105745,10.1322537 C3.99780461,10.1106613 3.36845957,9.93072425 2.81229418,9.62843005 L2.81229418,9.67881242 C2.81229418,11.6365272 4.22466154,13.2631579 6.1053787,13.6374269 C5.76143432,13.7309942 5.39553604,13.7813765 5.0223198,13.7813765 C4.75887303,13.7813765 4.50274424,13.7525866 4.24661544,13.7094017 C4.766191,15.3144399 6.28832784,16.4804318 8.08122942,16.5164193 C6.67618002,17.5960414 4.90523235,18.2438147 2.98060739,18.2438147 C2.65129894,18.2438147 2.32199049,18.2222222 2,18.1862348 C3.81485547,19.3306343 5.97365532,20 8.29345042,20 C15.8455909,20 19.9729235,13.8461538 19.9729235,8.51282051 C19.9729235,8.34008097 19.9656056,8.16014395 19.9582876,7.98740441 C20.7559458,7.41880342 21.4511526,6.70625281 22,5.89293747 L22,5.89293747 Z" id="Shape" fill="#000000"></path>
    </g>
</svg>