<?xml version="1.0" encoding="UTF-8"?>
<svg width="32px" height="32px" viewBox="0 0 32 32" version="1.1" xmlns="http://www.w3.org/2000/svg" xmlns:xlink="http://www.w3.org/1999/xlink">
    <title>图标/线型/icons_outlined_favour_on</title>
    <g id="图标/线型/icons_outlined_favour_on" stroke="none" stroke-width="1" fill="none" fill-rule="evenodd">
        <g id="0.图标/线型/icons_outlined_gift_off" fill="#FFFFFF" fill-rule="nonzero">
            <path d="M17.972973,2.25 C19.6731002,2.25 21.0289578,3.46947918 21.387673,5.12512984 C21.5861144,5.9158426 21.6882239,6.80586431 21.6882239,7.70769231 C21.6882239,8.46909445 21.6272647,9.20246517 21.5040283,9.91073882 L21.4226027,10.3327148 L21.37,10.558 L25.2017568,10.5613861 C26.2801333,10.668809 27.2546306,11.170178 27.9028112,11.9945896 L28.0366313,12.1761679 L28.1599758,12.3674802 C28.5877785,13.0067163 28.75,13.7339051 28.7461192,14.7069674 L28.6784192,15.3173823 L28.6503758,15.5212081 L28.625132,15.6633553 L27.0685072,22.755977 L26.6071245,24.7918841 L26.477123,25.3386045 L26.4361935,25.4772455 L26.379384,25.6179309 C26.1267958,26.2469725 25.6399296,26.8289649 25.0488716,27.1822357 C24.6028103,27.4488432 24.1084005,27.6328887 23.5891723,27.7108659 L23.3275989,27.7409067 L23.0888031,27.75 L12.223166,27.75 C11.2730628,27.75 10.4723783,27.0677164 10.3026748,26.1207274 L10.2803158,25.9605166 L10.273166,25.8 L10.273166,11.5257009 L10.760712,11.3435744 C11.8639885,10.931437 12.8186799,10.1228057 13.4516137,9.06216595 C13.8472891,8.39911221 14.106807,7.65561325 14.2097321,6.88264184 L14.2409487,6.5914956 L14.257722,6.32307693 L14.257722,6.04615385 C14.257722,3.90154551 15.7837276,2.25 17.972973,2.25 Z M6.87722007,11.6653846 C7.8273233,11.6653846 8.62800773,12.3476682 8.79771131,13.2946572 L8.82007025,13.454868 L8.82722007,13.6153846 L8.82722007,25.8 C8.82722007,26.7501032 8.14493649,27.5507877 7.19794751,27.7204912 L7.03773664,27.7428502 L6.87722007,27.75 L5.019305,27.75 C4.1710227,27.75 3.44446218,27.1377069 3.28026645,26.2879193 L3.25721812,26.1355678 L3.25,25.9846154 L3.25,13.4307692 C3.25,12.5830744 3.8649447,11.8588432 4.71573705,11.6954795 L4.86824796,11.6725618 L5.019305,11.6653846 L6.87722007,11.6653846 Z M17.972973,3.75 C16.6953506,3.75 15.8320118,4.62674941 15.762285,5.88052133 L15.757722,6.04615385 L15.7564714,6.36637128 L15.7372394,6.69546923 C15.6459961,7.81954614 15.3019677,8.88860204 14.7396979,9.83082653 C14.0890254,10.9211919 13.166686,11.806121 12.0843869,12.3869262 L11.773,12.542 L11.7722117,25.7621765 L11.7755236,25.8469161 C11.7957303,26.0458889 11.9462501,26.2052704 12.1384843,26.2420068 L12.223166,26.25 L23.0583206,26.2506197 L23.2368405,26.2439525 C23.582923,26.2160483 23.9494934,26.0918184 24.2793138,25.8946874 C24.5404808,25.7385899 24.7769501,25.4782177 24.9191751,25.2080391 L25.0205827,24.9801492 L25.107112,24.6197357 L25.677042,22.1049993 L27.036076,15.9191171 L27.1651256,15.3123116 L27.2071684,14.9982561 L27.25,14.6307692 C27.25,14.0045565 27.1496732,13.5548223 26.8942174,13.171581 C26.5344388,12.5742564 25.943114,12.1982885 25.3030478,12.0827242 L25.1274132,12.0576923 L19.3614817,12.0576923 L19.7789983,10.7248002 C20.0514152,9.79196883 20.1882239,8.78688485 20.1882239,7.70769231 C20.1882239,6.92490504 20.1001282,6.15703199 19.9272751,5.46667266 C19.7060757,4.44686388 18.9312792,3.75 17.972973,3.75 Z M5.06051048,13.1642518 L4.99183851,13.1668905 C4.88180983,13.1790503 4.78721888,13.2650417 4.75874491,13.3676604 L4.75,13.4307692 L4.74884966,25.9430921 L4.75145933,26.0110298 C4.76345648,26.1187526 4.8499923,26.2128889 4.95472933,26.2412754 L5.019305,26.25 L6.83939652,26.2509544 L6.92413621,26.2476424 C7.12310894,26.2274357 7.28249047,26.0769159 7.3192269,25.8846817 L7.32722007,25.8 L7.32817442,13.6532082 L7.32486251,13.5684685 C7.30465573,13.3694957 7.15413601,13.2101142 6.9619018,13.1733778 L6.87722007,13.1653846 L5.06051048,13.1642518 Z" id="形状结合"></path>
        </g>
    </g>
</svg>