<?xml version="1.0" encoding="UTF-8"?>
<svg width="414px" height="896px" viewBox="0 0 414 896" version="1.1" xmlns="http://www.w3.org/2000/svg" xmlns:xlink="http://www.w3.org/1999/xlink">
    <title>最长备份 7</title>
    <g id="最长备份-7" stroke="none" stroke-width="1" fill="none" fill-rule="evenodd">
        <rect fill="#EDEDED" x="0" y="0" width="414" height="896"></rect>
        <path d="M-19,728 C96.9797975,728 191,822.020203 191,938 C191,1053.9798 96.9797975,1148 -19,1148 C-134.979797,1148 -229,1053.9798 -229,938 C-229,822.020203 -134.979797,728 -19,728 Z M-19,759 C-117.85897,759 -198,839.14103 -198,938 C-198,1036.85897 -117.85897,1117 -19,1117 C79.8589702,1117 160,1036.85897 160,938 C160,839.14103 79.8589702,759 -19,759 Z M-19,822 C45.065031,822 97,873.934969 97,938 C97,1002.06503 45.065031,1054 -19,1054 C-83.065031,1054 -135,1002.06503 -135,938 C-135,873.934969 -83.065031,822 -19,822 Z M-19,853 C-65.9442037,853 -104,891.055796 -104,938 C-104,984.944204 -65.9442037,1023 -19,1023 C27.9442037,1023 66,984.944204 66,938 C66,891.055796 27.9442037,853 -19,853 Z" id="形状备份" fill="#FFFFFF" fill-rule="nonzero" opacity="0.22"></path>
        <path d="M496,-361 C635.175757,-361 748,-248.175757 748,-109 C748,30.1757569 635.175757,143 496,143 C356.824243,143 244,30.1757569 244,-109 C244,-248.175757 356.824243,-361 496,-361 Z M496.5,-323 C378.034921,-323 282,-226.965079 282,-108.5 C282,9.96507883 378.034921,106 496.5,106 C614.965079,106 711,9.96507883 711,-108.5 C711,-226.965079 614.965079,-323 496.5,-323 Z M496.5,-247 C572.991438,-247 635,-184.991438 635,-108.5 C635,-32.0085622 572.991438,30 496.5,30 C420.008562,30 358,-32.0085622 358,-108.5 C358,-184.991438 420.008562,-247 496.5,-247 Z M497,-209 C441.21924,-209 396,-163.78076 396,-108 C396,-52.2192403 441.21924,-7 497,-7 C552.78076,-7 598,-52.2192403 598,-108 C598,-163.78076 552.78076,-209 497,-209 Z" id="形状" fill="#FFFFFF" fill-rule="nonzero" opacity="0.18"></path>
    </g>
</svg>