<?xml version="1.0" encoding="UTF-8"?>
<svg width="24px" height="24px" viewBox="0 0 24 24" version="1.1" xmlns="http://www.w3.org/2000/svg" xmlns:xlink="http://www.w3.org/1999/xlink">
    <title>icon_加价购</title>
    <g id="icon_加价购" stroke="none" stroke-width="1" fill="none" fill-rule="evenodd" opacity="0.900000036">
        <g id="编组-3" fill="#000000" fill-rule="nonzero">
            <g id="购物" transform="translate(2.000000, 2.000000)">
                <rect id="矩形" opacity="0" x="0" y="0" width="20" height="20"></rect>
                <path d="M16.25,16.25 C16.5787901,16.2508065 16.8519856,15.9967347 16.875,15.66875 L16.25,4.375 C16.25,4.02982203 15.970178,3.75 15.625,3.75 L4.375,3.75 C4.02982203,3.75 3.75,4.02982203 3.75,4.375 L3.125,15.625 C3.125,15.970178 3.40482203,16.25 3.75,16.25 L16.25,16.25 Z M16.25,17.4999999 L3.75,17.4999999 C2.71446609,17.4999999 1.875,16.6605339 1.875,15.625 L2.5,4.375 C2.5,3.33946609 3.33946609,2.49999993 4.375,2.49999993 L15.625,2.49999993 C16.6436863,2.49972265 17.4762307,3.31284099 17.5,4.33125 L18.125,15.625 C18.125,16.6605339 17.2855339,17.4999999 16.25,17.4999999 L16.25,17.4999999 Z M12.5,6.25 C12.5,5.90482203 12.779822,5.625 13.125,5.625 C13.470178,5.625 13.75,5.90482203 13.75,6.25 C13.75,8.32106781 12.0710678,10 10,10 C7.92893219,10 6.25,8.32106781 6.25,6.25 C6.25,5.90482203 6.52982203,5.625 6.875,5.625 C7.22017797,5.625 7.5,5.90482203 7.5,6.25 C7.5,7.63071187 8.61928813,8.75 10,8.75 C11.3807119,8.75 12.5,7.63071187 12.5,6.25 Z" id="形状"></path>
            </g>
        </g>
    </g>
</svg>