<?xml version="1.0" encoding="UTF-8"?>
<svg width="24px" height="24px" viewBox="0 0 24 24" version="1.1" xmlns="http://www.w3.org/2000/svg" xmlns:xlink="http://www.w3.org/1999/xlink">
    <title>icons_filled_comment_off全屏页面</title>
    <g id="icons_filled_comment_off全屏页面" stroke="none" stroke-width="1" fill="none" fill-rule="evenodd">
        <g id="编组" fill="#000000">
            <path d="M3.17329833,5.29318843 L15.879,18 L11.5,18 L9.20710678,20.29 C8.81658249,20.6805243 8.18341751,20.6805243 7.79289322,20.29 C7.60535684,20.1024636 7.5,19.8552165 7.5,19.59 L7.5,18 L5,18 C3.61928813,18 2.5,16.8807119 2.5,15.5 L2.5,7 C2.5,6.34013979 2.75564639,5.73998899 3.17329833,5.29318843 Z M4.12132034,2 L6.62,4.499 L19,4.5 C20.3807119,4.5 21.5,5.61928813 21.5,7 L21.5,15.5 C21.5,16.5489521 20.8539783,17.4470177 19.9380983,17.8180336 L21.0918831,18.9705627 L20.0312229,20.0312229 L3.06066017,3.06066017 L4.12132034,2 Z" id="形状"></path>
        </g>
    </g>
</svg>