<?xml version="1.0" encoding="UTF-8"?>
<svg width="24px" height="24px" viewBox="0 0 24 24" version="1.1" xmlns="http://www.w3.org/2000/svg" xmlns:xlink="http://www.w3.org/1999/xlink">
    <title>地址icon</title>
    <g id="视觉定稿" stroke="none" stroke-width="1" fill="none" fill-rule="evenodd">
        <g id="编组-14备份">
            <g id="编组-12">
                <rect id="矩形" x="0" y="0" width="24" height="24"></rect>
            </g>
            <g id="编组-13" transform="translate(2.475000, 3.000000)" fill="#000000">
                <path d="M8.82142857,-2.80664381e-13 C10.8727719,-2.80664381e-13 12.5357143,1.66491021 12.5357143,3.71447836 L12.5357143,5.30231528 C12.5357143,6.36006052 11.9794372,7.87694175 11.2989381,8.68360353 L10.9632293,9.08155182 C10.4158158,9.7304542 10.5868172,10.5563692 11.3522955,10.9297596 L11.6393451,11.0690154 L11.6856714,10.9093505 C12.1682724,9.37552353 13.615174,8.26428571 15.3214733,8.26428571 C17.357584,8.26428571 19.021701,9.84564292 19.1235236,11.8550107 L19.1284604,12.0507631 L19.126072,12.1658447 C19.0834338,13.287305 18.5227624,14.4975468 17.5056997,15.7553816 C17.2596578,16.0596697 16.9930978,16.3586546 16.7080665,16.6503527 L16.4169539,16.9395485 L16.2339796,17.1124078 L16.0582611,17.2715269 L15.308785,17.9221425 L14.3966429,17.1009583 L14.218511,16.9324014 L13.9702932,16.6866764 C13.9793743,16.695901 13.9884712,16.7051152 13.9975837,16.7143186 L0.928571429,16.7142857 C0.415735589,16.7142857 -2.84217094e-14,16.2985501 -2.84217094e-14,15.7857143 L-2.84217094e-14,15.1500731 C-2.84217094e-14,14.513919 0.462568699,13.7724859 1.03451921,13.4933804 L6.29056142,10.9284899 C7.05285019,10.5565015 7.23009769,9.73260084 6.67962771,9.08016469 L6.34391893,8.68227099 C5.66086637,7.87269336 5.10714286,6.36024673 5.10714286,5.30148407 L5.10714286,3.71389607 C5.10714286,1.66276791 6.77425929,-2.80664381e-13 8.82142857,-2.80664381e-13 Z M15.3214733,9.37857143 C13.8905724,9.37857143 12.7216648,10.4768945 12.6337828,11.8536066 L12.6284783,12.0200958 L12.6300941,12.1143333 C12.6625127,12.9689402 13.1237085,13.9664305 14.0037188,15.0547681 C14.2274976,15.3315228 14.4710019,15.604672 14.7275717,15.8675389 L14.9882499,16.1267311 L15.1522465,16.2821151 L15.3214286,16.4347857 L15.4769804,16.2948217 L15.6473167,16.1337816 C16.0069848,15.7867867 16.3404875,15.4242302 16.6392279,15.0547681 C17.4553558,14.0454359 17.9122441,13.1129537 17.9988834,12.3152276 L18.0122996,12.1335554 L18.0142857,12.0396132 C18.0143596,10.5677126 16.8108321,9.37857143 15.3214733,9.37857143 Z M11.516302,12.1456388 L11.523,12.253 L10.8637807,11.9312515 C9.44624042,11.2397937 9.095889,9.56699068 10.1115268,8.36305643 L10.4472356,7.96510814 C10.9591811,7.35824945 11.4214286,6.09550587 11.4214286,5.30231528 L11.4214286,3.71447836 C11.4214286,2.27956318 10.2566191,1.11428571 8.82142857,1.11428571 C7.38800107,1.11428571 6.22142857,2.27983108 6.22142857,3.71389607 L6.22142857,5.30148407 C6.22142857,6.09668789 6.68176482,7.35473497 7.19557282,7.96371806 L7.5312816,8.36161177 C8.54901953,9.56787012 8.19484186,11.2391039 6.77923949,11.9299021 L1.52319728,14.4947926 C1.33437301,14.5869367 1.11428571,14.9394859 1.11428571,15.1500731 L1.11428571,15.6 L13.0138239,15.6001019 L13.0749509,15.6776788 L13.0749509,15.6776788 L13.137247,15.7553816 L13.137247,15.7553816 C12.1868849,14.5800376 11.6360935,13.4474423 11.5317994,12.3746104 L11.516302,12.1456388 Z M15.3214286,10.6785714 C15.9624734,10.6785714 16.4821429,11.1982409 16.4821429,11.8392857 C16.4821429,12.4803305 15.9624734,13 15.3214286,13 C14.6803838,13 14.1607143,12.4803305 14.1607143,11.8392857 C14.1607143,11.1982409 14.6803838,10.6785714 15.3214286,10.6785714 Z" id="形状结合"></path>
            </g>
        </g>
    </g>
</svg>