<?xml version="1.0" encoding="UTF-8"?>
<svg width="12px" height="12px" viewBox="0 0 12 12" version="1.1" xmlns="http://www.w3.org/2000/svg" xmlns:xlink="http://www.w3.org/1999/xlink">
    <!-- Generator: Sketch 59.1 (86144) - https://sketch.com -->
    <title>logo </title>
    <desc>Created with Sketch.</desc>
    <g id="logo-" stroke="none" stroke-width="1" fill="none" fill-rule="evenodd">
        <path d="M6.75315406,0.312017971 L8.373,1.913 L10.5857227,2.50068003 C11.1597868,2.65147517 11.5024876,3.23835297 11.3488409,3.81037036 L10.755,5.996 L11.3490683,8.18453541 C11.5024876,8.75571021 11.1597868,9.34258801 10.5865504,9.49316467 L8.389,10.075 L6.75315406,11.687982 C6.33246586,12.104006 5.65323307,12.104006 5.23254487,11.687982 L3.612,10.086 L1.39997623,9.49931997 C0.825912147,9.34852483 0.483211302,8.76164703 0.636858023,8.18962964 L1.23,6.002 L0.636630591,3.80952776 C0.483211302,3.23835297 0.825912147,2.65147517 1.39914854,2.50089851 L3.612,1.913 L5.23254487,0.312017971 C5.65323307,-0.10400599 6.33246586,-0.10400599 6.75315406,0.312017971 Z M5.80994317,9.01836818 L4.37755997,9.84234654 L5.73257876,11.182342 C5.87620867,11.3243795 6.10949026,11.3243795 6.25356959,11.1818984 L7.61339599,9.8419172 L6.18212444,9.01857831 C6.06409605,8.95112394 5.9242497,8.95117439 5.80994317,9.01836818 Z M1.82159559,6.53825296 L1.32341691,8.37494513 C1.27250802,8.5644772 1.38707648,8.76067656 1.58147426,8.81174203 L3.44136372,9.3050875 L3.44604909,7.66485906 C3.44589715,7.53775833 3.37678196,7.41931773 3.26605072,7.35716331 L1.82159559,6.53825296 Z M10.1641032,6.53231624 L8.72248953,7.34961565 C8.6095104,7.41698494 8.53964815,7.53756057 8.53964815,7.65832653 L8.54433521,9.29915089 L10.4050524,8.80558672 C10.5986225,8.75473973 10.7131909,8.55854037 10.6625095,8.3698509 L10.1641032,6.53231624 Z M7.832,2.849 L6.53327802,3.59634481 C6.20044165,3.79205334 5.78712435,3.79236795 5.45402923,3.59728862 L4.153,2.849 L4.15717921,4.33472097 C4.15717921,4.71618361 3.95227831,5.07017427 3.62163673,5.26459225 L2.319,6.002 L3.61544229,6.73778548 C3.94967329,6.92538094 4.15717921,7.28139972 4.15717921,7.66527903 L4.152,9.151 L5.45242092,8.40365519 C5.78520767,8.20797583 6.19754836,8.20797583 6.5357213,8.40158948 L7.832,9.147 L7.82851972,7.6593422 C7.82851972,7.28257784 8.03448719,6.92919859 8.3640622,6.73540775 L9.666,5.997 L8.37025664,5.26221452 C8.03602564,5.07461906 7.82851972,4.71860028 7.82851972,4.33472097 L7.832,2.849 Z M3.44136372,2.69491229 L1.58064657,3.18847646 C1.38707648,3.23932344 1.27250802,3.4355228 1.3232505,3.62443753 L1.82186596,5.46753059 L3.26320981,4.65038412 C3.37656377,4.58279239 3.44605079,4.46200242 3.44605079,4.33573665 L3.44136372,2.69491229 Z M8.54433521,2.6949125 L8.53964985,4.33514094 C8.53980179,4.46224168 8.60891698,4.58068227 8.71964822,4.64283669 L10.1641033,5.46174704 L10.662282,3.62505487 C10.7131909,3.4355228 10.5986225,3.23932344 10.4042247,3.18825797 L8.54433521,2.6949125 Z M5.73257876,0.817657971 L4.37755997,2.15765346 L5.80994317,2.98163182 C5.92375008,3.04853182 6.06194885,3.04853182 6.17575577,2.98163182 L7.60813896,2.15765346 L6.25312017,0.817657971 C6.10949026,0.675620511 5.87620867,0.675620511 5.73257876,0.817657971 Z" id="图标颜色" fill="#FFC300"></path>
    </g>
</svg>