<?xml version="1.0" encoding="UTF-8"?>
<svg width="15px" height="16px" viewBox="0 0 15 16" version="1.1" xmlns="http://www.w3.org/2000/svg" xmlns:xlink="http://www.w3.org/1999/xlink">
    <!-- Generator: Sketch 63.1 (92452) - https://sketch.com -->
    <title>形状结合备份</title>
    <desc>Created with Sketch.</desc>
    <g id="控件" stroke="none" stroke-width="1" fill="none" fill-rule="evenodd">
        <path d="M7.62418204,0.0286216746 C8.50931912,0.160483543 9.49958161,1.01778773 9.49958161,2.61042543 C9.49958161,3.77571742 9.3100678,4.47104911 9.25998006,5.01602472 L9.25055319,5.14932117 L13.1125384,5.14932117 C13.7260868,5.14932117 14.9861151,5.92188106 14.7695113,7.33284368 C14.3817033,9.85903548 13.0469224,12.5108626 12.8540871,12.9182966 C12.2504575,14.1936811 11.3251456,15.0072013 10.5539533,15.0936561 L10.4195573,15.1013114 L1.11665406,15.1013114 C0.539196754,15.1013114 0.0595710573,14.2214343 0.00514262697,13.6235805 L-9.09494702e-13,13.5150715 L-9.09494702e-13,6.99737926 C-9.09494702e-13,6.27074028 0.564609748,5.710601 1.14113296,5.64342202 L1.25643268,5.63665576 L1.96451857,5.63665576 C1.96451857,5.63665576 3.93145161,5.9466009 4.78983871,4.52307149 C5.60080645,3.1786009 5.62032492,2.14742457 5.62032492,1.17102855 C5.62032492,0.194632533 6.75751572,-0.100488542 7.62418204,0.0286216746 Z M2.66566348,6.07940182 C2.38952111,6.07940182 2.16566348,6.30325944 2.16566348,6.57940182 L2.16566348,6.57940182 L2.16566348,14.0499901 C2.16566348,14.3261324 2.38952111,14.5499901 2.66566348,14.5499901 C2.94180586,14.5499901 3.16566348,14.3261324 3.16566348,14.0499901 L3.16566348,14.0499901 L3.16566348,6.57940182 C3.16566348,6.30325944 2.94180586,6.07940182 2.66566348,6.07940182 Z" id="形状结合备份" fill="#576B95" fill-rule="nonzero"></path>
    </g>
</svg>