<?xml version="1.0" encoding="UTF-8"?>
<svg width="24px" height="24px" viewBox="0 0 24 24" version="1.1" xmlns="http://www.w3.org/2000/svg" xmlns:xlink="http://www.w3.org/1999/xlink">
    <title>直播面形</title>
    <g id="直播面形" stroke="none" stroke-width="1" fill="none" fill-rule="evenodd">
        <g id="编组-11" transform="translate(3.000000, 3.000000)" fill="#000000">
            <g id="编组-10" transform="translate(0.500000, 0.000000)">
                <path d="M8.55,0 C9.24035594,0 9.8,0.475697453 9.8,1.0625 L9.796,1 L9.8,1 L9.8,14 L9.796,14 L9.8,14.0625 C9.8,14.6101824 9.31248784,15.0610799 8.68620127,15.1187654 L8.55,15.125 C7.85964406,15.125 7.3,14.6493025 7.3,14.0625 C7.3,14.0415909 7.30071055,14.020823 7.30211226,14.0002125 L7.3,14 L7.3,1 C7.34004864,0.442401146 7.88424295,0 8.55,0 Z" id="形状结合备份-2"></path>
                <path d="M15.25,2 C15.9403559,2 16.5,2.47569745 16.5,3.0625 L16.496,3 L16.5,3 L16.5,12 L16.496,12 L16.5,12.0625 C16.5,12.6101824 16.0124878,13.0610799 15.3862013,13.1187654 L15.25,13.125 C14.5596441,13.125 14,12.6493025 14,12.0625 C14,12.0415909 14.0007106,12.020823 14.0021123,12.0002125 L14,12 L14,3 C14.0400486,2.44240115 14.584243,2 15.25,2 Z" id="形状结合备份-6"></path>
                <path d="M1.75,2 C2.44035594,2 3,2.47569745 3,3.0625 L2.996,3 L3,3 L3,12 L2.996,12 L3,12.0625 C3,12.6101824 2.51248784,13.0610799 1.88620127,13.1187654 L1.75,13.125 C1.05964406,13.125 0.5,12.6493025 0.5,12.0625 C0.5,12.0415909 0.500710554,12.020823 0.502112255,12.0002125 L0.5,12 L0.5,3 C0.540048639,2.44240115 1.08424295,2 1.75,2 Z" id="形状结合备份-9"></path>
                <ellipse id="椭圆形备份-20" cx="1.75" cy="17.4875" rx="1.75" ry="1.4875"></ellipse>
            </g>
        </g>
    </g>
</svg>