<?xml version="1.0" encoding="UTF-8"?>
<svg width="32px" height="32px" viewBox="0 0 32 32" version="1.1" xmlns="http://www.w3.org/2000/svg" xmlns:xlink="http://www.w3.org/1999/xlink">
    <title>画板</title>
    <g id="画板" stroke="none" stroke-width="1" fill="none" fill-rule="evenodd">
        <g id="Pic" fill="#000000" transform="translate(2.666667, 3.333333)">
            <path d="M14.1593421,15.43251 L20.5073245,23.367488 C20.9635166,23.9377281 20.7256521,24.399999 19.9967023,24.399999 L6.66996439,24.399999 C5.93176344,24.399999 5.70845981,23.9310909 6.15934213,23.367488 L12.5073245,15.43251 C12.9635166,14.8622699 13.7084598,14.8689071 14.1593421,15.43251 Z M25.3333333,0.666666667 C26.069713,0.666666667 26.6666667,1.26362033 26.6666667,2 L26.6666667,19.3333333 C26.6666667,20.069713 26.069713,20.6666667 25.3333333,20.6666667 L21.333,20.6666667 L21.333,18.6666667 L24.5,18.6666667 C24.7761424,18.6666667 25,18.442809 25,18.1666667 L25,3.16666667 C25,2.89052429 24.7761424,2.66666667 24.5,2.66666667 L2.5,2.66666667 C2.22385763,2.66666667 2,2.89052429 2,3.16666667 L2,18.1666667 C2,18.442809 2.22385763,18.6666667 2.5,18.6666667 L5.333,18.6666667 L5.333,20.6666667 L1.33333333,20.6666667 C0.596953667,20.6666667 0,20.069713 0,19.3333333 L0,2 C0,1.26362033 0.596953667,0.666666667 1.33333333,0.666666667 L25.3333333,0.666666667 Z" id="形状结合"></path>
        </g>
    </g>
</svg>