<?xml version="1.0" encoding="UTF-8"?>
<svg width="24px" height="24px" viewBox="0 0 24 24" version="1.1" xmlns="http://www.w3.org/2000/svg" xmlns:xlink="http://www.w3.org/1999/xlink">
    <title>全屏</title>
    <g id="全屏" stroke="none" stroke-width="1" fill="none" fill-rule="evenodd">
        <path d="M21,15 L21,20 C21,20.5522847 20.5522847,21 20,21 L15,21 L15,19 L19,19 L19,15 L21,15 Z M3,15 L5,15 L5,19 L9,19 L9,21 L4,21 C3.44771525,21 3,20.5522847 3,20 L3,15 Z M9,3 L9,5 L5,5 L5,9 L3,9 L3,4 C3,3.44771525 3.44771525,3 4,3 L9,3 Z M20,3 C20.5522847,3 21,3.44771525 21,4 L21,9 L19,9 L19,5 L15,5 L15,3 L20,3 Z" id="形状结合" fill="#000000"></path>
    </g>
</svg>