<?xml version="1.0" encoding="UTF-8"?>
<svg width="24px" height="24px" viewBox="0 0 24 24" version="1.1" xmlns="http://www.w3.org/2000/svg" xmlns:xlink="http://www.w3.org/1999/xlink">
    <title>test</title>
    <g id="test" stroke="none" stroke-width="1" fill="none" fill-rule="evenodd" fill-opacity="0.9">
        <path d="M5.5,16.4 C6.88071187,16.4 8,17.5192881 8,18.9 C8,20.2807119 6.88071187,21.4 5.5,21.4 C4.11928813,21.4 3,20.2807119 3,18.9 C3,17.5192881 4.11928813,16.4 5.5,16.4 Z M5.5,17.6 C4.78202983,17.6 4.2,18.1820298 4.2,18.9 C4.2,19.6179702 4.78202983,20.2 5.5,20.2 C6.21797017,20.2 6.8,19.6179702 6.8,18.9 C6.8,18.1820298 6.21797017,17.6 5.5,17.6 Z M21,18.3 L21,19.5 L9,19.5 L9,18.3 L21,18.3 Z M12,9.4 C13.3807119,9.4 14.5,10.5192881 14.5,11.9 C14.5,13.2807119 13.3807119,14.4 12,14.4 C10.6192881,14.4 9.5,13.2807119 9.5,11.9 C9.5,10.5192881 10.6192881,9.4 12,9.4 Z M12,10.6 C11.2820298,10.6 10.7,11.1820298 10.7,11.9 C10.7,12.6179702 11.2820298,13.2 12,13.2 C12.7179702,13.2 13.3,12.6179702 13.3,11.9 C13.3,11.1820298 12.7179702,10.6 12,10.6 Z M8.5,11.3 L8.5,12.5 L3,12.5 L3,11.3 L8.5,11.3 Z M21,11.3 L21,12.5 L15.5,12.5 L15.5,11.3 L21,11.3 Z M18.5,2.5 C19.8807119,2.5 21,3.61928813 21,5 C21,6.38071187 19.8807119,7.5 18.5,7.5 C17.1192881,7.5 16,6.38071187 16,5 C16,3.61928813 17.1192881,2.5 18.5,2.5 Z M18.5,3.7 C17.7820298,3.7 17.2,4.28202983 17.2,5 C17.2,5.71797017 17.7820298,6.3 18.5,6.3 C19.2179702,6.3 19.8,5.71797017 19.8,5 C19.8,4.28202983 19.2179702,3.7 18.5,3.7 Z M15,4.4 L15,5.6 L3,5.6 L3,4.4 L15,4.4 Z" id="形状" fill="#000000"></path>
    </g>
</svg>