<?xml version="1.0" encoding="UTF-8"?>
<svg width="24px" height="24px" viewBox="0 0 24 24" version="1.1" xmlns="http://www.w3.org/2000/svg" xmlns:xlink="http://www.w3.org/1999/xlink">
    <title>粉丝团礼物</title>
    <g id="粉丝团礼物" stroke="none" stroke-width="1" fill="none" fill-rule="evenodd" fill-opacity="0.9">
        <g id="编组-21" fill="#000000" transform="translate(3.250000, 3.399998)">
            <path d="M11.4153337,0.00162251997 C12.231084,-0.0228831977 13.0345061,0.231182598 13.6807645,0.718864624 C14.4902422,1.32977894 14.9666143,2.23729091 15.0299402,3.20744757 L15.0299402,3.20744757 L15.035,3.33375194 L15.9076923,3.33403556 C16.5838498,3.33403556 17.1387219,3.85332038 17.1952565,4.514838 L17.1952565,4.514838 L17.2,4.62634325 L17.2,8.38277494 L16.3,8.38225194 L16.3,15.4653866 C16.3,16.5193027 15.4784924,17.3813455 14.4408948,17.4460975 L14.4408948,17.4460975 L14.3153846,17.4500019 L2.88461538,17.4500019 C1.78854257,17.4500019 0.9,16.5614594 0.9,15.4653866 L0.9,15.4653866 L0.9,8.38225194 L0,8.38277494 L0,4.62634325 C0,3.91262142 0.578585862,3.33403556 1.29224004,3.33403556 L1.29224004,3.33403556 L2.16125,3.33375194 C2.18873797,2.37625838 2.62032704,1.46454617 3.38125025,0.828230982 L3.38125025,0.828230982 L3.51893426,0.718846663 C4.16520468,0.231155569 4.96863335,-0.0228799719 5.78458607,0.00162011524 C6.75862821,0.0307506155 7.67091909,0.447440954 8.32695188,1.17119808 L8.32695188,1.17119808 L8.44906078,1.31452065 L8.59925,1.50150194 L8.75065797,1.31446627 C9.35916862,0.558087944 10.2559178,0.0902516717 11.2316052,0.0117515478 L11.2316052,0.0117515478 Z M15.1,8.38 L2.1,8.38 L2.1,15.4653866 C2.1,15.8626067 2.39517637,16.1908848 2.77814772,16.2428393 L2.88461538,16.2500019 L14.3153846,16.2500019 C14.7487157,16.2500019 15.1,15.8987177 15.1,15.4653866 L15.1,15.4653866 L15.1,8.38 Z M1.29230769,4.53403556 C1.24132756,4.53403556 1.2,4.57536312 1.2,4.62634325 L1.2,4.62634325 L1.199,7.18 L15.999,7.18 L16,4.62634325 C16,4.59915385 15.9882446,4.57471006 15.9695288,4.55781711 L15.9368341,4.53874146 L15.9076247,4.53403555 Z M5.74864231,1.20108168 C5.20486158,1.18475393 4.66929131,1.35409551 4.24170832,1.67675984 C3.69703666,2.08767962 3.3863854,2.69950092 3.3602835,3.33444316 L8.533,3.334 L7.52535613,2.08032254 L7.42633817,1.96402853 C7.00216261,1.4963165 6.39832251,1.22051155 5.74864231,1.20108168 Z M11.4513663,1.20108142 L11.2913434,1.21109885 C10.6560899,1.27181648 10.0782673,1.57863331 9.68558923,2.06673187 L9.68558923,2.06673187 L8.665,3.334 L13.8377026,3.33445999 C13.8132094,2.75163217 13.5531892,2.19425912 13.0965879,1.79010574 L12.9579093,1.67671652 C12.5304093,1.35411483 11.9948489,1.18475482 11.4513663,1.20108142 L11.4513663,1.20108142 Z" id="形状结合"></path>
        </g>
        <polygon id="星形" fill="#000000" transform="translate(12.000000, 15.742641) rotate(45.000000) translate(-12.000000, -15.742641) " points="12 16.9426407 9.87867966 17.863961 10.8 15.7426407 9.87867966 13.6213203 12 14.5426407 14.1213203 13.6213203 13.2 15.7426407 14.1213203 17.863961"></polygon>
        <polygon id="星形" fill="#000000" transform="translate(20.000000, 3.585786) rotate(45.000000) translate(-20.000000, -3.585786) " points="20 4.38578644 18.5857864 5 19.2 3.58578644 18.5857864 2.17157288 20 2.78578644 21.4142136 2.17157288 20.8 3.58578644 21.4142136 5"></polygon>
    </g>
</svg>