<?xml version="1.0" encoding="UTF-8"?>
<svg width="24px" height="24px" viewBox="0 0 24 24" version="1.1" xmlns="http://www.w3.org/2000/svg" xmlns:xlink="http://www.w3.org/1999/xlink">
    <title>icons_outlined_Winningrecord</title>
    <g id="icons_outlined_Winningrecord" stroke="none" stroke-width="1" fill="none" fill-rule="evenodd" fill-opacity="0.9" opacity="0.9">
        <g id="Group" fill="#000000">
            <path d="M13.9979043,2 L20,8 L20,21.0013542 C20,21.5542301 19.5541613,22 19.0041915,22 L4.99580851,22 C4.44892021,22 4,21.552891 4,21.0013542 L4,2.99864581 C4,2.44576991 4.44583866,2 4.99580851,2 L13.9979043,2 Z M12.399,3.199 L5.2,3.2 L5.2,20.8 L18.8,20.8 L18.799,9.6 L14,9.6 C13.1163444,9.6 12.4,8.8836556 12.4,8 L12.399,3.199 Z M18.702,8.4 L13.599,3.298 L13.6,8 C13.6,8.2209139 13.7790861,8.4 14,8.4 L18.702,8.4 Z" id="Combined-Shape"></path>
            <g id="编组-2" transform="translate(7.000000, 9.500000)">
                <rect id="Path" x="0" y="3" width="7.5" height="1.20000005"></rect>
                <rect id="Path" x="0" y="6" width="4" height="1.20000005"></rect>
                <rect id="Path备份" x="0" y="-1.11022302e-16" width="4" height="1.20000005"></rect>
            </g>
        </g>
    </g>
</svg>