<?xml version="1.0" encoding="UTF-8"?>
<svg width="24px" height="24px" viewBox="0 0 24 24" version="1.1" xmlns="http://www.w3.org/2000/svg" xmlns:xlink="http://www.w3.org/1999/xlink">
    <title>icons_outlined_fans</title>
    <g id="icons_outlined_fans" stroke="none" stroke-width="1" fill="none" fill-rule="evenodd" fill-opacity="0.9">
        <path d="M12.4425657,3.36281539 C12.6397783,3.46014562 12.7994058,3.61977315 12.8967361,3.81698575 L15.2328189,8.55040653 L17.8651004,8.93253515 C18.4880691,8.26074116 19.0211895,7.57842821 19.429863,6.90351534 C19.0790725,7.60610685 18.6450711,8.29911173 18.1467045,8.97411606 L20.4564589,9.30944585 C21.0030037,9.38886347 21.3816852,9.89630632 21.3022676,10.4428512 C21.270643,10.6604882 21.1681559,10.8616306 21.0106722,11.0151392 L17.2308108,14.6995935 L18.1231151,19.9021263 C18.2164761,20.4464628 17.8508883,20.9634187 17.3065518,21.0567797 C17.0897942,21.0939566 16.8668261,21.0586419 16.6721656,20.9563028 L12,18.5 L7.32783438,20.9563028 C6.83898979,21.2133036 6.23436264,21.0253571 5.97736183,20.5365125 C5.87502276,20.3418521 5.83970808,20.118884 5.87688493,19.9021263 L6.31237604,17.3582199 C3.25616512,18.1691533 1.48790678,17.1646319 3.58435631,13.1942253 C2.60071054,15.8332621 4.10952959,16.4633829 6.56600434,15.8846606 L6.76918916,14.6995935 L2.98932777,11.0151392 C2.59384419,10.629638 2.58575189,9.99652475 2.9712531,9.60104117 C3.1247617,9.44355754 3.32590411,9.34107036 3.54354115,9.30944585 L8.76718111,8.55040653 L11.1032639,3.81698575 C11.3476862,3.32173209 11.9473121,3.11839309 12.4425657,3.36281539 Z M7.60291559,16.9376684 L7.12811946,19.7055683 L12,17.1442691 L16.8718805,19.7055683 L15.9414342,14.2806496 L19.8828683,10.4387008 L17.2778955,10.0599707 C14.6007685,13.1650669 10.7000217,15.7593328 7.60291559,16.9376684 Z M12,4.71146175 L9.56405973,9.64721585 L4.11713169,10.4387008 L8.05856585,14.2806496 L7.84863301,15.5043815 C10.6603899,14.5196626 14.2096708,12.3893231 16.8021743,9.9908596 L14.4359403,9.64721585 L12,4.71146175 Z M20.0323164,2.00769964 C20.0616161,2.0177051 20.0846288,2.04071788 20.0946343,2.07001759 L20.6363961,3.65649712 L22.2228756,4.19825891 C22.2751407,4.21610675 22.3030414,4.2729445 22.2851936,4.32520958 C22.2751881,4.35450929 22.2521753,4.37752207 22.2228756,4.38752753 L20.6363961,4.92928932 L20.0946343,6.51576885 C20.0767865,6.56803394 20.0199487,6.59593463 19.9676836,6.57808679 C19.9383839,6.56808133 19.9153712,6.54506855 19.9053657,6.51576885 L19.3636039,4.92928932 L17.7771244,4.38752753 C17.7248593,4.36967969 17.6969586,4.31284194 17.7148064,4.26057685 C17.7248119,4.23127715 17.7478247,4.20826437 17.7771244,4.19825891 L19.3636039,3.65649712 L19.9053657,2.07001759 C19.9232135,2.0177525 19.9800513,1.98985181 20.0323164,2.00769964 Z" id="形状结合" fill="#000000"></path>
    </g>
</svg>