<?xml version="1.0" encoding="UTF-8"?>
<svg width="24px" height="24px" viewBox="0 0 24 24" version="1.1" xmlns="http://www.w3.org/2000/svg" xmlns:xlink="http://www.w3.org/1999/xlink">
    <!-- Generator: Sketch 64 (93537) - https://sketch.com -->
    <title>3.Icons/Filled/favorites2</title>
    <desc>Created with Sketch.</desc>
    <g id="3.Icons/Filled/favorites2" stroke="none" stroke-width="1" fill="none" fill-rule="evenodd">
        <g id="1234备份-2">
            <rect id="矩形" fill="#D8D8D8" opacity="0" x="0" y="0" width="24" height="24"></rect>
            <path d="M18,3 C19.6568542,3 21,4.34314575 21,6 L21,18 C21,19.6568542 19.6568542,21 18,21 L6,21 C4.34314575,21 3,19.6568542 3,18 L3,6 C3,4.34314575 4.34314575,3 6,3 L18,3 Z M12.2375785,7.05809942 C11.971677,6.92087639 11.649738,7.03503453 11.5185078,7.31307877 L11.5185078,7.31307877 L10.2642656,9.97050561 L7.45969472,10.3966438 C7.34284546,10.4143984 7.23485216,10.4719365 7.15243343,10.5603506 C6.94545793,10.7823822 6.94980269,11.1378233 7.16213771,11.3542505 L7.16213771,11.3542505 L9.19154425,13.4227688 L8.71246635,16.3435636 C8.69250612,16.4652552 8.71146655,16.5904334 8.76641237,16.6997193 C8.90439604,16.9741654 9.22902019,17.0796819 9.49148071,16.9353971 L9.49148071,16.9353971 L11.9999651,15.5563848 L14.5084496,16.9353971 C14.6129627,16.992852 14.7326742,17.0126783 14.8490513,16.9918066 C15.1413054,16.939392 15.3375894,16.6491638 15.2874639,16.3435636 L15.2874639,16.3435636 L14.808386,13.4227688 L16.8377926,11.3542505 C16.9223455,11.268068 16.9773708,11.1551431 16.99435,11.0329578 C17.0369893,10.7261178 16.8336753,10.4412303 16.5402356,10.3966438 L16.5402356,10.3966438 L13.7356647,9.97050561 L12.4814225,7.31307877 C12.4291659,7.20236009 12.3434619,7.11274235 12.2375785,7.05809942 Z" id="形状结合" fill="#000000"></path>
        </g>
    </g>
</svg>