<svg width="20" height="20" viewBox="0 0 20 20" fill="none" xmlns="http://www.w3.org/2000/svg">
<path fill-rule="evenodd" clip-rule="evenodd" d="M13.192 6.56351C13.192 4.89674 13.055 4.1039 12.5449 3.35241C12.0637 2.64339 10.8492 2.22955 9.83251 2.70174C9.07179 3.055 8.92614 3.5444 8.87743 4.91798C8.86669 5.22085 8.86511 5.26283 8.85879 5.39625C8.81113 6.40387 8.76662 6.74441 8.63554 7.09154C8.40372 7.70454 8.0949 8.05325 7.57084 8.36051C7.10324 8.63468 6.84875 8.7559 6.54244 8.82335C6.10831 8.91889 5.74442 8.95539 5.35531 8.95539H3.7931C3.08073 8.95539 2.5 9.52604 2.5 10.2342V16.3013C2.5 17.0064 3.07431 17.5759 3.78344 17.5801C8.87411 17.6126 11.7232 17.6186 12.2797 17.5732C13.1731 17.5 14.3294 17.0658 14.9049 16.5918C16.8233 15.0127 17.2343 10.5932 16.4175 8.77316C16.1887 8.26326 15.7385 7.9226 15.1517 7.71075C14.6791 7.54016 14.2181 7.47935 13.8765 7.47375C13.799 7.47502 13.6642 7.45013 13.539 7.37792C13.3231 7.25343 13.192 7.0183 13.192 6.56351ZM10.2537 3.60871C10.7702 3.3688 11.4776 3.56055 11.7175 3.91406C12.0765 4.4429 12.192 5.0327 12.192 6.56351C12.192 7.32007 12.461 7.91066 13.0394 8.24421C13.3074 8.39875 13.618 8.47812 13.8929 8.47362C14.1539 8.47843 14.4953 8.53699 14.8121 8.65135C15.1914 8.78827 15.4074 8.96489 15.5051 9.18259C16.2535 10.8501 15.6511 14.6823 14.2694 15.8198C13.8575 16.159 12.8944 16.5195 12.198 16.5765C11.7276 16.6149 9.27711 16.6151 3.78981 16.5801C3.62679 16.5792 3.5 16.453 3.5 16.3013V10.2342C3.5 10.0825 3.62882 9.95539 3.7931 9.95539H5.35531C5.83065 9.95539 6.26626 9.90805 6.75737 9.79998C7.17689 9.70761 7.50586 9.55784 8.07665 9.22316C8.80961 8.79342 9.26298 8.25946 9.57089 7.44527C9.75049 6.96962 9.80514 6.55414 9.85767 5.4435C9.86408 5.30814 9.86566 5.26765 9.8768 4.95342C9.91613 3.84447 9.95576 3.74707 10.2537 3.60871Z" fill="black" fill-opacity="0.9"/>
<mask id="mask0" mask-type="alpha" maskUnits="userSpaceOnUse" x="2" y="2" width="15" height="16">
<path fill-rule="evenodd" clip-rule="evenodd" d="M13.192 6.56351C13.192 4.89674 13.055 4.1039 12.5449 3.35241C12.0637 2.64339 10.8492 2.22955 9.83251 2.70174C9.07179 3.055 8.92614 3.5444 8.87743 4.91798C8.86669 5.22085 8.86511 5.26283 8.85879 5.39625C8.81113 6.40387 8.76662 6.74441 8.63554 7.09154C8.40372 7.70454 8.0949 8.05325 7.57084 8.36051C7.10324 8.63468 6.84875 8.7559 6.54244 8.82335C6.10831 8.91889 5.74442 8.95539 5.35531 8.95539H3.7931C3.08073 8.95539 2.5 9.52604 2.5 10.2342V16.3013C2.5 17.0064 3.07431 17.5759 3.78344 17.5801C8.87411 17.6126 11.7232 17.6186 12.2797 17.5732C13.1731 17.5 14.3294 17.0658 14.9049 16.5918C16.8233 15.0127 17.2343 10.5932 16.4175 8.77316C16.1887 8.26326 15.7385 7.9226 15.1517 7.71075C14.6791 7.54016 14.2181 7.47935 13.8765 7.47375C13.799 7.47502 13.6642 7.45013 13.539 7.37792C13.3231 7.25343 13.192 7.0183 13.192 6.56351ZM10.2537 3.60871C10.7702 3.3688 11.4776 3.56055 11.7175 3.91406C12.0765 4.4429 12.192 5.0327 12.192 6.56351C12.192 7.32007 12.461 7.91066 13.0394 8.24421C13.3074 8.39875 13.618 8.47812 13.8929 8.47362C14.1539 8.47843 14.4953 8.53699 14.8121 8.65135C15.1914 8.78827 15.4074 8.96489 15.5051 9.18259C16.2535 10.8501 15.6511 14.6823 14.2694 15.8198C13.8575 16.159 12.8944 16.5195 12.198 16.5765C11.7276 16.6149 9.27711 16.6151 3.78981 16.5801C3.62679 16.5792 3.5 16.453 3.5 16.3013V10.2342C3.5 10.0825 3.62882 9.95539 3.7931 9.95539H5.35531C5.83065 9.95539 6.26626 9.90805 6.75737 9.79998C7.17689 9.70761 7.50586 9.55784 8.07665 9.22316C8.80961 8.79342 9.26298 8.25946 9.57089 7.44527C9.75049 6.96962 9.80514 6.55414 9.85767 5.4435C9.86408 5.30814 9.86566 5.26765 9.8768 4.95342C9.91613 3.84447 9.95576 3.74707 10.2537 3.60871Z" fill="white"/>
</mask>
<g mask="url(#mask0)">
</g>
</svg>
