<?xml version="1.0" encoding="UTF-8"?>
<svg width="24px" height="24px" viewBox="0 0 24 24" version="1.1" xmlns="http://www.w3.org/2000/svg" xmlns:xlink="http://www.w3.org/1999/xlink">
    <title>icons_filled_reward</title>
    <defs>
        <filter id="filter-1">
            <feColorMatrix in="SourceGraphic" type="matrix" values="0 0 0 0 1.000000 0 0 0 0 1.000000 0 0 0 0 1.000000 0 0 0 1.000000 0"></feColorMatrix>
        </filter>
    </defs>
    <g id="icons_filled_reward" stroke="none" stroke-width="1" fill="none" fill-rule="evenodd">
        <g id="编组-2备份-2" filter="url(#filter-1)">
            <g fill="#000000" fill-rule="nonzero" id="形状结合">
                <path d="M5.7090176,7.40512519 C7.7156563,7.66399276 9.49146823,8.29376163 10.9590291,9.17550745 C10.3222193,9.69653232 9.75931817,10.2682664 9.27858634,10.8788273 L9.27858634,10.8788273 L10.2214137,11.6211727 L10.3798433,11.4255796 C10.8423137,10.8703871 11.3846105,10.3519732 12.0004444,9.88198882 C12.6865353,10.4062532 13.2829323,10.9916595 13.7785863,11.6211727 L13.7785863,11.6211727 L14.7214137,10.8788273 L14.5549766,10.6729501 C14.1122682,10.1394501 13.6056795,9.63754059 13.0403627,9.17595894 C14.5043989,8.29624749 16.2743909,7.66752548 18.274115,7.40731063 C20.1020518,8.82862204 21.2014883,10.6129561 21.5108979,12.6675109 C21.5566641,12.9714099 21.5851455,13.2812211 21.5961381,13.5966448 C21.6008298,13.7290155 21.600994,13.8598501 21.5966431,13.989122 C21.5997862,19.1664696 17.2005765,21.6799752 12.022907,21.6799752 C6.93769582,21.6799752 2.5409057,19.2554361 2.38549904,14.2636274 L2.38125,13.9888 C2.38004225,13.8598501 2.38020642,13.7290155 2.38489807,13.5966448 C2.46921294,11.1772993 3.58241425,9.08814897 5.63245377,7.46434522 Z M12.10875,1.875 C13.317911,1.875 14.3599915,2.59035696 14.8348629,3.62094248 C15.1408029,3.46400428 15.4893824,3.375 15.85875,3.375 C17.1013907,3.375 18.10875,4.38235931 18.10875,5.625 C18.10875,5.83525599 18.0799103,6.03877612 18.025971,6.2318204 C15.7056745,6.54536632 13.6622959,7.32376291 12.0008985,8.41346328 C10.3692645,7.34417563 8.37041503,6.57441745 6.10433052,6.24800339 C6.04569234,6.05164025 6.015,5.84190442 6.015,5.625 C6.015,4.38235931 7.02235931,3.375 8.265,3.375 C8.6645367,3.375 9.03975082,3.47913738 9.36498011,3.66174989 C9.83002618,2.6093674 10.8836277,1.875 12.10875,1.875 Z"></path>
            </g>
        </g>
    </g>
</svg>