<?xml version="1.0" encoding="UTF-8"?>
<svg width="28px" height="28px" viewBox="0 0 28 28" version="1.1" xmlns="http://www.w3.org/2000/svg" xmlns:xlink="http://www.w3.org/1999/xlink">
    <title>画板</title>
    <g id="画板" stroke="none" stroke-width="1" fill="none" fill-rule="evenodd">
        <path d="M21.6103611,3.01573633 C22.1744041,3.25993839 22.4301715,3.91975486 22.1816789,4.48930542 L22.1468951,4.56173804 L19.4111541,9.30482932 C19.7963974,9.81502984 19.8818667,10.5175148 19.5926579,11.1262829 L19.5251716,11.2547632 L18.7135056,12.6624344 C19.1712399,13.0381028 19.3244044,13.6843636 19.0774453,14.2363691 L19.0133084,14.3619157 L12.6732135,25.3432822 C12.3264503,25.9438937 11.5899092,26.1773172 10.9772483,25.9028023 L10.8565201,25.8410851 L4.20412238,22.0003215 C3.61026175,21.6574559 3.38535291,20.9189899 3.66433141,20.3001398 L3.72688559,20.1781173 L10.0669805,9.19675088 C10.4000135,8.61992073 11.0925689,8.38177645 11.6896196,8.60700266 L12.5019219,7.19988803 C12.8600821,6.57953636 13.5332578,6.25594318 14.1966167,6.31811773 C15.0503247,4.65391407 16.0737139,3.5162752 17.2859309,2.9304438 C18.5907076,2.29988083 20.0502576,2.33978706 21.6103611,3.01573633 Z M11.2865663,10.4182411 L5.28656626,20.810546 L11.3487441,24.310546 L17.3487441,13.9182411 L11.2865663,10.4182411 Z M22.7228955,16.4674074 C22.9583869,17.0445234 23.180525,17.4463958 23.3893097,17.6730247 C23.5980944,17.8996535 23.9683245,18.140777 24.5,18.396395 C23.9553086,18.6661414 23.5850785,18.9072649 23.3893097,19.1197654 C23.1935409,19.3322659 22.9714028,19.7341383 22.7228955,20.3253827 C22.4711703,19.7306455 22.2490323,19.3287731 22.0564813,19.1197654 C21.8639303,18.9107577 21.4937002,18.6696343 20.9457909,18.396395 C21.4903859,18.1267533 21.860616,17.8856298 22.0564813,17.6730247 C22.2523465,17.4604195 22.4744846,17.0585471 22.7228955,16.4674074 Z M14.0480375,8.03223386 L14.0159159,8.07399285 L13.2120703,9.46529548 L17.3525378,11.8557955 L18.1560508,10.4643009 C18.2012584,10.3859989 18.1870307,10.289855 18.1272673,10.2289407 L18.0860561,10.1970443 L14.2823642,8.00098176 C14.2049424,7.95628225 14.1091964,7.97153245 14.0480375,8.03223386 Z M6.72895468,2 C7.02331895,2.72139502 7.30099154,3.22373555 7.56197243,3.5070216 C7.82295332,3.79030765 8.28574096,4.09171197 8.95033535,4.41123456 C8.26947108,4.74841757 7.80668345,5.04982189 7.56197243,5.31544753 C7.31726141,5.58107316 7.03958883,6.0834137 6.72895468,6.82246913 C6.41429825,6.07904765 6.13662567,5.57670712 5.89593693,5.31544753 C5.65524819,5.05418793 5.19246055,4.75278361 4.50757402,4.41123456 C5.18831776,4.07418238 5.6511054,3.77277806 5.89593693,3.5070216 C6.14076846,3.24126515 6.41844105,2.73892461 6.72895468,2 Z" id="形状结合" fill="#FFFFFF" fill-rule="nonzero"></path>
    </g>
</svg>