<?xml version="1.0" encoding="UTF-8"?>
<svg width="24px" height="24px" viewBox="0 0 24 24" version="1.1" xmlns="http://www.w3.org/2000/svg" xmlns:xlink="http://www.w3.org/1999/xlink">
    <!-- Generator: Sketch 64 (93537) - https://sketch.com -->
    <title>group-detail</title>
    <desc>Created with Sketch.</desc>
    <g id="group-detail" stroke="none" stroke-width="1" fill="none" fill-rule="evenodd" fill-opacity="0.9">
        <g id="3.Icons/Outlined/group-detail" fill="#000000">
            <g id="icon14" transform="translate(1.000000, 3.000000)">
                <path d="M1.2,16.8 L17.8,16.8 L17.8,16.3154633 C17.8,16.0860594 17.564679,15.7100199 17.3598095,15.6100873 L11.6994561,12.8490401 C10.1728743,12.1043932 9.79557277,10.302913 10.8893366,9.00636847 L11.2508692,8.57780877 C11.802195,7.92426863 12.3,6.56439093 12.3,5.71018568 L12.3,4.00020747 C12.3,2.4549142 11.0455898,1.2 9.5,1.2 C7.95630885,1.2 6.7,2.4552027 6.7,3.99958038 L6.7,5.70929053 C6.7,6.56566389 7.19574673,7.92048381 7.74907842,8.57631176 L8.11061095,9.00481267 C9.20663642,10.3038601 8.82521432,12.1036503 7.30071945,12.8475869 L1.6403663,15.6097766 C1.43701709,15.7090088 1.2,16.0886771 1.2,16.3154633 L1.2,16.8 Z M9.5,0 C10.7025594,0 11.781173,0.531303284 12.5144348,1.37151193 L12.4960944,1.35064233 L12.4960944,1.35064233 C12.9490802,1.12626413 13.4599583,1 14,1 C15.8603276,1 17.3684211,2.49415019 17.3684211,4.33350622 L17.3684211,5.75848807 C17.3684211,6.70774662 16.8639431,8.06905029 16.2468102,8.79297753 L15.9423618,9.15011061 C15.445922,9.73245889 15.6010002,10.4736647 16.2951991,10.8087587 L21.0618125,13.1096313 C21.5799592,13.3597438 22,14.0209751 22,14.5962194 L22,15.1679682 C22,15.6274867 21.6202734,16 21.1566909,16 L18.9676453,16 L18.9705759,16.0150451 C18.9898204,16.1161309 19,16.21685 19,16.3154633 L19,17.0015619 C19,17.552984 18.5490746,18 17.9985704,18 L1.00142961,18 C0.448355308,18 0,17.5557555 0,17.0015619 L0,16.3154633 C0,15.6303744 0.498150907,14.8319079 1.11409761,14.5313327 L6.77445076,11.769143 C7.59537712,11.36854 7.78625906,10.4812624 7.19344522,9.7786389 L6.83191269,9.35013798 C6.09631763,8.47828515 5.5,6.84949648 5.5,5.70929053 L5.5,3.99958038 C5.5,1.79067313 7.29535615,0 9.5,0 Z M14,2.2 C13.6994787,2.2 13.4132922,2.26035387 13.1531562,2.36930543 L13.1432566,2.34735582 C13.3723821,2.85130193 13.5,3.41099494 13.5,4.00020747 L13.5,5.71018568 C13.5,6.84929595 12.9009324,8.48286035 12.1680872,9.35157303 L11.8065546,9.78013273 C11.2170324,10.4789507 11.4011877,11.3683976 12.225549,11.7705104 L17.8859024,14.5315576 C18.0420403,14.6077196 18.1906763,14.7156499 18.3255634,14.8456009 L18.2766575,14.8 L18.2766575,14.8 L20.8,14.8 L20.8,14.5962194 C20.8,14.4845959 20.6463054,14.2415527 20.5401598,14.1903156 L15.7735464,11.8894429 C14.3727962,11.2132924 14.0215331,9.55360651 15.0291527,8.37161899 L15.3336012,8.01448591 C15.76679,7.50633402 16.1684211,6.42060801 16.1684211,5.75848807 L16.1684211,4.33350622 C16.1684211,3.15902864 15.1996866,2.2 14,2.2 Z" id="图标颜色"></path>
            </g>
        </g>
    </g>
</svg>