<?xml version="1.0" encoding="UTF-8"?>
<svg width="104px" height="104px" viewBox="0 0 104 104" version="1.1" xmlns="http://www.w3.org/2000/svg" xmlns:xlink="http://www.w3.org/1999/xlink">
    <title>banner/connect_ipad</title>
    <g id="banner/connect_ipad" stroke="none" stroke-width="1" fill="none" fill-rule="evenodd">
        <path d="M79.8722296,8.4 C81.5419882,8.4 82.1531048,8.55971781 82.7650519,8.88699069 C83.3461653,9.19777354 83.8022265,9.65383473 84.1130093,10.2349481 C84.4402822,10.8468952 84.6,11.4580118 84.6,13.1277704 L84.6,13.1277704 L84.6,90.8722296 C84.6,92.5419882 84.4402822,93.1531048 84.1130093,93.7650519 C83.8022265,94.3461653 83.3461653,94.8022265 82.7650519,95.1130093 C82.1531048,95.4402822 81.5419882,95.6 79.8722296,95.6 L79.8722296,95.6 L24.1277704,95.6 C22.4580118,95.6 21.8468952,95.4402822 21.2349481,95.1130093 C20.6538347,94.8022265 20.1977735,94.3461653 19.8869907,93.7650519 C19.5597178,93.1531048 19.4,92.5419882 19.4,90.8722296 L19.4,90.8722296 L19.4,13.1277704 C19.4,11.4580118 19.5597178,10.8468952 19.8869907,10.2349481 C20.1977735,9.65383473 20.6538347,9.19777354 21.2349481,8.88699069 C21.8468952,8.55971781 22.4580118,8.4 24.1277704,8.4 L24.1277704,8.4 L79.8722296,8.4 Z" id="矩形" stroke="#000000" stroke-width="0.8"></path>
        <rect id="矩形" stroke="#000000" stroke-width="0.8" x="23.4" y="16.4" width="57.2" height="69.2" rx="1"></rect>
        <circle id="椭圆形" fill="#000000" fill-rule="nonzero" cx="52" cy="12.5" r="1"></circle>
        <circle id="椭圆形备份" stroke="#000000" stroke-width="0.8" stroke-linejoin="round" cx="52" cy="90.5" r="2.5"></circle>
    </g>
</svg>