<?xml version="1.0" encoding="UTF-8"?>
<svg width="140px" height="140px" viewBox="0 0 140 140" version="1.1" xmlns="http://www.w3.org/2000/svg" xmlns:xlink="http://www.w3.org/1999/xlink">
    <title>车载大icon电动车</title>
    <g id="车载大icon电动车" stroke="none" stroke-width="1" fill="none" fill-rule="evenodd" stroke-opacity="0.9">
        <path d="M45.8318933,90.35 L94.1681067,90.35 C94.4113027,90.35 94.6461641,90.4386244 94.8287346,90.5992865 L98.0105528,93.3992865 C98.4251604,93.7641412 98.4654932,94.3960203 98.1006384,94.8106279 C97.9107891,95.0263657 97.637302,95.15 97.3499249,95.15 L42.6500751,95.15 C42.0977903,95.15 41.6500751,94.7022847 41.6500751,94.15 C41.6500751,93.8626229 41.7737093,93.5891358 41.9894472,93.3992865 L45.1712654,90.5992865 C45.3538359,90.4386244 45.5886973,90.35 45.8318933,90.35 Z" id="矩形" stroke="#000000" stroke-width="0.8"></path>
        <path d="M30.9789862,62.9524636 C34.4134233,63.537746 43.6347224,71.7557132 43.9410571,73.4680736 C44.2473919,75.1804341 43.3596711,75.9886119 41.2780138,76.5262707 C39.1963564,77.0639294 36.600183,77.2433201 32.2075115,75.7457768 C27.8148399,74.2482335 26.4211514,72.1366648 26.0471273,70.6113953 C25.6731033,69.0861259 27.5445491,62.3671811 30.9789862,62.9524636 Z" id="矩形" stroke="#000000" stroke-width="0.8"></path>
        <path d="M100.978986,62.9524636 C104.413423,63.537746 113.634722,71.7557132 113.941057,73.4680736 C114.247392,75.1804341 113.359671,75.9886119 111.278014,76.5262707 C109.196356,77.0639294 106.600183,77.2433201 102.207511,75.7457768 C97.8148399,74.2482335 96.4211514,72.1366648 96.0471273,70.6113953 C95.6731033,69.0861259 97.5445491,62.3671811 100.978986,62.9524636 Z" id="矩形备份" stroke="#000000" stroke-width="0.8" transform="translate(105.000000, 69.916442) scale(-1, 1) translate(-105.000000, -69.916442) "></path>
        <path d="M107.549461,84.9598122 C107.549461,84.9598122 107.549461,84.9598122 107.549461,84.9598122 C113.615969,86.0682715 119.037441,87.559 119.468567,87.6964072 C119.899693,87.8338145 120.263364,88.4651354 119.74478,88.9182096 C119.487735,89.1427842 117.693159,89.0275787 113.878531,88.9182096 C113.001205,88.8930558 111.393093,88.8930558 109.054196,88.9182096 C108.805526,89.3901153 108.710524,90.4196837 108.769189,92.0069148 C108.857187,94.3877614 108.952301,94.6418179 108.769189,94.9048063 C108.586077,95.1677947 107.71544,95.8611358 106.650545,92.520083 C106.023824,90.5537749 105.725502,88.5250316 105.755579,86.4338533 L105.755611,86.4338538 C105.767689,85.5940937 106.458241,84.923125 107.298001,84.9352034 C107.382359,84.9364167 107.466469,84.9446481 107.549461,84.9598122 Z" id="矩形备份-6" stroke="#000000" stroke-width="0.8" transform="translate(112.000000, 89.838640) scale(-1, 1) translate(-112.000000, -89.838640) "></path>
        <path d="M23.549461,84.9598122 C23.549461,84.9598122 23.549461,84.9598122 23.549461,84.9598122 C29.6159685,86.0682715 35.0374413,87.559 35.468567,87.6964072 C35.8996926,87.8338145 36.2633643,88.4651354 35.7447803,88.9182096 C35.4877345,89.1427842 33.6931593,89.0275787 29.8785307,88.9182096 C29.0012047,88.8930558 27.393093,88.8930558 25.0541956,88.9182096 C24.8055261,89.3901153 24.710524,90.4196837 24.7691891,92.0069148 C24.8571869,94.3877614 24.9523013,94.6418179 24.7691891,94.9048063 C24.586077,95.1677947 23.7154395,95.8611358 22.6505453,92.520083 C22.0238236,90.5537749 21.7255017,88.5250316 21.7555794,86.4338533 L21.755611,86.4338538 C21.7676894,85.5940937 22.458241,84.923125 23.2980011,84.9352034 C23.3823586,84.9364167 23.4664688,84.9446481 23.549461,84.9598122 Z" id="矩形备份-8" stroke="#000000" stroke-width="0.8"></path>
        <path d="M18.2557913,64.8305157 L27.9623086,56.8944807 L27.9623086,56.8944807 L38.3828953,37.6174268 C39.6311486,35.3082827 41.9327832,33.7584074 44.5418388,33.4701162 C53.4116093,32.4900387 61.897663,32 70,32 C78.0217349,32 86.1805134,32.4803374 94.4763355,33.4410122 C97.0853203,33.7431348 99.3798233,35.3066218 100.615446,37.624232 L110.889285,56.8944807 L110.889285,56.8944807 L121.475641,64.7746893 C123.423924,66.2249372 124.607868,68.4817438 124.693775,70.9090153 C124.983961,79.1081141 125.067907,85.7105053 124.945612,90.7161889 C124.857218,94.334316 124.640742,97.9504816 124.296185,101.564686 C123.9483,105.213545 120.883567,108 117.218161,108 L114.896723,108 C112.345823,108 109.914747,106.917513 108.207995,105.021705 L105.514743,102.030121 L105.514743,102.030121 L37.3564696,102.030121 L32.436715,106.002414 C30.8358415,107.294986 28.8404052,108 26.7828487,108 L23.2452179,108 C19.2503273,108 15.9218752,104.93875 15.5883273,100.957809 C15.3467908,98.0748864 15.1778344,94.6610131 15.0814583,90.7161889 C14.9179921,84.0252668 15.0005524,77.3305339 15.3291391,70.63199 C15.4400349,68.3712163 16.5034444,66.2632321 18.2557913,64.8305157 Z" id="矩形" stroke="#000000" stroke-width="0.8"></path>
        <path d="M45.2085254,36.5129996 C52.8659724,35.4969354 60.8878141,34.9889033 69.2740506,34.9889033 C77.6916006,34.9889033 85.8598913,35.5007364 93.7789226,36.5244025 C95.7060094,36.7735168 97.3931428,37.940438 98.3061475,39.6557059 L107,55.9889033 L107,55.9889033 L32,55.9889033 L40.7013168,39.6416827 C41.6109704,37.9326999 43.2893479,36.7676546 45.2085254,36.5129996 Z" id="矩形" stroke="#000000" stroke-width="0.8"></path>
        <path d="M16.7877719,48.8485169 L17.9654739,48.0215881 C19.812836,46.7244545 22.0905016,46.1925592 24.3212933,46.537336 L24.9222977,46.6302234 C27.268644,46.9928596 29,49.012359 29,51.3865633 L29,55 L29,55 L27.9863905,56.6748636 L17.5441357,55.3191038 C16.1383515,55.1365852 15.0863525,53.9391714 15.0863525,52.5215881 L15.0863525,52.1221277 C15.0863525,50.8189137 15.7212181,49.5974025 16.7877719,48.8485169 Z" id="矩形" stroke="#000000" stroke-width="0.8"></path>
        <path d="M111.611384,48.8485169 L112.789086,48.0215881 C114.636448,46.7244545 116.914114,46.1925592 119.144905,46.537336 L119.74591,46.6302234 C122.10516,46.9948539 123.863283,48.9988496 123.917747,51.3854894 L124,54.9898709 L124,54.9898709 L122.98639,56.6647345 L112.368533,55.3129956 C110.963177,55.1340825 109.909965,53.9382868 109.909965,52.5215881 L109.909965,52.1221277 C109.909965,50.8189137 110.54483,49.5974025 111.611384,48.8485169 Z" id="矩形备份-2" stroke="#000000" stroke-width="0.8" transform="translate(116.954982, 51.332367) scale(-1, 1) translate(-116.954982, -51.332367) "></path>
    </g>
</svg>