<?xml version="1.0" encoding="UTF-8"?>
<svg width="24px" height="24px" viewBox="0 0 24 24" version="1.1" xmlns="http://www.w3.org/2000/svg" xmlns:xlink="http://www.w3.org/1999/xlink">
    <title>icons_filled_menu</title>
    <g id="icons_filled_menu" stroke="none" stroke-width="1" fill="none" fill-rule="evenodd">
        <g id="icons_filled_menu" fill="#000000">
            <path d="M12,2 C17.5228475,2 22,6.4771525 22,12 C22,17.5228475 17.5228475,22 12,22 C6.4771525,22 2,17.5228475 2,12 C2,6.4771525 6.4771525,2 12,2 Z M8.199,14.799 L7,14.8 L7,16 L8.199,15.999 L8.199,14.799 Z M17,14.8 L9.199,14.799 L9.199,15.999 L17,16 L17,14.8 Z M8.199,11.4 L7,11.4 L7,12.6 L8.199,12.6 L8.199,11.4 Z M17,11.4 L9.199,11.4 L9.199,12.6 L17,12.6 L17,11.4 Z M17,8 L9.2,8 L9.199,9.199 L17,9.2 L17,8 Z M7,8 L7,9.2 L8.199,9.199 L8.2,8 L7,8 Z" id="图标颜色"></path>
        </g>
    </g>
</svg>