<?xml version="1.0" encoding="UTF-8"?>
<svg width="24px" height="24px" viewBox="0 0 24 24" version="1.1" xmlns="http://www.w3.org/2000/svg" xmlns:xlink="http://www.w3.org/1999/xlink">
    <!-- Generator: Sketch 59.1 (86144) - https://sketch.com -->
    <title>Icons_filled_voice1</title>
    <desc>Created with Sketch.</desc>
    <g id="Icons_filled_voice1" stroke="none" stroke-width="1" fill="none" fill-rule="evenodd" fill-opacity="0.9">
        <g id="Icons_filled_voice1备份-4" transform="translate(4.000000, 1.500000)" fill="#000000">
            <g id="Group">
                <path d="M4.7,4.5 L4.7,10.5 C4.7,12.3225397 6.17746033,13.8 8,13.8 C9.82253967,13.8 11.3,12.3225397 11.3,10.5 L11.3,4.5 C11.3,2.67746033 9.82253967,1.2 8,1.2 C6.17746033,1.2 4.7,2.67746033 4.7,4.5 Z M1.7,9 L1.7,10.5 C1.7,13.9793939 4.52060608,16.8 8,16.8 C11.4793939,16.8 14.3,13.9793939 14.3,10.5 L14.3,9 L15.5,9 L15.5,10.5 C15.5,14.4402791 12.4614352,17.6708635 8.59968399,17.9763745 L8.59999967,21 L7.39999962,21 L7.39931687,17.9762954 C3.53804071,17.6703062 0.5,14.4399393 0.5,10.5 L0.5,9 L1.7,9 Z M8,0 C10.4852814,0 12.5,2.01471863 12.5,4.5 L12.5,10.5 C12.5,12.9852814 10.4852814,15 8,15 C5.51471863,15 3.5,12.9852814 3.5,10.5 L3.5,4.5 C3.5,2.01471863 5.51471863,0 8,0 Z" id="图标颜色"></path>
            </g>
        </g>
    </g>
</svg>