<?xml version="1.0" encoding="UTF-8"?>
<svg width="102px" height="102px" viewBox="0 0 102 102" version="1.1" xmlns="http://www.w3.org/2000/svg" xmlns:xlink="http://www.w3.org/1999/xlink">
    <!-- Generator: Sketch 62 (91390) - https://sketch.com -->
    <title>编组 8备份 2</title>
    <desc>Created with Sketch.</desc>
    <g id="连麦视觉输出" stroke="none" stroke-width="1" fill="none" fill-rule="evenodd">
        <g id="画板备份-9" transform="translate(-5.000000, -5.000000)">
            <g id="编组-8备份-2" transform="translate(8.000000, 8.000000)">
                <g id="编组-6">
                    <g id="编组-9">
                        <path d="M26.3713906,-2.87910402e-15 L69.6286094,1.06543575e-15 C78.7985164,-6.1904885e-16 82.1237463,0.954777715 85.4761272,2.74765067 C88.8285082,4.54052362 91.4594764,7.17149181 93.2523493,10.5238728 C95.0452223,13.8762537 96,17.2014836 96,26.3713906 L96,69.6286094 C96,78.7985164 95.0452223,82.1237463 93.2523493,85.4761272 C91.4594764,88.8285082 88.8285082,91.4594764 85.4761272,93.2523493 C82.1237463,95.0452223 78.7985164,96 69.6286094,96 L26.3713906,96 C17.2014836,96 13.8762537,95.0452223 10.5238728,93.2523493 C7.17149181,91.4594764 4.54052362,88.8285082 2.74765067,85.4761272 C0.954777715,82.1237463 1.46649273e-15,78.7985164 -2.52395878e-15,69.6286094 L7.10290497e-16,26.3713906 C-4.12699233e-16,17.2014836 0.954777715,13.8762537 2.74765067,10.5238728 C4.54052362,7.17149181 7.17149181,4.54052362 10.5238728,2.74765067 C13.8762537,0.954777715 17.2014836,1.67284235e-15 26.3713906,-2.87910402e-15 Z" id="矩形" stroke="#8385F3" stroke-width="4.28571429" stroke-linecap="round" stroke-linejoin="round" stroke-dasharray="0,12"></path>
                        <path d="M57.1785247,54.9188395 C56.8260062,54.8013221 56.6791235,54.8600808 56.3559816,55.036357 C55.298426,55.6239442 52.7132903,57.0341535 51.1857101,57.8273963 C50.8038151,58.0330518 50.3925435,58.1505692 49.9225188,58.1505692 C49.4231176,58.1505692 48.9824694,58.0036724 48.6005744,57.7686375 C46.4560868,56.505325 44.4291054,55.036357 42.6958894,53.2735953 C40.9626734,51.540213 39.4938463,49.5130371 38.230655,47.3683437 C37.9956426,46.986412 37.8487599,46.5163423 37.8487599,46.0462725 C37.8487599,45.6055821 37.9662661,45.1648917 38.1719019,44.78296 C38.9650685,43.2258538 40.3751426,40.6404701 40.9626734,39.6121924 C41.1389327,39.2890195 41.1976857,39.1127433 41.0801796,38.7895703 L38.5831735,32.1498347 C38.2600315,31.3859714 37.525618,30.8865222 36.6443217,30.8571429 C36.2918032,30.8571429 35.8805316,31.0040397 35.792402,31.033419 C32.9135008,32.091076 30.8571429,34.8233566 30.8571429,38.0550863 C30.8571429,38.9658465 31.0921552,39.817848 31.1215317,40.0235035 C32.5316058,46.1931693 35.6748958,51.6871098 39.9932475,56.0058759 C44.3115992,60.3246419 49.8050126,63.4682336 55.9740865,64.8784429 C56.1797223,64.9372016 57.031642,65.1428571 57.9423148,65.1428571 C61.1737345,65.1428571 63.9057529,63.0863019 64.9633084,60.2071245 C64.992685,60.1189864 65.1689442,59.7076754 65.1395677,59.355123 C65.0808146,58.4737422 64.5814134,57.7392582 63.8176233,57.4160852 L57.1785247,54.9188395 Z" id="Combined-Shape" fill="#8385F3"></path>
                    </g>
                </g>
            </g>
        </g>
    </g>
</svg>