<?xml version="1.0" encoding="UTF-8"?>
<svg width="24px" height="24px" viewBox="0 0 24 24" version="1.1" xmlns="http://www.w3.org/2000/svg" xmlns:xlink="http://www.w3.org/1999/xlink">
    <title>小商店</title>
    <g id="小商店" stroke="none" stroke-width="1" fill="none" fill-rule="evenodd">
        <g id="symbol" transform="translate(3.000000, 2.000000)" fill="#000000">
            <path d="M7.4335,-7.99360578e-15 C9.10407013,-7.99360578e-15 10.5335,1.45703265 10.5335,3.07 L10.5335,3.07 L10.533,4.999 L13.037,4.999 C13.5263571,4.999 13.9381122,5.35252041 14.02166,5.82496902 L14.035,5.936 L14.287,9.901 C9.03211111,10.696163 5.01129047,14.5169431 4.86417259,19.1359115 L4.86,19.3982 C4.86,19.5013111 4.86296296,19.6079778 4.86844993,19.7195169 L4.87851852,19.8906444 L4.886,19.9992 L1,19.999 C0.447,19.999 -1.19726451e-12,19.552 -1.19726451e-12,18.999 L0.000249999999,18.9675 L0.000249999999,18.9675 L0.002,18.936 L0.832,5.936 C0.863571429,5.44664286 1.24262755,5.05816837 1.71856305,5.00516873 L1.83,4.999 L4.333,4.999 L4.3335,3.07 C4.3335,1.51463863 5.66265099,0.104272657 7.2554872,0.00551610991 Z M14.4011046,11.6892939 L14.865,18.936 C14.9,19.486 14.482,19.962 13.932,19.997 L13.8995,19.99875 L13.8995,19.99875 L13.867,19.999 L5.21604882,19.9991551 C5.69834423,15.7906544 9.5509076,12.4083769 14.4011046,11.6892939 Z M7.4335,1.2 C6.4308631,1.2 5.5335,2.11469149 5.5335,3.07 L5.5335,3.07 L5.533,4.999 L9.333,4.999 L9.3335,3.07 C9.3335,2.16018237 8.51956522,1.28720558 7.57593217,1.20612801 Z" id="形状结合" fill-rule="nonzero"></path>
            <path d="M19.3955,9.5233 L19.4245,9.5143 C19.6715,9.4403 19.8325,9.2383 19.8325,8.9993 C19.8325,8.7583 19.6715,8.5563 19.4275,8.4843 L19.3955,8.4743 C18.0235,8.0993 17.8905,6.7813 17.8765,6.5063 C17.8585,6.2173 17.6245,5.9993 17.3325,5.9993 C17.0405,5.9993 16.8065,6.2173 16.7875,6.5203 C16.7755,6.7813 16.6425,8.0993 15.2775,8.4723 L15.2425,8.4823 C14.9935,8.5563 14.8335,8.7583 14.8335,8.9993 C14.8335,9.2383 14.9935,9.4403 15.2475,9.5163 L15.2695,9.5233 C16.6425,9.8983 16.7755,11.2163 16.7885,11.4903 C16.8065,11.7803 17.0405,11.9993 17.3325,11.9993 C17.6245,11.9993 17.8585,11.7803 17.8775,11.4773 C17.8905,11.2163 18.0235,9.8983 19.3955,9.5233" id="Fill-57"></path>
        </g>
    </g>
</svg>