<?xml version="1.0" encoding="UTF-8"?>
<svg width="42px" height="20px" viewBox="0 0 42 20" version="1.1" xmlns="http://www.w3.org/2000/svg" xmlns:xlink="http://www.w3.org/1999/xlink">
    <title>verify_and_star_LM</title>
    <g id="201020过allen后完稿" stroke="none" stroke-width="1" fill="none" fill-rule="evenodd">
        <g id="verify_and_star_LM">
            <g id="icon_filled_proof">
                <rect id="矩形" x="0" y="0" width="20" height="20"></rect>
                <path d="M13.6623935,2.28738603 L14.8485392,5.15102772 L17.712614,6.3376065 C18.0244301,6.46676497 18.1725034,6.82424552 18.0433449,7.13606164 L16.8568277,9.99946508 L18.0433449,12.8639383 C18.1725034,13.1757545 18.0244301,13.533235 17.712614,13.6623935 L14.8486964,14.847523 L13.6623935,17.712614 C13.533235,18.0244301 13.1757545,18.1725034 12.8639383,18.0433449 L9.99917025,16.8562625 L7.13606164,18.0433449 C6.82424552,18.1725034 6.46676497,18.0244301 6.3376065,17.712614 L5.15111238,14.8481312 L2.28738603,13.6623935 C1.97556991,13.533235 1.82749662,13.1757545 1.95665508,12.8639383 L3.14282386,9.99969375 L1.95665508,7.13606164 C1.82749662,6.82424552 1.97556991,6.46676497 2.28738603,6.3376065 L5.15159297,5.15009613 L6.3376065,2.28738603 C6.46676497,1.97556991 6.82424552,1.82749662 7.13606164,1.95665508 L9.99894158,3.1422586 L12.8639383,1.95665508 C13.1757545,1.82749662 13.533235,1.97556991 13.6623935,2.28738603 Z M13.6856283,7.11666663 L9.01953108,11.7827638 L6.71461466,9.47784742 L5.83333333,10.3591287 L8.62868842,13.1565058 L8.62868842,13.1565058 L8.697538,13.2152193 C8.91460475,13.3714737 9.21905383,13.3520053 9.41430225,13.1567293 L9.41430225,13.1567293 L14.5710679,8.00210627 L13.6856283,7.11666663 Z" id="形状结合" fill="#FA9D3B"></path>
            </g>
            <g id="0.图标/面型/icons_filled_star" transform="translate(22.000000, 0.000000)">
                <rect id="矩形" x="0" y="0" width="20" height="20"></rect>
                <path d="M10,15.4166667 L6.10652865,17.4635857 C5.69915816,17.677753 5.1953022,17.5211309 4.98113486,17.1137604 C4.8958523,16.9515434 4.8664234,16.7657366 4.89740411,16.5851053 L5.64099097,12.2496612 L2.49110648,9.17928269 C2.16153683,8.85803168 2.15479324,8.33043729 2.47604425,8.00086764 C2.60396809,7.86963128 2.77158676,7.7842253 2.95295096,7.75787154 L7.30598426,7.12533878 L9.25271994,3.18082146 C9.45640518,2.76811008 9.95609338,2.59866091 10.3688048,2.80234615 C10.5331486,2.88345469 10.6661715,3.01647762 10.7472801,3.18082146 L12.6940157,7.12533878 L17.047049,7.75787154 C17.5025031,7.82405289 17.818071,8.24692193 17.7518896,8.70237598 C17.7255359,8.88374018 17.6401299,9.05135885 17.5088935,9.17928269 L14.359009,12.2496612 L15.1025959,16.5851053 C15.1803967,17.038719 14.8757402,17.4695156 14.4221265,17.5473164 C14.2414952,17.5782971 14.0556884,17.5488682 13.8934714,17.4635857 L10,15.4166667 Z" id="Star" fill="#FFC300"></path>
            </g>
        </g>
    </g>
</svg>