<?xml version="1.0" encoding="UTF-8"?>
<svg width="24px" height="24px" viewBox="0 0 24 24" version="1.1" xmlns="http://www.w3.org/2000/svg" xmlns:xlink="http://www.w3.org/1999/xlink">
    <title>icons_outlined_animal</title>
    <g id="icons_outlined_animal" stroke="none" stroke-width="1" fill="none" fill-rule="evenodd" fill-opacity="0.9">
        <path d="M20.3782178,3.78910802 C20.5612308,4.12898922 20.614343,4.52179359 20.531301,4.89506556 L20.4873574,5.05363217 L19.0564998,9.34881571 L19.0441885,9.316961 C19.3746122,10.1661546 19.5559077,11.0898593 19.5559077,12.0559077 C19.5559077,12.1262892 19.5549243,12.1966637 19.5529582,12.2670106 C20.2887665,12.2038062 21.032596,12.2310616 21.7677797,12.3486945 L22.1176697,12.4116516 L21.8823303,13.5883484 C21.3562644,13.4831352 20.8235258,13.4317607 20.2921021,13.4334916 C20.5296284,13.8304297 20.7135584,14.261849 20.834373,14.7189477 C21.1181807,14.7478179 21.4019871,14.7855523 21.684659,14.8324515 L22.1176697,14.9116516 L21.8823303,16.0883484 C21.5891471,16.0297118 21.2943403,15.9820065 20.9985151,15.9452327 L21,16 L21,16 L21,16.4723074 C21,19.0499297 19.0618568,21.2153492 16.5,21.5 L13.6353632,21.8186933 C13.1087259,21.9374166 12.5613307,22 12,22 C11.4386693,22 10.8912741,21.9374166 10.3646368,21.8186933 L7.5,21.5 C4.93814318,21.2153492 3,19.0499297 3,16.4723074 L3,16 L3.00053605,15.9453507 C2.84928461,15.9641648 2.69829954,15.9858365 2.54766173,16.0103659 L2.11766968,16.0883484 L1.88233032,14.9116516 C2.30774055,14.8265695 2.73626188,14.7624335 3.16636249,14.7192435 C3.28644195,14.2618019 3.47037225,13.83033 3.70752965,13.4343981 C3.28662029,13.4320667 2.86351101,13.4641696 2.44357594,13.5301715 L2.11766968,13.5883484 L1.88233032,12.4116516 C2.73048644,12.2420204 3.59371926,12.1940359 4.44673651,12.265376 L4.45639832,12.4869707 C4.39262353,11.3709119 4.57444919,10.2976111 4.95495732,9.31967345 L4.94333032,9.34835747 L3.51264264,5.05363217 C3.37313307,4.63510348 3.4126245,4.17754368 3.62178215,3.78910802 C4.01607953,3.05684147 4.8988128,2.75590517 5.64995077,3.0723085 L5.78909563,3.13891398 L9.26380093,5.01064204 L9.46843353,4.93462725 C10.1290837,4.70010492 10.8337224,4.55431831 11.568937,4.51230605 C11.7124784,4.50410369 11.8562245,4.5 12,4.5 C12.9705733,4.5 13.8984051,4.68299777 14.7508743,5.01637202 L14.7349687,5.01017269 L14.7349687,5.01017269 L18.2109044,3.13891398 C18.9889376,2.71997302 19.9592769,3.01107481 20.3782178,3.78910802 Z M12,5.7 C11.8790584,5.7 11.7581414,5.70345195 11.6373968,5.71035165 C8.2090289,5.90625839 5.57103746,8.78470156 5.64544403,12.1906873 L5.65470364,12.4232182 L5.55419111,12.4264686 C5.9612236,12.5112958 6.36326086,12.6239486 6.75741811,12.7641624 L7.08999479,12.8897781 L7.22283441,12.942914 L6.77716559,14.057086 L6.64432598,14.0039502 C6.13984609,13.8021582 5.61858061,13.6534206 5.08882727,13.5584991 C4.81273436,13.8858087 4.59563239,14.2558651 4.4450673,14.6536256 C5.19398891,14.6494754 5.94322607,14.7094376 6.68465905,14.8324515 L7.11766968,14.9116516 L6.88233032,16.0883484 C5.99861761,15.9116059 5.10015351,15.8341797 4.20351642,15.8560698 L4.2,16 L4.2,16.4723074 C4.2,18.3706719 5.57818086,19.975926 7.43225205,20.279823 L7.63268245,20.3073578 L10.4973192,20.6260511 L10.6285379,20.6480711 C11.0749712,20.7487135 11.5339728,20.8 12,20.8 C12.3495204,20.8 12.6950889,20.7711514 13.0343672,20.7142685 L13.3714621,20.6480711 L13.5026808,20.6260511 L16.3674822,20.3073395 C18.2542357,20.0977002 19.697477,18.550678 19.7947675,16.6745361 L19.8,16.4723074 L19.8,16 L19.7956644,15.8560498 C19.0443584,15.8377584 18.2917731,15.8891971 17.5476617,16.0103659 L17.1176697,16.0883484 L16.8823303,14.9116516 C17.7643726,14.7352431 18.6597894,14.6488807 19.5549269,14.6525642 C19.4043688,14.2559578 19.1872067,13.8859421 18.9114479,13.5581431 C18.4885164,13.6342866 18.0722448,13.7439889 17.6655384,13.8874019 L17.355674,14.0039502 L17.2228344,14.057086 L16.7771656,12.942914 L16.9100052,12.8897781 C17.3769326,12.7030072 17.8563592,12.5557425 18.3433139,12.4484406 L18.3461724,12.4075592 C18.3526614,12.2904545 18.3559077,12.1731924 18.3559077,12.0559077 C18.3559077,8.54563682 15.5102709,5.7 12,5.7 Z M13.25,13 C13.6642136,13 14,13.3357864 14,13.75 C14,14.2096495 13.7403027,14.6298487 13.3291796,14.8354102 L12.5993303,15.1993575 L12.5993303,16.2743575 L12.6676365,16.3411694 C13.0772806,16.6947678 13.6757279,16.7534351 14.1493708,16.47237 L14.265,16.395 C14.3294348,16.3466739 14.3890725,16.2924058 14.4431498,16.232959 L14.52,16.14 L15.48,16.86 C15.3392857,17.047619 15.172619,17.2142857 14.985,17.355 C14.0787728,18.0346704 12.858131,17.9988795 11.9997939,17.3443012 C11.1418106,17.9988812 9.92120557,18.0346542 9.015,17.355 C8.87428573,17.2494643 8.74535714,17.1293304 8.63032366,16.9967076 L8.52,16.86 L9.48,16.14 C9.55248917,16.2366522 9.63834778,16.3225108 9.735,16.395 C10.2232197,16.7611648 10.8885824,16.7242344 11.3323635,16.3411694 L11.3853303,16.2873575 L11.3183303,15.1593575 L10.6708204,14.8354102 C10.2596973,14.6298487 10,14.2096495 10,13.75 C10,13.3357864 10.3357864,13 10.75,13 L13.25,13 Z M4.67834747,4.35802781 C4.63913041,4.4308595 4.62377267,4.51341176 4.63325876,4.59427762 L4.65106259,4.67415885 L5.71413325,7.86232446 L5.67005841,7.92903948 C6.2649015,7.01823564 7.05208398,6.24104714 7.97763304,5.65798896 L7.95874037,5.6699297 L7.95874037,5.6699297 L5.22017584,4.1954793 C5.02566754,4.09074406 4.78308271,4.16351951 4.67834747,4.35802781 Z M18.8546552,4.16441546 L18.7798242,4.1954793 L16.0414465,5.67052824 L16.0323949,5.66479628 C16.928596,6.2314308 17.6973712,6.98136701 18.2860388,7.86192314 L19.3489374,4.67415885 C19.3838148,4.56952667 19.3739419,4.45513672 19.3216525,4.35802781 C19.2300092,4.18783304 19.0328248,4.11084 18.8546552,4.16441546 Z" id="形状结合" fill="#000000"></path>
    </g>
</svg>