<?xml version="1.0" encoding="UTF-8"?>
<svg width="24px" height="24px" viewBox="0 0 24 24" version="1.1" xmlns="http://www.w3.org/2000/svg" xmlns:xlink="http://www.w3.org/1999/xlink">
    <title>icons_outlined_mvlist备份 6</title>
    <g id="icons_outlined_mvlist备份-6" stroke="none" stroke-width="1" fill="none" fill-rule="evenodd">
        <rect id="矩形" fill="#000000" x="3" y="6" width="18" height="1.2" rx="0.5"></rect>
        <rect id="矩形备份" fill="#000000" x="3" y="11.95" width="18" height="1.2" rx="0.5"></rect>
        <path d="M3.5,17.9 L14,17.9 C14.2761424,17.9 14.5,18.1238576 14.5,18.4 L14.5,18.6 C14.5,18.8761424 14.2761424,19.1 14,19.1 L3.5,19.1 C3.22385763,19.1 3,18.8761424 3,18.6 L3,18.4 C3,18.1238576 3.22385763,17.9 3.5,17.9 Z" id="矩形备份-2" fill="#000000"></path>
        <path d="M21.1250431,18.8004957 L17.1286462,21.1317273 C17.0085336,21.201793 16.8543636,21.1612219 16.7842979,21.0411093 C16.7618358,21.0026029 16.75,20.9588231 16.75,20.9142441 L16.75,16.2517811 C16.75,16.1127262 16.8627262,16 17.0017811,16 C17.0463601,16 17.0901398,16.0118358 17.1286462,16.0342979 L21.1250431,18.3655294 C21.2451558,18.4355951 21.2857268,18.5897651 21.2156611,18.7098778 C21.1937766,18.7473941 21.1625594,18.7786112 21.1250431,18.8004957 Z" id="三角形" fill="#000000"></path>
    </g>
</svg>