<?xml version="1.0" encoding="UTF-8"?>
<svg width="24px" height="24px" viewBox="0 0 24 24" version="1.1" xmlns="http://www.w3.org/2000/svg" xmlns:xlink="http://www.w3.org/1999/xlink">
    <title>0.图标/线型/icons_outlined_imac_lock备份</title>
    <g id="0.图标/线型/icons_outlined_imac_lock备份" stroke="none" stroke-width="1" fill="none" fill-rule="evenodd" fill-opacity="0.9">
        <g id="Group-2" transform="translate(2.000000, 4.000000)" fill="#000000">
            <path d="M19,0 C19.5522847,0 20,0.44771525 20,1 L20,5 L21,5 C21.5522847,5 22,5.44771525 22,6 L22,17 C22,17.5522847 21.5522847,18 21,18 L14,18 C13.630319,18 13.3074905,17.7994004 13.1344277,17.5011143 L6.69668101,17.5 C6.64226093,17.5 6.58820584,17.4911158 6.5366485,17.4736978 C6.27503244,17.3853143 6.13459971,17.1015836 6.22298322,16.8399675 L6.84459181,15 L1,15 C0.44771525,15 0,14.5522847 0,14 L0,1 C0,0.44771525 0.44771525,0 1,0 L19,0 Z M20.8,6.2 L14.2,6.2 L14.2,16.8 L20.8,16.8 L20.8,6.2 Z M13,14.9999878 L8.11122629,14.9999878 L7.67203442,16.3 L13,16.299 L13,14.9999878 Z M17.5,14.5 C17.9142136,14.5 18.25,14.8357864 18.25,15.25 C18.25,15.6642136 17.9142136,16 17.5,16 C17.0857864,16 16.75,15.6642136 16.75,15.25 C16.75,14.8357864 17.0857864,14.5 17.5,14.5 Z M13,13.8 L13,12.2 L1.199,12.2 L1.2,13.8 L13,13.8 Z M18.799,5 L18.8,1.2 L1.2,1.2 L1.199,11 L13,11 L13,6 C13,5.44771525 13.4477153,5 14,5 L18.799,5 Z" id="Combined-Shape"></path>
        </g>
    </g>
</svg>