<?xml version="1.0" encoding="UTF-8"?>
<svg width="24px" height="24px" viewBox="0 0 24 24" version="1.1" xmlns="http://www.w3.org/2000/svg" xmlns:xlink="http://www.w3.org/1999/xlink">
    <!-- Generator: Sketch 64 (93537) - https://sketch.com -->
    <title>点赞列表</title>
    <desc>Created with Sketch.</desc>
    <g id="点赞列表" stroke="none" stroke-width="1" fill="none" fill-rule="evenodd" fill-opacity="0.9">
        <g id="like备份" fill="#000000">
            <path d="M11.2855866,5.46446609 C11.4683933,5.6472728 11.7040956,5.87463262 11.9926934,6.14654555 C12.2812912,5.87463262 12.5169935,5.6472728 12.6998002,5.46446609 C14.6524216,3.51184464 17.8182465,3.51184464 19.770868,5.46446609 C21.002929,6.69652708 21.4575867,8.41160453 21.1348412,10.000153 L19.9019253,10.0009322 C20.2480114,8.72821247 19.9205105,7.31116492 18.9223398,6.31299423 C17.4383475,4.82900192 15.0323206,4.82900192 13.5483283,6.31299423 C13.3560635,6.50525906 13.1121912,6.74049974 12.8155986,7.0199452 L11.9926934,7.79527533 L11.1697881,7.0199452 C10.8731956,6.74049974 10.6293233,6.50525906 10.4370585,6.31299423 C8.95306616,4.82900192 6.54703924,4.82900192 5.06304693,6.31299423 C3.59452199,7.78151917 3.57756803,10.1568704 5.00865851,11.6326173 L11.9926509,18.6166823 L12,18.608 L12.0007166,19.8994997 C11.7421318,19.9015711 11.4828957,19.8039642 11.2855866,19.6066757 L4.16012597,12.4811411 C2.26206629,10.5241205 2.28006059,7.39892429 4.21451879,5.46446609 C6.16714025,3.51184464 9.33296515,3.51184464 11.2855866,5.46446609 Z" id="形状结合"></path>
            <path d="M20.5,17.5 L20.5,18.7 L14,18.7 L14,17.5 L20.5,17.5 Z M20.5,14.5 L20.5,15.7 L14,15.7 L14,14.5 L20.5,14.5 Z M20.5,11.5 L20.5,12.7 L14,12.7 L14,11.5 L20.5,11.5 Z" id="Fill-55"></path>
        </g>
    </g>
</svg>