<?xml version="1.0" encoding="UTF-8"?>
<svg width="24px" height="24px" viewBox="0 0 24 24" version="1.1" xmlns="http://www.w3.org/2000/svg" xmlns:xlink="http://www.w3.org/1999/xlink">
    <!-- Generator: Sketch 61 (89581) - https://sketch.com -->
    <title>icons_outlined_pay_fingerprint_ios</title>
    <desc>Created with Sketch.</desc>
    <g id="icons_outlined_pay_fingerprint_ios" stroke="none" stroke-width="1" fill="none" fill-rule="evenodd">
        <g id="3.Icons/Outlined/pay_fingerprint_ios" transform="translate(2.000000, 2.000000)" fill="#000000" fill-rule="nonzero">
            <path d="M11.7010808,16.9323824 C12.002065,17.0710011 12.1336883,17.4273696 11.9950695,17.7283539 C11.6793332,18.4139154 11.3061034,19.0719145 10.879784,19.6949144 C10.6926474,19.9683857 10.3192509,20.0383737 10.0457797,19.8512371 C9.77230842,19.6641005 9.70232038,19.290704 9.88945701,19.0172328 C10.2777126,18.4498573 10.6176066,17.8506287 10.9051093,17.2263711 C11.043728,16.9253869 11.4000966,16.7937636 11.7010808,16.9323824 Z M8.99103167,17.2411451 C9.27072055,17.4188549 9.35339092,17.7896498 9.17568112,18.0693386 C8.86827873,18.5531444 8.52378397,19.0125893 8.14546004,19.4431873 C7.9267435,19.6921244 7.54763526,19.7166231 7.29869809,19.4979066 C7.04976091,19.27919 7.02526225,18.9000818 7.24397879,18.6511446 C7.58138481,18.2671183 7.88865121,17.857324 8.16283811,17.4257945 C8.34054791,17.1461056 8.7113428,17.0634353 8.99103167,17.2411451 Z M15.2238606,9.0531689 C15.912259,12.4673584 15.4486879,15.9389692 13.9543619,19.0063751 C13.8092356,19.3042761 13.4500911,19.4281245 13.1521901,19.2829982 C12.8542891,19.137872 12.7304407,18.7787274 12.875567,18.4808264 C14.2556101,15.648009 14.6834287,12.4441433 14.0475002,9.29018407 C13.6071175,7.10286959 11.477219,5.68743357 9.29021266,6.12841871 C7.10313419,6.5694544 5.687793,8.69965848 6.12845641,10.8852596 C6.60790309,13.2328617 5.73334749,15.6150888 3.91094279,17.1077811 C3.65458858,17.3177553 3.27655472,17.2801569 3.06658053,17.0238026 C2.85660634,16.7674484 2.89420478,16.3894146 3.15055899,16.1794404 C4.63201813,14.9660092 5.34208079,13.0318491 4.95242664,11.1239053 C4.38047846,8.28717059 6.21628152,5.52413707 9.05301077,4.95209594 C11.889809,4.38008761 14.6526726,6.21616419 15.2238606,9.0531689 Z M6.8423081,16.3366163 C7.11324665,16.5274014 7.1782239,16.9017023 6.98743883,17.1726409 C6.64248919,17.6625123 6.2480971,18.1159988 5.8105727,18.5253288 C5.56859114,18.7517168 5.18890252,18.7390758 4.96251444,18.4970943 C4.73612637,18.2551127 4.74876738,17.8754241 4.99074895,17.649036 C5.36820946,17.2958993 5.70855891,16.9045531 6.00628354,16.481747 C6.1970686,16.2108085 6.57136955,16.1458312 6.8423081,16.3366163 Z M17.2269252,11.0247982 C17.558134,11.0144353 17.8350325,11.2745323 17.8453954,11.605741 C17.9001651,13.356238 17.6977251,15.0946353 17.2499271,16.7742495 C17.1645629,17.0944363 16.8357988,17.2847976 16.515612,17.1994334 C16.1954252,17.1140692 16.0050639,16.7853051 16.0904282,16.4651183 C16.5082356,14.8979935 16.6970785,13.276357 16.6459823,11.6432684 C16.6356195,11.3120596 16.8957164,11.0351611 17.2269252,11.0247982 Z M10.6790304,9.96942055 C11.0845887,11.9808115 10.9237837,14.0237112 10.2378842,15.9113191 C10.1247139,16.2227659 9.78049368,16.3835008 9.46904686,16.2703304 C9.15760005,16.1571601 8.9968652,15.8129399 9.11003553,15.5014931 C9.72119808,13.8195626 9.86439082,12.0004123 9.50270396,10.2066041 C9.43720753,9.88177053 9.64744183,9.56534553 9.97227542,9.4998491 C10.297109,9.43435267 10.613534,9.64458697 10.6790304,9.96942055 Z M10.1724063,7.16553656 C11.5233879,7.20334982 12.6840478,8.17021358 12.9514417,9.51132443 C13.3763381,11.6186075 13.2880992,13.7561864 12.7147097,15.7804824 C12.6244006,16.0993098 12.29273,16.2845605 11.9739026,16.1942514 C11.6550752,16.1039424 11.4698244,15.7722717 11.5601335,15.4534443 C12.0818008,13.6117487 12.1620568,11.6675536 11.7748606,9.74723794 C11.617282,8.95690835 10.9335139,8.38730951 10.1388321,8.36506679 C9.807591,8.35579552 9.54658285,8.07975569 9.55585412,7.74851456 C9.56512538,7.41727343 9.84116522,7.15626529 10.1724063,7.16553656 Z M8.83443537,8.04160125 C9.07291077,8.27167976 9.07971781,8.65151776 8.8496393,8.88999316 C8.45832129,9.29559264 8.28586088,9.86623154 8.39888141,10.4266303 C8.75324928,12.1518165 8.57473016,13.9075874 7.91006292,15.5013819 C7.78251675,15.8072227 7.43118717,15.9517591 7.12534634,15.824213 C6.8195055,15.6966668 6.67496912,15.3453372 6.80251528,15.0394964 C7.37527162,13.6660935 7.52889187,12.155208 7.22299528,10.6659777 C7.0307556,9.7128134 7.32378555,8.74323272 7.98604345,8.05680518 C8.21612196,7.81832978 8.59595996,7.81152274 8.83443537,8.04160125 Z M7.5645139,3.57766402 C7.71019604,3.87529358 7.58701831,4.23466872 7.28938875,4.38035086 C4.71589056,5.64001309 3.28363765,8.49499348 3.85787556,11.3430324 C4.15933778,12.8170503 3.62403188,14.3140278 2.49588106,15.2699451 C2.24306391,15.4841649 1.86445565,15.4528756 1.65023583,15.2000584 C1.43601601,14.9472413 1.46730532,14.568633 1.72012246,14.3544132 C2.51742117,13.6788372 2.89487272,12.6232978 2.68187965,11.5818437 C1.99881601,8.19407744 3.70119541,4.80064061 6.76182706,3.30253888 C7.05945662,3.15685674 7.41883176,3.28003446 7.5645139,3.57766402 Z M6.83982994,1.38206599 C6.97519556,1.68452721 6.83973781,2.03945599 6.5372766,2.17482161 C2.88378401,3.80993137 0.801058625,7.77237709 1.57697535,11.7486881 C1.5845085,11.7654674 1.58896111,11.7832704 1.59262933,11.8014319 C1.6179816,11.9269517 1.64564463,12.0503814 1.67566581,12.171819 C1.75519153,12.4935057 1.55888131,12.8187526 1.23719466,12.8982783 C0.915508008,12.977804 0.590261121,12.7814938 0.510735403,12.4598071 C0.482594048,12.3459735 0.456322372,12.2308269 0.431883927,12.1143138 C0.423199605,12.0901592 0.41648845,12.0652974 0.411332394,12.0397254 C-0.505514332,7.49252465 1.86769755,2.94998031 6.04707432,1.07951264 C6.34953554,0.944147022 6.70446432,1.07960477 6.83982994,1.38206599 Z M17.4962932,8.5950548 C17.5725066,8.97305001 17.6365242,9.35207143 17.6883694,9.73173309 C17.733204,10.0600569 17.5033906,10.3625615 17.1750669,10.4073961 C16.8467431,10.4522308 16.5442384,10.2224174 16.4994038,9.89409364 C16.4509808,9.5394923 16.3911776,9.18542235 16.3200051,8.83242839 C15.664401,5.58642029 12.6291057,3.39388946 9.3618876,3.77392578 C9.03273596,3.81221205 8.73486869,3.57641907 8.69658242,3.24726743 C8.65829616,2.91811579 8.89408913,2.62024852 9.22324077,2.58196225 C13.1090419,2.12997358 16.7168874,4.73608329 17.4962932,8.5950548 Z M19.7071562,7.86753702 L19.7507023,8.06278878 C19.758701,8.08655775 19.7652999,8.11109328 19.7703854,8.13631991 C19.8792559,8.67637282 19.9427556,9.22010173 19.9612304,9.76349251 C19.9724902,10.094672 19.7131441,10.3722739 19.3819646,10.3835337 C19.0507851,10.3947935 18.7731832,10.1354474 18.7619234,9.80426788 C18.7462461,9.34315819 18.6936444,8.88153028 18.6037717,8.42239395 C18.5964154,8.4072849 18.5924166,8.39099646 18.5890722,8.37440921 C17.6761063,3.84645622 13.3755251,0.834925512 8.82596577,1.50872911 C8.49817044,1.5572766 8.1930843,1.33090149 8.14453681,1.00310615 C8.09598933,0.675310819 8.32236443,0.370224682 8.65015977,0.321677194 C13.7396998,-0.432099193 18.5542102,2.86356562 19.7071562,7.86753702 Z" id="Combined-Shape"></path>
        </g>
    </g>
</svg>