<?xml version="1.0" encoding="UTF-8"?>
<svg width="24px" height="24px" viewBox="0 0 24 24" version="1.1" xmlns="http://www.w3.org/2000/svg" xmlns:xlink="http://www.w3.org/1999/xlink">
    <!-- Generator: Sketch 60.1 (88133) - https://sketch.com -->
    <title>3.Icons/Outlined/pay_reward_code</title>
    <desc>Created with Sketch.</desc>
    <g id="3.Icons/Outlined/pay_reward_code" stroke="none" stroke-width="1" fill="none" fill-rule="evenodd">
        <path d="M14.0610145,4.69686972 C13.7731086,4.27266186 12.924296,4.04256234 12.304429,4.33045574 C11.9469072,4.49648285 11.8993575,4.61336261 11.8521629,5.94410254 C11.8387901,6.32117478 11.8369012,6.36976663 11.829205,6.53219767 C11.7661637,7.86497076 11.7005902,8.36354656 11.4850665,8.93432796 C11.1155756,9.91134964 10.5715326,10.5521039 9.69197981,11.0677862 C9.00702895,11.4694055 8.61226842,11.6491262 8.10884324,11.7599722 C7.51951599,11.8896654 6.99678062,11.9464732 6.4263754,11.9464732 L4.55171537,11.9464732 C4.35458355,11.9464732 4.2,12.0990469 4.2,12.2810519 L4.2,19.5615636 C4.2,19.7436236 4.35214401,19.8949908 4.54777745,19.8961567 C11.1325373,19.9381473 14.0731678,19.9379161 14.6376585,19.8918049 C15.4732649,19.8233801 16.6289833,19.3907627 17.1232682,18.9837183 C18.7813649,17.6188105 19.5041649,13.0201247 18.606171,11.0191068 C18.4889361,10.75787 18.2297287,10.5459272 17.7745417,10.3816151 C17.3943979,10.2443918 16.9847329,10.1741163 16.671473,10.1683434 C16.3415768,10.1737422 15.9689074,10.0784979 15.6473106,9.8930475 C14.9532165,9.49279464 14.6304093,8.7840784 14.6304093,7.87621298 C14.6304093,6.03923558 14.4918071,5.33147671 14.0610145,4.69686972 Z M15.0538644,4.02288974 C15.6660317,4.92468246 15.8304093,5.87608878 15.8304093,7.87621298 C15.8304093,8.42195689 15.9877058,8.70411444 16.2467685,8.85350421 C16.3970284,8.94015234 16.5588181,8.97002636 16.6518378,8.9685041 C17.0617574,8.97521677 17.6148723,9.04818863 18.1819814,9.25290213 C18.8862434,9.50712468 19.4263879,9.9159099 19.7009807,10.5277906 C20.6811018,12.7118141 20.1879079,18.0152523 17.8859226,19.9101946 C17.1952374,20.4789749 15.807719,21 14.7355945,21.0878018 C14.0678463,21.1423477 10.648934,21.1350878 4.54012528,21.0961323 C3.68917119,21.0910615 3,20.4077152 3,19.5615636 L3,12.2810519 C3,11.4312451 3.6968711,10.7464732 4.55171537,10.7464732 L6.4263754,10.7464732 C6.89330358,10.7464732 7.32997211,10.7026634 7.85093096,10.588016 C8.21850257,10.5070828 8.5238918,10.3616213 9.08500798,10.0326122 C9.71387776,9.6639055 10.0844623,9.24544481 10.3626496,8.50985139 C10.51994,8.09329157 10.5733516,7.68464327 10.6305452,6.47549999 C10.6381312,6.31539369 10.6400273,6.26501548 10.6529168,5.90157136 C10.7113734,4.25327934 10.8861484,3.66600221 11.7990081,3.24208551 C13.0190272,2.67545522 14.4764183,3.17206591 15.0538644,4.02288974 Z" id="Stroke-9" fill="#000000" fill-rule="nonzero"></path>
        <path d="M12.3281868,16.1553989 L10.025286,14.1637947 L9.56470588,14.6485829 L11.6826265,17.2091628 C11.9869939,17.5771449 12.532041,17.6287149 12.9000231,17.3243475 C12.9350295,17.2953929 12.9676995,17.2637245 12.9977298,17.2296365 L17.5647059,12.0455619 L17.5647059,12.0455619 L17.1041257,11.5607736 L12.3281868,16.1553989 Z" id="Rectangle-47" fill="#000000"></path>
    </g>
</svg>