<?xml version="1.0" encoding="UTF-8"?>
<svg width="24px" height="24px" viewBox="0 0 24 24" version="1.1" xmlns="http://www.w3.org/2000/svg" xmlns:xlink="http://www.w3.org/1999/xlink">
    <!-- Generator: Sketch 64 (93537) - https://sketch.com -->
    <title>3.Icons/outlined/favorites2</title>
    <desc>Created with Sketch.</desc>
    <g id="3.Icons/outlined/favorites2" stroke="none" stroke-width="1" fill="none" fill-rule="evenodd">
        <rect id="矩形" fill="#D8D8D8" opacity="0" x="0" y="0" width="24" height="24"></rect>
        <path d="M18,3 C19.6568542,3 21,4.34314575 21,6 L21,18 C21,19.6568542 19.6568542,21 18,21 L6,21 C4.34314575,21 3,19.6568542 3,18 L3,6 C3,4.34314575 4.34314575,3 6,3 L18,3 Z M18,4.2 L6,4.2 C5.05559308,4.2 4.28105931,4.92731342 4.20596695,5.85237201 L4.2,6 L4.2,18 C4.2,18.9444069 4.92731342,19.7189407 5.85237201,19.7940331 L6,19.8 L18,19.8 C18.9444069,19.8 19.7189407,19.0726866 19.7940331,18.147628 L19.8,18 L19.8,6 C19.8,5.05559308 19.0726866,4.28105931 18.147628,4.20596695 L18,4.2 Z M12.2375785,7.05809942 C12.3434619,7.11274235 12.4291659,7.20236009 12.4814225,7.31307877 L13.7356647,9.97050561 L16.5402356,10.3966438 C16.8336753,10.4412303 17.0369893,10.7261178 16.99435,11.0329578 C16.9773708,11.1551431 16.9223455,11.268068 16.8377926,11.3542505 L14.808386,13.4227688 L15.2874639,16.3435636 C15.3375894,16.6491638 15.1413054,16.939392 14.8490513,16.9918066 C14.7326742,17.0126783 14.6129627,16.992852 14.5084496,16.9353971 L11.9999651,15.5563848 L9.49148071,16.9353971 C9.22902019,17.0796819 8.90439604,16.9741654 8.76641237,16.6997193 C8.71146655,16.5904334 8.69250612,16.4652552 8.71246635,16.3435636 L9.19154425,13.4227688 L7.16213771,11.3542505 C6.94980269,11.1378233 6.94545793,10.7823822 7.15243343,10.5603506 C7.23485216,10.4719365 7.34284546,10.4143984 7.45969472,10.3966438 L10.2642656,9.97050561 L11.5185078,7.31307877 C11.649738,7.03503453 11.971677,6.92087639 12.2375785,7.05809942 Z M12,9.104 L11.0765913,11.0608506 L8.882,11.394 L10.4741923,13.0166491 L10.111,15.224 L11.9999651,14.1870102 L13.888,15.224 L13.525738,13.0166491 L15.117,11.394 L12.923339,11.0608506 L12,9.104 Z" id="形状" fill="#000000" fill-rule="nonzero"></path>
    </g>
</svg>