<?xml version="1.0" encoding="UTF-8"?>
<svg width="24px" height="24px" viewBox="0 0 24 24" version="1.1" xmlns="http://www.w3.org/2000/svg" xmlns:xlink="http://www.w3.org/1999/xlink">
    <!-- Generator: Sketch 61 (89581) - https://sketch.com -->
    <title>icons_filled_wechatpay</title>
    <desc>Created with Sketch.</desc>
    <g id="icons_filled_wechatpay" stroke="none" stroke-width="1" fill="none" fill-rule="evenodd">
        <g id="3.Icons/Filled/pay_logo" transform="translate(2.000000, 3.000000)" fill="#000000" fill-rule="nonzero">
            <path d="M7.27360869,11.3861635 C7.18330148,11.4322224 7.08163661,11.4593491 6.97387739,11.4593491 C6.72373196,11.4593491 6.50627441,11.3189118 6.39214383,11.1115053 L6.34865232,11.0143012 L4.52782626,6.93907474 C4.50815812,6.89471123 4.49596942,6.84441375 4.49596942,6.79552911 C4.49596942,6.60790254 4.64528103,6.45587981 4.82921965,6.45587981 C4.90456799,6.45587981 4.97299094,6.48102856 5.02894817,6.52341408 L7.17720712,8.08348378 C7.33372116,8.18803472 7.52181501,8.24963501 7.72348264,8.24963501 C7.84343057,8.24963501 7.9583922,8.2270294 8.06504335,8.18718701 L18.1680933,3.6007912 C16.3572398,1.42330576 13.3746087,0 9.99972298,0 C4.4765783,0 0,3.80593711 0,8.50083986 C0,11.0620555 1.3465747,13.3681104 3.45494335,14.9264847 C3.62420012,15.0494027 3.73472949,15.2514403 3.73472949,15.4803221 C3.73472949,15.5560509 3.71949361,15.6244329 3.69954846,15.6967709 C3.53139976,16.3376399 3.26186321,17.3633695 3.24939749,17.411689 C3.22834428,17.4916563 3.19537937,17.5758622 3.19537937,17.6603507 C3.19537937,17.8476947 3.34441397,18 3.52918363,18 C3.60120779,18 3.66021219,17.9725907 3.72143273,17.9369869 L5.91069005,16.6473368 C6.07523754,16.5504152 6.2494806,16.4905104 6.44172969,16.4905104 C6.54394859,16.4905104 6.64284329,16.5066169 6.73564365,16.5357216 C7.75700158,16.8352459 8.85897116,17.0016797 9.99972298,17.0016797 C15.5225907,17.0016797 20,13.1957426 20,8.50083986 C20,7.07922953 19.5869692,5.7398471 18.8606333,4.56209479 L7.34674091,11.3429303 L7.27360869,11.3861635 Z" id="Symbol"></path>
        </g>
    </g>
</svg>