<?xml version="1.0" encoding="UTF-8"?>
<svg width="321px" height="317px" viewBox="0 0 321 317" version="1.1" xmlns="http://www.w3.org/2000/svg" xmlns:xlink="http://www.w3.org/1999/xlink">
    <title>活动页默认背景@2x</title>
    <g id="页面-1" stroke="none" stroke-width="1" fill="none" fill-rule="evenodd" fill-opacity="0.05">
        <path d="M120.932882,310.911228 L0.903717,62.8513495 C-1.266577,58.171561 0.597608,52.6124619 5.151325,50.1847536 C5.593,49.5960582 6.153089,49.1062789 6.79556,48.7469238 C20.36273,39.0711355 35.366561,31.5853395 51.258418,26.5632636 C67.38901,21.4398699 84.148526,18.5600019 101.065041,18.0047529 L107.916021,18.0047529 C127.054056,18.0424672 146.079885,20.9269097 164.368094,26.5632636 C185.71253,34.0847198 208.018884,38.534053 230.617068,39.7776042 C253.225301,39.7776042 251.09541,36.2296418 296.70744,8.73807214 C342.31947,-18.7534975 309.99374,26.6618942 306.24804,34.980333 C302.50234,43.2987718 295.52016,56.0614173 292.58976,63.4733827 C284.25024,85.8059023 276.14534,100.318672 259.459693,117.351947 C250.113141,126.809884 239.105416,134.468825 226.986049,139.946415 L224.656716,140.904969 C214.369207,145.103606 203.363865,147.26613 192.251582,147.2725 L185.058053,147.2725 C177.796014,146.656288 170.876525,146.382415 164.505114,146.382415 C109.697276,146.382415 97.091473,168.292203 85.992886,187.463267 L85.444807,188.490289 L140.732214,302.831994 C141.773346,305.210867 141.773346,307.916141 140.732214,310.295015 C139.659813,312.98251 137.529503,315.111523 134.840371,316.18327 C133.565754,316.640646 132.221084,316.868812 130.866803,316.868812 C126.69469,316.919946 122.850324,314.614731 120.932882,310.911228 Z" id="活动页默认背景" fill="#07C160" fill-rule="nonzero"></path>
    </g>
</svg>