<?xml version="1.0" encoding="UTF-8"?>
<svg width="24px" height="24px" viewBox="0 0 24 24" version="1.1" xmlns="http://www.w3.org/2000/svg" xmlns:xlink="http://www.w3.org/1999/xlink">
    <!-- Generator: Sketch 63.1 (92452) - https://sketch.com -->
    <title>美食</title>
    <desc>Created with Sketch.</desc>
    <g id="美食" stroke="none" stroke-width="1" fill="none" fill-rule="evenodd">
        <path d="M16,2 C17.6568542,2 19,4.18117686 19,6.87179487 C19,8.90887776 18.2300962,10.6539442 17.1370441,11.3814939 L17.833909,19.9558036 C17.9183124,20.9946138 17.1656657,21.9069128 16.1528258,21.9934803 C16.1019939,21.9978249 16.051008,22 16,22 C14.9836493,22 14.1597342,21.1549589 14.1597342,20.1125479 L14.1613241,20.034108 L14.1613241,20.034108 L14.8639734,11.3821708 C13.7703816,10.655027 13,8.9095098 13,6.87179487 C13,4.18117686 14.3431458,2 16,2 Z" id="路径" fill="#000000"></path>
        <path d="M10.2379901,2 C10.515776,2 10.7439215,2.22627784 10.7546571,2.5124374 L10.9988817,9.02231176 C11.0186823,9.55010381 10.7744653,10.0514687 10.3520081,10.3503096 L9.12280265,11.2194872 L9.82908206,19.9558036 C9.91305365,20.9946138 9.16425696,21.9069128 8.15659783,21.9934803 C8.10602604,21.9978249 8.0553009,22 8.00455381,22 C6.99340192,22 6.17370136,21.1549589 6.17370136,20.1125479 L6.1752831,20.034108 L6.1752831,20.034108 L6.88530671,11.2266667 L5.64770058,10.3503409 C5.22541555,10.0514701 4.9813225,9.55021179 5.00111831,9.0225491 L5.24535182,2.5124374 C5.25608739,2.22627784 5.48423292,2 5.76201884,2 C6.03901005,2 6.2657369,2.2271742 6.2736221,2.51261268 L6.39317988,6.84051904 C6.40075013,7.11455671 6.61842119,7.33265725 6.88434898,7.33265725 C7.15024587,7.33265725 7.36786184,7.11452233 7.3753221,6.84051333 L7.4931547,2.51261863 C7.50092532,2.22721001 7.7275948,2 8.00455381,2 C8.28154502,2 8.50827187,2.2271742 8.51615707,2.51261268 L8.63587461,6.84630221 C8.6433559,7.11711963 8.85846909,7.33265725 9.12127194,7.33265725 C9.38407478,7.33265725 9.59918797,7.11711963 9.60666926,6.84630221 L9.7263868,2.51261268 C9.734272,2.2271742 9.96099885,2 10.2379901,2 Z" id="路径" fill="#000000"></path>
    </g>
</svg>