<?xml version="1.0" encoding="UTF-8"?>
<svg width="32px" height="32px" viewBox="0 0 32 32" version="1.1" xmlns="http://www.w3.org/2000/svg" xmlns:xlink="http://www.w3.org/1999/xlink">
    <title>画板</title>
    <g id="画板" stroke="none" stroke-width="1" fill="none" fill-rule="evenodd">
        <g id="编组备份">
            <path d="M22.3125098,19.1513999 C23.0893054,19.490896 23.7728154,19.8964037 24.3332788,20.359447 C25.3930648,21.2350204 26,22.3068779 26,23.4794521 C26,26.7296997 21.4469252,29 16,29 C10.5530748,29 6,26.7296997 6,23.4794521 C6,22.2433877 6.67284628,21.1224406 7.83775674,20.2228591 C8.3644067,19.816163 8.98830037,19.4569406 9.68767016,19.1512957 C10.1492415,19.7662183 10.6242093,20.3488609 11.0938132,20.8912746 C10.3235986,21.1704729 9.66252749,21.516492 9.14972624,21.9124937 C8.46744258,22.4393752 8.14285714,22.9801274 8.14285714,23.4794521 C8.14285714,25.1468083 11.5846976,26.8630137 16,26.8630137 C20.4153024,26.8630137 23.8571429,25.1468083 23.8571429,23.4794521 C23.8571429,23.0098695 23.5712063,22.5049009 22.9662173,22.0050714 C22.4409944,21.5711431 21.7380852,21.1928238 20.9086453,20.8899423 C21.3761871,20.3495664 21.8490483,19.7695934 22.3072237,19.1580326 L22.3125098,19.1513999 Z M16,3 C20.4380025,3 24.0357143,6.58707244 24.0357143,11.0119505 C24.0357143,16.8383098 17.1540774,22.8173167 16.6953016,23.2094434 L16.6712991,23.2298435 C16.3357056,23.5356187 15.803898,23.5645917 15.4378526,23.316931 L15.3424038,23.2425286 L15.3183566,23.2220872 C14.8587271,22.8291703 7.96428571,16.8383098 7.96428571,11.0119505 C7.96428571,6.58707244 11.5619975,3 16,3 Z M16,7.80717032 C14.224799,7.80717032 12.7857143,9.2419993 12.7857143,11.0119505 C12.7857143,12.7819018 14.224799,14.2167308 16,14.2167308 C17.775201,14.2167308 19.2142857,12.7819018 19.2142857,11.0119505 C19.2142857,9.2419993 17.775201,7.80717032 16,7.80717032 Z" id="形状结合" fill="#000000" fill-rule="nonzero"></path>
            <g id="Location" opacity="0.7"></g>
        </g>
    </g>
</svg>