<?xml version="1.0" encoding="UTF-8"?>
<svg width="24px" height="24px" viewBox="0 0 24 24" version="1.1" xmlns="http://www.w3.org/2000/svg" xmlns:xlink="http://www.w3.org/1999/xlink">
    <!-- Generator: Sketch 62 (91390) - https://sketch.com -->
    <title>话题</title>
    <desc>Created with Sketch.</desc>
    <g id="话题" stroke="none" stroke-width="1" fill="none" fill-rule="evenodd" opacity="0.9">
        <g id="编组备份-4" fill="#000000">
            <path d="M9.10442813,2.07312514 L10.5296123,2.07445193 L9.848,7.916 L15.096,7.916 L15.7849787,2.07934448 L17.2101628,2.08067127 L16.529,7.916 L21.5,7.91622956 L21.5,9.3522807 L16.362,9.352 L15.744,14.647 L21.5,14.6477193 L21.5,16.0837704 L15.577,16.083 L14.8955719,21.9268749 L13.4451956,21.9255246 L14.134,16.083 L8.896,16.083 L8.21502128,21.9206555 L6.78983715,21.9193287 L7.47,16.083 L2.5,16.0837704 L2.5,14.6477193 L7.637,14.647 L8.255,9.352 L2.5,9.3522807 L2.5,7.91622956 L8.422,7.916 L9.10442813,2.07312514 Z M14.927,9.352 L9.68,9.352 L9.063,14.647 L14.303,14.647 L14.927,9.352 Z" id="形状结合"></path>
        </g>
    </g>
</svg>