<?xml version="1.0" encoding="UTF-8"?>
<svg width="20px" height="20px" viewBox="0 0 20 20" version="1.1" xmlns="http://www.w3.org/2000/svg" xmlns:xlink="http://www.w3.org/1999/xlink">
    <title>编组 14</title>
    <g id="页面-2" stroke="none" stroke-width="1" fill="none" fill-rule="evenodd">
        <g id="编组-14">
            <rect id="矩形" x="0" y="0" width="20" height="20"></rect>
            <g id="编组">
                <rect id="矩形" fill="#FFFFFF" opacity="0" x="0" y="0" width="20" height="20"></rect>
                <path d="M16.6666667,10.8946667 L14.8862144,10.8946667 C15.0122748,10.6478809 15.0833333,10.3687546 15.0833333,10.0729424 C15.0833333,9.06458213 14.2570437,8.25 13.2413141,8.25 C12.7382356,8.25 12.2657834,8.45142612 11.9213195,8.80152521 C10.8798603,9.82835707 10.411792,10.2898513 9.99996369,10.695904 L8.03709503,8.76064421 C7.68921351,8.43226351 7.23764193,8.25 6.75888933,8.25 C5.74314405,8.25 4.91666667,9.06459658 4.91666667,10.0729424 C4.91666667,10.3687529 4.98774257,10.6478797 5.11382825,10.8946667 L3.33333333,10.8946667 L3.33333333,4.00743456 C3.33333333,3.54602926 3.66017178,3.0034577 4.07815163,2.79902953 C4.07815163,2.79902953 3.90770709,2.86885244 4.22491963,2.73315882 C5.77955235,2.06813548 7.79626758,1.66666667 10,1.66666667 C12.2008987,1.66666667 14.2152608,2.06710366 15.7690809,2.73059471 C16.0885364,2.86700425 15.9168703,2.79682633 15.9168703,2.79682633 C16.3309714,3.00402149 16.6666667,3.54618652 16.6666667,4.00743456 L16.6666667,10.8946667 Z M16.6666667,11.8946667 L16.6666667,17.4745518 C16.6666667,17.9359571 16.2961409,18.31 15.832607,18.31 L4.16739305,18.31 C3.70675459,18.31 3.33333333,17.9357998 3.33333333,17.4745518 L3.33333333,11.8946667 L6.68057911,11.8946667 C6.70654886,11.8957426 6.73265593,11.8962859 6.75888933,11.8962859 L8.78234932,11.8962859 C8.0769136,12.5856891 6.99165818,13.4892304 5.53037254,14.6022378 L6.13629413,15.3977622 C7.65651285,14.2398676 8.78462266,13.2985673 9.52463674,12.5689152 L9.99998276,12.1002252 C10.1408601,12.2391216 10.2990575,12.3950938 10.4856797,12.5790911 C11.223503,13.3065366 12.3482275,14.2444831 13.8638729,15.3978893 L14.4694605,14.6021107 C13.005671,13.4881669 11.9204234,12.5846411 11.2175704,11.8962859 L13.2413141,11.8962859 C13.2675474,11.8962859 13.2936541,11.8957426 13.3196235,11.8946667 L16.6666667,11.8946667 Z M13.2946233,10.8946667 L11.2226617,10.8946667 L12.6287816,9.50823584 C12.7921778,9.3422485 13.00855,9.25 13.2413141,9.25 C13.707928,9.25 14.0833333,9.62008633 14.0833333,10.0729424 C14.0833333,10.5087674 13.736227,10.8677538 13.2946233,10.8946667 L13.2946233,10.8946667 Z M6.70557705,10.8946667 C6.26390623,10.8677516 5.91666667,10.5087092 5.91666667,10.0729424 C5.91666667,9.62014839 6.29221363,9.25 6.75888933,9.25 C6.98050653,9.25 7.18715477,9.33340745 7.34293088,9.48037691 C8.00801784,10.136168 8.44241745,10.564496 8.77727289,10.8946667 L6.70557705,10.8946667 L6.70557705,10.8946667 Z" id="形状" fill="#FA5151"></path>
            </g>
        </g>
    </g>
</svg>