<?xml version="1.0" encoding="UTF-8"?>
<svg width="24px" height="24px" viewBox="0 0 24 24" version="1.1" xmlns="http://www.w3.org/2000/svg" xmlns:xlink="http://www.w3.org/1999/xlink">
    <title>icons_outlined_showon profile</title>
    <g id="icons_outlined_showon-profile" stroke="none" stroke-width="1" fill="none" fill-rule="evenodd" fill-opacity="0.9">
        <path d="M18.0101616,13.7768921 C20.4058343,13.7768921 22.2944459,15.3674799 23.658665,17.6967714 C23.7194381,17.7863444 23.7498246,17.8816126 23.7498246,17.982576 C23.7498246,18.0835395 23.7195538,18.1902259 23.6590121,18.3026353 C22.3013133,20.6268951 20.3956964,22.1882599 18,22.1882599 C15.6051376,22.1882599 13.6937945,20.6278498 12.3227862,18.3049737 C12.2682589,18.2029845 12.2409091,18.1013266 12.2407367,18 C12.2405672,17.8986734 12.267575,17.7975971 12.3217602,17.6967714 C13.6859794,15.3674799 15.6144888,13.7768921 18.0101616,13.7768921 Z M19,2 C19.5522847,2 20,2.44771525 20,3 L20,12 L18.799,12 L18.8,3.2 L5.2,3.2 L5.2,20.8 L12,20.8 L12,22 L5,22 C4.44771525,22 4,21.5522847 4,21 L4,3 C4,2.44771525 4.44771525,2 5,2 L19,2 Z M18.0101616,14.9768921 C16.3000318,14.9768921 14.8985022,16.0725842 13.801912,17.6170911 L13.6542668,17.8304269 L13.544,17.998 L13.6547532,18.166735 C14.6778121,19.6721158 15.959078,20.8064201 17.531655,20.9670298 L17.7582941,20.9832852 L18,20.9882599 C19.710109,20.9882599 21.0906308,19.9191059 22.1805538,18.3812878 L22.327382,18.1687367 L22.436,18 L22.3261585,17.8304269 C21.3079758,16.3215777 20.0479817,15.1613981 18.4781306,14.9983206 L18.2517509,14.9818768 L18.0101616,14.9768921 Z M18,16.2 C18.9941125,16.2 19.8,17.0058875 19.8,18 C19.8,18.9941125 18.9941125,19.8 18,19.8 C17.0058875,19.8 16.2,18.9941125 16.2,18 C16.2,17.0058875 17.0058875,16.2 18,16.2 Z M18,17.4 C17.6686292,17.4 17.4,17.6686292 17.4,18 C17.4,18.3313708 17.6686292,18.6 18,18.6 C18.3313708,18.6 18.6,18.3313708 18.6,18 C18.6,17.6686292 18.3313708,17.4 18,17.4 Z M11,16 L11,17.2 L7,17.2 L7,16 L11,16 Z M11,13 L11,14.2 L7,14.2 L7,13 L11,13 Z M14.5,10 L14.5,11.2 L7,11.2 L7,10 L14.5,10 Z M8.5,5 C9.32842712,5 10,5.67157288 10,6.5 C10,7.32842712 9.32842712,8 8.5,8 C7.67157288,8 7,7.32842712 7,6.5 C7,5.67157288 7.67157288,5 8.5,5 Z" id="形状结合" fill="#000000"></path>
    </g>
</svg>