<?xml version="1.0" encoding="UTF-8"?>
<svg width="24px" height="24px" viewBox="0 0 24 24" version="1.1" xmlns="http://www.w3.org/2000/svg" xmlns:xlink="http://www.w3.org/1999/xlink">
    <title>旋转屏幕备份</title>
    <g id="旋转屏幕备份" stroke="none" stroke-width="1" fill="none" fill-rule="evenodd">
        <rect id="矩形" fill="#D8D8D8" opacity="0" transform="translate(12.000000, 12.000000) scale(-1, 1) translate(-12.000000, -12.000000) " x="0" y="0" width="24" height="24"></rect>
        <path d="M11.060935,3.06023349 C12.1702725,3.28584993 13.0571492,4.12363096 13.3535115,5.2055231 L13.3996059,5.39890436 L12.1571818,5.39933814 C11.9763417,4.8883336 11.571275,4.48332462 11.0602335,4.30256279 L11.060935,3.06023349 Z" id="路径" fill="#000000" fill-rule="nonzero" transform="translate(12.229920, 4.229786) scale(-1, 1) translate(-12.229920, -4.229786) "></path>
        <path d="M20.9393182,3.06002971 L20.9397665,4.3022978 C20.4282822,4.48296012 20.0228555,4.88822518 19.8419738,5.39960585 L18.5996445,5.39890436 C18.8253251,4.28925111 19.6635188,3.40218541 20.7458578,3.10607502 L20.9393182,3.06002971 Z" id="路径" fill="#000000" fill-rule="nonzero" transform="translate(19.769705, 4.229818) scale(-1, 1) translate(-19.769705, -4.229818) "></path>
        <polygon id="路径" fill="#000000" fill-rule="nonzero" transform="translate(16.000000, 3.600000) scale(-1, 1) translate(-16.000000, -3.600000) " points="17.4 3 17.4 4.2 14.6 4.2 14.6 3"></polygon>
        <path d="M20.9393182,15.6 L20.9397665,16.8422681 C20.4282822,17.0229304 20.0228555,17.4281955 19.8419738,17.9395761 L18.5996445,17.9388747 C18.8253251,16.8292214 19.6635188,15.9421557 20.7458578,15.6460453 L20.9393182,15.6 Z" id="路径" fill="#000000" fill-rule="nonzero" transform="translate(19.769705, 16.769788) scale(-1, -1) translate(-19.769705, -16.769788) "></path>
        <polygon id="路径" fill="#000000" fill-rule="nonzero" transform="translate(11.600000, 7.550204) scale(-1, 1) translate(-11.600000, -7.550204) " points="11 6.74970439 12.2 6.74970439 12.2 8.35070439 11 8.35070439"></polygon>
        <polygon id="路径" fill="#000000" fill-rule="nonzero" transform="translate(11.600000, 10.500803) scale(-1, 1) translate(-11.600000, -10.500803) " points="11 9.70080293 12.2 9.70080293 12.2 11.3008029 11 11.3008029"></polygon>
        <polygon id="路径" fill="#000000" fill-rule="nonzero" transform="translate(20.400000, 13.450401) scale(-1, 1) translate(-20.400000, -13.450401) " points="19.8 12.6509015 21 12.6509015 21 14.2499015 19.8 14.2499015"></polygon>
        <polygon id="路径" fill="#000000" fill-rule="nonzero" transform="translate(20.400000, 10.500803) scale(-1, 1) translate(-20.400000, -10.500803) " points="19.8 9.70080293 21 9.70080293 21 11.3008029 19.8 11.3008029"></polygon>
        <polygon id="路径" fill="#000000" fill-rule="nonzero" transform="translate(20.400000, 7.550204) scale(-1, 1) translate(-20.400000, -7.550204) " points="19.8 6.74970439 21 6.74970439 21 8.35070439 19.8 8.35070439"></polygon>
        <path d="M15,11 C16.6568542,11 18,12.3431458 18,14 L18,18 C18,19.6568542 16.6568542,21 15,21 L6,21 C4.34314575,21 3,19.6568542 3,18 L3,14 C3,12.3431458 4.34314575,11 6,11 L15,11 Z M15,12.2 L6,12.2 C5.05559308,12.2 4.28105931,12.9273134 4.20596695,13.852372 L4.2,14 L4.2,18 C4.2,18.9444069 4.92731342,19.7189407 5.85237201,19.7940331 L6,19.8 L15,19.8 C15.9444069,19.8 16.7189407,19.0726866 16.7940331,18.147628 L16.8,18 L16.8,14 C16.8,13.0555931 16.0726866,12.2810593 15.147628,12.2059669 L15,12.2 Z" id="矩形备份" fill="#000000" fill-rule="nonzero" transform="translate(10.500000, 16.000000) scale(-1, 1) rotate(-180.000000) translate(-10.500000, -16.000000) "></path>
    </g>
</svg>