<?xml version="1.0" encoding="UTF-8"?>
<svg width="24px" height="24px" viewBox="0 0 24 24" version="1.1" xmlns="http://www.w3.org/2000/svg" xmlns:xlink="http://www.w3.org/1999/xlink">
    <title>icon_star_off</title>
    <g id="20201126" stroke="none" stroke-width="1" fill="none" fill-rule="evenodd">
        <g id="画板" transform="translate(-149.000000, -148.000000)" fill-rule="nonzero">
            <g id="icon_star_off" transform="translate(149.000000, 148.000000)">
                <rect id="Rectangle-11" stroke-opacity="0.1" stroke="#000000" stroke-width="0.5" fill="#FFFFFF" opacity="0" x="0.25" y="0.25" width="23.5" height="23.5"></rect>
                <path d="M12.4425657,3.36281539 C12.6397783,3.46014562 12.7994058,3.61977315 12.8967361,3.81698575 L15.2328189,8.55040653 L20.4564589,9.30944585 C21.0030037,9.38886347 21.3816852,9.89630632 21.3022676,10.4428512 C21.270643,10.6604882 21.1681559,10.8616306 21.0106722,11.0151392 L17.2308108,14.6995935 L17.7123389,17.5133284 L21.4264502,21.2279221 L20.5779221,22.0764502 L18.0643389,19.5633284 L18.0643389,19.5653284 L16.5953389,18.0963284 L16.5953389,18.0943284 L8.32733895,9.82632843 L8.32533895,9.82632843 L7.26733895,8.76832843 L7.26933895,8.76832843 L3.85,5.34852817 L4.69852817,4.5 L8.75133895,8.55232843 L8.76718111,8.55040653 L11.1032639,3.81698575 C11.3476862,3.32173209 11.9473121,3.11839309 12.4425657,3.36281539 Z M5.78433895,8.98332843 L6.84333895,10.0423284 L4.11713169,10.4387008 L8.05856585,14.2806496 L7.12811946,19.7055683 L12,17.1442691 L16.1013389,19.3003284 L17.6996174,20.8985289 C17.5849586,20.9765301 17.4521494,21.0318078 17.3065518,21.0567797 C17.0897942,21.0939566 16.8668261,21.0586419 16.6721656,20.9563028 L12,18.5 L7.32783438,20.9563028 C6.83898979,21.2133036 6.23436264,21.0253571 5.97736183,20.5365125 C5.87502276,20.3418521 5.83970808,20.118884 5.87688493,19.9021263 L6.76918916,14.6995935 L2.98932777,11.0151392 C2.59384419,10.629638 2.58575189,9.99652475 2.9712531,9.60104117 C3.1247617,9.44355754 3.32590411,9.34107036 3.54354115,9.30944585 L5.78433895,8.98332843 Z M12,4.71146175 L9.65633895,9.45732843 L16.2433389,16.0443284 L15.9414342,14.2806496 L19.8828683,10.4387008 L14.4359403,9.64721585 L12,4.71146175 Z" id="形状结合" fill="#000000"></path>
            </g>
        </g>
    </g>
</svg>