<?xml version="1.0" encoding="UTF-8"?>
<svg width="24px" height="24px" viewBox="0 0 24 24" version="1.1" xmlns="http://www.w3.org/2000/svg" xmlns:xlink="http://www.w3.org/1999/xlink">
    <title>icons_filled_star_off_web</title>
    <g id="icons_filled_star_off_web" stroke="none" stroke-width="1" fill="none" fill-rule="evenodd">
        <g id="Group-25"></g>
        <g id="icons_outlined_star_off" fill-rule="nonzero">
            <rect id="Rectangle-11" stroke-opacity="0.1" stroke="#000000" stroke-width="0.5" fill="#FFFFFF" opacity="0" x="0.25" y="0.25" width="23.5" height="23.5"></rect>
            <path d="M12.4425657,3.36281539 C12.6397783,3.46014562 12.7994058,3.61977315 12.8967361,3.81698575 L15.2328189,8.55040653 L20.4564589,9.30944585 C21.0030037,9.38886347 21.3816852,9.89630632 21.3022676,10.4428512 C21.270643,10.6604882 21.1681559,10.8616306 21.0106722,11.0151392 L17.2308108,14.6995935 C17.4035388,15.7066749 17.5416464,16.5119041 17.6451337,17.115281 L21.7509666,21.2195957 L20.6195957,22.3509666 L3.649033,5.38040385 L4.78040385,4.249033 L8.871033,8.33932843 L11.1032639,3.81698575 C11.3476862,3.32173209 11.9473121,3.11839309 12.4425657,3.36281539 Z M12,5.616 L10.065033,9.53332843 L15.685033,15.1543284 L15.5116419,14.1410016 L19.023,10.717 L14.1703141,10.012819 L12,5.616 Z" id="形状结合" fill="#FA9D3B"></path>
            <path d="M17.6880858,20.9062566 C17.5760863,20.9801833 17.4472939,21.0326406 17.3065518,21.0567797 C17.0897942,21.0939566 16.8668261,21.0586419 16.6721656,20.9563028 L12,18.5 L7.32783438,20.9563028 C6.83898979,21.2133036 6.23436264,21.0253571 5.97736183,20.5365125 C5.87502276,20.3418521 5.83970808,20.118884 5.87688493,19.9021263 L6.76918916,14.6995935 L2.98932777,11.0151392 C2.59384419,10.629638 2.58575189,9.99652475 2.9712531,9.60104117 C3.1247617,9.44355754 3.32590411,9.34107036 3.54354115,9.30944585 C4.53682672,9.16511301 5.2817909,9.05686235 5.77843369,8.98469389 C5.77843369,8.98378358 9.74831771,12.9576378 17.6880858,20.9062566 Z M7.18612957,10.3926104 L4.977,10.718 L8.48835807,14.1410016 L7.659,18.974 L12,16.6923588 L15.1512251,18.3678777 L7.18612957,10.3926104 Z" id="Path" fill="#FA9D3B"></path>
        </g>
    </g>
</svg>