<?xml version="1.0" encoding="UTF-8"?>
<svg width="24px" height="24px" viewBox="0 0 24 24" version="1.1" xmlns="http://www.w3.org/2000/svg" xmlns:xlink="http://www.w3.org/1999/xlink">
    <title>icons_outlined_goods</title>
    <defs>
        <filter id="filter-1">
            <feColorMatrix in="SourceGraphic" type="matrix" values="0 0 0 0 0.000000 0 0 0 0 0.000000 0 0 0 0 0.000000 0 0 0 0.900000 0"></feColorMatrix>
        </filter>
    </defs>
    <g id="icons_outlined_goods" stroke="none" stroke-width="1" fill="none" fill-rule="evenodd">
        <g filter="url(#filter-1)" id="编组">
            <g transform="translate(3.000000, 1.843891)">
                <path d="M7.95709998,0.293436333 C8.54807665,-0.0677160768 9.27975228,-0.0954970314 9.89237494,0.210093469 L10.0429,0.293436333 L17.52145,4.86366133 C17.7815479,5.02261001 17.9528643,5.28997442 17.9916294,5.58771018 L18,5.71694316 L18,15.0677052 C18,15.3905204 17.8444311,15.6907804 17.5868943,15.8773894 L17.4856429,15.9418625 L9.97128586,20.1165053 C9.41757788,20.4241208 8.754267,20.4497555 8.18229187,20.1934092 L8.02871414,20.1165053 L0.514357069,15.9418625 C0.232165793,15.7850895 0.0452423112,15.5032787 0.00718760257,15.1875257 L0,15.0677052 L0,5.71694316 C0,5.41212261 0.138804225,5.12652421 0.372642691,4.93819235 L0.478549991,4.86366133 L7.95709998,0.293436333 Z M9.41716001,1.31737453 C9.19308135,1.18043758 8.9184329,1.16332046 8.6817118,1.26602317 L8.58283999,1.31737453 L1.2,5.82810854 L1.2,14.9491085 L8.61148566,19.0675166 C8.81858682,19.1825728 9.06402035,19.1990094 9.28207362,19.1168264 L9.38851434,19.0675166 L16.8,14.9491085 L16.8,5.82910854 L9.41716001,1.31737453 Z" id="路径-86" fill="#979797" fill-rule="nonzero"></path>
                <path d="M14.305,6.36610854 L14.894,7.41210854 L9.59967738,10.4998412 L9.6,17.1561085 L8.4,17.1561085 L8.39967738,10.4998412 L3.106,7.41210854 L3.694,6.36710854 L9,9.46110854 L14.305,6.36610854 Z" id="形状结合" fill="#979797" fill-rule="nonzero"></path>
            </g>
        </g>
    </g>
</svg>