<?xml version="1.0" encoding="UTF-8"?>
<svg width="24px" height="24px" viewBox="0 0 24 24" version="1.1" xmlns="http://www.w3.org/2000/svg" xmlns:xlink="http://www.w3.org/1999/xlink">
    <title>减免优惠</title>
    <g id="减免优惠" stroke="none" stroke-width="1" fill="none" fill-rule="evenodd" opacity="0.900000036">
        <g id="编组-2" fill="#000000" fill-rule="nonzero">
            <g id="youhui" transform="translate(2.000000, 2.000000)">
                <rect id="矩形" opacity="0" x="0" y="0" width="20" height="20"></rect>
                <path d="M18.6525,2.614375 C18.5889908,2.03081104 18.1279747,1.57005492 17.544375,1.506875 L10.770625,0.773125 C10.3942676,0.732534055 10.0197541,0.864417944 9.751875,1.131875 L1.255625,9.62875 C0.767647577,10.1168748 0.767647577,10.9081252 1.255625,11.39625 L8.76875,18.909375 C9.25687481,19.3973524 10.0481252,19.3973524 10.53625,18.909375 L19.0325,10.413125 C19.3003734,10.1452507 19.4323131,9.77034868 19.39125,9.39375 L18.6525,2.614375 Z M9.6525,18.025625 L2.139375,10.5125 L10.635625,2.01625 L17.41,2.749375 L18.14875,9.529375 L9.6525,18.025625 Z M13.864375,3.915625 C12.6562521,3.915625 11.676875,4.89500211 11.676875,6.103125 C11.676875,7.31124789 12.6562521,8.290625 13.864375,8.290625 C15.0724979,8.290625 16.051875,7.31124789 16.051875,6.103125 C16.051875,4.89500211 15.0724979,3.915625 13.864375,3.915625 L13.864375,3.915625 Z M13.864375,7.04062505 C13.5293269,7.04051335 13.2197892,6.86166414 13.0523618,6.57144812 C12.8849344,6.2812321 12.8850535,5.92373999 13.0526743,5.63363562 C13.2202951,5.34353124 13.5299519,5.16488835 13.865,5.16499995 C14.3829395,5.16517259 14.8026726,5.58518546 14.8025001,6.103125 C14.8023274,6.62106454 14.3823145,7.04079759 13.864375,7.04062505 Z" id="形状"></path>
            </g>
        </g>
    </g>
</svg>