<?xml version="1.0" encoding="UTF-8"?>
<svg width="24px" height="24px" viewBox="0 0 24 24" version="1.1" xmlns="http://www.w3.org/2000/svg" xmlns:xlink="http://www.w3.org/1999/xlink">
    <!-- Generator: Sketch 61 (89581) - https://sketch.com -->
    <title>icons_outlined_pay_receive_money</title>
    <desc>Created with Sketch.</desc>
    <g id="icons_outlined_pay_receive_money" stroke="none" stroke-width="1" fill="none" fill-rule="evenodd">
        <g id="3.Icons/Outlined/pay_receive_money" transform="translate(3.000000, 1.000000)" fill="#000000" fill-rule="nonzero">
            <path d="M8.09705754,1.44826945 C8.35198383,1.56925457 8.50497049,1.64069451 8.66596953,1.71299186 C9.43120565,2.05662464 9.96729601,2.21796875 10.4244792,2.21796875 C10.9276908,2.21796875 11.3544903,2.16268394 11.9006467,2.04768382 C13.5364981,1.70323468 13.9348863,1.73432503 14.5568841,2.71902779 C15.1803443,3.70604584 14.6353859,4.85685662 13.1085981,6.22967317 C16.0125083,8.03069627 18,11.4912825 18,14.4117647 C18,18.570144 13.9705627,21 9,21 C4.02943725,21 0,18.570144 0,14.4117647 C0,11.4183494 2.0879983,7.85751721 5.11200214,6.09732598 C3.15821758,4.00484701 2.65269677,2.3263556 3.88913603,1.14846666 C4.91389081,0.172238109 5.82153886,0.368334117 8.09705754,1.44826945 Z M9,6.2 C5.04486404,6.2 1.2,10.5275475 1.2,14.4117647 C1.2,17.6137484 4.35872024,19.8 9,19.8 C13.6412798,19.8 16.8,17.6137484 16.8,14.4117647 C16.8,13.5370258 16.6050017,12.6398027 16.2576599,11.7745862 C12.5067512,13.8051573 7.71706336,16.3979091 7.71706336,16.3979091 L7.64736122,16.4358215 C7.56128964,16.4762118 7.4643931,16.5 7.36168805,16.5 C7.12327505,16.5 6.91601679,16.3768467 6.80723921,16.1949664 L6.76578756,16.1097255 L5.03036267,12.5360502 C5.01161702,12.4971466 5,12.4530394 5,12.4101712 C5,12.2456364 5.14230854,12.1123236 5.31761998,12.1123236 C5.38943431,12.1123236 5.45464805,12.1343772 5.50798075,12.1715462 L7.55548113,13.5396131 C7.70465427,13.6312967 7.88392606,13.6853156 8.07613499,13.6853156 C8.19045706,13.6853156 8.30002672,13.6654921 8.40167567,13.6305533 C8.40167567,13.6305533 12.6686019,11.8526463 15.6811394,10.5984894 C14.2542231,8.14550725 11.6518987,6.2 9,6.2 Z M4.716843,2.01731716 C4.09055315,2.61394968 4.48872292,3.75727193 6.24189058,5.54432046 C7.11158181,5.19670882 8.03817106,5 9,5 C10.0393838,5 11.0376159,5.22971008 11.9664583,5.63108388 C13.3174406,4.49930612 13.7693421,3.71926056 13.5423347,3.35987846 C13.3006078,2.9771936 13.3076217,2.97774096 12.1479001,3.22193497 C11.5271767,3.35263611 11.0228079,3.41796875 10.4244792,3.41796875 C9.75535587,3.41796875 9.08242399,3.21544021 8.17439274,2.80768463 C8.00369818,2.73103346 7.84459983,2.65673955 7.58255325,2.53237522 C5.7999451,1.68636963 5.20024572,1.55680548 4.716843,2.01731716 Z" id="Combined-Shape"></path>
        </g>
    </g>
</svg>