<?xml version="1.0" encoding="UTF-8"?>
<svg width="24px" height="24px" viewBox="0 0 24 24" version="1.1" xmlns="http://www.w3.org/2000/svg" xmlns:xlink="http://www.w3.org/1999/xlink">
    <!-- Generator: Sketch 61 (89581) - https://sketch.com -->
    <title>3.Icons/Filled/wrench@2x</title>
    <desc>Created with Sketch.</desc>
    <g id="3.Icons/Filled/wrench" stroke="none" stroke-width="1" fill="none" fill-rule="evenodd" fill-opacity="0.9">
        <path d="M9.5,2.08327204 C10.0013273,1.86275739 10,2.08327203 10.0013273,2.70833501 L10.0013273,2.70833501 L10.0013273,6.26405808 C10.0013273,6.84726311 11.748282,7.07124419 12,7.07124419 C12.4432369,7.07124419 14.0164493,6.81804551 14.0164493,6.26405808 L14.0164493,6.26405808 L14.0165926,2.58891494 C14.0185984,2.05770763 14.048686,1.89153899 14.5,2.08327204 C16.5,2.95076036 17,5.43813359 17,7.22918199 C17,8.72497321 16.3200829,10.2325357 13.751277,10.6889341 L13.75,21.25 C13.75,22.2164983 12.9664983,23 12,23 C11.0335017,23 10.25,22.2164983 10.25,21.25 L10.2497083,10.6885208 C7.68009097,10.2305405 7,8.71793937 7,7.22918199 C7,5.44678373 7.5,2.95076036 9.5,2.08327204 Z" id="形状结合" fill="#000000" transform="translate(12.000000, 12.500000) scale(-1, 1) rotate(-315.000000) translate(-12.000000, -12.500000) "></path>
    </g>
</svg>