<?xml version="1.0" encoding="UTF-8"?>
<svg width="32px" height="32px" viewBox="0 0 32 32" version="1.1" xmlns="http://www.w3.org/2000/svg" xmlns:xlink="http://www.w3.org/1999/xlink">
    <title>编组 17</title>
    <g id="页面-5" stroke="none" stroke-width="1" fill="none" fill-rule="evenodd">
        <g id="画板" transform="translate(-24.000000, -203.000000)">
            <g id="编组-17" transform="translate(24.000000, 203.000000)">
                <path d="M4.10221632,2.8768262e-16 L27.8977837,1.65734449e-16 C29.3242137,-9.62964878e-17 29.8414716,0.148520978 30.3629531,0.427412326 C30.8844346,0.706303674 31.2936963,1.11556539 31.5725877,1.63704687 C31.851479,2.15852836 32,2.67578634 32,4.10221632 L32,27.8977837 C32,29.3242137 31.851479,29.8414716 31.5725877,30.3629531 C31.2936963,30.8844346 30.8844346,31.2936963 30.3629531,31.5725877 C29.8414716,31.851479 29.3242137,32 27.8977837,32 L4.10221632,32 C2.67578634,32 2.15852836,31.851479 1.63704687,31.5725877 C1.11556539,31.2936963 0.706303674,30.8844346 0.427412326,30.3629531 C0.148520978,29.8414716 -1.99250716e-16,29.3242137 3.42927437e-16,27.8977837 L1.10489633e-16,4.10221632 C-6.41976585e-17,2.67578634 0.148520978,2.15852836 0.427412326,1.63704687 C0.706303674,1.11556539 1.11556539,0.706303674 1.63704687,0.427412326 C2.15852836,0.148520978 2.67578634,-1.67151887e-16 4.10221632,2.8768262e-16 Z" id="矩形" fill="#EDEDED"></path>
                <g id="编组" transform="translate(5.600000, 5.600000)" fill="#000000" fill-opacity="0.15">
                    <g id="icon11">
                        <path d="M2.16666667,17.9333333 L2.16666667,16.7400682 L2.16666667,16.7400682 C2.16666667,16.1463244 2.59839745,15.4543202 3.13221793,15.1938217 L8.03785733,12.7999239 C8.74932684,12.4527347 8.91475785,11.6837608 8.40098586,11.0748204 L8.08765767,10.7034529 C7.45014194,9.94784713 6.93333333,8.53623028 6.93333333,7.5480518 L6.93333333,6.066303 C6.93333333,4.15191671 8.48930867,2.6 10.4,2.6 C12.3145871,2.6 13.8666667,4.15391619 13.8666667,6.06684647 L13.8666667,7.54882759 C13.8666667,8.53605649 13.3474747,9.9518123 12.7123422,10.7046966 L12.399014,11.076115 C11.8880948,11.6817573 12.047696,12.4526113 12.7621425,12.801109 L17.667782,15.1940166 C18.2010413,15.4541335 18.6333333,16.1418141 18.6333333,16.7400682 L18.6333333,17.9333333 C18.6333333,18.0806093 18.5139426,18.2 18.3666667,18.2 L2.43333333,18.2 C2.2860574,18.2 2.16666667,18.0806093 2.16666667,17.9333333 Z" id="Path-67"></path>
                    </g>
                </g>
            </g>
        </g>
    </g>
</svg>