<?xml version="1.0" encoding="UTF-8"?>
<svg width="32px" height="32px" viewBox="0 0 32 32" version="1.1" xmlns="http://www.w3.org/2000/svg" xmlns:xlink="http://www.w3.org/1999/xlink">
    <title>icons_outlined_credential</title>
    <g id="icons_outlined_credential" stroke="none" stroke-width="1" fill="none" fill-rule="evenodd">
        <path d="M25.3333333,2.66666667 C26.069713,2.66666667 26.6666667,3.26362033 26.6666667,4 L26.6666667,28 C26.6666667,28.7363797 26.069713,29.3333333 25.3333333,29.3333333 L6.66666667,29.3333333 C5.930287,29.3333333 5.33333333,28.7363797 5.33333333,28 L5.33333333,4 C5.33333333,3.26362033 5.930287,2.66666667 6.66666667,2.66666667 L25.3333333,2.66666667 Z M25.0666667,4.26666667 L6.93333333,4.26666667 L6.93333333,27.7333333 L25.0666667,27.7333333 L25.0666667,4.26666667 Z M14.6666667,12 L14.6666667,13.6 L9.33333333,13.6 L9.33333333,12 L14.6666667,12 Z M17.3333333,8 L17.3333333,9.6 L9.33333333,9.6 L9.33333333,8 L17.3333333,8 Z" id="形状" fill="#000000"></path>
    </g>
</svg>