<?xml version="1.0" encoding="UTF-8"?>
<svg width="24px" height="24px" viewBox="0 0 24 24" version="1.1" xmlns="http://www.w3.org/2000/svg" xmlns:xlink="http://www.w3.org/1999/xlink">
    <title>icons_filled_like_group</title>
    <g id="icons_filled_like_group" stroke="none" stroke-width="1" fill="none" fill-rule="evenodd">
        <g id="0.图标/面型/icons_filled_like" fill="#000000">
            <path d="M11.2855866,5.77817459 L11.6717659,6.15534403 L11.9926934,6.46025405 L12.4550423,6.01892814 L12.6998002,5.77817459 C14.6524216,3.82555313 17.8182465,3.82555313 19.770868,5.77817459 C21.7053262,7.71263279 21.7233205,10.837829 19.8248509,12.7944397 L19.473,13.1447085 L19.4736842,12.5556362 C19.4736842,11.1565263 18.3784678,10 17,10 C15.6226619,10 14.5263158,11.1562353 14.5263158,12.5553924 L14.5263158,13.2202797 L14.5350174,13.4259935 C14.5752087,13.916504 14.751698,14.4720791 15.0032819,14.9138791 L15.026,14.95 L13.452537,15.7620804 C12.8880781,16.0528329 12.5,16.7090158 12.5,17.3449024 L12.5,17.6111111 C12.5,18.2937861 12.992534,18.8614236 13.6416353,18.9780567 L12.6997632,19.9202732 C12.3393322,20.2808102 11.7721053,20.308572 11.3797983,20.0035679 L11.2855866,19.9203102 L4.16012597,12.7948496 C2.26206629,10.837829 2.28006059,7.71263279 4.21451879,5.77817459 C6.16714025,3.82555313 9.33296515,3.82555313 11.2855866,5.77817459 Z M17,11 C17.8138933,11 18.4736842,11.6972701 18.4736842,12.5556362 L18.4736842,13.2206278 C18.4736842,13.6636151 18.2529751,14.2988901 17.9829795,14.6367228 L17.8497833,14.803385 C17.6325909,15.0751475 17.7004376,15.4210435 18.0041496,15.5774207 L20.089543,16.6511613 C20.3162321,16.7678804 20.5,17.076455 20.5,17.3449024 L20.5,17.6111111 C20.5,17.8258885 20.3258885,18 20.1111111,18 L13.8888889,18 C13.6741115,18 13.5,17.8258885 13.5,17.6111111 L13.5,17.3449024 C13.5,17.0784789 13.6835293,16.7679642 13.910457,16.6510738 L15.9958503,15.5768889 C16.2982968,15.4210989 16.3686218,15.0760465 16.1502167,14.802804 L16.0170205,14.6361648 C15.7460118,14.2971109 15.5263158,13.6636931 15.5263158,13.2202797 L15.5263158,12.5553924 C15.5263158,11.6963729 16.1877628,11 17,11 Z" id="形状"></path>
        </g>
    </g>
</svg>