<?xml version="1.0" encoding="UTF-8"?>
<svg width="24px" height="24px" viewBox="0 0 24 24" version="1.1" xmlns="http://www.w3.org/2000/svg" xmlns:xlink="http://www.w3.org/1999/xlink">
    <!-- Generator: Sketch 60 (88103) - https://sketch.com -->
    <title>icons_outlined_float_window_hl</title>
    <desc>Created with Sketch.</desc>
    <g id="icons_outlined_float_window_hl" stroke="none" stroke-width="1" fill="none" fill-rule="evenodd">
        <g id="icon22" fill="#000000" fill-rule="nonzero">
            <path d="M12,16.8 C14.6509668,16.8 16.8,14.6509668 16.8,12 C16.8,9.3490332 14.6509668,7.2 12,7.2 C9.3490332,7.2 7.2,9.3490332 7.2,12 C7.2,14.6509668 9.3490332,16.8 12,16.8 Z M12,18 C8.6862915,18 6,15.3137085 6,12 C6,8.6862915 8.6862915,6 12,6 C15.3137085,6 18,8.6862915 18,12 C18,15.3137085 15.3137085,18 12,18 Z" id="Combined-Shape"></path>
            <path d="M12,0 C18.627417,0 24,5.372583 24,12 C24,18.627417 18.627417,24 12,24 C5.372583,24 0,18.627417 0,12 C0,5.372583 5.372583,0 12,0 Z M12,1.2 C6.0353247,1.2 1.2,6.0353247 1.2,12 C1.2,17.9646753 6.0353247,22.8 12,22.8 C17.9646753,22.8 22.8,17.9646753 22.8,12 C22.8,6.0353247 17.9646753,1.2 12,1.2 Z" id="椭圆形"></path>
        </g>
    </g>
</svg>