<?xml version="1.0" encoding="UTF-8"?>
<svg width="20px" height="24px" viewBox="0 0 20 24" version="1.1" xmlns="http://www.w3.org/2000/svg" xmlns:xlink="http://www.w3.org/1999/xlink">
    <title>icon_new_10_19_非豆苗</title>
    <g id="icon_new_10_19_非豆苗" stroke="none" stroke-width="1" fill="none" fill-rule="evenodd">
        <circle id="椭圆形备份-44" fill="#FFFFFF" cx="4.6" cy="6.6" r="1.8"></circle>
        <circle id="椭圆形备份-50" fill="#FFFFFF" cx="15.4" cy="17.4" r="1.8"></circle>
        <path d="M10,14.4 L6.68762334,15.8386135 C6.48499515,15.9266178 6.24939091,15.8336969 6.16138654,15.6310687 C6.11724092,15.5294243 6.11724092,15.414021 6.16138654,15.3123767 L7.6,12 L7.6,12 L6.16138654,8.68762334 C6.07338216,8.48499515 6.16630312,8.24939091 6.36893131,8.16138654 C6.47057565,8.11724092 6.58597899,8.11724092 6.68762334,8.16138654 L10,9.6 L10,9.6 L13.3123767,8.16138654 C13.5150048,8.07338216 13.7506091,8.16630312 13.8386135,8.36893131 C13.8827591,8.47057565 13.8827591,8.58597899 13.8386135,8.68762334 L12.4,12 L12.4,12 L13.8386135,15.3123767 C13.9266178,15.5150048 13.8336969,15.7506091 13.6310687,15.8386135 C13.5294243,15.8827591 13.414021,15.8827591 13.3123767,15.8386135 L10,14.4 L10,14.4 Z" id="星形" fill="#FFFFFF" transform="translate(10.000000, 12.000000) rotate(45.000000) translate(-10.000000, -12.000000) "></path>
        <rect id="Level_new_10_19.svg" fill="#D8D8D8" opacity="0" x="0" y="0" width="20" height="24"></rect>
    </g>
</svg>