<?xml version="1.0" encoding="UTF-8"?>
<svg width="24px" height="24px" viewBox="0 0 24 24" version="1.1" xmlns="http://www.w3.org/2000/svg" xmlns:xlink="http://www.w3.org/1999/xlink">
    <!-- Generator: Sketch 60.1 (88133) - https://sketch.com -->
    <title>3.Icons/Filled/scrool</title>
    <desc>Created with Sketch.</desc>
    <g id="3.Icons/Filled/scrool" stroke="none" stroke-width="1" fill="none" fill-rule="evenodd" fill-opacity="0.9">
        <path d="M17.25,13.5 L17.2506407,18.6288932 L19.6819805,16.1966991 L20.7426407,17.2573593 L17.5606407,20.4388932 L17.5606602,20.4393398 L16.8535534,21.1464466 C16.6582912,21.3417088 16.3417088,21.3417088 16.1464466,21.1464466 L16.1464466,21.1464466 L12.2573593,17.2573593 L13.3180195,16.1966991 L15.7506407,18.6288932 L15.75,13.5 L17.25,13.5 Z M8.25,15 L8.25,16.5 L6.75,16.5 L6.75,15 L8.25,15 Z M8.25,12 L8.25,13.5 L6.75,13.5 L6.75,12 L8.25,12 Z M17.25,10.5 L17.25,12 L15.75,12 L15.75,10.5 L17.25,10.5 Z M7.85355339,2.85355339 L11.7426407,6.74264069 L10.6819805,7.80330086 L8.25064069,5.37110678 L8.25,10.5 L6.75,10.5 L6.75064069,5.37110678 L4.31801948,7.80330086 L3.25735931,6.74264069 L7.14644661,2.85355339 C7.34170876,2.65829124 7.65829124,2.65829124 7.85355339,2.85355339 Z M17.25,7.5 L17.25,9 L15.75,9 L15.75,7.5 L17.25,7.5 Z" id="形状结合" fill="#000000"></path>
    </g>
</svg>