<?xml version="1.0" encoding="UTF-8"?>
<svg width="32px" height="32px" viewBox="0 0 32 32" version="1.1" xmlns="http://www.w3.org/2000/svg" xmlns:xlink="http://www.w3.org/1999/xlink">
    <title>画板备份 2</title>
    <g id="画板备份-2" stroke="none" stroke-width="1" fill="none" fill-rule="evenodd">
        <g id="编组" stroke="#FFFFFF" stroke-width="1.2">
            <g id="编组-18" transform="translate(3.000000, 4.000000)">
                <path d="M4.05102518,0 C4.66793257,0.0205655527 5.18202206,0.370179949 5.40822143,0.904884319 L5.40822143,0.904884319 L7.1561257,5.55269923 C7.23838002,5.77892031 7.19725286,5.90231362 7.07387138,6.1285347 C6.66259979,6.84832905 5.67554797,8.65809769 5.12033132,9.74807198 C4.97638626,10.0154242 4.89413194,10.3239075 4.89413194,10.6323907 C4.89413194,10.9614396 4.99694984,11.2904884 5.16145848,11.5578406 C6.0456924,13.059126 7.07387138,14.4781491 8.28712258,15.6915167 C9.50037377,16.9254499 10.9192608,17.9537275 12.4204021,18.8380463 C12.6877286,19.0025707 12.9961823,19.1053985 13.3457632,19.1053985 C13.6747804,19.1053985 13.9626705,19.0231362 14.2299971,18.8791774 C15.2993032,18.3239075 17.1088982,17.3367609 17.8491871,16.9254499 C18.0753865,16.8020566 18.1782044,16.7609254 18.4249673,16.8431877 L18.4249673,16.8431877 L23.0723363,18.5912596 C23.6069894,18.8174807 23.9565702,19.3316195 23.9976974,19.9485861 C24.018261,20.1953728 23.8948795,20.4832905 23.8743159,20.5449871 C23.134027,22.5604113 21.2216141,24 18.9596204,24 C18.3221494,24 17.7258056,23.8560411 17.5818606,23.81491 C13.2635088,22.8277635 9.41811946,20.6272494 6.39527325,17.6041131 C3.37242705,14.5809769 1.17212404,10.7352185 0.185072216,6.41645244 C0.164508637,6.27249357 0,5.67609254 0,5.03856041 C0,2.77634961 1.43945057,0.863753213 3.45468137,0.123393316 C3.51637211,0.102827763 3.80426223,0 4.05102518,0 Z M20.8888889,2 C21.2395459,2 21.5238095,2.27551708 21.5238095,2.61538462 L21.5238095,9.38461538 C21.5238095,9.72448292 21.2395459,10 20.8888889,10 L12.6349206,10 C12.2842637,10 12,9.72448292 12,9.38461538 L12,2.61538462 C12,2.27551708 12.2842637,2 12.6349206,2 L20.8888889,2 Z M25.1942024,3.20364911 C25.2842662,3.31276483 25.3333333,3.44834052 25.3333333,3.58807683 L25.3333333,8.41192317 C25.3333333,8.75179071 25.0490697,9.02730779 24.6984127,9.02730779 C24.5542403,9.02730779 24.4143606,8.9797504 24.3017809,8.89245782 L22.1587302,7.23076923 L22.1587302,4.76923077 L24.3017809,3.10754218 C24.575598,2.89522861 24.9751487,2.93825715 25.1942024,3.20364911 Z" id="形状结合"></path>
            </g>
        </g>
    </g>
</svg>