<?xml version="1.0" encoding="UTF-8"?>
<svg width="69px" height="4px" viewBox="0 0 69 4" version="1.1" xmlns="http://www.w3.org/2000/svg" xmlns:xlink="http://www.w3.org/1999/xlink">
    <title>编组 14</title>
    <g id="控件" stroke="none" stroke-width="1" fill="none" fill-rule="evenodd">
        <g id="终止符/圆点终止符/darkmode备份" transform="translate(-172.000000, -40.000000)">
            <g id="编组-14" transform="translate(172.000000, 40.000000)">
                <g id="编组" fill="#FFFFFF" fill-opacity="0.15">
                    <path d="M34.5,1.8189894e-12 C35.6045695,1.8189894e-12 36.5,0.8954305 36.5,2 C36.5,3.1045695 35.6045695,4 34.5,4 C33.6514515,4 32.9263277,3.47155577 32.6357713,2.72580994 C32.8800674,2.89866551 33.1781997,3 33.5,3 C34.3284271,3 35,2.32842712 35,1.5 C35,0.833389579 34.5651608,0.268341303 33.9636604,0.0730332353 C34.1336841,0.0254252461 34.3138729,1.8189894e-12 34.5,1.8189894e-12 Z M24.5,1.5 L24.5,2.5 L0.5,2.5 L0.5,1.5 L24.5,1.5 Z M68.5,1.5 L68.5,2.5 L44.5,2.5 L44.5,1.5 L68.5,1.5 Z" id="形状"></path>
                </g>
                <g id="月亮" transform="translate(32.500000, 0.000000)"></g>
            </g>
        </g>
    </g>
</svg>