<?xml version="1.0" encoding="UTF-8"?>
<svg width="24px" height="24px" viewBox="0 0 24 24" version="1.1" xmlns="http://www.w3.org/2000/svg" xmlns:xlink="http://www.w3.org/1999/xlink">
    <title>icons_filled_bluetooth备份</title>
    <g id="icons_filled_bluetooth备份" stroke="none" stroke-width="1" fill="none" fill-rule="evenodd">
        <g id="编组">
            <rect id="矩形" x="0" y="0" width="24" height="24"></rect>
        </g>
        <g id="编组-2" transform="translate(2.000000, 2.000000)" fill="#07C160">
            <path d="M16.2887366,3.82585882 C15.2863124,1.7646467 12.7505548,0.0004042769 9.87964569,-7.17719935e-16 C8.37318104,-0.000403803909 6.0717669,0.516767913 4.35196892,2.59636387 C3.20348407,3.98505074 2.8168174,5.61030327 3.0588376,7.23111135 C3.22510023,8.3446467 3.84530225,9.81373761 4.732777,10.7430305 C5.06732245,8.38727296 6.30813053,6.53454569 7.93499922,5.17272751 C10.872373,2.92868711 14.0083326,3.05575781 16.2887366,3.82585882" id="Fill-7"></path>
            <path d="M18.5806962,7.36002044 C16.7835245,5.02769721 13.6768578,4.37517195 10.8724134,5.41517195 C10.9629184,5.44244468 11.0532214,5.46931337 11.1433225,5.49981842 C15.2954437,6.91436387 17.5394841,11.4188083 16.1556457,15.5606265 C15.7873629,16.6624447 15.1978679,17.626081 14.4552416,18.4226467 C15.3497871,18.1749699 16.2653427,17.8208285 17.0507972,17.215576 C20.2130194,14.7790103 20.8354437,10.286081 18.5806962,7.36002044" id="Fill-8"></path>
            <path d="M9.87172649,14.8108083 C9.2408174,14.8108083 8.62970629,14.7382831 8.0418275,14.6069699 C7.97011033,14.5922225 7.89617094,14.5835356 7.81940326,14.5869699 C7.64526185,14.5944447 7.48910023,14.6546467 7.34324164,14.7481821 L5.40425175,15.9912124 C5.34990831,16.0257578 5.29738306,16.0528285 5.23152447,16.0556568 C5.06404973,16.0629295 4.92263558,15.9318184 4.91536286,15.7637376 C4.91213053,15.687778 4.93899922,15.6112124 4.9547568,15.5382831 C4.96425175,15.4946467 5.16970629,14.5627275 5.2977871,13.9813134 C5.31273659,13.9158588 5.32445377,13.8528285 5.32162548,13.7855558 C5.31293861,13.5833336 5.20667599,13.4085861 5.05132245,13.3039396 C3.00788811,11.9104043 1.60627195,9.72070731 1.29798912,7.46939418 C0.784049726,8.27727296 0.510312352,8.91929317 0.242433564,9.85525276 C-0.756556335,13.347576 1.42990831,17.5314144 4.99798912,18.7033336 C9.10142346,20.0510103 13.016979,18.5382831 14.3695043,15.0483841 C14.5339487,14.6245457 14.7137467,13.9047477 14.7509184,13.3067679 C13.3139487,14.3639396 11.7925346,14.8108083 9.87172649,14.8108083" id="Fill-9"></path>
        </g>
    </g>
</svg>