<?xml version="1.0" encoding="UTF-8"?>
<svg width="24px" height="24px" viewBox="0 0 24 24" version="1.1" xmlns="http://www.w3.org/2000/svg" xmlns:xlink="http://www.w3.org/1999/xlink">
    <title>icons_outlined_food</title>
    <g id="icons_outlined_food" stroke="none" stroke-width="1" fill="none" fill-rule="evenodd" fill-opacity="0.9">
        <path d="M20.6125741,14 C21.1648589,14 21.6125741,14.4477153 21.6125741,15 C21.6125741,15.1074821 21.5952462,15.2142613 21.5612574,15.3162278 L20.9116963,17.2649111 C20.3672401,18.8982796 18.8386848,20 17.1169631,20 L17,20 L17,21 L13,21 L13,20 L12.8830369,20 C12.065793,20 11.2920711,19.7517731 10.6464587,19.3162865 L10.6722452,19.3335356 L10.6722452,19.3335356 L10.5928035,20.1028992 C10.5400733,20.6126243 10.1105571,21 9.59811174,21 L4.40188826,21 C3.88944294,21 3.45992665,20.6126243 3.40719646,20.1028992 L2.11409302,7.60289915 C2.05726338,7.05354604 2.45653255,6.56213784 3.00588566,6.50530821 L3.05726682,6.50132793 L8.0457059,6.50028383 L9.12492183,3.62474103 C9.39371328,2.90796385 10.1283748,2.48833397 10.8717351,2.60591087 L11.0111055,2.63431054 L14.1455214,3.4179145 L13.8544786,4.5820855 L10.7200628,3.79848154 C10.5474519,3.75532882 10.3705466,3.83149758 10.2811864,3.9787631 L10.2485168,4.04608916 L9.3277059,6.49928383 L10.8912152,6.5 C11.4434999,6.5 11.8912152,6.94771525 11.8912152,7.5 L11.885907,7.60289915 L11.4056682,12.2363592 C12.3601275,11.4512032 13.5728437,11 14.854102,11 L15.145898,11 C17.1224512,11 18.935887,12.0737813 19.8897117,13.7908869 L20,14 L20.6125741,14 Z M20.6125741,15 L9.38742589,15 L10.036987,16.9486833 C10.4258843,18.1153751 11.4842368,18.9204015 12.6996163,18.9944251 L12.8830369,19 L14,19 L14,19.999 L16,19.999 L16,19 L17.1169631,19 C18.3467643,19 19.4451598,18.2505304 19.8997216,17.1209284 L19.963013,16.9486833 L20.6125741,15 Z M10.0217059,13.9572838 L10.669,7.69937935 L3.33,7.69937935 L4.581,19.7993793 L9.418,19.7993793 L9.57699936,18.2521795 L9.59591593,18.2796978 C9.38294221,17.972643 9.21073993,17.6322198 9.08830369,17.2649111 L8.43874259,15.3162278 C8.26409482,14.7922844 8.5472548,14.2259645 9.07119812,14.0513167 C9.17316459,14.0173279 9.27994379,14 9.38742589,14 L10,14 L10.0217059,13.9572838 Z" id="形状结合" fill="#000000"></path>
    </g>
</svg>