<?xml version="1.0" encoding="UTF-8"?>
<svg width="24px" height="24px" viewBox="0 0 24 24" version="1.1" xmlns="http://www.w3.org/2000/svg" xmlns:xlink="http://www.w3.org/1999/xlink">
    <title>人脸</title>
    <g id="人脸" stroke="none" stroke-width="1" fill="none" fill-rule="evenodd" fill-opacity="0.9">
        <path d="M12,2 C17.5228475,2 22,6.4771525 22,12 C22,14.6210124 20.9916439,17.0065106 19.3417042,18.7897221 L19.1912575,18.9488127 L19.1816807,18.958708 C19.0983035,19.0447399 19.0133943,19.1292782 18.9269969,19.212279 L19.1912575,18.9488127 C19.0754848,19.0685991 18.9567466,19.1855011 18.835161,19.2994003 C18.6516761,19.4712819 18.4617923,19.6362566 18.2658359,19.7939928 C18.2558031,19.802069 18.2456358,19.810221 18.2354522,19.8183535 C17.0185729,20.7899328 15.5709906,21.4830933 13.9879805,21.8023959 L13.993273,21.8013269 L13.9469401,21.8105842 C13.8481036,21.8300878 13.7487439,21.8481351 13.6488843,21.8647027 L13.993273,21.8013269 C13.8324841,21.8338498 13.6702963,21.8625153 13.5068105,21.8872227 C13.4259309,21.8994473 13.3445707,21.9107237 13.2629039,21.9210152 C13.2354915,21.9244703 13.2078207,21.9278407 13.1801153,21.9310979 C13.0618907,21.9449949 12.9432127,21.956815 12.8239425,21.9665422 C12.8047707,21.9681059 12.7854698,21.9696243 12.7661536,21.9710877 C12.6579186,21.9792874 12.5492585,21.9857616 12.4401449,21.9904873 C12.4207316,21.9913273 12.4016958,21.9920973 12.3826463,21.992814 C12.3487676,21.9940902 12.314358,21.9952113 12.2799048,21.9961582 L12,22 L12,22 C11.8717105,22 11.7439852,21.9975842 11.6168671,21.9927957 L12,22 C11.8526494,22 11.7060431,21.996813 11.5602463,21.9905042 C11.4507415,21.9857616 11.3420814,21.9792874 11.2339021,21.971092 C11.2145302,21.9696243 11.1952293,21.9681059 11.1759439,21.9665329 C11.0567873,21.956815 10.9381093,21.9449949 10.8200603,21.9311186 C10.7921793,21.9278407 10.7645085,21.9244703 10.7368729,21.9209871 C10.6554293,21.9107237 10.5740691,21.8994473 10.4930279,21.8871983 C10.4606914,21.8823113 10.4282444,21.8772435 10.3958496,21.8720201 L10.3511157,21.8647027 C10.2512561,21.8481351 10.1518964,21.8300878 10.0530599,21.8105842 C10.0378705,21.8075875 10.0222922,21.8044752 10.006727,21.8013269 C8.44563071,21.4864459 7.01184069,20.8044476 5.80374392,19.8494955 L5.76334629,19.8173938 L5.74119989,19.7996511 C5.53379673,19.6330076 5.33318082,19.4582619 5.1398325,19.2758944 C5.12421432,19.2611636 5.1085668,19.2463096 5.09296744,19.2314057 C4.99929575,19.1419084 4.90743399,19.0506854 4.81736102,18.9577191 C4.81460886,18.9548787 4.81167472,18.9518466 4.80874248,18.9488127 L4.65829585,18.7897221 C3.00835609,17.0065106 2,14.6210124 2,12 C2,6.4771525 6.4771525,2 12,2 Z M12,3.2 C7.1398942,3.2 3.2,7.1398942 3.2,12 C3.2,14.5173308 4.25699687,16.7877868 5.95138141,18.3917587 L9.27445076,16.769143 C10.0953771,16.36854 10.2862591,15.4812624 9.69344522,14.7786389 L9.33191269,14.350138 C8.78021639,13.6962484 8.30686365,12.6165823 8.1046683,11.636593 L8.06567381,11.4302764 C8.47954551,11.465987 8.89342619,11.4960627 9.3073144,11.5205031 C9.48202695,12.2693223 9.85062237,13.1040478 10.2490784,13.5763118 L10.610611,14.0048127 C11.7066364,15.3038601 11.3252143,17.1036503 9.80071945,17.8475869 L6.97599609,19.2258601 C8.40052175,20.2181632 10.1323132,20.8 12,20.8 C13.8668101,20.8 15.5978525,20.2187093 17.0219978,19.2272572 L14.1994561,17.8490401 C12.6728743,17.1043932 12.2955728,15.302913 13.3893366,14.0063685 L13.7508692,13.5778088 C14.1478954,13.107175 14.5171664,12.2702437 14.6927642,11.5196401 C15.1069421,11.4960194 15.5205452,11.4659615 15.9341436,11.4302768 C15.7597201,12.4609972 15.2571153,13.6533407 14.6680872,14.351573 L14.3065546,14.7801327 C13.7170324,15.4789507 13.9011877,16.3683976 14.725549,16.7705104 L18.0486186,18.3917587 C19.7430031,16.7877868 20.8,14.5173308 20.8,12 C20.8,7.1398942 16.8601058,3.2 12,3.2 Z M11.999847,9.8 C13.9998823,9.8 15.9999333,9.93333333 18,10.2 L18,10.6 C15.9998627,10.8666667 13.9998117,11 11.999847,11 C9.99988228,11 7.99993329,10.8666667 6,10.6 L6,10.2 C7.99986266,9.93333333 9.99981165,9.8 11.999847,9.8 Z M12,5 C14.209139,5 16,6.79298022 16,9.00020747 L16.0002297,9.37546869 C15.6002692,9.34038108 15.2003016,9.3105554 14.800328,9.2859919 L14.8,9.00020747 C14.8,7.4549142 13.5455898,6.2 12,6.2 C10.4563088,6.2 9.2,7.4552027 9.2,8.99958038 L9.20020369,9.28594445 C8.80019133,9.31050468 8.40018885,9.34032862 8.00019757,9.37541599 L8,8.99958038 C8,6.79067313 9.79535615,5 12,5 Z" id="形状结合" fill="#000000"></path>
    </g>
</svg>