<?xml version="1.0" encoding="UTF-8"?>
<svg width="24px" height="24px" viewBox="0 0 24 24" version="1.1" xmlns="http://www.w3.org/2000/svg" xmlns:xlink="http://www.w3.org/1999/xlink">
    <!-- Generator: Sketch 57.1 (83088) - https://sketch.com -->
    <title>画板@2x</title>
    <desc>Created with Sketch.</desc>
    <g id="画板" stroke="none" stroke-width="1" fill="none" fill-rule="evenodd">
        <path d="M8.10339943,4.05197216 L5.2082153,5.71508121 C5.07932011,5.79427688 5,5.9328693 5,6.08136118 L5,17.9112142 C5,18.0597061 5.07932011,18.1982985 5.2082153,18.2774942 L8.10339943,19.9406032 C8.23229462,20.0197989 8.39093484,20.0197989 8.52974504,19.9406032 L18.7917847,14.020727 C18.9206799,13.9415313 19,13.8029389 19,13.654447 L19,10.3183295 C19,10.1698376 18.9206799,10.0312452 18.7917847,9.9520495 L8.51983003,4.05197216 C8.39093484,3.98267595 8.23229462,3.98267595 8.10339943,4.05197216 Z M8.00424929,18.9704563 L6.01133144,17.8320186 L8.00424929,16.6836814 L8.00424929,18.9704563 Z M8.00424929,15.7630317 L5.78328612,17.0400619 L5.78328612,6.94261408 L8.00424929,8.21964424 L8.00424929,15.7630317 L8.00424929,15.7630317 Z M8.00424929,7.29899459 L6.02124646,6.16055684 L8.00424929,5.03201856 L8.00424929,7.29899459 Z M18.2167139,13.179273 L16.1543909,11.991338 L18.2266289,10.8034029 L18.2266289,13.179273 L18.2167139,13.179273 Z M8.80736544,5.14091261 L17.621813,10.2292343 L15.3611898,11.5260634 L8.80736544,7.76426914 L8.80736544,5.14091261 L8.80736544,5.14091261 Z M8.80736544,8.67501933 L14.5580737,11.991338 L8.80736544,15.2977572 L8.80736544,8.67501933 Z M8.80736544,18.8813612 L8.80736544,16.2184068 L15.3611898,12.4467131 L17.631728,13.7534416 L8.80736544,18.8813612 Z" id="XMLID_3_" fill="#FFFFFF"></path>
    </g>
</svg>