<?xml version="1.0" encoding="UTF-8"?>
<svg width="24px" height="24px" viewBox="0 0 24 24" version="1.1" xmlns="http://www.w3.org/2000/svg" xmlns:xlink="http://www.w3.org/1999/xlink">
    <title>icon_已关注备份</title>
    <g id="icon_已关注备份" stroke="none" stroke-width="1" fill="none" fill-rule="evenodd">
        <g id="编组-14" fill="#000000" fill-rule="nonzero">
            <g id="编组">
                <path d="M16.7480007,18.8844686 L21.6140603,14.0184091 L22.8397088,15.2440576 L17.2028988,20.8792478 C16.9686036,21.1135817 16.5887046,21.1135271 16.3544237,20.8791789 C16.354406,20.8791612 16.3543883,20.8791435 16.3544237,20.8790728 L13.5381779,18.0613133 L13.5381779,18.0613133 L14.7315116,16.8679795 L16.7480007,18.8844686 Z M11.9,3 C14.109139,3 15.9,4.79298022 15.9,7.00020747 L15.9,8.71018568 C15.9,9.84929595 15.3009324,11.4828603 14.5680872,12.351573 L14.2065546,12.7801327 C13.7202325,13.3566176 13.7604216,14.0628312 14.2521912,14.5181661 L12.1243442,16.6467198 C11.3438241,17.428 11.343654,18.6940369 12.1239642,19.4755268 L13.647,21 L3.40142961,21 C2.84835531,21 2.4,20.5557555 2.4,20.0015619 L2.4,19.3154633 C2.4,18.6303744 2.89815091,17.8319079 3.51409761,17.5313327 L9.17445076,14.769143 C9.99537712,14.36854 10.1862591,13.4812624 9.59344523,12.7786389 L9.23191269,12.350138 C8.49631763,11.4782852 7.9,9.84949648 7.9,8.70929053 L7.9,6.99958038 C7.9,4.79067313 9.69535616,3 11.9,3 Z" id="1.3pt"></path>
            </g>
        </g>
    </g>
</svg>