<?xml version="1.0" encoding="UTF-8"?>
<svg width="24px" height="24px" viewBox="0 0 24 24" version="1.1" xmlns="http://www.w3.org/2000/svg" xmlns:xlink="http://www.w3.org/1999/xlink">
    <!-- Generator: Sketch 61.2 (89653) - https://sketch.com -->
    <title>loading/视频@3x</title>
    <desc>Created with Sketch.</desc>
    <g id="loading/视频" stroke="none" stroke-width="1" fill="none" fill-rule="evenodd">
        <g id="编组">
            <rect id="矩形" x="0" y="0" width="24" height="24"></rect>
            <path d="M11.1753478,1.99893505 C11.1770873,1.32996207 11.9134683,0.929621929 12.4865894,1.28737343 L12.5761379,1.35374498 L18.5001379,6.39374498 C18.8609884,6.7007481 18.8996014,7.2414195 18.5795762,7.61078989 L18.4935412,7.69410038 L14.3362036,11.1588817 L22.0004401,11.1798484 C22.6694069,11.1816548 23.0696746,11.918064 22.7118778,12.49115 L22.6454993,12.5806922 L17.6054993,18.5036922 C17.2984825,18.8644978 16.7578444,18.903084 16.3884957,18.5830724 L16.3051772,18.4970264 L12.8431823,14.3423653 L12.8229418,22.0039405 C12.8211354,22.6729073 12.0847261,23.0731749 11.5116402,22.7153781 L11.422098,22.6489997 L5.49909804,17.6089997 C5.13829238,17.3019829 5.09970618,16.7613447 5.41971775,16.391996 L5.50572366,16.308711 L9.6628578,12.8431834 L1.9988497,12.8229422 C1.32988292,12.8211358 0.929615245,12.0847265 1.28741204,11.5116405 L1.35379053,11.4220984 L6.39379053,5.49909838 C6.70080734,5.13829272 7.24144549,5.09970652 7.61079416,5.41971809 L7.69409178,5.50573905 L11.1548417,9.65780379 L11.1753478,1.9989254 Z M11.1447293,13.8214464 L7.36933393,16.9683218 L11.1267716,20.1656498 L11.1447293,13.8214464 Z M13.817346,12.8568609 L16.9642215,16.6322563 L20.1615495,12.8748186 L13.817346,12.8568609 Z M7.0332684,7.36943427 L3.83594037,11.1268719 L10.1801438,11.1448296 L7.0332684,7.36943427 Z M12.8707908,3.83602292 L12.8536881,10.1793977 L16.6290993,7.0333643 L12.8707908,3.83602292 Z" id="形状" stroke-opacity="0.1" stroke="#000000" stroke-width="0.5" fill="#FFFFFF" fill-rule="nonzero"></path>
        </g>
    </g>
</svg>