<?xml version="1.0" encoding="UTF-8"?>
<svg width="24px" height="24px" viewBox="0 0 24 24" version="1.1" xmlns="http://www.w3.org/2000/svg" xmlns:xlink="http://www.w3.org/1999/xlink">
    <title>outlined_sperated@1x</title>
    <g id="outlined_sperated" stroke="none" stroke-width="1" fill="none" fill-rule="evenodd" fill-opacity="0.9">
        <path d="M19.0087641,4.00154289 L19.3842564,4.0138104 C19.8995519,4.04131776 20.2105212,4.10957567 20.4712999,4.21552122 L20.6394082,4.29170133 C20.6667508,4.30531737 20.6938966,4.31939029 20.7210571,4.33391588 C21.1284645,4.55179975 21.4482003,4.87153546 21.6660841,5.27894287 L21.7082987,5.36059179 L21.7844788,5.52870008 C21.8904243,5.78947879 21.9586822,6.10044813 21.9861896,6.6157436 L21.9984571,6.99123592 L21.9996138,7.09575786 L21.9996138,7.09575786 L22,16.7951435 L21.9984571,17.0087641 L21.9861896,17.3842564 C21.9586822,17.8995519 21.8904243,18.2105212 21.7844788,18.4712999 L21.7082987,18.6394082 L21.6660841,18.7210571 L21.6660841,18.7210571 C21.4482003,19.1284645 21.1284645,19.4482003 20.7210571,19.6660841 L20.6394082,19.7082987 L20.4712999,19.7844788 C20.2105212,19.8904243 19.8995519,19.9586822 19.3842564,19.9861896 L19.0087641,19.9984571 L18.9042421,19.9996138 L18.9042421,19.9996138 L5.2048565,20 L4.99123592,19.9984571 L4.6157436,19.9861896 C4.10044813,19.9586822 3.78947879,19.8904243 3.52870008,19.7844788 L3.36059179,19.7082987 L3.27894287,19.6660841 L3.27894287,19.6660841 C2.87153546,19.4482003 2.55179975,19.1284645 2.33391588,18.7210571 L2.29170133,18.6394082 L2.21552122,18.4712999 C2.10957567,18.2105212 2.04131776,17.8995519 2.0138104,17.3842564 L2.00154289,17.0087641 L2.00154289,6.99123592 L2.0138104,6.6157436 C2.04131776,6.10044813 2.10957567,5.78947879 2.21552122,5.52870008 L2.29170133,5.36059179 C2.30531737,5.33324919 2.31939029,5.30610336 2.33391588,5.27894287 C2.55179975,4.87153546 2.87153546,4.55179975 3.27894287,4.33391588 L3.36059179,4.29170133 L3.52870008,4.21552122 C3.78947879,4.10957567 4.10044813,4.04131776 4.6157436,4.0138104 L4.99123592,4.00154289 L19.0087641,4.00154289 Z M18.9778593,5.20090932 L5.02214074,5.20090932 L4.6866884,5.20962434 C4.24250986,5.23005064 4.04529839,5.2848969 3.8448615,5.39209172 C3.64657626,5.49813582 3.49813582,5.64657626 3.39209172,5.8448615 C3.2938298,6.02859532 3.23955522,6.20961889 3.21545838,6.58064413 L3.20371305,6.85825749 C3.20245011,6.90992272 3.20152185,6.96446235 3.20090932,7.02214074 L3.20090932,16.9778593 L3.20962434,17.3133116 C3.23005064,17.7574901 3.2848969,17.9547016 3.39209172,18.1551385 C3.49813582,18.3534237 3.64657626,18.5018642 3.8448615,18.6079083 C4.02859532,18.7061702 4.20961889,18.7604448 4.58064413,18.7845416 L4.85825749,18.796287 L5.2048565,18.8 L18.9778593,18.7990907 L19.2883793,18.7914752 C19.7501871,18.7719627 19.9509898,18.7170882 20.1551385,18.6079083 C20.3534237,18.5018642 20.5018642,18.3534237 20.6079083,18.1551385 C20.7061702,17.9714047 20.7604448,17.7903811 20.7845416,17.4193559 L20.796287,17.1417425 L20.8,16.7951435 L20.7990907,7.02214074 L20.7914752,6.71162066 C20.7719627,6.24981289 20.7170882,6.04901019 20.6079083,5.8448615 C20.5018642,5.64657626 20.3534237,5.49813582 20.1551385,5.39209172 C19.9714047,5.2938298 19.7903811,5.23955522 19.4193559,5.21545838 L19.1417425,5.20371305 C19.0900773,5.20245011 19.0355376,5.20152185 18.9778593,5.20090932 Z M17.2180574,7.5 C17.6638168,7.5 17.8254599,7.54641281 17.9884229,7.63356635 C18.1513858,7.7207199 18.2792801,7.84861419 18.3664336,8.01157715 C18.4535872,8.17454011 18.5,8.33618323 18.5,8.7819426 L18.5,15.2180574 C18.5,15.6638168 18.4535872,15.8254599 18.3664336,15.9884229 C18.2792801,16.1513858 18.1513858,16.2792801 17.9884229,16.3664336 C17.8254599,16.4535872 17.6638168,16.5 17.2180574,16.5 L13.2819426,16.5 C12.8361832,16.5 12.6745401,16.4535872 12.5115771,16.3664336 C12.3486142,16.2792801 12.2207199,16.1513858 12.1335664,15.9884229 C12.0464128,15.8254599 12,15.6638168 12,15.2180574 L12,8.7819426 C12,8.33618323 12.0464128,8.17454011 12.1335664,8.01157715 C12.2207199,7.84861419 12.3486142,7.7207199 12.5115771,7.63356635 C12.6745401,7.54641281 12.8361832,7.5 13.2819426,7.5 L17.2180574,7.5 Z" id="å½¢çŠ¶ç»“åˆ" fill="#000000"></path>
    </g>
</svg>