<?xml version="1.0" encoding="UTF-8"?>
<svg width="32px" height="32px" viewBox="0 0 32 32" version="1.1" xmlns="http://www.w3.org/2000/svg" xmlns:xlink="http://www.w3.org/1999/xlink">
    <title>PlayBtn_Black_Medium</title>
    <g id="PlayBtn_Black_Medium" stroke="none" stroke-width="1" fill="none" fill-rule="evenodd">
        <g fill="#000000" fill-rule="nonzero" id="形状结合">
            <path d="M16,0 C24.836556,0 32,7.163444 32,16 C32,24.836556 24.836556,32 16,32 C7.163444,32 0,24.836556 0,16 C0,7.163444 7.163444,0 16,0 Z M16,1 C7.71572875,1 1,7.71572875 1,16 C1,24.2842712 7.71572875,31 16,31 C24.2842712,31 31,24.2842712 31,16 C31,7.71572875 24.2842712,1 16,1 Z M12.8,10.1785437 C12.9392216,10.1785437 13.076033,10.214876 13.1969112,10.2839492 L21.9844596,15.3054055 C22.3680736,15.5246135 22.5013509,16.0132972 22.282143,16.3969112 C22.2112715,16.5209362 22.1084846,16.6237231 21.9844596,16.6945945 L13.1969112,21.7160508 C12.8132972,21.9352587 12.3246135,21.8019814 12.1054055,21.4183674 C12.0363323,21.2974893 12,21.1606778 12,21.0214563 L12,10.9785437 C12,10.5367159 12.3581722,10.1785437 12.8,10.1785437 Z"></path>
        </g>
    </g>
</svg>