<?xml version="1.0" encoding="UTF-8"?>
<svg width="31px" height="15px" viewBox="0 0 31 15" version="1.1" xmlns="http://www.w3.org/2000/svg" xmlns:xlink="http://www.w3.org/1999/xlink">
    <title>编组 20</title>
    <g id="页面-1" stroke="none" stroke-width="1" fill="none" fill-rule="evenodd">
        <g id="编组-18备份" transform="translate(-47.000000, -471.000000)">
            <g id="编组-20" transform="translate(47.000000, 471.000000)">
                <path d="M2,0 L29,0 C30.1045695,-2.02906125e-16 31,0.8954305 31,2 L31,13 C31,14.1045695 30.1045695,15 29,15 L2,15 C0.8954305,15 1.3527075e-16,14.1045695 0,13 L0,2 C-1.3527075e-16,0.8954305 0.8954305,2.02906125e-16 2,0 Z" id="矩形" fill="#FFBB29"></path>
                <path d="M12.208,13.22 L12.688,12.464 C12.028,12.152 11.332,11.852 10.612,11.588 C11.848,10.7 12.748,9.8 13.324,8.912 L13.324,8.168 L7.612,8.168 C7.78,7.676 7.96,7.148 8.128,6.584 L14.776,6.584 L14.776,5.744 L8.356,5.744 C8.476,5.276 8.596,4.784 8.716,4.256 L14.068,4.256 L14.068,3.452 L8.896,3.452 C8.992,3.02 9.076,2.552 9.172,2.072 L8.284,2 C8.188,2.48 8.092,2.96 7.984,3.452 L4.816,3.452 L4.816,4.256 L7.804,4.256 C7.684,4.76 7.564,5.252 7.432,5.744 L4,5.744 L4,6.584 L7.192,6.584 C6.94,7.412 6.664,8.204 6.376,8.972 L12.304,8.972 C11.668,9.764 10.792,10.532 9.688,11.252 C8.86,10.964 7.996,10.688 7.096,10.448 L6.64,11.12 C8.548,11.636 10.408,12.332 12.208,13.22 Z M16.564,12.92 C17.476,11.012 17.944,8.72 17.956,6.056 L17.956,4.784 L26.152,4.784 L26.152,2.54 L17.116,2.54 L17.116,6.056 C17.104,8.624 16.708,10.724 15.928,12.344 L16.564,12.92 Z M25.324,4.124 L17.956,4.124 L17.956,3.236 L25.324,3.236 L25.324,4.124 Z M19.288,13.088 L19.288,10.184 L21.892,10.184 L21.892,11.288 C21.28,11.336 20.656,11.372 20.008,11.42 L20.188,12.14 C21.592,12.008 22.912,11.852 24.16,11.684 C24.22,11.852 24.28,12.044 24.352,12.236 L24.952,11.972 C24.736,11.348 24.484,10.76 24.196,10.184 L25.624,10.184 L25.624,11.888 C25.624,12.2 25.48,12.356 25.216,12.356 L24.004,12.32 L24.196,13.052 L25.456,13.052 C26.08,13.052 26.404,12.716 26.404,12.056 L26.404,9.488 L22.708,9.488 L22.708,8.804 L25.588,8.804 L25.588,6.716 L22.708,6.716 L22.708,6.056 C23.956,5.996 25.06,5.912 26.008,5.792 L25.648,5.168 C23.752,5.384 21.364,5.492 18.496,5.492 L18.712,6.14 C19.84,6.14 20.908,6.116 21.892,6.092 L21.892,6.716 L19.06,6.716 L19.06,8.804 L21.892,8.804 L21.892,9.488 L18.484,9.488 L18.484,13.088 L19.288,13.088 Z M24.808,8.18 L22.708,8.18 L22.708,7.352 L24.808,7.352 L24.808,8.18 Z M21.892,8.18 L19.852,8.18 L19.852,7.352 L21.892,7.352 L21.892,8.18 Z M22.66,11.216 L22.66,10.184 L23.512,10.184 C23.656,10.448 23.788,10.748 23.92,11.072 L22.66,11.216 Z" id="专属" fill="#FFFFFF" fill-rule="nonzero"></path>
            </g>
        </g>
    </g>
</svg>