<?xml version="1.0" encoding="UTF-8"?>
<svg width="24px" height="24px" viewBox="0 0 24 24" version="1.1" xmlns="http://www.w3.org/2000/svg" xmlns:xlink="http://www.w3.org/1999/xlink">
    <title>icons_filled_outlined_like</title>
    <g id="icons_filled_outlined_like" stroke="none" stroke-width="1" fill="none" fill-rule="evenodd" fill-opacity="0.9">
        <g id="common_icons_like" fill="#000000">
            <path d="M11.6066017,6.46446609 L11.992781,6.84163553 L12.3137085,7.14654555 L12.7760574,6.70521964 L13.0208153,6.46446609 C14.9734367,4.51184464 18.1392616,4.51184464 20.0918831,6.46446609 C22.0263413,8.39892429 22.0443356,11.5241205 20.145866,13.4807312 L13.0208153,20.6066017 C12.6303114,20.9971464 11.9971464,20.9971796 11.6066017,20.6066757 L4.48114108,13.4811411 C2.5830814,11.5241205 2.60107571,8.39892429 4.53553391,6.46446609 C6.48815536,4.51184464 9.65398026,4.51184464 11.6066017,6.46446609 Z M10.1923882,7.87867966 C9.02081528,6.70710678 7.12132034,6.70710678 5.94974747,7.87867966 C4.83677117,8.99165595 4.77991545,10.7646156 5.76659312,11.9251498 L5.89536198,12.0669349 L12.313,18.485 L18.710487,12.0880047 C19.8047238,10.9602566 19.8362274,9.18691697 18.8112887,8.02114596 L18.6776695,7.87867966 C17.5060967,6.70710678 15.6066017,6.70710678 14.4350288,7.87867966 L14.1722665,8.13721872 L13.6852173,8.60221163 L12.3137085,9.89442851 L10.7673439,8.43679167 L10.317635,8.00286911 L10.1923882,7.87867966 Z" id="Path"></path>
        </g>
    </g>
</svg>