<?xml version="1.0" encoding="UTF-8"?>
<svg width="24px" height="24px" viewBox="0 0 24 24" version="1.1" xmlns="http://www.w3.org/2000/svg" xmlns:xlink="http://www.w3.org/1999/xlink">
    <!-- Generator: Sketch 64 (93537) - https://sketch.com -->
    <title>at</title>
    <desc>Created with Sketch.</desc>
    <g id="at" stroke="none" stroke-width="1" fill="none" fill-rule="evenodd">
        <g id="编组备份-4" opacity="0.9"></g>
        <g id="icons_outlined_at" transform="translate(3.000000, 3.000000)" fill="#000000" fill-rule="nonzero">
            <path d="M8.77264323,5.70468187 C7.16451019,5.70468187 6.12199632,7.03361345 6.12199632,9.07563025 C6.12199632,11.1068427 7.15341961,12.42497 8.7615527,12.42497 C10.4029575,12.42497 11.456562,11.0852341 11.456562,9.0216086 C11.456562,6.99039616 10.4251387,5.70468187 8.77264323,5.70468187 Z M9.12754157,0 C13.9875599,0 18,3.25210084 18,8.03841537 C18,11.4741897 16.5360444,13.6782713 14.0961183,13.6782713 C12.7763401,13.6782713 11.7338263,12.9003601 11.5674676,11.6902761 L11.4898337,11.6902761 C10.9907578,12.9219688 9.95933459,13.602641 8.58410353,13.602641 C6.29944549,13.602641 4.74676526,11.7659063 4.74676526,9.04321724 C4.74676526,6.38535414 6.32162663,4.54861945 8.58410353,4.54861945 C9.87061001,4.54861945 10.9907578,5.22929172 11.4011091,6.28811525 L11.4787431,6.28811525 L11.4787431,4.76470588 L12.7652495,4.76470588 L12.7652495,10.9447779 C12.7652495,11.9279712 13.297597,12.5762305 14.3068392,12.5762305 C15.7818854,12.5762305 16.7911276,10.9231692 16.7911276,8.01680672 C16.7911276,3.88955582 13.4749657,1.08396305 9.12754157,1.08396305 C4.78011758,1.08396305 1.21996303,4.17249668 1.21996303,9.01080432 C1.21996303,13.5051683 5.01891058,16.9303721 9.24953792,16.9303721 C10.7467653,16.9303721 12.1774492,16.7466987 12.9316082,16.4549819 L12.9316082,17.5246098 C12.0332718,17.8271309 10.7245841,18 9.23844739,18 C3.97292078,18 0,14.1297305 0,8.96758703 C0,3.8054436 4.26752329,0 9.12754157,0 Z" id="@"></path>
        </g>
    </g>
</svg>