<?xml version="1.0" encoding="UTF-8"?>
<svg width="24px" height="24px" viewBox="0 0 24 24" version="1.1" xmlns="http://www.w3.org/2000/svg" xmlns:xlink="http://www.w3.org/1999/xlink">
    <title>icons_filled_Documentation</title>
    <g id="icons_filled_Documentation" stroke="none" stroke-width="1" fill="none" fill-rule="evenodd" fill-opacity="0.9">
        <path d="M19,2 C19.5522847,2 20,2.44771525 20,3 L20,21.0013542 C20,21.5542301 19.5541613,22 19.0041915,22 L5.99580851,22 C5.44892021,22 5,21.552891 5,21.0013542 L5,2.99864581 C5,2.44576991 5.44583866,2 5.99580851,2 L19,2 Z M13,13 L8,13 L8,14.5 L13,14.5 L13,13 Z M17,9 L8,9 L8,10.5 L17,10.5 L17,9 Z M17,5 L8,5 L8,6.5 L17,6.5 L17,5 Z" id="形状结合" fill="#000000"></path>
    </g>
</svg>