<?xml version="1.0" encoding="UTF-8"?>
<svg width="24px" height="24px" viewBox="0 0 24 24" version="1.1" xmlns="http://www.w3.org/2000/svg" xmlns:xlink="http://www.w3.org/1999/xlink">
    <title>▫️ 支付图标/样式图标/公告</title>
    <g id="▫️-支付图标/样式图标/公告" stroke="none" stroke-width="1" fill="none" fill-rule="evenodd" fill-opacity="0.9">
        <path d="M15,3.80424764 C15.5522847,3.80424764 16,4.25196289 16,4.80424764 L16,4.80424764 L16,19.1957524 C16,19.3831721 15.9473306,19.5668197 15.8479983,19.7257513 C15.555288,20.1940878 14.9383376,20.336461 14.4700011,20.0437507 L14.4700011,20.0437507 L8,16 L6,16 C3.790861,16 2,14.209139 2,12 C2,9.790861 3.790861,8 6,8 L6,8 L8,8 L14.4700011,3.95624934 C14.6289327,3.85691709 14.8125803,3.80424764 15,3.80424764 Z M18.4429582,15.1053983 L22.4468644,17.1053983 L21.5531356,18.8946017 L17.5492293,16.8946017 L18.4429582,15.1053983 Z M22,11 L22,13 L17.9960938,13 L17.9960938,11 L22,11 Z M21.5531356,5.10539832 L22.4468644,6.89460168 L18.4429582,8.89460168 L17.5492293,7.10539832 L21.5531356,5.10539832 Z" id="形状结合" fill="#000000"></path>
    </g>
</svg>