<?xml version="1.0" encoding="UTF-8"?>
<svg width="24px" height="24px" viewBox="0 0 24 24" version="1.1" xmlns="http://www.w3.org/2000/svg" xmlns:xlink="http://www.w3.org/1999/xlink">
    <title>icons_filled_play_list.svg</title>
    <g id="icons_filled_play_list.svg" stroke="none" stroke-width="1" fill="none" fill-rule="evenodd">
        <g id="编组-5" fill="#000000">
            <path d="M4.25,16.75 C4.94035594,16.75 5.5,17.3096441 5.5,18 C5.5,18.6903559 4.94035594,19.25 4.25,19.25 C3.55964406,19.25 3,18.6903559 3,18 C3,17.3096441 3.55964406,16.75 4.25,16.75 Z M20,17 C20.5522847,17 21,17.4477153 21,18 C21,18.5522847 20.5522847,19 20,19 L8,19 C7.44771525,19 7,18.5522847 7,18 C7,17.4477153 7.44771525,17 8,17 L20,17 Z M4.25,10.75 C4.94035594,10.75 5.5,11.3096441 5.5,12 C5.5,12.6903559 4.94035594,13.25 4.25,13.25 C3.55964406,13.25 3,12.6903559 3,12 C3,11.3096441 3.55964406,10.75 4.25,10.75 Z M20,11 C20.5522847,11 21,11.4477153 21,12 C21,12.5522847 20.5522847,13 20,13 L8,13 C7.44771525,13 7,12.5522847 7,12 C7,11.4477153 7.44771525,11 8,11 L20,11 Z M4,3.08062485 C4.2270715,3.08062485 4.447382,3.1579056 4.62469505,3.29975604 L7.02391399,5.21913119 C7.45517592,5.56414074 7.5250973,6.19343311 7.18008775,6.62469505 C7.13395599,6.68235975 7.08157869,6.73473705 7.02391399,6.78086881 L4.62469505,8.70024396 C4.19343311,9.04525351 3.56414074,8.97533214 3.21913119,8.5440702 C3.07728075,8.36675715 3,8.14644665 3,7.91937515 L3,4.08062485 C3,3.5283401 3.44771525,3.08062485 4,3.08062485 Z M20,5 C20.5522847,5 21,5.44771525 21,6 C21,6.55228475 20.5522847,7 20,7 L10,7 C9.44771525,7 9,6.55228475 9,6 C9,5.44771525 9.44771525,5 10,5 L20,5 Z" id="形状结合"></path>
        </g>
    </g>
</svg>