<?xml version="1.0" encoding="UTF-8"?>
<svg width="24px" height="24px" viewBox="0 0 24 24" version="1.1" xmlns="http://www.w3.org/2000/svg" xmlns:xlink="http://www.w3.org/1999/xlink">
    <title>朋友赞</title>
    <g id="朋友赞" stroke="none" stroke-width="1" fill="none" fill-rule="evenodd">
        <g id="0.图标/面型/icons_filled_like" stroke="#000000" stroke-width="1.5">
            <path d="M11.0762716,6.99479618 C10.2464075,6.16493206 9.15873766,5.75 8.07106781,5.75 C6.98339796,5.75 5.89572811,6.16493206 5.06586399,6.99479618 C4.24438727,7.8162729 3.82949025,8.89036844 3.82114377,9.96706445 C3.81278391,11.0454874 4.21218464,12.1265696 5.01951925,12.9589831 L12.4904574,20.0762994 L19.6155054,12.9504316 C20.4150514,12.1262778 20.8145189,11.0453637 20.8062225,9.96706006 C20.7979386,8.89039344 20.3830388,7.81628202 19.561553,6.99479618 C18.7316889,6.16493206 17.644019,5.75 16.5563492,5.75 C15.4686793,5.75 14.3810095,6.16493206 13.5511454,6.99479618 C13.3641861,7.18175543 13.1231784,7.41433019 12.8280243,7.69242033 C12.6359868,7.87335545 12.4645464,8.03255572 12.3137291,8.17004967 C12.1628706,8.03255572 11.9914302,7.87335545 11.7993927,7.69242033 C11.5042386,7.41433019 11.2632309,7.18175543 11.0762716,6.99479618 Z" id="Path"></path>
        </g>
    </g>
</svg>