<?xml version="1.0" encoding="UTF-8"?>
<svg width="24px" height="24px" viewBox="0 0 24 24" version="1.1" xmlns="http://www.w3.org/2000/svg" xmlns:xlink="http://www.w3.org/1999/xlink">
    <title>fire2</title>
    <g id="fire2" stroke="none" stroke-width="1" fill="none" fill-rule="evenodd">
        <path d="M10.2045968,3 C11.4122696,3 17.3407656,6.40334061 14.705744,12.9948681 C14.7037482,12.9998605 14.7201822,12.9987088 14.7306026,12.9929005 C15.3322996,12.6575125 16.3726488,11.7919356 16.7463167,9.91174762 C18.5187163,11.0282574 19.6784752,12.755457 19.7468061,14.7045637 L19.75,14.8869968 C19.75,17.7752609 17.3538178,20.2090741 14.0876298,20.9491584 C14.0245199,18.99696 13.1690629,17.4508589 12.1230159,17.4508589 C11.0677433,17.4508589 10.2064374,19.0243517 10.1570023,21.0005934 C6.84811932,20.3459554 4.37112087,17.9650471 4.25431283,15.0989475 L4.25,14.8869968 C4.25,13.2443954 5.0250155,11.7487806 6.29431539,10.6281101 L6.59410656,10.3712189 L7.19650303,9.86695346 C8.89037494,8.43431701 11.3881685,6.06404103 10.2045968,3 Z" id="形状结合" fill="#000000"></path>
    </g>
</svg>