<?xml version="1.0" encoding="UTF-8"?>
<svg width="24px" height="24px" viewBox="0 0 24 24" version="1.1" xmlns="http://www.w3.org/2000/svg" xmlns:xlink="http://www.w3.org/1999/xlink">
    <title>icons_filled_top_off</title>
    <g id="icons_filled_top_off" stroke="none" stroke-width="1" fill="none" fill-rule="evenodd">
        <path d="M7.267,9.388 L16.0710678,18.192 L16.0710678,21.0710678 C16.0710678,21.6233526 15.6233526,22.0710678 15.0710678,22.0710678 L9.07106781,22.0710678 C8.51878306,22.0710678 8.07106781,21.6233526 8.07106781,21.0710678 L8.07106781,13.0710678 L6,13.0710678 C5.44771525,13.0710678 5,12.6233526 5,12.0710678 C5,11.8058513 5.10535684,11.5514974 5.29289322,11.363961 L7.267,9.388 Z M5.12132034,3 L9.38766017,7.267 L11.363961,5.29289322 C11.7544853,4.90236893 12.3876503,4.90236893 12.7781746,5.29289322 L18.8492424,11.363961 C19.2397667,11.7544853 19.2397667,12.3876503 18.8492424,12.7781746 C18.661706,12.965711 18.4073521,13.0710678 18.1421356,13.0710678 L16.0710678,13.0710678 L16.0706602,13.949 L22.0918831,19.9705627 L21.0312229,21.0312229 L4.06066017,4.06066017 L5.12132034,3 Z" id="形状" fill="#000000" fill-rule="nonzero"></path>
    </g>
</svg>