<?xml version="1.0" encoding="UTF-8"?>
<svg width="24px" height="24px" viewBox="0 0 24 24" version="1.1" xmlns="http://www.w3.org/2000/svg" xmlns:xlink="http://www.w3.org/1999/xlink">
    <title>icon_全屏-点赞列表</title>
    <g id="icon_全屏-点赞列表" stroke="none" stroke-width="1" fill="none" fill-rule="evenodd">
        <g id="编组" fill="#000000">
            <path d="M11.2905866,6.06446609 L11.6767659,6.44163553 L11.6767659,6.44163553 L11.9976934,6.74654555 L11.9976934,6.74654555 L12.4600423,6.30521964 L12.4600423,6.30521964 L12.7048002,6.06446609 L12.7048002,6.06446609 C14.6574216,4.11184464 17.8232465,4.11184464 19.775868,6.06446609 C21.0655068,7.35410489 21.5033838,9.17296059 21.0894992,10.8219743 L21.0410012,10.9954423 C20.7391268,10.721313 20.3561179,10.547587 19.9363762,10.5084388 L19.7543674,10.5 L14.7456326,10.5 L14.5999443,10.5053564 C13.5901535,10.5799023 12.8,11.4232432 12.8,12.45 C12.8,13.0538632 13.0727624,13.5930888 13.5017265,13.9496018 C13.0724033,14.3075079 12.8,14.8471379 12.8,15.45 C12.8,16.0538632 13.0727624,16.5930888 13.5017265,16.9496018 C13.0724033,17.3075079 12.8,17.8471379 12.8,18.45 C12.8,18.9154974 12.9620846,19.3425848 13.2329425,19.6776347 L12.7047632,20.2065647 C12.3443322,20.5671017 11.7771053,20.5948635 11.3847983,20.2898594 L11.2905866,20.2066017 L4.16512597,13.0811411 C2.26706629,11.1241205 2.28506059,7.99892429 4.21951879,6.06446609 C6.17214025,4.11184464 9.33796515,4.11184464 11.2905866,6.06446609 Z M19.7543674,17.7 L19.8555453,17.7067915 C20.1496413,17.7466108 20.3892561,17.957719 20.470397,18.2390355 L20.4931933,18.3476228 L20.5,18.45 L20.4932421,18.5517706 C20.453621,18.8475892 20.24358,19.0886075 19.9639915,19.1702236 L19.8560828,19.1931534 L19.7543674,19.2 L14.7456326,19.2 L14.6444547,19.1932086 C14.2805109,19.1439322 14,18.832343 14,18.45 C14,18.0703043 14.2783607,17.7565091 14.6439172,17.7068467 L14.7456326,17.7 L19.7543674,17.7 Z M19.7543674,14.7 L19.8555453,14.7067915 C20.1496413,14.7466108 20.3892561,14.957719 20.470397,15.2390355 L20.4931933,15.3476228 L20.5,15.45 L20.4932421,15.5517706 C20.453621,15.8475892 20.24358,16.0886075 19.9639915,16.1702236 L19.8560828,16.1931534 L19.7543674,16.2 L14.7456326,16.2 L14.6444547,16.1932086 C14.2805109,16.1439322 14,15.832343 14,15.45 C14,15.0703043 14.2783607,14.7565091 14.6439172,14.7068467 L14.7456326,14.7 L19.7543674,14.7 Z M19.7543674,11.7 L19.8555453,11.7067915 C20.1496413,11.7466108 20.3892561,11.957719 20.470397,12.2390355 L20.4931933,12.3476228 L20.5,12.45 L20.4932421,12.5517706 C20.453621,12.8475892 20.24358,13.0886075 19.9639915,13.1702236 L19.8560828,13.1931534 L19.7543674,13.2 L14.7456326,13.2 L14.6444547,13.1932086 C14.2805109,13.1439322 14,12.832343 14,12.45 C14,12.0703043 14.2783607,11.7565091 14.6439172,11.7068467 L14.7456326,11.7 L19.7543674,11.7 Z" id="形状"></path>
        </g>
    </g>
</svg>