<?xml version="1.0" encoding="UTF-8"?>
<svg width="64px" height="64px" viewBox="0 0 64 64" version="1.1" xmlns="http://www.w3.org/2000/svg" xmlns:xlink="http://www.w3.org/1999/xlink">
    <!-- Generator: Sketch 62 (91390) - https://sketch.com -->
    <title>画板</title>
    <desc>Created with Sketch.</desc>
    <g id="画板" stroke="none" stroke-width="1" fill="none" fill-rule="evenodd">
        <g id="编组" fill="#AAAAAA">
            <g id="symbol" transform="translate(6.857143, 11.428571)">
                <path d="M39.6740376,24.172175 C38.5420436,24.172175 37.6364483,23.2639344 37.6364483,22.1286336 C37.6364483,20.9933329 38.5420436,20.0850923 39.6740376,20.0850923 C40.8060317,20.0850923 41.7116269,20.9933329 41.7116269,22.1286336 C41.7116269,23.2071694 40.8060317,24.172175 39.6740376,24.172175 M29.6316332,24.172175 C28.4996392,24.172175 27.5940439,23.2639344 27.5940439,22.1286336 C27.5940439,20.9933329 28.4996392,20.0850923 29.6316332,20.0850923 C30.7636273,20.0850923 31.6692225,20.9933329 31.6692225,22.1286336 C31.6692225,23.2071694 30.7636273,24.172175 29.6316332,24.172175 M44.5337368,35.6424344 C47.7102336,33.3493659 49.716442,29.9377273 49.716442,26.1905178 C49.716442,19.2553837 43.0290805,13.6625337 34.7256065,13.6625337 C26.4221325,13.6625337 19.7347709,19.2553837 19.7347709,26.1905178 C19.7347709,33.1256519 26.4221325,38.7185019 34.7256065,38.7185019 C36.4531749,38.7185019 38.0692873,38.4947879 39.6296716,38.0473599 C39.7411277,37.9914314 39.9083117,37.9914314 40.0754957,37.9914314 C40.3541358,37.9914314 40.6327759,38.1032884 40.8556879,38.2151454 L44.1436407,40.1167144 C44.2550967,40.1726429 44.3108248,40.2285714 44.4222808,40.2285714 C44.7009209,40.2285714 44.9238329,40.0048574 44.9238329,39.7252149 C44.9238329,39.6133579 44.8681049,39.5015009 44.8681049,39.3337154 C44.8681049,39.2777869 44.4222808,37.7677174 44.1993687,36.8169329 C44.1436407,36.7050759 44.1436407,36.5932189 44.1436407,36.4813619 C44.0879127,36.0898624 44.2550967,35.8102199 44.5337368,35.6424344" id="Shape-Copy"></path>
                <path d="M23.782929,12.4264992 C22.4878858,12.4264992 21.4626433,11.4049589 21.4626433,10.1145923 C21.4626433,8.82422575 22.4878858,7.80268553 23.782929,7.80268553 C25.0779722,7.80268553 26.1032148,8.82422575 26.1032148,10.1145923 C26.1032148,11.3511937 25.0779722,12.4264992 23.782929,12.4264992 M11.8914645,12.4264992 C10.5964213,12.4264992 9.57117875,11.4049589 9.57117875,10.1145923 C9.57117875,8.82422575 10.5964213,7.80268553 11.8914645,7.80268553 C13.1865077,7.80268553 14.2117503,8.82422575 14.2117503,10.1145923 C14.2117503,11.3511937 13.1865077,12.4264992 11.8914645,12.4264992 M17.9763325,0 C8.06987061,0 0,6.6315222 0,14.8656623 C0,19.3419398 2.39313404,23.3761158 6.23327937,26.0839873 C6.51155077,26.3050381 6.73416789,26.6366142 6.73416789,27.0787157 C6.73416789,27.189241 6.67851361,27.3550291 6.67851361,27.4655545 C6.40024221,28.5708082 5.89935369,30.3944768 5.84369941,30.4497394 C5.78804513,30.6155275 5.73239085,30.7260529 5.73239085,30.8918409 C5.73239085,31.223417 6.01066225,31.4997305 6.34458793,31.4997305 C6.45589649,31.4997305 6.56720505,31.4444678 6.67851361,31.3892051 L10.6299675,29.123435 C10.9082389,28.9576469 11.2421646,28.8471216 11.5760903,28.8471216 C11.7430531,28.8471216 11.9100159,28.8471216 12.0769788,28.9023843 C13.91357,29.3997484 15.9171241,29.7313245 17.9206782,29.7313245 L18.9224552,29.7313245 C18.5328753,28.5708082 18.3102581,27.3550291 18.3102581,26.0839873 C18.3102581,18.6235248 25.6566231,12.5446295 34.6726165,12.5446295 L35.6743935,12.5446295 C34.3943451,5.41574313 26.9366716,0 17.9763325,0" id="Shape-Copy-2"></path>
            </g>
        </g>
    </g>
</svg>