<?xml version="1.0" encoding="UTF-8"?>
<svg width="32px" height="32px" viewBox="0 0 32 32" version="1.1" xmlns="http://www.w3.org/2000/svg" xmlns:xlink="http://www.w3.org/1999/xlink">
    <!-- Generator: Sketch 53.2 (72643) - https://sketchapp.com -->
    <title>画板 copy</title>
    <desc>Created with Sketch.</desc>
    <g id="画板-copy" stroke="none" stroke-width="1" fill="none" fill-rule="evenodd" fill-opacity="0.9">
        <g id="分组" fill="#000000">
            <path d="M10.4666667,25.4946981 C16.0786334,28.7347686 23.2546275,26.8119668 26.4946981,21.2 C29.7347686,15.5880332 27.8119668,8.41203913 22.2,5.1719686 C16.5880332,1.93189806 9.41203913,3.85469988 6.1719686,9.46666667 C2.93189806,15.0786334 4.85469988,22.2546275 10.4666667,25.4946981 Z M9.66666667,26.8803387 C3.28943169,23.1984404 1.10442962,15.0439016 4.78632795,8.66666667 C8.46822628,2.28943169 16.622765,0.104429618 23,3.78632795 C29.377235,7.46822628 31.562237,15.622765 27.8803387,22 C24.1984404,28.377235 16.0439016,30.562237 9.66666667,26.8803387 Z M19.2,10.368121 C18.3709595,9.88947424 17.3108694,10.1735245 16.8322226,11.0025651 L14.4988893,15.0440169 C14.0202425,15.8730575 14.3042928,16.9331475 15.1333333,17.4117943 C15.9623739,17.8904411 17.0224639,17.6063908 17.5011107,16.7773503 L19.834444,12.7358984 C20.3130908,11.9068578 20.0290405,10.8467678 19.2,10.368121 Z M13.7192896,21.4610551 L12.6928486,23.2389031 L11.3072079,22.4389031 L12.333648,20.6610567 C9.98703807,18.8544975 9.28309999,15.5446957 10.8055131,12.9077989 L11.8038476,11.1786328 L13.1894882,11.9786328 L12.1911537,13.7077989 C10.9748861,15.8144361 11.6954425,18.5061285 13.8,19.7211954 C15.9047024,20.9363459 18.5959907,20.2142958 19.8121772,18.1077989 L20.8105118,16.3786328 L22.1961524,17.1786328 L21.1978179,18.9077989 C19.6757222,21.544146 16.457587,22.5902016 13.7192896,21.4610551 L13.7192896,21.4610551 Z M20,8.98248037 C21.5943087,9.90295496 22.1405593,11.9415896 21.2200847,13.5358984 L18.8867513,17.5773503 C17.9662768,19.171659 15.9276421,19.7179095 14.3333333,18.7974349 C12.7390246,17.8769604 12.1927741,15.8383257 13.1132487,14.2440169 L15.446582,10.2025651 C16.3670566,8.60825631 18.4056913,8.06200579 20,8.98248037 Z" id="形状"></path>
        </g>
    </g>
</svg>