<?xml version="1.0" encoding="UTF-8"?>
<svg width="24px" height="24px" viewBox="0 0 24 24" version="1.1" xmlns="http://www.w3.org/2000/svg" xmlns:xlink="http://www.w3.org/1999/xlink">
    <title>icons_outlined_min_window</title>
    <g id="icons_outlined_min_window" stroke="none" stroke-width="1" fill="none" fill-rule="evenodd">
        <g id="编组">
            <rect id="矩形" x="0" y="0" width="24" height="24"></rect>
            <path d="M13.2714466,13.5288059 L16.8069805,17.0643398 L15.7463203,18.125 L13.3136991,15.6923398 L13.3143398,22.5643398 L11.8143398,22.5643398 L11.8136991,15.6923398 L9.38235931,18.125 L8.32169914,17.0643398 L11.857233,13.5288059 C12.2477573,13.1382816 12.8809223,13.1382816 13.2714466,13.5288059 Z M13.3143398,0.564339828 L13.3136991,7.43433983 L15.7463203,5.00367966 L16.8069805,6.06433983 L13.2714466,9.59987373 C12.8809223,9.99039803 12.2477573,9.99039803 11.857233,9.59987373 L11.857233,9.59987373 L8.32169914,6.06433983 L9.38235931,5.00367966 L11.8136991,7.43633983 L11.8143398,0.564339828 L13.3143398,0.564339828 Z" id="形状结合" fill="#000000" transform="translate(12.564340, 11.564340) rotate(45.000000) translate(-12.564340, -11.564340) "></path>
        </g>
    </g>
</svg>