<?xml version="1.0" encoding="UTF-8"?>
<svg width="24px" height="24px" viewBox="0 0 24 24" version="1.1" xmlns="http://www.w3.org/2000/svg" xmlns:xlink="http://www.w3.org/1999/xlink">
    <title>画板</title>
    <defs>
        <filter id="filter-1">
            <feColorMatrix in="SourceGraphic" type="matrix" values="0 0 0 0 0.000000 0 0 0 0 0.000000 0 0 0 0 0.000000 0 0 0 1.000000 0"></feColorMatrix>
        </filter>
    </defs>
    <g id="画板" stroke="none" stroke-width="1" fill="none" fill-rule="evenodd">
        <g id="common_icons_add" filter="url(#filter-1)">
            <g fill="#FFFFFF">
                <g id="编组-4" transform="translate(0.857143, 2.142857)">
                    <rect id="Path" transform="translate(6.428571, 4.571429) rotate(-180.000000) translate(-6.428571, -4.571429) " x="0" y="3.42857143" width="12.8571429" height="2.28571429"></rect>
                    <rect id="Path" transform="translate(19.714286, 4.571429) rotate(-180.000000) translate(-19.714286, -4.571429) " x="17.4285714" y="3.42857143" width="4.57142857" height="2.28571429"></rect>
                    <path d="M15.1428571,5.19965023e-13 C17.6675874,5.19965023e-13 19.7142857,2.04669829 19.7142857,4.57142857 C19.7142857,7.09615886 17.6675874,9.14285714 15.1428571,9.14285714 C12.6181269,9.14285714 10.5714286,7.09615886 10.5714286,4.57142857 C10.5714286,2.04669829 12.6181269,5.19965023e-13 15.1428571,5.19965023e-13 Z M15.1428571,2.28571429 C13.880492,2.28571429 12.8571429,3.30906343 12.8571429,4.57142857 C12.8571429,5.83379371 13.880492,6.85714286 15.1428571,6.85714286 C16.4052223,6.85714286 17.4285714,5.83379371 17.4285714,4.57142857 C17.4285714,3.30906343 16.4052223,2.28571429 15.1428571,2.28571429 Z" id="形状结合" transform="translate(15.142857, 4.571429) rotate(-180.000000) translate(-15.142857, -4.571429) "></path>
                </g>
                <g id="编组" transform="translate(0.857143, 14.830357)">
                    <rect id="Path" x="9.14285714" y="2.40178571" width="12.8571429" height="2.28571429"></rect>
                    <rect id="Path" x="0" y="2.40178571" width="4.57142857" height="2.28571429"></rect>
                    <path d="M6.85714286,0 C8.75069057,0 10.2857143,1.53502371 10.2857143,3.42857143 C10.2857143,5.32211914 8.75069057,6.85714286 6.85714286,6.85714286 C4.96359514,6.85714286 3.42857143,5.32211914 3.42857143,3.42857143 C3.42857143,1.53502371 4.96359514,0 6.85714286,0 Z M6.85428571,1.88571429 C6.00218924,1.88571429 5.31142857,2.57647496 5.31142857,3.42857143 C5.31142857,4.2806679 6.00218924,4.97142857 6.85428571,4.97142857 C7.70638219,4.97142857 8.39714286,4.2806679 8.39714286,3.42857143 C8.39714286,2.57647496 7.70638219,1.88571429 6.85428571,1.88571429 Z" id="形状结合"></path>
                </g>
            </g>
        </g>
    </g>
</svg>