<?xml version="1.0" encoding="UTF-8"?>
<svg width="24px" height="24px" viewBox="0 0 24 24" version="1.1" xmlns="http://www.w3.org/2000/svg" xmlns:xlink="http://www.w3.org/1999/xlink">
    <title>全屏-收藏</title>
    <g id="全屏-收藏" stroke="none" stroke-width="1" fill="none" fill-rule="evenodd">
        <path d="M12,18.3349573 L7.32783438,20.7912601 C6.83898979,21.0482609 6.23436264,20.8603144 5.97736183,20.3714698 C5.87502276,20.1768093 5.83970808,19.9538413 5.87688493,19.7370836 L6.76918916,14.5345508 L2.98932777,10.8500965 C2.59384419,10.4645953 2.58575189,9.83148203 2.9712531,9.43599846 C3.1247617,9.27851482 3.32590411,9.17602764 3.54354115,9.14440313 L8.76718111,8.38536382 L11.1032639,3.65194303 C11.3476862,3.15668937 11.9473121,2.95335038 12.4425657,3.19777267 C12.6397783,3.29510291 12.7994058,3.45473043 12.8967361,3.65194303 L15.2328189,8.38536382 L20.4564589,9.14440313 C21.0030037,9.22382075 21.3816852,9.7312636 21.3022676,10.2778085 C21.270643,10.4954455 21.1681559,10.6965879 21.0106722,10.8500965 L17.2308108,14.5345508 L18.1231151,19.7370836 C18.2164761,20.2814201 17.8508883,20.798376 17.3065518,20.891737 C17.0897942,20.9289139 16.8668261,20.8935992 16.6721656,20.7912601 L12,18.3349573 Z" id="Path" fill="#000000"></path>
    </g>
</svg>