<?xml version="1.0" encoding="UTF-8"?>
<svg width="24px" height="24px" viewBox="0 0 24 24" version="1.1" xmlns="http://www.w3.org/2000/svg" xmlns:xlink="http://www.w3.org/1999/xlink">
    <title>▫️ 支付图标/业务图标/面对面赞赏 - outline</title>
    <g id="▫️-支付图标/业务图标/面对面赞赏---outline" stroke="none" stroke-width="1" fill="none" fill-rule="evenodd">
        <path d="M16.3947718,3.12857944 C17.0750384,4.12354956 17.2577019,5.17325959 17.2577019,7.38004588 C17.2577019,7.98217857 17.600342,8.34985352 18.06876,8.63500977 C18.537178,8.92016602 19.7318107,8.92016602 20.5822232,10.5468747 C20.768193,10.9026064 20.8973599,11.4862761 20.9589223,12.2030446 C20.9615826,12.2058128 20.9632752,12.2091857 20.9649314,12.2126069 C21.0094637,12.3046008 21.0079403,12.3982451 20.9807119,12.485025 C21.1312068,15.0649384 20.4644468,19.0822548 18.537178,20.6574342 C17.769659,21.2849835 16.2277889,21.8598536 15.0363981,21.9567173 C14.7183851,21.9825094 14.0233798,21.9957766 12.7985675,21.9991338 L11.3914931,21.9992846 C9.7964967,21.9963258 7.62075505,21.9843287 4.71145336,21.9659085 C3.76583663,21.9603137 3,21.2063609 3,20.2727811 L3,12.2400131 C3,11.3024004 3.7743931,10.5468747 4.72433277,10.5468747 L6.80753551,10.5468747 C7.32640615,10.5468747 7.81165097,10.4985382 8.39056282,10.372045 C8.79902418,10.2827493 9.13838582,10.1222581 9.76192222,9.75925425 C10.4607493,9.35245107 10.8725588,8.89075308 11.1816925,8.07915475 C11.3564803,7.61955403 11.4158336,7.1686823 11.4793895,5.83460473 C11.485712,5.70211782 11.4884778,5.63773036 11.4955082,5.44464652 L11.5042499,5.20137515 L11.5042499,5.20137515 C11.5692093,3.38277397 11.7634269,2.73481664 12.7778357,2.26709891 C14.1335734,1.64192175 15.7530889,2.18984456 16.3947718,3.12857944 Z M13.2802884,3.35684259 C12.8266335,3.56601114 12.7573935,3.73499422 12.7034851,5.24421118 C12.6886401,5.6598115 12.686555,5.71306937 12.6780301,5.89170841 C12.6085387,7.35037491 12.5368321,7.891698 12.3030992,8.50629292 C11.902504,9.55801375 11.3172802,10.242358 10.3656667,10.7963138 C9.61591114,11.2327987 9.18872526,11.4258957 8.64672135,11.5443857 C8.00181275,11.6852994 7.43114147,11.7468747 6.80753551,11.7468747 L4.72433277,11.7468747 C4.43004928,11.7468747 4.2,11.972315 4.2,12.2400131 L4.2,20.2727811 C4.2,20.540194 4.42677456,20.7642031 4.719051,20.7659325 C7.70349168,20.7848285 9.84722149,20.7959923 11.3827983,20.799109 L11.9776527,20.7999343 C12.1025655,20.8000176 12.2227144,20.8000341 12.338274,20.7999834 L12.8279047,20.7993017 C14.0541249,20.7962718 14.657234,20.7835288 14.9391554,20.7606638 C15.8949868,20.6829519 17.206209,20.1956225 17.777777,19.7282893 C19.0265518,18.707651 19.7963907,15.5941386 19.843119,13.3040354 C19.1607558,13.6729628 18.3935137,14.088286 17.6062364,14.5144546 L16.8742051,14.9107174 C14.1015583,16.4116055 11.3289115,17.9124936 11.3289115,17.9124936 L11.2691668,17.9449899 C11.1953911,17.9796101 11.1123369,18 11.024304,18 C10.81995,18 10.6423001,17.89444 10.5490622,17.7385426 L10.5135322,17.665479 L9.02602515,14.6023287 C9.00995745,14.5689828 9,14.5311766 9,14.4944324 C9,14.3534026 9.12197875,14.2391345 9.2722457,14.2391345 C9.33380083,14.2391345 9.38969833,14.2580376 9.43541207,14.2898967 L11.1904124,15.4625255 C11.3182751,15.5411114 11.4719366,15.5874134 11.6366871,15.5874134 C11.7346775,15.5874134 11.8285943,15.5704218 11.915722,15.5404742 C11.915722,15.5404742 13.7272991,14.7856415 15.7006642,13.9637196 L16.1964213,13.7572395 C17.5696147,13.1853307 18.9543947,12.6087612 19.8077578,12.2538913 C19.757804,11.7770242 19.6631383,11.3789673 19.5187762,11.1028247 C19.3401123,10.7610681 19.1469633,10.5224783 18.9354927,10.3512502 C18.694188,10.1558654 18.8387666,10.217297 17.9099058,9.8764735 C17.7312801,9.81093103 17.5888986,9.74775574 17.4447722,9.66001669 C16.5786291,9.13273955 16.0577019,8.40007244 16.0577019,7.38004588 C16.0577019,5.33180502 15.8996716,4.53058885 15.40417,3.80585937 C15.047837,3.28457048 14.0306951,3.01080432 13.2802884,3.35684259 Z" id="形状结合" fill="#000000"></path>
    </g>
</svg>