<?xml version="1.0" encoding="UTF-8"?>
<svg width="24px" height="24px" viewBox="0 0 24 24" version="1.1" xmlns="http://www.w3.org/2000/svg" xmlns:xlink="http://www.w3.org/1999/xlink">
    <title>icons_outlined_mv_making备份 2</title>
    <g id="icons_outlined_mv_making备份-2" stroke="none" stroke-width="1" fill="none" fill-rule="evenodd">
        <path d="M12,3.5 L12,6 C12,6.51283584 12.3860402,6.93550716 12.8833789,6.99327227 L13,7 L16,7 L16,10 C16,10.5128358 16.3860402,10.9355072 16.8833789,10.9932723 L17,11 L19.5,11 L19.5,17.5 C19.5,19.1568542 18.1568542,20.5 16.5,20.5 L5.5,20.5 C3.84314575,20.5 2.5,19.1568542 2.5,17.5 L2.5,6.5 C2.5,4.84314575 3.84314575,3.5 5.5,3.5 L12,3.5 Z M9.03474834,9.09473313 C8.7849422,9.09473313 8.57947817,9.28458428 8.55477097,9.52787185 L8.55228004,9.57720144 L8.55228004,15.6339351 C8.55228004,15.7178976 8.57419149,15.8004066 8.61584855,15.8733064 C8.73923626,16.0892349 9.00419424,16.173648 9.2270713,16.076459 L9.27411965,16.0528349 L14.5737616,13.0244681 C14.6485593,12.9817265 14.7105486,12.9197373 14.7532901,12.8449396 C14.8766778,12.6290111 14.8148858,12.3578837 14.6180008,12.2152087 L14.5737616,12.1866685 L9.27411965,9.15830164 C9.2012198,9.11664459 9.11871082,9.09473313 9.03474834,9.09473313 Z M18.9472789,0.5 C19.1652915,0.5 19.3420257,0.676734158 19.3420257,0.894746791 L19.3418941,3.65797433 L22.1052532,3.65797433 C22.3232658,3.65797433 22.5,3.83470849 22.5,4.05272112 L22.5,5.36854376 C22.5,5.58655639 22.3232658,5.76329055 22.1052532,5.76329055 L19.3418941,5.76315897 L19.3420257,8.52651809 C19.3420257,8.74453072 19.1652915,8.92126488 18.9472789,8.92126488 L17.6314562,8.92126488 C17.4134436,8.92126488 17.2367094,8.74453072 17.2367094,8.52651809 L17.2363147,5.76315897 L14.4734819,5.76329055 C14.2554693,5.76329055 14.0787351,5.58655639 14.0787351,5.36854376 L14.0787351,4.05272112 C14.0787351,3.83470849 14.2554693,3.65797433 14.4734819,3.65797433 L17.2363147,3.65797433 L17.2367094,0.894746791 C17.2367094,0.676734158 17.4134436,0.5 17.6314562,0.5 L18.9472789,0.5 Z" id="形状结合" fill="#000000"></path>
    </g>
</svg>