<?xml version="1.0" encoding="UTF-8"?>
<svg width="24px" height="24px" viewBox="0 0 24 24" version="1.1" xmlns="http://www.w3.org/2000/svg" xmlns:xlink="http://www.w3.org/1999/xlink">
    <title>webview</title>
    <g id="webview" stroke="none" stroke-width="1" fill="none" fill-rule="evenodd">
        <g id="编组-22备份">
            <rect id="矩形" x="0" y="0" width="24" height="24"></rect>
            <path d="M12,2.25 C17.3847763,2.25 21.75,6.61522369 21.75,12 C21.75,17.3847763 17.3847763,21.75 12,21.75 C6.61522369,21.75 2.25,17.3847763 2.25,12 C2.25,6.61522369 6.61522369,2.25 12,2.25 Z M12,4.2 C11.1463114,4.2 10.3246548,4.33714505 9.55586054,4.59060469 L11.5753784,6.33691406 L7.54925537,10.1449585 L9.25488281,12 L11.5753784,12 L12.5755005,13.0001221 L8.86415397,19.1440274 C9.82376876,19.5658528 10.8845404,19.8 12,19.8 C14.0496262,19.8 15.914609,19.0094479 17.306662,17.7166302 L17.3063965,17.0141602 L14.4268799,14.2034912 L14.4268799,10.9454956 L16.2216797,9.43048096 L19.3666579,9.42988111 C19.1050227,8.67989439 18.7320911,7.98209471 18.2676509,7.35626984 L15.9351196,7.3560791 L15.3314209,6.25854492 L15.3319237,4.94543412 C14.3215357,4.4673797 13.1919928,4.2 12,4.2 Z M4.2,12 C4.2,14.1985954 5.10964472,16.1847319 6.57310938,17.6025846 L6.57348633,13.0001221 L4.24930243,11.1181141 C4.21672998,11.4075769 4.2,11.7018347 4.2,12 Z" id="形状结合" fill="#1485EE" fill-rule="nonzero"></path>
        </g>
    </g>
</svg>