<?xml version="1.0" encoding="UTF-8"?>
<svg width="24px" height="24px" viewBox="0 0 24 24" version="1.1" xmlns="http://www.w3.org/2000/svg" xmlns:xlink="http://www.w3.org/1999/xlink">
    <title>fire</title>
    <g id="fire" stroke="none" stroke-width="1" fill="none" fill-rule="evenodd">
        <path d="M12,17.4508589 C11.0589193,17.4508589 10.2913367,19.0338385 10.2516147,21.0184499 C6.89514246,20.3909085 4.37222464,17.9921301 4.25431283,15.0989475 L4.25,14.8869968 C4.25,13.2443954 5.0250155,11.7487806 6.29431539,10.6281101 L6.59410656,10.3712189 L7.19650303,9.86695346 C8.89037494,8.43431701 11.3881685,6.06404103 10.2045968,3 C11.4122696,3 17.3407656,6.40334061 14.705744,12.9948681 C14.7044135,12.9981964 14.711274,12.9987939 14.719083,12.9971015 L14.7306026,12.9929005 C15.3322996,12.6575125 16.3726488,11.7919356 16.7463167,9.91174762 C18.5187163,11.0282574 19.6784752,12.755457 19.7468061,14.7045637 L19.75,14.8869968 C19.75,17.8744035 17.1864917,20.3756248 13.7482706,21.0193337 L13.7382265,20.745203 C13.6371375,18.8905007 12.8974627,17.4508589 12,17.4508589 Z M11.745,5.067 L11.7409802,5.14469091 C11.5811814,7.05373756 10.3177038,8.74664805 8.2420823,10.5510911 L7.96676729,10.7871127 L7.37492897,11.2824359 L7.08854023,11.5276694 C6.09650926,12.4035379 5.52441311,13.4994267 5.45657157,14.6349947 L5.44975165,14.8625839 L5.45331749,15.050082 C5.52850025,16.8948292 6.91008823,18.5657349 8.98932121,19.407631 L9.207,19.491 L9.22833727,19.3849318 C9.59029995,17.6520653 10.4917973,16.3579409 11.8304048,16.2571835 L12,16.2508589 C13.4219231,16.2508589 14.3824843,17.563242 14.7646452,19.348503 L14.793,19.492 L14.8068218,19.4874621 C16.9840039,18.6804462 18.4429435,16.9847326 18.5445163,15.1162826 L18.5501839,14.9080026 L18.5475428,14.7466069 C18.5137763,13.7834327 18.1265263,12.8579384 17.4475719,12.068535 L17.314,11.921 L17.2688295,12.0121575 C16.8143275,12.8576655 16.2008393,13.4958091 15.5062417,13.9282318 L15.3148535,14.0410659 L15.1393237,14.1183333 C15.0277246,14.1641254 14.9779877,14.1708809 14.8039087,14.1945253 L14.708762,14.2000017 C14.6272187,14.2012557 14.5631984,14.186761 14.3071169,14.1287824 L14.1767148,14.0757246 C14.0316325,14.0110293 13.9756014,13.949838 13.695446,13.6438816 L13.5904747,13.3688485 C13.4659252,13.0260493 13.4852413,12.9527234 13.5914794,12.5494309 C14.60004,10.0265083 14.2591188,7.94540888 12.9492601,6.26272805 C12.6308565,5.85369796 12.2462782,5.47830475 11.8643446,5.16310879 L11.745,5.067 Z" id="形状结合" fill="#000000" fill-rule="nonzero"></path>
    </g>
</svg>