<?xml version="1.0" encoding="UTF-8"?>
<svg width="24px" height="24px" viewBox="0 0 24 24" version="1.1" xmlns="http://www.w3.org/2000/svg" xmlns:xlink="http://www.w3.org/1999/xlink">
    <!-- Generator: Sketch 64 (93537) - https://sketch.com -->
    <title>话题</title>
    <desc>Created with Sketch.</desc>
    <g id="话题" stroke="none" stroke-width="1" fill="none" fill-rule="evenodd">
        <path d="M10.2,3.5 L9.612,8.499 L14.212,8.499 L14.8,3.5 L16,3.5 L15.412,8.499 L20,8.5 L20,9.7 L15.271,9.699 L14.729,14.299 L20,14.3 L20,15.5 L14.588,15.499 L14,20.5 L12.8,20.5 L13.388,15.499 L8.788,15.499 L8.2,20.5 L7,20.5 L7.588,15.499 L3,15.5 L3,14.3 L7.73,14.299 L8.271,9.699 L3,9.7 L3,8.5 L8.412,8.499 L9,3.5 L10.2,3.5 Z M13.529,14.299 L14.071,9.699 L9.471,9.699 L8.93,14.299 L13.529,14.299 Z" id="形状结合" fill="#000000"></path>
    </g>
</svg>