<?xml version="1.0" encoding="UTF-8"?>
<svg width="24px" height="24px" viewBox="0 0 24 24" version="1.1" xmlns="http://www.w3.org/2000/svg" xmlns:xlink="http://www.w3.org/1999/xlink">
    <!-- Generator: Sketch 52.4 (67378) - http://www.bohemiancoding.com/sketch -->
    <title>icon/outline/miaojian</title>
    <desc>Created with Sketch.</desc>
    <g id="icon/outline/miaojian" stroke="none" stroke-width="1" fill="none" fill-rule="evenodd">
        <g id="分组">
            <rect id="矩形" x="0" y="0" width="24" height="24"></rect>
            <path d="M16.3485546,12.7990927 C16.3426847,12.7492199 16.3426847,12.7492199 16.3360146,12.6996825 C16.3034353,12.4655987 16.2507536,12.2348241 16.1783975,12.0100944 C16.1625906,11.9617797 16.1625906,11.9617797 16.1457491,11.9131203 C16.1232176,11.8486934 16.0990659,11.7848151 16.0732001,11.721278 C16.0346065,11.6263444 15.9921147,11.5323028 15.9457747,11.4392746 C15.8994297,11.3462364 15.8492636,11.2544606 15.7955265,11.1644217 C15.7592128,11.1036374 15.7215101,11.0439792 15.6824627,10.9855546 C15.5829405,10.8366761 15.4735015,10.6934936 15.3543644,10.5566412 L14.2598838,9.29930497 C13.4412339,8.35882394 13.5576423,6.9429364 14.5176719,6.14384269 L15.0811294,5.67490849 C15.1047842,5.65521376 15.1277571,5.63456228 15.1498675,5.61316078 C15.1711742,5.59214512 15.1711742,5.59214512 15.1919828,5.57018773 C15.2120107,5.54833329 15.2120107,5.54833329 15.2317335,5.52528842 C15.2408803,5.51435013 15.2408803,5.51435013 15.2499272,5.50316076 C15.26791,5.48028066 15.26791,5.48028066 15.2852256,5.45663177 C15.3020906,5.43282619 15.3020906,5.43282619 15.3178604,5.40888294 C15.3330373,5.38500027 15.3330373,5.38500027 15.3473062,5.36083086 C15.3615874,5.33608897 15.3749691,5.31079707 15.3870709,5.28576023 C15.399728,5.25947555 15.4110708,5.23359297 15.421147,5.20801112 C15.4312304,5.18179838 15.4312304,5.18179838 15.4402615,5.15590799 C15.4523714,5.12001419 15.4625864,5.08412793 15.4709984,5.04785772 C15.4835863,4.99379498 15.492186,4.93886708 15.4967394,4.8834684 C15.4987574,4.85616254 15.4987574,4.85616254 15.4998545,4.83007063 C15.5003134,4.81353414 15.5003134,4.81353414 15.5005071,4.80020398 C15.5008457,4.76339619 15.4993671,4.72634249 15.496168,4.69026883 C15.4936216,4.66211095 15.490091,4.63426399 15.4856834,4.60739825 C15.4807098,4.57859476 15.4807098,4.57859476 15.475382,4.55272173 C15.4653462,4.50636173 15.4526518,4.46121767 15.4372116,4.41715134 C15.3896515,4.28111553 15.3159095,4.15395037 15.2172269,4.04057472 C14.8152023,3.57876076 14.1151579,3.49029847 13.5898985,3.84331665 C13.1008796,4.15082572 12.1018266,4.92324014 11.0271839,5.83124296 C9.79108474,6.87562991 8.75237221,7.85107823 8.52011042,8.173771 C8.49086214,8.21081437 8.49086214,8.21081437 8.46474081,8.24483063 C8.43340169,8.28642089 8.43340169,8.28642089 8.40257231,8.32890418 C8.36230497,8.38472235 8.32325153,8.44187207 8.28565583,8.49993283 C8.25775526,8.54350198 8.25775526,8.54350198 8.23046651,8.5876583 C8.15900275,8.70440863 8.09344975,8.82458393 8.03419568,8.94731578 C8.01212615,8.9935628 8.01212615,8.9935628 7.99091971,9.03990356 C7.94910805,9.13229005 7.91074265,9.2262153 7.8757634,9.3217902 C7.84120079,9.41611402 7.81000277,9.51217075 7.78221865,9.60967414 C7.76376309,9.67451113 7.74699318,9.73942348 7.73179941,9.80493176 C7.71664755,9.86994439 7.70311862,9.93532967 7.69117291,10.0012642 C7.67917362,10.0674534 7.66880953,10.1336479 7.66011346,10.19965 C7.50746813,11.3605299 7.85287032,12.5326151 8.64557872,13.4433416 L9.74011615,14.700688 C10.5587779,15.6411826 10.4423479,17.0570802 9.48230027,17.8561336 L8.91880066,18.3251428 C8.41747918,18.7424143 8.35759934,19.4709069 8.78281866,19.9594157 C8.87568537,20.0660924 8.98485356,20.1539973 9.10872371,20.2224387 C9.11932948,20.2282767 9.11932948,20.2282767 9.13261787,20.2352662 C9.22750906,20.2847799 9.32901234,20.32167 9.43456287,20.3451086 C9.44963364,20.3484072 9.44963364,20.3484072 9.46284001,20.3510572 C9.49252669,20.3566885 9.49252669,20.3566885 9.52029018,20.3610652 C9.53588054,20.3633279 9.53588054,20.3633279 9.5499952,20.3651645 C9.57890908,20.3685641 9.57890908,20.3685641 9.60861247,20.3711255 C9.6768213,20.3765038 9.74559893,20.3762839 9.81368147,20.3704896 C9.85306718,20.3671146 9.89196745,20.3619428 9.9306523,20.354909 C9.99830526,20.3426653 10.0648055,20.3247878 10.1296987,20.3013216 C10.1571926,20.2911404 10.1571926,20.2911404 10.1845748,20.2799294 C10.2576858,20.2493975 10.3277417,20.2117334 10.410124,20.1566622 C10.898957,19.8492991 11.8977919,19.0770302 12.972806,18.1687585 C14.2088812,17.1243473 15.2475689,16.1488832 15.4801275,15.8258147 C15.5431078,15.7464574 15.6021274,15.6665293 15.6571204,15.5860488 C15.6959025,15.5293062 15.7333291,15.4714377 15.7696373,15.4120869 C15.7962991,15.3681555 15.7962991,15.3681555 15.8220043,15.3241193 C15.8564939,15.2644042 15.8892891,15.2042824 15.9203369,15.1438465 C15.9979539,14.9927016 16.0660212,14.8372348 16.1241304,14.6786237 C16.1474327,14.6148888 16.169009,14.5511062 16.1889786,14.4868707 C16.2288741,14.3588063 16.2624662,14.2287689 16.2896753,14.0971666 C16.3439385,13.8349129 16.372459,13.5679823 16.3748325,13.3002663 C16.3757421,13.2005635 16.3729465,13.1002476 16.3664716,12.9995514 C16.3621272,12.9324703 16.3561723,12.865768 16.3485546,12.7990927 Z M17.6247819,13.3115091 C17.6216884,13.660442 17.584501,14.0084883 17.5137666,14.3503474 C17.4783093,14.5218441 17.4344836,14.6914961 17.3825184,14.8583039 C17.3565547,14.941821 17.328421,15.024988 17.2979834,15.1082388 C17.2220785,15.315424 17.1333914,15.5179871 17.0322432,15.7149546 C16.9917449,15.793786 16.9491335,15.8719036 16.9043402,15.9494583 C16.8704283,16.0075554 16.8704283,16.0075554 16.8356991,16.0647829 C16.7886806,16.1416416 16.7398179,16.2171924 16.6891484,16.2913277 C16.6171897,16.3966368 16.5404998,16.5004952 16.4776164,16.5785339 C16.1795625,16.994224 15.1022112,18.0059983 13.7795455,19.1235734 C12.6631554,20.0668034 11.6258724,20.8687991 11.0917183,21.2043045 C10.9572903,21.2947573 10.8148208,21.371353 10.6671082,21.4330385 C10.6106054,21.456151 10.6106054,21.456151 10.5544831,21.4769313 C10.423886,21.524157 10.2896514,21.5602437 10.1537661,21.5848358 C10.076682,21.598852 9.99877422,21.6092098 9.92004438,21.6159561 C9.78368285,21.6275617 9.64659016,21.6279999 9.51046188,21.6172661 C9.45255314,21.6122746 9.45255314,21.6122746 9.39402766,21.605396 C9.36470835,21.6015785 9.36470835,21.6015785 9.33644086,21.597471 C9.27771602,21.588209 9.27771602,21.588209 9.2219628,21.5776285 C9.19112547,21.5714205 9.19112547,21.5714205 9.16339944,21.5653423 C8.95160278,21.5183107 8.74675323,21.4438608 8.55469144,21.3436438 C8.5282588,21.3297495 8.5282588,21.3297495 8.50205022,21.3153436 C8.25311464,21.1778119 8.02929302,20.9975851 7.83999528,20.7801374 C6.95372638,19.7619567 7.07968329,18.2295764 8.11913971,17.3643918 L8.68264991,16.8953739 C9.10456332,16.5442128 9.15488765,15.9322217 8.79728937,15.5214058 L7.70274132,14.2640472 C6.67292037,13.0809069 6.22178915,11.5500417 6.4208026,10.0365287 C6.43215856,9.95033823 6.44563877,9.86424127 6.46120871,9.77835594 C6.47683216,9.69212216 6.49456133,9.60643709 6.51427275,9.52186219 C6.53398671,9.43686298 6.55590688,9.35201517 6.58002393,9.26728863 C6.61622359,9.14025234 6.65690232,9.01500507 6.70199344,8.89194835 C6.74748984,8.76763695 6.7975427,8.64509873 6.85214855,8.52444237 C6.87969461,8.46424751 6.87969461,8.46424751 6.90837549,8.40415027 C6.9857715,8.24384109 7.07119129,8.08724491 7.16448893,7.93482469 C7.19953791,7.87810621 7.19953791,7.87810621 7.2361327,7.82096234 C7.28533293,7.74497965 7.33621559,7.67051937 7.38817124,7.59850073 C7.4285397,7.54288437 7.4285397,7.54288437 7.4695846,7.48841534 C7.50597798,7.44103431 7.50597798,7.44103431 7.52233567,7.42141231 C7.82038717,7.00572558 8.89776216,5.99396958 10.2204428,4.87642944 C11.336425,3.93349749 12.373952,3.131337 12.9083193,2.79566323 C13.9381635,2.1028185 15.3420733,2.28022593 16.160062,3.21986641 C16.3632266,3.45328069 16.5173275,3.71902179 16.6170338,4.00421151 C16.6495373,4.09697549 16.6762135,4.19184183 16.6972214,4.28888825 C16.7092476,4.34728861 16.7092476,4.34728861 16.719088,4.40438955 C16.7285055,4.46178672 16.7358338,4.51958838 16.7411832,4.57875232 C16.7480656,4.65633654 16.7511681,4.7340872 16.7504493,4.81221856 C16.7500249,4.84138791 16.7500249,4.84138791 16.7492214,4.86979871 C16.7468368,4.92762289 16.7468368,4.92762289 16.7425337,4.98592036 C16.7329765,5.10219791 16.7149016,5.21764561 16.6885567,5.33079156 C16.6710237,5.40639132 16.6496798,5.48137443 16.6242486,5.55674798 C16.6051869,5.61147931 16.6051869,5.61147931 16.5841273,5.66624336 C16.5627097,5.72061947 16.53907,5.77456162 16.512903,5.82890038 C16.4871577,5.88216689 16.4594927,5.93445472 16.4294239,5.98654666 C16.3993667,6.03750556 16.3993667,6.03750556 16.3673459,6.08791166 C16.3339434,6.13859885 16.3339434,6.13859885 16.299581,6.18709937 C16.2637033,6.23608052 16.2637033,6.23608052 16.2256584,6.28447242 C16.2068706,6.30772589 16.2068706,6.30772589 16.1875144,6.33088281 C16.1478524,6.3772083 16.1478524,6.3772083 16.1063012,6.42255026 C16.0641891,6.46699265 16.0641891,6.46699265 16.0195656,6.51100548 C15.9748845,6.55425439 15.9287232,6.59575103 15.8808402,6.63561792 L15.3173185,7.10460552 C14.8954305,7.4557698 14.8451141,8.06777333 15.2027195,8.47859742 L16.2971785,9.73590877 C16.4511146,9.91273482 16.5927433,10.098032 16.7216893,10.2909266 C16.772551,10.3670283 16.8215276,10.4445255 16.8687538,10.5235762 C16.9388205,10.6409758 17.0041683,10.7605256 17.0646449,10.8819332 C17.1250649,11.0032271 17.1806057,11.1261483 17.2310548,11.2502447 C17.2646975,11.3328847 17.2962455,11.4163255 17.3254736,11.4999014 C17.3473136,11.5630121 17.3473136,11.5630121 17.3681581,11.6267281 C17.462791,11.9206468 17.5315735,12.2219518 17.5741011,12.5275143 C17.5828896,12.5927797 17.5828896,12.5927797 17.5905282,12.6576665 C17.6004292,12.7443242 17.6082064,12.8314553 17.6138689,12.9189285 C17.6223199,13.0502954 17.6259706,13.1812218 17.6247819,13.3115091 Z" id="Fill-1-Copy-2" fill-opacity="0.9" fill="#000000"></path>
        </g>
    </g>
</svg>