<?xml version="1.0" encoding="UTF-8"?>
<svg width="24px" height="24px" viewBox="0 0 24 24" version="1.1" xmlns="http://www.w3.org/2000/svg" xmlns:xlink="http://www.w3.org/1999/xlink">
    <title>听歌0121</title>
    <g id="听歌0121" stroke="none" stroke-width="1" fill="none" fill-rule="evenodd">
        <g id="编组备份">
            <rect id="矩形" x="0" y="0" width="24" height="24"></rect>
            <path d="M12,7 L12.2466655,7.0042648 L12.5013982,7.01768084 L12.7659386,7.0414238 L13.0320443,7.07554817 L13.2909852,7.1188001 L13.4333384,7.1468776 L13.5745246,7.17778943 L13.8529601,7.24787467 L14.1267659,7.32892775 L14.4444924,7.43866998 L14.7478458,7.55992713 L14.8931927,7.6239948 L15.1363363,7.7402259 L15.3540786,7.85438084 L15.6061877,7.99915733 L15.8515775,8.15395712 L16.1109447,8.33368662 L16.2579288,8.44347009 L16.4477093,8.59438603 L16.6476594,8.76547058 L16.8407751,8.94361379 L16.9693786,9.06996137 L17.2150221,9.33047493 L17.3651389,9.50360331 L17.450033,9.60676634 L17.5328292,9.71136442 C17.6440027,9.85459357 17.7496788,10.0021584 17.8495943,10.1538089 L18.0068529,10.403811 L18.0698004,10.5108715 C18.661649,11.5384929 19,12.7297334 19,14 C19,14.8883661 18.8345138,15.7380809 18.5326868,16.519999 L18.4118064,16.808807 C18.1053639,17.5087079 17.6875844,18.1487488 17.1808612,18.7065814 L16.9585911,18.9408881 C16.8338689,19.0657205 16.7045655,19.1860157 16.5708864,19.3013876 L16.3671119,19.4707046 L16.147068,19.6396457 L15.9449826,19.7831112 L15.7557896,19.9081645 C15.599303,20.0077848 15.4385215,20.1014515 15.2738135,20.1887667 L15.0238526,20.3149261 L14.88175,20.3811933 L14.5900155,20.5051946 L14.4318621,20.5660236 L14.1997759,20.6473712 L13.9587283,20.722256 L13.7657504,20.7753897 L13.6263093,20.8100989 L13.3858546,20.8628307 L13.1497678,20.9060289 L12.8780651,20.9454601 L12.6328075,20.9717831 L12.51371,20.9814369 L12.2516777,20.9955598 L12,21 L11.7483223,20.9955598 L11.4865361,20.9814548 L11.2360685,20.9587943 L10.9819657,20.9265076 L10.743078,20.8874631 L10.4731797,20.8329992 L10.3532159,20.8051947 L10.2342323,20.7753914 L10.0412477,20.7222584 L9.80024472,20.647378 L9.56815833,20.5660312 L9.34689609,20.479725 L9.11861359,20.3813578 L8.87457025,20.2652374 C8.71641348,20.1861738 8.56184429,20.1014122 8.41101606,20.0111684 L8.18759862,19.8717181 L7.95257758,19.7119405 L7.77483021,19.5815184 L7.56736378,19.4179953 L7.39554705,19.2726072 L7.1817214,19.0778339 L6.97614211,18.8745176 L6.80213512,18.6886036 L6.65574803,18.5211768 L6.40786767,18.211134 L6.23376431,17.9698337 L6.18813967,17.9028645 C6.08627547,17.751492 5.99009205,17.5957734 5.89996635,17.4361157 L5.76936821,17.1937257 L5.65157778,16.9531277 L5.589048,16.8150274 C5.21025572,15.9535882 5,15.001348 5,14 C5,12.7918771 5.30605535,11.6552373 5.8448622,10.6633843 L6.05830258,10.2973753 C6.12644576,10.1888353 6.19703767,10.0823749 6.2704099,9.97801018 L6.3668404,9.84387367 L6.53229424,9.62907409 L6.67517699,9.45624679 L6.86192975,9.24619307 L7.03015031,9.07060783 L7.19286372,8.91161253 L7.41377827,8.71160777 L7.6426857,8.52124956 L7.93189309,8.30279928 L8.12640374,8.16859528 L8.22707103,8.10278861 C8.36335311,8.01543794 8.50314943,7.93248988 8.64596825,7.85437561 L8.8636637,7.7402259 L9.09071859,7.63134166 L9.30110919,7.53923286 L9.55813953,7.4376896 L9.81320017,7.34835113 L10.0208982,7.2836963 C10.2152699,7.22651046 10.413151,7.17753543 10.6141454,7.13716926 L10.8502322,7.09397107 L11.1219349,7.05453994 L11.3421925,7.03050196 L11.4983769,7.01769676 L11.6257056,7.00983588 L11.7533345,7.0042648 L12,7 Z M12,3.35 C16.1054328,3.35 19.542859,6.21007595 20.4284818,10.0464309 L20.4384623,10.0482115 C21.3321273,10.2480973 22,11.0460536 22,12 L22,15 C22,16.1045695 21.1045695,17 20,17 L19.4180912,17.0009677 C19.793349,16.0742738 20,15.0612698 20,14 C20,12.5444362 19.6112698,11.1796651 18.9319622,10.0038398 L19,10 L19.0746898,10.000271 C18.2457431,7.06173603 15.6352988,4.87022109 12.4832645,4.66563398 L12.2426151,4.65392867 L12,4.65 C8.63424547,4.65 5.79688323,6.91231629 4.92559286,9.99926928 L5,10 L5.06803776,10.0038398 C4.38873023,11.1796651 4,12.5444362 4,14 C4,15.0608892 4.20650275,16.0735471 4.58150511,16.9999705 L4,17 C2.9456382,17 2.08183488,16.1841222 2.00548574,15.1492623 L2,15 L2,12 C2,11.0042724 2.72765732,10.1784982 3.68022303,10.0254265 L3.57155459,10.0459981 C4.457141,6.21007595 7.89456723,3.35 12,3.35 Z M8.15,12 L7.85,12 C7.60454011,12 7.40039163,12.1768752 7.35805567,12.4101244 L7.35,12.5 L7.35539827,12.6535442 C7.43412828,13.7692959 8.36421441,14.65 9.5,14.65 C10.6357856,14.65 11.5658717,13.7692959 11.6446017,12.6535442 L11.65,12.5 L11.6419443,12.4101244 C11.6049004,12.2060313 11.4439687,12.0450996 11.2398756,12.0080557 L11.15,12 L10.85,12 C10.6045401,12 10.4003916,12.1768752 10.3580557,12.4101244 L10.3433773,12.6066222 C10.2909267,13.0257376 9.93333111,13.35 9.5,13.35 C9.06666889,13.35 8.70907332,13.0257376 8.65662271,12.6066222 L8.65,12.5 L8.64194433,12.4101244 C8.60490037,12.2060313 8.44396869,12.0450996 8.23987563,12.0080557 L8.15,12 Z M13.15,12 L12.85,12 C12.6045401,12 12.4003916,12.1768752 12.3580557,12.4101244 L12.35,12.5 L12.3553983,12.6535442 C12.4341283,13.7692959 13.3642144,14.65 14.5,14.65 C15.6357856,14.65 16.5658717,13.7692959 16.6446017,12.6535442 L16.65,12.5 L16.6419443,12.4101244 C16.6049004,12.2060313 16.4439687,12.0450996 16.2398756,12.0080557 L16.15,12 L15.85,12 C15.6045401,12 15.4003916,12.1768752 15.3580557,12.4101244 L15.3433773,12.6066222 C15.2909267,13.0257376 14.9333311,13.35 14.5,13.35 C14.0666689,13.35 13.7090733,13.0257376 13.6566227,12.6066222 L13.65,12.5 L13.6419443,12.4101244 C13.6049004,12.2060313 13.4439687,12.0450996 13.2398756,12.0080557 L13.15,12 Z" id="形状" fill="#000000" fill-rule="nonzero"></path>
        </g>
    </g>
</svg>