<?xml version="1.0" encoding="UTF-8"?>
<svg width="24px" height="24px" viewBox="0 0 24 24" version="1.1" xmlns="http://www.w3.org/2000/svg" xmlns:xlink="http://www.w3.org/1999/xlink">
    <title>icons_filled_musice2</title>
    <g id="icons_filled_musice2" stroke="none" stroke-width="1" fill="none" fill-rule="evenodd" fill-opacity="0.9">
        <g id="编组" fill="#000000">
            <path d="M11.5,4.27624689 C11.5,4.15790016 11.5822334,4.05876007 11.6926773,4.03284957 L11.7624534,4.02655726 L11.7624534,4.02655726 L16.2748759,4.47748759 C16.4026764,4.49026764 16.5,4.59780903 16.5,4.72624689 L16.5,7.22375311 C16.5,7.34209984 16.4177666,7.44123993 16.3073227,7.46715043 L16.2375466,7.47344274 L16.2375466,7.47344274 L13.5,7.19924689 L13.5,17 C13.5,18.5976809 12.25108,19.9036609 10.6762728,19.9949073 L10.5,20 C8.84314575,20 7.5,18.6568542 7.5,17 C7.5,15.3431458 8.84314575,14 10.5,14 C10.850972,14 11.1878673,14.0602698 11.5009007,14.1710242 L11.5,4.27624689 Z" id="路径"></path>
        </g>
    </g>
</svg>