<?xml version="1.0" encoding="UTF-8"?>
<svg width="24px" height="24px" viewBox="0 0 24 24" version="1.1" xmlns="http://www.w3.org/2000/svg" xmlns:xlink="http://www.w3.org/1999/xlink">
    <!-- Generator: Sketch 55.1 (78136) - https://sketchapp.com -->
    <title>3.Icons/Outlined/like（re）</title>
    <desc>Created with Sketch.</desc>
    <g id="3.Icons/Outlined/like（re）" stroke="none" stroke-width="1" fill="none" fill-rule="evenodd" fill-opacity="0.9">
        <g id="3.Icons/Outlined/float-window_on" fill="#000000">
            <g id="Icons/Tint-Color/Black" transform="translate(2.000000, 2.000000)">
                <path d="M10,18.8 C14.8601058,18.8 18.8,14.8601058 18.8,10 C18.8,5.1398942 14.8601058,1.2 10,1.2 C5.1398942,1.2 1.2,5.1398942 1.2,10 C1.2,14.8601058 5.1398942,18.8 10,18.8 Z M10,20 C4.4771525,20 0,15.5228475 0,10 C0,4.4771525 4.4771525,0 10,0 C15.5228475,0 20,4.4771525 20,10 C20,15.5228475 15.5228475,20 10,20 Z M10,14.8 C12.6509668,14.8 14.8,12.6509668 14.8,10 C14.8,7.3490332 12.6509668,5.2 10,5.2 C7.3490332,5.2 5.2,7.3490332 5.2,10 C5.2,12.6509668 7.3490332,14.8 10,14.8 Z M10,16 C6.6862915,16 4,13.3137085 4,10 C4,6.6862915 6.6862915,4 10,4 C13.3137085,4 16,6.6862915 16,10 C16,13.3137085 13.3137085,16 10,16 Z" id="图标颜色"></path>
            </g>
        </g>
    </g>
</svg>