<?xml version="1.0" encoding="UTF-8"?>
<svg width="40px" height="40px" viewBox="0 0 40 40" version="1.1" xmlns="http://www.w3.org/2000/svg" xmlns:xlink="http://www.w3.org/1999/xlink">
    <!-- Generator: Sketch 57.1 (83088) - https://sketch.com -->
    <title>icons_outlined_tencentmeeting_logo</title>
    <desc>Created with Sketch.</desc>
    <g id="icons_outlined_tencentmeeting_logo" stroke="none" stroke-width="1" fill="none" fill-rule="evenodd">
        <path d="M33.421935,23.5406318 L30.3719016,26.5905682 L25.1969308,21.4155974 L20.0109042,26.6017209 L15.4888054,22.0796221 L20.3392798,17.2291477 L20.6893791,16.886322 L20.6857908,16.8826368 L25.1969308,12.3714967 L33.421838,20.596404 C34.2335639,21.4081299 34.2335639,22.7289059 33.421935,23.5406318 L33.421935,23.5406318 Z M6.57814983,23.5407287 C5.76642393,22.7289059 5.76642393,21.4081299 6.57805285,20.596404 L14.8030571,12.3715937 L19.3141971,16.8827337 L14.8030571,21.3938737 L9.61732143,26.5797064 L6.57814983,23.5407287 Z M34.1076834,19.9106556 L25.1969308,11 L20.0000424,16.1968884 L14.8030571,11 L5.89230448,19.9106556 C4.70254901,21.1005081 4.70254901,23.0365277 5.89240147,24.2264771 L9.61732143,27.9512031 L14.8030571,22.7653705 L20.0109042,27.9733146 L25.1969308,22.7871911 L30.3719016,27.9620649 L34.1076834,24.2263801 C35.2974389,23.0365277 35.2974389,21.1005081 34.1076834,19.9106556 L34.1076834,19.9106556 Z" id="Fill-1" fill="#FFFFFF" fill-rule="nonzero"></path>
    </g>
</svg>