<?xml version="1.0" encoding="UTF-8"?>
<svg width="24px" height="24px" viewBox="0 0 24 24" version="1.1" xmlns="http://www.w3.org/2000/svg" xmlns:xlink="http://www.w3.org/1999/xlink">
    <title>icons_filled_朋友聊天区</title>
    <g id="icons_filled_朋友聊天区" stroke="none" stroke-width="1" fill="none" fill-rule="evenodd">
        <g id="备份">
            <rect id="矩形" x="0" y="0" width="24" height="24"></rect>
            <path d="M12,3 C17.5228475,3 22,6.80557963 22,11.5 C22,13.2871741 21.3511092,14.9455251 20.2426635,16.3141173 L19.712,16.07 L19.7323386,16.0381874 C20.0728089,15.460805 20.2947368,14.7411533 20.2947368,14.1378603 L20.2947368,13.37787 C20.2947368,11.7162485 18.8924564,10.4 17.2,10.4 C15.5089248,10.4 14.1052632,11.7158562 14.1052632,13.3775913 L14.1052632,14.1374625 L14.1133215,14.3426783 C14.1559262,14.8993695 14.3644686,15.5241616 14.6672562,16.0372975 L14.687,16.069 L12.7281661,16.9672993 C12.0165314,17.2931327 11.5,18.0694692 11.5,18.851317 L11.5,19.118797 C11.5,19.4404106 11.5903077,19.7409318 11.7469483,19.9963858 C10.857623,19.9784938 9.99644655,19.8610173 9.17866067,19.6569974 L8.77345417,19.5478358 L5.79050106,20.9781933 C5.70535272,21.0190228 5.61038279,21.0349049 5.51658297,21.0240015 C5.2727648,20.9956598 5.09040441,20.7963958 5.07528345,20.5598184 L5.07765905,20.4696138 L5.37975626,17.8707334 C3.30699806,16.313333 2,14.0364044 2,11.5 C2,6.80557963 6.4771525,3 12,3 Z M17.2,11.6 C18.2464343,11.6 19.0947368,12.3968801 19.0947368,13.37787 L19.0947368,14.1378603 C19.0947368,14.6441315 18.810968,15.3701602 18.4638308,15.7562547 L18.2925785,15.9467257 C18.0133311,16.2573114 18.1005626,16.6526212 18.4910495,16.8313379 L21.1722695,18.05847 C21.463727,18.1918633 21.7,18.5445201 21.7,18.851317 L21.7,19.118797 C21.7,19.3845581 21.4845581,19.6 21.218797,19.6 L13.181203,19.6 C12.9154419,19.6 12.7,19.3845581 12.7,19.118797 L12.7,18.851317 C12.7,18.546833 12.9359662,18.1919591 13.2277304,18.0583701 L15.9089504,16.8307302 C16.2978102,16.6526845 16.388228,16.2583389 16.1074214,15.9460617 L15.9361692,15.7556169 C15.5877294,15.3681267 15.3052632,14.6442207 15.3052632,14.1374625 L15.3052632,13.3775913 C15.3052632,12.3958547 16.155695,11.6 17.2,11.6 Z" id="形状结合" fill="#FFFFFF"></path>
        </g>
    </g>
</svg>