<?xml version="1.0" encoding="UTF-8"?>
<svg width="24px" height="24px" viewBox="0 0 24 24" version="1.1" xmlns="http://www.w3.org/2000/svg" xmlns:xlink="http://www.w3.org/1999/xlink">
    <title>画板备份 4</title>
    <defs>
        <filter id="filter-1">
            <feColorMatrix in="SourceGraphic" type="matrix" values="0 0 0 0 0.000000 0 0 0 0 0.000000 0 0 0 0 0.000000 0 0 0 1.000000 0"></feColorMatrix>
        </filter>
    </defs>
    <g id="画板备份-4" stroke="none" stroke-width="1" fill="none" fill-rule="evenodd">
        <g filter="url(#filter-1)" id="编组-2">
            <g>
                <g id="编组" opacity="0.900000036"></g>
                <path d="M19,2.5 C19.5522847,2.5 20,2.94771525 20,3.5 L20,20.5 C20,21.0522847 19.5522847,21.5 19,21.5 L5,21.5 C4.44771525,21.5 4,21.0522847 4,20.5 L4,3.5 C4,2.94771525 4.44771525,2.5 5,2.5 L19,2.5 Z M7.45085803,8.75 L6,8.75 L8.11544462,15.5 L9.76287051,15.5 L11.8876755,8.75 L10.4836193,8.75 L9.5850234,12.0337838 C9.36973479,12.7817568 9.21060842,13.4567568 8.99531981,14.2138514 L8.94851794,14.2138514 C8.72386895,13.4567568 8.58346334,12.7817568 8.36817473,12.0337838 L7.45085803,8.75 Z M15.0982839,8.75 L12.6833073,8.75 L12.6833073,15.5 L14.0686427,15.5 L14.0686427,12.9459459 L15.0327613,12.9459459 L16.4555382,15.5 L18,15.5 L16.3806552,12.7361486 C17.1762871,12.4351351 17.700468,11.8057432 17.700468,10.7932432 C17.700468,9.24256757 16.549142,8.75 15.0982839,8.75 Z M14.9672387,9.81722973 C15.8564743,9.81722973 16.3432137,10.0635135 16.3432137,10.7932432 C16.3432137,11.5138514 15.8564743,11.8787162 14.9672387,11.8787162 L14.0686427,11.8787162 L14.0686427,9.81722973 L14.9672387,9.81722973 Z" id="形状结合" fill="#FFFFFF"></path>
            </g>
        </g>
    </g>
</svg>