<?xml version="1.0" encoding="UTF-8"?>
<svg width="24px" height="24px" viewBox="0 0 24 24" version="1.1" xmlns="http://www.w3.org/2000/svg" xmlns:xlink="http://www.w3.org/1999/xlink">
    <!-- Generator: Sketch 63.1 (92452) - https://sketch.com -->
    <title>transfer6°备份</title>
    <desc>Created with Sketch.</desc>
    <g id="transfer6°备份" stroke="none" stroke-width="1" fill="none" fill-rule="evenodd" fill-opacity="0.9">
        <path d="M13.01,18.138 L13.01,16.557 L5.853,16.557 L5.853,12.698 L12.313,12.698 L12.313,11.117 L5.853,11.117 L5.853,7.581 L12.721,7.581 L12.721,6 L4,6 L4,18.138 L13.01,18.138 Z M15.9,18.138 L15.9,13.473 C15.96,12.843 16.185,12.348 16.545,11.988 C16.875,11.658 17.28,11.508 17.73,11.508 C18.93,11.508 19.545,12.168 19.545,13.488 L19.545,18.138 L21.135,18.138 L21.135,13.353 C21.135,11.223 20.16,10.173 18.24,10.173 C17.76,10.173 17.325,10.263 16.935,10.473 C16.545,10.668 16.2,10.953 15.9,11.343 L15.9,10.383 L14.31,10.383 L14.31,18.138 L15.9,18.138 Z" id="En" fill="#000000" transform="translate(12.567500, 12.069000) rotate(6.000000) translate(-12.567500, -12.069000) "></path>
    </g>
</svg>