<?xml version="1.0" encoding="UTF-8"?>
<svg width="24px" height="24px" viewBox="0 0 24 24" version="1.1" xmlns="http://www.w3.org/2000/svg" xmlns:xlink="http://www.w3.org/1999/xlink">
    <!-- Generator: Sketch 55.2 (78181) - https://sketchapp.com -->
    <title>3.Icons/Filled/VideoCall</title>
    <desc>Created with Sketch.</desc>
    <g id="3.Icons/Filled/VideoCall" stroke="none" stroke-width="1" fill="none" fill-rule="evenodd">
        <g id="Picture备份" fill="#000000">
            <g id="ICON" transform="translate(2.250000, 3.000000)">
                <path d="M7.03715002,11.71285 C8.90828494,13.5839849 10.6812064,14.4616129 11.3368404,14.4102192 C11.9924743,14.3588255 13.6251855,13.2360068 14.3959587,13.2509519 C14.7663989,13.2581346 17.1871105,14.8952618 17.4801378,15.0845406 C17.773165,15.2738194 18.0448661,15.4949205 17.9937771,15.7747024 C17.9426882,16.0544843 16.8788133,19.1362758 14.1627425,18.7095184 C11.4466717,18.282761 7.66008954,15.3547906 5.50240194,13.2475981 L7.03715002,11.71285 L7.03715002,11.71285 Z M7.03715002,11.71285 C5.1660151,9.84171506 4.28838707,8.06879357 4.3397808,7.41315965 C4.39117452,6.75752573 5.5139932,5.12481447 5.49904815,4.35404129 C5.49186542,3.98360112 3.85473817,1.56288946 3.66545937,1.26986222 C3.47618058,0.976834972 3.25507951,0.705133904 2.97529759,0.756222861 C2.69551567,0.807311817 -0.386275783,1.87118671 0.040481629,4.58725749 C0.467239041,7.30332826 3.39520938,11.0899105 5.50240194,13.2475981 L7.03715002,11.71285 L7.03715002,11.71285 Z" id="Path-29"></path>
                <path d="M9,0.638223823 C9,0.479042201 9.13449905,0.35 9.29962383,0.35 L15.0003762,0.35 C15.1658538,0.35 15.3,0.47854446 15.3,0.638223823 L15.3,4.96177618 C15.3,5.1209578 15.1655009,5.25 15.0003762,5.25 L9.29962383,5.25 C9.13414616,5.25 9,5.12145554 9,4.96177618 L9,0.638223823 Z M17.990625,5.57896081 C17.9007741,5.48225317 16.7904747,4.42841198 16,3.70513801 L16,1.87259016 C16.7716557,1.15907586 17.8577218,0.13548527 17.990625,0.0177006855 C18.2146799,-0.0467843272 18.45,0.0662210964 18.45,0.335486978 L18.45,5.26117451 C18.45,5.50173443 18.2372023,5.65895936 17.990625,5.57896081 Z" id="Path"></path>
            </g>
        </g>
    </g>
</svg>