<?xml version="1.0" encoding="UTF-8"?>
<svg width="32px" height="32px" viewBox="0 0 32 32" version="1.1" xmlns="http://www.w3.org/2000/svg" xmlns:xlink="http://www.w3.org/1999/xlink">
    <title>最小化</title>
    <g id="最小化" stroke="none" stroke-width="1" fill="none" fill-rule="evenodd">
        <rect id="矩形" x="0" y="0" width="32" height="32"></rect>
        <path d="M28.3333333,18.0666667 C29.4603144,18.0666667 30.3831905,18.9405436 30.4613102,20.047646 L30.4666667,20.2 L30.4666667,27.6666667 C30.4666667,28.7936477 29.5927897,29.7165239 28.4856873,29.7946436 L28.3333333,29.8 L19.5333333,29.8 C18.4063523,29.8 17.4834761,28.926123 17.4053564,27.8190206 L17.4,27.6666667 L17.4,20.2 C17.4,19.0730189 18.273877,18.1501428 19.3809794,18.0720231 L19.5333333,18.0666667 L28.3333333,18.0666667 Z M28.3333333,19.6666667 L19.5333333,19.6666667 C19.2682367,19.6666667 19.048314,19.8600797 19.0069804,20.1134906 L19,20.2 L19,27.6666667 C19,27.9317633 19.193413,28.151686 19.4468239,28.1930196 L19.5333333,28.2 L28.3333333,28.2 C28.59843,28.2 28.8183527,28.006587 28.8596862,27.7531761 L28.8666667,27.6666667 L28.8666667,20.2 C28.8666667,19.9054481 28.6278852,19.6666667 28.3333333,19.6666667 Z M26.3333333,5 C27.0697129,5 27.6666667,5.59695367 27.6666667,6.33333333 L27.6666667,17 L26.0666667,17 L26.0666667,6.6 L4.6,6.6 L4.6,24.7333333 L16.3333333,24.7333333 L16.3333333,26.3333333 L4.33333333,26.3333333 C3.59695367,26.3333333 3,25.7363796 3,25 L3,6.33333333 C3,5.59695367 3.59695367,5 4.33333333,5 L26.3333333,5 Z M8.69137085,9.51380712 L14.0666667,14.8884737 L14.0678163,9.66666667 L15.6678163,9.66666667 L15.6666667,16.4884738 L15.6681578,16.490594 L15.6666667,16.4911405 L15.6678163,17 C15.6678163,17.3272799 15.4319827,17.5994778 15.1209838,17.6559258 L15.0011496,17.6666667 L7.66781626,17.6666667 L7.66781626,16.0666667 L12.98,16.0658071 L7.56,10.645178 L8.69137085,9.51380712 Z" id="形状结合" fill="#000000" fill-rule="nonzero"></path>
    </g>
</svg>