<?xml version="1.0" encoding="UTF-8"?>
<svg width="24px" height="24px" viewBox="0 0 24 24" version="1.1" xmlns="http://www.w3.org/2000/svg" xmlns:xlink="http://www.w3.org/1999/xlink">
    <title>icons_filled_resume</title>
    <g id="icons_filled_resume" stroke="none" stroke-width="1" fill="none" fill-rule="evenodd" fill-opacity="0.9">
        <path d="M21.8281857,9.69494083 C23.2576038,15.0296019 20.0917789,20.5129714 14.7571179,21.9423895 C9.42245686,23.3718077 3.93908729,20.2059828 2.50966917,14.8713217 C2.37300842,14.3612968 2.27722932,13.8453897 2.22225496,13.32714 L2.18867387,12.9380688 L4.1842535,12.8051705 C4.21882753,13.3243284 4.3044657,13.842187 4.44152083,14.3536836 C5.58505532,18.6214125 9.97175097,21.1540724 14.2394798,20.0105379 C18.5072086,18.8670034 21.0398685,14.4803077 19.896334,10.2125789 C18.7527996,5.94485009 14.3661039,3.41219018 10.0983751,4.55572467 C8.33831532,5.02733126 6.83160811,6.06364029 5.77099115,7.47935489 L8.27980691,7.78752982 L8.03606822,9.77262212 L3.07333746,9.1632754 C2.52516936,9.09596882 2.13535407,8.59702801 2.20266065,8.04885991 L2.81200737,3.08612915 L4.79709967,3.32986784 L4.48282164,5.88429262 C5.78511633,4.317053 7.54920742,3.16821972 9.58073699,2.62387302 C14.915398,1.1944549 20.3987676,4.3602798 21.8281857,9.69494083 Z M13,7 L13,12 L18,12 L18,14 L11,14 L11,7 L13,7 Z" id="形状结合" fill="#000000"></path>
    </g>
</svg>