<?xml version="1.0" encoding="UTF-8"?>
<svg width="34px" height="33px" viewBox="0 0 34 33" version="1.1" xmlns="http://www.w3.org/2000/svg" xmlns:xlink="http://www.w3.org/1999/xlink">
    <title>移动端_handoff_成功</title>
    <g id="移动端_handoff_成功" stroke="none" stroke-width="1" fill="none" fill-rule="evenodd">
        <g id="编组" transform="translate(4.000000, 3.000000)" fill="#EDEDED">
            <path d="M17.4064971,20.4483309 L18.9691624,24.7433217 C19.1190438,25.1554954 18.9064138,25.6111311 18.4942401,25.7610124 C18.4072562,25.7926429 18.3154123,25.8088235 18.2228559,25.8088235 L8.5786147,25.8088235 C8.14003563,25.8088235 7.78449705,25.4532849 7.78449705,25.0147059 C7.78449705,24.9221495 7.80067765,24.8303056 7.83230816,24.7433217 L9.39349705,20.4483309 L17.4064971,20.4483309 Z" id="形状结合"></path>
            <path d="M1.38970588,0 L25.4117647,0 C26.1792781,2.12612111e-15 26.8014706,0.622192517 26.8014706,1.38970588 L26.8014706,17.4705882 C26.8014706,18.2381016 26.1792781,18.8602941 25.4117647,18.8602941 L1.38970588,18.8602941 C0.622192517,18.8602941 9.82171698e-16,18.2381016 0,17.4705882 L0,1.38970588 C-9.39932786e-17,0.622192517 0.622192517,8.07123733e-16 1.38970588,0 Z M17.5641798,5.95588235 L18.3639706,6.82703925 L13.2296982,12.0938716 C12.8459503,12.4875274 12.2504695,12.5106812 11.8418284,12.1668163 L11.7510247,12.0809493 L9.43014706,9.62009172 L10.2434547,8.76303185 L12.4973111,11.1521228 L17.5641798,5.95588235 Z" id="形状结合"></path>
        </g>
    </g>
</svg>