<?xml version="1.0" encoding="UTF-8"?>
<svg width="24px" height="24px" viewBox="0 0 24 24" version="1.1" xmlns="http://www.w3.org/2000/svg" xmlns:xlink="http://www.w3.org/1999/xlink">
    <!-- Generator: Sketch 64 (93537) - https://sketch.com -->
    <title>3.Icons/Filled/fire</title>
    <desc>Created with Sketch.</desc>
    <g id="3.Icons/Filled/fire" stroke="none" stroke-width="1" fill="none" fill-rule="evenodd">
        <g id="编组-9">
            <path d="M10.0506387,2 C11.2787195,2 17.3110352,5.65595703 14.6182861,12.7365723 C15.2242279,12.3904846 16.3115997,11.4651611 16.6978702,9.4135447 C18.5548521,10.6483479 19.75,12.5795418 19.75,14.75 C19.75,17.8789589 17.2661892,20.5106676 13.8963892,21.275565 C13.9634994,20.8749958 14,20.4460231 14,20 C14,17.790861 12.6665039,16 12,16 C11.3334961,16 10,17.790861 10,20 C10,20.4664911 10.0399275,20.9143311 10.1133206,21.3305958 C6.61210763,20.6445691 4,17.9587519 4,14.75 C4,12.9881448 4.78751575,11.3839474 6.07728822,10.1819156 C7.51655452,8.84055969 11.5,5.96064453 10.0506387,2 Z" id="形状结合" fill="#000000"></path>
            <rect id="矩形备份-2" fill="#D8D8D8" opacity="0" x="0" y="0" width="24" height="24"></rect>
        </g>
    </g>
</svg>