<?xml version="1.0" encoding="UTF-8"?>
<svg width="24px" height="24px" viewBox="0 0 24 24" version="1.1" xmlns="http://www.w3.org/2000/svg" xmlns:xlink="http://www.w3.org/1999/xlink">
    <title>朋友圈</title>
    <g id="朋友圈" stroke="none" stroke-width="1" fill="none" fill-rule="evenodd">
        <g id="Group-21" transform="translate(2.002500, 2.002500)">
            <path d="M5.3717328,1.18271756 C3.33070051,2.26984724 1.70589399,4.03530492 0.798021179,6.17822694 L0.798019881,6.17822694 L10.0241319,6.17822694 C10.0894276,6.17527293 10.1551843,6.17378049 10.2213712,6.17378049 C10.2696301,6.17378049 10.3177195,6.17472755 10.3656213,6.17660607 L5.3717328,1.18271756 L5.3717328,1.18271756 Z" id="Path" fill="#FF7612"></path>
            <path d="M6.32369175,0.737709466 C7.49737843,0.261995635 8.78056533,0 10.125,0 C11.1560516,0 12.151118,0.154127547 13.0884146,0.440599347 L13.0884146,0.440599347 L13.0884146,7.51584547 C12.996348,7.40873662 12.8989659,7.30690507 12.796757,7.21077471 L6.32369175,0.737709466 L6.32369175,0.737709466 Z" id="Path" fill="#FA5452"></path>
            <path d="M0.439183271,7.16603182 C0.153617179,8.10202574 0,9.09557496 0,10.125 C0,11.4717546 0.262922206,12.7571063 0.740248341,13.9325115 L0.740248341,13.9325115 L7.33847451,7.33428537 L7.34518504,7.3409959 C7.40559071,7.28068047 7.46795851,7.22232908 7.5321984,7.16603182 L0.439183271,7.16603182 L0.439183271,7.16603182 L0.439183271,7.16603182 Z" id="Path" fill="#FFC817"></path>
            <path d="M1.18577268,14.8839543 C2.27384503,16.9236224 4.03958472,18.5471193 6.18252266,19.4538202 L6.18252266,19.4538202 L6.18252266,10.4749346 C6.17672302,10.3910068 6.17378049,10.3064528 6.17378049,10.2213712 C6.17378049,10.1071733 6.17822378,9.9942551 6.18695186,9.88277508 L1.18577268,14.8839543 L1.18577268,14.8839543 L1.18577268,14.8839543 Z" id="Path" fill="#9AD122"></path>
            <path d="M7.17032754,19.8121438 C8.1050414,20.0968562 9.09712018,20.25 10.125,20.25 C11.4716825,20.25 12.7569757,19.9870641 13.9323389,19.5097298 L13.9323389,19.5097298 L7.48020889,13.0575997 C7.37111207,12.9615713 7.26766402,12.8599614 7.17032754,12.7533037 L7.17032754,19.8121438 L7.17032754,19.8121438 L7.17032754,19.8121438 Z" id="Path" fill="#66D020"></path>
            <path d="M14.8837675,19.0641913 C16.9220145,17.9768334 18.5447012,16.2127481 19.4518197,14.071924 L19.4518211,14.0719238 L10.3992944,14.0719238 C10.3402676,14.0747763 10.2809486,14.0762195 10.2213712,14.0762195 C10.1071265,14.0762195 9.99416356,14.0717736 9.88264093,14.0630647 L14.8837675,19.0641913 L14.8837675,19.0641913 L14.8837675,19.0641913 Z" id="Path" fill="#00B1FE"></path>
            <path d="M19.8107147,13.0841189 C20.0963434,12.1480809 20.25,11.1544803 20.25,10.125 C20.25,8.78068533 19.9879906,7.49755133 19.512255,6.32387804 L19.512255,6.32387804 L13.1889103,12.6472227 C13.060226,12.8031775 12.9197984,12.949318 12.7691535,13.0841189 L19.8107147,13.0841189 L19.8107147,13.0841189 L19.8107147,13.0841189 Z" id="Path" fill="#5283F0"></path>
            <path d="M19.067233,5.37193297 C17.9808468,3.33236755 16.2170939,1.70831614 14.0762195,0.800004453 L14.0762195,10.125 L14.0751619,10.125 C14.0758656,10.1570195 14.0762195,10.1891444 14.0762195,10.2213712 C14.0762195,10.2696819 14.0752707,10.3178225 14.073391,10.365775 L19.067233,5.37193297 L19.067233,5.37193297 L19.067233,5.37193297 Z" id="Path" fill="#6467F0"></path>
        </g>
    </g>
</svg>