<?xml version="1.0" encoding="UTF-8"?>
<svg width="24px" height="24px" viewBox="0 0 24 24" version="1.1" xmlns="http://www.w3.org/2000/svg" xmlns:xlink="http://www.w3.org/1999/xlink">
    <title>icons_outlined_travel</title>
    <defs>
        <filter id="filter-1">
            <feColorMatrix in="SourceGraphic" type="matrix" values="0 0 0 0 0.000000 0 0 0 0 0.000000 0 0 0 0 0.000000 0 0 0 0.900000 0"></feColorMatrix>
        </filter>
    </defs>
    <g id="icons_outlined_travel" stroke="none" stroke-width="1" fill="none" fill-rule="evenodd">
        <g filter="url(#filter-1)" id="编组">
            <g transform="translate(1.093398, 2.693726)">
                <path d="M0.90660183,14.1062736 L7.52512186,1.75170288 C7.78592254,1.26487493 8.3919953,1.08164363 8.87882324,1.34244432 C9.05260181,1.43553998 9.19498614,1.57792431 9.2880818,1.75170288 L13.2326018,9.11472851 L14.9968696,6.47087194 C15.3032221,6.01134326 15.9240914,5.88716939 16.3836201,6.19352185 C16.5161797,6.28189493 16.6257061,6.40066123 16.7030772,6.53992921 L20.9066018,14.1062736 L0.90660183,14.1062736 Z M13.2066018,11.6062736 L8.40660183,2.6462736 L2.90960183,12.9062736 L10.9066018,12.9052736 L10.9066018,12.9062736 L13.1856018,12.9057285 L13.1866018,12.9052736 L18.8666018,12.9052736 L15.8136018,7.4082736 L13.8756018,10.3137285 L14.5676018,11.6062736 L13.2066018,11.6062736 Z" id="形状结合" fill="#979797" fill-rule="nonzero"></path>
                <polygon id="路径-84" fill="#979797" fill-rule="nonzero" points="19.9066018 15.0062736 19.9066018 16.2062736 2.90660183 16.2062736 2.90660183 15.0062736"></polygon>
                <polygon id="路径-85" fill="#979797" fill-rule="nonzero" points="14.9066018 17.1062736 14.9066018 18.3062736 6.90660183 18.3062736 6.90660183 17.1062736"></polygon>
                <circle id="椭圆形" stroke="#979797" stroke-width="1.2" cx="17.9066018" cy="2.3062736" r="1.4"></circle>
            </g>
        </g>
    </g>
</svg>