<?xml version="1.0" encoding="UTF-8"?>
<svg width="22px" height="22px" viewBox="0 0 22 22" version="1.1" xmlns="http://www.w3.org/2000/svg" xmlns:xlink="http://www.w3.org/1999/xlink">
    <title>0.图标 面型 icons_filled_location2</title>
    <defs>
        <filter id="filter-1">
            <feColorMatrix in="SourceGraphic" type="matrix" values="0 0 0 0 1.000000 0 0 0 0 1.000000 0 0 0 0 1.000000 0 0 0 1.000000 0"></feColorMatrix>
        </filter>
    </defs>
    <g id="------------地理位置---入口位置" stroke="none" stroke-width="1" fill="none" fill-rule="evenodd">
        <g id="0.图标-面型-icons_filled_location2" filter="url(#filter-1)">
            <g>
                <path d="M11,3.5 C14.3137085,3.5 17,6.13256068 17,9.37998885 C17,13.8034148 11.5644654,18.288957 11.5644654,18.288957 C11.2578125,18.5651513 10.7520952,18.5689671 10.4462891,18.2988121 C10.4462891,18.2988121 5,13.8034148 5,9.37998885 C5,6.13256068 7.6862915,3.5 11,3.5 Z M11,6.80749373 C9.55025253,6.80749373 8.375,7.95923902 8.375,9.37998885 C8.375,10.8007387 9.55025253,11.952484 11,11.952484 C12.4497475,11.952484 13.625,10.8007387 13.625,9.37998885 C13.625,7.95923902 12.4497475,6.80749373 11,6.80749373 Z" id="图标颜色" fill="#FFFFFF"></path>
            </g>
        </g>
    </g>
</svg>