<?xml version="1.0" encoding="UTF-8"?>
<svg width="24px" height="24px" viewBox="0 0 24 24" version="1.1" xmlns="http://www.w3.org/2000/svg" xmlns:xlink="http://www.w3.org/1999/xlink">
    <!-- Generator: Sketch 60 (88103) - https://sketch.com -->
    <title>transfer8°</title>
    <desc>Created with Sketch.</desc>
    <g id="transfer8°" stroke="none" stroke-width="1" fill="none" fill-rule="evenodd" fill-opacity="0.9">
        <path d="M4.80589746,6.76097725 L4.80589746,8.47765112 L7.31488234,8.47765112 C8.00815448,10.8710906 9.24614044,12.9674135 11.0288402,14.7831263 C9.31216636,16.2356965 7.13331107,17.2921112 4.50878083,17.9688768 L5.43314368,19.4874729 C8.12369984,18.7281749 10.401594,17.5232019 12.2503197,15.8890604 C14.0000065,17.3416306 16.1953683,18.5631101 18.836405,19.5534989 L19.7937808,18.0844222 C17.284796,17.1600593 15.1719666,16.0376187 13.4717992,14.6840874 C14.9903953,13.016933 16.1458489,10.953623 16.9381599,8.47765112 L19.4306383,8.47765112 L19.4306383,6.76097725 L13.191189,6.76097725 C12.6959947,5.68805609 12.1512808,4.76369324 11.5570476,3.9878887 L9.82386722,4.61513492 C10.4181005,5.29190058 10.9298014,6.0016792 11.3424633,6.76097725 L4.80589746,6.76097725 Z M8.96553029,8.47765112 L15.1554601,8.47765112 C14.5117074,10.4749351 13.5378251,12.191609 12.2503197,13.6111662 C10.7317236,12.1255831 9.64229595,10.4254157 8.96553029,8.47765112 Z" id="图标颜色" fill="#000000" transform="translate(12.151281, 11.770694) rotate(8.000000) translate(-12.151281, -11.770694) "></path>
    </g>
</svg>