<?xml version="1.0" encoding="UTF-8"?>
<svg width="20px" height="20px" viewBox="0 0 20 20" version="1.1" xmlns="http://www.w3.org/2000/svg" xmlns:xlink="http://www.w3.org/1999/xlink">
    <title>编组 4</title>
    <g id="200622--发现内容" stroke="none" stroke-width="1" fill="none" fill-rule="evenodd">
        <g id="编组-12备份" transform="translate(0.000000, 3.000000)" fill="#000000">
            <path d="M13,0 C16.8659932,0 20,3.13400675 20,7 C20,10.8659932 16.8659932,14 13,14 L7,14 C3.13400675,14 0,10.8659932 0,7 C0,3.13400675 3.13400675,0 7,0 L13,0 Z M13,0.5 L7,0.5 C3.41014913,0.5 0.5,3.41014913 0.5,7 C0.5,10.5118106 3.28499621,13.3731506 6.76686587,13.495897 L7,13.5 L13,13.5 C16.5898509,13.5 19.5,10.5898509 19.5,7 C19.5,3.48818936 16.7150038,0.626849443 13.2331341,0.504103005 L13,0.5 Z" id="矩形" fill-rule="nonzero"></path>
            <path d="M12.3535534,4.02022006 L13.0202201,4.68688672 L10.686,7.02 L13.0202201,9.35355339 L12.3535534,10.0202201 L10.02,7.686 L7.68688672,10.0202201 L7.02022006,9.35355339 L9.353,7.02 L7.02022006,4.68688672 L7.68688672,4.02022006 L10.02,6.353 L12.3535534,4.02022006 Z" id="形状结合"></path>
        </g>
    </g>
</svg>