<?xml version="1.0" encoding="UTF-8"?>
<svg width="24px" height="24px" viewBox="0 0 24 24" version="1.1" xmlns="http://www.w3.org/2000/svg" xmlns:xlink="http://www.w3.org/1999/xlink">
    <title>icon_filled_umbrella</title>
    <g id="icon_filled_umbrella" stroke="none" stroke-width="1" fill="none" fill-rule="evenodd">
        <g id="yusan" transform="translate(2.000000, 2.000000)" fill="#000000">
            <path d="M10.85,12.1059004 L10.85,17.2436523 L10.85,17.2436523 C10.85,18.7614492 9.66352603,20.0021302 8.16745915,20.0888143 L8,20.0936523 L7.79431152,20.0936523 C6.22029999,20.0936523 4.94431152,18.8176639 4.94431152,17.2436523 C4.94431152,16.7742103 5.32486949,16.3936523 5.79431152,16.3936523 C6.22764263,16.3936523 6.5852382,16.7179147 6.63768882,17.1370301 L6.64431152,17.2436523 C6.64431152,17.836438 7.09282271,18.3244682 7.66900635,18.3869043 L7.79431152,18.3936523 L8,18.3936523 C8.59278563,18.3936523 9.08081586,17.9451412 9.14325196,17.3689575 L9.15,17.2436523 L9.15,12.1059004 C9.15,11.6364583 9.53055796,11.2559004 10,11.2559004 C10.469442,11.2559004 10.85,11.6364583 10.85,12.1059004 Z" id="路径" fill-rule="nonzero"></path>
            <path d="M10,0 C10.469442,3.30713184e-16 10.85,0.380557963 10.85,0.85 L10.85,2 L9.149,2 L9.15,0.85 C9.15,0.380557963 9.53055796,1.25946837e-14 10,0 Z" id="形状结合" fill-rule="nonzero"></path>
            <path d="M10,1 C15.5228475,1 20,5.4771525 20,11 L19.9967895,11.2559004 L19.9967895,11.2559004 C19.046151,10.470693 17.8280436,10 16.5,10 C15.2225748,10 14.0468652,10.4354959 13.1139221,11.1657815 C12.2285729,10.5565959 11.1559302,10.2 10,10.2 C8.84406983,10.2 7.77142709,10.5565959 6.88676022,11.1661188 C5.95313483,10.4354959 4.77742517,10 3.5,10 C2.17152786,10 0.953062935,10.4709968 0.00248314959,11.2551126 L0,11 C0,5.4771525 4.4771525,1 10,1 Z" id="路径"></path>
        </g>
    </g>
</svg>