<?xml version="1.0" encoding="UTF-8"?>
<svg width="24px" height="24px" viewBox="0 0 24 24" version="1.1" xmlns="http://www.w3.org/2000/svg" xmlns:xlink="http://www.w3.org/1999/xlink">
    <!-- Generator: Sketch 59.1 (86144) - https://sketch.com -->
    <title>Icons_outlined_order</title>
    <desc>Created with Sketch.</desc>
    <g id="Icons_outlined_order" stroke="none" stroke-width="1" fill="none" fill-rule="evenodd" fill-opacity="0.9">
        <path d="M3.26798077,16.45 C4.03644231,16.45 4.58942308,16.8705769 4.58942308,17.4599038 C4.58942308,17.8934615 4.31682692,18.2309615 3.89884615,18.3166346 L3.89884615,18.3633654 C4.41288462,18.4204808 4.73480769,18.7631731 4.73480769,19.2564423 C4.73480769,19.9132692 4.11692308,20.3883654 3.26278846,20.3883654 C2.42682692,20.3883654 1.86086538,19.92625 1.82711538,19.2200962 L2.57740385,19.2200962 C2.60076923,19.5368269 2.86817308,19.7367308 3.27057692,19.7367308 C3.66259615,19.7367308 3.93519231,19.5160577 3.93519231,19.1967308 C3.93519231,18.8696154 3.67817308,18.6671154 3.25759615,18.6671154 L2.79288462,18.6671154 L2.79288462,18.0829808 L3.24980769,18.0829808 C3.60548077,18.0829808 3.84692308,17.8752885 3.84692308,17.5689423 C3.84692308,17.2677885 3.61326923,17.0756731 3.24721154,17.0756731 C2.88375,17.0756731 2.64230769,17.2807692 2.62153846,17.6052885 L1.89721154,17.6052885 C1.92317308,16.8965385 2.45019231,16.45 3.26798077,16.45 Z M22.1030769,18.0984615 L22.1030769,19.1323077 L7.48153846,19.1323077 L7.48153846,18.0984615 L22.1030769,18.0984615 Z M3.20048077,9.80384615 C3.98192308,9.80384615 4.52711538,10.2529808 4.52711538,10.8968269 C4.52711538,11.2730695 4.33908625,11.6006458 3.79967237,12.128673 L2.94086538,12.9477885 L2.94086538,12.9945192 L4.58163462,12.9945192 L4.58163462,13.6461538 L1.87903846,13.6461538 L1.87903846,13.0983654 L3.10182692,11.9015385 C3.62884615,11.3875 3.76125,11.1927885 3.76125,10.94875 C3.76125,10.6475962 3.51721154,10.4347115 3.17451923,10.4347115 C2.84740385,10.4347115 2.61281538,10.6281769 2.56916885,10.9185853 L2.56182692,11.0344231 L1.83490385,11.0344231 L1.83490385,11.0214423 C1.83490385,10.2971154 2.39048077,9.80384615 3.20048077,9.80384615 Z M22.1030769,11.4523077 L22.1030769,12.4861538 L7.48153846,12.4861538 L7.48153846,11.4523077 L22.1030769,11.4523077 Z M3.56913462,3.25375 L3.56913462,7 L2.78509615,7 L2.78509615,4.01701923 L2.73836538,4.01701923 L1.81932692,4.65048077 L1.81932692,3.92096154 L2.78769231,3.25375 L3.56913462,3.25375 Z M22.1030769,4.80615385 L22.1030769,5.84 L7.48153846,5.84 L7.48153846,4.80615385 L22.1030769,4.80615385 Z" id="形状结合" fill="#000000"></path>
    </g>
</svg>