<?xml version="1.0" encoding="UTF-8"?>
<svg width="60px" height="60px" viewBox="0 0 60 60" version="1.1" xmlns="http://www.w3.org/2000/svg" xmlns:xlink="http://www.w3.org/1999/xlink">
    <title>9.元素/加载/彩色/*Brand_100备份</title>
    <defs>
        <linearGradient x1="94.0869141%" y1="0%" x2="94.0869141%" y2="90.559082%" id="linearGradient-1">
            <stop stop-color="#07C160" stop-opacity="0" offset="0%"></stop>
            <stop stop-color="#07C160" stop-opacity="0.3" offset="100%"></stop>
        </linearGradient>
        <linearGradient x1="100%" y1="8.67370605%" x2="100%" y2="90.6286621%" id="linearGradient-2">
            <stop stop-color="#07C160" offset="0%"></stop>
            <stop stop-color="#07C160" stop-opacity="0.3" offset="100%"></stop>
        </linearGradient>
    </defs>
    <g id="9.元素/加载/彩色/*Brand_100备份" stroke="none" stroke-width="1" fill="none" fill-rule="evenodd" opacity="0.9">
        <g id="LoadingBrand">
            <path d="M30,0 C46.5685425,0 60,13.4314575 60,30 C60,46.5685425 46.5685425,60 30,60 L30,54.75 C43.6690476,54.75 54.75,43.6690476 54.75,30 C54.75,16.3309524 43.6690476,5.25 30,5.25 L30,0 Z" id="路径" fill="url(#linearGradient-1)"></path>
            <path d="M30,0 L30,5.25 C16.3309524,5.25 5.25,16.3309524 5.25,30 C5.25,43.6690476 16.3309524,54.75 30,54.75 L30,60 C13.4314575,60 0,46.5685425 0,30 C0,13.4314575 13.4314575,0 30,0 Z" id="路径" fill="url(#linearGradient-2)"></path>
            <circle id="Oval" fill="#07C160" cx="30.375" cy="2.625" r="2.625"></circle>
        </g>
    </g>
</svg>