<?xml version="1.0" encoding="UTF-8"?>
<svg width="104px" height="104px" viewBox="0 0 104 104" version="1.1" xmlns="http://www.w3.org/2000/svg" xmlns:xlink="http://www.w3.org/1999/xlink">
    <title>banner/connect_kidwatch_big</title>
    <g id="banner/connect_kidwatch_big" stroke="none" stroke-width="1" fill="none" fill-rule="evenodd">
        <path d="M68.7444592,22.4 C72.1972553,22.4 73.4549443,22.745369 74.7187433,23.4212561 C75.9517085,24.0806531 76.9193469,25.0482915 77.5787439,26.2812567 C78.254631,27.5450557 78.6,28.8027447 78.6,32.2555408 L78.6,32.2555408 L78.6,71.7444592 C78.6,75.1972553 78.254631,76.4549443 77.5787439,77.7187433 C76.9193469,78.9517085 75.9517085,79.9193469 74.7187433,80.5787439 C73.4549443,81.254631 72.1972553,81.6 68.7444592,81.6 L68.7444592,81.6 L33.2555408,81.6 C29.8027447,81.6 28.5450557,81.254631 27.2812567,80.5787439 C26.0482915,79.9193469 25.0806531,78.9517085 24.4212561,77.7187433 C23.745369,76.4549443 23.4,75.1972553 23.4,71.7444592 L23.4,71.7444592 L23.4,32.2555408 C23.4,28.8027447 23.745369,27.5450557 24.4212561,26.2812567 C25.0806531,25.0482915 26.0482915,24.0806531 27.2812567,23.4212561 C28.5450557,22.745369 29.8027447,22.4 33.2555408,22.4 L33.2555408,22.4 Z" id="矩形" stroke="#000000" stroke-width="0.8"></path>
        <path d="M34,22.5 L36.1284714,12.2123881 C36.448377,10.6661776 36.6968138,10.1315177 37.0798517,9.60095745 C37.4628895,9.07039719 37.9544136,8.67015783 38.5515759,8.40255853 C39.1487381,8.13495923 39.7226441,8 41.3016015,8 L60.6983985,8 C62.2773559,8 62.8512619,8.13495923 63.4484241,8.40255853 C64.0455864,8.67015783 64.5371105,9.07039719 64.9201483,9.60095745 C65.3031862,10.1315177 65.551623,10.6661776 65.8715286,12.2123881 L68,22.5 L68,22.5" id="路径" stroke="#000000" stroke-width="0.8"></path>
        <path d="M34,96 L36.1284714,85.7123881 C36.448377,84.1661776 36.6968138,83.6315177 37.0798517,83.1009574 C37.4628895,82.5703972 37.9544136,82.1701578 38.5515759,81.9025585 C39.1487381,81.6349592 39.7226441,81.5 41.3016015,81.5 L60.6983985,81.5 C62.2773559,81.5 62.8512619,81.6349592 63.4484241,81.9025585 C64.0455864,82.1701578 64.5371105,82.5703972 64.9201483,83.1009574 C65.3031862,83.6315177 65.551623,84.1661776 65.8715286,85.7123881 L68,95.5 L68,96" id="路径备份" stroke="#000000" stroke-width="0.8" transform="translate(51.000000, 88.750000) scale(1, -1) translate(-51.000000, -88.750000) "></path>
        <path d="M66.8722296,29.4 C68.5419882,29.4 69.1531048,29.5597178 69.7650519,29.8869907 C70.3461653,30.1977735 70.8022265,30.6538347 71.1130093,31.2349481 C71.4402822,31.8468952 71.6,32.4580118 71.6,34.1277704 L71.6,34.1277704 L71.6,69.8722296 C71.6,71.5419882 71.4402822,72.1531048 71.1130093,72.7650519 C70.8022265,73.3461653 70.3461653,73.8022265 69.7650519,74.1130093 C69.1531048,74.4402822 68.5419882,74.6 66.8722296,74.6 L66.8722296,74.6 L35.1277704,74.6 C33.4580118,74.6 32.8468952,74.4402822 32.2349481,74.1130093 C31.6538347,73.8022265 31.1977735,73.3461653 30.8869907,72.7650519 C30.5597178,72.1531048 30.4,71.5419882 30.4,69.8722296 L30.4,69.8722296 L30.4,34.1277704 C30.4,32.4580118 30.5597178,31.8468952 30.8869907,31.2349481 C31.1977735,30.6538347 31.6538347,30.1977735 32.2349481,29.8869907 C32.8468952,29.5597178 33.4580118,29.4 35.1277704,29.4 L35.1277704,29.4 Z" id="矩形" stroke="#000000" stroke-width="0.8"></path>
        <path d="M79,36 L79.5,36 C80.6045695,36 81.5,36.8954305 81.5,38 L81.5,45 C81.5,46.1045695 80.6045695,47 79.5,47 L79,47 L79,47" id="路径" stroke="#000000" stroke-width="0.8"></path>
    </g>
</svg>