<?xml version="1.0" encoding="UTF-8"?>
<svg width="12px" height="12px" viewBox="0 0 12 12" version="1.1" xmlns="http://www.w3.org/2000/svg" xmlns:xlink="http://www.w3.org/1999/xlink">
    <!-- Generator: Sketch 57.1 (83088) - https://sketch.com -->
    <title>icon备份 2</title>
    <desc>Created with Sketch.</desc>
    <g id="新版语音转文字-暗黑模式" stroke="none" stroke-width="1" fill="none" fill-rule="evenodd">
        <g id="画板" transform="translate(-8.000000, -9.000000)" fill="#000000">
            <g id="icon备份-2" transform="translate(8.000000, 9.000000)">
                <path d="M6,2.93098879e-14 C9.3137085,2.93098879e-14 12,2.6862915 12,6 C12,9.3137085 9.3137085,12 6,12 C2.6862915,12 0,9.3137085 0,6 C0,2.6862915 2.6862915,2.93098879e-14 6,2.93098879e-14 Z M9.66848356,3.49642323 C9.61775868,3.44571772 9.53691783,3.44154759 9.48124485,3.48676462 L9.48124485,3.48676462 L4.85386707,7.24507374 C4.80495578,7.28479899 4.73553256,7.28695391 4.68425163,7.25033866 L4.68425163,7.25033866 L2.80079226,5.90552413 C2.7948543,5.90128435 2.78859398,5.89751525 2.78206852,5.89425127 C2.71291681,5.85966221 2.62881831,5.88768078 2.59422925,5.95683248 L2.59422925,5.95683248 L2.41214548,6.32086099 C2.38518012,6.37477113 2.39574858,6.43988905 2.43837967,6.48250387 L2.43837967,6.48250387 L4.67205128,8.71532275 C4.72675816,8.76993314 4.8153721,8.76993314 4.87007898,8.71532275 L4.87007898,8.71532275 L9.78071375,3.80656267 L9.78071375,3.80656267 L9.80702533,3.77022108 C9.83325734,3.71778231 9.82449105,3.65231071 9.78071375,3.60861058 L9.78071375,3.60861058 Z" id="合并形状"></path>
            </g>
        </g>
    </g>
</svg>