<?xml version="1.0" encoding="UTF-8"?>
<svg width="24px" height="24px" viewBox="0 0 24 24" version="1.1" xmlns="http://www.w3.org/2000/svg" xmlns:xlink="http://www.w3.org/1999/xlink">
    <title>icons_filled_fire</title>
    <g id="icons_filled_fire" stroke="none" stroke-width="1" fill="none" fill-rule="evenodd">
        <path d="M11.4002686,2.51733398 C13.1690386,2.51733398 14.5617676,4.00476074 15.0305176,5.49035645 C15.5522859,7.1439816 14.4144287,8.98974609 15.2469482,9.6875 C16.0794678,10.3852539 17.1376953,9.15197754 17.6754984,8.22256256 C18.6001438,9.88791371 19.149706,11.8273262 19.149706,13.850294 C19.149706,17.3529462 16.630976,20.2673174 13.3059116,20.881012 C13.5452411,20.5904819 13.6887936,20.2176084 13.6887936,19.8112064 C13.6887936,18.7048597 13.1258624,17.6011242 12,16.5 C10.8741376,17.6011242 10.3112064,18.7048597 10.3112064,19.8112064 C10.3112064,20.2176084 10.4547589,20.5904819 10.6939234,20.8818863 C7.36875339,20.2670042 4.85029398,17.352758 4.85029398,13.850294 C4.85029398,10.7048423 6.78454673,8.52393219 7.73230439,7.68889572 C7.53691572,8.5929535 7.53450481,10.4161147 7.89442156,10.6773467 C7.89891806,10.6806103 7.91090588,10.6672186 7.91234145,10.6576506 C8.57909696,6.21379154 12.5695505,5.14566753 11.4002686,2.51733398 Z" id="形状结合" fill="#000000"></path>
    </g>
</svg>