<?xml version="1.0" encoding="UTF-8"?>
<svg width="24px" height="24px" viewBox="0 0 24 24" version="1.1" xmlns="http://www.w3.org/2000/svg" xmlns:xlink="http://www.w3.org/1999/xlink">
    <title>icons_outlined_朋友聊天区_on</title>
    <g id="icons_outlined_朋友聊天区_on" stroke="none" stroke-width="1" fill="none" fill-rule="evenodd">
        <g id="备份">
            <rect id="矩形" x="0" y="0" width="24" height="24"></rect>
            <path d="M12,3 C17.5228475,3 22,6.80557963 22,11.5 C22,13.3158666 21.3301064,14.9987405 20.1889216,16.3798096 L21.4716631,16.967321 C22.1360788,17.2714087 22.6302698,17.9662308 22.693209,18.694807 L22.693209,18.694807 L22.7,18.851317 L22.7,19.118797 C22.7,20.0472998 21.9472998,20.8 21.018797,20.8 L21.018797,20.8 L12.981203,20.8 C12.3722255,20.8 11.8388722,20.4762139 11.5439053,19.9914038 C10.5795521,19.9546569 9.6491825,19.8014315 8.77345417,19.5478358 L5.79050106,20.9781933 C5.70535272,21.0190228 5.61038279,21.0349049 5.51658297,21.0240015 C5.24228753,20.9921171 5.04577459,20.7439092 5.07765905,20.4696138 L5.37975626,17.8707334 C3.30699806,16.313333 2,14.0364044 2,11.5 C2,6.80557963 6.4771525,3 12,3 Z M17,11.6 C15.955695,11.6 15.1052632,12.3958547 15.1052632,13.3775913 L15.1052632,13.3775913 L15.1052632,14.1374625 C15.1052632,14.6442207 15.3877294,15.3681267 15.7361692,15.7556169 L15.7361692,15.7556169 L15.9074214,15.9460617 C16.188228,16.2583389 16.0978102,16.6526845 15.7089504,16.8307302 L15.7089504,16.8307302 L13.0277304,18.0583701 C12.7359662,18.1919591 12.5,18.546833 12.5,18.851317 L12.5,18.851317 L12.5,19.118797 C12.5,19.3845581 12.7154419,19.6 12.981203,19.6 L12.981203,19.6 L21.018797,19.6 C21.2845581,19.6 21.5,19.3845581 21.5,19.118797 L21.5,19.118797 L21.5,18.851317 C21.5,18.5445201 21.263727,18.1918633 20.9722695,18.05847 L20.9722695,18.05847 L18.2910495,16.8313379 C17.9005626,16.6526212 17.8133311,16.2573114 18.0925785,15.9467257 L18.0925785,15.9467257 L18.2638308,15.7562547 C18.610968,15.3701602 18.8947368,14.6441315 18.8947368,14.1378603 L18.8947368,14.1378603 L18.8947368,13.37787 C18.8947368,12.3968801 18.0464343,11.6 17,11.6 Z M12,4.2 C7.10056987,4.2 3.2,7.51548439 3.2,11.5 C3.2,13.5759237 4.25693049,15.5260959 6.10059482,16.9113629 L6.65125979,17.325114 L6.41619358,19.3473404 L8.66745316,18.2678377 L9.10723968,18.3951922 C9.81271867,18.5994866 10.5489028,18.7282707 11.3031112,18.7773972 C11.3337583,18.0195158 11.8396444,17.2825501 12.5281661,16.9672993 L12.5281661,16.9672993 L14.487,16.069 L14.4672562,16.0372975 C14.1644686,15.5241616 13.9559262,14.8993695 13.9133215,14.3426783 L13.9133215,14.3426783 L13.9052632,14.1374625 L13.9052632,13.3775913 C13.9052632,11.7158562 15.3089248,10.4 17,10.4 C18.6924564,10.4 20.0947368,11.7162485 20.0947368,13.37787 L20.0947368,13.37787 L20.0947368,14.1378603 C20.0947368,14.2173738 20.0908817,14.2989086 20.0834082,14.3818725 C20.5447259,13.4948752 20.8,12.5193301 20.8,11.5 C20.8,7.51548439 16.8994301,4.2 12,4.2 Z" id="Combined-Shape" fill="#FFFFFF"></path>
        </g>
    </g>
</svg>