<?xml version="1.0" encoding="UTF-8"?>
<svg width="24px" height="24px" viewBox="0 0 24 24" version="1.1" xmlns="http://www.w3.org/2000/svg" xmlns:xlink="http://www.w3.org/1999/xlink">
    <title>icons_Outlined_red envelope</title>
    <g id="icons_Outlined_red-envelope" stroke="none" stroke-width="1" fill="none" fill-rule="evenodd">
        <g id="编组">
            <rect id="矩形" fill="#FFFFFF" opacity="0" x="0" y="0" width="24" height="24"></rect>
            <path d="M12,2 C14.641,2 17.059,2.48 18.923,3.276 C19.179,3.38533333 19.1727778,3.38444444 19.1401852,3.3717037 L19.1144815,3.36146296 C19.1067222,3.35833333 19.101,3.356 19.101,3.356 C19.5597692,3.58492308 19.9375917,4.15723077 19.9930036,4.67887301 L20,4.808 L20,20.969 C20,21.4834286 19.6171633,21.9064592 19.1165069,21.9642675 L18.999,21.971 L5.001,21.971 C4.4875,21.971 4.06453571,21.5847143 4.00673214,21.0859672 L4,20.969 L4,4.808 C4,4.254 4.393,3.604 4.894,3.358 C4.894,3.358 4.87133333,3.36733333 4.85522222,3.37374074 L4.844,3.377 L4.85577778,3.37192593 C4.87544444,3.36314815 4.91523611,3.3458287 4.9874809,3.31479572 L5.071,3.279 C6.936,2.481 9.356,2 12,2 Z M18.799,14.273 L15.952,14.273 L15.889577,14.2755431 L13.4610845,14.2755431 C14.3045081,15.1015694 15.6068052,16.1858002 17.3633526,17.5225328 L17.3633526,17.5225328 L16.6366474,18.4774672 C14.8178729,17.0933797 13.4682036,15.9678439 12.5828156,15.0949093 C12.3588689,14.8741126 12.1690322,14.686946 11.9999793,14.5202702 L11.9999793,14.5202702 L11.4295641,15.0826983 C10.5415472,15.9582808 9.18781542,17.0878411 7.36355295,18.4773146 L7.36355295,18.4773146 L6.63644705,17.5226854 C8.38998982,16.1870765 9.69229632,15.1028269 10.5388192,14.2755431 L10.5388192,14.2755431 L8.1106672,14.2755431 C8.08939973,14.2755431 8.06820145,14.2752455 8.04707643,14.2746544 L5.199,14.273 L5.2,20.771 L18.8,20.771 L18.799,14.273 Z M12,3.2 C9.7768,3.2 7.63025778,3.56586667 5.90591407,4.23499615 L5.543,4.383 L5.423,4.435 C5.34716667,4.47666667 5.24425,4.63430556 5.21089352,4.74703704 L5.2,4.808 L5.199,13.073 L6.13691564,13.0742295 C6.00785698,12.8218265 5.92675783,12.541213 5.90556101,12.2440269 L5.9,12.0875308 C5.9,10.8775159 6.89177286,9.9 8.1106672,9.9 C8.68517031,9.9 9.22705621,10.1187162 9.64451403,10.5127731 L9.64451403,10.5127731 L11.9999564,12.8350849 C12.4941504,12.3478215 13.0558323,11.7940285 14.3055834,10.5618302 C14.7189401,10.1417113 15.2858828,9.9 15.889577,9.9 C17.1084524,9.9 18.1,10.8774986 18.1,12.0875308 C18.1,12.4427601 18.0146074,12.7779376 17.8631317,13.0742371 L18.799,13.073 L18.8,4.808 C18.7958333,4.71966667 18.7,4.55147222 18.6137731,4.46776852 L18.564,4.429 L18.564,4.428 L18.451,4.379 C16.669,3.619 14.378,3.2 12,3.2 Z M8.1106672,11.1 C7.55065636,11.1 7.1,11.5441781 7.1,12.0875308 C7.1,12.6313192 7.55060852,13.0755431 8.1106672,13.0755431 L8.076,13.073 L10.5327563,13.0736284 C10.1675148,12.7134968 9.70358199,12.2560488 9.0227708,11.5847534 L8.81151705,11.3764523 C8.62458572,11.2000889 8.37660784,11.1 8.1106672,11.1 Z M15.889577,11.1 C15.61026,11.1 15.3506134,11.2106982 15.1545379,11.409883 L15.1545379,11.409883 L13.467,13.073 L15.9240101,13.0749817 C16.4282451,13.0585141 16.8363813,12.6817135 16.8932298,12.2024211 L16.9,12.0875308 C16.9,11.5441036 16.4495135,11.1 15.889577,11.1 Z" id="形状结合" fill="#FA5151"></path>
        </g>
    </g>
</svg>