<?xml version="1.0" encoding="UTF-8"?>
<svg width="24px" height="24px" viewBox="0 0 24 24" version="1.1" xmlns="http://www.w3.org/2000/svg" xmlns:xlink="http://www.w3.org/1999/xlink">
    <title>Icons_Outlined_screencast_off</title>
    <g id="Icons_Outlined_screencast_off" stroke="none" stroke-width="1" fill="none" fill-rule="evenodd">
        <path d="M2.99952868,4.696 L4.19952868,5.896 L4.2,14.8 L13.1035287,14.8 L18.1695287,19.866 L18.7990381,20.955127 L17.5,21.705127 L16.053,19.2 L7.945,19.2 L6.49903811,21.705127 L5.2,20.955127 L8.059,16 L4,16 C3.44771525,16 3,15.5522847 3,15 L2.99952868,4.696 Z M3.69705685,2 L4.69652868,3 L20,3 C20.5522847,3 21,3.44771525 21,4 L21,15 C21,15.5522847 20.5522847,16 20,16 L17.6975287,16 L21.4249789,19.7279221 L20.5764507,20.5764502 L2.84852868,2.84852817 L3.69705685,2 Z M14.205,16 L9.792,16 L8.637,18 L15.36,18 L14.205,16 Z M16.4975287,14.8 L19.8,14.8 L19.8,4.2 L5.89652868,4.2 L16.4975287,14.8 Z" id="形状" fill="#000000"></path>
    </g>
</svg>