<?xml version="1.0" encoding="UTF-8"?>
<svg width="24px" height="24px" viewBox="0 0 24 24" version="1.1" xmlns="http://www.w3.org/2000/svg" xmlns:xlink="http://www.w3.org/1999/xlink">
    <title>icon_tab-心选未选中备份</title>
    <g id="icon_tab-心选未选中备份" stroke="none" stroke-width="1" fill="none" fill-rule="evenodd" fill-opacity="0.9">
        <g id="Group" fill="#000000">
            <path d="M19,2 C19.5522847,2 20,2.44771525 20,3 L20,21 C20,21.5522847 19.5522847,22 19,22 L5,22 C4.44771525,22 4,21.5522847 4,21 L4,3 C4,2.44771525 4.44771525,2 5,2 L19,2 Z M18.8,3.2 L5.2,3.2 L5.2,20.8 L18.8,20.8 L18.8,3.2 Z M11,16.2 L11,17.4 L7,17.4 L7,16.2 L11,16.2 Z M16,11.4 L16,12.6 L7,12.6 L7,11.4 L16,11.4 Z M14.5,6.6 L14.5,7.80000005 L7,7.80000005 L7,6.6 L14.5,6.6 Z" id="Fill-55"></path>
        </g>
    </g>
</svg>