<?xml version="1.0" encoding="UTF-8"?>
<svg width="24px" height="24px" viewBox="0 0 24 24" version="1.1" xmlns="http://www.w3.org/2000/svg" xmlns:xlink="http://www.w3.org/1999/xlink">
    <title>icons_outlined_shop</title>
    <g id="icons_outlined_shop" stroke="none" stroke-width="1" fill="none" fill-rule="evenodd" fill-opacity="0.9">
        <g id="icon37" fill="#000000">
            <path d="M12,2 C14.209139,2 16,3.790861 16,6 L16,7 L18.9991283,7 C19.5518945,7 20,7.44892021 20,8.00748397 L20,20.0081158 C20,21.1082031 19.1054862,22 18.0059397,22 L5.99406028,22 C4.8927712,22 4,21.1066027 4,20.0081158 L4,8.00748397 C4,7.45106594 4.44463086,7 5.00087166,7 L8,7 L8,6 C8,3.790861 9.790861,2 12,2 Z M18.8,8.2 L16,8.199 L16,11 L14.7999992,11 L14.799,8.199 L9.199,8.199 L9.20000005,11 L8,11 L8,8.199 L5.2,8.2 L5.2,20.0081158 C5.2,20.4442694 5.5559217,20.8 5.99406028,20.8 L18.0059397,20.8 C18.4438014,20.8 18.8,20.4444047 18.8,20.0081158 L18.8,8.2 Z M12,3.19999695 C10.4535996,3.19999695 9.19999695,4.45359963 9.19999695,6 L9.199,7 L14.799,7 L14.7999992,6 C14.7999969,4.45359963 13.5463942,3.19999695 12,3.19999695 Z" id="Rectangle-701"></path>
        </g>
    </g>
</svg>