<?xml version="1.0" encoding="UTF-8"?>
<svg width="155px" height="103px" viewBox="0 0 155 103" version="1.1" xmlns="http://www.w3.org/2000/svg" xmlns:xlink="http://www.w3.org/1999/xlink">
    <title>画板</title>
    <g id="画板" stroke="none" stroke-width="1" fill="none" fill-rule="evenodd">
        <path d="M125,93 L11,93 C8.790861,93 7,91.209139 7,89 L7,13 C7,10.790861 8.790861,9 11,9 L125,9 C127.209139,9 129,10.790861 129,13 L129,25 L128,25 L128,13 C128,11.4023191 126.75108,10.0963391 125.176273,10.0050927 L125,10 L11,10 C9.40231912,10 8.09633912,11.24892 8.00509269,12.8237272 L8,13 L8,89 C8,90.5976809 9.24891996,91.9036609 10.8237272,91.9949073 L11,92 L127.644741,92.0009561 C126.939742,92.6227502 126.013927,93 125,93 Z" id="形状结合" fill="#000000" fill-rule="nonzero"></path>
        <circle id="椭圆形" fill="#000000" cx="68" cy="13" r="1"></circle>
        <rect id="矩形" fill="#000000" x="126" y="29" width="6" height="1" rx="0.5"></rect>
        <path d="M143,25 C145.761424,25 148,27.2385763 148,30 L148,88 C148,90.7614237 145.761424,93 143,93 L115,93 C112.238576,93 110,90.7614237 110,88 L110,30 C110,27.2385763 112.238576,25 115,25 L143,25 Z M143,26 L115,26 C112.857805,26 111.108921,27.6839685 111.004895,29.8003597 L111,30 L111,88 C111,90.1421954 112.683968,91.8910789 114.80036,91.9951047 L115,92 L143,92 C145.142195,92 146.891079,90.3160315 146.995105,88.1996403 L147,88 L147,30 C147,27.8578046 145.316032,26.1089211 143.19964,26.0048953 L143,26 Z" id="矩形" fill="#000000" fill-rule="nonzero"></path>
        <path d="M144,33 C144.552285,33 145,33.4477153 145,34 L145,83 C145,83.5522847 144.552285,84 144,84 L114,84 C113.447715,84 113,83.5522847 113,83 L113,34 C113,33.4477153 113.447715,33 114,33 L144,33 Z M144,34 L114,34 L114,83 L144,83 L144,34 Z" id="矩形" fill="#000000" fill-rule="nonzero"></path>
        <path d="M129,51.3333333 C129.73638,51.3333333 130.333333,51.930287 130.333333,52.6666667 C130.333333,52.7420243 130.327082,52.8159218 130.315069,52.8878688 C131.878192,53.4317938 133,54.9182241 133,56.6666667 L133,59.3333333 C133,60.0258356 133.179835,60.7183379 133.539504,61.4108401 L135.949986,63.8186147 L135.3843,64.3843002 L124.232352,53.2323521 L124.798038,52.6666667 L126.072128,53.9412868 C126.511384,53.4696046 127.063255,53.1041955 127.684931,52.8878688 C127.672918,52.8159218 127.666667,52.7420243 127.666667,52.6666667 C127.666667,51.930287 128.26362,51.3333333 129,51.3333333 Z M124.457804,63.3333521 C124.315817,63.3333521 124.177538,63.2879989 124.063112,63.2039338 C123.7664,62.985951 123.702578,62.5687089 123.920561,62.2719974 C124.640181,61.2924334 125,60.3128834 125,59.3333333 L125,56.6666667 C125,56.2061195 125.077833,55.7637511 125.221063,55.351998 L125.869779,56.0004079 C125.823972,56.2161179 125.8,56.4391102 125.8,56.6666667 L125.8,59.3333333 C125.8,60.4202184 125.432328,61.4903409 124.716147,62.5333511 L132.402117,62.5333333 L133.202117,63.3333333 L129.666667,63.3333333 L129.666667,63.4666667 C129.666667,63.8348565 129.36819,64.1333334 129,64.1333334 C128.63181,64.1333334 128.333333,63.8348565 128.333333,63.4666667 L128.333333,63.3333333 L124.457804,63.3333521 Z M129,52.1333333 C128.705448,52.1333333 128.466667,52.3721148 128.466667,52.6666667 C128.466667,52.6971602 128.469145,52.7269977 128.474008,52.756118 L128.585134,53.4216727 L127.947847,53.6434317 C127.436439,53.8213879 126.989828,54.1219886 126.638272,54.5067654 L132.26729,60.1371916 C132.222527,59.8703713 132.2,59.602366 132.2,59.3333333 L132.2,56.6666667 C132.2,55.2939073 131.327592,54.0872502 130.052153,53.6434317 L129.414866,53.4216727 L129.525992,52.756118 C129.530855,52.7269977 129.533333,52.6971602 129.533333,52.6666667 C129.533333,52.3721148 129.294552,52.1333333 129,52.1333333 Z" id="Combined-Shape" fill-opacity="0.9" fill="#000000"></path>
    </g>
</svg>