<?xml version="1.0" encoding="UTF-8"?>
<svg width="24px" height="24px" viewBox="0 0 24 24" version="1.1" xmlns="http://www.w3.org/2000/svg" xmlns:xlink="http://www.w3.org/1999/xlink">
    <!-- Generator: Sketch 63.1 (92452) - https://sketch.com -->
    <title>icon_filled_download</title>
    <desc>Created with Sketch.</desc>
    <g id="icon_filled_download" stroke="none" stroke-width="1" fill="none" fill-rule="evenodd">
        <g id="编组">
            <rect id="矩形" x="0" y="0" width="24" height="24"></rect>
            <path d="M10.9992525,14.071 L8.46446609,11.5355339 L7.05025253,12.9497475 L11.6464466,17.5459415 C11.820013,17.7195079 12.0894374,17.738793 12.2843055,17.603797 L12.3535534,17.5459415 L16.9497475,12.9497475 L15.5355339,11.5355339 L12.9992525,14.071 L13,6 L19,6 C19.5522847,6 20,6.44771525 20,7 L20,20.5 C20,21.0522847 19.5522847,21.5 19,21.5 L5,21.5 C4.44771525,21.5 4,21.0522847 4,20.5 L4,7 C4,6.44771525 4.44771525,6 5,6 L11,6 L11,2 L13,2 L13,6.25 L11,6.25 L10.9992525,14.071 Z" id="路径" fill="#000000"></path>
        </g>
    </g>
</svg>