<?xml version="1.0" encoding="UTF-8"?>
<svg width="24px" height="24px" viewBox="0 0 24 24" version="1.1" xmlns="http://www.w3.org/2000/svg" xmlns:xlink="http://www.w3.org/1999/xlink">
    <title>icons_outlined_delete</title>
    <defs>
        <filter id="filter-1">
            <feColorMatrix in="SourceGraphic" type="matrix" values="0 0 0 0 0.000000 0 0 0 0 0.000000 0 0 0 0 0.000000 0 0 0 0.900000 0"></feColorMatrix>
        </filter>
    </defs>
    <g id="icons_outlined_delete" stroke="none" stroke-width="1" fill="none" fill-rule="evenodd">
        <g filter="url(#filter-1)" id="编组-2">
            <g>
                <rect id="矩形" x="0" y="0" width="24" height="24"></rect>
                <path d="M1.05614411,13.0593445 C0.471084293,12.4742847 0.478150676,11.5186489 1.05614412,10.9406555 L7.78671434,4.21008525 C8.17888359,3.817916 8.9457198,3.5 9.50428359,3.5 L19.9988972,3.5 C21.9307356,3.5 23.4968,5.06884766 23.4968,7.00179827 L23.4968,16.9982017 C23.4968,18.9321915 21.9198879,20.5 19.9988972,20.5 L9.50428353,20.5 C8.94786548,20.5 8.17396885,20.1771693 7.78671428,19.7899147 L1.05614411,13.0593445 Z M19.994039,5 C21.1001328,5 21.996799,5.89706012 21.996799,7.00585864 L21.996799,16.9941412 C21.996799,18.1019464 21.1032564,18.9999999 19.994039,18.9999999 L9.49054084,19 C9.21785521,19 8.83744288,18.840643 8.64004516,18.6432453 L2.70651912,12.7097195 C2.31455186,12.3177522 2.31576468,11.6810349 2.7065191,11.2902805 L8.64004496,5.35675466 C8.83707511,5.1597245 9.22243895,5 9.49054063,5 L19.994039,5 Z M18.3832644,8.01557112 C18.0881188,7.7967961 17.6713573,7.82447515 17.4029342,8.09289831 L17.4029342,8.09289831 L14.5779951,10.916 L11.7546706,8.09289831 C11.4880244,7.82625206 11.0681215,7.79880678 10.7739242,8.01607543 L10.6897151,8.08860295 L10.6166833,8.17322821 C10.3979082,8.46837385 10.4255873,8.88513532 10.6940104,9.15355848 L10.6940104,9.15355848 L13.5179951,11.977 L10.6940104,14.801822 C10.4273642,15.0684683 10.3999189,15.4883712 10.6171876,15.7825685 L10.6897151,15.8667775 L10.7743404,15.9398094 C11.069486,16.1585844 11.4862475,16.1309054 11.7546706,15.8624822 L11.7546706,15.8624822 L14.5779951,13.038 L17.4029342,15.8624822 C17.6695804,16.1291284 18.0894833,16.1565737 18.3836806,15.9393051 L18.4678897,15.8667775 L18.5409215,15.7821523 C18.7596965,15.4870067 18.7320175,15.0702452 18.4635943,14.801822 L18.4635943,14.801822 L15.6389951,11.977 L18.4635943,9.15355848 C18.7302406,8.88691223 18.7576859,8.46700932 18.5404172,8.17281201 L18.4678897,8.08860295 Z" id="Back" fill="#FFFFFF"></path>
            </g>
        </g>
    </g>
</svg>