<?xml version="1.0" encoding="UTF-8"?>
<svg width="24px" height="24px" viewBox="0 0 24 24" version="1.1" xmlns="http://www.w3.org/2000/svg" xmlns:xlink="http://www.w3.org/1999/xlink">
    <!-- Generator: Sketch 62 (91390) - https://sketch.com -->
    <title>icons_outline_miniprogram_order</title>
    <desc>Created with Sketch.</desc>
    <g id="icons_outline_miniprogram_order" stroke="none" stroke-width="1" fill="none" fill-rule="evenodd">
        <g id="编组备份">
            <rect id="矩形备份-3" fill-opacity="0" fill="#D8D8D8" x="0" y="0" width="24" height="24"></rect>
            <path d="M18.7669173,1.71428571 C19.8161033,1.71428571 20.5091593,2.34750375 20.5674417,3.36237243 L20.5714286,3.50310559 L20.5705714,8.12328571 L19.3705714,9.32328571 L19.3714286,3.50310559 C19.3714286,3.1087394 19.2320091,2.94071752 18.8637904,2.91720153 L18.7669173,2.91428571 L5.23308271,2.91428571 C4.82611008,2.91428571 4.655385,3.05197173 4.63152773,3.40918219 L4.62857143,3.50310559 L4.62857143,20.4968944 C4.62857143,20.8912606 4.76799092,21.0592825 5.13620965,21.0827985 L5.23308271,21.0857143 L18.7669173,21.0857143 C19.1738899,21.0857143 19.344615,20.9480283 19.3684723,20.5908178 L19.3714286,20.4968944 L19.3705714,15.3852857 L20.5705714,14.1852857 L20.5714286,20.4968944 C20.5714286,21.5459388 19.9239893,22.2247675 18.9077545,22.281813 L18.7669173,22.2857143 L5.23308271,22.2857143 C4.18389675,22.2857143 3.49084072,21.6524962 3.43255831,20.6376276 L3.42857143,20.4968944 L3.42857143,3.50310559 C3.42857143,2.45406117 4.07601068,1.7752325 5.09224548,1.71818699 L5.23308271,1.71428571 L18.7669173,1.71428571 Z" id="形状结合备份" fill="#07C160" fill-rule="nonzero"></path>
            <rect id="矩形备份-6" fill="#07C160" x="6.85714286" y="6" width="10.2857143" height="1.2"></rect>
            <rect id="矩形备份-7" fill="#07C160" x="6.85714286" y="10.2857143" width="8.57142857" height="1.2"></rect>
            <polyline id="路径备份-2" stroke="#07C160" stroke-width="1.2" fill-opacity="0" fill="#FFFFFF" transform="translate(16.285714, 12.440755) rotate(-45.000000) translate(-16.285714, -12.440755) " points="21.4285714 14.5836117 11.1428571 14.5836117 11.1428571 10.2978974"></polyline>
            <polygon id="路径备份-2" fill="#07C160" fill-rule="nonzero" transform="translate(16.328572, 12.826469) rotate(-45.000000) translate(-16.328572, -12.826469) " points="12.0857146 10.3836115 12.0857146 14.0691426 21.7714289 14.0693258 21.7714289 15.2693258 10.8857146 15.2693258 10.8857146 10.3836115"></polygon>
        </g>
    </g>
</svg>