<?xml version="1.0" encoding="UTF-8"?>
<svg width="24px" height="24px" viewBox="0 0 24 24" version="1.1" xmlns="http://www.w3.org/2000/svg" xmlns:xlink="http://www.w3.org/1999/xlink">
    <title>icons_filled_star_web</title>
    <g id="icons_filled_star_web" stroke="none" stroke-width="1" fill="none" fill-rule="evenodd">
        <path d="M11.9357706,4.07014559 C12.1279557,4.09967029 12.1598812,4.1315958 12.1793472,4.17103832 L12.1793472,4.17103832 L14.7015665,9.28161274 L20.3414202,10.1011315 C20.3960747,10.1090732 20.442336,10.1384162 20.4729483,10.1794375 C20.5035605,10.2204587 20.5185237,10.273158 20.5105819,10.3278125 C20.504257,10.3713399 20.4837596,10.4115684 20.4522629,10.4422701 L20.4522629,10.4422701 L16.3712264,14.4202975 L17.3346284,20.0373624 C17.3439645,20.091796 17.3303532,20.1448607 17.3007994,20.1866509 C17.2712456,20.2284411 17.2257494,20.258957 17.1713158,20.2682931 C17.1279642,20.2757284 17.0833706,20.2686655 17.0444385,20.2481977 L17.0444385,20.2481977 L12,17.5961794 L6.95556148,20.2481977 C6.90667702,20.2738978 6.85200343,20.2773505 6.80312594,20.2621571 C6.75424845,20.2469636 6.71116705,20.2131241 6.68546697,20.1642396 C6.66499915,20.1253075 6.65793622,20.0807139 6.66537159,20.0373624 L6.66537159,20.0373624 L7.62877362,14.4202975 L3.54773712,10.4422701 C3.50818877,10.40372 3.48800997,10.3527893 3.4873558,10.301609 C3.48670162,10.2504287 3.50557207,10.1989989 3.54412219,10.1594505 C3.57482391,10.1279538 3.61505239,10.1074564 3.6585798,10.1011315 L3.6585798,10.1011315 L9.29843352,9.28161274 L11.8206528,4.17103832 C11.845095,4.12151295 11.8872974,4.08658332 11.9357706,4.07014559 Z" id="Path" stroke="#FA9D3B" stroke-width="1.6"></path>
    </g>
</svg>