<?xml version="1.0" encoding="UTF-8"?>
<svg width="36px" height="20px" viewBox="0 0 36 20" version="1.1" xmlns="http://www.w3.org/2000/svg" xmlns:xlink="http://www.w3.org/1999/xlink">
    <title>icon_official</title>
    <g id="icon_official" stroke="none" stroke-width="1" fill="none" fill-rule="evenodd">
        <g fill="#FA9D3B">
            <path d="M2.5638852,-1.03584031e-16 L33.4361148,1.03584031e-16 C34.3276335,-6.01853049e-17 34.6509198,0.0928256111 34.9768457,0.267132704 C35.3027716,0.441439796 35.5585602,0.697228371 35.7328673,1.0231543 C35.9071744,1.34908022 36,1.67236646 36,2.5638852 L36,17.4361148 C36,18.3276335 35.9071744,18.6509198 35.7328673,18.9768457 C35.5585602,19.3027716 35.3027716,19.5585602 34.9768457,19.7328673 C34.6509198,19.9071744 34.3276335,20 33.4361148,20 L2.5638852,20 C1.67236646,20 1.34908022,19.9071744 1.0231543,19.7328673 C0.697228371,19.5585602 0.441439796,19.3027716 0.267132704,18.9768457 C0.0928256111,18.6509198 4.01235366e-17,18.3276335 -6.90560205e-17,17.4361148 L6.90560205e-17,2.5638852 C-4.01235366e-17,1.67236646 0.0928256111,1.34908022 0.267132704,1.0231543 C0.441439796,0.697228371 0.697228371,0.441439796 1.0231543,0.267132704 C1.34908022,0.0928256111 1.67236646,6.01853049e-17 2.5638852,-1.03584031e-16 Z" id="bg" fill-opacity="0.1"></path>
            <path d="M17.008,8.128 L17.008,5.5 L12.436,5.5 C12.268,5.068 12.1,4.696 11.932,4.36 L10.696,4.552 C10.9,4.84 11.092,5.164 11.26,5.5 L6.76,5.5 L6.76,8.116 L7.912,8.116 L7.912,6.604 L15.856,6.604 L15.856,8.128 L17.008,8.128 Z M9.544,15.58 L9.544,15.136 L14.728,15.136 L14.728,15.568 L15.856,15.568 L15.856,11.788 L9.544,11.788 L9.544,10.732 L15.304,10.732 L15.304,7.552 L8.416,7.552 L8.416,15.58 L9.544,15.58 Z M14.188,9.748 L9.544,9.748 L9.544,8.536 L14.188,8.536 L14.188,9.748 Z M14.728,14.152 L9.544,14.152 L9.544,12.76 L14.728,12.76 L14.728,14.152 Z M19.42,15.628 C20.476,14.764 21.304,13.816 21.892,12.784 C22.324,12.016 22.612,11.164 22.78,10.24 L26.704,10.24 C26.68,11.896 26.644,12.94 26.572,13.348 C26.428,14.068 26.104,14.428 25.6,14.452 C25.168,14.452 24.628,14.428 23.992,14.404 L24.328,15.436 C24.856,15.472 25.324,15.496 25.708,15.496 C26.656,15.472 27.256,14.98 27.52,14.02 C27.712,13.36 27.82,11.74 27.856,9.16 L22.912,9.16 L23.008,7.276 L29.248,7.276 L29.248,6.172 L24.796,6.172 C24.532,5.5 24.232,4.924 23.908,4.432 L22.828,4.828 C23.14,5.26 23.404,5.704 23.632,6.172 L18.58,6.172 L18.58,7.276 L21.88,7.276 C21.856,7.636 21.832,8.152 21.808,8.812 C21.748,9.94 21.52,10.96 21.112,11.872 C20.704,12.784 19.864,13.768 18.592,14.836 L19.42,15.628 Z" id="官方" fill-rule="nonzero"></path>
        </g>
    </g>
</svg>