<?xml version="1.0" encoding="UTF-8"?>
<svg width="24px" height="24px" viewBox="0 0 24 24" version="1.1" xmlns="http://www.w3.org/2000/svg" xmlns:xlink="http://www.w3.org/1999/xlink">
    <!-- Generator: Sketch 61 (89581) - https://sketch.com -->
    <title>icons_filled_pay_receive_money</title>
    <desc>Created with Sketch.</desc>
    <g id="icons_filled_pay_receive_money" stroke="none" stroke-width="1" fill="none" fill-rule="evenodd">
        <path d="M12,6.5 C15.0860745,6.5 17.7880238,8.69937783 19.2771985,11.350909 C16.2692675,12.602366 11.4016757,14.6305533 11.4016757,14.6305533 C11.3000267,14.6654921 11.1904571,14.6853156 11.076135,14.6853156 C10.8839261,14.6853156 10.7046543,14.6312967 10.5554811,14.5396131 L10.5554811,14.5396131 L8.50798075,13.1715462 C8.45464805,13.1343772 8.38943431,13.1123236 8.31761998,13.1123236 C8.14230854,13.1123236 8,13.2456364 8,13.4101712 C8,13.4530394 8.01161702,13.4971466 8.03036267,13.5360502 L8.03036267,13.5360502 L9.76578756,17.1097255 L9.80723921,17.1949664 C9.91601679,17.3768467 10.1232751,17.5 10.3616881,17.5 C10.4643931,17.5 10.5612896,17.4762118 10.6473612,17.4358215 L10.6473612,17.4358215 L10.7170634,17.3979091 C10.7170634,17.3979091 16.0069086,14.5344123 19.8219733,12.4692431 C20.2583268,13.5199376 20.5,14.602475 20.5,15.6176471 C20.5,19.646077 16.6944204,22 12,22 C7.30557963,22 3.5,19.646077 3.5,15.6176471 C3.5,11.5892171 7.30557963,6.5 12,6.5 Z M11.0970575,2.44826945 C11.3519838,2.56925457 11.5049705,2.64069451 11.6659695,2.71299186 C12.4312057,3.05662464 12.967296,3.21796875 13.4244792,3.21796875 C13.9276908,3.21796875 14.3544903,3.16268394 14.9006467,3.04768382 C16.5364981,2.70323468 16.9348863,2.73432503 17.5568841,3.71902779 C18.126929,4.62148257 17.7201885,5.66086631 16.479285,6.88167506 C15.1203658,6.01780583 13.5851164,5.5 12,5.5 C10.5127884,5.5 9.06947396,5.95581662 7.77562024,6.72499701 C6.10383441,4.80526419 5.72687038,3.25569441 6.88913603,2.14846666 C7.91389081,1.17223811 8.82153886,1.36833412 11.0970575,2.44826945 Z" id="形状结合" fill="#000000" fill-rule="nonzero"></path>
    </g>
</svg>