<?xml version="1.0" encoding="UTF-8"?>
<svg width="24px" height="24px" viewBox="0 0 24 24" version="1.1" xmlns="http://www.w3.org/2000/svg" xmlns:xlink="http://www.w3.org/1999/xlink">
    <title>pause备份 2</title>
    <g id="pause备份-2" stroke="none" stroke-width="1" fill="none" fill-rule="evenodd" fill-opacity="0.9">
        <g id="common_icons_miniprogram" fill="#000000">
            <path d="M13.1715729,2 L14.020101,2.84852817 L12.8304543,4.0378041 C17.4117281,4.45693685 21,8.30942551 21,13 C21,17.9705627 16.9705627,22 12,22 C7.02943725,22 3,17.9705627 3,13 C3,10.5147186 4.00735931,8.26471863 5.63603897,6.63603897 L5.63603897,6.63603897 L6.48456711,7.48456711 C5.03044532,8.93868889 4.2,10.9020822 4.2,13 C4.2,17.307821 7.69217895,20.8 12,20.8 C16.307821,20.8 19.8,17.307821 19.8,13 C19.8,8.83462801 16.534958,5.43184742 12.4245748,5.21135892 L12.4245748,5.21135892 L14.020101,6.80832608 L13.1715729,7.65685425 L10.6966991,5.18198052 L10.6388437,5.11273263 C10.5038476,4.91786449 10.5231328,4.64844009 10.6966991,4.47487373 L10.6966991,4.47487373 L13.1715729,2 Z M16.0219727,10 L16.0219727,10.9272461 L13.0336914,10.9272461 L12.8710938,12.7817383 L12.8974609,12.7817383 C13.1611328,12.3730469 13.6796875,12.1181641 14.3081055,12.1181641 C15.5209961,12.1181641 16.3955078,13.0102539 16.3955078,14.2451172 C16.3955078,15.5634766 15.4243164,16.46875 14.0180664,16.46875 C12.7084961,16.46875 11.7592773,15.6821289 11.7109375,14.5571289 L11.7109375,14.5571289 L12.7744141,14.5571289 C12.8447266,15.1459961 13.3588867,15.550293 14.0268555,15.550293 C14.7827148,15.550293 15.3012695,15.0229492 15.3012695,14.2758789 C15.3012695,13.515625 14.7783203,12.9794922 14.0356445,12.9794922 C13.5170898,12.9794922 13.0688477,13.2167969 12.8359375,13.6123047 L12.8359375,13.6123047 L11.8076172,13.6123047 L12.137207,10 L16.0219727,10 Z M10.1816406,10 L10.1816406,16.3413086 L9.06982422,16.3413086 L9.06982422,11.0810547 L9.04345703,11.0810547 L7.40429688,12.2324219 L7.40429688,11.1645508 L9.06103516,10 L10.1816406,10 Z" id="形状结合"></path>
        </g>
    </g>
</svg>