<?xml version="1.0" encoding="UTF-8"?>
<svg width="24px" height="24px" viewBox="0 0 24 24" version="1.1" xmlns="http://www.w3.org/2000/svg" xmlns:xlink="http://www.w3.org/1999/xlink">
    <title>icon_小商店</title>
    <g id="icon_小商店" stroke="none" stroke-width="1" fill="none" fill-rule="evenodd">
        <g id="编组-3">
            <rect id="矩形" x="0" y="0" width="24" height="24"></rect>
            <g id="编组-2" transform="translate(4.000078, 2.000000)" fill="#FF6146">
                <path d="M7.47175815,0 C9.15094419,0 10.5878379,1.45696909 10.5878379,3.07001028 L10.5878379,3.07001028 L10.5878379,4.99986115 L13.1030998,4.99986115 C13.6339098,4.99986115 14.0731622,5.40898109 14.1062122,5.93596045 L14.1062122,5.93596045 L14.2831861,8.69193813 L14.1465198,8.71404371 C13.7856495,8.76691938 13.4389594,8.84989864 13.0901478,8.92998972 L13.0901478,8.92998972 L12.9151837,6.19989447 L2.02732767,6.19989447 L1.21816076,18.7999667 L4.90692124,18.7999667 C5.23462993,14.3327501 9.20710687,10.6768863 14.3585535,9.89930295 C15.7333668,9.72523536 15.9475219,10.9792552 15.9893927,11.418923 C15.9937473,11.4564692 15.9972086,11.4942376 15.9991068,11.5323391 C15.9991068,11.5392263 16,11.5472243 16,11.5542226 C10.9177797,11.7101836 6.60252062,14.7476464 5.47725718,18.7999667 L5.47725718,18.7999667 L13.7233458,18.7999667 L13.3615822,13.1560443 C13.7514829,13.052959 14.14451,12.9589825 14.5536155,12.8959982 L14.5536155,12.8959982 L14.9406133,18.9360438 C14.9757847,19.4860174 14.5556253,19.9630092 14.0028193,19.9981116 C13.9805999,20 13.9596086,20 13.9375009,20 L13.9375009,20 L1.00501054,20 C0.448184901,20 0,19.5520009 0,19.0000278 L0,19.0000278 L0.000893243451,18.9360438 L0.836299181,5.93596045 C0.869460844,5.40898109 1.30860166,4.99986115 1.83941158,4.99986115 L1.83941158,4.99986115 L4.35579003,4.99986115 L4.35579003,3.07001028 C4.35579003,1.45696909 5.79257212,0 7.47175815,0 Z M17.433743,5.3167486 C17.727486,5.3167486 17.9627933,5.53607821 17.9808939,5.82680447 C17.9949721,6.10334078 18.1287151,7.42915084 19.5088268,7.80635754 L19.5088268,7.80635754 L19.5410056,7.81630168 C19.7863687,7.88881564 19.9483799,8.09194413 19.9483799,8.3342905 C19.9483799,8.57473743 19.7863687,8.77797765 19.5379888,8.85239106 L19.5379888,8.85239106 L19.5088268,8.86144134 C18.1287151,9.23864804 17.9949721,10.5642346 17.9818994,10.8268045 C17.9627933,11.1316089 17.727486,11.3518324 17.433743,11.3518324 C17.1401117,11.3518324 16.904581,11.1316089 16.8865922,10.8398771 C16.8735196,10.5642346 16.7397765,9.23864804 15.3586592,8.86144134 L15.3586592,8.86144134 L15.3365363,8.85440223 C15.0811173,8.77797765 14.9202235,8.57473743 14.9202235,8.3342905 C14.9202235,8.09194413 15.0811173,7.88881564 15.3315084,7.8142905 L15.3315084,7.8142905 L15.3668156,7.80423464 C16.7397765,7.42915084 16.8735196,6.10334078 16.8854749,5.84088268 C16.904581,5.53607821 17.1401117,5.3167486 17.433743,5.3167486 Z M7.47175815,1.20003333 C6.46395623,1.20003333 5.56200366,2.11469355 5.56200366,3.07001028 L5.56200366,3.07001028 L5.56200366,4.99986115 L9.38162431,4.99986115 L9.38162431,3.07001028 C9.38162431,2.11469355 8.47956008,1.20003333 7.47175815,1.20003333 Z" id="形状结合"></path>
            </g>
        </g>
    </g>
</svg>