<?xml version="1.0" encoding="UTF-8"?>
<svg width="24px" height="24px" viewBox="0 0 24 24" version="1.1" xmlns="http://www.w3.org/2000/svg" xmlns:xlink="http://www.w3.org/1999/xlink">
    <title>☀ 图标/面型/icons_filled_red envelope</title>
    <g id="☀-图标/面型/icons_filled_red-envelope" stroke="none" stroke-width="1" fill="none" fill-rule="evenodd">
        <g id="编组">
            <rect id="矩形" fill="#FFFFFF" opacity="0" x="0" y="0" width="24" height="24"></rect>
            <path d="M20,13.0736 L17.8634572,13.0736 C18.0147298,12.7774571 18.1,12.4425055 18.1,12.0875308 C18.1,10.8774986 17.1084524,9.9 15.889577,9.9 C15.2858828,9.9 14.7189401,10.1417113 14.3055834,10.5618302 C13.0558323,11.7940285 12.4941504,12.3478215 11.9999564,12.8350849 L9.64451403,10.5127731 C9.22705621,10.1187162 8.68517031,9.9 8.1106672,9.9 C6.89177286,9.9 5.9,10.8775159 5.9,12.0875308 C5.9,12.4425034 5.98529108,12.7774557 6.13659389,13.0736 L4,13.0736 L4,4.80892147 C4,4.25523511 4.39220614,3.60414924 4.89378195,3.35883544 C4.89378195,3.35883544 4.68924851,3.44262293 5.06990356,3.27979059 C6.93546282,2.48176258 9.35552109,2 12,2 C14.6410784,2 17.058313,2.48052439 18.922897,3.27671365 C19.3062437,3.4404051 19.1002443,3.3561916 19.1002443,3.3561916 C19.5971657,3.60482579 20,4.25542382 20,4.80892147 L20,13.0736 Z M20,14.2736 L20,20.9694622 C20,21.5231485 19.5553691,21.972 18.9991283,21.972 L5.00087166,21.972 C4.4481055,21.972 4,21.5229598 4,20.9694622 L4,14.2736 L8.01669493,14.2736 C8.04785863,14.2748911 8.07918711,14.2755431 8.1106672,14.2755431 L10.5388192,14.2755431 C9.69229632,15.1028269 8.38998982,16.1870765 6.63644705,17.5226854 L7.36355295,18.4773146 C9.18781542,17.0878411 10.5415472,15.9582808 11.4295641,15.0826983 L11.9999793,14.5202702 C12.1690322,14.686946 12.3588689,14.8741126 12.5828156,15.0949093 C13.4682036,15.9678439 14.8178729,17.0933797 16.6366474,18.4774672 L17.3633526,17.5225328 C15.6068052,16.1858002 14.3045081,15.1015694 13.4610845,14.2755431 L15.889577,14.2755431 C15.9210568,14.2755431 15.952385,14.2748911 15.9835482,14.2736 L20,14.2736 Z M15.9535479,13.0736 L13.4671941,13.0736 L15.1545379,11.409883 C15.3506134,11.2106982 15.61026,11.1 15.889577,11.1 C16.4495135,11.1 16.9,11.5441036 16.9,12.0875308 C16.9,12.6105209 16.4834723,13.0413046 15.9535479,13.0736 L15.9535479,13.0736 Z M8.04669246,13.0736 C7.51668748,13.0413019 7.1,12.610451 7.1,12.0875308 C7.1,11.5441781 7.55065636,11.1 8.1106672,11.1 C8.37660784,11.1 8.62458572,11.2000889 8.81151705,11.3764523 C9.60962141,12.1634016 10.1309009,12.6773952 10.5327275,13.0736 L8.04669246,13.0736 L8.04669246,13.0736 Z" id="形状" fill="#FA5151"></path>
        </g>
    </g>
</svg>