<?xml version="1.0" encoding="UTF-8"?>
<svg width="24px" height="24px" viewBox="0 0 24 24" version="1.1" xmlns="http://www.w3.org/2000/svg" xmlns:xlink="http://www.w3.org/1999/xlink">
    <title>编组 56备份</title>
    <g id="页面-1" stroke="none" stroke-width="1" fill="none" fill-rule="evenodd">
        <g id="编组-56备份">
            <rect id="矩形" x="0" y="0" width="24" height="24"></rect>
            <path d="M5.999,17.641 L5.999,19 L4,19 L4,17.641791 L5.999,17.641 Z M20,17.641791 L20,19 L7.599,19 L7.599,17.641 L20,17.641791 Z M5.999,11.82 L5.999,13.179 L4,13.1791045 L4,11.8208955 L5.999,11.82 Z M20,11.8208955 L20,13.1791045 L7.599,13.179 L7.599,11.82 L20,11.8208955 Z M20,6 L20,7.35820896 L7.599,7.358 L7.6,6 L20,6 Z M5.999,7.358 L4,7.35820896 L4,6 L6,6 L5.999,7.358 Z" id="形状结合备份" fill="#000000" opacity="0.899504906"></path>
        </g>
    </g>
</svg>