<?xml version="1.0" encoding="UTF-8"?>
<svg width="16px" height="16px" viewBox="0 0 16 16" version="1.1" xmlns="http://www.w3.org/2000/svg" xmlns:xlink="http://www.w3.org/1999/xlink">
    <title>0.图标/面型/icons_filled_float_window_on</title>
    <g id="0.图标/面型/icons_filled_float_window_on" stroke="none" stroke-width="1" fill="none" fill-rule="evenodd" opacity="0.900000036">
        <g fill="#000000" id="icon22" stroke="#000000">
            <path d="M8,13.7 C11.1480231,13.7 13.7,11.1480231 13.7,8 C13.7,4.85197693 11.1480231,2.3 8,2.3 C4.85197693,2.3 2.3,4.85197693 2.3,8 C2.3,11.1480231 4.85197693,13.7 8,13.7 Z M8,14.6666667 C4.31810167,14.6666667 1.33333333,11.6818983 1.33333333,8 C1.33333333,4.31810167 4.31810167,1.33333333 8,1.33333333 C11.6818983,1.33333333 14.6666667,4.31810167 14.6666667,8 C14.6666667,11.6818983 11.6818983,14.6666667 8,14.6666667 Z" id="Combined-Shape" stroke-width="0.1"></path>
            <g id="▫️-支付图标/业务图标/个人转账---filled备份" transform="translate(4.000000, 4.000000)" stroke-width="0.2">
                <g id="Group" transform="translate(0.250000, 0.666667)">
                    <path d="M7.22444202,3.95833333 C7.33950134,3.95833333 7.43277535,4.05160734 7.43277535,4.16666667 C7.43277535,4.2319577 7.40216647,4.2934725 7.35008549,4.33284878 L4.80025654,6.26066978 C4.72683266,6.31618256 4.62230885,6.30166275 4.56679607,6.22823887 C4.53431167,6.18527344 4.52459414,6.12925779 4.54070876,6.07786145 L4.94397769,4.79166667 L0.208333333,4.79166667 L0.208333333,3.95833333 L7.22444202,3.95833333 Z M2.93274868,0.438427795 C2.96523308,0.481393227 2.97495061,0.537408877 2.95883598,0.588805215 L2.55556705,1.875 L7.29166667,1.875 L7.29166667,2.70833333 L0.275102728,2.70833333 C0.160043405,2.70833333 0.0667693944,2.61505932 0.0667693944,2.5 C0.0667693944,2.43470896 0.0973782822,2.37319417 0.149459253,2.33381789 L2.69928821,0.405996883 C2.77271208,0.350484103 2.8772359,0.365003917 2.93274868,0.438427795 Z" id="图标颜色"></path>
                </g>
            </g>
        </g>
    </g>
</svg>