<?xml version="1.0" encoding="UTF-8"?>
<svg width="24px" height="24px" viewBox="0 0 24 24" version="1.1" xmlns="http://www.w3.org/2000/svg" xmlns:xlink="http://www.w3.org/1999/xlink">
    <!-- Generator: Sketch 62 (91390) - https://sketch.com -->
    <title>icons_outline_miniprogram_live</title>
    <desc>Created with Sketch.</desc>
    <g id="icons_outline_miniprogram_live" stroke="none" stroke-width="1" fill="none" fill-rule="evenodd">
        <g id="编组-3" fill="#6467F0">
            <g id="3.Icons/Outlined/video-call">
                <g id="图标颜色" transform="translate(2.000000, 5.000000)">
                    <path d="M1.2,1.7 L1.2,12.3 L13.8,12.3 L13.8,1.7 L1.2,1.7 Z M1,0.5 L14,0.5 C14.5522847,0.5 15,0.94771525 15,1.5 L15,12.5 C15,13.0522847 14.5522847,13.5 14,13.5 L1,13.5 C0.44771525,13.5 0,13.0522847 0,12.5 L0,1.5 C0,0.94771525 0.44771525,0.5 1,0.5 Z M17.2,8.42325018 L19.8,10.5032502 L19.8,3.49674982 L17.2,5.57674982 L17.2,8.42325018 Z M16,5 L19.375305,2.29975604 C19.8065669,1.95474649 20.4358593,2.02466786 20.7808688,2.4559298 C20.9227192,2.63324285 21,2.85355335 21,3.08062485 L21,10.9193752 C21,11.4716599 20.5522847,11.9193752 20,11.9193752 C19.7729285,11.9193752 19.552618,11.8420944 19.375305,11.700244 L16,9 L16,5 Z"></path>
                </g>
            </g>
            <circle id="椭圆形" cx="5.9" cy="9.4" r="1.1"></circle>
        </g>
    </g>
</svg>