<?xml version="1.0" encoding="UTF-8"?>
<svg width="32px" height="32px" viewBox="0 0 32 32" version="1.1" xmlns="http://www.w3.org/2000/svg" xmlns:xlink="http://www.w3.org/1999/xlink">
    <title>icons_outlined_privacy</title>
    <g id="icons_outlined_privacy" stroke="none" stroke-width="1" fill="none" fill-rule="evenodd">
        <path d="M16,5.99358974 C22.1081081,5.99358974 26.3675503,10.72465 28.6322237,14.8761721 L28.7631379,15.1196708 L29.0111352,15.6016968 L29.1282051,15.8397436 L29.0111352,16.0777904 L28.7631379,16.5598164 L28.5650406,16.9255808 L28.3565972,17.2940829 L28.0626175,17.7882767 C25.6880305,21.6678613 21.6290408,25.6858974 16,25.6858974 C10.490726,25.6858974 6.48540322,21.8370226 4.09123835,18.0360577 L3.93738251,17.7882767 L3.64340278,17.2940829 L3.43495944,16.9255808 L3.23686214,16.5598164 L2.9888648,16.0777904 L2.87179487,15.8397436 L2.9888648,15.6016968 L3.23686214,15.1196708 C5.46612347,10.9120007 9.77212509,5.99358974 16,5.99358974 Z M16,7.66025641 C11.4423359,7.66025641 7.5043115,10.8171294 4.89474375,15.5565784 L4.741,15.839 L4.95440283,16.2285867 L5.07579091,16.442002 L5.35891049,16.9181985 C8.02892777,21.2804552 11.7344275,24.0192308 16,24.0192308 C20.1589332,24.0192308 23.7854472,21.4156822 26.4288383,17.2589872 L26.6302294,16.9361957 L26.9135933,16.4601061 L27.0421078,16.2346096 L27.258,15.84 L27.1139364,15.573203 C24.5551941,10.925222 20.7359835,7.80457667 16.3097814,7.66512997 L16,7.66025641 Z" id="Oval" fill="#000000" fill-rule="nonzero"></path>
        <path d="M16,10.6303419 C13.1229269,10.6303419 10.7905983,12.9626705 10.7905983,15.8397436 C10.7905983,18.7168167 13.1229269,21.0491453 16,21.0491453 C18.8770731,21.0491453 21.2094017,18.7168167 21.2094017,15.8397436 C21.2094017,12.9626705 18.8770731,10.6303419 16,10.6303419 Z M16,12.2970085 C17.9565985,12.2970085 19.542735,13.8831451 19.542735,15.8397436 C19.542735,17.7963421 17.9565985,19.3824786 16,19.3824786 C14.0434015,19.3824786 12.457265,17.7963421 12.457265,15.8397436 C12.457265,13.8831451 14.0434015,12.2970085 16,12.2970085 Z" id="Oval" fill="#000000" fill-rule="nonzero"></path>
    </g>
</svg>