<?xml version="1.0" encoding="UTF-8"?>
<svg width="24px" height="24px" viewBox="0 0 24 24" version="1.1" xmlns="http://www.w3.org/2000/svg" xmlns:xlink="http://www.w3.org/1999/xlink">
    <title>icons_filled_pause</title>
    <g id="icons_filled_pause" stroke="none" stroke-width="1" fill="none" fill-rule="evenodd" fill-opacity="0.9">
        <g id="icon21" fill="#000000">
            <path d="M12,2 C17.5228475,2 22,6.4771525 22,12 C22,17.5228475 17.5228475,22 12,22 C6.4771525,22 2,17.5228475 2,12 C2,6.4771525 6.4771525,2 12,2 Z M10.25,8.25 L9.25,8.25 C8.97385763,8.25 8.75,8.47385763 8.75,8.75 L8.75,8.75 L8.75,15.25 C8.75,15.5261424 8.97385763,15.75 9.25,15.75 L9.25,15.75 L10.25,15.75 C10.5261424,15.75 10.75,15.5261424 10.75,15.25 L10.75,15.25 L10.75,8.75 C10.75,8.47385763 10.5261424,8.25 10.25,8.25 L10.25,8.25 Z M14.75,8.25 L13.75,8.25 C13.4738576,8.25 13.25,8.47385763 13.25,8.75 L13.25,8.75 L13.25,15.25 C13.25,15.5261424 13.4738576,15.75 13.75,15.75 L13.75,15.75 L14.75,15.75 C15.0261424,15.75 15.25,15.5261424 15.25,15.25 L15.25,15.25 L15.25,8.75 C15.25,8.47385763 15.0261424,8.25 14.75,8.25 L14.75,8.25 Z" id="形状结合"></path>
        </g>
    </g>
</svg>