<?xml version="1.0" encoding="UTF-8"?>
<svg width="24px" height="24px" viewBox="0 0 24 24" version="1.1" xmlns="http://www.w3.org/2000/svg" xmlns:xlink="http://www.w3.org/1999/xlink">
    <!-- Generator: Sketch 59.1 (86144) - https://sketch.com -->
    <title>菜单</title>
    <desc>Created with Sketch.</desc>
    <g id="0924-暗夜模式" stroke="none" stroke-width="1" fill="none" fill-rule="evenodd">
        <g id="编组-28" transform="translate(2.000000, 1.000000)">
            <g id="3.Icons/Outlined/menu" fill="#000000" fill-opacity="0.9">
                <g id="common_icons_info">
                    <path d="M10,0 C15.5228475,0 20,4.4771525 20,10 C20,15.5228475 15.5228475,20 10,20 C4.4771525,20 0,15.5228475 0,10 C0,4.4771525 4.4771525,0 10,0 Z M10,1.2 C5.1398942,1.2 1.2,5.1398942 1.2,10 C1.2,14.8601058 5.1398942,18.8 10,18.8 C14.8601058,18.8 18.8,14.8601058 18.8,10 C18.8,5.1398942 14.8601058,1.2 10,1.2 Z M6.199,12.799 L6.199,13.999 L5,14 L5,12.8 L6.199,12.799 Z M15,12.8 L15,14 L7.199,13.999 L7.199,12.799 L15,12.8 Z M6.199,9.4 L6.199,10.6 L5,10.6 L5,9.4 L6.199,9.4 Z M15,9.4 L15,10.6 L7.199,10.6 L7.199,9.4 L15,9.4 Z M15,6 L15,7.2 L7.199,7.199 L7.2,6 L15,6 Z M5,6 L6.2,6 L6.199,7.199 L5,7.2 L5,6 Z" id="图标颜色"></path>
                </g>
            </g>
            <polygon id="路径-2" fill="#020202" points="8 21 12 21 10 23"></polygon>
        </g>
    </g>
</svg>