<?xml version="1.0" encoding="UTF-8"?>
<svg width="24px" height="24px" viewBox="0 0 24 24" version="1.1" xmlns="http://www.w3.org/2000/svg" xmlns:xlink="http://www.w3.org/1999/xlink">
    <title>已关注1.2pt</title>
    <g id="已关注1.2pt" stroke="none" stroke-width="1" fill="none" fill-rule="evenodd">
        <g id="编组-14" fill="#000000" fill-rule="nonzero">
            <g id="编组">
                <path d="M11.9,3 C14.109139,3 15.9,4.79298022 15.9,7.00020747 L15.9,8.71018568 C15.9,9.84929595 15.3009324,11.4828603 14.5680872,12.351573 L14.2065546,12.7801327 C13.9505779,13.0835668 13.8404693,13.4229419 13.8653023,13.7427561 L12.6631968,13.7428461 C12.642433,13.2041155 12.8072617,12.6462727 13.1762823,12.1491104 L13.2963845,11.9977468 L13.6508692,11.5778088 C14.1507036,10.9853064 14.6133368,9.79951305 14.6891059,8.94414452 L14.6996041,8.72706377 L14.7,7.00020747 C14.7,5.45477701 13.4454526,4.2 11.9,4.2 C10.4336855,4.2 9.21541547,5.3362998 9.10769102,6.79115933 L9.10024472,6.98630862 L9.1,8.70929053 C9.1,9.48567254 9.51044104,10.6858297 10.0061272,11.3901162 L10.138601,11.5632921 L10.510611,12.0048127 C11.561938,13.250882 11.2575812,14.9704941 9.86182431,15.7627064 L9.69078705,15.8526255 L4.0403663,18.6097766 C3.87287899,18.6915086 3.70033208,18.9435714 3.631938,19.1410707 L3.6079803,19.2400834 L3.6,19.44 L3.6,19.8 L11.899,19.799 L11.899,21 L3.40142961,21 C2.84835531,21 2.4,20.5557555 2.4,20.0015619 L2.4,19.3154633 C2.4,18.6303744 2.89815091,17.8319079 3.51409761,17.5313327 L9.17445076,14.769143 C9.99537712,14.36854 10.1862591,13.4812624 9.59344523,12.7786389 L9.23191269,12.350138 C8.49631763,11.4782852 7.9,9.84949648 7.9,8.70929053 L7.9,6.99958038 C7.9,4.79067313 9.69535616,3 11.9,3 Z" id="1.3pt"></path>
                <path d="M16.6444483,19.5531385 L21.8576058,14.339981 L22.7065093,15.1888846 L17.0696993,20.8240748 C16.8354041,21.0584087 16.4555051,21.0583541 16.2212242,20.8240059 C16.2212066,20.8239882 16.2211889,20.8239705 16.2212242,20.8238998 L13.4049784,18.0061402 L13.4049784,18.0061402 L14.2512142,17.1599044 L16.6444483,19.5531385 Z" id="Combined-Shape备份" transform="translate(18.055744, 17.794129) rotate(-360.000000) translate(-18.055744, -17.794129) "></path>
            </g>
        </g>
    </g>
</svg>