<?xml version="1.0" encoding="UTF-8"?>
<svg width="24px" height="24px" viewBox="0 0 24 24" version="1.1" xmlns="http://www.w3.org/2000/svg" xmlns:xlink="http://www.w3.org/1999/xlink">
    <title>sports备份</title>
    <g id="sports备份" stroke="none" stroke-width="1" fill="none" fill-rule="evenodd">
        <rect id="矩形" fill="#FFFFFF" opacity="0" x="0" y="0" width="24" height="24"></rect>
        <path d="M4.2,15 L4.2,18 C4.2,18.9444069 4.92731342,19.7189407 5.85237201,19.7940331 L6,19.8 L9,19.8 L9,21 L6,21 C4.34314575,21 3,19.6568542 3,18 L3,15 L4.2,15 Z M21,15 L21,18 C21,19.6568542 19.6568542,21 18,21 L15,21 L15,19.8 L18,19.8 C18.9444069,19.8 19.7189407,19.0726866 19.7940331,18.147628 L19.8,18 L19.799,15 L21,15 Z M9,3 L9,4.199 L6,4.2 C5.05559308,4.2 4.28105931,4.92731342 4.20596695,5.85237201 L4.2,6 L4.2,9 L3,9 L3,6 C3,4.34314575 4.34314575,3 6,3 L9,3 Z M18,3 C19.6568542,3 21,4.34314575 21,6 L21,8.999 L19.799,8.999 L19.8,6 C19.8,5.05559308 19.0726866,4.28105931 18.147628,4.20596695 L18,4.2 L15,4.199 L15,3 L18,3 Z" id="形状结合" fill-opacity="0.9" fill="#000000" fill-rule="nonzero"></path>
        <g id="编组" transform="translate(8.000000, 8.500000)" stroke="#000000" stroke-width="1.2">
            <line x1="0.5" y1="0" x2="0.5" y2="2.3" id="路径-6"></line>
            <line x1="7.5" y1="0" x2="7.5" y2="2.3" id="路径-6备份"></line>
            <path d="M4.13792554,0 C4.13792554,1.59269366 4.13792554,2.75936033 4.13792554,3.5 C4.13792554,4.24063967 3.5826293,4.45411119 2.47203682,4.14041455" id="路径-6备份-2"></path>
        </g>
        <path d="M8.85494021,14.4935223 C9.69198157,15.3738278 10.6919816,15.8139806 11.8549402,15.8139806 C13.0178989,15.8139806 14.0178989,15.3738278 14.8549402,14.4935223" id="路径-6备份-3" stroke="#000000" stroke-width="1.2"></path>
    </g>
</svg>