<?xml version="1.0" encoding="UTF-8"?>
<svg width="24px" height="24px" viewBox="0 0 24 24" version="1.1" xmlns="http://www.w3.org/2000/svg" xmlns:xlink="http://www.w3.org/1999/xlink">
    <title>icons_outlined_top_off</title>
    <g id="icons_outlined_top_off" stroke="none" stroke-width="1" fill="none" fill-rule="evenodd">
        <path d="M7.40852868,9.105 L8.25652868,9.953 L6.412,11.799 L9.2,11.8 L9.2,20.8 L14.8,20.8 L14.7995287,16.496 L15.9995287,17.696 L16,21 C16,21.5522847 15.5522847,22 15,22 L9,22 C8.44771525,22 8,21.5522847 8,21 L8,13 L5.92893219,13 C5.37664744,13 4.92893219,12.5522847 4.92893219,12 C4.92893219,11.7347835 5.03428903,11.4804296 5.22182541,11.2928932 L7.40852868,9.105 Z M4.69705685,3 L9.10552868,7.408 L11.2928932,5.22182541 C11.6834175,4.83130112 12.3165825,4.83130112 12.7071068,5.22182541 L18.7781746,11.2928932 C19.1686989,11.6834175 19.1686989,12.3165825 18.7781746,12.7071068 C18.5906382,12.8946432 18.3362843,13 18.0710678,13 L16,13 L15.9995287,14.302 L21.4249789,19.7279221 L20.5764507,20.5764502 L3.84852868,3.84852817 L4.69705685,3 Z M12,6.212 L9.95352868,8.257 L14.7995287,13.102 L14.8,11.8 L17.588,11.8 L12,6.212 Z" id="形状" fill="#000000" fill-rule="nonzero"></path>
    </g>
</svg>