<?xml version="1.0" encoding="UTF-8"?>
<svg width="24px" height="24px" viewBox="0 0 24 24" version="1.1" xmlns="http://www.w3.org/2000/svg" xmlns:xlink="http://www.w3.org/1999/xlink">
    <title>icons_outlined_barrage_off</title>
    <g id="icons_outlined_barrage_off" stroke="none" stroke-width="1" fill="none" fill-rule="evenodd">
        <path d="M2.99997693,4.896 L4.19897693,6.095 L4.199,19.799 L17.9009769,19.799 L19.1019769,21 L4,21 C3.44771525,21 3,20.5522847 3,20 L2.99997693,4.896 Z M20,3 C20.5522847,3 21,3.44771525 21,4 L21,20 C21,20.3271157 20.8429353,20.617547 20.6001066,20.7999931 L19.5989769,19.799 L19.799,19.799 L19.799,4.199 L4.199,4.199 L4.19897693,4.399 L3.20000687,3.39989337 C3.38245305,3.15706468 3.67288431,3 4,3 L20,3 Z M12.2969769,14.194 L14.6159769,16.513 L14.616,17.518 L13.392,17.518 L13.392,15.37 L10.536,15.37 L10.536,14.194 L12.2969769,14.194 Z M7.52097693,9.418 L8.58897693,10.486 L8.016,10.486 L7.848,12.106 L10.2089769,12.106 L10.2479769,12.145 L10.2472575,12.4631349 C10.2393633,14.3299862 10.1689412,15.5909412 10.056,16.246 C9.912,16.942 9.3,17.326 8.208,17.398 C8,17.398 7.792,17.3873333 7.57688889,17.3731111 L7.248,17.35 L6.924,16.186 C7.236,16.222 7.572,16.246 7.908,16.246 C8.508,16.246 8.844,16.054 8.928,15.67 C9.006,15.3134286 9.05295918,14.5740204 9.05926968,13.4517755 L9.06,13.186 L6.576,13.186 L6.912,9.418 L7.52097693,9.418 Z M15.324,6.25 L16.512,6.67 C16.32,7.1308 16.10496,7.5532 15.873024,7.9372 L15.696,8.218 L17.088,8.218 L17.088,13.27 L14.616,13.27 L14.616,14.194 L17.556,14.194 L17.556,15.37 L15.1699769,15.37 L13.3919769,13.592 L13.392,13.27 L13.0699769,13.27 L10.9679769,11.168 L10.968,8.218 L12.408,8.218 C12.1872,7.7668 11.95104,7.36168 11.69952,6.996496 L11.508,6.73 L12.648,6.346 C12.9168,6.73 13.16256,7.12936 13.379136,7.556368 L13.536,7.882 L12.78,8.218 L14.436,8.218 C14.772,7.606 15.06,6.946 15.324,6.25 Z M15.984,11.29 L14.616,11.29 L14.616,12.226 L15.984,12.226 L15.984,11.29 Z M13.392,11.29 L12.084,11.29 L12.084,12.226 L13.392,12.226 L13.392,11.29 Z M10.176,6.79 L10.1759769,10.376 L8.93997693,9.14 L8.94,7.858 L7.65797693,7.858 L6.68397693,6.884 L6.684,6.79 L10.176,6.79 Z M13.392,9.274 L12.084,9.274 L12.084,10.258 L13.392,10.258 L13.392,9.274 Z M15.984,9.274 L14.616,9.274 L14.616,10.258 L15.984,10.258 L15.984,9.274 Z" id="形状结合" fill="#000000" fill-rule="nonzero"></path>
        <polygon id="矩形" fill="#000000" fill-rule="nonzero" points="2.9490332 1.45197693 22.7480231 21.2509668 21.8994949 22.0994949 2.10050506 2.30050506"></polygon>
    </g>
</svg>