<?xml version="1.0" encoding="UTF-8"?>
<svg width="24px" height="24px" viewBox="0 0 24 24" version="1.1" xmlns="http://www.w3.org/2000/svg" xmlns:xlink="http://www.w3.org/1999/xlink">
    <title>icons_filled_change备份 5</title>
    <g id="icons_filled_change备份-5" stroke="none" stroke-width="1" fill="none" fill-rule="evenodd">
        <g id="编组">
            <rect id="矩形" x="0" y="0" width="24" height="24"></rect>
            <path d="M13.4992681,1.90251954 L19.9992681,5.65285543 C20.9278838,6.18864322 21.5,7.17925538 21.5,8.25135407 L21.5,15.7486459 C21.5,16.8207446 20.9278838,17.8113568 19.9992681,18.3471446 L13.4992681,22.0974805 C12.5714369,22.6328156 11.4285631,22.6328156 10.5007319,22.0974805 L4.00073189,18.3471446 C3.07211624,17.8113568 2.5,16.8207446 2.5,15.7486459 L2.5,8.25135407 C2.5,7.17925538 3.07211624,6.18864322 4.00073189,5.65285543 L10.5007319,1.90251954 C11.4285631,1.36718438 12.5714369,1.36718438 13.4992681,1.90251954 Z M19.9789821,7.90205008 L13.7339383,11.0006031 C12.642894,11.5419377 11.3603078,11.5374826 10.2730554,10.9885816 L4.16008206,7.90243787 C4.03211744,7.83783474 3.92753346,7.99682032 4.00835181,8.09247754 L4.05298349,8.12823715 L9.80773972,11.4813356 C10.9693244,12.1581628 11.6953488,13.3897435 11.7247081,14.7331565 L11.8753745,21.6272854 C11.8789253,21.7897574 12.1210747,21.7897574 12.1246255,21.6272854 L12.2748495,14.7533955 C12.3044408,13.3993727 13.0416396,12.1597943 14.2176293,11.486668 L20.0963705,8.12172735 C20.2363799,8.04158717 20.1234995,7.83034604 19.9789821,7.90205008 Z M14.0369579,17.657135 C13.8231367,18.4546077 14.1888838,19.2454401 14.8538769,19.4235086 C15.51887,19.601577 16.2312897,19.0994507 16.445111,18.301978 C16.6589322,17.5045053 16.2931851,16.713673 15.6281921,16.5356045 C14.963199,16.357536 14.2507792,16.8596624 14.0369579,17.657135 Z M9.96304206,17.657135 C9.7492208,16.8596624 9.03680103,16.357536 8.37180794,16.5356045 C7.70681486,16.713673 7.3410678,17.5045053 7.55488901,18.301978 C7.76871027,19.0994507 8.48113004,19.601577 9.14612312,19.4235086 C9.81111621,19.2454401 10.1768633,18.4546077 9.96304206,17.657135 Z M16.0314407,14.6673568 C15.8176195,15.4648295 16.1833665,16.2556618 16.8483596,16.4337303 C17.5133527,16.6117988 18.2257725,16.1096724 18.4395937,15.3121998 C18.6534149,14.5147271 18.2876679,13.7238947 17.6226748,13.5458262 C16.9576817,13.3677578 16.2452619,13.8698841 16.0314407,14.6673568 Z M18.0259234,11.6775785 C17.8121022,12.4750512 18.1778493,13.2658836 18.8428424,13.443952 C19.5078355,13.6220205 20.2202552,13.1198942 20.4340765,12.3224215 C20.6478977,11.5249488 20.2821506,10.7341164 19.6171576,10.556048 C18.9521645,10.3779795 18.2397447,10.8801058 18.0259234,11.6775785 Z M5.97407656,11.6775785 C5.7602553,10.8801058 5.04783554,10.3779795 4.38284245,10.556048 C3.71784936,10.7341164 3.35210231,11.5249488 3.56592352,12.3224215 C3.77974477,13.1198942 4.49216454,13.6220205 5.15715763,13.443952 C5.82215072,13.2658836 6.18789777,12.4750512 5.97407656,11.6775785 Z M12,5.02385071 C11.0361679,5.02385071 10.2548276,5.58158793 10.2548276,6.26959166 C10.2548276,6.95759538 11.0361679,7.5153326 12,7.5153326 C12.9638321,7.5153326 13.7451724,6.95759538 13.7451724,6.26959166 C13.7451724,5.58158793 12.9638321,5.02385071 12,5.02385071 Z" id="形状结合备份-5" fill="#000000"></path>
        </g>
    </g>
</svg>