<?xml version="1.0" encoding="UTF-8"?>
<svg width="24px" height="24px" viewBox="0 0 24 24" version="1.1" xmlns="http://www.w3.org/2000/svg" xmlns:xlink="http://www.w3.org/1999/xlink">
    <title>icons_outlined_儿童手表</title>
    <defs>
        <filter color-interpolation-filters="auto" id="filter-1">
            <feColorMatrix in="SourceGraphic" type="matrix" values="0 0 0 0 0.000000 0 0 0 0 0.000000 0 0 0 0 0.000000 0 0 0 1.000000 0"></feColorMatrix>
        </filter>
    </defs>
    <g id="icons_outlined_儿童手表" stroke="none" stroke-width="1" fill="none" fill-rule="evenodd">
        <g filter="url(#filter-1)" id="编组">
            <g>
                <rect id="矩形" x="0" y="0" width="24" height="24"></rect>
                <path d="M15.7898631,5.9 L7.61013686,5.9 C7.07250889,5.9 6.7823038,5.95604119 6.47977555,6.11783507 C6.1959552,6.26962385 5.96962385,6.4959552 5.81783507,6.77977555 C5.65604119,7.0823038 5.6,7.37250889 5.6,7.91013686 L5.6,16.0898631 C5.6,16.6274911 5.65604119,16.9176962 5.81783507,17.2202245 C5.96962385,17.5040448 6.1959552,17.7303762 6.47977555,17.8821649 C6.7823038,18.0439588 7.07250889,18.1 7.61013686,18.1 L15.7898631,18.1 C16.3274911,18.1 16.6176962,18.0439588 16.9202245,17.8821649 C17.2040448,17.7303762 17.4303762,17.5040448 17.5821649,17.2202245 C17.7439588,16.9176962 17.8,16.6274911 17.8,16.0898631 L17.8,7.91013686 C17.8,7.37250889 17.7439588,7.0823038 17.5821649,6.77977555 C17.4303762,6.4959552 17.2040448,6.26962385 16.9202245,6.11783507 C16.6176962,5.95604119 16.3274911,5.9 15.7898631,5.9 Z M7.4878407,7.10096471 L15.7898631,7.1 C15.8789807,7.1 15.9522599,7.10124381 16.0136894,7.10398625 L16.1664172,7.11696425 C16.2498546,7.12895325 16.3018477,7.14795597 16.3543058,7.17601091 C16.429004,7.21595993 16.4840401,7.270996 16.5239891,7.34569418 C16.552044,7.39815234 16.5710468,7.45014544 16.5830357,7.53358277 L16.5960137,7.68631063 C16.597385,7.71702536 16.5983815,7.75070253 16.5990353,7.7878407 L16.6,16.0898631 C16.6,16.1789807 16.5987562,16.2522599 16.5960137,16.3136894 L16.5830357,16.4664172 C16.5710468,16.5498546 16.552044,16.6018477 16.5239891,16.6543058 C16.4840401,16.729004 16.429004,16.7840401 16.3543058,16.8239891 C16.3018477,16.852044 16.2498546,16.8710468 16.1664172,16.8830357 L16.0136894,16.8960137 L15.7898631,16.9 L7.61013686,16.9 C7.52101928,16.9 7.44774009,16.8987562 7.38631063,16.8960137 L7.23358277,16.8830357 C7.15014544,16.8710468 7.09815234,16.852044 7.04569418,16.8239891 C6.970996,16.7840401 6.91595993,16.729004 6.87601091,16.6543058 C6.84795597,16.6018477 6.82895325,16.5498546 6.81696425,16.4664172 L6.80398625,16.3136894 C6.80261503,16.2829746 6.80161847,16.2492975 6.80096471,16.2121593 L6.8,7.91013686 C6.8,7.82101928 6.80124381,7.74774009 6.80398625,7.68631063 L6.81696425,7.53358277 C6.82895325,7.45014544 6.84795597,7.39815234 6.87601091,7.34569418 C6.91595993,7.270996 6.970996,7.21595993 7.04569418,7.17601091 C7.09815234,7.14795597 7.15014544,7.12895325 7.23358277,7.11696425 L7.38631063,7.10398625 C7.41702536,7.10261503 7.45070253,7.10161847 7.4878407,7.10096471 Z" id="矩形" fill="#000000" fill-rule="nonzero"></path>
                <circle id="椭圆形" fill="#000000" cx="11.7" cy="4.3" r="1.1"></circle>
                <path d="M13.5657428,0.4 L9.8342572,0.4 C8.91732894,0.4 8.46730112,0.478244394 7.99013763,0.707831102 C7.54965873,0.919767056 7.18942027,1.23777917 6.92448623,1.64856921 L6.85585786,1.75992828 C6.63942901,2.12869035 6.51991331,2.5191928 6.42217375,3.20161135 L6.337,3.857 L6.15105513,3.90475442 C5.88954534,3.97950805 5.65346344,4.07893251 5.40524527,4.21168104 C4.76290641,4.55520762 4.25520762,5.06290641 3.91168104,5.70524527 C3.55729659,6.36788659 3.41869874,7.00743769 3.40179407,8.25381257 L3.4,15.4695894 C3.4,16.9013157 3.53198341,17.5847819 3.91168104,18.2947547 C4.25520762,18.9370936 4.76290641,19.4447924 5.40524527,19.788319 L5.58972029,19.8817673 C5.77309363,19.9692378 5.95492279,20.0391804 6.15105513,20.0952456 L6.337,20.142 L6.4172094,20.7628168 C6.52639685,21.5374292 6.65826662,21.9386474 6.92448623,22.3514308 C7.18942027,22.7622208 7.54965873,23.0802329 7.99013763,23.2921689 C8.46730112,23.5217556 8.91732894,23.6 9.8342572,23.6 L13.5657428,23.6 L13.770596,23.5984852 C14.5527697,23.5862197 14.9672461,23.5051333 15.4098624,23.2921689 C15.8503413,23.0802329 16.2105797,22.7622208 16.4755138,22.3514308 L16.5441421,22.2400717 C16.760571,21.8713096 16.8800867,21.4808072 16.9778262,20.7983887 L17.062,20.142 L17.2489449,20.0952456 C17.5104547,20.020492 17.7465366,19.9210675 17.9947547,19.788319 C18.6370936,19.4447924 19.1447924,18.9370936 19.488319,18.2947547 C19.8680166,17.5847819 20,16.9013157 20,15.4695894 L20,8.53041058 C20,7.09868432 19.8680166,6.41521811 19.488319,5.70524527 C19.1447924,5.06290641 18.6370936,4.55520762 17.9947547,4.21168104 L17.8102797,4.1182327 C17.6269064,4.03076221 17.4450772,3.96081964 17.2489449,3.90475442 L17.062,3.857 L17.0095634,3.43916076 C16.8959717,2.53041889 16.7625124,2.09357125 16.4755138,1.64856921 C16.2105797,1.23777917 15.8503413,0.919767056 15.4098624,0.707831102 C14.9326989,0.478244394 14.4826711,0.4 13.5657428,0.4 Z M9.8342572,1.6 L13.5657428,1.6 L13.931952,1.60508722 C14.4197989,1.62073771 14.6506738,1.67422631 14.8895756,1.78917362 C15.1307204,1.9052002 15.3220142,2.07407097 15.4670552,2.29896233 C15.6267127,2.54651725 15.7098521,2.79365027 15.7937123,3.39704518 L15.9272843,4.44487509 C15.9617273,4.71506975 16.1737541,4.92821949 16.443763,4.96408934 L16.443763,4.96408934 L16.443763,4.96408934 C16.8601968,5.01941129 17.1195973,5.10447416 17.4288361,5.26985688 C17.8620528,5.5015437 18.1984563,5.83794721 18.4301431,6.2711639 C18.6676216,6.71521003 18.7712743,7.14720551 18.7946932,8.068584 L18.8,8.53041058 L18.8,15.4695894 L18.7946932,15.931416 C18.7712743,16.8527945 18.6676216,17.28479 18.4301431,17.7288361 C18.1984563,18.1620528 17.8620528,18.4984563 17.4288361,18.7301431 C17.1195973,18.8955258 16.8601968,18.9805887 16.443763,19.0359107 C16.1737876,19.0717761 15.9618319,19.2849777 15.9275495,19.5551586 L15.8191085,20.4097861 L15.8191085,20.4097861 C15.7257148,21.1569273 15.6426784,21.4287273 15.4670552,21.7010377 C15.3220142,21.925929 15.1307204,22.0947998 14.8895756,22.2108264 C14.6200648,22.3405012 14.3726697,22.3889006 13.7566869,22.3985759 L13.561257,22.4000168 L9.8342572,22.4000168 L9.46804798,22.3949128 C8.98020113,22.3792623 8.74932615,22.3257737 8.51042444,22.2108264 C8.2692796,22.0947998 8.07798579,21.925929 7.93294485,21.7010377 C7.78885405,21.4776195 7.71065239,21.2635754 7.63464985,20.7903275 L7.58045777,20.4064427 L7.4724472,19.5551591 C7.43816675,19.2849783 7.22621196,19.071776 6.95623699,19.0359107 L6.95623699,19.0359107 L6.95623699,19.0359107 C6.53980319,18.9805887 6.2804027,18.8955258 5.9711639,18.7301431 C5.53794721,18.4984563 5.2015437,18.1620528 4.96985688,17.7288361 C4.71411084,17.2506326 4.61357097,16.786405 4.6013023,15.7098747 L4.6,8.53041058 C4.6,7.27984197 4.69584326,6.78352482 4.96985688,6.2711639 C5.2015437,5.83794721 5.53794721,5.5015437 5.9711639,5.26985688 C6.2804027,5.10447416 6.53980319,5.01941129 6.95623699,4.96408934 C7.22621238,4.92822395 7.43816805,4.71502233 7.47245049,4.44484136 L7.58089155,3.59021394 L7.58089155,3.59021394 C7.67428525,2.84307265 7.75732156,2.57127274 7.93294485,2.29896233 C8.07798579,2.07407097 8.2692796,1.9052002 8.51042444,1.78917362 C8.72278152,1.68699823 8.92879648,1.63338282 9.31458633,1.61173787 L9.64054458,1.6012394 C9.70145828,1.60040233 9.76590798,1.6 9.8342572,1.6 Z" id="形状结合" fill="#000000" fill-rule="nonzero"></path>
            </g>
        </g>
    </g>
</svg>