<?xml version="1.0" encoding="UTF-8"?>
<svg width="72px" height="72px" viewBox="0 0 72 72" version="1.1" xmlns="http://www.w3.org/2000/svg" xmlns:xlink="http://www.w3.org/1999/xlink">
    <title>编组 29</title>
    <g id="11月11日-12月3日" stroke="none" stroke-width="1" fill="none" fill-rule="evenodd">
        <g id="编组-29">
            <rect id="矩形" x="0" y="0" width="72" height="72"></rect>
            <g id="礼物备份" transform="translate(16.000000, 17.000000)" fill="#000000">
                <g id="礼物">
                    <g id="红包">
                        <path d="M18.6,18.315 L18.6,37.999 L6,38 C3.790861,38 2,36.209139 2,34 L2,18.315 L18.6,18.315 Z M21.4,18.315 L38,18.315 L38,34 C38,36.209139 36.209139,38 34,38 L21.4,37.999 L21.4,18.315 Z M40,16.4 L0,16.4 L0,9.34453782 C-1.3527075e-16,8.23996832 0.8954305,7.34453782 2,7.34453782 L7.12724106,7.34495647 C6.71126642,5.13781679 7.54454885,2.78817325 9.51188889,1.31684792 C10.705,0.42432691 12.1927778,-0.0419980195 13.7036667,0.00297396929 C15.5438167,0.0575284511 17.2549092,0.849521497 18.442504,2.18675701 L18.6256111,2.40240254 L19.9992778,4.09542495 L21.3736667,2.40240254 C22.5646111,0.934931952 24.3586111,0.0603997396 26.2963333,0.00297396929 C27.8065,-0.0419980195 29.2942778,0.42432691 30.4873889,1.31684792 C32.4540352,2.78817325 33.2879566,5.13781679 32.8720335,7.34495647 L38,7.34453782 C39.1045695,7.34453782 40,8.23996832 40,9.34453782 L40,16.4 Z M13.5693333,4.15700198 C13.0825556,4.14316445 12.5871111,4.28569106 12.1725556,4.59495996 C11.2860512,5.25823818 11.0840954,6.4520124 11.6734193,7.34509752 L17.147,7.344 L15.2109444,4.9568115 C14.7992778,4.44966585 14.1904444,4.17568265 13.5693333,4.15700198 Z M26.4292222,4.15700198 C25.8708722,4.17381459 25.3218822,4.39742223 24.9175627,4.81168482 L24.7883333,4.9568115 L22.851,7.344 L28.325851,7.34509752 C28.9150981,6.4520124 28.7125043,5.25823818 27.826,4.59495996 C27.4121667,4.28569106 26.9167222,4.14316445 26.4292222,4.15700198 Z" id="形状结合备份-5"></path>
                    </g>
                </g>
            </g>
        </g>
    </g>
</svg>