<?xml version="1.0" encoding="UTF-8"?>
<svg width="24px" height="24px" viewBox="0 0 24 24" version="1.1" xmlns="http://www.w3.org/2000/svg" xmlns:xlink="http://www.w3.org/1999/xlink">
    <title>state/1013_outlined</title>
    <g id="state/1013_outlined" stroke="none" stroke-width="1" fill="none" fill-rule="evenodd" fill-opacity="0.9">
        <path d="M12.7214874,6.77538714 C13.5556793,7.1528817 13.9503249,8.10331758 13.6507517,8.95101077 L13.5943513,9.09122579 L11.9146954,12.802 L14.7329861,14.1871275 C15.1270807,14.3808087 15.44648,14.6988063 15.6418927,15.0920452 L17.8724731,19.5807574 C18.1182473,20.0753416 17.916547,20.6755206 17.4219629,20.9212948 C16.9627062,21.1495137 16.4124008,20.9919 16.1393483,20.5722276 L16.0814255,20.4707846 L13.851,15.982 L9.5592008,13.8729072 L9.49769543,13.838 L9.37750572,13.7774206 C8.6418828,13.3608923 8.30888592,12.4720526 8.59083709,11.6742237 L8.64723756,11.5340086 L9.78969543,9.008 L7.704,9.378 L5.73535136,11.6654261 C5.40275048,12.051786 4.83916617,12.121734 4.42522282,11.8468095 L4.32507477,11.7708771 C3.9387148,11.4382762 3.86876678,10.8746919 4.14369127,10.4607486 L4.21962371,10.3606005 L6.18847563,8.07351828 C6.48916675,7.72422572 6.90126807,7.48950409 7.3550827,7.40905084 L11.6925031,6.64010341 C11.7448571,6.630822 11.796981,6.62579572 11.8485201,6.62477655 C12.1379648,6.60056948 12.4378358,6.6470271 12.7214874,6.77538714 Z M8.23953523,14.141121 C8.42411442,14.3376926 8.6402826,14.5091647 8.88478382,14.6476075 L9.05572433,14.7357454 L9.06470456,14.742087 L9.95469543,15.18 L8.96955613,17.1143046 C8.74764258,17.5496611 8.37402192,17.8887118 7.91923098,18.0674464 L4.36573398,19.4639851 C3.85171982,19.6659947 3.27126785,19.4130651 3.06925822,18.8990509 C2.88167784,18.4217521 3.08636653,17.8871675 3.52811332,17.6514933 L3.63419238,17.6025752 L6.83418505,16.3446882 C7.06150199,16.2553321 7.248256,16.0858705 7.35921016,15.8682775 L8.23953523,14.141121 Z M19.1128994,7.20970461 L19.2071068,7.29289322 C19.5675907,7.65337718 19.5953203,8.22060824 19.2902954,8.61289944 L19.2071068,8.70710678 L16.7071068,11.2071068 C16.3778383,11.5363753 15.8648765,11.5947955 15.4700011,11.3479983 L14.0666954,10.47 L14.5053327,9.50367322 L14.5785092,9.32419447 C14.6715095,9.06155552 14.7240347,8.79503492 14.7391554,8.53154923 L15.854,9.23 L17.7928932,7.29289322 C18.1533772,6.93240926 18.7206082,6.90467972 19.1128994,7.20970461 Z M14,2 C15.1045695,2 16,2.8954305 16,4 C16,5.1045695 15.1045695,6 14,6 C12.8954305,6 12,5.1045695 12,4 C12,2.8954305 12.8954305,2 14,2 Z" id="å½¢çŠ¶ç»“åˆ" fill="#000000"></path>
    </g>
</svg>