<?xml version="1.0" encoding="UTF-8"?>
<svg width="24px" height="24px" viewBox="0 0 24 24" version="1.1" xmlns="http://www.w3.org/2000/svg" xmlns:xlink="http://www.w3.org/1999/xlink">
    <!-- Generator: Sketch 63.1 (92452) - https://sketch.com -->
    <title>icons_filled_cutie</title>
    <desc>Created with Sketch.</desc>
    <g id="icons_filled_cutie" stroke="none" stroke-width="1" fill="none" fill-rule="evenodd">
        <g id="编组备份">
            <rect id="矩形" x="0" y="0" width="24" height="24"></rect>
            <path d="M5.76493426,14.5496206 C5.78356075,14.55358 5.79830888,14.5677971 5.80294831,14.586266 C6.05432148,15.5869441 6.47794483,16.38522 7.07381835,16.9810935 C7.60747214,17.5147473 8.29073772,17.8975162 9.12361509,18.1294003 L9.40680965,18.2009861 C9.43373256,18.2071518 9.4505596,18.2339755 9.44439389,18.2608984 C9.44010657,18.2796192 9.42547724,18.294231 9.40675132,18.2984959 C8.44632918,18.5172365 7.66401655,18.9287083 7.05981346,19.5329114 C6.51500886,20.077716 6.1206469,20.7735889 5.87672757,21.6205302 L5.80030504,21.9082747 C5.79399011,21.9346913 5.76745595,21.9509869 5.74103934,21.944672 C5.72265302,21.9402767 5.70841355,21.9257314 5.70440989,21.9072559 C5.49966627,20.9624315 5.09308099,20.1858059 4.48465405,19.5773789 C3.93406094,19.0267858 3.2312248,18.6269854 2.37614564,18.3779776 L2.08546257,18.3006343 C2.05864546,18.294133 2.0421762,18.2671232 2.04867746,18.240306 C2.05315962,18.2218175 2.06775237,18.2074787 2.0863167,18.2033218 C3.09075917,17.978406 3.89295871,17.5659698 4.4929153,16.9660133 C5.03191149,16.4270171 5.4132804,15.731067 5.63702203,14.878163 L5.70576049,14.5880477 C5.71148954,14.561096 5.73798254,14.5438916 5.76493426,14.5496206 Z M19.2066675,17.0754292 L19.8046143,17.7798989 C20.3161,18.3825046 20.2795911,19.2767581 19.7206853,19.8356638 C19.1598426,20.3965065 18.2645064,20.4389501 17.6531243,19.9336768 L16.9387832,19.3433135 L19.2066675,17.0754292 Z M10.852062,7.81719641 L18.4095873,16.2750365 L16.1426475,18.5419763 L7.82160435,10.847654 L10.852062,7.81719641 Z M19.8923642,7.12468386 C19.9078863,7.12798334 19.9201764,7.13983095 19.9240426,7.15522166 C20.1335202,7.98912011 20.4865397,8.65434996 20.9831009,9.15091123 C21.4772248,9.64503511 22.1252703,9.98392765 22.9272374,10.1675889 L22.9272604,10.1674884 C22.9496961,10.1726265 22.9637186,10.1949795 22.9585805,10.2174153 C22.9550078,10.233016 22.9428167,10.2451925 22.9272117,10.2487466 C22.12686,10.4310304 21.4749328,10.7739236 20.9714302,11.2774262 C20.4669815,11.7818749 20.1173092,12.4417437 19.9224132,13.2570326 L19.9218398,13.2568955 C19.9165774,13.2789094 19.8944656,13.2924891 19.8724518,13.2872266 C19.8571298,13.2835639 19.8452636,13.2714428 19.8419272,13.2560465 C19.6713075,12.4686929 19.3324865,11.8215049 18.825464,11.3144824 C18.3152275,10.8042459 17.6480993,10.4494066 16.8240793,10.2499643 L16.8242877,10.2491032 C16.8024479,10.2438172 16.7890284,10.2218274 16.7943144,10.1999876 C16.7979612,10.1849206 16.809853,10.1732352 16.8249815,10.1698528 C17.6628904,9.9825162 18.3320127,9.63868007 18.8323484,9.13834437 C19.2759667,8.69472611 19.5914522,8.1235225 19.778805,7.42473354 L19.8430527,7.1567064 C19.8478269,7.13424663 19.8699044,7.11990965 19.8923642,7.12468386 Z M6.9956236,2.75298291 L9.97816025,6.94770262 L6.94770262,9.97816025 L2.75298291,6.9956236 C3.02404651,5.85458954 3.51366067,4.92999014 4.22182541,4.22182541 C4.92999014,3.51366067 5.85458954,3.02404651 6.9956236,2.75298291 Z M14.8485816,1.78120162 C14.8604564,1.78371628 14.8698594,1.79277938 14.8728093,1.80455359 C15.0402992,2.47305696 15.3229621,3.00622653 15.7207979,3.40406232 C16.1167636,3.80002803 16.6362822,4.07138948 17.2793538,4.21814668 L17.2790485,4.21948451 C17.296217,4.22340258 17.3069586,4.24049661 17.3030405,4.2576651 C17.3003123,4.26961961 17.2909707,4.2789506 17.2790131,4.28166516 C16.6373941,4.4273223 16.1148769,4.70185867 15.7114613,5.10527427 C15.3583472,5.45838835 15.1000336,5.90669726 14.9365206,6.45020099 L14.871789,6.68884976 C14.867579,6.70646084 14.8498896,6.71732459 14.8322785,6.71311464 C14.820021,6.71018446 14.810528,6.7004876 14.8078589,6.68817057 C14.6713632,6.05828767 14.4003063,5.54053723 13.9946883,5.13491927 C13.6375228,4.77775373 13.1842611,4.51576892 12.6349031,4.34896483 L12.3937473,4.28261589 C12.3762754,4.27838709 12.3655398,4.26079524 12.3697687,4.2433234 C12.372686,4.23126982 12.3821995,4.22192146 12.3943024,4.21921556 C13.0646295,4.0693463 13.5999273,3.79427739 14.0001958,3.39400883 C14.4001233,2.99408137 14.6698799,2.46453917 14.8094657,1.80538222 L14.8109313,1.80569258 C14.8145652,1.78853277 14.8314217,1.77756779 14.8485816,1.78120162 Z" id="形状结合" fill-opacity="0.9" fill="#000000"></path>
        </g>
    </g>
</svg>