<?xml version="1.0" encoding="UTF-8"?>
<svg width="24px" height="24px" viewBox="0 0 24 24" version="1.1" xmlns="http://www.w3.org/2000/svg" xmlns:xlink="http://www.w3.org/1999/xlink">
    <title>icons_filled_barrage</title>
    <g id="icons_filled_barrage" stroke="none" stroke-width="1" fill="none" fill-rule="evenodd">
        <path d="M20,3 C20.5522847,3 21,3.44771525 21,4 L21,20 C21,20.5522847 20.5522847,21 20,21 L4,21 C3.44771525,21 3,20.5522847 3,20 L3,4 C3,3.44771525 3.44771525,3 4,3 L20,3 Z M15.324,6.25 C15.06,6.946 14.772,7.606 14.436,8.218 L12.78,8.218 L13.536,7.882 C13.284,7.33 12.984,6.826 12.648,6.346 L11.508,6.73 C11.832,7.162 12.132,7.654 12.408,8.218 L10.968,8.218 L10.968,13.27 L13.392,13.27 L13.392,14.194 L10.536,14.194 L10.536,15.37 L13.392,15.37 L13.392,17.518 L14.616,17.518 L14.616,15.37 L17.556,15.37 L17.556,14.194 L14.616,14.194 L14.616,13.27 L17.088,13.27 L17.088,8.218 L15.696,8.218 C15.996,7.762 16.272,7.246 16.512,6.67 L15.324,6.25 Z M10.176,6.79 L6.684,6.79 L6.684,7.858 L8.94,7.858 L8.94,9.418 L6.912,9.418 L6.576,13.186 L9.06,13.186 C9.06,14.458 9.012,15.286 8.928,15.67 C8.844,16.054 8.508,16.246 7.908,16.246 C7.572,16.246 7.236,16.222 6.924,16.186 L7.248,17.35 C7.584,17.374 7.896,17.398 8.208,17.398 C9.3,17.326 9.912,16.942 10.056,16.246 C10.176,15.55 10.248,14.17 10.248,12.106 L7.848,12.106 L8.016,10.486 L10.176,10.486 L10.176,6.79 Z M15.984,11.29 L15.984,12.226 L14.616,12.226 L14.616,11.29 L15.984,11.29 Z M13.392,11.29 L13.392,12.226 L12.084,12.226 L12.084,11.29 L13.392,11.29 Z M13.392,9.274 L13.392,10.258 L12.084,10.258 L12.084,9.274 L13.392,9.274 Z M15.984,9.274 L15.984,10.258 L14.616,10.258 L14.616,9.274 L15.984,9.274 Z" id="形状结合" fill="#000000" fill-rule="nonzero"></path>
        <path d="M20,3 C20.5522847,3 21,3.44771525 21,4 L21,20 C21,20.5522847 20.5522847,21 20,21 L4,21 C3.44771525,21 3,20.5522847 3,20 L3,4 C3,3.44771525 3.44771525,3 4,3 L20,3 Z M15.324,6.25 C15.06,6.946 14.772,7.606 14.436,8.218 L12.78,8.218 L13.536,7.882 C13.284,7.33 12.984,6.826 12.648,6.346 L11.508,6.73 C11.832,7.162 12.132,7.654 12.408,8.218 L10.968,8.218 L10.968,13.27 L13.392,13.27 L13.392,14.194 L10.536,14.194 L10.536,15.37 L13.392,15.37 L13.392,17.518 L14.616,17.518 L14.616,15.37 L17.556,15.37 L17.556,14.194 L14.616,14.194 L14.616,13.27 L17.088,13.27 L17.088,8.218 L15.696,8.218 C15.996,7.762 16.272,7.246 16.512,6.67 L15.324,6.25 Z M10.176,6.79 L6.684,6.79 L6.684,7.858 L8.94,7.858 L8.94,9.418 L6.912,9.418 L6.576,13.186 L9.06,13.186 C9.06,14.458 9.012,15.286 8.928,15.67 C8.844,16.054 8.508,16.246 7.908,16.246 C7.572,16.246 7.236,16.222 6.924,16.186 L7.248,17.35 C7.584,17.374 7.896,17.398 8.208,17.398 C9.3,17.326 9.912,16.942 10.056,16.246 C10.176,15.55 10.248,14.17 10.248,12.106 L7.848,12.106 L8.016,10.486 L10.176,10.486 L10.176,6.79 Z M15.984,11.29 L15.984,12.226 L14.616,12.226 L14.616,11.29 L15.984,11.29 Z M13.392,11.29 L13.392,12.226 L12.084,12.226 L12.084,11.29 L13.392,11.29 Z M13.392,9.274 L13.392,10.258 L12.084,10.258 L12.084,9.274 L13.392,9.274 Z M15.984,9.274 L15.984,10.258 L14.616,10.258 L14.616,9.274 L15.984,9.274 Z" id="形状结合" fill="#000000" fill-rule="nonzero"></path>
    </g>
</svg>