<?xml version="1.0" encoding="UTF-8"?>
<svg width="24px" height="24px" viewBox="0 0 24 24" version="1.1" xmlns="http://www.w3.org/2000/svg" xmlns:xlink="http://www.w3.org/1999/xlink">
    <title>画板</title>
    <g id="画板" stroke="none" stroke-width="1" fill="none" fill-rule="evenodd">
        <g id="编组-21" fill="#000000">
            <path d="M3.82533482,3.40053013 L7.168,6.74753013 L8.85156673,4.2226499 C8.92575304,4.11137043 9.04050433,4.03564218 9.16903181,4.00980205 L9.26759188,4 L14.7324081,4 C14.8661494,4 14.9928117,4.05347236 15.0856062,4.14608017 L15.1484333,4.2226499 L17,7 L21,7 C21.5128358,7 21.9355072,7.38604019 21.9932723,7.88337887 L22,8 L22,19 C22,19.5128358 21.6139598,19.9355072 21.1166211,19.9932723 L21,20 L20.404,19.9995301 L21.7135882,21.3113316 L20.652928,22.3719918 L16.763,18.4775301 L14.3623386,16.0778841 C14.3630074,16.0773653 14.3636759,16.0768462 14.3643443,16.076327 L8.95536259,10.660219 C8.95380224,10.662222 8.95224382,10.6642266 8.95068734,10.6662328 L5.285,6.99953013 L5.3,6.99953013 L2.76467465,4.46119031 L3.82533482,3.40053013 Z M3.164,6.99953013 L8.25723118,12.0924807 C8.18251734,12.3921768 8.14285714,12.7057425 8.14285714,13.0285714 C8.14285714,15.1588126 9.86975882,16.8857143 12,16.8857143 C12.3228289,16.8857143 12.6363946,16.8460541 12.9360907,16.7713402 L16.164,19.9995301 L3,20 C2.48716416,20 2.06449284,19.6139598 2.00672773,19.1166211 L2,19 L2,8 C2,7.48716416 2.38604019,7.06449284 2.88337887,7.00672773 L3,7 L3.164,6.99953013 Z M12,9.17142857 C11.3063567,9.17142857 10.655478,9.35452611 10.0930589,9.6750264 L15.3506934,14.940508 C15.672959,14.3769489 15.8571429,13.7242694 15.8571429,13.0285714 C15.8571429,10.8983303 14.1302412,9.17142857 12,9.17142857 Z" id="形状结合"></path>
        </g>
    </g>
</svg>