<?xml version="1.0" encoding="UTF-8"?>
<svg width="20px" height="20px" viewBox="0 0 20 20" version="1.1" xmlns="http://www.w3.org/2000/svg" xmlns:xlink="http://www.w3.org/1999/xlink">
    <!-- Generator: Sketch 55.2 (78181) - https://sketchapp.com -->
    <title>3.Icons/Outlined/thumb_up</title>
    <desc>Created with Sketch.</desc>
    <g id="3.Icons/Outlined/thumb_up" stroke="none" stroke-width="1" fill="none" fill-rule="evenodd">
        <path d="M12.0802571,3.44674673 C11.8403356,3.09324017 11.1329918,2.90149058 10.6164359,3.14140174 C10.3185011,3.27975767 10.2788763,3.37715747 10.2395475,4.48610741 C10.2284035,4.80033428 10.2268295,4.84082749 10.2204159,4.97618669 C10.1678815,6.08683093 10.1132369,6.50231076 9.93363384,6.97796193 C9.62572477,7.79214666 9.17235563,8.32610853 8.43939494,8.7558438 C7.86860256,9.09052656 7.53963545,9.24029379 7.12011447,9.33266544 C6.62900842,9.44074311 6.19339561,9.48808298 5.71805793,9.48808298 L4.15584124,9.48808298 C3.99156472,9.48808298 3.8627451,9.61522771 3.8627451,9.76689854 L3.8627451,15.8339917 C3.8627451,15.9857083 3.98953178,16.1118476 4.15255964,16.1128192 C9.63985951,16.1478114 12.0903849,16.1476187 12.5607938,16.1091927 C13.2571325,16.052172 14.2202312,15.6916575 14.6321353,15.3524539 C16.0138826,14.2150307 16.6162158,10.3827926 15.8678876,8.71527761 C15.7701918,8.49758026 15.5541857,8.32096132 15.1748632,8.18403452 C14.8580766,8.06968178 14.5166892,8.01111891 14.2556393,8.00630817 C13.9807258,8.0108071 13.6701679,7.93143687 13.4021706,7.77689488 C12.8237588,7.44335083 12.5547528,6.85275396 12.5547528,6.09619945 C12.5547528,4.56538494 12.439251,3.97558589 12.0802571,3.44674673 Z M12.9076321,2.88509674 C13.4177715,3.63659068 13.5547528,4.42942928 13.5547528,6.09619945 C13.5547528,6.55098603 13.6858333,6.78611733 13.9017188,6.9106088 C14.0269354,6.98281558 14.1617602,7.00771059 14.2392766,7.00644205 C14.5808762,7.01203593 15.0418053,7.07284582 15.5143963,7.2434404 C16.1012813,7.45529253 16.5514017,7.79594688 16.780229,8.30584744 C17.5969966,10.1258671 17.1860016,14.5453989 15.2676806,16.1245174 C14.6921096,16.5985011 13.5358442,17.0326886 12.6424071,17.1058568 C12.0859503,17.1513117 9.23685677,17.1452618 4.14618283,17.1127989 C3.43705443,17.1085732 2.8627451,16.5391179 2.8627451,15.8339917 L2.8627451,9.76689854 C2.8627451,9.0587262 3.44347102,8.48808298 4.15584124,8.48808298 L5.71805793,8.48808298 C6.10716475,8.48808298 6.47105519,8.45157478 6.90518756,8.35603531 C7.21149724,8.28859092 7.46598827,8.16737308 7.93358509,7.8931988 C8.45764323,7.58594321 8.76646366,7.23722597 8.99828645,6.62423145 C9.12936178,6.27709827 9.17387146,5.93655802 9.22153276,4.92893862 C9.22785447,4.7955167 9.22943454,4.75353486 9.2401758,4.45066476 C9.28888961,3.07708808 9.43453547,2.58769047 10.1952518,2.23442655 C11.2119345,1.76223465 12.426427,2.17607689 12.9076321,2.88509674 Z" id="Stroke-9" fill="#000000" fill-rule="nonzero"></path>
    </g>
</svg>