<?xml version="1.0" encoding="UTF-8"?>
<svg width="24px" height="24px" viewBox="0 0 24 24" version="1.1" xmlns="http://www.w3.org/2000/svg" xmlns:xlink="http://www.w3.org/1999/xlink">
    <title>icons_filled_misic_comment备份</title>
    <g id="icons_filled_misic_comment备份" stroke="none" stroke-width="1" fill="none" fill-rule="evenodd">
        <g id="编组" fill="#000000">
            <path d="M19,4.5 C20.3807119,4.5 21.5,5.61928813 21.5,7 L21.5,15.5 C21.5,16.8807119 20.3807119,18 19,18 L12.455,18 L7.97871967,21.0057638 C7.92377372,21.0426566 7.86233535,21.0680884 7.79806706,21.0809438 L7.7,21.090655 C7.45454011,21.090655 7.25039163,20.9137798 7.20805567,20.6805306 L7.2,20.590655 L7.2,18 L5,18 C3.61928813,18 2.5,16.8807119 2.5,15.5 L2.5,7 C2.5,5.61928813 3.61928813,4.5 5,4.5 L19,4.5 Z M12.1034918,7 L12.0608728,7.00384332 C11.993414,7.01966936 11.9431861,7.08022379 11.9431861,7.15250956 L11.9431861,7.15250956 L11.9437363,11.9396818 C11.7525366,11.8720334 11.5467621,11.8352208 11.3323896,11.8352208 C10.3203888,11.8352208 9.5,12.6556096 9.5,13.6676104 C9.5,14.6796112 10.3203888,15.5 11.3323896,15.5 L11.3323896,15.5 L11.4400564,15.4968894 C12.4019432,15.4411564 13.1647792,14.6434683 13.1647792,13.6676104 L13.1647792,13.6676104 L13.1647792,8.93786783 L14.8368632,9.1053457 L14.8794822,9.10150238 C14.9469409,9.08567634 14.9971688,9.02512191 14.9971688,8.95283614 L14.9971688,8.95283614 L14.9971688,7.427368 C14.9971688,7.3489186 14.9377239,7.28323269 14.8596638,7.27542668 L14.8596638,7.27542668 L12.1034918,7 Z" id="形状结合"></path>
        </g>
    </g>
</svg>