<?xml version="1.0" encoding="UTF-8"?>
<svg width="40px" height="40px" viewBox="0 0 40 40" version="1.1" xmlns="http://www.w3.org/2000/svg" xmlns:xlink="http://www.w3.org/1999/xlink">
    <!-- Generator: Sketch 57.1 (83088) - https://sketch.com -->
    <title>icons_outlined_wxwork_logo</title>
    <desc>Created with Sketch.</desc>
    <g id="icons_outlined_wxwork_logo" stroke="none" stroke-width="1" fill="none" fill-rule="evenodd">
        <g id="编组"></g>
        <path d="M26.1938478,26.286043 L26.2633255,26.3402557 L26.3398201,26.420501 L26.4182197,26.4995539 C27.1540362,27.2232773 28.0634505,27.6720103 29.0147056,27.8464343 C29.0472639,27.8497047 29.0795451,27.8542016 29.1119648,27.8595161 C29.1439688,27.8648306 29.1759729,27.8709627 29.2078384,27.8781849 C29.4918572,27.9423675 29.7616058,28.0829969 29.9830019,28.3006181 C30.6107527,28.9181881 30.6107527,29.9193547 29.9830019,30.5369247 C29.3551126,31.1543584 28.3372169,31.1543584 27.7093275,30.5369247 C27.5044184,30.3352469 27.3668424,30.0928248 27.2956299,29.8360945 C27.2803899,29.7810419 27.2681979,29.7254442 27.2590538,29.6693015 C27.2507411,29.618337 27.2450607,29.5670999 27.2418742,29.5157266 C27.0563614,28.6028622 26.6041481,27.7319685 25.88468,27.0243249 C25.8481039,26.9883499 25.8108351,26.9531926 25.7734277,26.9185803 C25.7545855,26.905771 25.7365745,26.8914628 25.7198105,26.8749743 C25.7101123,26.8654355 25.7011068,26.8554879 25.6926555,26.8452677 C25.5703196,26.6967348 25.5793251,26.4784322 25.7198105,26.3402557 C25.8484206,26.2137593 26.0456362,26.1956884 26.1938478,26.286043 Z M18.6630933,8 C19.1600436,8 19.6753806,8.02941117 20.1949385,8.08744097 C23.0926523,8.41145843 25.724531,9.64318302 27.6055047,11.5566257 C28.3507511,12.3150897 28.9577513,13.1626242 29.4094698,14.0757203 C30.0172986,15.3043286 30.3256325,16.6072396 30.3256325,17.9475173 C30.3256325,18.0940966 30.3214386,18.2426739 30.3131771,18.3937699 L30.2977498,18.6223681 L30.278721,18.8602674 L30.0505746,18.6012083 C29.5874795,18.1457242 28.8864181,18.0448466 28.3143706,18.3266916 L28.20179,18.3881719 L28.0477165,18.2982778 L28.0599245,17.9792679 C28.0599245,16.9539236 27.8231441,15.9553743 27.3559373,15.010654 C27.0033574,14.2981239 26.5275468,13.6345389 25.9414964,13.038202 C24.4261077,11.4966386 22.2896971,10.5015062 19.9255724,10.2370991 C19.4960076,10.1890442 19.0711503,10.1646974 18.6630933,10.1646974 C18.2745672,10.1646974 17.8678398,10.1871354 17.4541496,10.2314302 C15.0789478,10.4854552 12.9300496,11.475644 11.4033063,13.0185362 C10.814537,13.6136439 10.3360995,14.2757532 9.98103137,14.9865901 C9.50621466,15.9372762 9.26556945,16.944004 9.26556945,17.9792679 C9.26556945,19.3132529 9.6814323,20.6334834 10.4687936,21.7976686 C10.8019819,22.2905094 11.200043,22.7531645 11.6564449,23.1789304 C11.8237312,23.3349689 11.9915821,23.4806583 12.1620526,23.6170934 C12.2763131,23.7085552 12.3855126,23.7920184 12.4948291,23.8715162 C12.738505,24.0460725 12.8841075,24.3294614 12.8841075,24.6290471 C12.8841075,24.7226322 12.8689861,24.8060797 12.8396398,24.9097135 L12.3615129,26.7064644 C12.3615129,26.7283584 12.3775028,26.7447218 12.3950063,26.7447218 L12.4367774,26.7229066 L14.5890767,25.4771112 L14.6293639,25.4575503 C14.8258651,25.3572692 15.0190572,25.3069501 15.2163521,25.3069501 C15.3441526,25.3069501 15.4689779,25.3257088 15.5847007,25.3620738 C15.9982797,25.4813029 16.428534,25.5764937 16.8706804,25.647347 L17.4545532,25.7284818 C17.8552932,25.7718415 18.2619676,25.7938384 18.6630933,25.7938384 C19.0716157,25.7938384 19.4966079,25.7694858 19.9255935,25.7214343 C20.4827273,25.6592246 21.0320528,25.5542296 21.570409,25.4082193 L21.97207,25.2910489 L22.1035919,25.3954887 C22.0477091,25.9713065 22.3356639,26.5317625 22.8541715,26.8234505 C22.9126442,26.8563982 22.9729583,26.8852546 23.034883,26.9100169 L23.1289493,26.9440893 L23.4077534,27.0348636 L23.1313465,27.1324725 C22.1812639,27.46798 21.1984893,27.6953254 20.1949408,27.807457 C19.6754662,27.8655555 19.1601516,27.8950345 18.6630933,27.8950345 C18.1749936,27.8950345 17.6809796,27.8683496 17.1947924,27.8156738 C16.5312978,27.7438938 15.9175536,27.6362465 15.3644809,27.4792668 L15.0930511,27.3966035 L11.8048123,29.0189064 L11.7294337,29.0626764 C11.5771068,29.148359 11.4110801,29.1944934 11.2391191,29.1944934 C10.6916298,29.1944934 10.2479281,28.7581309 10.2479281,28.2197289 L10.2668407,28.0376851 L10.2724746,28.0091198 C10.2819203,27.9670096 10.2940595,27.925937 10.3071761,27.8908343 L10.3273695,27.8432741 L10.4603847,27.3143821 L10.9073159,25.4940267 L10.7663526,25.377569 C10.0579796,24.7731378 9.25627619,23.8922051 8.7022767,23.1205876 L8.55758358,22.9131467 C7.5387206,21.4064571 7,19.6893914 7,17.9475173 C7,16.5946489 7.31327122,15.2812671 7.93088246,14.0445766 C8.38609333,13.1334127 8.99634374,12.2879114 9.74462538,11.5317054 C11.6394004,9.61706335 14.2857871,8.39181223 17.1964273,8.08057519 C17.695809,8.02709724 18.1892496,8 18.6630933,8 Z M34.5291869,23.8403372 C35.1569377,24.4579072 35.1569377,25.4590738 34.5291869,26.0766438 C34.3241392,26.2781853 34.0776663,26.4135001 33.8166461,26.4835423 C33.7606736,26.4985319 33.7041469,26.5105235 33.6470661,26.5195172 C33.59525,26.5276934 33.5431568,26.5332804 33.490925,26.5364146 C32.562807,26.7188784 31.6773611,27.1636597 30.957893,27.8713033 C30.9213169,27.9072783 30.8855721,27.9439346 30.8503815,27.9807272 C30.8373582,27.9992597 30.8228109,28.0169746 30.8060468,28.0334632 C30.7963486,28.043002 30.7862348,28.0518594 30.7758439,28.0601718 C30.624829,28.1804972 30.4028787,28.1716397 30.2623933,28.0334632 C30.1311039,27.9043315 30.1146927,27.7048809 30.2131598,27.5581694 L30.2623933,27.4988808 L30.3439794,27.4236434 L30.4243533,27.3465323 C31.1601698,26.622809 31.6164009,25.7283408 31.7937395,24.7927195 C31.7970646,24.7606964 31.8016366,24.7289457 31.8070399,24.6970588 C31.8124432,24.6655808 31.8186777,24.6341027 31.8260207,24.6027609 C31.8912757,24.3234099 32.0342549,24.0580946 32.2555125,23.8403372 C32.8834019,23.2229034 33.9012975,23.2229034 34.5291869,23.8403372 Z M27.4412969,21.8723301 C27.5725863,22.0014618 27.5889975,22.2009124 27.4905305,22.3476238 L27.4412969,22.4069124 C27.3865714,22.4565143 27.3324,22.50707 27.2793369,22.5592609 C26.5435204,23.2829843 26.0872893,24.1774524 25.9099507,25.1130737 C25.9066256,25.1450969 25.9020536,25.1768475 25.8966503,25.2087344 C25.891247,25.2402125 25.8850125,25.2716906 25.8776695,25.3030324 C25.8124145,25.5823834 25.6694353,25.8476986 25.4481777,26.0654561 C24.8202883,26.6828899 23.8023927,26.6828899 23.1745033,26.0654561 C22.5467525,25.4478861 22.5467525,24.4467195 23.1745033,23.8291495 C23.379551,23.627608 23.6260239,23.4922931 23.8870441,23.422251 C23.9430166,23.4072614 23.9995433,23.3952698 24.0566241,23.386276 C24.1084403,23.3780999 24.1605335,23.3725129 24.2127652,23.3693787 C25.1408832,23.1869148 26.0263291,22.7421336 26.7457972,22.0344899 C26.7823733,21.998515 26.8181181,21.9618587 26.8533087,21.9250661 C26.866332,21.9065336 26.8808793,21.8888186 26.8976434,21.8723301 C26.9073416,21.8627913 26.9174554,21.8539338 26.9278464,21.8456214 C27.0788612,21.7252961 27.3008115,21.7341536 27.4412969,21.8723301 Z M29.9943765,19.3688686 C30.1992857,19.5705463 30.3368616,19.8129685 30.4080741,20.0696988 C30.4233142,20.1247514 30.4355062,20.180349 30.4446502,20.2364918 C30.452963,20.2874563 30.4586434,20.3386933 30.4618299,20.3900667 C30.6473427,21.3029311 31.099556,22.1738247 31.8190241,22.8814684 C31.8556002,22.9174433 31.892869,22.9526007 31.9302764,22.987213 L31.9578643,23.0076362 L31.9838936,23.030819 L32.0110485,23.0605255 C32.1333844,23.2090585 32.124379,23.427361 31.9838936,23.5655376 C31.8552835,23.6920339 31.6580679,23.7101048 31.5098562,23.6197503 L31.4403786,23.5655376 L31.363884,23.4852923 L31.2854844,23.4062394 C30.5496679,22.682516 29.6402536,22.233783 28.6889984,22.059359 C28.6564402,22.0560885 28.624159,22.0515916 28.5917393,22.0462772 C28.5597352,22.0409627 28.5277312,22.0348306 28.4958656,22.0276083 C28.2118468,21.9634258 27.9420983,21.8227964 27.7207021,21.6051752 C27.0929513,20.9876052 27.0929513,19.9864386 27.7207021,19.3688686 C28.3485915,18.7514348 29.3664872,18.7514348 29.9943765,19.3688686 Z" id="形状结合" fill="#FFFFFF"></path>
    </g>
</svg>