<?xml version="1.0" encoding="UTF-8"?>
<svg width="24px" height="24px" viewBox="0 0 24 24" version="1.1" xmlns="http://www.w3.org/2000/svg" xmlns:xlink="http://www.w3.org/1999/xlink">
    <title>icons_outlined_conch</title>
    <g id="icons_outlined_conch" stroke="none" stroke-width="1" fill="none" fill-rule="evenodd">
        <g id="编组-9" transform="translate(12.000000, 12.000000) rotate(-90.000000) translate(-12.000000, -12.000000) " fill="#000000" fill-rule="nonzero">
            <path d="M8.73381176,3.62743702 L8.83655366,3.62669111 C9.89694747,3.64175896 10.9671949,4.16918654 12.0157509,5.18716953 L12.2061509,5.3781361 C12.2951555,5.37479335 12.3843575,5.37311041 12.4737131,5.37311041 L12.4737131,5.37311041 L12.5557677,5.37874769 C15.2051671,5.74450964 16.045978,6.96120292 15.9810182,9.36237559 L15.9810182,9.36237559 L15.9774125,9.45931537 C17.4677611,10.5028638 18.5032521,11.7565137 19.0693282,13.2179636 C19.6651639,14.7562445 19.7122741,16.4223038 19.2191868,18.1990293 C19.7241786,19.3295088 19.7406956,20.4370205 19.2729608,21.9062733 C19.1354813,22.3381252 18.5872212,22.4674993 18.2711848,22.1426645 C17.5130396,21.3634128 16.5192504,20.8684561 14.7429654,20.3324309 L14.7429654,20.3324309 L14.1553845,20.1614152 C13.9504287,20.1037019 13.7361647,20.045154 13.5119548,19.9853922 L13.5119548,19.9853922 L12.6133627,19.7468107 L11.9650335,19.5671356 C11.8601814,19.5372653 11.7569147,19.5074134 11.6552095,19.4775509 L11.6552095,19.4775509 L11.0635253,19.2980162 C10.9679706,19.267995 10.8739295,19.2379052 10.7813782,19.2077177 L10.7813782,19.2077177 L10.2437565,19.0251873 C7.38305829,18.0122647 6.09264586,16.8296714 5.51314613,14.4339118 C5.14724538,12.9212101 5.22180407,11.5207267 5.6172125,10.295509 C4.90706915,8.61372555 4.77565894,7.17625949 5.24332643,6.02901466 L5.30732824,6.16330507 C4.53471924,4.56686167 4.50491373,3.38112043 5.38328217,2.71250403 C6.21359085,2.08047086 7.3285714,2.44297597 8.73381176,3.62743702 Z M12.3916586,6.56747314 L12.434,6.574 L12.275555,6.5764133 C8.78108177,6.69288059 5.64551989,9.87707811 6.67950995,14.1517852 C7.10577313,15.9140364 8.04256427,16.8796473 10.1658994,17.7140626 L10.1658994,17.7140626 L10.6393075,17.8911003 C10.8853386,17.9788576 11.1455451,18.0656545 11.4207584,18.1523094 L11.4207584,18.1523094 L11.9914404,18.3256725 L12.6036188,18.5001121 C12.8147586,18.5585997 13.0330608,18.6175092 13.2587718,18.6770832 L13.2587718,18.6770832 L13.8199829,18.8256001 C13.9429206,18.8583684 14.0631669,18.8908304 14.1808161,18.9230484 L14.1808161,18.9230484 L14.8563037,19.1139241 L15.4739973,19.3019261 C16.6546131,19.677046 17.515667,20.05283 18.2203672,20.5367196 L18.2203672,20.5367196 L18.35,20.63 L18.3697101,20.5047161 C18.5407745,19.1511484 18.008584,18.1426255 16.6557121,16.5882868 L16.6557121,16.5882868 L16.1914555,16.0633392 L15.8256055,15.6373273 C15.2077375,14.8948248 14.8722183,14.345673 14.6810438,13.6845207 C14.5151403,13.1107647 14.4855016,12.5993666 14.5588678,11.7184007 L14.5588678,11.7184007 L14.6039806,11.2451208 L14.7290902,10.1315115 L14.7330677,10.07948 L14.6994703,10.0575996 L14.7410677,9.98847996 L14.7667876,9.69600362 C14.9086219,7.6777388 14.4468733,6.89894579 12.5888781,6.59703539 L12.3916586,6.56747314 Z M15.8564482,10.8708656 L15.7804075,11.540858 L15.7469716,11.9281357 C15.7426046,11.987942 15.7388456,12.0455096 15.7357022,12.1010354 L15.7357022,12.1010354 L15.724292,12.4112644 C15.7190938,12.7964353 15.7542866,13.0761373 15.8338195,13.3511916 C15.9585464,13.7825435 16.1944785,14.1848749 16.6355393,14.7321083 L16.6355393,14.7321083 L16.9255426,15.0792281 L17.5652221,15.8055828 C17.8375849,16.1190036 18.0826454,16.416972 18.3004694,16.7045134 C18.4372278,15.6185343 18.3190626,14.6033363 17.9503376,13.6513919 C17.547324,12.6109236 16.8522843,11.6845437 15.8564482,10.8708656 Z M7.30344927,5.35248902 C6.25634825,6.08301405 5.92083956,7.18172392 6.34117914,8.74517862 C7.3261712,7.17507659 8.90351583,6.05789183 10.6772601,5.60153111 C9.48293624,4.65141129 8.39287147,4.59243801 7.30344927,5.35248902 Z M5.98897186,3.50820499 C5.68577925,3.73899601 5.62957248,4.21757339 5.89857677,4.99427826 C6.10349683,4.76841268 6.34290987,4.55944192 6.61683803,4.36833202 C6.89397146,4.17498591 7.17342677,4.01978919 7.4545909,3.90231809 C6.74085369,3.41301816 6.25164951,3.30825406 5.98897186,3.50820499 Z" id="形状结合"></path>
        </g>
    </g>
</svg>