<?xml version="1.0" encoding="UTF-8"?>
<svg width="24px" height="24px" viewBox="0 0 24 24" version="1.1" xmlns="http://www.w3.org/2000/svg" xmlns:xlink="http://www.w3.org/1999/xlink">
    <title>tab-心选中</title>
    <g id="tab-心选中" stroke="none" stroke-width="1" fill="none" fill-rule="evenodd">
        <g id="0.图标/面型/icons_filled_like" fill="#000000" fill-rule="nonzero">
            <g id="Path">
                <path d="M11.6066017,6.46446609 L11.992781,6.84163553 L12.3137085,7.14654555 L12.7760574,6.70521964 C12.8661066,6.61783996 12.9476926,6.53758878 13.0208153,6.46446609 C14.9734367,4.51184464 18.1392616,4.51184464 20.0918831,6.46446609 C22.0263413,8.39892429 22.0443356,11.5241205 20.145866,13.4807312 L13.0208153,20.6066017 C12.6303114,20.9971464 11.9971464,20.9971796 11.6066017,20.6066757 L4.48114108,13.4811411 C2.5830814,11.5241205 2.60107571,8.39892429 4.53553391,6.46446609 C6.48815536,4.51184464 9.65398026,4.51184464 11.6066017,6.46446609 Z M18.5362482,8.02010101 C17.4427802,6.926633 15.6699182,6.926633 14.5764502,8.02010101 L14.2950912,8.29661403 L12.3235606,10.1784994 L10.4556144,8.41552204 L10.0509668,8.02010101 C8.95749878,6.926633 7.18463684,6.926633 6.09116882,8.02010101 C5.05419787,9.05707197 4.99951605,10.7079521 5.91224714,11.7879763 L6.03678407,11.9255142 L12.314,18.202 L18.5669491,11.948732 C19.5863841,10.8980766 19.617452,9.24685756 18.6659314,8.15874031 L18.5362482,8.02010101 Z"></path>
            </g>
        </g>
    </g>
</svg>