<?xml version="1.0" encoding="UTF-8"?>
<svg width="80px" height="80px" viewBox="0 0 80 80" version="1.1" xmlns="http://www.w3.org/2000/svg" xmlns:xlink="http://www.w3.org/1999/xlink">
    <title>画板</title>
    <g id="画板" stroke="none" stroke-width="1" fill="none" fill-rule="evenodd">
        <g id="编组-5" transform="translate(4.000000, 5.000000)" fill="#FFFFFF">
            <g id="路径-3" transform="translate(10.944563, 7.428236)">
                <path d="M26.5997059,44.5007384 L13.1740121,20.6898571 C11.8885471,18.4100454 12.5828772,15.5244517 14.7647268,14.0789435 C16.9159811,12.6537051 19.8120051,13.210377 21.2815598,15.331605 L29.5850004,27.3172015 L35.8952214,25.5195702 C45.0325242,22.9165708 54.5602667,28.1643902 57.2439608,37.2783188 L59.967998,46.5292543 C61.1935514,50.6912811 59.2358216,55.1300355 55.3359529,57.0314749 L43.9180353,62.5984519 C41.2855604,63.8819545 38.1898293,63.7865996 35.641339,62.3435127 L18.3633799,52.559839 C16.0831307,51.268644 14.9125581,48.6405042 15.4780676,46.0818093 C15.9808611,43.8068781 18.232652,42.3702766 20.5075832,42.8730701 L20.688755,42.9173339 L20.688755,42.9173339 L26.5997059,44.5007384 Z" id="路径-2"></path>
            </g>
            <path d="M27.9817758,31.6018881 C28.6224835,31.6018881 29.1418798,32.176723 29.1418798,32.8858177 L29.1418798,32.8858177 L29.141983,43.5857063 L32.383197,43.5852309 C32.4432305,43.5852309 32.5024395,43.6007001 32.5561351,43.6304136 C32.7471572,43.7361192 32.8245843,43.9931931 32.7290732,44.2046043 L32.7290732,44.2046043 L28.327652,53.9470329 C28.2902333,54.0298581 28.2295512,54.0970173 28.1547139,54.1384298 C27.9636918,54.2441355 27.7314107,54.1584441 27.6358997,53.9470329 L27.6358997,53.9470329 L23.2344785,44.2046043 C23.2076307,44.1451775 23.1936533,44.0796487 23.1936533,44.0132074 C23.1936533,43.7768425 23.3667854,43.5852309 23.5803546,43.5852309 L23.5803546,43.5852309 L26.821983,43.5857063 L26.8216719,32.8858177 L26.8269825,32.7621667 C26.8831971,32.1110844 27.3787568,31.6018881 27.9817758,31.6018881 Z M10.5532927,22.0387197 C10.5830061,22.0924153 10.5984754,22.1516243 10.5984754,22.2116578 L10.598,25.4528718 L23.8982651,25.4529751 C24.6073598,25.4529751 25.1821947,25.9723713 25.1821947,26.613079 C25.1821947,27.216098 24.6729984,27.7116577 24.0219161,27.7678723 L23.8982651,27.7731829 L10.598,27.7728718 L10.5984754,31.0145002 C10.5984754,31.2280694 10.4068638,31.4012015 10.1704989,31.4012015 C10.1040576,31.4012015 10.0385288,31.3872242 9.97910195,31.3603764 L0.236673357,26.9589552 C0.025262155,26.8634441 -0.0604291658,26.6311631 0.0452764353,26.4401409 C0.0866890282,26.3653036 0.153848171,26.3046215 0.236673357,26.2672028 L9.97910195,21.8657816 C10.1905132,21.7702706 10.4475871,21.8476976 10.5532927,22.0387197 Z M43.4467073,22.0387197 C43.5524129,21.8476976 43.8094868,21.7702706 44.0208981,21.8657816 L44.0208981,21.8657816 L53.7633266,26.2672028 C53.8461518,26.3046215 53.913311,26.3653036 53.9547236,26.4401409 C54.0604292,26.6311631 53.9747378,26.8634441 53.7633266,26.9589552 L53.7633266,26.9589552 L44.0208981,31.3603764 C43.9614712,31.3872242 43.8959424,31.4012015 43.8295011,31.4012015 C43.5931362,31.4012015 43.4015246,31.2280694 43.4015246,31.0145002 L43.4015246,31.0145002 L43.402,27.7728718 L32.7021114,27.7731829 L32.5784604,27.7678723 C31.9273781,27.7116577 31.4181818,27.216098 31.4181818,26.613079 C31.4181818,25.9723713 31.9930167,25.4529751 32.7021114,25.4529751 L32.7021114,25.4529751 L43.402,25.4528718 L43.4015246,22.2116578 C43.4015246,22.1516243 43.4169939,22.0924153 43.4467073,22.0387197 Z M28.1547139,0.0452764353 C28.2295512,0.0866890282 28.2902333,0.153848171 28.327652,0.236673357 L32.7290732,9.97910195 C32.8245843,10.1905132 32.7471572,10.4475871 32.5561351,10.5532927 C32.5024395,10.5830061 32.4432305,10.5984754 32.383197,10.5984754 L29.141983,10.598 L29.1418798,21.2978886 C29.1418798,22.0069833 28.6224835,22.5818182 27.9817758,22.5818182 C27.3787568,22.5818182 26.8831971,22.0726219 26.8269825,21.4215396 L26.8216719,21.2978886 L26.821983,10.598 L23.5803546,10.5984754 C23.3667854,10.5984754 23.1936533,10.4068638 23.1936533,10.1704989 C23.1936533,10.1040576 23.2076307,10.0385288 23.2344785,9.97910195 L27.6358997,0.236673357 C27.7314107,0.025262155 27.9636918,-0.0604291658 28.1547139,0.0452764353 Z" id="形状结合" fill-rule="nonzero" opacity="0.5"></path>
        </g>
    </g>
</svg>