<?xml version="1.0" encoding="UTF-8"?>
<svg width="32px" height="32px" viewBox="0 0 32 32" version="1.1" xmlns="http://www.w3.org/2000/svg" xmlns:xlink="http://www.w3.org/1999/xlink">
    <title>点击私密赞</title>
    <g id="点击私密赞" stroke="none" stroke-width="1" fill="none" fill-rule="evenodd" fill-opacity="0.9">
        <path d="M22.13,15.5 C24.186854,15.5 25.33,17.1326888 25.33,18.9 L25.33,19.2 L26.1346024,19.2 C26.6843453,19.2 27.13,19.6466987 27.13,20.1959421 L27.13,25.7040579 C27.13,26.2541015 26.6743356,26.7 26.1346024,26.7 L18.1253976,26.7 C17.5756547,26.7 17.13,26.2533013 17.13,25.7040579 L17.13,20.1959421 C17.13,19.6458985 17.5856644,19.2 18.1253976,19.2 L18.93,19.2 L18.93,18.9 C18.93,17.1326888 20.073146,15.5 22.13,15.5 Z M25.2297865,8.41732564 C23.25113,6.43866923 20.0430942,6.43866923 18.0644377,8.41732564 C17.8080846,8.67367875 17.4829216,8.98733299 17.0874649,9.35992693 L15.9902578,10.3937004 L14.8930508,9.35992693 C14.4975941,8.98733299 14.1724311,8.67367875 13.916078,8.41732564 C11.9374215,6.43866923 8.72938565,6.43866923 6.75072924,8.41732564 C4.79269599,10.3753589 4.77009071,13.5424938 6.67821135,15.5101565 L15.9902012,24.822243 L15.9996667,24.8113333 L16.0003144,26.5326712 C15.6557472,26.5352667 15.3103645,26.4051225 15.0474488,26.1422343 L5.54683462,16.6415214 C3.01608839,14.0321607 3.04008079,9.86523239 5.61935839,7.28595479 C8.22285367,4.68245951 12.4439535,4.68245951 15.0474488,7.28595479 C15.2911911,7.52969707 15.6054608,7.83284349 15.9902578,8.19539407 C16.3750549,7.83284349 16.6893246,7.52969707 16.9330669,7.28595479 C19.5365622,4.68245951 23.757662,4.68245951 26.3611573,7.28595479 C28.9404349,9.86523239 28.9644273,14.0321607 26.4331345,16.6409749 L26.2360855,16.8381779 C25.9969793,16.3233884 25.6951464,15.8597481 25.3436615,15.4635965 L25.2848313,15.5267937 C27.2103206,13.5423358 27.1878437,10.3753829 25.2297865,8.41732564 Z M25.63,20.7 L18.63,20.7 L18.63,25.2 L25.63,25.2 L25.63,20.7 Z M22.13,17 C20.91,17 20.53,18.178738 20.53,18.9 L20.53,19.2 L23.63,19.2 L23.63,18.9 C23.63,18.178738 23.35,17 22.13,17 Z" id="形状结合" fill="#000000"></path>
    </g>
</svg>