<?xml version="1.0" encoding="UTF-8"?>
<svg width="24px" height="24px" viewBox="0 0 24 24" version="1.1" xmlns="http://www.w3.org/2000/svg" xmlns:xlink="http://www.w3.org/1999/xlink">
    <title>icons_outlined_activitie</title>
    <defs>
        <filter id="filter-1">
            <feColorMatrix in="SourceGraphic" type="matrix" values="0 0 0 0 0.000000 0 0 0 0 0.000000 0 0 0 0 0.000000 0 0 0 0.900000 0"></feColorMatrix>
        </filter>
    </defs>
    <g id="icons_outlined_activitie" stroke="none" stroke-width="1" fill="none" fill-rule="evenodd">
        <g filter="url(#filter-1)" id="编组">
            <g transform="translate(2.000000, 2.000000)">
                <circle id="椭圆形" stroke="#979797" stroke-width="1.2" cx="10" cy="10" r="9.4"></circle>
                <path d="M10,0.6 C11.5881499,0.6 13.0843768,0.993690196 14.3961901,1.68914016 C14.4,5.42416545 13.0120827,8.52416545 10.7681241,10.7681241 C8.52416545,13.0120827 5.42416545,14.4 2,14.4 C0.993686732,13.0843652 0.6,11.5881436 0.6,10 C0.6,7.40426168 1.65213084,5.05426168 3.35319626,3.35319626 C5.05426168,1.65213084 7.40426168,0.6 10,0.6 Z" id="形状结合" stroke="#979797" stroke-width="1.2"></path>
                <path d="M3.5,9.6 C5.68152476,9.6 7.65652476,10.4842376 9.08614357,11.9138564 C10.5157624,13.3434752 11.4,15.3184752 11.4,17.5 C11.4,18.1284911 11.3266949,18.7398577 11.1879656,19.3259032 C10.7990004,19.3747403 10.4024509,19.4 10,19.4 C7.40426168,19.4 5.05426168,18.3478692 3.35319626,16.6468037 C1.72335465,15.0169621 0.689243335,12.7913902 0.605576984,10.3249089 C1.50024568,9.79362339 2.4780882,9.6 3.5,9.6 Z" id="形状结合" stroke="#979797" stroke-width="1.2"></path>
                <path d="M10,0.6 C12.5957383,0.6 14.9457383,1.65213084 16.6468037,3.35319626 C18.3478692,5.05426168 19.4,7.40426168 19.4,10 C19.4,10.292114 19.3866925,10.5811185 19.3605277,10.8664531 C18.4734767,11.2110641 17.508798,11.4 16.5,11.4 C14.3184752,11.4 12.3434752,10.5157624 10.9138564,9.08614357 C9.48423762,7.65652476 8.6,5.68152476 8.6,3.5 C8.6,2.49107371 8.78898344,1.52627767 9.13373499,0.63930058 C9.41895728,0.613303779 9.70792447,0.6 10,0.6 Z" id="形状结合" stroke="#979797" stroke-width="1.2"></path>
            </g>
        </g>
    </g>
</svg>