<?xml version="1.0" encoding="UTF-8"?>
<svg width="24px" height="24px" viewBox="0 0 24 24" version="1.1" xmlns="http://www.w3.org/2000/svg" xmlns:xlink="http://www.w3.org/1999/xlink">
    <!-- Generator: Sketch 61 (89581) - https://sketch.com -->
    <title>icons_filled_whatsapp</title>
    <desc>Created with Sketch.</desc>
    <g id="icons_filled_whatsapp" stroke="none" stroke-width="1" fill="none" fill-rule="evenodd">
        <path d="M19.0835322,4.90805417 C17.202864,3.0358755 14.7064439,2.00475172 12.0429594,2 C6.55369928,2 2.09069212,6.44761226 2.08591885,11.9073414 C2.08591885,13.6559753 2.54415274,15.3570919 3.41288783,16.863388 L2,22 L7.27923628,20.6220005 C8.73508353,21.4107864 10.372315,21.828938 12.0381862,21.828938 L12.0429594,21.828938 L12.0429594,21.828938 C17.5274463,21.828938 21.9952267,17.3813257 22,11.9168449 C22,9.27013542 20.9642005,6.78023283 19.0835322,4.90805417 L19.0835322,4.90805417 Z M12.0429594,20.1563317 L12.0429594,20.1563317 C10.5536993,20.1563317 9.09785203,19.757187 7.82816229,19.0064148 L7.5274463,18.8258494 L4.39618138,19.6431456 L5.23150358,16.6020432 L5.03579952,16.2884296 C4.2052506,14.9769541 3.77088305,13.4611547 3.77088305,11.9073414 C3.77088305,7.3646947 7.48448687,3.67260632 12.0477327,3.67260632 C14.2577566,3.67260632 16.3341289,4.53266809 17.8997613,6.08648135 C19.4606205,7.64504633 20.3198091,9.71204562 20.3198091,11.9120931 C20.3150358,16.4594916 16.601432,20.1563317 12.0429594,20.1563317 L12.0429594,20.1563317 Z M16.5823389,13.9838441 C16.3341289,13.8602994 15.1121718,13.2615823 14.8830549,13.1760513 C14.6539379,13.095272 14.4868735,13.0525065 14.3245823,13.2995961 C14.1575179,13.5466857 13.6801909,14.1073889 13.5369928,14.2689475 C13.3937947,14.4352578 13.2458234,14.4542647 12.9976134,14.3307199 C12.7494033,14.2071751 11.947494,13.9458304 10.9976134,13.1000238 C10.2577566,12.4442861 9.76133652,11.6317415 9.61336516,11.3846519 C9.47016706,11.1375624 9.59904535,11.0045141 9.72315036,10.8809694 C9.83293556,10.7716797 9.97136038,10.5911143 10.0954654,10.4485626 C10.2195704,10.3060109 10.2625298,10.201473 10.3436754,10.0351627 C10.424821,9.86885246 10.3866348,9.72630078 10.3245823,9.602756 C10.2625298,9.47921121 9.76610979,8.25801853 9.55608592,7.76383939 C9.35560859,7.2791637 9.150358,7.34568781 8.99761337,7.34093609 C8.85441527,7.33143264 8.68735084,7.33143264 8.5202864,7.33143264 C8.35322196,7.33143264 8.08591885,7.39320504 7.85680191,7.64029461 C7.62768496,7.88738418 6.98806683,8.48610121 6.98806683,9.70729389 C6.98806683,10.9284866 7.88066826,12.102162 8.00477327,12.2684723 C8.12887828,12.4347826 9.75656325,14.9341886 12.2529833,16.0080779 C12.8448687,16.2646709 13.3078759,16.4167261 13.6706444,16.5307674 C14.2673031,16.7208363 14.8066826,16.692326 15.2362768,16.6305536 C15.7136038,16.5592777 16.7064439,16.0318365 16.9164678,15.4521264 C17.1217184,14.8724163 17.1217184,14.3782371 17.0596659,14.2736992 C16.9976134,14.1691613 16.8305489,14.1073889 16.5823389,13.9838441 L16.5823389,13.9838441 Z" id="Shape" fill="#000000"></path>
    </g>
</svg>