<?xml version="1.0" encoding="UTF-8"?>
<svg width="24px" height="24px" viewBox="0 0 24 24" version="1.1" xmlns="http://www.w3.org/2000/svg" xmlns:xlink="http://www.w3.org/1999/xlink">
    <!-- Generator: Sketch 59.1 (86144) - https://sketch.com -->
    <title>列表</title>
    <desc>Created with Sketch.</desc>
    <g id="0924-暗夜模式" stroke="none" stroke-width="1" fill="none" fill-rule="evenodd" opacity="0.800000012">
        <path d="M20.7,18.3 C20.8656854,18.3 21,18.4343146 21,18.6 L21,19.4 C21,19.5656854 20.8656854,19.7 20.7,19.7 L3.3,19.7 C3.13431458,19.7 3,19.5656854 3,19.4 L3,18.6 C3,18.4343146 3.13431458,18.3 3.3,18.3 L20.7,18.3 Z M20.7,11.3 C20.8656854,11.3 21,11.4343146 21,11.6 L21,12.4 C21,12.5656854 20.8656854,12.7 20.7,12.7 L3.3,12.7 C3.13431458,12.7 3,12.5656854 3,12.4 L3,11.6 C3,11.4343146 3.13431458,11.3 3.3,11.3 L20.7,11.3 Z M20.7,4.3 C20.8656854,4.3 21,4.43431458 21,4.6 L21,5.4 C21,5.56568542 20.8656854,5.7 20.7,5.7 L3.3,5.7 C3.13431458,5.7 3,5.56568542 3,5.4 L3,4.6 C3,4.43431458 3.13431458,4.3 3.3,4.3 L20.7,4.3 Z" id="形状结合备份" fill="#020202"></path>
    </g>
</svg>