<?xml version="1.0" encoding="UTF-8"?>
<svg width="24px" height="24px" viewBox="0 0 24 24" version="1.1" xmlns="http://www.w3.org/2000/svg" xmlns:xlink="http://www.w3.org/1999/xlink">
    <title>icons_fiied_doodle</title>
    <g id="icons_fiied_doodle" stroke="none" stroke-width="1" fill="none" fill-rule="evenodd">
        <g id="编组">
            <rect id="矩形" x="0" y="0" width="24" height="24"></rect>
            <path d="M16.5730284,16.9267531 L16.7011075,16.6932289 C16.7387266,16.6220156 16.771893,16.5561923 16.8024705,16.4920451 L16.9040241,16.2653022 C16.9307839,16.2004485 16.9508802,16.145841 16.9655968,16.100036 L16.9828099,16.0386645 L16.9438706,16.0556481 C16.7265224,16.148457 16.3181162,16.3612788 15.7431597,16.7470609 L15.3238061,17.037394 L14.2508865,17.7927504 C13.8309167,18.0797974 13.6261404,18.196108 13.315362,18.3444493 C12.3956007,18.7834714 11.5095155,18.7617923 10.994085,17.9321529 L10.9158306,17.7943922 L10.859782,17.6648396 C10.2651714,15.9714118 11.1064285,14.3317555 13.6474089,10.9534102 L14.5271897,9.79074067 C16.6340246,6.98060221 17.3325698,5.68637979 17.0927988,5.16186487 L17.0638099,5.11066448 L16.9505611,5.0690085 C14.3450526,4.27524518 5.93292904,12.0644864 3.92500406,16.3492216 L3.83561974,16.5474556 L2,15.7534152 C2.83474059,13.823707 5.78458438,10.1759008 8.79050588,7.40129312 L9.31605401,6.92464451 C12.8825813,3.74859214 15.9355558,2.24930586 18.0550561,3.36858914 L18.2084695,3.45517481 L18.3827675,3.58806714 C19.4169122,4.57339171 19.3091997,5.92461873 18.4609933,7.55145763 L18.2562302,7.92987574 C17.8827347,8.59387158 17.438951,9.24128967 16.6085619,10.3533363 L15.4695137,11.8594039 C13.7806358,14.0860356 12.9138513,15.4888492 12.7331862,16.3639076 L12.7278099,16.3936645 L12.9579701,16.2501867 C13.0446019,16.1935636 13.1434313,16.1266793 13.2613153,16.0451423 L14.4273434,15.2236097 C16.0809238,14.0789163 17.1098494,13.6541282 18.129395,14.2695366 L18.2623766,14.3557326 L18.3984588,14.4690716 C19.1955825,15.2625904 19.1393561,16.2376054 18.6078504,17.3526282 C18.5457629,17.482879 18.4797773,17.6108803 18.4019925,17.7530576 L18.2428099,18.0346645 L18.2861729,18.0161062 C18.7271402,17.8125173 19.2628773,17.5208728 19.8880683,17.1419688 L20.1614687,16.9742413 L21.2161433,18.6735534 L20.7019406,18.9871699 C18.3716171,20.3809191 17.0002224,20.7901648 16.1207923,19.9050754 C15.6190957,19.4001502 15.6416413,18.8029081 15.9098002,18.1560669 C15.9634016,18.0267718 16.0272972,17.8946726 16.106846,17.7454516 L16.3147557,17.3748243 L16.5730284,16.9267531 Z" id="路径-4备份-3" fill="#000000"></path>
        </g>
    </g>
</svg>