<?xml version="1.0" encoding="UTF-8"?>
<svg width="24px" height="24px" viewBox="0 0 24 24" version="1.1" xmlns="http://www.w3.org/2000/svg" xmlns:xlink="http://www.w3.org/1999/xlink">
    <title>PauseBtn_Black_Small</title>
    <g id="样式-20200907" stroke="none" stroke-width="1" fill="none" fill-rule="evenodd">
        <g id="画板备份-2" transform="translate(-580.000000, -160.000000)">
            <g id="编组-6" transform="translate(66.000000, 70.000000)">
                <g id="PauseBtn_Black_Small" transform="translate(514.000000, 90.000000)">
                    <g id="编组-2备份">
                        <circle id="椭圆形" stroke="#000000" stroke-width="0.8" cx="12" cy="12" r="11.6"></circle>
                        <g id="0.图标/面型/icons_filled_pause" transform="translate(5.500000, 5.500000)" fill="#000000" fill-opacity="0.9">
                            <g id="Group">
                                <path d="M3.52083333,2.4375 L4.60416667,2.4375 C4.90332091,2.4375 5.14583333,2.68001243 5.14583333,2.97916667 L5.14583333,10.0208333 C5.14583333,10.3199876 4.90332091,10.5625 4.60416667,10.5625 L3.52083333,10.5625 C3.22167909,10.5625 2.97916667,10.3199876 2.97916667,10.0208333 L2.97916667,2.97916667 C2.97916667,2.68001243 3.22167909,2.4375 3.52083333,2.4375 Z M8.39583333,2.4375 L9.47916667,2.4375 C9.77832091,2.4375 10.0208333,2.68001243 10.0208333,2.97916667 L10.0208333,10.0208333 C10.0208333,10.3199876 9.77832091,10.5625 9.47916667,10.5625 L8.39583333,10.5625 C8.09667909,10.5625 7.85416667,10.3199876 7.85416667,10.0208333 L7.85416667,2.97916667 C7.85416667,2.68001243 8.09667909,2.4375 8.39583333,2.4375 Z" id="形状"></path>
                            </g>
                        </g>
                    </g>
                </g>
            </g>
        </g>
    </g>
</svg>