<?xml version="1.0" encoding="UTF-8"?>
<svg width="32px" height="32px" viewBox="0 0 32 32" version="1.1" xmlns="http://www.w3.org/2000/svg" xmlns:xlink="http://www.w3.org/1999/xlink">
    <!-- Generator: Sketch 63.1 (92452) - https://sketch.com -->
    <title>画板</title>
    <desc>Created with Sketch.</desc>
    <g id="画板" stroke="none" stroke-width="1" fill="none" fill-rule="evenodd">
        <g id="编组">
            <path d="M10.5046667,13.3326667 L12.1046667,14.9326667 L4.26666667,14.9333333 L4.26666667,27.7333333 L17.0666667,27.7333333 L17.0656667,19.8946667 L18.6666667,21.4956667 L18.6666667,27.9967023 C18.6666667,28.7256521 18.0682366,29.3333333 17.3300356,29.3333333 L4.00329773,29.3333333 C3.27434794,29.3333333 2.66666667,28.7349032 2.66666667,27.9967023 L2.66666667,14.6699644 C2.66666667,13.9410146 3.26509678,13.3333333 4.00329773,13.3333333 L10.5046667,13.3326667 Z M11.0869514,16.51691 C11.3282475,16.9705467 11.5984991,17.5786129 11.6950176,17.9839903 L10.9132182,18.2252865 L14.9669928,18.2252865 L14.9669928,19.5958483 L13.5095643,19.5958483 C13.0559276,20.9084991 12.4382096,21.9991575 11.6467584,22.896779 C12.6119428,23.5917118 13.7798159,24.1032596 15.1793333,24.4121186 C14.8608225,24.7209776 14.4457932,25.3386956 14.2334526,25.7247694 C12.7470686,25.3386956 11.5405881,24.7402813 10.5464481,23.9391782 C9.4943971,24.7692368 8.22035367,25.377303 6.69536229,25.8019841 C6.54093278,25.4641696 6.11625164,24.8078442 5.846,24.4796815 C7.32273216,24.1515188 8.52921269,23.6496229 9.50404895,22.9353864 C8.70294588,22.0088094 8.08522785,20.8988473 7.58333195,19.5958483 L6.05834057,19.5958483 L6.05834057,18.2252865 L10.0349004,18.2252865 C9.93838194,17.8392127 9.76464874,17.3469686 9.5812637,16.9608949 L11.0869514,16.51691 Z M11.9266618,19.5958483 L9.04076043,19.5958483 C9.41718235,20.483818 9.92873009,21.2752692 10.5754037,21.9605502 C11.1448625,21.3042248 11.5984991,20.5224254 11.9266618,19.5958483 Z M27.9967023,2.66666667 C28.7256521,2.66666667 29.3333333,3.26509678 29.3333333,4.00329773 L29.3333333,17.3300356 C29.3333333,18.0589854 28.7349032,18.6666667 27.9967023,18.6666667 L18.6666667,18.6666667 L17.0656667,17.0656667 L17.0666667,14.9333333 L14.9326667,14.9326667 L13.3326667,13.3326667 L13.3333333,4.00329773 C13.3333333,3.27434794 13.9317634,2.66666667 14.6699644,2.66666667 L27.9967023,2.66666667 Z M27.7333333,4.26666667 L14.9333333,4.26666667 L14.9326667,13.3326667 L17.3300356,13.3333333 C17.6301914,13.3333333 17.9097861,13.4347973 18.1348609,13.6057039 L18.1846667,13.6476667 L18,14.1822917 L18.5726667,14.1816667 L18.6125668,14.2947309 C18.6477423,14.4137756 18.6666667,14.5396936 18.6666667,14.6699644 L18.6666667,17.0656667 L27.7333333,17.0666667 L27.7333333,4.26666667 Z M22.4583333,6.66666667 L25.0729167,14.1822917 L23.4010417,14.1822917 L22.828125,12.359375 L20.1875,12.359375 L19.6145833,14.1822917 L18.5726667,14.1816667 C18.4958855,13.9877667 18.3770307,13.8188893 18.2278846,13.6831079 L18.1846667,13.6476667 L20.609375,6.66666667 L22.4583333,6.66666667 Z M21.5260417,8.10416667 L21.4895833,8.10416667 L20.5260417,11.1822917 L22.4895833,11.1822917 L21.5260417,8.10416667 Z" id="形状结合" fill-opacity="0.9" fill="#000000"></path>
            <polygon id="Path" fill="#181818" points="4.41421356 4.41421356 5.82842712 3 28.4558441 25.627417 27.0416306 27.0416306"></polygon>
        </g>
    </g>
</svg>