<?xml version="1.0" encoding="UTF-8"?>
<svg width="24px" height="24px" viewBox="0 0 24 24" version="1.1" xmlns="http://www.w3.org/2000/svg" xmlns:xlink="http://www.w3.org/1999/xlink">
    <!-- Generator: Sketch 62 (91390) - https://sketch.com -->
    <title>0.图标/线型/icons_outlined_transfer</title>
    <desc>Created with Sketch.</desc>
    <g id="0.图标/线型/icons_outlined_transfer" stroke="none" stroke-width="1" fill="none" fill-rule="evenodd" fill-opacity="0.9">
        <path d="M19.5,13.5 C19.7761424,13.5 20,13.7238576 20,14 C20,14.1440366 19.9378842,14.2810765 19.8295643,14.3760151 L14.8968238,18.6993921 C14.7306899,18.8450028 14.4779709,18.8283654 14.3323603,18.6622315 C14.2120873,18.5250065 14.1999274,18.3237793 14.3028011,18.1730699 L16.4687255,15 L3.99890739,15 L3.99890739,13.5 L19.5,13.5 Z M9.66654714,5.33776853 C9.78682014,5.47499355 9.79897995,5.67622067 9.69610634,5.82693006 L7.53018187,9 L20,9 L20,10.5 L4.49890739,10.5 C4.22276502,10.5 3.99890739,10.2761424 3.99890739,10 C3.99890739,9.85596341 4.06102322,9.71892351 4.1693431,9.62398487 L9.1020836,5.30060787 C9.26821754,5.1549972 9.52093647,5.1716346 9.66654714,5.33776853 Z" id="Combined-Shape" fill="#000000"></path>
    </g>
</svg>