<?xml version="1.0" encoding="UTF-8"?>
<svg width="24px" height="24px" viewBox="0 0 24 24" version="1.1" xmlns="http://www.w3.org/2000/svg" xmlns:xlink="http://www.w3.org/1999/xlink">
    <!-- Generator: Sketch 59.1 (86144) - https://sketch.com -->
    <title>Icons_outlined_ChangeNote</title>
    <desc>Created with Sketch.</desc>
    <g id="Icons_outlined_ChangeNote" stroke="none" stroke-width="1" fill="none" fill-rule="evenodd">
        <g id="1.iOS/3.Element/Alert" transform="translate(15.000000, 12.000000)"></g>
        <path d="M20,17.7711432 L20,18.9711432 L4,18.9711432 L4,17.7711432 L20,17.7711432 Z M16.4995133,4.6376889 C16.9225879,4.99269069 16.9777719,5.62344629 16.6227701,6.04652095 L9.74524367,14.2428378 C9.38046111,14.6775687 8.8907863,14.9895739 8.34264296,15.1365303 L7.91443949,15.251331 C7.75440563,15.2942358 7.58989132,15.199284 7.54698649,15.0392501 C7.53791702,15.0054213 7.53484129,14.9702656 7.53789865,14.9353757 L7.57659852,14.4937427 C7.62613822,13.9284082 7.84837222,13.3919935 8.21315478,12.9572626 L15.0906812,4.76094573 C15.445683,4.33787107 16.0764386,4.2826871 16.4995133,4.6376889 Z" id="形状结合" fill-opacity="0.9" fill="#000000"></path>
    </g>
</svg>