<?xml version="1.0" encoding="UTF-8"?>
<svg width="15px" height="16px" viewBox="0 0 15 16" version="1.1" xmlns="http://www.w3.org/2000/svg" xmlns:xlink="http://www.w3.org/1999/xlink">
    <!-- Generator: Sketch 63.1 (92452) - https://sketch.com -->
    <title>形状结合</title>
    <desc>Created with Sketch.</desc>
    <g id="控件" stroke="none" stroke-width="1" fill="none" fill-rule="evenodd">
        <g id="operating-/-zan" fill="#576B95" fill-rule="nonzero">
            <path d="M7.62418204,0.0286216746 C8.50931912,0.160483543 9.49958161,1.01778773 9.49958161,2.61042543 C9.49958161,3.77571742 9.3100678,4.47104911 9.25998006,5.01602472 L9.25055319,5.14932117 L13.1125384,5.14932117 C13.7260868,5.14932117 14.9861151,5.92188106 14.7695113,7.33284368 C14.3817033,9.85903548 13.0469224,12.5108626 12.8540871,12.9182966 C12.2504575,14.1936811 11.3251456,15.0072013 10.5539533,15.0936561 L10.4195573,15.1013114 L1.11665406,15.1013114 C0.539196754,15.1013114 0.0595710573,14.2214343 0.00514262697,13.6235805 L-9.40580946e-13,13.5150715 L-9.40580946e-13,6.99737926 C-9.40580946e-13,6.27074028 0.564609748,5.710601 1.14113296,5.64342202 L1.25643268,5.63665576 L1.96451857,5.63665576 C1.96451857,5.63665576 3.93145161,5.9466009 4.78983871,4.52307149 C5.60080645,3.1786009 5.62032492,2.14742457 5.62032492,1.17102855 C5.62032492,0.194632533 6.75751572,-0.100488542 7.62418204,0.0286216746 Z M1.899,6.636 L1.25643268,6.63665576 C1.17785958,6.63665576 1.0455837,6.76073711 1.00939413,6.91699463 L1,6.99737926 L1,13.5150715 C1,13.5945439 1.04447381,13.7487541 1.11635037,13.8933952 L1.21185994,14.0602257 C1.22221082,14.0822771 1.21893605,14.0926576 1.19481838,14.0974339 L1.11665406,14.1013114 L2.165,14.101 L2.165,6.657 L1.899,6.636 Z M6.71340132,1.0945573 L6.63964081,1.13000996 C6.62632544,1.13806184 6.62217905,1.14413787 6.62089428,1.15360756 L6.62032492,1.17102855 C6.62032492,2.77820689 6.43561246,3.73071368 5.64619644,5.03945451 C5.23617718,5.71942102 4.62882677,6.173112 3.90331638,6.42650918 C3.65714921,6.51248736 3.41004649,6.57251475 3.16592161,6.61107986 L3.165,14.101 L10.4195573,14.1013114 C10.7581166,14.1013114 11.3915854,13.5636507 11.8590659,12.6732321 L12.0892627,12.2009351 L12.3148137,11.7164623 C12.5257114,11.251521 12.7282503,10.770104 12.917935,10.2702902 C13.2791272,9.31855918 13.5558718,8.3986432 13.7178196,7.54822009 C13.7415163,7.42378381 13.7626274,7.30137553 13.7810905,7.18110635 C13.8598239,6.66823486 13.4574996,6.21818748 13.1752643,6.15651169 L13.1125384,6.14932117 L8.20239841,6.14932117 L8.25165814,5.10232455 L8.27074379,4.85765943 L8.38477581,4.06970642 C8.46195316,3.55380975 8.49958161,3.13058162 8.49958161,2.61042543 C8.49958161,1.67174535 8.02231055,1.09896787 7.47683472,1.01770649 C7.20038565,0.976522933 6.90021308,1.00906127 6.71340132,1.0945573 Z" id="形状结合"></path>
        </g>
    </g>
</svg>