<?xml version="1.0" encoding="UTF-8"?>
<svg width="16px" height="16px" viewBox="0 0 16 16" version="1.1" xmlns="http://www.w3.org/2000/svg" xmlns:xlink="http://www.w3.org/1999/xlink">
    <!-- Generator: Sketch 61 (89581) - https://sketch.com -->
    <title>3.Icons/Outlined/identity</title>
    <desc>Created with Sketch.</desc>
    <g id="3.Icons/Outlined/identity" stroke="none" stroke-width="1" fill="none" fill-rule="evenodd">
        <g id="编组">
            <rect id="矩形" stroke="#979797" fill="#D8D8D8" opacity="0" x="0.5" y="0.5" width="15" height="15"></rect>
            <path d="M8,1.33333333 C11.6818983,1.33333333 14.6666667,4.31810167 14.6666667,8 C14.6666667,11.6818983 11.6818983,14.6666667 8,14.6666667 C4.31810167,14.6666667 1.33333333,11.6818983 1.33333333,8 C1.33333333,4.31810167 4.31810167,1.33333333 8,1.33333333 Z M8,2.13333333 C4.75992947,2.13333333 2.13333333,4.75992947 2.13333333,8 C2.13333333,11.2400705 4.75992947,13.8666667 8,13.8666667 C11.2400705,13.8666667 13.8666667,11.2400705 13.8666667,8 C13.8666667,4.75992947 11.2400705,2.13333333 8,2.13333333 Z" id="图标颜色" fill-opacity="0.9" fill="#000000"></path>
            <circle id="椭圆形" stroke="#000000" stroke-width="0.8" cx="8" cy="6.55" r="1.85"></circle>
            <path d="M12.2822545,12.8 C11.6474759,11.050122 9.97034957,9.8 8.00124162,9.8 C6.05771946,9.8 4.39864046,11.0178459 3.74549923,12.7320431" id="路径" stroke="#000000" stroke-width="0.8"></path>
        </g>
    </g>
</svg>