<?xml version="1.0" encoding="UTF-8"?>
<svg width="24px" height="24px" viewBox="0 0 24 24" version="1.1" xmlns="http://www.w3.org/2000/svg" xmlns:xlink="http://www.w3.org/1999/xlink">
    <title>icon_更多</title>
    <g id="icon_更多" stroke="none" stroke-width="1" fill="none" fill-rule="evenodd" fill-opacity="0.9">
        <g id="common_icons_info" transform="translate(2.000000, 2.000000)" fill="#000000">
            <path d="M10,0 C15.5228475,0 20,4.4771525 20,10 C20,15.5228475 15.5228475,20 10,20 C4.4771525,20 0,15.5228475 0,10 C0,4.4771525 4.4771525,0 10,0 Z M10,1.2 C5.1398942,1.2 1.2,5.1398942 1.2,10 C1.2,14.8601058 5.1398942,18.8 10,18.8 C14.8601058,18.8 18.8,14.8601058 18.8,10 C18.8,5.1398942 14.8601058,1.2 10,1.2 Z M15,12.8 L15,14 L5,14 L5,12.8 L15,12.8 Z M15,9.4 L15,10.6 L5,10.6 L5,9.4 L15,9.4 Z M15,6 L15,7.2 L5,7.2 L5,6 L15,6 Z" id="图标颜色"></path>
        </g>
    </g>
</svg>