<?xml version="1.0" encoding="UTF-8"?>
<svg width="24px" height="24px" viewBox="0 0 24 24" version="1.1" xmlns="http://www.w3.org/2000/svg" xmlns:xlink="http://www.w3.org/1999/xlink">
    <!-- Generator: Sketch 59.1 (86144) - https://sketch.com -->
    <title>Icons_filled_AlbumAlert</title>
    <desc>Created with Sketch.</desc>
    <g id="Icons_filled_AlbumAlert" stroke="none" stroke-width="1" fill="none" fill-rule="evenodd">
        <g id="3.Icons/Filled/album" fill="#000000" fill-opacity="0.9">
            <g id="common_icons_album">
                <path d="M19.6212121,12.9 C21.709139,12.9 23.5,14.690861 23.5,17.0212121 C23.5,19.109139 21.709139,20.9 19.6212121,20.9 C17.290861,20.9 15.5,19.109139 15.5,17.0212121 C15.5,14.690861 17.290861,12.9 19.6212121,12.9 Z M19.5081969,2.9 C20.0446944,2.9 20.5,3.381137 20.5,3.97464957 L20.5011864,12.0002591 C20.1777087,11.9345146 19.842885,11.9 19.5,11.9 C19.331353,11.9 19.1646561,11.9083496 19.0003002,11.9246578 L19,4.4 L2,4.4 L2,12.749 L6.69924553,8.94925865 C7.16179904,8.57518501 7.90462562,8.59332718 8.35049542,8.98508368 L12.8269229,12.9182264 L15.1091025,10.9774977 C15.5713175,10.5844376 16.3067229,10.5924226 16.7554314,10.9950837 L18.0025634,12.1280968 C15.9726862,12.7644367 14.5,14.6602362 14.5,16.9 C14.5,17.6113108 14.6485335,18.2879297 14.9162763,18.9005324 L1.49180311,18.9 C0.955305576,18.9 0.5,18.418863 0.5,17.8253504 L0.5,3.97464957 C0.5,3.37884822 0.944045377,2.9 1.49180311,2.9 L19.5081969,2.9 Z M19.5000001,18.0666667 C19.2790862,18.0666667 19.1000001,18.2457528 19.1000001,18.4666667 C19.1000001,18.6875806 19.2790862,18.8666667 19.5000001,18.8666667 C19.720914,18.8666667 19.9000001,18.6875806 19.9000001,18.4666667 C19.9000001,18.2457528 19.720914,18.0666667 19.5000001,18.0666667 Z M19.7331356,14.9001886 L19.2747921,14.9 C19.1827446,14.9 19.1081254,14.9746192 19.1081254,15.0666667 L19.1083141,15.0745942 L19.2333334,17.7 L19.7666668,17.7 L19.8916861,15.0745942 C19.8960643,14.9826509 19.8250789,14.9045669 19.7331356,14.9001886 Z" id="形状结合"></path>
            </g>
        </g>
        <g id="1.iOS/3.Element/Alert" transform="translate(15.000000, 12.000000)"></g>
    </g>
</svg>