<?xml version="1.0" encoding="UTF-8"?>
<svg width="24px" height="24px" viewBox="0 0 24 24" version="1.1" xmlns="http://www.w3.org/2000/svg" xmlns:xlink="http://www.w3.org/1999/xlink">
    <title>icons_filled_like私密帐号赞</title>
    <g id="icons_filled_like私密帐号赞" stroke="none" stroke-width="1" fill="none" fill-rule="evenodd">
        <path d="M11.2905866,6.06446609 L11.6767659,6.44163553 L11.9976934,6.74654555 L12.4600423,6.30521964 L12.7048002,6.06446609 C14.6574216,4.11184464 17.8232465,4.11184464 19.775868,6.06446609 C21.5045643,7.79316236 21.7028099,10.4727588 20.3706048,12.4195521 C19.9445612,11.6267867 19.1347803,11.0728032 18.1905622,11.006652 L18,11 L17.8300383,11.0052873 L17.6628857,11.0209394 C16.3929558,11.1798661 15.3984575,12.2248646 15.3177873,13.5175383 L15.312,13.745 L15.2831614,13.7559576 L15.1364261,13.8192707 C14.5137407,14.1183269 14.0675934,14.7331259 14.0070351,15.4549205 L14,15.6232928 L14,18.5017072 L14.0054536,18.6503379 C14.0110573,18.7264359 14.020928,18.801379 14.0348279,18.874923 L12.7047632,20.2065647 C12.3443322,20.5671017 11.7771053,20.5948635 11.3847983,20.2898594 L11.2905866,20.2066017 L4.16512597,13.0811411 C2.26706629,11.1241205 2.28506059,7.99892429 4.21951879,6.06446609 C6.17214025,4.11184464 9.33796515,4.11184464 11.2905866,6.06446609 Z M18,12 C18.9319805,12 19.6875,12.7555195 19.6875,13.6875 L19.687,14.625 L20.009222,14.625 C20.5564136,14.625 21,15.0748901 21,15.6232928 L21,18.5017072 C21,19.0530491 20.5490248,19.5 20.009222,19.5 L15.990778,19.5 C15.4435864,19.5 15,19.0501099 15,18.5017072 L15,15.6232928 C15,15.0719509 15.4509752,14.625 15.990778,14.625 L16.312,14.625 L16.3125,13.6875 C16.3125,12.7555195 17.0680195,12 18,12 Z M18,12.5625 C17.3786797,12.5625 16.875,13.0661797 16.875,13.6875 L16.875,14.625 L19.125,14.625 L19.125,13.6875 C19.125,13.0661797 18.6213203,12.5625 18,12.5625 Z" id="形状" fill="#000000"></path>
        <g id="icon37" transform="translate(15.000000, 12.000000)"></g>
    </g>
</svg>