<?xml version="1.0" encoding="UTF-8"?>
<svg width="24px" height="24px" viewBox="0 0 24 24" version="1.1" xmlns="http://www.w3.org/2000/svg" xmlns:xlink="http://www.w3.org/1999/xlink">
    <title>icons_outlined_exchange</title>
    <defs>
        <filter id="filter-1">
            <feColorMatrix in="SourceGraphic" type="matrix" values="0 0 0 0 0.000000 0 0 0 0 0.000000 0 0 0 0 0.000000 0 0 0 1.000000 0"></feColorMatrix>
        </filter>
    </defs>
    <g id="icons_outlined_exchange" stroke="none" stroke-width="1" fill="none" fill-rule="evenodd">
        <g id="编组-40" filter="url(#filter-1)">
            <g id="编组-39" transform="translate(1.000000, 3.000000)">
                <path d="M9.5,0 C11.709139,0 13.5,1.79298022 13.5,4.00020747 L13.5,5.71018568 C13.5,6.84929595 12.9009324,8.48286035 12.1680872,9.35157303 L11.8065546,9.78013273 C11.2170324,10.4789507 11.4011877,11.3683976 12.225549,11.7705104 L12.2986452,11.8064637 C12.1209156,12.1647689 11.986195,12.5471204 11.8999691,12.9472317 L11.6994561,12.8490401 C10.1728743,12.1043932 9.79557277,10.302913 10.8893366,9.00636847 L11.2508692,8.57780877 C11.802195,7.92426863 12.3,6.56439093 12.3,5.71018568 L12.3,4.00020747 C12.3,2.4549142 11.0455898,1.2 9.5,1.2 C7.95630885,1.2 6.7,2.4552027 6.7,3.99958038 L6.7,5.70929053 C6.7,6.56566389 7.19574673,7.92048381 7.74907842,8.57631176 L8.11061095,9.00481267 C9.20663642,10.3038601 8.82521432,12.1036503 7.30071945,12.8475869 L1.6403663,15.6097766 C1.43701709,15.7090088 1.2,16.0886771 1.2,16.3154633 L1.2,16.8 L12.078,16.8 L12.078,18 L1.00142961,18 C0.448355308,18 0,17.5557555 0,17.0015619 L0,16.3154633 C0,15.6303744 0.498150907,14.8319079 1.11409761,14.5313327 L6.77445076,11.769143 C7.59537712,11.36854 7.78625906,10.4812624 7.19344522,9.7786389 L6.83191269,9.35013798 C6.09631763,8.47828515 5.5,6.84949648 5.5,5.70929053 L5.5,3.99958038 C5.5,1.79067313 7.29535615,0 9.5,0 Z" id="形状结合" fill="#FFFFFF"></path>
                <g id="编组" transform="translate(13.000000, 10.500000)" fill="#000000" fill-rule="nonzero">
                    <path d="M4,4.17443857e-14 C5.40029444,4.17443857e-14 6.67353846,0.734572026 7.38404865,1.91151432 L6.37369795,2.46304986 C5.92533351,1.62359951 5.00397989,1.1 4,1.1 C2.44618479,1.1 1.18279378,2.35389354 1.15062816,3.9 C1.15062816,3.9 0.767085441,3.9 5.2846616e-14,3.9 C0.05,1.76847524 1.81847524,4.17443857e-14 4,4.17443857e-14 Z" id="路径"></path>
                    <path d="M7.949,3.998 L7.95,3.95 C7.95,6.13152476 6.18152476,7.9 4,7.9 C2.66672626,7.9 1.4463966,7.23447656 0.717363807,6.14774603 L1.70022904,5.54860002 C2.16154469,6.32600885 3.04409962,6.8 4,6.8 C5.55923717,6.8 6.82601975,5.55160957 6.84966354,3.998 C6.84966354,4.00050431 7.21610903,4.00050431 7.949,3.998 Z" id="路径"></path>
                    <path d="M7.62934375,0.07534375 L7.62934375,0.97534375 L5.98003125,0.97534375 L5.84467591,1.08998841 L5.84467591,2.82534375 L4.93003125,2.82534375 L4.93003125,0.42534375 L4.93790569,0.34974481 C4.97019717,0.193220737 5.11303104,0.07534375 5.28003125,0.07534375 L7.62934375,0.07534375 Z" id="路径" transform="translate(6.279688, 1.450344) scale(-1, 1) rotate(-90.000000) translate(-6.279688, -1.450344) "></path>
                    <path d="M3.051,5.099 L3.05161133,6.05 L1.40161133,6.05 L1.26625599,6.11464466 L1.26625599,7.85 L0.351611321,7.85 L0.351611321,5.45002083 L0.359485765,5.37440106 C0.391777242,5.21787699 0.534611118,5.099 0.701611325,5.099 L3.051,5.099 Z" id="路径"></path>
                </g>
            </g>
        </g>
        <rect id="矩形" x="0" y="0" width="24" height="24"></rect>
    </g>
</svg>