<?xml version="1.0" encoding="UTF-8"?>
<svg width="24px" height="24px" viewBox="0 0 24 24" version="1.1" xmlns="http://www.w3.org/2000/svg" xmlns:xlink="http://www.w3.org/1999/xlink">
    <!-- Generator: Sketch 64 (93537) - https://sketch.com -->
    <title>直播4</title>
    <desc>Created with Sketch.</desc>
    <g id="直播4" stroke="none" stroke-width="1" fill="none" fill-rule="evenodd">
        <g id="编组-2" fill="#000000">
            <path d="M12,3.36 C12.5964675,3.36 13.08,3.84353247 13.08,4.44 L13.08,19.56 C13.08,20.1564675 12.5964675,20.64 12,20.64 C11.4035325,20.64 10.92,20.1564675 10.92,19.56 L10.92,4.44 C10.92,3.84353247 11.4035325,3.36 12,3.36 Z M8.4,6.24 C8.99646753,6.24 9.48,6.72353247 9.48,7.32 L9.48,16.68 C9.48,17.2764675 8.99646753,17.76 8.4,17.76 C7.80353247,17.76 7.32,17.2764675 7.32,16.68 L7.32,7.32 C7.32,6.72353247 7.80353247,6.24 8.4,6.24 Z M15.6,7.2 C16.1964675,7.2 16.68,7.68353247 16.68,8.28 L16.68,15.72 C16.68,16.3164675 16.1964675,16.8 15.6,16.8 C15.0035325,16.8 14.52,16.3164675 14.52,15.72 L14.52,8.28 C14.52,7.68353247 15.0035325,7.2 15.6,7.2 Z M19.2,10.08 C19.7964675,10.08 20.28,10.5635325 20.28,11.16 L20.28,12.84 C20.28,13.4364675 19.7964675,13.92 19.2,13.92 C18.6035325,13.92 18.12,13.4364675 18.12,12.84 L18.12,11.16 C18.12,10.5635325 18.6035325,10.08 19.2,10.08 Z M4.8,10.08 C5.39646753,10.08 5.88,10.5635325 5.88,11.16 L5.88,12.84 C5.88,13.4364675 5.39646753,13.92 4.8,13.92 C4.20353247,13.92 3.72,13.4364675 3.72,12.84 L3.72,11.16 C3.72,10.5635325 4.20353247,10.08 4.8,10.08 Z" id="形状结合"></path>
        </g>
    </g>
</svg>