<svg width="20" height="20" viewBox="0 0 20 20" fill="none" xmlns="http://www.w3.org/2000/svg">
<path fill-rule="evenodd" clip-rule="evenodd" d="M3.01421 2.64999L2.30711 3.3571L3.94733 4.99733L4.66314 5.71313L12.6413 13.6913L13.3483 14.3983L16.247 17.297L16.9541 16.5899L14.0554 13.6912L16.529 11.2173C18.1111 9.58676 18.0961 6.98243 16.4841 5.37038C14.8569 3.7432 12.2187 3.7432 10.5915 5.37038C10.4392 5.52272 10.2427 5.71219 10.0022 5.93878C9.76175 5.71219 9.56533 5.52272 9.41299 5.37038C8.17737 4.13476 6.35878 3.83742 4.84258 4.47837L3.01421 2.64999ZM5.62701 5.26279L13.3483 12.9841L15.8114 10.5209C17.0148 9.28062 17.0007 7.30127 15.7769 6.07749C14.5403 4.84083 12.5353 4.84083 11.2986 6.07749C11.1384 6.23771 10.9352 6.43374 10.688 6.66662L10.0022 7.31272L9.31649 6.66662C9.06933 6.43374 8.8661 6.23771 8.70588 6.07749C7.87192 5.24353 6.68854 4.97196 5.62701 5.26279ZM3.4751 11.2176C1.99515 9.69169 1.91306 7.31351 3.22912 5.69333L3.94131 6.40552C3.01011 7.63284 3.09116 9.38541 4.18221 10.5105L10.0022 16.3306L11.9342 14.3984L12.6413 15.1055L10.5915 17.1555C10.2661 17.4809 9.73844 17.481 9.41299 17.1556L3.4751 11.2176Z" fill="black" fill-opacity="0.9"/>
</svg>
