<?xml version="1.0" encoding="UTF-8"?>
<svg width="24px" height="24px" viewBox="0 0 24 24" version="1.1" xmlns="http://www.w3.org/2000/svg" xmlns:xlink="http://www.w3.org/1999/xlink">
    <title>icon_new_30_39_非豆苗</title>
    <g id="icon_new_30_39_非豆苗" stroke="none" stroke-width="1" fill="none" fill-rule="evenodd">
        <g id="编组" transform="translate(2.800000, 3.000000)" fill="#FFFFFF">
            <circle id="椭圆形备份-44" cx="1.8" cy="11.1" r="1.8"></circle>
            <circle id="椭圆形备份-47" cx="4.8" cy="1.8" r="1.8"></circle>
            <circle id="椭圆形备份-45" cx="9.2" cy="16.9" r="1.8"></circle>
            <circle id="椭圆形备份-48" cx="13.6" cy="1.8" r="1.8"></circle>
            <circle id="椭圆形备份-50" cx="16.6" cy="11.1" r="1.8"></circle>
        </g>
        <path d="M12,13.4 L8.68762334,14.8386135 C8.48499515,14.9266178 8.24939091,14.8336969 8.16138654,14.6310687 C8.11724092,14.5294243 8.11724092,14.414021 8.16138654,14.3123767 L9.6,11 L9.6,11 L8.16138654,7.68762334 C8.07338216,7.48499515 8.16630312,7.24939091 8.36893131,7.16138654 C8.47057565,7.11724092 8.58597899,7.11724092 8.68762334,7.16138654 L12,8.6 L12,8.6 L15.3123767,7.16138654 C15.5150048,7.07338216 15.7506091,7.16630312 15.8386135,7.36893131 C15.8827591,7.47057565 15.8827591,7.58597899 15.8386135,7.68762334 L14.4,11 L14.4,11 L15.8386135,14.3123767 C15.9266178,14.5150048 15.8336969,14.7506091 15.6310687,14.8386135 C15.5294243,14.8827591 15.414021,14.8827591 15.3123767,14.8386135 L12,13.4 L12,13.4 Z" id="星形" fill="#FFFFFF" transform="translate(12.000000, 11.000000) rotate(45.000000) translate(-12.000000, -11.000000) "></path>
    </g>
</svg>