<?xml version="1.0" encoding="UTF-8"?>
<svg width="24px" height="24px" viewBox="0 0 24 24" version="1.1" xmlns="http://www.w3.org/2000/svg" xmlns:xlink="http://www.w3.org/1999/xlink">
    <!-- Generator: Sketch 58 (84663) - https://sketch.com -->
    <title>3.Icons/Outlined/discomment</title>
    <desc>Created with Sketch.</desc>
    <g id="3.Icons/Outlined/discomment" stroke="none" stroke-width="1" fill="none" fill-rule="evenodd" fill-opacity="0.9">
        <g id="3.Icons/Outlined/float-window_off" fill="#000000">
            <g id="Icons/Tint-Color/Black" transform="translate(3.000000, 3.000000)">
                <path d="M0.558633559,2.25615241 L1.503,3.2 L1.35,3.2 C1.26715729,3.2 1.2,3.26715729 1.2,3.35 L1.19864668,14.2404102 L1.2007386,14.313252 C1.20788902,14.3880818 1.27277047,14.4473851 1.34985324,14.4473851 L5.69817266,14.4468533 L5.69949694,16.3674026 L7.59790927,14.4469774 L12.75,14.447 L13.95,15.647 L8.099,15.647 L6.03984171,17.730035 C5.69028317,18.0834098 5.12044309,18.0865035 4.76706826,17.736945 C4.59616765,17.56789 4.5,17.3374917 4.5,17.0971033 L4.499,15.647 L1.35,15.6473851 C0.648273494,15.6473851 0.0715961896,15.1119858 0.00617992025,14.4273991 L0,14.2973851 L0,3.35 C0,2.90001788 0.220157018,2.50145618 0.558633559,2.25615241 Z M1.69705685,0 L3.697,2 L16.65,2 C17.3517265,2 17.9284038,2.53539927 17.9938201,3.21998599 L18,3.35 L18,14.2973851 C18,14.839593 17.6803507,15.3071429 17.219216,15.5218708 L18.4249789,16.7279221 L17.5764507,17.5764502 L3.2,3.2 L2,2 L0.848528677,0.848528171 L1.69705685,0 Z M16.144,14.447 L16.65,14.4473851 C16.7328427,14.4473851 16.8,14.3802278 16.8,14.2973851 L16.8,3.35 C16.8,3.26715729 16.7328427,3.2 16.65,3.2 L4.897,3.2 L16.144,14.447 Z" id="图标颜色"></path>
            </g>
        </g>
    </g>
</svg>