<?xml version="1.0" encoding="UTF-8"?>
<svg width="24px" height="24px" viewBox="0 0 24 24" version="1.1" xmlns="http://www.w3.org/2000/svg" xmlns:xlink="http://www.w3.org/1999/xlink">
    <!-- Generator: Sketch 57.1 (83088) - https://sketch.com -->
    <title>滤镜</title>
    <desc>Created with Sketch.</desc>
    <g id="滤镜" stroke="none" stroke-width="1" fill="none" fill-rule="evenodd" opacity="0.900000036">
        <g id="编组-9备份" fill="#000000">
            <path d="M16.918,11.629 L16.886747,11.6280157 C17.5491914,11.6280157 18.1775111,11.7527467 18.75047,11.9796994 L18.7337737,11.9718268 C18.7777402,11.9893423 18.821418,12.0074806 18.864795,12.0262308 L18.75047,11.9796994 C18.8208124,12.0075625 18.8903204,12.0369664 18.9589546,12.0678693 L18.864795,12.0262308 C18.9106828,12.0460662 18.956234,12.0665865 19.0014344,12.0877786 L19.0022074,12.0875957 C19.9314462,12.5238142 20.7129454,13.2443087 21.2219856,14.1374365 L21.1958422,14.0905722 C21.2223699,14.1365691 21.2481736,14.1830393 21.273239,14.2299675 L21.2219856,14.1374365 C21.2596984,14.2036048 21.2959158,14.2707207 21.3305873,14.3387387 L21.273239,14.2299675 C21.3011743,14.282269 21.3281924,14.3351393 21.3542736,14.3885574 L21.355128,14.3875544 C21.6752754,15.0460178 21.854331,15.7864576 21.854331,16.5705427 L21.8497414,16.7855308 L21.8497414,16.7855308 L21.8391609,16.9511142 C21.703387,18.5428268 20.8108986,19.9509312 19.5236984,20.7712874 C18.7691213,21.2441342 17.8775315,21.5199921 16.9218147,21.5265842 C15.7339498,21.520215 14.5659266,21.0906637 13.669834,20.3476001 C13.4095894,20.1263846 13.1724576,19.8792105 12.9625732,19.6098543 L13.0220578,19.4888621 C13.4242164,18.6357999 13.6485339,17.6799193 13.6485339,16.6673066 C13.6485339,15.5875853 13.4342658,14.5086884 12.96108,13.56358 L12.9871338,13.5269939 C13.8878786,12.4016501 15.2763449,11.6748362 16.8274145,11.6294187 L16.918,11.629 Z M11.9308448,17.1309808 C11.6743487,19.5962845 9.58640719,21.5184946 7.04866511,21.5184946 C4.33767728,21.5184946 2.18862915,19.4597778 2.14,16.6189247 C2.17508749,15.4880148 2.50769074,14.4993972 3.04899714,13.7063256 C3.64676835,12.8494367 4.50365218,12.1914626 5.51208054,11.8575313 C5.8040124,11.762665 6.10749196,11.6948195 6.41954661,11.6558474 L6.558,11.641 L6.5773729,11.6719618 C7.67768984,13.319789 9.46667351,14.463143 11.534611,14.6130095 L11.5446568,14.6142262 C11.7272788,15.0374275 11.8538307,15.4904277 11.9151035,15.9630223 L11.9097646,15.9082502 C11.9201402,15.9845331 11.9288149,16.0612414 11.9357921,16.1383257 L11.9347637,16.1386025 L11.949966,16.336806 L11.949966,16.336806 L11.9573302,16.6189247 C11.9573302,16.7577089 11.9515492,16.8951454 11.9402144,17.0310074 L11.94026,17.0303727 Z M11.3907374,14.2898409 L11.4273977,14.35978 C11.4056689,14.3175003 11.3832673,14.2755235 11.3601921,14.2338617 L11.42648,14.3600551 C11.4147429,14.3365453 11.4028281,14.3131399 11.3907374,14.2898409 Z M12.96108,13.56358 L12.8862426,13.6675886 L12.8862426,13.6675886 C12.8621822,13.7029013 12.8359643,13.7358748 12.8078842,13.7664531 C12.8561841,13.6968611 12.9071522,13.6284426 12.9598379,13.5614081 C12.9604024,13.562227 12.9607413,13.5629035 12.96108,13.56358 Z M11.367,12.859 L11.5750386,12.88226 C11.7146328,12.8943401 11.8558944,12.9005021 11.998578,12.9005021 L11.9986006,12.9067327 C11.7833821,12.9067327 11.5717226,12.8927639 11.3643882,12.8656966 L11.367,12.859 Z M11.998578,3 C14.5668608,3 16.7273849,5.01429445 16.9476942,7.52709507 L16.9615951,7.73558228 C16.9646444,7.80686539 16.9661847,7.8785384 16.9661847,7.95057032 C16.9661847,8.64662207 16.8223667,9.30916058 16.5627609,9.91022032 L16.3962173,9.91935302 C14.3880397,10.0699978 12.5795765,11.0427155 11.4537091,12.6950966 C11.4312873,12.7280016 11.4114463,12.7618992 11.3941407,12.7965508 L11.367,12.859 C10.0779765,12.6920298 8.94551259,12.017678 8.17022495,11.0359479 C7.49263403,10.1736542 7.08991288,9.0800675 7.08991288,7.89956988 C7.08991288,6.58570768 7.58876732,5.40300387 8.4109874,4.52826025 C9.30681226,3.57913159 10.5826859,3 11.998578,3 Z M14.3886395,12.296449 L14.2125134,12.3872655 C14.3451959,12.303525 14.4821617,12.2265511 14.6229335,12.1564241 C14.5469518,12.2067408 14.4684641,12.2526577 14.3886395,12.296449 Z M7.03101661,11.6143803 L7.05606868,11.6168044 C7.05361369,11.6168969 7.05114583,11.6169434 7.04866511,11.6169434 C6.90675729,11.6169434 6.76612069,11.6227856 6.62701782,11.6343127 L6.558,11.641 C6.711949,11.6221453 6.87046219,11.6143803 7.03101661,11.6143803 Z M16.1457839,10.6798262 L16.130142,10.7038192 C16.1277401,10.7023452 16.1253352,10.7008694 16.1229274,10.6993919 C16.2148297,10.567929 16.2990209,10.4338105 16.3755979,10.297048 C16.3046345,10.4279334 16.2279277,10.5558297 16.1457839,10.6798262 Z M11.2154761,13.9906269 C11.2662004,14.0626213 11.310474,14.139708 11.3527414,14.2180432 L11.2154761,13.9906269 L11.2154761,13.9906269 Z" id="形状结合"></path>
        </g>
    </g>
</svg>