<?xml version="1.0" encoding="UTF-8"?>
<svg width="20px" height="20px" viewBox="0 0 20 20" version="1.1" xmlns="http://www.w3.org/2000/svg" xmlns:xlink="http://www.w3.org/1999/xlink">
    <title>icons_filled_hashtag</title>
    <g id="icons_filled_hashtag" stroke="none" stroke-width="1" fill="none" fill-rule="evenodd">
        <path d="M7.33042914,15.8447231 C7.313068,15.9962001 7.18484902,16.110563 7.03238034,16.110563 L6.15328326,16.110563 C6.01521208,16.110563 5.90328326,15.9986342 5.90328326,15.860563 C5.90328326,15.85102 5.90382969,15.8414847 5.90491985,15.8320041 L6.18397997,13.401 L4.84997997,13.4011926 C4.71190879,13.4011926 4.59997997,13.2892638 4.59997997,13.1511926 C4.59997997,13.143712 4.60031573,13.1362352 4.60098622,13.1287848 L4.67799128,12.2731106 C4.69190791,12.1184701 4.82151833,12 4.97678379,12 L6.34497997,12 L6.81597997,7.901 L5.4517208,7.9013 C5.31364962,7.9013 5.2017208,7.78937119 5.2017208,7.6513 C5.2017208,7.64395125 5.20204483,7.63660607 5.20269193,7.62928587 L5.27833599,6.77358304 C5.29202415,6.61873948 5.42172323,6.5 5.57717063,6.5 L6.97697997,6.5 L7.26940479,3.96572928 C7.2868173,3.81430094 7.41501472,3.7 7.56744089,3.7 L8.44207526,3.7 C8.58014644,3.7 8.69207526,3.81192881 8.69207526,3.95 L8.69044926,3.97846674 L8.69044926,3.97846674 L8.40097997,6.5 L12.19498,6.5 L12.4845045,3.9660413 C12.5017721,3.81447569 12.6300303,3.7 12.7825764,3.7 L13.6465653,3.7 C13.7846365,3.7 13.8965653,3.81192881 13.8965653,3.95 C13.8965653,3.9594418 13.8960304,3.96887601 13.8949632,3.9782573 L13.60698,6.5 L15.1500204,6.5 C15.2880916,6.5 15.4000204,6.61192881 15.4000204,6.75 L15.3989783,6.77280248 L15.3989783,6.77280248 L15.3205886,7.62866298 C15.3064435,7.78309963 15.1769222,7.9013 15.0218391,7.9013 L13.44798,7.901 L12.98198,12 L14.5494244,12 C14.6874956,12 14.7994244,12.1119288 14.7994244,12.25 C14.7994244,12.2574806 14.7990886,12.2649574 14.7984182,12.2724078 L14.7214131,13.128082 C14.7074965,13.2827225 14.577886,13.4011926 14.4226206,13.4011926 L12.82298,13.401 L12.5450841,15.8444718 C12.5278398,15.9960594 12.3995719,16.110563 12.2470066,16.110563 L11.3810038,16.110563 C11.2429326,16.110563 11.1310038,15.9986342 11.1310038,15.860563 C11.1310038,15.8511073 11.1315403,15.8416591 11.1326106,15.8322641 L11.40898,13.401 L7.60997997,13.401 L7.33042914,15.8447231 Z M7.77097997,12 L11.56898,12 L12.03598,7.901 L8.23997997,7.901 L7.77097997,12 Z" id="#" fill="#000000"></path>
    </g>
</svg>