<?xml version="1.0" encoding="UTF-8"?>
<svg width="24px" height="24px" viewBox="0 0 24 24" version="1.1" xmlns="http://www.w3.org/2000/svg" xmlns:xlink="http://www.w3.org/1999/xlink">
    <title>apple-health</title>
    <g id="apple-health" stroke="none" stroke-width="1" fill="none" fill-rule="evenodd">
        <rect id="矩形" fill="#FFFFFF" opacity="0" x="0" y="0" width="24" height="24"></rect>
        <rect id="矩形" stroke="#000000" stroke-width="1.2" x="3.6" y="3.6" width="16.8" height="16.8" rx="4"></rect>
        <g id="编组" transform="translate(10.000000, 5.000000)" fill="#000000" fill-opacity="0.9">
            <g id="common_icons_like">
                <path d="M1.70082521,2.16681547 C2.43305826,1.43458243 3.6202426,1.43458243 4.35247564,2.16681547 C4.42102816,2.23536799 4.50941651,2.32062792 4.61764069,2.42259527 C4.72586487,2.32062792 4.81425321,2.23536799 4.88280573,2.16681547 C5.61503878,1.43458243 6.80222311,1.43458243 7.53445616,2.16681547 C8.25987798,2.8922373 8.26662585,4.06418588 7.55469975,4.79791487 L5.32471046,7.02813759 C4.93424362,7.41871932 4.30107864,7.41875246 3.91053391,7.0282486 C3.91052157,7.02823627 3.91050924,7.02822393 3.91053391,7.02817459 L1.6804279,4.79806859 L1.6804279,4.79806859 C0.968655526,4.06418588 0.97540339,2.8922373 1.70082521,2.16681547 Z" id="Combined-Shape"></path>
            </g>
        </g>
    </g>
</svg>