<?xml version="1.0" encoding="UTF-8"?>
<svg width="24px" height="24px" viewBox="0 0 24 24" version="1.1" xmlns="http://www.w3.org/2000/svg" xmlns:xlink="http://www.w3.org/1999/xlink">
    <title>切片</title>
    <g id="定稿" stroke="none" stroke-width="1" fill="none" fill-rule="evenodd">
        <g id="编组-2">
            <rect id="矩形" x="0" y="0" width="24" height="24"></rect>
            <g id="0.图标/面型/icons_filled_bluetooth" transform="translate(3.000000, 3.000000)" fill="#07C160">
                <path d="M8.88935549,1.46764787 L12.7121331,5.28786696 C13.0053285,5.58045786 13.0054874,6.05533157 12.7126923,6.34832282 C12.7126242,6.34839091 12.7125562,6.348459 12.7122839,6.34832287 L10.0605292,8.9998106 L10.0605292,8.9998106 L12.7123155,11.6516456 C13.0051691,11.9445576 13.0051766,12.4194109 12.7123323,12.7123323 L8.8894551,16.5355218 C8.74301448,16.6819744 8.50557761,16.6819841 8.35912502,16.5355435 C8.28879225,16.4652165 8.24927923,16.3698291 8.24927923,16.2703676 L8.24927923,10.8110606 L8.24927923,10.8110606 L5.2876894,13.7729708 L4.22702923,12.7123106 L7.93877923,8.9998106 L4.22702923,5.2876894 L5.2876894,4.22702923 L8.24927923,7.1885606 L8.24927923,1.73290166 C8.24927923,1.52579488 8.41717245,1.35790166 8.62427923,1.35790166 C8.72369191,1.35790166 8.81903658,1.39737602 8.88935549,1.46764787 Z M9.74927923,10.8103106 L9.74927923,13.5545606 L11.1217792,12.1820606 L9.74927923,10.8103106 Z M9.74927923,4.4488106 L9.74927923,7.1893106 L11.1195292,5.8190606 L9.74927923,4.4488106 Z" id="形状"></path>
            </g>
        </g>
    </g>
</svg>