<?xml version="1.0" encoding="UTF-8"?>
<svg width="48px" height="48px" viewBox="0 0 48 48" version="1.1" xmlns="http://www.w3.org/2000/svg" xmlns:xlink="http://www.w3.org/1999/xlink">
    <title>编组 27</title>
    <g id="仅收到与我相关消息时聊天上移" stroke="none" stroke-width="1" fill="none" fill-rule="evenodd">
        <g id="编组-27">
            <polygon id="矩形" fill="#F7F7F7" points="0 0 48 0 48 48 0 48"></polygon>
            <g id="icon14" transform="translate(8.000000, 8.000000)" fill="#FA9D3B">
                <path d="M25.3333333,20 C28.278852,20 30.6666667,22.3878147 30.6666667,25.3333333 C30.6666667,28.278852 28.278852,30.6666667 25.3333333,30.6666667 C22.3878147,30.6666667 20,28.278852 20,25.3333333 C20,22.3878147 22.3878147,20 25.3333333,20 Z M14,4 C16.9455187,4 19.3333333,6.3906403 19.3333333,9.33360996 L19.3333333,11.6135809 C19.3333333,13.1323946 18.5345765,15.3104805 17.5574495,16.468764 L17.0754061,17.040177 C16.2893765,17.9719342 16.5349169,19.1578635 17.6340653,19.6940138 L20.3735557,21.0314063 C19.39185,22.1924852 18.8,23.6937923 18.8,25.3333333 C18.8,26.2815771 18.9979735,27.1835816 19.3548425,28.000269 L2.66857281,28 C1.93114041,28 1.33333333,27.4076739 1.33333333,26.6687492 L1.33333333,25.7539511 C1.33333333,24.8404991 1.99753454,23.7758772 2.81879681,23.3751103 L10.3659343,19.6921907 C11.4605028,19.1580534 11.7150121,17.9750166 10.9245936,17.0381852 L10.4425503,16.4668506 C9.46175683,15.3043802 8.66666667,13.132662 8.66666667,11.6123874 L8.66666667,9.33277384 C8.66666667,6.38756417 11.0604749,4 14,4 Z M28,24.6666667 L22.6666667,24.6666667 L22.6666667,26 L28,26 L28,24.6666667 Z M19.7121867,5.33570667 C22.1240738,5.41312024 24.0553217,7.37453087 24.0553217,9.7780083 L24.0553217,11.6779841 C24.0553217,12.9436622 23.3826844,14.7587337 22.5598406,15.72397 L22.1539093,16.2001475 C21.4919896,16.9766119 21.6987605,17.9648862 22.6243591,18.4116782 L23.6633917,18.9134178 C23.0110475,19.096276 22.399149,19.3758891 21.8441515,19.7358015 L18.4,18.0550047 L18.6502398,17.7583712 C19.9327483,16.2380892 20.8974269,13.6028304 20.8974269,11.6135809 L20.8974269,9.33360996 C20.8974269,7.85913842 20.4617828,6.48588058 19.7121867,5.33570667 Z" id="形状结合"></path>
            </g>
        </g>
    </g>
</svg>