<?xml version="1.0" encoding="UTF-8"?>
<svg width="24px" height="24px" viewBox="0 0 24 24" version="1.1" xmlns="http://www.w3.org/2000/svg" xmlns:xlink="http://www.w3.org/1999/xlink">
    <!-- Generator: Sketch 57.1 (83088) - https://sketch.com -->
    <title>3.Icons/Filled/proof</title>
    <desc>Created with Sketch.</desc>
    <g id="3.Icons/Filled/proof" stroke="none" stroke-width="1" fill="none" fill-rule="evenodd">
        <g id="编组-8备份-5">
            <g id="编组-19">
                <g id="Fav"></g>
                <path d="M16.3948722,2.74486324 L17.8182471,6.18123326 L21.2551368,7.6051278 C21.6293161,7.76011796 21.8070041,8.18909462 21.6520139,8.56327397 L20.2281933,11.9993581 L21.6520139,15.436726 C21.8070041,15.8109054 21.6293161,16.239882 21.2551368,16.3948722 L17.8184357,17.8170276 L16.3948722,21.2551368 C16.239882,21.6293161 15.8109054,21.8070041 15.436726,21.6520139 L11.9990043,20.227515 L8.56327397,21.6520139 C8.18909462,21.8070041 7.76011796,21.6293161 7.6051278,21.2551368 L6.18133486,17.8177574 L2.74486324,16.3948722 C2.37068389,16.239882 2.19299594,15.8109054 2.3479861,15.436726 L3.77138863,11.9996325 L2.3479861,8.56327397 C2.19299594,8.18909462 2.37068389,7.76011796 2.74486324,7.6051278 L6.18191157,6.18011536 L7.6051278,2.74486324 C7.76011796,2.37068389 8.18909462,2.19299594 8.56327397,2.3479861 L11.9987299,3.77071032 L15.436726,2.3479861 C15.8109054,2.19299594 16.239882,2.37068389 16.3948722,2.74486324 Z M16.422754,8.53999996 L10.8234373,14.1393166 L8.05753759,11.3734169 L7,12.4309545 L10.3544261,15.7878069 L10.3544261,15.7878069 L10.4370456,15.8582632 C10.6975257,16.0457684 11.0628646,16.0224063 11.2971627,15.7880752 L11.2971627,15.7880752 L17.4852815,9.60252752 L16.422754,8.53999996 Z" id="形状结合" fill-opacity="0.9" fill="#000000"></path>
            </g>
        </g>
    </g>
</svg>