<?xml version="1.0" encoding="UTF-8"?>
<svg width="24px" height="44px" viewBox="0 0 24 44" version="1.1" xmlns="http://www.w3.org/2000/svg" xmlns:xlink="http://www.w3.org/1999/xlink">
    <title>画板备份 2</title>
    <g id="画板备份-2" stroke="none" stroke-width="1" fill="none" fill-rule="evenodd">
        <g id="3.Icons/Filled/add备份-79" transform="translate(2.000000, 12.000000)" fill="#000000">
            <g id="Group">
                <path d="M15,1.66666667 C15.4602373,1.66666667 15.8333333,2.03976271 15.8333333,2.5 L15.8333333,2.5 L15.8333333,17.5 C15.8333333,17.9602373 15.4602373,18.3333333 15,18.3333333 L15,18.3333333 L5,18.3333333 C4.53976271,18.3333333 4.16666667,17.9602373 4.16666667,17.5 L4.16666667,17.5 L4.16666667,2.5 C4.16666667,2.03976271 4.53976271,1.66666667 5,1.66666667 L5,1.66666667 Z M10,15 C9.53976271,15 9.16666667,15.373096 9.16666667,15.8333333 C9.16666667,16.2935706 9.53976271,16.6666667 10,16.6666667 C10.4602373,16.6666667 10.8333333,16.2935706 10.8333333,15.8333333 C10.8333333,15.373096 10.4602373,15 10,15 Z" id="图标颜色"></path>
            </g>
        </g>
    </g>
</svg>