<?xml version="1.0" encoding="UTF-8"?>
<svg width="16px" height="24px" viewBox="0 0 16 24" version="1.1" xmlns="http://www.w3.org/2000/svg" xmlns:xlink="http://www.w3.org/1999/xlink">
    <title>icon_new_1_9_非豆苗</title>
    <g id="icon_new_1_9_非豆苗" stroke="none" stroke-width="1" fill="none" fill-rule="evenodd">
        <path d="M8,14.4 L4.68762334,15.8386135 C4.48499515,15.9266178 4.24939091,15.8336969 4.16138654,15.6310687 C4.11724092,15.5294243 4.11724092,15.414021 4.16138654,15.3123767 L5.6,12 L5.6,12 L4.16138654,8.68762334 C4.07338216,8.48499515 4.16630312,8.24939091 4.36893131,8.16138654 C4.47057565,8.11724092 4.58597899,8.11724092 4.68762334,8.16138654 L8,9.6 L8,9.6 L11.3123767,8.16138654 C11.5150048,8.07338216 11.7506091,8.16630312 11.8386135,8.36893131 C11.8827591,8.47057565 11.8827591,8.58597899 11.8386135,8.68762334 L10.4,12 L10.4,12 L11.8386135,15.3123767 C11.9266178,15.5150048 11.8336969,15.7506091 11.6310687,15.8386135 C11.5294243,15.8827591 11.414021,15.8827591 11.3123767,15.8386135 L8,14.4 L8,14.4 Z" id="星形" fill="#FFFFFF" transform="translate(8.000000, 12.000000) rotate(45.000000) translate(-8.000000, -12.000000) "></path>
        <rect id="Level_new_1_9.svg" fill="#D8D8D8" opacity="0" x="0" y="0" width="16" height="24"></rect>
    </g>
</svg>