<?xml version="1.0" encoding="UTF-8"?>
<svg width="24px" height="24px" viewBox="0 0 24 24" version="1.1" xmlns="http://www.w3.org/2000/svg" xmlns:xlink="http://www.w3.org/1999/xlink">
    <!-- Generator: Sketch 61.2 (89653) - https://sketch.com -->
    <title>icons_filled_pay_safe</title>
    <desc>Created with Sketch.</desc>
    <g id="icons_filled_pay_safe" stroke="none" stroke-width="1" fill="none" fill-rule="evenodd" fill-opacity="0.9">
        <path d="M12,2.5 L20,5.5 L20.0008017,9.04922618 L11.4016757,12.6305533 L11.4016757,12.6305533 C11.3000267,12.6654921 11.1904571,12.6853156 11.076135,12.6853156 C10.9223678,12.6853156 10.7768805,12.6507435 10.6484596,12.5899727 L10.5554811,12.5396131 L8.50798075,11.1715462 C8.45464805,11.1343772 8.38943431,11.1123236 8.31761998,11.1123236 C8.14230854,11.1123236 8,11.2456364 8,11.4101712 L8.00815172,11.4745974 L8.00815172,11.4745974 L8.03036267,11.5360502 L9.80723921,15.1949664 C9.91601679,15.3768467 10.1232751,15.5 10.3616881,15.5 C10.4301581,15.5 10.4960466,15.4894275 10.5578671,15.4704116 L10.6473612,15.4358215 L20.0011284,10.3722629 L20.0011284,10.3722629 L20,11.2537887 C20,16.1001436 16.7016548,20.3245863 12,21.5 C7.2983452,20.3245863 4,16.1001436 4,11.2537887 L4,5.5 L12,2.5 Z" id="路径" fill="#000000"></path>
    </g>
</svg>