<?xml version="1.0" encoding="UTF-8"?>
<svg width="102px" height="102px" viewBox="0 0 102 102" version="1.1" xmlns="http://www.w3.org/2000/svg" xmlns:xlink="http://www.w3.org/1999/xlink">
    <!-- Generator: Sketch 62 (91390) - https://sketch.com -->
    <title>编组 8备份 2</title>
    <desc>Created with Sketch.</desc>
    <g id="连麦视觉输出" stroke="none" stroke-width="1" fill="none" fill-rule="evenodd" opacity="0.800000012">
        <g id="画板备份-5" transform="translate(-5.000000, -5.000000)">
            <g id="编组-8备份-2" transform="translate(8.000000, 8.000000)">
                <g id="编组-6">
                    <g id="编组-9">
                        <path d="M26.3713906,-2.87910402e-15 L69.6286094,1.06543575e-15 C78.7985164,-6.1904885e-16 82.1237463,0.954777715 85.4761272,2.74765067 C88.8285082,4.54052362 91.4594764,7.17149181 93.2523493,10.5238728 C95.0452223,13.8762537 96,17.2014836 96,26.3713906 L96,69.6286094 C96,78.7985164 95.0452223,82.1237463 93.2523493,85.4761272 C91.4594764,88.8285082 88.8285082,91.4594764 85.4761272,93.2523493 C82.1237463,95.0452223 78.7985164,96 69.6286094,96 L26.3713906,96 C17.2014836,96 13.8762537,95.0452223 10.5238728,93.2523493 C7.17149181,91.4594764 4.54052362,88.8285082 2.74765067,85.4761272 C0.954777715,82.1237463 1.46649273e-15,78.7985164 -2.52395878e-15,69.6286094 L7.10290497e-16,26.3713906 C-4.12699233e-16,17.2014836 0.954777715,13.8762537 2.74765067,10.5238728 C4.54052362,7.17149181 7.17149181,4.54052362 10.5238728,2.74765067 C13.8762537,0.954777715 17.2014836,1.67284235e-15 26.3713906,-2.87910402e-15 Z" id="矩形" stroke="#FFFFFF" stroke-width="4.28571429" stroke-linecap="round" stroke-linejoin="round" stroke-dasharray="0,12"></path>
                        <path d="M56.582898,57.7089253 C56.2629107,57.6022526 56.1295826,57.655589 55.8362609,57.815598 C54.8762989,58.3489614 52.5297252,59.6290335 51.1431134,60.3490741 C50.7964605,60.5357512 50.423142,60.6424239 49.9964922,60.6424239 C49.5431768,60.6424239 49.1431926,60.5090831 48.7965397,60.2957377 C46.8499501,59.1490064 45.010023,57.815598 43.436752,56.2155078 C41.8634809,54.6420858 40.5302004,52.8019821 39.3835791,50.8552058 C39.1702542,50.5085196 39.0369262,50.0818289 39.0369262,49.6551382 C39.0369262,49.2551156 39.1435886,48.8550931 39.3302479,48.5084069 C40.0502194,47.0949939 41.3301687,44.748195 41.8634809,43.8148091 C42.0234746,43.5214592 42.0768058,43.3614502 41.9701434,43.0681004 L39.7035665,37.0410941 C39.4102447,36.3477217 38.7436045,35.8943628 37.9436362,35.8676947 C37.6236488,35.8676947 37.2503303,36.0010355 37.1703334,36.0277037 C34.5571036,36.9877578 32.6905109,39.4678975 32.6905109,42.4013961 C32.6905109,43.2281094 32.9038357,44.0014863 32.9305014,44.1881635 C34.2104507,49.788479 37.063671,54.7754267 40.9835158,58.6956476 C44.9033605,62.6158684 49.8898297,65.4693626 55.489608,66.7494347 C55.6762673,66.802771 56.44957,66.9894482 57.2762039,66.9894482 C60.2094211,66.9894482 62.6893229,65.1226764 63.6492848,62.5091958 C63.6759505,62.4291913 63.8359441,62.0558369 63.8092785,61.7358189 C63.7559473,60.9357738 63.3026319,60.2690695 62.609326,59.9757197 L56.582898,57.7089253 Z" id="Combined-Shape" fill="#FFFFFF" transform="translate(48.251388, 51.428571) rotate(135.000000) translate(-48.251388, -51.428571) "></path>
                    </g>
                </g>
            </g>
        </g>
    </g>
</svg>