<?xml version="1.0" encoding="UTF-8"?>
<svg width="20px" height="20px" viewBox="0 0 20 20" version="1.1" xmlns="http://www.w3.org/2000/svg" xmlns:xlink="http://www.w3.org/1999/xlink">
    <title>icon_filled_proof</title>
    <g id="201020过allen后完稿" stroke="none" stroke-width="1" fill="none" fill-rule="evenodd">
        <g id="icon_filled_proof">
            <rect id="矩形" x="0" y="0" width="20" height="20"></rect>
            <path d="M13.6623935,2.28738603 L14.8485392,5.15102772 L17.712614,6.3376065 C18.0244301,6.46676497 18.1725034,6.82424552 18.0433449,7.13606164 L16.8568277,9.99946508 L18.0433449,12.8639383 C18.1725034,13.1757545 18.0244301,13.533235 17.712614,13.6623935 L14.8486964,14.847523 L13.6623935,17.712614 C13.533235,18.0244301 13.1757545,18.1725034 12.8639383,18.0433449 L9.99917025,16.8562625 L7.13606164,18.0433449 C6.82424552,18.1725034 6.46676497,18.0244301 6.3376065,17.712614 L5.15111238,14.8481312 L2.28738603,13.6623935 C1.97556991,13.533235 1.82749662,13.1757545 1.95665508,12.8639383 L3.14282386,9.99969375 L1.95665508,7.13606164 C1.82749662,6.82424552 1.97556991,6.46676497 2.28738603,6.3376065 L5.15159297,5.15009613 L6.3376065,2.28738603 C6.46676497,1.97556991 6.82424552,1.82749662 7.13606164,1.95665508 L9.99894158,3.1422586 L12.8639383,1.95665508 C13.1757545,1.82749662 13.533235,1.97556991 13.6623935,2.28738603 Z M13.6856283,7.11666663 L9.01953108,11.7827638 L6.71461466,9.47784742 L5.83333333,10.3591287 L8.62868842,13.1565058 L8.62868842,13.1565058 L8.697538,13.2152193 C8.91460475,13.3714737 9.21905383,13.3520053 9.41430225,13.1567293 L9.41430225,13.1567293 L14.5710679,8.00210627 L13.6856283,7.11666663 Z" id="形状结合" fill="#FA9D3B"></path>
        </g>
    </g>
</svg>