<?xml version="1.0" encoding="UTF-8"?>
<svg width="24px" height="24px" viewBox="0 0 24 24" version="1.1" xmlns="http://www.w3.org/2000/svg" xmlns:xlink="http://www.w3.org/1999/xlink">
    <!-- Generator: Sketch 59.1 (86144) - https://sketch.com -->
    <title>Icons_filled_voice1</title>
    <desc>Created with Sketch.</desc>
    <g id="Icons_filled_voice1" stroke="none" stroke-width="1" fill="none" fill-rule="evenodd" fill-opacity="0.9">
        <g id="编组-2" transform="translate(4.000000, 2.000000)" fill="#000000">
            <path d="M9.83800739,5.32907052e-15 C12.355773,2.51776565 13.9130435,5.99602652 13.9130435,9.83800739 C13.9130435,13.6799883 12.355773,17.1582491 9.83800739,19.6760148 L8.36230628,18.2003137 C10.5671684,15.9954515 11.826087,13.0190338 11.826087,9.83800739 C11.826087,6.65698097 10.5671684,3.68056324 8.36230628,1.47570111 L9.83800739,5.32907052e-15 Z M6.3947048,3.44330259 C8.03125248,5.07985026 9.04347826,7.34071983 9.04347826,9.83800739 C9.04347826,12.335295 8.03125248,14.5961645 6.3947048,16.2327122 L4.9190037,14.7570111 C6.21653894,13.4594758 6.95652174,11.70996 6.95652174,9.83800739 C6.95652174,7.96605478 6.21653894,6.21653894 4.9190037,4.9190037 L6.3947048,3.44330259 Z M2.95140222,6.88660517 C3.70673191,7.64193487 4.17391304,8.68541313 4.17391304,9.83800739 C4.17391304,10.9906017 3.70673191,12.0340799 2.95140222,12.7894096 L2.95140222,12.7894096 L-1.69864123e-13,9.83800739 Z" id="形状结合"></path>
        </g>
    </g>
</svg>