<?xml version="1.0" encoding="UTF-8"?>
<svg width="24px" height="24px" viewBox="0 0 24 24" version="1.1" xmlns="http://www.w3.org/2000/svg" xmlns:xlink="http://www.w3.org/1999/xlink">
    <title>icons_outlined_朋友聊天区_off</title>
    <g id="icons_outlined_朋友聊天区_off" stroke="none" stroke-width="1" fill="none" fill-rule="evenodd">
        <g id="备份">
            <rect id="矩形" x="0" y="0" width="24" height="24"></rect>
            <g id="common_icons_chats"></g>
            <path d="M12,3 C17.5228475,3 22,6.80557963 22,11.5 C22,13.3158666 21.3301064,14.9987405 20.1889216,16.3798096 L21.4716631,16.967321 C22.1360788,17.2714087 22.6302698,17.9662308 22.693209,18.694807 L22.693209,18.694807 L22.7,18.851317 L22.7,19.118797 C22.7,19.6350009 22.4673526,20.0968671 22.1011896,20.4052638 L22.4249789,20.7279221 L21.5764507,21.5764502 L3.84852868,3.84852817 L4.69705685,3 L6.24552544,4.54750351 C7.87284454,3.57257508 9.85775634,3 12,3 Z M4.33964062,6.03591334 L5.18829354,6.88472236 C3.94321138,8.14893128 3.2,9.76072731 3.2,11.5 C3.2,13.5759237 4.25693049,15.5260959 6.10059482,16.9113629 L6.65125979,17.325114 L6.41619358,19.3473404 L8.66745316,18.2678377 L9.10723968,18.3951922 C9.81271867,18.5994866 10.5489028,18.7282707 11.3031112,18.7773972 C11.3337583,18.0195158 11.8396444,17.2825501 12.5281661,16.9672993 L12.5281661,16.9672993 L14.408,16.105 L15.314,17.011 L13.0277304,18.0583701 C12.7683845,18.1771158 12.5531258,18.4707041 12.5084923,18.7483287 L12.5,18.851317 L12.5,19.118797 C12.5,19.3845581 12.7154419,19.6 12.981203,19.6 L12.981203,19.6 L17.902,19.599 L19.103,20.8 L12.981203,20.8 C12.3722255,20.8 11.8388722,20.4762139 11.5439053,19.9914038 C10.5795521,19.9546569 9.6491825,19.8014315 8.77345417,19.5478358 L5.79050106,20.9781933 C5.70535272,21.0190228 5.61038279,21.0349049 5.51658297,21.0240015 C5.24228753,20.9921171 5.04577459,20.7439092 5.07765905,20.4696138 L5.37975626,17.8707334 C3.30699806,16.313333 2,14.0364044 2,11.5 C2,9.41939524 2.87946206,7.51338845 4.33964062,6.03591334 Z M18.728,17.031 L21.2423857,19.545011 C21.3955476,19.4644977 21.5,19.3038455 21.5,19.118797 L21.5,19.118797 L21.5,18.851317 C21.5,18.5445201 21.263727,18.1918633 20.9722695,18.05847 L20.9722695,18.05847 L18.728,17.031 Z M17,11.6 C15.955695,11.6 15.1052632,12.3958547 15.1052632,13.3775913 L15.1052632,13.3775913 L15.105,13.408 L17.938191,16.2425846 C17.9521477,16.1696261 17.9826533,16.0963746 18.030365,16.0259628 L18.0925785,15.9467257 L18.2638308,15.7562547 C18.610968,15.3701602 18.8947368,14.6441315 18.8947368,14.1378603 L18.8947368,14.1378603 L18.8947368,13.37787 C18.8947368,12.3968801 18.0464343,11.6 17,11.6 Z M12,4.2 C10.1888363,4.2 8.51417137,4.65307623 7.12259064,5.42553817 L14.0810234,12.3843685 C14.5081863,11.2207216 15.6644608,10.4 17,10.4 C18.6924564,10.4 20.0947368,11.7162485 20.0947368,13.37787 L20.0947368,13.37787 L20.0947368,14.1378603 C20.0947368,14.2173738 20.0908817,14.2989086 20.0834082,14.3818725 C20.5447259,13.4948752 20.8,12.5193301 20.8,11.5 C20.8,7.51548439 16.8994301,4.2 12,4.2 Z" id="Combined-Shape" fill="#FFFFFF"></path>
        </g>
    </g>
</svg>