<?xml version="1.0" encoding="UTF-8"?>
<svg width="32px" height="32px" viewBox="0 0 32 32" version="1.1" xmlns="http://www.w3.org/2000/svg" xmlns:xlink="http://www.w3.org/1999/xlink">
    <title>icons_outlined_lock</title>
    <g id="icons_outlined_lock" stroke="none" stroke-width="1" fill="none" fill-rule="evenodd">
        <path d="M16,3.2 C20.1237261,3.2 23.4666667,6.54294053 23.4666667,10.6666667 C23.4666667,11.1084945 23.1084945,11.4666667 22.6666667,11.4666667 C22.2248389,11.4666667 21.8666667,11.1084945 21.8666667,10.6666667 C21.8666667,7.42659613 19.2400705,4.8 16,4.8 C12.8335674,4.8 10.2530409,7.30856211 10.1373798,10.446727 L10.1333333,10.6666667 L10.1333333,13.3333333 L25.4666667,13.3333333 C26.1294084,13.3333333 26.6666667,13.8705916 26.6666667,14.5333333 L26.6666667,28.1333333 C26.6666667,28.796075 26.1294084,29.3333333 25.4666667,29.3333333 L6.53333333,29.3333333 C5.87059163,29.3333333 5.33333333,28.796075 5.33333333,28.1333333 L5.33333333,14.5333333 C5.33333333,13.8705916 5.87059163,13.3333333 6.53333333,13.3333333 L8.53333333,13.3333333 L8.53333333,10.6666667 C8.53333333,6.54294053 11.8762739,3.2 16,3.2 Z M25.0666667,14.9333333 L6.93333333,14.9333333 L6.93333333,27.7333333 L25.0666667,27.7333333 L25.0666667,14.9333333 Z M20.7883676,17.4143274 L21.8782991,18.5856726 L14.7136584,25.2523392 C14.4065426,25.5381091 13.9308428,25.5381091 13.6237269,25.2523392 L10.1217009,21.9937194 L11.2116324,20.8223743 L14.1686927,23.5739059 L20.7883676,17.4143274 Z" id="形状" fill="#000000"></path>
    </g>
</svg>