<?xml version="1.0" encoding="UTF-8"?>
<svg width="24px" height="24px" viewBox="0 0 24 24" version="1.1" xmlns="http://www.w3.org/2000/svg" xmlns:xlink="http://www.w3.org/1999/xlink">
    <title>icons_outlined_symbol</title>
    <defs>
        <filter id="filter-1">
            <feColorMatrix in="SourceGraphic" type="matrix" values="0 0 0 0 0.000000 0 0 0 0 0.000000 0 0 0 0 0.000000 0 0 0 0.900000 0"></feColorMatrix>
        </filter>
    </defs>
    <g id="icons_outlined_symbol" stroke="none" stroke-width="1" fill="none" fill-rule="evenodd">
        <g filter="url(#filter-1)" id="编组">
            <g transform="translate(1.078876, 3.008080)">
                <path d="M19.9211241,0.991919702 C20.4734088,0.991919702 20.9211241,1.43963495 20.9211241,1.9919197 L20.9211241,15.9919197 C20.9211241,16.5442045 20.4734088,16.9919197 19.9211241,16.9919197 L1.92112406,16.9919197 C1.36883931,16.9919197 0.921124062,16.5442045 0.921124062,15.9919197 L0.921124062,1.9919197 C0.921124062,1.43963495 1.36883931,0.991919702 1.92112406,0.991919702 L19.9211241,0.991919702 Z M19.721,2.191 L2.121,2.191 L2.121,15.791 L19.721,15.791 L19.721,2.191 Z M15.620293,4.57689357 L16.3570217,5.52411623 L6.16605212,13.4504259 L5.42932339,12.5032033 L15.620293,4.57689357 Z M17.9211241,10.8919197 L17.9211241,12.0919197 L12.9211241,12.0919197 L12.9211241,10.8919197 L17.9211241,10.8919197 Z M7.02112406,3.9919197 L7.02112406,5.8909197 L8.92112406,5.8919197 L8.92112406,7.0919197 L7.02112406,7.0919197 L7.02112406,8.9919197 L5.82112406,8.9919197 L5.82012406,7.0919197 L3.92112406,7.0919197 L3.92112406,5.8919197 L5.82012406,5.8909197 L5.82112406,3.9919197 L7.02112406,3.9919197 Z" id="形状结合" fill="#979797" fill-rule="nonzero"></path>
            </g>
        </g>
    </g>
</svg>