<?xml version="1.0" encoding="UTF-8"?>
<svg width="24px" height="24px" viewBox="0 0 24 24" version="1.1" xmlns="http://www.w3.org/2000/svg" xmlns:xlink="http://www.w3.org/1999/xlink">
    <title>icon_drag</title>
    <g id="icon_drag" stroke="none" stroke-width="1" fill="none" fill-rule="evenodd">
        <rect id="矩形" fill="#D8D8D8" opacity="0" x="0" y="0" width="24" height="24"></rect>
        <path d="M21.5,17 C21.7761424,17 22,17.2238576 22,17.5 C22,17.7761424 21.7761424,18 21.5,18 L2.5,18 C2.22385763,18 2,17.7761424 2,17.5 C2,17.2238576 2.22385763,17 2.5,17 L21.5,17 Z M21.5,12 C21.7761424,12 22,12.2238576 22,12.5 C22,12.7761424 21.7761424,13 21.5,13 L2.5,13 C2.22385763,13 2,12.7761424 2,12.5 C2,12.2238576 2.22385763,12 2.5,12 L21.5,12 Z M21.5,7 C21.7761424,7 22,7.22385763 22,7.5 C22,7.77614237 21.7761424,8 21.5,8 L2.5,8 C2.22385763,8 2,7.77614237 2,7.5 C2,7.22385763 2.22385763,7 2.5,7 L21.5,7 Z" id="形状结合" fill="#000000"></path>
    </g>
</svg>