<svg width="25" height="24" viewBox="0 0 25 24" fill="none" xmlns="http://www.w3.org/2000/svg">
<rect x="0.5" width="24" height="24" fill="none"/>
<path fill-rule="evenodd" clip-rule="evenodd" d="M10 15.7143C13.4321 15.7143 16.2143 12.9321 16.2143 9.5C16.2143 6.06794 13.4321 3.28571 10 3.28571C6.56794 3.28571 3.78571 6.06794 3.78571 9.5C3.78571 12.9321 6.56794 15.7143 10 15.7143ZM10 17C14.1421 17 17.5 13.6421 17.5 9.5C17.5 5.35786 14.1421 2 10 2C5.85786 2 2.5 5.35786 2.5 9.5C2.5 13.6421 5.85786 17 10 17Z" fill="black" fill-opacity="0.3"/>
<path fill-rule="evenodd" clip-rule="evenodd" d="M15 20.7143C18.4321 20.7143 21.2143 17.9321 21.2143 14.5C21.2143 11.0679 18.4321 8.28571 15 8.28571C11.5679 8.28571 8.78571 11.0679 8.78571 14.5C8.78571 17.9321 11.5679 20.7143 15 20.7143ZM15 22C19.1421 22 22.5 18.6421 22.5 14.5C22.5 10.3579 19.1421 7 15 7C10.8579 7 7.5 10.3579 7.5 14.5C7.5 18.6421 10.8579 22 15 22Z" fill="black" fill-opacity="0.3"/>
</svg>
