<?xml version="1.0" encoding="UTF-8"?>
<svg width="24px" height="24px" viewBox="0 0 24 24" version="1.1" xmlns="http://www.w3.org/2000/svg" xmlns:xlink="http://www.w3.org/1999/xlink">
    <title>icon_new_60_69_非豆苗</title>
    <g id="icon_new_60_69_非豆苗" stroke="none" stroke-width="1" fill="none" fill-rule="evenodd">
        <path d="M18,20.2 L18,21.4 L6,21.4 L6,20.2 L18,20.2 Z M20.6,11.1 C21.5941125,11.1 22.4,11.9058875 22.4,12.9 C22.4,13.8941125 21.5941125,14.7 20.6,14.7 C20.1344404,14.7 19.7101624,14.5232522 19.3906071,14.2331978 C18.3798289,15.0925681 17.8512141,16.4972244 17.8035439,18.4980944 L17.8,18.8 L16.6,18.8 C16.6,16.1784814 17.3398742,14.2714342 18.8176628,13.1486217 C18.8058798,13.0684543 18.8,12.9849138 18.8,12.9 C18.8,11.9058875 19.6058875,11.1 20.6,11.1 Z M3.4,11.1 C4.39411255,11.1 5.2,11.9058875 5.2,12.9 C5.2,12.9849138 5.19412024,13.0684543 5.18274565,13.1502365 C6.59954438,14.2254049 7.33809816,16.023442 7.39626993,18.4812024 L7.4,18.8 L6.2,18.8 C6.2,16.6377957 5.67028144,15.1352655 4.60912156,14.231086 C4.28983763,14.5232522 3.86555964,14.7 3.4,14.7 C2.40588745,14.7 1.6,13.8941125 1.6,12.9 C1.6,11.9058875 2.40588745,11.1 3.4,11.1 Z M8.44196053,14.7601719 L9.1470231,15.0382583 L9.94296686,17.0573478 C9.97153788,17.4794667 9.98936757,17.9122981 9.99647112,18.3558055 L10,18.8 L8.8,18.8 C8.8,17.3214077 8.68043448,15.9753279 8.44196053,14.7601719 Z M15.2028591,18.3775273 L15.2,18.8 L14,18.8 C14,18.206042 14.0162013,17.6320972 14.0486597,17.0782518 L14.8533748,15.0382583 L15.5109423,14.7774602 C15.3238157,15.8603512 15.2208584,17.0599676 15.2028591,18.3775273 Z M12.1467563,6.90341847 C12.2498454,6.94407621 12.3314479,7.02567869 12.3721056,7.12876776 L13.6970563,10.4882251 L17.0565136,11.8131758 C17.2620219,11.894227 17.3629142,12.1265294 17.2818629,12.3320377 C17.2412052,12.4351268 17.1596027,12.5167292 17.0565136,12.557387 L13.6970563,13.8823376 L12.3721056,17.241795 C12.2910543,17.4473032 12.0587519,17.5481956 11.8532437,17.4671443 C11.7501546,17.4264865 11.6685521,17.3448841 11.6278944,17.241795 L10.3029437,13.8823376 L6.94348639,12.557387 C6.73797814,12.4763357 6.63708582,12.2440333 6.71813709,12.0385251 C6.75879483,11.935436 6.84039731,11.8538335 6.94348639,11.8131758 L10.3029437,10.4882251 L11.6278944,7.12876776 C11.7089457,6.92325951 11.9412481,6.82236719 12.1467563,6.90341847 Z M4.8,5.8 C5.79411255,5.8 6.6,6.60588745 6.6,7.6 C6.6,7.82103942 6.56015785,8.03277321 6.4872633,8.22841161 C6.98064307,8.71805415 7.42138604,9.2618688 7.81016287,9.8582236 L6.66668932,10.3097961 C6.3776541,9.89144476 6.0593814,9.50497567 5.71195232,9.15019285 C5.4443932,9.3097154 5.13274015,9.4 4.8,9.4 C3.80588745,9.4 3,8.59411255 3,7.6 C3,6.60588745 3.80588745,5.8 4.8,5.8 Z M19.2,5.8 C20.1941125,5.8 21,6.60588745 21,7.6 C21,8.59411255 20.1941125,9.4 19.2,9.4 C18.8243983,9.4 18.4756663,9.28495751 18.1871179,9.08818654 C17.8237972,9.43043834 17.4931333,9.81959278 17.195475,10.2544347 L16.0524799,9.80354557 C16.4638209,9.16128394 16.9374413,8.59637475 17.4737472,8.1094454 C17.4257282,7.9492399 17.4,7.77762452 17.4,7.6 C17.4,6.60588745 18.2058875,5.8 19.2,5.8 Z M9,2 C9.99411255,2 10.8,2.80588745 10.8,3.8 C10.8,4.296072 10.5993253,4.74527391 10.2747258,5.07085568 C10.3990613,5.35943198 10.5182742,5.65498805 10.6324953,5.95666667 C10.4642697,6.12993909 10.3268218,6.33927136 10.2324984,6.57843159 L9.88654297,7.45764059 C9.67668185,6.80639822 9.44507246,6.18359774 9.19176276,5.58923671 L9.14762799,5.59403305 L9.14762799,5.59403305 L9,5.6 C8.00588745,5.6 7.2,4.79411255 7.2,3.8 C7.2,2.80588745 8.00588745,2 9,2 Z M15,2 C15.9941125,2 16.8,2.80588745 16.8,3.8 C16.8,4.79411255 15.9941125,5.6 15,5.6 C14.9351065,5.6 14.8710151,5.59656596 14.8078976,5.5898697 C14.5550569,6.18329414 14.3235548,6.80576198 14.1137786,7.45664267 L13.7675016,6.57843159 C13.6753367,6.34474424 13.5388773,6.13430133 13.3681691,5.9571486 C13.4811935,5.65630785 13.6006613,5.36007819 13.725148,5.06999869 C13.4006747,4.74527391 13.2,4.296072 13.2,3.8 C13.2,2.80588745 14.0058875,2 15,2 Z" id="形状结合" fill="#FFFFFF"></path>
    </g>
</svg>