<?xml version="1.0" encoding="UTF-8"?>
<svg width="24px" height="24px" viewBox="0 0 24 24" version="1.1" xmlns="http://www.w3.org/2000/svg" xmlns:xlink="http://www.w3.org/1999/xlink">
    <!-- Generator: Sketch 55.2 (78181) - https://sketchapp.com -->
    <title>3.Icons/Outlined/phone</title>
    <desc>Created with Sketch.</desc>
    <g id="3.Icons/Outlined/phone" stroke="none" stroke-width="1" fill="none" fill-rule="evenodd">
        <g>
            <g id="Group-5-Copy-3" transform="translate(12.000000, 12.000000) scale(-1, 1) translate(-12.000000, -12.000000) "></g>
            <path d="M19.9923732,11.1912448 C18.5536695,9.63021744 15.0652852,8.60230674 11.9956913,8.59999983 C8.92770184,8.60230486 5.44695175,9.62954334 4.00762676,11.1912448 C3.09343937,12.1831597 2.84439785,13.5493326 3.38146369,14.7116789 C3.39436132,14.7405123 3.41087004,14.7750334 3.42569868,14.8032868 C3.45784937,14.8645445 3.48855433,14.9108305 3.52222785,14.9496339 C3.53702262,14.9666825 3.55150275,14.9810769 3.57368059,14.999948 C3.83445895,15.2281449 4.18152355,15.2909185 4.46215552,15.177502 L7.19496766,13.9374133 C7.28645928,13.891616 7.29007011,13.8866493 7.40348977,13.6215535 C7.41549813,13.5934864 7.73386697,12.8510451 7.82031751,12.6480322 C7.83919944,12.6036748 7.83919944,12.6036748 7.85805801,12.5593006 C7.94606007,12.3521426 8.02609481,12.1618557 8.10613512,11.9691791 C8.19368988,11.7584133 8.24794619,11.6588181 8.37980894,11.5269553 C8.52659609,11.3801682 8.70503825,11.2832122 8.89794825,11.2372585 C10.0228494,10.9456603 11.0350617,10.8046983 11.9906494,10.8120808 C12.9574777,10.8046825 13.9799304,10.9463809 15.0908588,11.2344716 C15.2949617,11.2832122 15.4734039,11.3801682 15.6201911,11.5269553 C15.7520538,11.6588181 15.8063101,11.7584133 15.8938649,11.9691791 C15.9739052,12.1618557 16.0539399,12.3521426 16.141942,12.5593006 C16.1608006,12.6036748 16.1608006,12.6036748 16.1796825,12.6480322 C16.266133,12.8510451 16.5845019,13.5934864 16.5965102,13.6215535 C16.7099299,13.8866493 16.7135407,13.891616 16.7844751,13.9276066 L19.5155545,15.1679221 C19.8184764,15.2909185 20.1655411,15.2281449 20.4339293,14.9934005 C20.4484972,14.9810769 20.4629774,14.9666825 20.4777721,14.9496339 C20.5114457,14.9108305 20.5421506,14.8645445 20.5743013,14.8032868 C20.58913,14.7750334 20.6056387,14.7405123 20.6215781,14.7049891 C21.1556021,13.5493326 20.9065606,12.1831597 19.9923732,11.1912448 Z" id="Combined-Shape" stroke="#000000" stroke-width="1.2" fill-rule="nonzero"></path>
        </g>
    </g>
</svg>