<?xml version="1.0" encoding="UTF-8"?>
<svg width="20px" height="20px" viewBox="0 0 20 20" version="1.1" xmlns="http://www.w3.org/2000/svg" xmlns:xlink="http://www.w3.org/1999/xlink">
    <title>Icon/Followed</title>
    <g id="页面-1" stroke="none" stroke-width="1" fill="none" fill-rule="evenodd" fill-opacity="0.9">
        <g id="Profile-已关注" transform="translate(-372.000000, -124.000000)" fill="#000000">
            <g id="编组-3" transform="translate(366.000000, 118.000000)">
                <g id="编组" transform="translate(6.000000, 6.000000)">
                    <path d="M13.9178653,16.0046147 L18.1103024,11.8121776 L18.9791725,12.6810477 L14.3525516,17.306339 C14.1182564,17.5406729 13.7383574,17.5406183 13.5040765,17.3062701 C13.5040588,17.3062524 13.5040412,17.3062347 13.5040765,17.306164 L11.2278967,15.0287607 L11.2278967,15.0287607 L12.084954,14.1717034 L13.9178653,16.0046147 Z M9.91666667,2.5 C11.7576158,2.5 13.25,3.99415019 13.25,5.83350622 L13.25,7.25848807 C13.25,8.20774662 12.750777,9.56905029 12.1400726,10.2929775 L11.8387955,10.6501106 C11.6252703,10.9032228 11.5335428,11.1863451 11.5544804,11.4530885 L10.252683,11.4522955 C10.2357275,10.9404436 10.392664,10.4125172 10.7393425,9.94545515 L10.8451427,9.81186599 L11.1464198,9.45473291 C11.5257557,9.00506924 11.884873,8.07293331 11.9420916,7.42698325 L11.95,7.25848807 L11.95,5.83350622 C11.95,4.71142029 11.0389458,3.8 9.91666667,3.8 C8.84682835,3.8 7.96672269,4.63074456 7.88892349,5.68145217 L7.88333333,5.83298365 L7.88333333,7.25774211 C7.88333333,7.84697208 8.20940366,8.78718803 8.58376857,9.31909747 L8.68685678,9.45346991 L8.98813389,9.810554 C9.99045265,10.998537 9.6857699,12.6475638 8.36627225,13.3964924 L8.21550005,13.4759334 L3.49853909,15.7777582 C3.44323558,15.8047457 3.34223022,15.9562753 3.31009797,16.0490625 L3.3,16.0962194 L3.3,16.2 L9.916,16.2 L9.916,17.5 L2.83452468,17.5 C2.37362942,17.5 2,17.1297962 2,16.6679682 L2,16.0962194 C2,15.525312 2.41512576,14.8599232 2.92841467,14.6094439 L7.64537563,12.3076192 C8.32948094,11.9737834 8.48854921,11.2343854 7.99453769,10.6488657 L7.69326058,10.2917817 C7.08026469,9.56523763 6.58333333,8.20791373 6.58333333,7.25774211 L6.58333333,5.83298365 C6.58333333,3.99222761 8.07946346,2.5 9.91666667,2.5 Z" id="1.3pt"></path>
                </g>
            </g>
        </g>
    </g>
</svg>