<?xml version="1.0" encoding="UTF-8"?>
<svg width="24px" height="24px" viewBox="0 0 24 24" version="1.1" xmlns="http://www.w3.org/2000/svg" xmlns:xlink="http://www.w3.org/1999/xlink">
    <title>转场@2x</title>
    <g id="转场" stroke="none" stroke-width="1" fill="none" fill-rule="evenodd">
        <g id="编组-8"></g>
        <path d="M20.75,21.0859239 C20.75,21.4725232 20.4365993,21.7859285 20.05,21.7859285 C19.8531036,21.7859285 19.6653116,21.703 19.5326705,21.5574853 L12,13.293 L4.46732947,21.5574853 C4.20689326,21.8431985 3.76415171,21.8636895 3.47843853,21.6032533 C3.33292384,21.4706123 3.25,21.2828202 3.25,21.0859239 L3.25,3.70000467 C3.25,3.31340534 3.56340068,3 3.95,3 C4.14689635,3 4.33468842,3.08292851 4.46732947,3.2284432 L12,11.492 L19.5326705,3.2284432 C19.7931067,2.94273002 20.2358483,2.92223899 20.5215615,3.1826752 C20.6670762,3.31531624 20.75,3.50310832 20.75,3.70000467 L20.75,21.0859239 Z" id="路径" fill-opacity="0.9" fill="#000000"></path>
    </g>
</svg>