<?xml version="1.0" encoding="UTF-8"?>
<svg width="24px" height="24px" viewBox="0 0 24 24" version="1.1" xmlns="http://www.w3.org/2000/svg" xmlns:xlink="http://www.w3.org/1999/xlink">
    <title>编组 10</title>
    <defs>
        <filter id="filter-1">
            <feColorMatrix in="SourceGraphic" type="matrix" values="0 0 0 0 0.000000 0 0 0 0 0.000000 0 0 0 0 0.000000 0 0 0 1.000000 0"></feColorMatrix>
        </filter>
    </defs>
    <g id="icon_music_filled" stroke="none" stroke-width="1" fill="none" fill-rule="evenodd">
        <g id="编组-10" filter="url(#filter-1)">
            <g>
                <path d="M22.2789834,3.99027333 C22.2851332,4.02071913 22.2868813,4.05189001 22.2841741,4.08283251 L21.0782676,17.8664079 C20.9289421,19.5732054 19.3993175,20.8336041 17.6617554,20.6815871 C15.9241932,20.5295701 14.636673,19.0227032 14.7859984,17.3159056 C14.9301747,15.6679632 16.3610984,14.4361642 18.0235526,14.4899992 L18.2025106,14.5007264 C18.550023,14.5311298 18.855948,14.27905 18.885813,13.9376905 L19.4689967,7.26188663 L11.7242183,8.82583602 L10.7943348,19.4579486 C10.6501585,21.1058911 9.21923484,22.33769 7.55678058,22.283855 L7.37782259,22.2731278 C5.64026044,22.1211109 4.35274019,20.6142439 4.50206563,18.9074464 C4.64624192,17.2595039 6.07716559,16.027705 7.73961985,16.08154 L7.91857784,16.0922671 C8.26609027,16.1226705 8.57201519,15.8705908 8.60188028,15.5292313 L9.39185655,6.49976117 C9.40440105,6.35637689 9.50986971,6.23837594 9.65095233,6.20987839 L21.8965414,3.73636832 C22.0722638,3.70087382 22.2434889,3.81455097 22.2789834,3.99027333 Z M7.0609582,1.71428571 L7.2412164,3.56718571 L5.48015765,3.73164221 L6.10859434,8.11713261 L6.10276266,8.11698362 L6.11446462,8.18094076 C6.27589047,9.3092086 5.5237086,10.356649 4.41147122,10.6016797 L4.23294335,10.6335954 C3.0238859,10.8005087 1.90600223,9.97303791 1.73607362,8.78538849 C1.56615834,7.5977372 2.40854411,6.49964633 3.61760156,6.33273296 C3.72814395,6.31747231 3.83792421,6.3105239 3.94628751,6.31140303 L3.44515815,2.70199053 C3.40329522,2.40018942 3.58987172,2.11955029 3.8746083,2.02842074 L4.01091975,2.00059254 L7.0609582,1.71428571 Z" id="形状结合" fill="#FFFFFF"></path>
            </g>
        </g>
    </g>
</svg>