<?xml version="1.0" encoding="UTF-8"?>
<svg width="24px" height="24px" viewBox="0 0 24 24" version="1.1" xmlns="http://www.w3.org/2000/svg" xmlns:xlink="http://www.w3.org/1999/xlink">
    <title>icon_certification_organization</title>
    <g id="icon_certification_organization" stroke="none" stroke-width="1" fill="none" fill-rule="evenodd">
        <path d="M16.5351895,3.08361907 L17.8182471,6.18123326 L20.9163809,7.46481054 C21.47765,7.69729579 21.7441819,8.34076077 21.5116966,8.9020298 L20.2281933,11.9993581 L21.5116966,15.0979702 C21.7441819,15.6592392 21.47765,16.3027042 20.9163809,16.5351895 L17.818053,17.8179514 L16.5351895,20.9163809 C16.3027042,21.47765 15.6592392,21.7441819 15.0979702,21.5116966 L11.9999282,20.2278977 L8.9020298,21.5116966 C8.34076077,21.7441819 7.69729579,21.47765 7.46481054,20.9163809 L6.18133486,17.8177574 L3.08361907,16.5351895 C2.52235004,16.3027042 2.25581812,15.6592392 2.48830336,15.0979702 L3.77138863,11.9996325 L2.48830336,8.9020298 C2.25581812,8.34076077 2.52235004,7.69729579 3.08361907,7.46481054 L6.18152888,6.18103924 L7.46481054,3.08361907 C7.69729579,2.52235004 8.34076077,2.25581812 8.9020298,2.48830336 L11.9996538,3.771093 L15.0979702,2.48830336 C15.6592392,2.25581812 16.3027042,2.52235004 16.5351895,3.08361907 L16.5351895,3.08361907 Z" id="蒙版" fill="#1485EE" fill-rule="nonzero"></path>
        <path d="M10.8234373,14.1393166 L16.422754,8.53999996 L17.4852815,9.60252752 L11.5329139,15.5524219 C11.1424171,15.9429738 10.5092522,15.9428422 10.118809,15.5522368 C10.1187728,15.5522005 10.1187366,15.5521643 10.1188091,15.5520194 L7,12.4309545 L8.05753759,11.3734169 L10.8234373,14.1393166 Z" id="路径" fill="#FFFFFF" fill-rule="nonzero"></path>
    </g>
</svg>