<?xml version="1.0" encoding="UTF-8"?>
<svg width="24px" height="24px" viewBox="0 0 24 24" version="1.1" xmlns="http://www.w3.org/2000/svg" xmlns:xlink="http://www.w3.org/1999/xlink">
    <!-- Generator: Sketch 63.1 (92452) - https://sketch.com -->
    <title>话题</title>
    <desc>Created with Sketch.</desc>
    <g id="话题" stroke="none" stroke-width="1" fill="none" fill-rule="evenodd">
        <g id="编组备份" fill="#191919">
            <path d="M12,2 C17.5228475,2 22,6.4771525 22,12 C22,17.5228475 17.5228475,22 12,22 C6.4771525,22 2,17.5228475 2,12 C2,6.4771525 6.4771525,2 12,2 Z M11.1,7 L9.6,7 L9.36,8.999 L7,9 L7,10.5 L9.18,10.499 L8.82,13.499 L7,13.5 L7,15 L8.64,14.999 L8.4,17 L9.9,17 L10.14,14.999 L13.14,14.999 L12.9,17 L14.4,17 L14.64,14.999 L17,15 L17,13.5 L14.82,13.499 L15.18,10.499 L17,10.5 L17,9 L15.36,8.999 L15.6,7 L14.1,7 L13.86,8.999 L10.86,8.999 L11.1,7 Z M13.68,10.499 L13.32,13.499 L10.32,13.499 L10.68,10.499 L13.68,10.499 Z" id="形状结合"></path>
        </g>
    </g>
</svg>