<?xml version="1.0" encoding="UTF-8"?>
<svg width="24px" height="24px" viewBox="0 0 24 24" version="1.1" xmlns="http://www.w3.org/2000/svg" xmlns:xlink="http://www.w3.org/1999/xlink">
    <title>icons_outlined_channels_Enterprisewechat</title>
    <g id="icons_outlined_channels_Enterprisewechat" stroke="none" stroke-width="1" fill="none" fill-rule="evenodd">
        <g id="WeCom_outlined" transform="translate(1.000000, 2.500000)" fill="#000000" fill-rule="nonzero">
            <path d="M1.20211366,7.8638068 C1.20211366,4.2677439 4.63319647,1.20211366 9.06594049,1.20211366 C13.4986344,1.20211366 16.9297673,4.2677439 16.9297673,7.8638068 C16.9297673,7.95546796 16.9275634,8.04672842 16.9231557,8.13768836 C17.0232317,8.12226123 17.125812,8.11424714 17.2302957,8.11424714 C17.5486555,8.11424714 17.8496848,8.18847766 18.1170549,8.32071016 C18.1268722,8.16964455 18.131881,8.01737682 18.131881,7.8638068 C18.131881,3.43768442 13.9832866,0 9.06594049,0 C4.14863447,0 0,3.43768442 0,7.8638068 C0,10.1822833 1.15255652,12.2445093 2.94720201,13.6686133 L2.60028203,16.0023166 C2.51592371,16.5697142 3.11154097,16.9928583 3.61959427,16.7263897 L6.25683128,15.3432578 C7.14241839,15.5929969 8.08678886,15.7276336 9.06594049,15.7276336 C10.1932226,15.7276336 11.2800335,15.5470161 12.2858019,15.2152327 C11.9792629,14.9399487 11.758074,14.5715008 11.6667134,14.1544676 C10.8569897,14.3943894 9.98295285,14.52552 9.06594049,14.52552 C8.11770322,14.52552 7.21039792,14.3832699 6.37116231,14.1236133 C6.21932533,14.0765305 6.05504648,14.0916571 5.91428899,14.1654869 L3.93428759,15.2039128 L4.18851459,13.4937058 C4.22143247,13.2723165 4.12860926,13.0510274 3.94763105,12.9192958 C2.24714111,11.6820203 1.20211366,9.86362304 1.20211366,7.8638068 Z" id="路径"></path>
            <path d="M17.9510702,16.5699414 C18.3911694,17.0100407 18.3911854,17.7236188 17.9510702,18.163734 C17.510955,18.6038492 16.7973769,18.6038333 16.3572776,18.163734 C16.1991202,18.0055767 16.097771,17.8120743 16.0532882,17.6086692 C15.807026,16.8303352 15.3753526,16.0980088 14.758183,15.4808392 C14.6562334,15.3788896 14.5511387,15.2819976 14.4432124,15.1901686 C14.2980444,15.0419724 14.2980232,14.8040936 14.4447265,14.6573903 C14.5914298,14.510687 14.8293086,14.5107082 14.9759907,14.6573903 C15.0693338,14.7638025 15.1662258,14.8688972 15.2681754,14.9708468 C15.885345,15.5880164 16.6176714,16.0196898 17.3960054,16.265952 C17.5994105,16.3104348 17.7929128,16.4117841 17.9510702,16.5699414 Z M16.1447719,10.9385409 C16.2751749,11.0689439 16.2896473,11.2713868 16.1882339,11.4177836 L16.1447719,11.4698051 L16.146286,11.4713192 C16.0383597,11.5631482 15.933265,11.6600402 15.8313154,11.7619898 C15.2141458,12.3791594 14.7824724,13.1114859 14.5362102,13.8898198 C14.4917274,14.0932249 14.3903781,14.2867273 14.2322208,14.4448846 C13.7921215,14.8849839 13.0785434,14.8849998 12.6384282,14.4448846 C12.198313,14.0047694 12.1983289,13.2911913 12.6384282,12.851092 C12.7965856,12.6929347 12.9900879,12.5915854 13.193493,12.5471026 C13.971827,12.3008404 14.7041534,11.869167 15.321323,11.2519974 C15.4232726,11.1500478 15.5201646,11.0449531 15.6119936,10.9370268 L15.6135077,10.9385409 C15.7601898,10.7918589 15.9980686,10.7918376 16.1447719,10.9385409 Z M21.6699196,12.851092 C22.1100348,13.2912072 22.1100188,14.0047854 21.6699196,14.4448846 C21.5117622,14.603042 21.3182599,14.7043912 21.1148547,14.748874 C20.3365208,14.9951362 19.6041944,15.4268096 18.9870247,16.0439792 C18.8850751,16.1459288 18.7881832,16.2510235 18.6948401,16.3574357 C18.548158,16.5041178 18.3102792,16.504139 18.1635759,16.3574357 C18.0168726,16.2107324 18.0168938,15.9728536 18.1620618,15.8246574 C18.2699881,15.7328284 18.3750828,15.6359364 18.4770324,15.5339868 C19.094202,14.9168172 19.5258754,14.1844908 19.7721376,13.4061569 C19.8166204,13.2027517 19.9179696,13.0092494 20.076127,12.851092 C20.5162262,12.4109928 21.2298044,12.4109768 21.6699196,12.851092 Z M17.9510702,9.13224263 C18.1092275,9.29039998 18.2105768,9.48390234 18.2550596,9.68730746 C18.5013218,10.4656414 18.9329952,11.1979678 19.5501648,11.8151375 C19.6521144,11.9170871 19.7572091,12.013979 19.8636213,12.1073221 C20.0103033,12.2540042 20.0103246,12.491883 19.8636213,12.6385863 C19.716918,12.7852896 19.4790391,12.7852684 19.330843,12.6401004 C19.239014,12.5321741 19.142122,12.4270794 19.0401724,12.3251298 C18.4230028,11.7079602 17.6906764,11.2762868 16.9123424,11.0300246 C16.7089373,10.9855418 16.5154349,10.8841926 16.3572776,10.7260352 C15.9171783,10.285936 15.9171624,9.57235783 16.3572776,9.13224263 C16.7973928,8.69212743 17.5109709,8.69214337 17.9510702,9.13224263 Z" id="形状"></path>
        </g>
    </g>
</svg>