<?xml version="1.0" encoding="UTF-8"?>
<svg width="24px" height="24px" viewBox="0 0 24 24" version="1.1" xmlns="http://www.w3.org/2000/svg" xmlns:xlink="http://www.w3.org/1999/xlink">
    <!-- Generator: Sketch 59.1 (86144) - https://sketch.com -->
    <title>Icons_outlined_format</title>
    <desc>Created with Sketch.</desc>
    <g id="Icons_outlined_format" stroke="none" stroke-width="1" fill="none" fill-rule="evenodd" fill-opacity="0.9">
        <path d="M5,18.4 L5,20.9 L2.5,20.9 L2.5,18.4 L5,18.4 Z M22,19 L22,20.2 L8,20.2 L8,19 L22,19 Z M3.75,11.4 C4.44035594,11.4 5,11.9596441 5,12.65 C5,13.3403559 4.44035594,13.9 3.75,13.9 C3.05964406,13.9 2.5,13.3403559 2.5,12.65 C2.5,11.9596441 3.05964406,11.4 3.75,11.4 Z M22,12 L22,13.2 L8,13.2 L8,12 L22,12 Z M4.305,3.002 L4.305,8 L3.2,8 C3.26278562,5.44620794 3.25528601,4.19348415 3.17750118,4.24182863 C2.93610407,4.39186066 2.65645894,4.50833758 2.345,4.598 L2.345,3.786 C2.569,3.73 2.807,3.632 3.059,3.492 C3.311,3.338 3.521,3.177 3.689,3.002 L4.305,3.002 Z M22,5 L22,6.2 L8,6.2 L8,5 L22,5 Z" id="形状结合" fill="#000000"></path>
    </g>
</svg>