<?xml version="1.0" encoding="UTF-8"?>
<svg width="72px" height="72px" viewBox="0 0 72 72" version="1.1" xmlns="http://www.w3.org/2000/svg" xmlns:xlink="http://www.w3.org/1999/xlink">
    <title>画中画1.2备份</title>
    <g id="画中画1.2备份" stroke="none" stroke-width="1" fill="none" fill-rule="evenodd">
        <path d="M63,40.74 C64.5385075,40.74 65.8065215,41.8981206 65.9798168,43.3901366 L66,43.74 L66.0005557,60.6003176 L65.9803778,60.9504941 C65.8201213,62.327703 64.727147,63.4201784 63.3498677,63.5793823 L63.0000001,63.5993648 L43.14,63.5951598 C41.6017229,63.5942442 40.3340592,62.4361468 40.1603041,60.9443374 L40.14,60.5945246 L40.14,43.74 C40.14,42.2014925 41.2981206,40.9334785 42.7901366,40.7601832 L43.14,40.74 L63,40.74 Z M43.74,44.34 L43.74,60 L62.4,60 L62.4,44.34 L43.74,44.34 Z M55.5,11.4 C57.0385075,11.4 58.2967047,12.5479839 58.47,14.04 L58.5,14.4 L58.5,36.24 L54.9,36.24 L54.9,15 L9.6,15 L9.6,52.5 L35.64,52.5 L35.64,56.1 L9,56.1 C7.46149248,56.1 6.19347852,54.9520161 6.02018319,53.46 L6,53.1 L6,14.4 C6,12.8614925 7.15812057,11.6032953 8.65013662,11.43 L9,11.4 L55.5,11.4 Z M18.7455844,21.3 L30.003,32.556 L30.0069981,23.1 L33.6,23.1 L33.6,35.7 C33.6,37.3568542 32.2568542,38.7 30.6,38.7 L18,38.7 L18,35.1108653 L27.462,35.109 L16.2,23.8455844 L18.7455844,21.3 Z" id="形状" fill="#000000" fill-rule="nonzero"></path>
    </g>
</svg>