<?xml version="1.0" encoding="UTF-8"?>
<svg width="24px" height="24px" viewBox="0 0 24 24" version="1.1" xmlns="http://www.w3.org/2000/svg" xmlns:xlink="http://www.w3.org/1999/xlink">
    <!-- Generator: Sketch 62 (91390) - https://sketch.com -->
    <title>outline_at</title>
    <desc>Created with Sketch.</desc>
    <g id="outline_at" stroke="none" stroke-width="1" fill="none" fill-rule="evenodd">
        <rect id="矩形" x="0" y="0" width="24" height="24"></rect>
        <path d="M11.9482422,20.8964844 C13.3876953,20.8964844 14.6552734,20.7246094 15.5253906,20.4238281 L15.5253906,19.3603516 C14.7949219,19.6503906 13.4091797,19.8330078 11.9589844,19.8330078 C7.46875,19.8330078 4.18164062,16.8896484 4.18164062,11.9589844 C4.18164062,7.36132812 7.37207031,4.06347656 11.7441406,4.06347656 C16.1806641,4.06347656 19.2636719,6.8671875 19.2636719,10.9707031 C19.2636719,13.8603516 18.2861328,15.5039062 16.8574219,15.5039062 C15.8798828,15.5039062 15.3642578,14.859375 15.3642578,13.8818359 L15.3642578,7.73730469 L14.1181641,7.73730469 L14.1181641,9.25195312 L14.0429688,9.25195312 C13.6455078,8.19921875 12.5605469,7.52246094 11.3144531,7.52246094 C9.12304688,7.52246094 7.59765625,9.34863281 7.59765625,11.9912109 C7.59765625,14.6982422 9.1015625,16.5244141 11.3144531,16.5244141 C12.6464844,16.5244141 13.6455078,15.8476562 14.1289062,14.6230469 L14.2041016,14.6230469 C14.3652344,15.8261719 15.375,16.5996094 16.6533203,16.5996094 C19.0166016,16.5996094 20.4345703,14.4082031 20.4345703,10.9921875 C20.4345703,6.23339844 16.8574219,3 11.8408203,3 C6.66308594,3 3,6.64160156 3,11.9160156 C3,17.5449219 6.73828125,20.8964844 11.9482422,20.8964844 Z M11.4863281,15.3535156 C9.92871094,15.3535156 8.9296875,14.0429688 8.9296875,12.0234375 C8.9296875,9.99316406 9.93945312,8.671875 11.4970703,8.671875 C13.0976562,8.671875 14.0966797,9.95019531 14.0966797,11.9697266 C14.0966797,14.0214844 13.0761719,15.3535156 11.4863281,15.3535156 Z" id="@" fill-opacity="0.9" fill="#000000" fill-rule="nonzero"></path>
    </g>
</svg>