<?xml version="1.0" encoding="UTF-8"?>
<svg width="24px" height="24px" viewBox="0 0 24 24" version="1.1" xmlns="http://www.w3.org/2000/svg" xmlns:xlink="http://www.w3.org/1999/xlink">
    <title>车载小矮电动车@2x</title>
    <g id="车载小矮电动车" stroke="none" stroke-width="1" fill="none" fill-rule="evenodd">
        <path d="M9.66012607,6.05953138 C10.4855213,6.01984379 11.2925378,6 12.0811758,6 C12.8332568,6 13.585205,6.01804673 14.3370204,6.05414019 C15.4286955,6.10655509 16.4054929,6.74850367 16.8867099,7.72979463 L18,10 L18,10 L6,10 L7.11065498,7.73516805 C7.59184105,6.7539509 8.56853447,6.11201852 9.66012607,6.05953138 Z" id="矩形" stroke="#07C160" stroke-width="0.8"></path>
        <g id="编组-3" transform="translate(4.000000, 8.000000)" stroke="#07C160" stroke-width="0.8">
            <path d="M0.461335564,0.48645956 L1,0.316157018 C1.40462065,0.188233359 1.83633312,0.412540592 1.96425678,0.817161244 C1.9879454,0.892088009 2,0.970205263 2,1.04878752 L2,1.6 L2,1.6 L0.483842982,1.6 C0.216623882,1.6 3.27249016e-17,1.38337612 0,1.11615702 C-3.52754596e-17,0.828111031 0.186688906,0.573291029 0.461335564,0.48645956 Z" id="矩形"></path>
            <path d="M14.4613356,0.48645956 L15,0.316157018 C15.4046207,0.188233359 15.8363331,0.412540592 15.9642568,0.817161244 C15.9879454,0.892088009 16,0.970205263 16,1.04878752 L16,1.6 L16,1.6 L14.483843,1.6 C14.2166239,1.6 14,1.38337612 14,1.11615702 C14,0.828111031 14.1866889,0.573291029 14.4613356,0.48645956 Z" id="矩形备份-8" transform="translate(15.000000, 0.800000) scale(-1, 1) translate(-15.000000, -0.800000) "></path>
        </g>
        <path d="M5.81445121,10 L18.3860125,10 L19.7782022,10.933448 C20.5418001,11.4454321 21,12.3043113 21,13.2236641 L21,14.6946781 C21,15.4587018 21,16.2227255 21,16.9867492 C21,16.9867492 21,16.9867492 21,16.9867492 C21,17.5339275 20.5564243,17.9775032 20.009246,17.9774947 L19.3982505,17.9774947 C18.7049624,17.9774947 18.0578767,17.6298187 17.6752036,17.0517099 L17.6322036,16.9867492 L17.6322036,16.9867492 L6.1726648,16.9867492 L6.02115876,17.1922977 C5.65722639,17.6860452 5.0803389,17.9774947 4.46696021,17.9774947 L4.15013233,17.9774947 C3.57435601,17.9774992 3.08525716,17.5561784 3,16.9867492 C3,16.9867492 3,16.9867492 3,16.9867492 C3,16.2227255 3,15.4587018 3,14.6946781 L3,14.6946781 L3,13.2236641 C3,12.308787 3.47208362,11.4586683 4.24868823,10.9750514 L5.81445121,10 L5.81445121,10 Z" id="矩形备份-5" stroke="#07C160" stroke-width="0.8"></path>
        <path d="M9.16964261,15.1 L14.8303574,15.1 C15.1121024,15.1 15.3807753,15.2188528 15.5702975,15.4273272 L15.6363636,15.5 C15.7252051,15.5977257 15.7180031,15.7489682 15.6202775,15.8378097 C15.5762588,15.8778267 15.5189052,15.9 15.4594157,15.9 L8.54058432,15.9 C8.40851192,15.9 8.30144609,15.7929342 8.30144609,15.6608618 C8.30144609,15.6013723 8.32361942,15.5440186 8.36363636,15.5 L8.42970254,15.4273272 C8.61922472,15.2188528 8.88789764,15.1 9.16964261,15.1 Z" id="矩形" fill="#07C160"></path>
        <g id="编组-2" transform="translate(5.500000, 11.000000)" stroke="#07C160" stroke-width="0.8">
            <path d="M1.5354903,0.427904434 L2.40523823,0.813433675 C2.76685069,0.973723993 3,1.3320989 3,1.7276448 L3,1.73853552 C3,2.06193326 2.73783433,2.32409893 2.41443658,2.32409893 C2.39069811,2.32409893 2.36698161,2.32265542 2.34341838,2.31977637 L1.04813824,2.16151414 C0.551078444,2.10078149 0.197365401,1.64860137 0.25809805,1.15154157 C0.263664378,1.10598455 0.27268171,1.06091593 0.285072291,1.01672432 C0.421347552,0.530691913 0.925827591,0.247157725 1.41186,0.383432986 C1.45408359,0.395271766 1.49540041,0.410133972 1.5354903,0.427904434 Z" id="矩形"></path>
            <path d="M11.5354903,0.427904434 L12.4052382,0.813433675 C12.7668507,0.973723993 13,1.3320989 13,1.7276448 L13,1.73853552 C13,2.06193326 12.7378343,2.32409893 12.4144366,2.32409893 C12.3906981,2.32409893 12.3669816,2.32265542 12.3434184,2.31977637 L11.0481382,2.16151414 C10.5510784,2.10078149 10.1973654,1.64860137 10.2580981,1.15154157 C10.2636644,1.10598455 10.2726817,1.06091593 10.2850723,1.01672432 C10.4213476,0.530691913 10.9258276,0.247157725 11.41186,0.383432986 C11.4540836,0.395271766 11.4954004,0.410133972 11.5354903,0.427904434 Z" id="矩形备份-7" transform="translate(11.500000, 1.200000) scale(-1, 1) translate(-11.500000, -1.200000) "></path>
        </g>
    </g>
</svg>