<?xml version="1.0" encoding="UTF-8"?>
<svg width="24px" height="24px" viewBox="0 0 24 24" version="1.1" xmlns="http://www.w3.org/2000/svg" xmlns:xlink="http://www.w3.org/1999/xlink">
    <title>状态</title>
    <g id="状态" stroke="none" stroke-width="1" fill="none" fill-rule="evenodd">
        <g id="common_icons_like" fill="#FFFFFF">
            <path d="M11.6066017,5.77817459 C11.7894084,5.9609813 12.0251107,6.18834112 12.3137085,6.46025405 C12.6023063,6.18834112 12.8380086,5.9609813 13.0208153,5.77817459 C14.9734367,3.82555313 18.1392616,3.82555313 20.0918831,5.77817459 C22.0263413,7.71263279 22.0443356,10.837829 20.145866,12.7944397 L13.0207783,19.9202732 C12.6603473,20.2808102 12.0931204,20.308572 11.7008134,20.0035679 L11.6066017,19.9203102 L11.6066017,19.9203102 L4.48114108,12.7948496 C2.5830814,10.837829 2.60107571,7.71263279 4.53553391,5.77817459 C6.48815536,3.82555313 9.65398026,3.82555313 11.6066017,5.77817459 Z M11.5657148,8.44269925 C11.3351878,8.40808909 11.2594273,8.4334003 11.0959995,8.59962879 L11.0959995,8.59962879 L10.953203,8.7519877 L9.878,10.904 L9,10.9042894 L8.90267688,10.9121423 C8.61758961,10.9586426 8.4,11.2060556 8.4,11.5042894 C8.4,11.8356602 8.66862915,12.1042894 9,12.1042894 L9,12.1042894 L10.2190746,12.1042894 L10.3230881,12.0959314 C10.5274264,12.0628387 10.7063438,11.9335185 10.8006514,11.7445797 L10.8006514,11.7445797 L11.439,10.464 L12.9346031,14.2049746 L13.0643327,14.3686032 C13.213478,14.5477573 13.2868901,14.5792372 13.5194876,14.5637784 L13.5194876,14.5637784 L13.7274535,14.5449572 L13.8001979,14.5045483 C13.9254699,14.4334922 13.9406063,14.4107381 14.0465608,14.2514597 L14.0465608,14.2514597 L15.12,12.104 L16,12.1042894 L16.0973231,12.0964364 C16.3824104,12.0499361 16.6,11.8025231 16.6,11.5042894 C16.6,11.1729185 16.3313708,10.9042894 16,10.9042894 L16,10.9042894 L14.7808942,10.9042894 L14.6769673,10.9126333 C14.472793,10.9456714 14.2939769,11.0747825 14.1995798,11.263474 L14.1995798,11.263474 L13.561,12.539 L12.0654069,8.79798007 L11.992526,8.67070126 C11.9624335,8.62357944 11.93672,8.59564765 11.8922437,8.56176727 L11.8922437,8.56176727 L11.7714167,8.47862658 Z" id="形状结合"></path>
        </g>
    </g>
</svg>