<?xml version="1.0" encoding="UTF-8"?>
<svg width="16px" height="16px" viewBox="0 0 16 16" version="1.1" xmlns="http://www.w3.org/2000/svg" xmlns:xlink="http://www.w3.org/1999/xlink">
    <title>画板备份</title>
    <g id="画板备份" stroke="none" stroke-width="1" fill="none" fill-rule="evenodd">
        <g id="编组">
            <g id="gift">
                <g></g>
            </g>
            <path d="M9.15838832,3.67195303 C8.51380892,4.43819661 8.14036891,5.53596258 8.2435308,6.88087865 L8.20338475,6.88127778 L8.20341934,13.5483871 L8.2025359,8.80453405 L6.03428612,8.80489544 C4.76881586,8.80489544 3.62314755,8.29196227 2.79384681,7.46266153 C2.06441139,6.73322611 1.57973659,5.75903006 1.47358415,4.67383513 L1.47358415,4.67383513 L4.61290323,4.67383513 C5.19034698,4.67383513 5.73168749,4.8285185 6.1975524,5.09899356 C6.68040492,5.3793314 7.08227582,5.78376459 7.35949959,6.26863881 L7.35949959,6.26863881 L8.18641231,7.71493855 L8.20314629,6.04901912 C8.21320206,5.04793618 8.62151296,4.14925021 9.2770334,3.50057351 C9.48542967,3.29435293 9.71876834,3.11342842 9.97215306,2.96249746 C9.66973028,3.15213497 9.39548258,3.39010729 9.15838832,3.67195303 Z" id="形状结合" stroke="#FFFFFF" stroke-width="0.903225806"></path>
        </g>
    </g>
</svg>