<?xml version="1.0" encoding="UTF-8"?>
<svg width="24px" height="24px" viewBox="0 0 24 24" version="1.1" xmlns="http://www.w3.org/2000/svg" xmlns:xlink="http://www.w3.org/1999/xlink">
    <title>pause备份</title>
    <g id="pause备份" stroke="none" stroke-width="1" fill="none" fill-rule="evenodd" fill-opacity="0.9">
        <g id="common_icons_miniprogram" fill="#000000">
            <path d="M10.8284271,2 L13.3033009,4.47487373 C13.4768672,4.64844009 13.4961524,4.91786449 13.3611563,5.11273263 L13.3033009,5.18198052 L10.8284271,7.65685425 L9.97989895,6.80832608 L11.5754252,5.21135892 C7.46504197,5.43184742 4.2,8.83462801 4.2,13 C4.2,17.307821 7.69217895,20.8 12,20.8 C16.307821,20.8 19.8,17.307821 19.8,13 C19.8,10.9020822 18.9695547,8.93868889 17.5154329,7.48456711 L18.363961,6.63603897 C19.9926407,8.26471863 21,10.5147186 21,13 C21,17.9705627 16.9705627,22 12,22 C7.02943725,22 3,17.9705627 3,13 C3,8.30942551 6.58827194,4.45693685 11.1695457,4.0378041 L9.97989895,2.84852817 L10.8284271,2 Z M16.0219727,10 L16.0219727,10.9272461 L13.0336914,10.9272461 L12.8710938,12.7817383 L12.8974609,12.7817383 C13.1611328,12.3730469 13.6796875,12.1181641 14.3081055,12.1181641 C15.5209961,12.1181641 16.3955078,13.0102539 16.3955078,14.2451172 C16.3955078,15.5634766 15.4243164,16.46875 14.0180664,16.46875 C12.7084961,16.46875 11.7592773,15.6821289 11.7109375,14.5571289 L11.7109375,14.5571289 L12.7744141,14.5571289 C12.8447266,15.1459961 13.3588867,15.550293 14.0268555,15.550293 C14.7827148,15.550293 15.3012695,15.0229492 15.3012695,14.2758789 C15.3012695,13.515625 14.7783203,12.9794922 14.0356445,12.9794922 C13.5170898,12.9794922 13.0688477,13.2167969 12.8359375,13.6123047 L12.8359375,13.6123047 L11.8076172,13.6123047 L12.137207,10 L16.0219727,10 Z M10.1816406,10 L10.1816406,16.3413086 L9.06982422,16.3413086 L9.06982422,11.0810547 L9.04345703,11.0810547 L7.40429688,12.2324219 L7.40429688,11.1645508 L9.06103516,10 L10.1816406,10 Z" id="形状结合"></path>
        </g>
    </g>
</svg>