<?xml version="1.0" encoding="UTF-8"?>
<svg width="32px" height="32px" viewBox="0 0 32 32" version="1.1" xmlns="http://www.w3.org/2000/svg" xmlns:xlink="http://www.w3.org/1999/xlink">
    <title>状态</title>
    <g id="状态" stroke="none" stroke-width="1" fill="none" fill-rule="evenodd">
        <g id="按钮">
            <rect id="矩形" x="0" y="0" width="32" height="32"></rect>
            <path d="M4.34474144,9.27083333 C1.27494094,14.5878838 2.20766884,21.2649405 6.49743861,25.5350647 C10.7696026,29.7979834 17.4264866,30.7167623 22.7291667,27.6552586 C29.1661882,23.9388424 31.3716747,15.7078549 27.6552586,9.27083333 L27.5778445,9.15083401 C27.1387519,8.5417156 26.3126009,8.36207879 25.6631382,8.73704629 C24.9656281,9.13975392 24.7266435,10.0316566 25.1293511,10.7291667 C28.040352,15.7711681 26.3128347,22.2183503 21.2708333,25.1293511 C18.0198491,27.0063077 14.0766,26.9986796 10.8574208,25.2040799 L10.3820775,24.9201619 C9.71252528,24.4992969 9.09672701,24.0080019 8.54452941,23.4564389 C8.42636194,23.3381357 8.31093817,23.2169064 8.19835047,23.0928219 L7.90380892,22.753898 C7.61630009,22.4084087 7.35005263,22.0433711 7.10499584,21.6589188 L6.86847084,21.270611 C5.0032371,18.0319516 4.96749385,14.0255279 6.87064887,10.7291667 C9.78164974,5.68716526 16.2288319,3.959648 21.2708333,6.87064887 C21.9683434,7.2733565 22.8602461,7.0343719 23.2629537,6.33686182 C23.6379212,5.68739906 23.4582844,4.86124808 22.8544038,4.42573452 L22.7345465,4.34803115 L22.4411388,4.18304807 C16.0362635,0.689001847 7.999337,2.94088815 4.34474144,9.27083333 Z" id="形状结合" fill="#FFFFFF" fill-rule="nonzero"></path>
        </g>
    </g>
</svg>