<?xml version="1.0" encoding="UTF-8"?>
<svg width="32px" height="32px" viewBox="0 0 32 32" version="1.1" xmlns="http://www.w3.org/2000/svg" xmlns:xlink="http://www.w3.org/1999/xlink">
    <title>icons_outlined_insurance</title>
    <g id="icons_outlined_insurance" stroke="none" stroke-width="1" fill="none" fill-rule="evenodd">
        <path d="M12.8,27.7333333 C14.1254834,27.7333333 15.2,26.6588167 15.2,25.3333333 L15.1996667,21.3326667 L4,21.3333333 C3.26362033,21.3333333 2.66666667,20.7363797 2.66666667,20 L2.66666667,17.3333333 C2.66666667,10.2381158 8.20869171,4.43730748 15.200049,4.02360135 L15.2,2.66666667 L16.8,2.66666667 L16.8005417,4.02363632 C23.7916205,4.43763423 29.3333333,10.2383156 29.3333333,17.3333333 L29.3333333,20 C29.3333333,20.7363797 28.7363797,21.3333333 28,21.3333333 L16.7996667,21.3326667 L16.8,25.3333333 C16.8,27.4755287 15.1160315,29.2244122 12.9996403,29.328438 L12.8,29.3333333 C10.590861,29.3333333 8.8,27.5424723 8.8,25.3333333 L10.4,25.3333333 C10.4,26.6588167 11.4745166,27.7333333 12.8,27.7333333 Z M16,5.6 C9.51985894,5.6 4.26666667,10.8531923 4.26666667,17.3333333 L4.26666667,19.7333333 L27.7333333,19.7333333 L27.7333333,17.3333333 C27.7333333,10.8531923 22.4801411,5.6 16,5.6 Z M21.3333333,9.73333333 L22.4232648,10.9046784 L15.2586242,17.5713451 C14.9515083,17.857115 14.4758085,17.857115 14.1686927,17.5713451 L10.6666667,14.3127253 L11.7565981,13.1413802 L14.7136584,15.8929118 L21.3333333,9.73333333 Z" id="形状" fill="#000000"></path>
    </g>
</svg>