<?xml version="1.0" encoding="UTF-8"?>
<svg width="24px" height="24px" viewBox="0 0 24 24" version="1.1" xmlns="http://www.w3.org/2000/svg" xmlns:xlink="http://www.w3.org/1999/xlink">
    <!-- Generator: Sketch 59.1 (86144) - https://sketch.com -->
    <title>键盘</title>
    <desc>Created with Sketch.</desc>
    <g id="0924-暗夜模式" stroke="none" stroke-width="1" fill="none" fill-rule="evenodd">
        <g id="编组-27" transform="translate(2.000000, 0.000000)">
            <g id="common_icons_info" transform="translate(0.000000, 3.000000)" fill="#000000" fill-opacity="0.9">
                <path d="M10,0 C15.5228475,0 20,4.4771525 20,10 C20,15.5228475 15.5228475,20 10,20 C4.4771525,20 0,15.5228475 0,10 C0,4.4771525 4.4771525,0 10,0 Z M10,1.2 C5.1398942,1.2 1.2,5.1398942 1.2,10 C1.2,14.8601058 5.1398942,18.8 10,18.8 C14.8601058,18.8 18.8,14.8601058 18.8,10 C18.8,5.1398942 14.8601058,1.2 10,1.2 Z M13,13 L13,15 L7,15 L7,13 L13,13 Z M6.5,9 L6.5,11 L4.5,11 L4.5,9 L6.5,9 Z M9.5,9 L9.5,11 L7.5,11 L7.5,9 L9.5,9 Z M12.5,9 L12.5,11 L10.5,11 L10.5,9 L12.5,9 Z M15.5,9 L15.5,11 L13.5,11 L13.5,9 L15.5,9 Z M6.5,6 L6.5,8 L4.5,8 L4.5,6 L6.5,6 Z M9.5,6 L9.5,8 L7.5,8 L7.5,6 L9.5,6 Z M12.5,6 L12.5,8 L10.5,8 L10.5,6 L12.5,6 Z M15.5,6 L15.5,8 L13.5,8 L13.5,6 L15.5,6 Z" id="图标颜色"></path>
            </g>
            <polygon id="路径-2备份" fill="#020202" transform="translate(10.000000, 1.000000) rotate(-180.000000) translate(-10.000000, -1.000000) " points="8 0 12 0 10 2"></polygon>
        </g>
    </g>
</svg>