<?xml version="1.0" encoding="UTF-8"?>
<svg width="24px" height="24px" viewBox="0 0 24 24" version="1.1" xmlns="http://www.w3.org/2000/svg" xmlns:xlink="http://www.w3.org/1999/xlink">
    <!-- Generator: Sketch 58 (84663) - https://sketch.com -->
    <title>Icons/Outlined/dislike</title>
    <desc>Created with Sketch.</desc>
    <g id="Icons/Outlined/dislike" stroke="none" stroke-width="1" fill="none" fill-rule="evenodd" fill-opacity="0.9">
        <g id="3.Icons/Outlined/float-window_off" fill="#000000">
            <g id="Icons" transform="translate(3.000000, 3.000000)">
                <path d="M1.65401511,3.351 L2.50304787,4.1989691 C2.46277034,4.23595069 2.42309721,4.27395907 2.38406204,4.31299423 C0.915537104,5.78151917 0.898583145,8.15687038 2.32967362,9.63261735 L9.313666,16.6166823 L12.1160151,13.813 L12.9640151,14.661 L10.0208153,17.6066017 C9.63031143,17.9971464 8.99714645,17.9971796 8.60660172,17.6066757 L1.48114108,10.4811411 C-0.416918598,8.5241205 -0.398924294,5.39892429 1.53553391,3.46446609 L1.65401511,3.351 Z M1.69705685,0 L3.84903603,2.15084931 C5.49806499,1.73694006 7.31694794,2.17481232 8.60660172,3.46446609 C8.78940843,3.6472728 9.02511069,3.87463262 9.3137085,4.14654555 C9.60230631,3.87463262 9.83800857,3.6472728 10.0208153,3.46446609 C11.9734367,1.51184464 15.1392616,1.51184464 17.0918831,3.46446609 C19.0263413,5.39892429 19.0443356,8.5241205 17.145866,10.4807312 L14.6610151,12.964 L18.4249789,16.7279221 L17.5764507,17.5764502 L0.848528677,0.848528171 L1.69705685,0 Z M4.90078376,3.20379358 L13.8130151,12.116 L16.2846386,9.64509528 C17.7287556,8.15675186 17.7118979,5.7815372 16.243355,4.31299423 C14.7593626,2.82900192 12.3533357,2.82900192 10.8693434,4.31299423 C10.6770786,4.50525906 10.4332063,4.74049974 10.1366138,5.0199452 L9.3137085,5.79527533 L8.49080324,5.0199452 C8.1942107,4.74049974 7.95033841,4.50525906 7.75807358,4.31299423 C6.97275831,3.52767896 5.92923366,3.15794541 4.90078376,3.20379358 Z" id="图标颜色"></path>
            </g>
        </g>
    </g>
</svg>