<?xml version="1.0" encoding="UTF-8"?>
<svg width="24px" height="24px" viewBox="0 0 24 24" version="1.1" xmlns="http://www.w3.org/2000/svg" xmlns:xlink="http://www.w3.org/1999/xlink">
    <title>icons_outlined_top</title>
    <g id="icons_outlined_top" stroke="none" stroke-width="1" fill="none" fill-rule="evenodd">
        <path d="M12.7071068,6.22182541 L18.7781746,12.2928932 C19.1686989,12.6834175 19.1686989,13.3165825 18.7781746,13.7071068 C18.5906382,13.8946432 18.3362843,14 18.0710678,14 L15.9999322,13.9999322 L16,21 C16,21.5522847 15.5522847,22 15,22 L9,22 C8.44771525,22 8,21.5522847 8,21 L7.99993219,13.9999322 L5.92893219,14 C5.37664744,14 4.92893219,13.5522847 4.92893219,13 C4.92893219,12.7347835 5.03428903,12.4804296 5.22182541,12.2928932 L11.2928932,6.22182541 C11.6834175,5.83130112 12.3165825,5.83130112 12.7071068,6.22182541 Z M12,7.212 L6.411,12.8 L9.19992056,12.7998929 L9.2,20.8 L14.8,20.8 L14.7999206,12.7998929 L17.588,12.8 L12,7.212 Z M20,3 L20,4.2 L4,4.2 L4,3 L20,3 Z" id="形状" fill="#000000"></path>
    </g>
</svg>