<?xml version="1.0" encoding="UTF-8"?>
<svg width="32px" height="32px" viewBox="0 0 32 32" version="1.1" xmlns="http://www.w3.org/2000/svg" xmlns:xlink="http://www.w3.org/1999/xlink">
    <!-- Generator: Sketch 60.1 (88133) - https://sketch.com -->
    <title>下载选中内容</title>
    <desc>Created with Sketch.</desc>
    <g id="下载选中内容" stroke="none" stroke-width="1" fill="none" fill-rule="evenodd">
        <g id="编组" fill="#000000">
            <path d="M9.33333333,5.33333333 L9.33333333,6.93333333 L4.26666667,6.93333333 L4.26666667,12 L2.66666667,12 L2.66666667,6.66666667 C2.66666667,5.930287 3.26362033,5.33333333 4,5.33333333 L9.33333333,5.33333333 Z" id="Path"></path>
            <path d="M23.3333333,10 C24.069713,10 24.6666667,10.5969537 24.6666667,11.3333333 L24.6666667,20.6666667 C24.6666667,21.4030463 24.069713,22 23.3333333,22 L8.66666667,22 C7.930287,22 7.33333333,21.4030463 7.33333333,20.6666667 L7.33333333,11.3333333 C7.33333333,10.5969537 7.930287,10 8.66666667,10 L23.3333333,10 Z M23.066,11.6 L8.933,11.6 L8.933,20.4 L23.066,20.4 L23.066,11.6 Z" id="矩形" fill-rule="nonzero"></path>
            <path d="M29.3333333,20 L29.3333333,25.3333333 C29.3333333,26.069713 28.7363797,26.6666667 28,26.6666667 L22.6666667,26.6666667 L22.6666667,25.0666667 L27.7333333,25.0666667 L27.7333333,20 L29.3333333,20 Z" id="Path"></path>
            <path d="M29.3333333,5.33333333 L29.3333333,6.93333333 L24.2666667,6.93333333 L24.2666667,12 L22.6666667,12 L22.6666667,6.66666667 C22.6666667,5.930287 23.2636203,5.33333333 24,5.33333333 L29.3333333,5.33333333 Z" id="Path" transform="translate(26.000000, 8.666667) rotate(-270.000000) translate(-26.000000, -8.666667) "></path>
            <path d="M9.33333333,20 L9.33333333,25.3333333 C9.33333333,26.069713 8.73637967,26.6666667 8,26.6666667 L2.66666667,26.6666667 L2.66666667,25.0666667 L7.73333333,25.0666667 L7.73333333,20 L9.33333333,20 Z" id="Path" transform="translate(6.000000, 23.333333) rotate(-270.000000) translate(-6.000000, -23.333333) "></path>
        </g>
    </g>
</svg>