<?xml version="1.0" encoding="UTF-8"?>
<svg width="24px" height="24px" viewBox="0 0 24 24" version="1.1" xmlns="http://www.w3.org/2000/svg" xmlns:xlink="http://www.w3.org/1999/xlink">
    <title>icons_filled_gift</title>
    <g id="icons_filled_gift" stroke="none" stroke-width="1" fill="none" fill-rule="evenodd">
        <path d="M11.3,11.157 L11.3,21 L5,21 C3.8954305,21 3,20.1045695 3,19 L3,11.157 L11.3,11.157 Z M12.7,11.157 L21,11.157 L21,19 C21,20.1045695 20.1045695,21 19,21 L12.7,21 L12.7,11.157 Z M22,10.2 L2,10.2 L2,6.67226891 C2,6.11998416 2.44771525,5.67226891 3,5.67226891 L5.564,5.672 L5.55370748,5.61704216 C5.36973028,4.52972849 5.7887284,3.3817811 6.75594444,2.65842396 C7.3525,2.21216346 8.09638889,1.97900099 8.85183333,2.00148698 C9.75115476,2.02814895 10.5888257,2.40708384 11.180673,3.04855092 L11.3128056,3.20120127 L11.9996389,4.04771247 L12.6868333,3.20120127 C13.2823056,2.46746598 14.1793056,2.03019987 15.1481667,2.00148698 C15.90325,1.97900099 16.6471389,2.21216346 17.2436944,2.65842396 C18.2105694,3.3817811 18.6298707,4.52972849 18.4459283,5.61704216 L18.434,5.672 L21,5.67226891 C21.5522847,5.67226891 22,6.11998416 22,6.67226891 L22,10.2 Z M8.78466667,4.07850099 C8.54127778,4.07158222 8.29355556,4.14284553 8.08627778,4.29747998 C7.64835317,4.62513304 7.54452452,5.21169627 7.8262562,5.65638303 L7.838,5.672 L10.574,5.672 L9.60547222,4.47840575 C9.39963889,4.22483292 9.09522222,4.08784133 8.78466667,4.07850099 Z M15.2146111,4.07850099 C14.9487302,4.08650699 14.6870941,4.18829759 14.4881461,4.37690158 L14.3941667,4.47840575 L13.425,5.672 L16.161,5.672 L16.1733774,5.65638303 C16.4550646,5.21169627 16.3509246,4.62513304 15.913,4.29747998 C15.7060833,4.14284553 15.4583611,4.07158222 15.2146111,4.07850099 Z" id="形状结合备份-5" fill="#000000"></path>
    </g>
</svg>