<?xml version="1.0" encoding="UTF-8"?>
<svg width="20px" height="20px" viewBox="0 0 20 20" version="1.1" xmlns="http://www.w3.org/2000/svg" xmlns:xlink="http://www.w3.org/1999/xlink">
    <!-- Generator: Sketch 57.1 (83088) - https://sketch.com -->
    <title>0.图标/线型/icons_outlined_移除备份</title>
    <desc>Created with Sketch.</desc>
    <g id="0.图标/线型/icons_outlined_移除备份" stroke="none" stroke-width="1" fill="none" fill-rule="evenodd">
        <g id="0.图标/线型/icons_outlined_add2" fill="#000000">
            <path d="M10,1.66666667 C14.6023729,1.66666667 18.3333333,5.39762709 18.3333333,10 C18.3333333,14.6023729 14.6023729,18.3333333 10,18.3333333 C5.39762709,18.3333333 1.66666667,14.6023729 1.66666667,10 C1.66666667,5.39762709 5.39762709,1.66666667 10,1.66666667 Z M10,2.66666667 C5.94991183,2.66666667 2.66666667,5.94991183 2.66666667,10 C2.66666667,14.0500882 5.94991183,17.3333333 10,17.3333333 C14.0500882,17.3333333 17.3333333,14.0500882 17.3333333,10 C17.3333333,5.94991183 14.0500882,2.66666667 10,2.66666667 Z M14.1666667,9.49999491 L14.1666667,10.499995 L5.83333333,10.499995 L5.83333333,9.49999491 L14.1666667,9.49999491 Z" id="Combined-Shape"></path>
        </g>
    </g>
</svg>