<?xml version="1.0" encoding="UTF-8"?>
<svg width="25px" height="24px" viewBox="0 0 25 24" version="1.1" xmlns="http://www.w3.org/2000/svg" xmlns:xlink="http://www.w3.org/1999/xlink">
    <!-- Generator: Sketch 63.1 (92452) - https://sketch.com -->
    <title>3.Icons/Outlined/volume_off备份 2</title>
    <desc>Created with Sketch.</desc>
    <defs>
        <filter x="-55.3%" y="-65.6%" width="210.5%" height="231.2%" filterUnits="objectBoundingBox" id="filter-1">
            <feOffset dx="0" dy="1" in="SourceAlpha" result="shadowOffsetOuter1"></feOffset>
            <feGaussianBlur stdDeviation="2" in="shadowOffsetOuter1" result="shadowBlurOuter1"></feGaussianBlur>
            <feColorMatrix values="0 0 0 0 0   0 0 0 0 0   0 0 0 0 0  0 0 0 0.2 0" type="matrix" in="shadowBlurOuter1" result="shadowMatrixOuter1"></feColorMatrix>
            <feMerge>
                <feMergeNode in="shadowMatrixOuter1"></feMergeNode>
                <feMergeNode in="SourceGraphic"></feMergeNode>
            </feMerge>
        </filter>
    </defs>
    <g id="声音按钮" stroke="none" stroke-width="1" fill="none" fill-rule="evenodd">
        <g id="位置标注" transform="translate(-247.000000, -139.000000)" fill="#FFFFFF">
            <g id="3.Icons/Outlined/volume_off备份-2" filter="url(#filter-1)" transform="translate(250.000000, 143.000000)">
                <g id="音量">
                    <path d="M9.3,0.7 C9.7,0.3 10.3,0.3 10.7,0.7 C10.9,0.9 11,1.1 11,1.4 L11,1.4 L11,14.6 C11,15.2 10.6,15.6 10,15.6 C9.7,15.6 9.5,15.5 9.3,15.3 L9.3,15.3 L5.5,11.5 L1,11.5 C0.4,11.5 0,11.1 0,10.5 L0,10.5 L0,5.5 C0,4.9 0.4,4.5 1,4.5 L1,4.5 L5.5,4.5 Z M16.2,2.1 L16.3,2.2 C17.8,3.7 18.7,5.8 18.7,8 C18.7,10.2 17.9,12.2 16.3,13.8 L16.2,13.9 L15.1,12.8 L15.2,12.7 C16.5,11.4 17.1,9.8 17.1,8 C17.1,6.2 16.4,4.6 15.2,3.3 L15.1,3.2 L16.2,2.1 Z M14.2,4.1 L14.3,4.2 C15.3,5.2 15.9,6.6 15.9,8 C15.9,9.4 15.3,10.8 14.3,11.8 L14.2,11.9 L13.1,10.8 L13.2,10.7 C13.9,10 14.3,9 14.3,8 C14.3,7 13.9,6 13.2,5.3 L13.1,5.2 L14.2,4.1 Z" id="Combined-Shape"></path>
                </g>
            </g>
        </g>
    </g>
</svg>