<?xml version="1.0" encoding="UTF-8"?>
<svg width="24px" height="24px" viewBox="0 0 24 24" version="1.1" xmlns="http://www.w3.org/2000/svg" xmlns:xlink="http://www.w3.org/1999/xlink">
    <!-- Generator: Sketch 63.1 (92452) - https://sketch.com -->
    <title>icon_outlined_Rectangle</title>
    <desc>Created with Sketch.</desc>
    <g id="icon_outlined_Rectangle" stroke="none" stroke-width="1" fill="none" fill-rule="evenodd" fill-opacity="0.9">
        <path d="M16.5,3 C17.6045695,3 18.5,3.8954305 18.5,5 L18.5,19 C18.5,20.1045695 17.6045695,21 16.5,21 L7.5,21 C6.3954305,21 5.5,20.1045695 5.5,19 L5.5,5 C5.5,3.8954305 6.3954305,3 7.5,3 L16.5,3 Z M16.5,4.2 L7.5,4.2 C7.09215895,4.2 6.75559842,4.50518815 6.70623314,4.8996497 L6.7,5 L6.7,19 C6.7,19.407841 7.00518815,19.7444016 7.3996497,19.7937669 L7.5,19.8 L16.5,19.8 C16.907841,19.8 17.2444016,19.4948119 17.2937669,19.1003503 L17.3,19 L17.3,5 C17.3,4.59215895 16.9948119,4.25559842 16.6003503,4.20623314 L16.5,4.2 Z M14.9,15.4 C15.2313708,15.4 15.5,15.6686292 15.5,16 C15.5,16.3313708 15.2313708,16.6 14.9,16.6 L9.1,16.6 C8.76862915,16.6 8.5,16.3313708 8.5,16 C8.5,15.6686292 8.76862915,15.4 9.1,15.4 L14.9,15.4 Z M14.9,11.4 C15.2313708,11.4 15.5,11.6686292 15.5,12 C15.5,12.3313708 15.2313708,12.6 14.9,12.6 L9.1,12.6 C8.76862915,12.6 8.5,12.3313708 8.5,12 C8.5,11.6686292 8.76862915,11.4 9.1,11.4 L14.9,11.4 Z M11.9,7.4 C12.2313708,7.4 12.5,7.66862915 12.5,8 C12.5,8.33137085 12.2313708,8.6 11.9,8.6 L9.1,8.6 C8.76862915,8.6 8.5,8.33137085 8.5,8 C8.5,7.66862915 8.76862915,7.4 9.1,7.4 L11.9,7.4 Z" id="形状结合" fill="#000000"></path>
    </g>
</svg>