<?xml version="1.0" encoding="UTF-8"?>
<svg width="24px" height="24px" viewBox="0 0 24 24" version="1.1" xmlns="http://www.w3.org/2000/svg" xmlns:xlink="http://www.w3.org/1999/xlink">
    <title>分段卡点</title>
    <g id="分段卡点" stroke="none" stroke-width="1" fill="none" fill-rule="evenodd">
        <g id="编组">
            <rect id="矩形" x="0" y="0" width="24" height="24"></rect>
            <path d="M16,4 C16.5522847,4 17,4.44771525 17,5 L17,19 C17,19.5522847 16.5522847,20 16,20 L8,20 C7.44771525,20 7,19.5522847 7,19 L7,5 C7,4.44771525 7.44771525,4 8,4 L16,4 Z M22,4 L22,20 L20,20 C19.4477153,20 19,19.5522847 19,19 L19,5 C19,4.44771525 19.4477153,4 20,4 L22,4 Z M4,4 C4.55228475,4 5,4.44771525 5,5 L5,19 C5,19.5522847 4.55228475,20 4,20 L2,20 L2,4 L4,4 Z" id="形状结合" fill-opacity="0.9" fill="#000000"></path>
        </g>
    </g>
</svg>