<?xml version="1.0" encoding="utf-8"?>	<svg height="120px" version="1.1" viewBox="0 0 120 120" width="120px" xmlns="http://www.w3.org/2000/svg" xmlns:xlink="http://www.w3.org/1999/xlink">		
    		<!-- Generator: Sketch 53.2 (72643) - https://sketchapp.com -->		
    		<title>Picture Copy 4</title>		
    		<desc>Created with Sketch.</desc>		
    		<g fill="none" fill-rule="evenodd" id="暗夜模式素材输出" stroke="none" stroke-width="1">			
        			<g id="Picture-Copy-4">				
            				<rect fill="#323232" height="120" id="Rectangle-14" width="120" x="0" y="0"/>				
            				<g fill="#606060" fill-rule="nonzero" id="Pic" transform="translate(35.000000, 40.000000)">					
                					<path d="M45,22.6153631 L45,5 L5,5 L5,22.4712471 L15.2334009,14.0538413 C16.4486605,13.0542388 18.4002772,13.1027184 19.571704,14.1495733 L31.3325521,24.6597484 L37.3284872,19.4737178 C38.5428572,18.4233794 40.4749766,18.4447171 41.6538614,19.5207113 L45,22.6153631 Z M2.47950777,1.33781874e-14 L47.5204922,1.33781874e-14 C48.8617361,1.33781874e-14 50,1.20284251 50,2.68662393 L50,37.3133761 C50,38.8028795 48.8898866,40 47.5204922,40 L2.47950777,40 C1.13826394,40 0,38.7971575 0,37.3133761 L0,2.68662393 C0,1.19712055 1.11011344,1.33781874e-14 2.47950777,1.33781874e-14 Z" id="Rectangle-40"/>					
            				</g>				
        			</g>			
    		</g>		
	</svg>