<?xml version="1.0" encoding="UTF-8"?>
<svg width="24px" height="24px" viewBox="0 0 24 24" version="1.1" xmlns="http://www.w3.org/2000/svg" xmlns:xlink="http://www.w3.org/1999/xlink">
    <title>icon_outlined_locatNetwork</title>
    <defs>
        <circle id="path-1" cx="10" cy="10" r="10"></circle>
    </defs>
    <g id="icon_outlined_locatNetwork" stroke="none" stroke-width="1" fill="none" fill-rule="evenodd">
        <circle id="椭圆形" stroke="#000000" stroke-width="1.2" cx="12" cy="12" r="9.4"></circle>
        <line x1="4.23615348" y1="6.5" x2="19.5" y2="6.5" id="路径-4" stroke="#000000" stroke-width="1.2"></line>
        <line x1="4.23615348" y1="17.5" x2="19.5" y2="17.5" id="路径-4" stroke="#000000" stroke-width="1.2"></line>
        <line x1="12" y1="21.5" x2="12" y2="2.5" id="路径-4备份-3" stroke="#000000" stroke-width="1.2"></line>
        <line x1="2.5" y1="12" x2="21.5" y2="12" id="路径-4备份" stroke="#000000" stroke-width="1.2"></line>
        <g id="编组-2" transform="translate(2.000000, 2.000000)">
            <mask id="mask-2" fill="white">
                <use xlink:href="#path-1"></use>
            </mask>
            <g id="蒙版"></g>
            <g mask="url(#mask-2)" id="路径-4备份-5" stroke="#000000" stroke-width="1.2">
                <g transform="translate(4.500000, 0.500000)">
                    <path d="M8.5,19 C10.1666667,15.7974076 11,12.6307409 11,9.5 C11,6.36925908 10.1666667,3.20259241 8.5,0"></path>
                    <path d="M0,19 C1.66666667,15.7974076 2.5,12.6307409 2.5,9.5 C2.5,6.36925908 1.66666667,3.20259241 0,0" transform="translate(1.250000, 9.500000) scale(-1, 1) translate(-1.250000, -9.500000) "></path>
                </g>
            </g>
        </g>
    </g>
</svg>