<?xml version="1.0" encoding="UTF-8"?>
<svg width="24px" height="24px" viewBox="0 0 24 24" version="1.1" xmlns="http://www.w3.org/2000/svg" xmlns:xlink="http://www.w3.org/1999/xlink">
    <title>icons_filled_voice</title>
    <g id="icons_filled_voice" stroke="none" stroke-width="1" fill="none" fill-rule="evenodd" fill-opacity="0.9">
        <g id="icon24" fill="#000000">
            <path d="M13.7781746,4 C15.7687831,6.04737854 17,8.87580567 17,12 C17,15.1241943 15.7687831,17.9526215 13.7781746,20 L12.6114484,18.8 C14.3546675,17.0070661 15.35,14.5867242 15.35,12 C15.35,9.41327585 14.3546675,6.99293391 12.6114484,5.2 L13.7781746,4 Z M11.0558135,6.8 C12.349709,8.13079605 13.15,9.96927368 13.15,12 C13.15,14.0307263 12.349709,15.8692039 11.0558135,17.2 L9.8890873,16 C10.9149511,14.9448796 11.5,13.5222209 11.5,12 C11.5,10.4777791 10.9149511,9.05512036 9.8890873,8 L11.0558135,6.8 Z M8.33345238,9.6 C8.93063492,10.2142136 9.3,11.0627417 9.3,12 C9.3,12.9372583 8.93063492,13.7857864 8.33345238,14.4 L8.33345238,14.4 L6,12 Z" id="形状结合"></path>
        </g>
    </g>
</svg>