<?xml version="1.0" encoding="UTF-8"?>
<svg width="24px" height="24px" viewBox="0 0 24 24" version="1.1" xmlns="http://www.w3.org/2000/svg" xmlns:xlink="http://www.w3.org/1999/xlink">
    <title>裁剪</title>
    <g id="裁剪" stroke="none" stroke-width="1" fill="none" fill-rule="evenodd" fill-opacity="0.9">
        <g id="编组-14" transform="translate(3.000000, 3.000000)" fill="#000000">
            <path d="M4.05882353,9.61764706 C6.30044987,9.61764706 8.11764706,11.4348443 8.11764706,13.6764706 C8.11764706,15.9180969 6.30044987,17.7352941 4.05882353,17.7352941 C1.81719719,17.7352941 0,15.9180969 0,13.6764706 C0,11.4348443 1.81719719,9.61764706 4.05882353,9.61764706 Z M13.9411765,9.61764706 C16.1828028,9.61764706 18,11.4348443 18,13.6764706 C18,15.9180969 16.1828028,17.7352941 13.9411765,17.7352941 C11.6995501,17.7352941 9.88235294,15.9180969 9.88235294,13.6764706 C9.88235294,11.4348443 11.6995501,9.61764706 13.9411765,9.61764706 Z M4.05882353,11.5588235 C2.88927935,11.5588235 1.94117647,12.5069264 1.94117647,13.6764706 C1.94117647,14.8460148 2.88927935,15.7941176 4.05882353,15.7941176 C5.22836771,15.7941176 6.17647059,14.8460148 6.17647059,13.6764706 C6.17647059,12.5069264 5.22836771,11.5588235 4.05882353,11.5588235 Z M13.9411765,11.5588235 C12.7716323,11.5588235 11.8235294,12.5069264 11.8235294,13.6764706 C11.8235294,14.8460148 12.7716323,15.7941176 13.9411765,15.7941176 C15.1107206,15.7941176 16.0588235,14.8460148 16.0588235,13.6764706 C16.0588235,12.5069264 15.1107206,11.5588235 13.9411765,11.5588235 Z M15.4888095,0.0457446007 L15.624352,0.190391854 C16.576722,1.27560547 16.6137072,2.88386334 15.7353077,4.00970175 L15.6098521,4.16014054 L15.4888095,4.28838529 L8.99966017,10.7767251 L2.51132035,4.2883853 L2.39027775,4.16014054 C1.38495166,3.03114927 1.38011836,1.32493336 2.37577785,0.190391854 L2.51132035,0.0457446007 L8.99964069,6.5347446 L15.4888095,0.0457446007 Z" id="形状结合"></path>
        </g>
    </g>
</svg>