<?xml version="1.0" encoding="UTF-8"?>
<svg width="24px" height="24px" viewBox="0 0 24 24" version="1.1" xmlns="http://www.w3.org/2000/svg" xmlns:xlink="http://www.w3.org/1999/xlink">
    <!-- Generator: Sketch 64 (93537) - https://sketch.com -->
    <title>Filed_cover@2x</title>
    <desc>Created with Sketch.</desc>
    <g id="Filed_cover" stroke="none" stroke-width="1" fill="none" fill-rule="evenodd">
        <rect id="矩形" x="0" y="0" width="24" height="24"></rect>
        <path d="M17.5381661,8.3 C17.9908359,8.3 18.375,8.67588828 18.375,9.13956998 L18.375,19.96043 C18.375,20.4258998 18.0003367,20.8 17.5381661,20.8 L2.33683387,20.8 C1.88416408,20.8 1.5,20.4241117 1.5,19.96043 L1.5,9.13956998 C1.5,8.67410017 1.87466329,8.3 2.33683387,8.3 L17.5381661,8.3 Z M21.1875,4.5 C21.7397847,4.5 22.1875,4.94771525 22.1875,5.5 L22.1875,16.25 C22.1875,16.8022847 21.7397847,17.25 21.1875,17.25 L19.6875,17.25 L19.6875,8.5 C19.6875,7.67157288 19.0159271,7 18.1875,7 L4.6875,7 L4.6875,5.5 C4.6875,4.94771525 5.13521525,4.5 5.6875,4.5 L21.1875,4.5 Z M17.109375,9.471875 L2.765625,9.471875 L2.765,15.995 L6.73061342,13.0259833 C7.12089294,12.7337383 7.74765286,12.7479119 8.12385551,13.0539716 L11.9008412,16.1267393 L13.8264303,14.610545 C14.2164241,14.3034668 14.8369225,14.3097051 15.2155202,14.6242841 L17.109,16.219 L17.109375,9.471875 Z" id="形状结合" fill="#000000"></path>
    </g>
</svg>