<?xml version="1.0" encoding="UTF-8"?>
<svg width="24px" height="24px" viewBox="0 0 24 24" version="1.1" xmlns="http://www.w3.org/2000/svg" xmlns:xlink="http://www.w3.org/1999/xlink">
    <title>icons_filled_call_good</title>
    <defs>
        <filter id="filter-1">
            <feColorMatrix in="SourceGraphic" type="matrix" values="0 0 0 0 0.000000 0 0 0 0 0.000000 0 0 0 0 0.000000 0 0 0 1.000000 0"></feColorMatrix>
        </filter>
    </defs>
    <g id="icons_filled_call_good" stroke="none" stroke-width="1" fill="none" fill-rule="evenodd">
        <g id="编组-24" filter="url(#filter-1)">
            <g fill="#FFFFFF" fill-rule="nonzero" id="形状结合">
                <path d="M12.8108108,1 C13.969112,1 14.8185328,1.85503994 15.050193,2.92307694 C15.2046332,3.53846154 15.2818533,4.23076923 15.2818533,4.92307693 C15.2818533,6 15.1274131,7 14.8185328,7.92307693 L14.8185328,7.92307693 L19.6061776,7.92307693 C20.3783784,8 21.1505792,8.38461539 21.6138996,9.15384617 C21.9227799,9.61538464 22,10.1538461 22,10.6923077 C21.9598908,11.0850505 21.9298088,11.3283256 21.9097542,11.4221329 C21.4213928,13.7064884 20.4552976,18.0733306 20.168217,19.2846518 C20.1525724,19.3506633 20.1354684,19.4197259 20.124044,19.4661474 C20.1038839,19.5480657 20.0745475,19.6020669 20.0694981,19.6153846 C19.9150579,20 19.6061776,20.3846154 19.2200772,20.6153846 C18.8339768,20.8461539 18.3706564,21 17.9073359,21 L17.9073359,21 L8.01930501,21 C7.46702026,21 7.01930501,20.5522847 7.01930501,20 L7.01930501,20 L7.01930501,8.53846153 C8.07579427,8.14380184 8.98171691,7.37417335 9.57971315,6.3720802 C10.0307153,5.61631256 10.3065687,4.72831877 10.3397684,3.76923077 L10.3397684,3.76923077 L10.3397684,3.53846154 C10.3397684,2.15384615 11.280368,1 12.8108108,1 Z M4.39768339,8.84615385 C4.94996814,8.84615385 5.39768339,9.2938691 5.39768339,9.84615385 L5.39768339,9.84615385 L5.39768339,20 C5.39768339,20.5522847 4.94996814,21 4.39768339,21 L4.39768339,21 L2.84942084,21 C2.38610037,21 2,20.6153846 2,20.1538462 L2,20.1538462 L2,9.69230768 C2,9.23076922 2.38610037,8.84615385 2.84942084,8.84615385 L2.84942084,8.84615385 Z"></path>
            </g>
        </g>
    </g>
</svg>