<?xml version="1.0" encoding="UTF-8"?>
<svg width="24px" height="24px" viewBox="0 0 24 24" version="1.1" xmlns="http://www.w3.org/2000/svg" xmlns:xlink="http://www.w3.org/1999/xlink">
    <title>▫️ 支付图标/业务图标/群收款 - outline</title>
    <g id="▫️-支付图标/业务图标/群收款---outline" stroke="none" stroke-width="1" fill="none" fill-rule="evenodd">
        <path d="M18,3 C18.5522847,3 19,3.44771525 19,4 L19,20 C19,20.5522847 18.5522847,21 18,21 L6,21 C5.44771525,21 5,20.5522847 5,20 L5,4 C5,3.44771525 5.44771525,3 6,3 L18,3 Z M17.8,4.2 L6.2,4.2 L6.2,19.8 L17.8,19.8 L17.799,14.409 L11.3289115,17.9124936 L11.2691668,17.9449899 C11.1953911,17.9796101 11.1123369,18 11.024304,18 C10.81995,18 10.6423001,17.89444 10.5490622,17.7385426 L10.5135322,17.665479 L9.02602515,14.6023287 C9.00995745,14.5689828 9,14.5311766 9,14.4944324 C9,14.3534026 9.12197875,14.2391345 9.2722457,14.2391345 C9.33380083,14.2391345 9.38969833,14.2580376 9.43541207,14.2898967 L11.1904124,15.4625255 C11.3182751,15.5411114 11.4719366,15.5874134 11.6366871,15.5874134 C11.7346775,15.5874134 11.8285943,15.5704218 11.915722,15.5404742 C11.915722,15.5404742 14.1544408,14.6076637 16.3654472,13.6868443 L16.8217579,13.4968109 C17.1546532,13.3581798 17.4833213,13.221321 17.7998713,13.0895239 L17.8,4.2 Z M13.5,9 L13.5,10.2 L7.5,10.2 L7.5,9 L13.5,9 Z M13.5,6 L13.5,7.20000005 L7.5,7.20000005 L7.5,6 L13.5,6 Z" id="形状结合" fill="#000000"></path>
    </g>
</svg>