<?xml version="1.0" encoding="UTF-8"?>
<svg width="20px" height="20px" viewBox="0 0 20 20" version="1.1" xmlns="http://www.w3.org/2000/svg" xmlns:xlink="http://www.w3.org/1999/xlink">
    <!-- Generator: Sketch 55.2 (78181) - https://sketchapp.com -->
    <title>3.Icons/Filled/thumb_up</title>
    <desc>Created with Sketch.</desc>
    <g id="3.Icons/Filled/thumb_up" stroke="none" stroke-width="1" fill="none" fill-rule="evenodd">
        <path d="M12.9076321,2.88509674 C13.4177715,3.63659068 13.5547528,4.42942928 13.5547528,6.09619945 C13.5547528,6.55098603 13.6858333,6.78611733 13.9017188,6.9106088 C14.0269354,6.98281558 14.1617602,7.00771059 14.2392766,7.00644205 C14.5808762,7.01203593 15.0418053,7.07284582 15.5143963,7.2434404 C16.1012813,7.45529253 16.5514017,7.79594688 16.780229,8.30584744 C17.5969966,10.1258671 17.1860016,14.5453989 15.2676806,16.1245174 C14.6921096,16.5985011 13.5358442,17.0326886 12.6424071,17.1058568 C12.0859503,17.1513117 9.23685677,17.1452618 4.14618283,17.1127989 C3.43705443,17.1085732 2.8627451,16.5391179 2.8627451,15.8339917 L2.8627451,9.76689854 C2.8627451,9.0587262 3.44347102,8.48808298 4.15584124,8.48808298 L5.71805793,8.48808298 C6.10716475,8.48808298 6.47105519,8.45157478 6.90518756,8.35603531 C7.21149724,8.28859092 7.46598827,8.16737308 7.93358509,7.8931988 C8.45764323,7.58594321 8.76646366,7.23722597 8.99828645,6.62423145 C9.12936178,6.27709827 9.17387146,5.93655802 9.22153276,4.92893862 C9.22785447,4.7955167 9.22943454,4.75353486 9.2401758,4.45066476 C9.28888961,3.07708808 9.43453547,2.58769047 10.1952518,2.23442655 C11.2119345,1.76223465 12.426427,2.17607689 12.9076321,2.88509674 Z" id="路径" fill="#000000" fill-rule="nonzero"></path>
    </g>
</svg>