<?xml version="1.0" encoding="UTF-8"?>
<svg width="72px" height="72px" viewBox="0 0 72 72" version="1.1" xmlns="http://www.w3.org/2000/svg" xmlns:xlink="http://www.w3.org/1999/xlink">
    <title>倍速播放1.2备份</title>
    <g id="倍速播放1.2备份" stroke="none" stroke-width="1" fill="none" fill-rule="evenodd">
        <g id="0.图标/线型/icons_outlined_back2" transform="translate(36.000000, 36.000000) scale(-1, 1) translate(-36.000000, -36.000000) translate(6.000000, 0.000000)" fill="#000000" fill-opacity="0.9">
            <path d="M30,6 C46.5685425,6 60,19.4314575 60,36 C60,52.5685425 46.5685425,66 30,66 C13.4314575,66 0,52.5685425 0,36 C0,19.4314575 13.4314575,6 30,6 Z M30,9.6 C15.4196826,9.6 3.6,21.4196826 3.6,36 C3.6,50.5803174 15.4196826,62.4 30,62.4 C44.5803174,62.4 56.4,50.5803174 56.4,36 C56.4,21.4196826 44.5803174,9.6 30,9.6 Z" id="Combined-Shape"></path>
        </g>
        <g id="编组-3" transform="translate(22.500000, 23.417889)" fill="#000000" fill-rule="nonzero">
            <g id="编组-2" transform="translate(-0.000000, 0.401229)">
                <path d="M0.723031053,1.23875531 C0.254988466,1.82386782 0,2.55084162 0,3.30012162 L0,21.0582471 C0,22.8807867 1.47746033,24.3582471 3.3,24.3582471 C4.04939187,24.3582471 4.77646739,24.1031826 5.36162099,23.6350123 L15.5820067,15.4578754 C17.3932352,14.0087458 17.6867744,11.3657033 16.2376448,9.55447477 C16.0438794,9.31229259 15.8238839,9.09231881 15.5816826,8.89857737 L5.36136631,0.723152672 C4.03980427,-0.333989847 2.15482316,-0.210456685 0.980767066,0.952094613 L0.723031053,1.23875531 Z M3.6,20.4323819 L3.6,3.92338186 L13.3329193,11.7098162 L13.4266282,11.8035159 L13.5212221,11.9707086 C13.6082006,12.2064714 13.5399632,12.481244 13.3329656,12.6468588 L3.6,20.4323819 Z" id="路径"></path>
            </g>
            <path d="M13.8869836,2.81123885 L16.1357469,0 L27.7616826,9.29980632 C28.0038839,9.49354776 28.2238794,9.71352154 28.4176448,9.95570372 C29.7762038,11.6537305 29.6031203,14.0828437 28.0837717,15.5738959 L27.7620067,15.8591043 L16.1361127,25.1607618 L13.8869836,22.3497452 L25.5129656,13.0480877 C25.7717126,12.8410692 25.8136467,12.4634917 25.6066282,12.2047448 L25.5129193,12.1110452 L13.8869836,2.81123885 Z" id="路径备份-2"></path>
        </g>
    </g>
</svg>