<?xml version="1.0" encoding="UTF-8"?>
<svg width="8px" height="8px" viewBox="0 0 8 8" version="1.1" xmlns="http://www.w3.org/2000/svg" xmlns:xlink="http://www.w3.org/1999/xlink">
    <!-- Generator: Sketch 59.1 (86144) - https://sketch.com -->
    <title>menu</title>
    <desc>Created with Sketch.</desc>
    <g id="menu" stroke="none" stroke-width="1" fill="none" fill-rule="evenodd" opacity="0.3">
        <path d="M6.9,6 C6.95522847,6 7,6.04477153 7,6.1 L7,6.9 C7,6.95522847 6.95522847,7 6.9,7 L1.1,7 C1.04477153,7 1,6.95522847 1,6.9 L1,6.1 C1,6.04477153 1.04477153,6 1.1,6 L6.9,6 Z M6.9,3.5 C6.95522847,3.5 7,3.54477153 7,3.6 L7,4.4 C7,4.45522847 6.95522847,4.5 6.9,4.5 L1.1,4.5 C1.04477153,4.5 1,4.45522847 1,4.4 L1,3.6 C1,3.54477153 1.04477153,3.5 1.1,3.5 L6.9,3.5 Z M6.9,1 C6.95522847,1 7,1.04477153 7,1.1 L7,1.9 C7,1.95522847 6.95522847,2 6.9,2 L1.1,2 C1.04477153,2 1,1.95522847 1,1.9 L1,1.1 C1,1.04477153 1.04477153,1 1.1,1 L6.9,1 Z" id="形状结合" fill="#000000"></path>
    </g>
</svg>