<?xml version="1.0" encoding="UTF-8"?>
<svg width="24px" height="24px" viewBox="0 0 24 24" version="1.1" xmlns="http://www.w3.org/2000/svg" xmlns:xlink="http://www.w3.org/1999/xlink">
    <!-- Generator: Sketch 55.2 (78181) - https://sketchapp.com -->
    <title>3.Icons/Filled/Filter@3x</title>
    <desc>Created with Sketch.</desc>
    <g id="3.Icons/Filled/Filter" stroke="none" stroke-width="1" fill="none" fill-rule="evenodd">
        <g id="编组" fill="#000000" fill-rule="nonzero">
            <path d="M16.7640022,11.2500062 C17.2435931,10.4206471 17.5,9.47783978 17.5,8.5 C17.5,5.46243388 15.0375661,3 12,3 C8.96243388,3 6.5,5.46243388 6.5,8.5 C6.5,11.5375661 8.96243388,14 12,14 L12,12 C10.0670034,12 8.5,10.4329966 8.5,8.5 C8.5,6.56700338 10.0670034,5 12,5 C13.9329966,5 15.5,6.56700338 15.5,8.5 C15.5,9.12392855 15.3374087,9.72177648 15.032639,10.2488163 L16.7640022,11.2500062 Z" id="路径"></path>
            <path d="M12.7788578,18.1469083 C13.3145173,17.2837867 13.6028857,16.2868978 13.6028857,15.25 C13.6028857,12.2124339 11.1404518,9.75 8.10288568,9.75 C5.06531956,9.75 2.60288568,12.2124339 2.60288568,15.25 C2.60288568,18.2875661 5.06531956,20.75 8.10288568,20.75 L8.10288568,18.75 C6.16988906,18.75 4.60288568,17.1829966 4.60288568,15.25 C4.60288568,13.3170034 6.16988906,11.75 8.10288568,11.75 C10.0358823,11.75 11.6028857,13.3170034 11.6028857,15.25 C11.6028857,15.9114964 11.4200437,16.5435808 11.0795147,17.0922838 L12.7788578,18.1469083 Z" id="路径" transform="translate(8.102886, 15.250000) rotate(-120.000000) translate(-8.102886, -15.250000) "></path>
            <path d="M20.7124493,17.9092602 C21.1592174,17.101672 21.3971143,16.1919331 21.3971143,15.25 C21.3971143,12.2124339 18.9346804,9.75 15.8971143,9.75 C12.8595482,9.75 10.3971143,12.2124339 10.3971143,15.25 C10.3971143,18.2875661 12.8595482,20.75 15.8971143,20.75 L15.8971143,18.75 C13.9641177,18.75 12.3971143,17.1829966 12.3971143,15.25 C12.3971143,13.3170034 13.9641177,11.75 15.8971143,11.75 C17.8301109,11.75 19.3971143,13.3170034 19.3971143,15.25 C19.3971143,15.8510861 19.2462475,16.4280142 18.962397,16.9411089 L20.7124493,17.9092602 Z" id="路径" transform="translate(15.897114, 15.250000) rotate(-240.000000) translate(-15.897114, -15.250000) "></path>
        </g>
    </g>
</svg>