<?xml version="1.0" encoding="UTF-8"?>
<svg width="12px" height="12px" viewBox="0 0 12 12" version="1.1" xmlns="http://www.w3.org/2000/svg" xmlns:xlink="http://www.w3.org/1999/xlink">
    <title>0.图标/线型/icons_outlined_Channel</title>
    <g id="20210113" stroke="none" stroke-width="1" fill="none" fill-rule="evenodd" opacity="0.5">
        <g id="主播侧_有购物入口_讲解中备份-178" transform="translate(-118.000000, -344.000000)" fill="#FFFFFF">
            <g id="0.图标/线型/icons_outlined_Channel" transform="translate(116.000000, 342.000000)">
                <path d="M12.23172,2.77323858 C12.9151012,2.49679977 13.4993648,2.76198707 13.8038363,3.52415803 C14.6231819,5.57470308 12.7052674,13.3333333 11.2005477,13.3333333 C10.713696,13.3333333 10.2257855,12.9282315 9.6573583,12.2000714 C9.40116866,11.8718903 9.1337386,11.480695 8.85878117,11.0391759 C8.63882331,10.6859737 8.42261198,10.3146161 8.21490073,9.93878896 L8.00016309,9.54317358 L8.00016309,9.54317358 L7.98980765,9.56197889 C7.72111919,10.0650271 7.43450253,10.5682396 7.14122539,11.0391759 C6.86626795,11.480695 6.5988379,11.8718903 6.34264826,12.2000714 C5.77422103,12.9282315 5.2863106,13.3333333 4.79945889,13.3333333 C3.29473916,13.3333333 1.3768247,5.57470308 2.19615897,3.52418625 C2.50064179,2.76198707 3.08490532,2.49679977 3.76828657,2.77323858 C4.26376361,2.97366709 4.81059732,3.45290134 5.42167608,4.17080449 C5.78532484,4.59802372 6.16573405,5.10393991 6.55727992,5.67267562 C6.99080449,6.30238705 7.41553424,6.97575964 7.81427136,7.64897958 L8.00023127,7.96580555 L8.1857352,7.64897958 C8.50472489,7.11040362 8.84034987,6.57172998 9.18380486,6.05539131 L9.44272664,5.67267562 C9.83427251,5.10393991 10.2146817,4.59802372 10.5783305,4.17080449 C11.1894092,3.45290134 11.7362429,2.97366709 12.23172,2.77323858 Z M3.48491014,3.46230128 C3.19632963,3.34556578 3.04764125,3.41305291 2.89373369,3.79832331 C2.62479035,4.4713976 2.73772627,6.16748868 3.13642144,8.07082924 L3.22968515,8.49687376 L3.33212218,8.92775194 C3.8353668,10.9635512 4.559393,12.5891594 4.79945889,12.5891594 C4.96377146,12.5891594 5.32244069,12.2913638 5.74934254,11.7444989 C5.98754338,11.4393616 6.24072543,11.0690082 6.5028327,10.6481236 C6.71558647,10.3064895 6.92557493,9.94578733 7.1275891,9.58024885 L7.37180448,9.12894473 L7.37180448,9.12894473 L7.57668559,8.73433813 L7.36248264,8.35924406 L7.16729455,8.02589975 C6.77656486,7.3661994 6.36055515,6.70665169 5.93760786,6.09230417 C5.55943274,5.54299 5.19376649,5.05668085 4.84832441,4.65085107 C4.30962661,4.017982 3.83900474,3.6055383 3.48491014,3.46230128 Z M13.1062616,3.79829508 C12.9523653,3.41305291 12.8036769,3.34556578 12.5150964,3.46230128 C12.1610018,3.6055383 11.6903799,4.017982 11.1516821,4.65085107 C10.8062401,5.05668085 10.4405738,5.54299 10.0623987,6.09230417 C9.72404086,6.58378218 9.39012308,7.10418832 9.07003668,7.63045824 L8.73257655,8.19594266 L8.42269569,8.73433813 L8.52898728,8.9399955 L8.67325431,9.21362536 C8.93474658,9.70320056 9.21350216,10.1926114 9.49717386,10.6481236 C9.75928113,11.0690082 10.0124632,11.4393616 10.250664,11.7444989 C10.6775659,12.2913638 11.0362351,12.5891594 11.2005477,12.5891594 C11.4406136,12.5891594 12.1646398,10.9635512 12.6678844,8.92775194 L12.7703214,8.49687376 C13.2434536,6.42437457 13.3951372,4.52125313 13.1062616,3.79829508 Z" id="形状"></path>
            </g>
        </g>
    </g>
</svg>