<?xml version="1.0" encoding="UTF-8"?>
<svg width="24px" height="24px" viewBox="0 0 24 24" version="1.1" xmlns="http://www.w3.org/2000/svg" xmlns:xlink="http://www.w3.org/1999/xlink">
    <title>画板</title>
    <g id="画板" stroke="none" stroke-width="1" fill="none" fill-rule="evenodd">
        <g id="0.图标/线型/icons_outlined_camera" fill="#000000">
            <path d="M4.594,6.25 L5.793,7.449 L3.2,7.45 L3.2,18.05 L16.395,18.05 L17.595,19.25 L3,19.25 C2.44771525,19.25 2,18.8022847 2,18.25 L2,7.25 C2,6.69771525 2.44771525,6.25 3,6.25 L4.594,6.25 Z M14.7324081,3.25 C14.8995847,3.25 15.0557004,3.33355057 15.1484333,3.4726499 L17,6.25 L21,6.25 C21.5522847,6.25 22,6.69771525 22,7.25 L22,18.25 C22,18.8022847 21.5522847,19.25 21,19.25 L19.405,19.25 L18.205,18.05 L20.8,18.05 L20.8,7.45 L16.3577795,7.45 L14.3577795,4.45 L9.64222051,4.45 L7.64222051,7.45 L7.604,7.449 L6.405,6.25 L7,6.25 L8.85156673,3.4726499 C8.94429962,3.33355057 9.10041529,3.25 9.26759188,3.25 L14.7324081,3.25 Z M8.55681436,10.2129722 L9.44548249,11.1018213 C9.28775973,11.4521857 9.2,11.8408441 9.2,12.25 C9.2,13.7963973 10.4536027,15.05 12,15.05 C12.4091559,15.05 12.7978143,14.9622403 13.1481787,14.8045175 L14.0370278,15.6931856 C13.4403908,16.0469245 12.7439108,16.25 12,16.25 C9.790861,16.25 8,14.459139 8,12.25 C8,11.5060892 8.20307551,10.8096092 8.55681436,10.2129722 Z M12,8.25 C14.209139,8.25 16,10.040861 16,12.25 C16,13.2513648 15.6320402,14.1667879 15.0239545,14.8684354 L14.1723878,14.0166999 C14.5647622,13.5348101 14.8,12.9198764 14.8,12.25 C14.8,10.7036027 13.5463973,9.45 12,9.45 C11.3301236,9.45 10.7151899,9.6852378 10.2333001,10.0776122 L9.38156456,9.22604549 C10.0832121,8.61795983 10.9986352,8.25 12,8.25 Z" id="形状结合"></path>
            <polygon id="Path" fill-rule="nonzero" points="3 3.15518296 3.90518296 2.25 21.75 20.094817 20.844817 21"></polygon>
        </g>
    </g>
</svg>