<?xml version="1.0" encoding="UTF-8"?>
<svg width="24px" height="24px" viewBox="0 0 24 24" version="1.1" xmlns="http://www.w3.org/2000/svg" xmlns:xlink="http://www.w3.org/1999/xlink">
    <title>icons_filled_fans</title>
    <g id="icons_filled_fans" stroke="none" stroke-width="1" fill="none" fill-rule="evenodd" fill-opacity="0.9">
        <path d="M19.2595857,9.13633288 L20.4564589,9.30944585 C21.0030037,9.38886347 21.3816852,9.89630632 21.3022676,10.4428512 C21.270643,10.6604882 21.1681559,10.8616306 21.0106722,11.0151392 L17.2308108,14.6995935 L18.1231151,19.9021263 C18.2164761,20.4464628 17.8508883,20.9634187 17.3065518,21.0567797 C17.0897942,21.0939566 16.8668261,21.0586419 16.6721656,20.9563028 L12,18.5 L7.32783438,20.9563028 C6.83898979,21.2133036 6.23436264,21.0253571 5.97736183,20.5365125 C5.87502276,20.3418521 5.83970808,20.118884 5.87688493,19.9021263 L6.12868261,18.4329084 C7.28678452,18.1792963 8.60720488,17.670905 10.0124192,16.9502795 L10.537633,16.6727707 C11.1790996,16.3238116 11.8143619,15.9435997 12.4426907,15.5328589 L12.9740959,15.1769629 C15.5374878,13.4179961 17.751049,11.3162806 19.2595857,9.13633288 Z M19.429863,6.90351534 C18.0242769,9.71873641 15.2827133,12.3800409 12.4175548,14.3461428 L11.8955249,14.6958347 C11.2855308,15.09459 10.6732817,15.4605884 10.0703491,15.7886634 L9.5561012,16.0604628 L9.16032205,16.2585577 L8.96407309,16.3531211 L8.96407309,16.3531211 L8.57533261,16.5330674 L8.19223697,16.7004893 L7.81554808,16.8550468 L7.44602786,16.9963996 C7.32413389,17.0412787 7.20356168,17.0839002 7.08443822,17.1242077 L6.73154108,17.2381307 L6.38809834,17.3378286 C6.33168808,17.3532405 6.2757035,17.3680456 6.22016048,17.3822368 L5.89232794,17.4599591 C5.83861462,17.471666 5.7853746,17.4827447 5.73262376,17.4931882 L5.42211573,17.5481696 L5.12410977,17.5875652 C2.84068558,17.8342314 1.77809995,16.6150432 3.58435631,13.1942253 C2.71389812,15.5295896 3.79529431,16.2917676 5.75800614,16.0352026 L6.07507588,15.9863071 C6.12908947,15.9767738 6.18367437,15.9665553 6.23881107,15.9556615 L6.57609679,15.8822774 C6.63336265,15.8687233 6.6911413,15.8545142 6.74941321,15.8396602 L7.1511794,15.7293765 C7.35560552,15.6694257 7.56517806,15.6023487 7.77914057,15.5285372 L8.21269477,15.372051 L8.4334416,15.287291 L8.88203422,15.1051727 L9.454352,14.8548007 L10.0370817,14.5804493 L10.2725005,14.4642993 L10.7464028,14.2214902 L10.98455,14.0950054 L11.4623961,13.8323103 L11.9411904,13.5572284 L12.4195881,13.2704563 L12.8962445,12.9726904 L13.4875674,12.5860841 L14.0714416,12.1847485 L14.3023173,12.0203948 L14.7585602,11.6856187 L15.2063377,11.3433311 L15.6443051,10.9942287 L16.0711175,10.6390079 L16.4854301,10.2783652 L16.6874788,10.0962283 L17.0805203,9.72875865 C18.0438571,8.80519347 18.8584901,7.84712183 19.429863,6.90351534 Z M12.4425657,3.36281539 C12.6397783,3.46014562 12.7994058,3.61977315 12.8967361,3.81698575 L15.2328189,8.55040653 L16.6458305,8.755578 C16.5617609,8.83923994 16.4759625,8.92302899 16.3884714,9.00690796 L16.0045341,9.36575818 L15.8158703,9.53560709 L15.4145544,9.88473678 L15.0046057,10.2256035 L14.5830279,10.5613561 L14.1512563,10.8911491 L13.7107261,11.2141568 L13.4953735,11.3673469 L12.9298361,11.7560749 L12.3509543,12.134443 L11.8897739,12.4223426 L11.427046,12.6995247 L10.9642311,12.965228 L10.5028006,13.2186963 L10.2773368,13.3383271 L9.71107749,13.6265941 L9.14178246,13.8982002 L8.9303958,13.9941125 L8.48386981,14.1878586 L8.05728168,14.3607363 C7.99893089,14.3834909 7.92940643,14.4101864 7.8604058,14.4361597 L7.43964004,14.5879313 C7.25284005,14.6522659 7.05819068,14.7145317 6.86976737,14.7697895 L6.75042841,14.8023067 L6.76918916,14.6995935 L2.98932777,11.0151392 C2.59384419,10.629638 2.58575189,9.99652475 2.9712531,9.60104117 C3.1247617,9.44355754 3.32590411,9.34107036 3.54354115,9.30944585 L8.76718111,8.55040653 L11.1032639,3.81698575 C11.3476862,3.32173209 11.9473121,3.11839309 12.4425657,3.36281539 Z M20.0323164,2.00769964 C20.0616161,2.0177051 20.0846288,2.04071788 20.0946343,2.07001759 L20.6363961,3.65649712 L22.2228756,4.19825891 C22.2751407,4.21610675 22.3030414,4.2729445 22.2851936,4.32520958 C22.2751881,4.35450929 22.2521753,4.37752207 22.2228756,4.38752753 L20.6363961,4.92928932 L20.0946343,6.51576885 C20.0767865,6.56803394 20.0199487,6.59593463 19.9676836,6.57808679 C19.9383839,6.56808133 19.9153712,6.54506855 19.9053657,6.51576885 L19.3636039,4.92928932 L17.7771244,4.38752753 C17.7248593,4.36967969 17.6969586,4.31284194 17.7148064,4.26057685 C17.7248119,4.23127715 17.7478247,4.20826437 17.7771244,4.19825891 L19.3636039,3.65649712 L19.9053657,2.07001759 C19.9232135,2.0177525 19.9800513,1.98985181 20.0323164,2.00769964 Z" id="形状结合" fill="#000000"></path>
    </g>
</svg>