<?xml version="1.0" encoding="UTF-8"?>
<svg width="24px" height="24px" viewBox="0 0 24 24" version="1.1" xmlns="http://www.w3.org/2000/svg" xmlns:xlink="http://www.w3.org/1999/xlink">
    <!-- Generator: Sketch 63.1 (92452) - https://sketch.com -->
    <title>icon_add02</title>
    <desc>Created with Sketch.</desc>
    <g id="icon_add02" stroke="none" stroke-width="1" fill="none" fill-rule="evenodd">
        <g id="3.Icons/Filled/add" transform="translate(1.000000, 1.000000)" fill="#FFC300">
            <g id="common_icons_add">
                <path d="M9.33333333,9.33333333 L9.33333333,1.66782888 C9.33333333,0.745196263 10.0759004,0 11,0 C11.9219631,0 12.6666667,0.74356539 12.6666667,1.66782888 L12.6666667,9.33333333 L20.3321711,9.33333333 C21.2548037,9.33333333 22,10.0759004 22,11 C22,11.9219631 21.2564346,12.6666667 20.3321711,12.6666667 L12.6666667,12.6666667 L12.6666667,20.3321711 C12.6666667,21.2548037 11.9240996,22 11,22 C10.0780369,22 9.33333333,21.2564346 9.33333333,20.3321711 L9.33333333,12.6666667 L1.66782888,12.6666667 C0.745196263,12.6666667 0,11.9240996 0,11 C0,10.0780369 0.74356539,9.33333333 1.66782888,9.33333333 L9.33333333,9.33333333 Z" id="图标颜色"></path>
            </g>
        </g>
    </g>
</svg>