<?xml version="1.0" encoding="UTF-8"?>
<svg width="24px" height="24px" viewBox="0 0 24 24" version="1.1" xmlns="http://www.w3.org/2000/svg" xmlns:xlink="http://www.w3.org/1999/xlink">
    <title>icon_outlined_关怀</title>
    <g id="icon_outlined_关怀" stroke="none" stroke-width="1" fill="none" fill-rule="evenodd">
        <g id="编组" transform="translate(1.800000, 2.300000)" fill="#000000" fill-rule="nonzero">
            <path d="M4.24611357,11.4564448 C3.76233334,10.9726646 2.02197603,9.23421542 1.05441559,8.26665498 C-0.306120655,6.90611874 -0.35000892,4.72752232 0.92275079,3.314208 L1.05441559,3.17548615 L3.17573593,1.05416581 C3.81677953,0.413122215 4.6593785,0.0476820763 5.54234789,0.0041498462 L14.4721725,0 L14.9342575,0 C15.7103727,0.0576539986 16.4470829,0.376350977 17.0387593,0.895558396 L17.2118056,1.05769857 L19.333126,3.17901891 C20.6936622,4.53955515 20.7375505,6.71815157 19.4647908,8.13146589 L19.333126,8.27018774 L8.6535473,18.9497664 C8.42076612,19.1825476 8.04335325,19.1825476 7.81057207,18.9497664 C7.57775679,18.7169511 7.57766239,18.3395121 7.81036118,18.1065804 L18.4845978,7.4216596 L18.4845978,7.4216596 C19.3828037,6.52345373 19.420229,5.09042734 18.5968736,4.14765309 L18.4845978,4.02754705 L16.3632775,1.9062267 C15.9965986,1.53954778 15.5325267,1.30801345 15.0338593,1.23136913 C14.9345214,1.21074248 14.8344761,1.2002585 14.7337234,1.19991717 C14.7337234,1.19991717 11.739062,1.19991717 5.74973919,1.19991717 C5.17128142,1.19312039 4.61192442,1.39229537 4.16787713,1.7701588 L4.02426407,1.90269395 L1.90294373,4.02401429 C1.00473785,4.92222016 0.967312609,6.35524655 1.79066799,7.29802079 L1.90294373,7.41812684 C2.86798817,8.38317128 4.60645847,10.1197335 5.08898069,10.6022557 L4.24611357,11.4564448 Z" id="路径" transform="translate(10.193771, 9.685627) rotate(-360.000000) translate(-10.193771, -9.685627) "></path>
            <path d="M14.4929104,8.68749032 C14.4929104,9.01674657 14.2260932,9.28371313 13.896837,9.28389737 L1.05485842,9.29108327 C0.725840326,9.29126738 0.458969211,9.02469476 0.458785104,8.69567666 C0.458785042,8.69556555 0.458785011,8.69545443 0.458785011,8.69534331 C0.458785011,8.36608706 0.725602228,8.0991205 1.05485842,8.09893626 L13.896837,8.09175036 C14.2258551,8.09156625 14.4927262,8.35813887 14.4929103,8.68715697 C14.4929104,8.68726809 14.4929104,8.6873792 14.4929104,8.68749032 Z" id="路径" transform="translate(7.475848, 8.691417) rotate(-405.000000) translate(-7.475848, -8.691417) "></path>
            <path d="M8.03423792,13.0143062 C8.36560877,13.0143062 8.63423792,13.2829354 8.63423792,13.6143062 C8.63423792,13.91254 8.41664831,14.159953 8.13156104,14.2064532 L8.03423792,14.2143062 L4.13185083,14.2143062 C3.80047998,14.2143062 3.53185083,13.9456771 3.53185083,13.6143062 C3.53185083,13.3160724 3.74944044,13.0686594 4.03452771,13.0221592 L4.13185083,13.0143062 L8.03423792,13.0143062 Z" id="路径备份" transform="translate(6.083044, 13.614306) rotate(-405.000000) translate(-6.083044, -13.614306) "></path>
            <path d="M9.79928095,14.7793492 C10.1306518,14.7793492 10.399281,15.0479784 10.399281,15.3793492 C10.399281,15.677583 10.1816913,15.924996 9.89660407,15.9714962 L9.79928095,15.9793492 L5.89689386,15.9793492 C5.56552301,15.9793492 5.29689386,15.7107201 5.29689386,15.3793492 C5.29689386,15.0811155 5.51448347,14.8337025 5.79957075,14.7872022 L5.89689386,14.7793492 L9.79928095,14.7793492 Z" id="路径备份-2" transform="translate(7.848087, 15.379349) rotate(-405.000000) translate(-7.848087, -15.379349) "></path>
            <path d="M10.4146789,3.66175322 C10.7459276,3.65275446 11.0217526,3.91398959 11.0307514,4.24523824 C11.0388503,4.54336201 10.8280597,4.79659266 10.5443403,4.85081765 L10.4472664,4.86131067 L6.72721573,4.86748111 C6.39596709,4.87647988 6.12014207,4.61524474 6.11114331,4.2839961 C6.10304442,3.98587232 6.31383499,3.73264168 6.59755435,3.67841668 L6.69462832,3.66792367 L10.4146789,3.66175322 Z" id="路径" transform="translate(8.570947, 4.264617) rotate(-495.000000) translate(-8.570947, -4.264617) "></path>
        </g>
    </g>
</svg>