<?xml version="1.0" encoding="UTF-8"?>
<svg width="24px" height="24px" viewBox="0 0 24 24" version="1.1" xmlns="http://www.w3.org/2000/svg" xmlns:xlink="http://www.w3.org/1999/xlink">
    <title>cons_filled_camera_state</title>
    <g id="cons_filled_camera_state" stroke="none" stroke-width="1" fill="none" fill-rule="evenodd">
        <g id="编组">
            <rect id="矩形" x="0" y="0" width="24" height="24"></rect>
            <g id="icon20" transform="translate(2.000000, 4.000000)" fill="#000000" fill-opacity="0.9">
                <path d="M12.7324081,0 L7.26759188,0 C7.10041529,-2.66255444e-16 6.94429962,0.0835505677 6.85156673,0.222649902 L5,3 L5,3 L1,3 C0.44771525,3 1.05905057e-14,3.44771525 1.0658141e-14,4 L1.0658141e-14,15 C1.07257764e-14,15.5522847 0.44771525,16 1,16 L19,16 C19.5522847,16 20,15.5522847 20,15 L20,4 C20,3.44771525 19.5522847,3 19,3 L15,3 L15,3 L13.1484333,0.222649902 C13.0557004,0.0835505677 12.8995847,5.6322073e-16 12.7324081,0 Z M12.3844829,8.24702102 C12.2601212,7.85191719 12.479601,7.43080716 12.8747049,7.30644545 C13.2698087,7.18208374 13.6909187,7.40156359 13.8152804,7.79666743 C14.2595439,9.20811615 13.8940017,10.7632581 12.8284271,11.8288327 C11.26633,13.3909298 8.73367004,13.3909298 7.17157288,11.8288327 C5.60947571,10.2667355 5.60947571,7.73407558 7.17157288,6.17197842 C8.2371474,5.10640389 9.79228939,4.74086169 11.2037381,5.18512511 C11.598842,5.30948682 11.8183218,5.73059685 11.6939601,6.12570068 C11.5695984,6.52080451 11.1484884,6.74028437 10.7533845,6.61592266 C9.87014514,6.33791685 8.89858602,6.56628562 8.23223305,7.23263859 C7.25592232,8.20894932 7.25592232,9.79186176 8.23223305,10.7681725 C9.20854378,11.7444832 10.7914562,11.7444832 11.767767,10.7681725 C12.4341199,10.1018195 12.6624887,9.1302604 12.3844829,8.24702102 Z" id="Combined-Shape"></path>
            </g>
        </g>
    </g>
</svg>