<?xml version="1.0" encoding="UTF-8"?>
<svg width="24px" height="24px" viewBox="0 0 24 24" version="1.1" xmlns="http://www.w3.org/2000/svg" xmlns:xlink="http://www.w3.org/1999/xlink">
    <title>tab-心选未选中</title>
    <g id="tab-心选未选中" stroke="none" stroke-width="1" fill="none" fill-rule="evenodd">
        <g id="0.图标/面型/icons_filled_like" fill="#000000" fill-rule="nonzero">
            <g id="Path">
                <path d="M11.6066017,6.46446609 L11.992781,6.84163553 C12.0912935,6.9361437 12.1982694,7.03778038 12.3137085,7.14654555 L12.7760574,6.70521964 C12.8661066,6.61783996 12.9476926,6.53758878 13.0208153,6.46446609 C14.9734367,4.51184464 18.1392616,4.51184464 20.0918831,6.46446609 C22.0263413,8.39892429 22.0443356,11.5241205 20.145866,13.4807312 L13.0208153,20.6066017 C12.6303114,20.9971464 11.9971464,20.9971796 11.6066017,20.6066757 L4.48114108,13.4811411 C2.5830814,11.5241205 2.60107571,8.39892429 4.53553391,6.46446609 C6.48815536,4.51184464 9.65398026,4.51184464 11.6066017,6.46446609 Z M19.0547931,7.50155604 C17.6749406,6.12170354 15.4377577,6.12170354 14.0579052,7.50155604 L13.6523246,7.8977758 L13.3194816,8.21403401 L12.3137085,9.16165972 L10.9750924,7.8977758 C10.8212274,7.75014113 10.6861318,7.61817602 10.5695118,7.50155604 C9.18965927,6.12170354 6.95247635,6.12170354 5.57262385,7.50155604 C4.25592379,8.8182561 4.19424004,10.919059 5.38121241,12.294313 L5.51823641,12.4440565 L12.313,19.239 L19.0932547,12.4593984 C20.3879896,11.125012 20.4196549,9.02373302 19.1959286,7.65100701 L19.0547931,7.50155604 Z"></path>
            </g>
        </g>
    </g>
</svg>