<?xml version="1.0" encoding="UTF-8"?>
<svg width="24px" height="24px" viewBox="0 0 24 24" version="1.1" xmlns="http://www.w3.org/2000/svg" xmlns:xlink="http://www.w3.org/1999/xlink">
    <title>icons_filled_beautybox</title>
    <defs>
        <filter id="filter-1">
            <feColorMatrix in="SourceGraphic" type="matrix" values="0 0 0 0 1.000000 0 0 0 0 1.000000 0 0 0 0 1.000000 0 0 0 1.000000 0"></feColorMatrix>
        </filter>
    </defs>
    <g id="icons_filled_beautybox" stroke="none" stroke-width="1" fill="none" fill-rule="evenodd" opacity="0.900000036">
        <g id="编组-26备份" filter="url(#filter-1)">
            <g id="编组-26" transform="translate(12.000000, 12.000000) scale(-1, 1) translate(-12.000000, -12.000000) ">
                <g id="编组-2" transform="translate(-3.000000, -7.000000)">
                    <g id="编组" transform="translate(3.176129, 3.770538)" fill="#000000">
                        <path d="M5.11353917,18.7378131 L5.99023151,18.2623287 L6.91347587,18.7529087 L6.91347587,23.417411 C6.91347587,23.6383249 6.73438977,23.817411 6.51347587,23.817411 C6.51235766,23.817411 6.51123945,23.8174064 6.51012128,23.817397 L5.51018458,23.8090108 C5.29058733,23.807169 5.11353917,23.6286298 5.11353917,23.4090248 L5.11353917,18.7378131 L5.11353917,18.7378131 Z" id="路径-5" fill-rule="nonzero" transform="translate(6.013508, 21.039870) rotate(-315.000000) translate(-6.013508, -21.039870) "></path>
                        <path d="M13.4886143,19.899394 L8.81644871,22.3556969 C8.32760412,22.6126977 7.72297696,22.4247511 7.46597616,21.9359066 C7.36363709,21.7412461 7.32832241,21.518278 7.36549926,21.3015204 L8.25780349,16.0989875 L4.4779421,12.4145333 C4.08245852,12.029032 4.07436622,11.3959188 4.45986743,11.0004352 C4.61337603,10.8429516 4.81451844,10.7404644 5.03215547,10.7088399 L10.2557954,9.94980056 L12.5918783,5.21637978 C12.8363005,4.72112612 13.4359264,4.51778712 13.93118,4.76220942 C14.1283926,4.85953965 14.2880202,5.01916718 14.3853504,5.21637978 L16.7214332,9.94980056 L21.9450732,10.7088399 C22.491618,10.7882575 22.8702995,11.2957003 22.7908819,11.8422452 C22.7592574,12.0598822 22.6567702,12.2610247 22.4992866,12.4145333 L18.7194252,16.0989875 L19.6117294,21.3015204 C19.7050904,21.8458568 19.3395026,22.3628128 18.7951661,22.4561738 C18.5784085,22.4933506 18.3554404,22.4580359 18.1607799,22.3556969 L13.4886143,19.899394 Z" id="Star" transform="translate(13.488679, 13.564745) rotate(-315.000000) translate(-13.488679, -13.564745) "></path>
                    </g>
                    <g id="0.图标/面型/icons_filled_star" transform="translate(17.000000, 17.000000) rotate(-315.000000) translate(-17.000000, -17.000000) translate(5.000000, 5.000000)"></g>
                </g>
            </g>
        </g>
    </g>
</svg>