<?xml version="1.0" encoding="UTF-8"?>
<svg width="24px" height="24px" viewBox="0 0 24 24" version="1.1" xmlns="http://www.w3.org/2000/svg" xmlns:xlink="http://www.w3.org/1999/xlink">
    <title>已关注</title>
    <g id="已关注" stroke="none" stroke-width="1" fill="none" fill-rule="evenodd">
        <g id="编组-14" fill="#000000" fill-rule="nonzero">
            <g id="编组">
                <path d="M16.7014384,19.2055376 L21.7323629,14.1746131 L22.775007,15.2172572 L17.138197,20.8524474 C16.9039017,21.0867813 16.5240027,21.0867267 16.2897218,20.8523785 C16.2897042,20.8523608 16.2896865,20.8523431 16.2897219,20.8522725 L13.473476,18.0345129 L13.473476,18.0345129 L14.5019448,17.0060441 L16.7014384,19.2055376 Z M11.9,3 C14.109139,3 15.9,4.79298022 15.9,7.00020747 L15.9,8.71018568 C15.9,9.84929595 15.3009324,11.4828603 14.5680872,12.351573 L14.2065546,12.7801327 C13.9505779,13.0835668 13.8404693,13.4229419 13.8653023,13.7427561 L12.3032034,13.7422629 C12.2829736,13.1281942 12.4713078,12.494871 12.887211,11.9345462 L13.0141712,11.7742392 L13.3757038,11.3456795 C13.8309068,10.8060831 14.2618476,9.68751998 14.33051,8.9123799 L14.34,8.71018568 L14.34,7.00020747 C14.34,5.65370434 13.2467349,4.56 11.9,4.56 C10.616194,4.56 9.56006723,5.55689347 9.46670819,6.8177426 L9.46,6.99958038 L9.46,8.70929053 C9.46,9.4163665 9.85128439,10.5446256 10.3005223,11.182917 L10.4242281,11.3441639 L10.7857607,11.7726648 C11.9885432,13.1982444 11.6229239,15.1770766 10.0395267,16.0757909 L9.85860006,16.1711201 L4.19824691,18.9333098 C4.13188269,18.9656948 4.01067626,19.1475304 3.97211757,19.258875 L3.96,19.3154633 L3.96,19.44 L11.899,19.439 L11.899,21 L3.40142961,21 C2.84835531,21 2.4,20.5557555 2.4,20.0015619 L2.4,19.3154633 C2.4,18.6303744 2.89815091,17.8319079 3.51409761,17.5313327 L9.17445076,14.769143 C9.99537712,14.36854 10.1862591,13.4812624 9.59344523,12.7786389 L9.23191269,12.350138 C8.49631763,11.4782852 7.9,9.84949648 7.9,8.70929053 L7.9,6.99958038 C7.9,4.79067313 9.69535616,3 11.9,3 Z" id="1.3pt"></path>
            </g>
        </g>
    </g>
</svg>