<?xml version="1.0" encoding="UTF-8"?>
<svg width="40px" height="40px" viewBox="0 0 40 40" version="1.1" xmlns="http://www.w3.org/2000/svg" xmlns:xlink="http://www.w3.org/1999/xlink">
    <title>wechat-game-light</title>
    <g id="Page-1" stroke="none" stroke-width="1" fill="none" fill-rule="evenodd" fill-opacity="0.100000001">
        <path d="M11.6366139,21.25 C12.2277288,24.7935723 14.9717497,27.6078855 18.4787493,28.3033243 L18.75,28.3526169 L18.75,38.6540196 C18.75,39.3535418 18.2162357,39.9286035 17.5336537,39.9938373 L17.4040196,40 L17.3920725,40 C17.0861603,40 16.7908798,39.8957834 16.5538095,39.7070596 L16.4403454,39.6057467 L0.39425329,23.5596546 C0.177907973,23.3433093 0.0427848639,23.0608241 0.00859347187,22.7597774 L0,22.6079275 L0,22.5959804 C0,21.8962998 0.533913308,21.3213779 1.21637259,21.2561611 L1.3459804,21.25 L11.6366139,21.25 Z M38.6540196,21.25 C39.3535418,21.25 39.9286035,21.7837643 39.9938373,22.4663463 L40,22.5959804 L40,22.635187 C40,22.9410992 39.8957834,23.2363797 39.7070596,23.47345 L39.6057467,23.5869141 L23.5869141,39.6057467 C23.3705688,39.822092 23.0880836,39.9572151 22.7870369,39.9914065 L22.635187,40 L22.5959804,40 C21.8962998,40 21.3213779,39.4660867 21.2561611,38.7836274 L21.25,38.6540196 L21.25,28.3457179 C24.7760177,27.7450874 27.5745359,25.0120258 28.2721591,21.5200845 L28.3216555,21.25 L38.6540196,21.25 Z M17.596172,0 C18.1909282,0 18.6805852,0.450002541 18.7432295,1.02823383 L18.75,1.15398595 L18.75,11.6633686 C15.2100053,12.2484133 12.3951172,14.981565 11.6893489,18.4794471 L11.6392424,18.75 L1.15382803,18.75 C0.559071779,18.75 0.0694147793,18.2999974 0.00677054045,17.721903 L0,17.5961823 L0,17.3244286 C0,17.0622181 0.0892587012,16.8090322 0.251033471,16.6058795 L0.33788635,16.5086625 L16.5086424,0.33805158 C16.6941241,0.152571531 16.9362269,0.0366928543 17.1942601,0.00736996793 L17.3244158,0 L17.596172,0 Z M22.6232399,0 C22.9291522,0 23.2244326,0.104093941 23.4615029,0.292890043 L23.574967,0.39425683 L39.6057467,16.4250121 C39.822092,16.6413594 39.9572151,16.9238471 39.9914065,17.2248965 L40,17.3767478 L40,17.4040075 C40,18.1036944 39.4660867,18.6786215 38.7836274,18.7438389 L38.6540196,18.75 L28.3189632,18.75 C27.724567,15.227396 25.0020588,12.4282991 21.519375,11.7205021 L21.25,11.6702041 L21.25,1.34599248 C21.25,0.646305638 21.7837643,0.0713785439 22.4663463,0.00616112407 L22.5959804,0 L22.6232399,0 Z" id="wechat-game-light" fill="#000000" fill-rule="nonzero"></path>
    </g>
</svg>