<?xml version="1.0" encoding="UTF-8"?>
<svg width="24px" height="24px" viewBox="0 0 24 24" version="1.1" xmlns="http://www.w3.org/2000/svg" xmlns:xlink="http://www.w3.org/1999/xlink">
    <title>弹幕</title>
    <g id="弹幕" stroke="none" stroke-width="1" fill="none" fill-rule="evenodd">
        <path d="M20,3 C20.5522847,3 21,3.44771525 21,4 L21,20 C21,20.5522847 20.5522847,21 20,21 L4,21 C3.44771525,21 3,20.5522847 3,20 L3,4 C3,3.44771525 3.44771525,3 4,3 L20,3 Z M19.799,4.199 L4.199,4.199 L4.199,19.799 L19.799,19.799 L19.799,4.199 Z M15.324,6.25 L16.512,6.67 C16.272,7.246 15.996,7.762 15.696,8.218 L15.696,8.218 L17.088,8.218 L17.088,13.27 L14.616,13.27 L14.616,14.194 L17.556,14.194 L17.556,15.37 L14.616,15.37 L14.616,17.518 L13.392,17.518 L13.392,15.37 L10.536,15.37 L10.536,14.194 L13.392,14.194 L13.392,13.27 L10.968,13.27 L10.968,8.218 L12.408,8.218 C12.132,7.654 11.832,7.162 11.508,6.73 L11.508,6.73 L12.648,6.346 C12.984,6.826 13.284,7.33 13.536,7.882 L13.536,7.882 L12.78,8.218 L14.436,8.218 C14.772,7.606 15.06,6.946 15.324,6.25 L15.324,6.25 Z M10.176,6.79 L10.176,10.486 L8.016,10.486 L7.848,12.106 L10.248,12.106 C10.248,14.17 10.176,15.55 10.056,16.246 C9.912,16.942 9.3,17.326 8.208,17.398 C7.896,17.398 7.584,17.374 7.248,17.35 L7.248,17.35 L6.924,16.186 C7.236,16.222 7.572,16.246 7.908,16.246 C8.508,16.246 8.844,16.054 8.928,15.67 C9.012,15.286 9.06,14.458 9.06,13.186 L9.06,13.186 L6.576,13.186 L6.912,9.418 L8.94,9.418 L8.94,7.858 L6.684,7.858 L6.684,6.79 L10.176,6.79 Z M15.984,11.29 L14.616,11.29 L14.616,12.226 L15.984,12.226 L15.984,11.29 Z M13.392,11.29 L12.084,11.29 L12.084,12.226 L13.392,12.226 L13.392,11.29 Z M13.392,9.274 L12.084,9.274 L12.084,10.258 L13.392,10.258 L13.392,9.274 Z M15.984,9.274 L14.616,9.274 L14.616,10.258 L15.984,10.258 L15.984,9.274 Z" id="形状结合" fill="#000000" fill-rule="nonzero"></path>
    </g>
</svg>