<?xml version="1.0" encoding="UTF-8"?>
<svg width="24px" height="24px" viewBox="0 0 24 24" version="1.1" xmlns="http://www.w3.org/2000/svg" xmlns:xlink="http://www.w3.org/1999/xlink">
    <title>▫️ 支付图标/业务图标/面对面红包 - outline</title>
    <g id="▫️-支付图标/业务图标/面对面红包---outline" stroke="none" stroke-width="1" fill="none" fill-rule="evenodd">
        <path d="M16.9975267,3.2 C17.5511774,3.2 18,3.6500538 18,4.19958131 L18,10.062 L20.2926555,11.3428798 C20.4553138,11.4337618 20.5649334,11.5939614 20.5929338,11.7747703 L20.6,11.8666667 L20.6,20.2 C20.6,20.5313708 20.3313708,20.8 20,20.8 L20,20.8 L18.2954545,20.8 C17.4417301,20.8 16.69018,19.9191745 16.20843,18.7999416 L7.7894001,18.8049771 C7.30756491,19.9218152 6.55698919,20.8 5.70454545,20.8 L4,20.8 C3.66862915,20.8 3.4,20.5313708 3.4,20.2 L3.4,11.8666667 C3.4,11.6492868 3.51757655,11.4489088 3.70734445,11.3428798 L6,10.061 L6.00078649,8.18883287 C6.00045794,8.18868638 6.0001294,8.18853989 5.99980088,8.18839339 L6.0003243,7.20013833 L6,4.19958131 C6,3.6475278 6.45576096,3.2 7.00247329,3.2 L16.9975267,3.2 Z M5.78172476,11.5584657 L4.6,12.218731 L4.6,19.6 L5.70454545,19.6 C6.25596047,19.6 7.15772825,17.5609117 7.1500097,16.2034115 C7.14860986,15.957215 7.29775208,15.735149 7.52618156,15.6433086 C7.5355454,15.6395439 7.75957239,15.5625584 7.86612446,15.5217706 C8.06058588,15.4473312 8.24686266,15.3637971 8.41793655,15.2698647 C8.67397655,15.1292796 8.86823988,14.9793434 9.0424056,14.7639487 C9.31162002,14.509497 9.47110565,14.0319198 9.52008795,13.5326829 C9.51398391,13.5316774 9.50777817,13.5306776 9.50147289,13.5296849 C9.2410124,13.4886778 8.8659942,13.4660279 8.39449172,13.4590886 C8.10243999,13.4547904 7.82429706,13.4562645 7.40404049,13.4621666 C7.22862291,13.4647005 7.22862291,13.4647005 7.06096416,13.4666233 C6.12117835,13.4553174 5.82120471,12.7247201 5.78172476,11.5584657 Z M18.2182752,11.5584657 C18.1787953,12.7247201 17.8788216,13.4553174 16.9390358,13.4666233 C16.7713771,13.4647005 16.7713771,13.4647005 16.5959595,13.4621666 C16.1757029,13.4562645 15.89756,13.4547904 15.6055083,13.4590886 C15.1340058,13.4660279 14.7589876,13.4886778 14.4985271,13.5296849 C14.4922218,13.5306776 14.4860161,13.5316774 14.4799121,13.5326829 C14.5288943,14.0319198 14.68838,14.509497 14.9575944,14.7639487 C15.1317601,14.9793434 15.3260234,15.1292796 15.5820635,15.2698647 C15.7531373,15.3637971 15.9394141,15.4473312 16.1338755,15.5217706 C16.2404276,15.5625584 16.4644546,15.6395439 16.4738184,15.6433086 C16.7022479,15.735149 16.8513901,15.957215 16.8499903,16.2034115 C16.8422717,17.5609117 17.7440395,19.6 18.2954545,19.6 L18.2954545,19.6 L19.4,19.6 L19.4,12.218731 Z M11.832934,9.4337373 C10.1635647,9.4337373 8.58823594,9.13258851 7.19876207,8.65863344 L7.19914965,12.2649494 C7.24478941,12.264341 7.28807796,12.2637159 7.38718941,12.2622849 C7.81814759,12.2562326 8.1057067,12.2547085 8.41215079,12.2592186 C10.1654349,12.2850225 10.7363636,12.3749099 10.7363636,13.2 C10.7363636,14.110157 10.4980043,15.0393516 9.93161553,15.5638738 C9.70493696,15.8610691 9.38561636,16.1075268 8.99549187,16.3217344 C8.78363771,16.4380583 8.56232339,16.5384563 8.33425955,16.6273497 C8.31004241,16.9446278 8.25848341,17.273233 8.18291941,17.6003771 L15.8168491,17.5993746 C15.7414113,17.2725617 15.6899329,16.9443037 15.6657405,16.6273497 C15.4376766,16.5384563 15.2163623,16.4380583 15.0045081,16.3217344 C14.6143836,16.1075268 14.295063,15.8610691 14.0683845,15.5638738 C13.5019957,15.0393516 13.2636364,14.110157 13.2636364,13.2 C13.2636364,12.3749099 13.8345651,12.2850225 15.5878492,12.2592186 C15.8942933,12.2547085 16.1818524,12.2562326 16.6128106,12.2622849 C16.711922,12.2637159 16.7552106,12.264341 16.8008504,12.2649494 L16.8016678,8.53989811 C15.3327004,9.08172648 13.6377789,9.4337373 11.832934,9.4337373 Z M16.8000002,4.39999981 L7.19999981,4.39999981 L7.1985558,7.64590329 C8.57188729,8.08683389 10.1518375,8.36741618 11.832934,8.36741618 C13.652234,8.36741618 15.3530736,8.03880405 16.8017704,7.53397181 L16.8000002,4.39999981 Z" id="Combined-Shape" fill="#000000"></path>
    </g>
</svg>