<svg width="16" height="17" viewBox="0 0 16 17" fill="none" xmlns="http://www.w3.org/2000/svg">
<path fill-rule="evenodd" clip-rule="evenodd" d="M5.33365 4.50016C5.33365 3.0274 6.52755 1.8335 8.00031 1.8335C9.47307 1.8335 10.667 3.0274 10.667 4.50016L10.667 6.5001H12.6664C13.0349 6.5001 13.3337 6.79842 13.3337 7.16577V14.5011C13.3337 14.8687 13.0372 15.1668 12.6664 15.1668H3.33424C2.96573 15.1668 2.66699 14.8684 2.66699 14.5011V7.16577C2.66699 6.79813 2.96341 6.5001 3.33424 6.5001H5.33365V4.50016ZM9.86698 4.50016V6.5001H6.13365L6.13365 4.50016C6.13365 3.46923 6.96938 2.63349 8.00031 2.63349C9.03124 2.63349 9.86698 3.46923 9.86698 4.50016ZM3.46695 14.3667V7.30006H12.5336V14.3667H3.46695ZM7.00032 10.1668C7.00032 10.5768 7.24714 10.9293 7.60032 11.0836V12.5001H8.40032V11.0836C8.7535 10.9293 9.00032 10.5768 9.00032 10.1668C9.00032 9.61449 8.55261 9.16677 8.00032 9.16677C7.44804 9.16677 7.00032 9.61449 7.00032 10.1668Z" fill="black" fill-opacity="0.9"/>
</svg>
