<?xml version="1.0" encoding="UTF-8"?>
<svg width="64px" height="64px" viewBox="0 0 64 64" version="1.1" xmlns="http://www.w3.org/2000/svg" xmlns:xlink="http://www.w3.org/1999/xlink">
    <!-- Generator: Sketch 63.1 (92452) - https://sketch.com -->
    <title>icon_done</title>
    <desc>Created with Sketch.</desc>
    <g id="icon_done" stroke="none" stroke-width="1" fill="none" fill-rule="evenodd">
        <path d="M31.6666667,5 C46.39426,5 58.3333333,16.9390733 58.3333333,31.6666667 C58.3333333,46.39426 46.39426,58.3333333 31.6666667,58.3333333 C16.9390733,58.3333333 5,46.39426 5,31.6666667 C5,16.9390733 16.9390733,5 31.6666667,5 Z M41.8454501,24.1425291 C41.1935839,23.5008863 40.1449877,23.5091739 39.5033449,24.1610401 L39.5033449,24.1610401 L28.6381888,35.1993112 C28.2420981,35.595446 27.6089331,35.595446 27.2184088,35.2049217 L27.2184088,35.2049217 L22.5118446,30.4983575 C21.8609708,29.8474837 20.8056959,29.8474837 20.154822,30.4983575 C19.5039482,31.1492313 19.5039482,32.2045063 20.154822,32.8553801 L20.154822,32.8553801 L25.7986361,38.4991942 L25.813306,38.5137633 C26.9929251,39.6772342 28.8923749,39.6641436 30.0558459,38.4845244 L30.0558459,38.4845244 L41.8628809,26.5136158 C42.5096646,25.8578551 42.5060298,24.8030357 41.8547422,24.151748 L41.8547422,24.151748 Z" id="形状结合" fill="#333333" fill-rule="nonzero"></path>
    </g>
</svg>