<?xml version="1.0" encoding="UTF-8"?>
<svg width="24px" height="24px" viewBox="0 0 24 24" version="1.1" xmlns="http://www.w3.org/2000/svg" xmlns:xlink="http://www.w3.org/1999/xlink">
    <title>声音 icon</title>
    <g id="声音-icon" stroke="none" stroke-width="1" fill="none" fill-rule="evenodd">
        <rect id="矩形" fill="#D8D8D8" opacity="0" x="0" y="0" width="24" height="24"></rect>
        <path d="M10.9993045,4.00011076 L10.9994676,5.21237516 C7.16418274,5.70497742 4.2,8.991503 4.2,12.9724684 C4.2,17.2934674 7.69217895,20.7963291 12,20.7963291 C16.307821,20.7963291 19.8,17.2934674 19.8,12.9724684 C19.8,10.9446312 19.0308796,9.09698117 17.7692819,7.70700787 L19.0575616,7.36992721 C20.2737503,8.9092749 21,10.8557999 21,12.9724684 C21,17.8692049 17.1131863,21.8553503 12.2653623,21.9961512 L12,22 C7.02943725,22 3,17.9582364 3,12.9724684 C3,8.41533834 6.36637976,4.64687362 10.7408385,4.03258926 L10.9993045,4.00011076 Z M19.2966514,2.06435363 L19.2991593,2.07707547 L19.3,4.38308572 C19.3,4.4284312 19.2694883,4.46810095 19.2256612,4.47973716 L14.499,5.73399019 L14.5,13.2 C14.3945996,14.4316133 13.404931,15.4114446 12.1698774,15.4943192 L12,15.5 C10.6192881,15.5 9.5,14.3807119 9.5,13 C9.5,11.6745166 10.5315359,10.5899613 11.8356243,10.5053177 L12,10.5 C12.4761364,10.5 12.9211842,10.6331063 13.2999627,10.8641382 L13.3,4.32216039 C13.3,3.86870556 13.605117,3.47200813 14.0433876,3.35564599 L19.1743388,1.99336343 C19.2277179,1.97919112 19.2824791,2.01097451 19.2966514,2.06435363 Z" id="形状结合" fill="#000000" fill-rule="nonzero"></path>
    </g>
</svg>