<?xml version="1.0" encoding="UTF-8"?>
<svg width="24px" height="24px" viewBox="0 0 24 24" version="1.1" xmlns="http://www.w3.org/2000/svg" xmlns:xlink="http://www.w3.org/1999/xlink">
    <title>Icons_filled_board</title>
    <g id="Icons_filled_board" stroke="none" stroke-width="1" fill="none" fill-rule="evenodd">
        <g id="编组">
            <rect id="矩形" x="0" y="0" width="24" height="24"></rect>
            <path d="M21,3 C21.5522847,3 22,3.44771525 22,4 L22,15 C22,15.5522847 21.5522847,16 21,16 L16.098,16 L16.964,17.5 L17,17.5 L17,17.563 L19.0020508,21.0310889 L17.27,22.0310889 L15.808,19.5 L8.193,19.5 L6.73205081,22.0310889 L5,21.0310889 L7,17.565 L7,17.5 L7.037,17.5 L7.903,16 L3,16 C2.44771525,16 2,15.5522847 2,15 L2,4 C2,3.44771525 2.44771525,3 3,3 L21,3 Z M13.787,16 L10.214,16 L9.348,17.5 L14.653,17.5 L13.787,16 Z M20,5 L4,5 L4,14 L20,14 L20,5 Z" id="形状结合" fill-opacity="0.9" fill="#000000"></path>
        </g>
    </g>
</svg>