<?xml version="1.0" encoding="UTF-8"?>
<svg width="20px" height="22px" viewBox="0 0 20 22" version="1.1" xmlns="http://www.w3.org/2000/svg" xmlns:xlink="http://www.w3.org/1999/xlink">
    <title>编组</title>
    <g id="one哥改过的" stroke="none" stroke-width="1" fill="none" fill-rule="evenodd">
        <g id="朋友圈广告---负反馈备份-9" transform="translate(-197.000000, -242.000000)">
            <g id="编组-8" transform="translate(67.000000, 149.500000)">
                <g id="编组-7" transform="translate(118.000000, 85.500000)">
                    <g id="编组" transform="translate(12.000000, 8.000000)">
                        <g id="3.Icons/Outlined/float-window_off" transform="translate(2.000000, 2.000000)"></g>
                        <path d="M3.2291611,5.69328049 L3.94076129,6.40624223 C3.01013914,7.63352898 3.09137353,9.38563336 4.18221542,10.5105145 L10.0022091,16.3305686 L11.933,14.398 L12.641,15.105 L10.5915001,17.1555014 C10.2660803,17.4809554 9.73844278,17.480983 9.41298884,17.1555631 L3.47510497,11.2176176 C1.99513641,9.69167559 1.91306185,7.31346865 3.2291611,5.69328049 Z M3.01421404,2.65 L4.84361738,4.47793514 C6.35960261,3.83756495 8.1776498,4.13504937 9.41298884,5.37038841 C9.56532776,5.52272733 9.76174631,5.71219385 10.0022445,5.93878796 C10.2427427,5.71219385 10.4391612,5.52272733 10.5915001,5.37038841 C12.2186847,3.74320386 14.8568721,3.74320386 16.4840567,5.37038841 C18.0961052,6.98243691 18.1111004,9.58676708 16.5290424,11.217276 L14.055,13.69 L16.9541491,16.5899351 L16.2470423,17.2970419 L4.66359972,5.7128175 C4.66327239,5.71304473 4.66294509,5.71327203 4.66261783,5.71349939 L3.94712088,4.99749195 L2.30710723,3.35710681 L3.01421404,2.65 Z M11.2986103,6.07749519 C11.1383862,6.23771588 10.9351593,6.43374979 10.6879989,6.666621 L10.0022445,7.31272944 L9.31649011,6.666621 C9.06932966,6.43374979 8.86610275,6.23771588 8.70588206,6.07749519 C7.87223361,5.24384675 6.68941989,4.97217135 5.62819441,5.26246899 L13.348,12.983 L15.8113529,10.5209127 C17.0147837,9.28062655 17.0007357,7.301281 15.7769499,6.07749519 C14.5402896,4.84083494 12.5352672,4.84083494 11.2986103,6.07749519 Z" id="形状结合" fill-opacity="0.9" fill="#000000"></path>
                        <rect id="矩形" x="0" y="0" width="20" height="20"></rect>
                    </g>
                </g>
            </g>
        </g>
    </g>
</svg>