<?xml version="1.0" encoding="UTF-8"?>
<svg width="24px" height="24px" viewBox="0 0 24 24" version="1.1" xmlns="http://www.w3.org/2000/svg" xmlns:xlink="http://www.w3.org/1999/xlink">
    <title>icons_outlined_pic-in-pic</title>
    <defs>
        <filter id="filter-1">
            <feColorMatrix in="SourceGraphic" type="matrix" values="0 0 0 0 0.000000 0 0 0 0 0.000000 0 0 0 0 0.000000 0 0 0 1.000000 0"></feColorMatrix>
        </filter>
    </defs>
    <g id="icons_outlined_pic-in-pic" stroke="none" stroke-width="1" fill="none" fill-rule="evenodd">
        <path d="M19.5,3 C20.0522847,3 20.5,3.44771525 20.5,4 L20.5,12 L19.3,12 L19.3,4.2 L3.2,4.2 L3.2,17.8 L12,17.8 L12,19 L3,19 C2.44771525,19 2,18.5522847 2,18 L2,4 C2,3.44771525 2.44771525,3 3,3 L19.5,3 Z" id="形状结合" fill="#000000" fill-rule="nonzero"></path>
        <path id="矩形" d="M21,12.8 C21.8836556,12.8 22.6,13.5163444 22.6,14.4 L22.6,14.4 L22.6,20 C22.6,20.8836556 21.8836556,21.6 21,21.6 L21,21.6 L14.4,21.6 C13.5163444,21.6 12.8,20.8836556 12.8,20 L12.8,20 L12.8,14.4 C12.8,13.5163444 13.5163444,12.8 14.4,12.8 L14.4,12.8 Z M21,14 L14.4,14 C14.1790861,14 14,14.1790861 14,14.4 L14,14.4 L14,20 C14,20.2209139 14.1790861,20.4 14.4,20.4 L14.4,20.4 L21,20.4 C21.2209139,20.4 21.4,20.2209139 21.4,20 L21.4,20 L21.4,14.4 C21.4,14.1790861 21.2209139,14 21,14 L21,14 Z" fill="#000000" fill-rule="nonzero"></path>
        <g filter="url(#filter-1)" id="编组-3">
            <g transform="translate(5.100000, 6.000000)">
                <path d="M0.400862197,6.5 L0.400862197,5.3 L4.385,5.29935534 L0.32,1.23388348 L1.16852814,0.385355339 L5.2,4.41635534 L5.2008622,0.5 L6.4008622,0.5 L6.4,5.61635534 L6.40111832,5.61794552 L6.4,5.61835534 L6.4008622,6 C6.4008622,6.24545989 6.22398704,6.44960837 5.99073783,6.49194433 L5.9008622,6.5 L5.9008622,6.5 L0.400862197,6.5 Z" id="形状结合" fill="#000000"></path>
            </g>
        </g>
        <path d="M5.5008622,12.5 L5.5008622,11.3 L9.485,11.2993553 L5.42,7.23388348 L6.26852814,6.38535534 L10.3,10.4163553 L10.3008622,6.5 L11.5008622,6.5 L11.5,11.6163553 L11.5011183,11.6179455 L11.5,11.6183553 L11.5008622,12 C11.5008622,12.2454599 11.323987,12.4496084 11.0907378,12.4919443 L11.0008622,12.5 L11.0008622,12.5 L5.5008622,12.5 Z" id="形状结合" fill="#000000"></path>
    </g>
</svg>