<?xml version="1.0" encoding="UTF-8"?>
<svg width="24px" height="24px" viewBox="0 0 24 24" version="1.1" xmlns="http://www.w3.org/2000/svg" xmlns:xlink="http://www.w3.org/1999/xlink">
    <title>0.图标/线型/icons_filled_gift_effects_on</title>
    <g id="0.图标/线型/icons_filled_gift_effects_on" stroke="none" stroke-width="1" fill="none" fill-rule="evenodd">
        <g id="编组-3" transform="translate(0.477583, 2.250883)">
            <path d="M9.21606597,1.29694225 L12.6451757,3.26271697 L16.0398975,1.47362456 L15.3705968,5.26489995 L18.2825748,8.05369411 L14.3789038,8.45003016 L12.6940715,11.8524799 L11.0072879,8.44880532 L7.04330841,7.86849487 L9.91752289,5.2598378 L9.21606597,1.29694225 Z" id="路径" stroke="#000000" stroke-width="1.2" fill-rule="nonzero" transform="translate(12.669702, 6.700131) rotate(-352.000000) translate(-12.669702, -6.700131) "></path>
            <polygon id="路径" fill="#000000" fill-rule="nonzero" transform="translate(17.647855, 14.478207) rotate(-630.000000) translate(-17.647855, -14.478207) " points="16.859009 13.674356 14.6379192 14.448564 16.859009 15.222772 17.6187654 17.5453959 18.3785218 15.222772 20.6577911 14.448564 18.3785218 13.674356 17.6187654 11.4110183"></polygon>
            <polygon id="路径备份-2" fill="#000000" points="19.5562418 10.132676 20.7553681 10.5175266 21.195788 11.7399933 21.5732907 10.5175266 22.7724171 10.132676 21.5732907 9.68368365 21.195788 8.46121698 20.7553681 9.68368365"></polygon>
            <path d="M4.60214491,6.87200787 L4.53238981,18.8269192 C4.52854538,19.485794 5.05955238,20.023034 5.71842715,20.0268784 C5.72074744,20.026892 5.72306778,20.0268988 5.72538811,20.0268988 C6.3892594,20.0268988 6.92851629,19.4907792 6.93238981,18.8269192 L7.00214491,6.87200787 L7.00214491,6.87200787 L5.76386041,6.20126202 L4.60214491,6.87200787 Z" id="路径-2" stroke="#000000" stroke-width="1.2" transform="translate(5.763767, 13.114080) rotate(-315.000000) translate(-5.763767, -13.114080) "></path>
        </g>
    </g>
</svg>