<?xml version="1.0" encoding="UTF-8"?>
<svg width="24px" height="24px" viewBox="0 0 24 24" version="1.1" xmlns="http://www.w3.org/2000/svg" xmlns:xlink="http://www.w3.org/1999/xlink">
    <title>icons_filled_beauty</title>
    <defs>
        <filter id="filter-1">
            <feColorMatrix in="SourceGraphic" type="matrix" values="0 0 0 0 1.000000 0 0 0 0 1.000000 0 0 0 0 1.000000 0 0 0 1.000000 0"></feColorMatrix>
        </filter>
    </defs>
    <g id="icons_filled_beauty" stroke="none" stroke-width="1" fill="none" fill-rule="evenodd" opacity="0.900000036">
        <g id="美颜icon备份" filter="url(#filter-1)">
            <g id="编组-3" fill="#000000" transform="translate(2.000000, 1.500000)">
                <path d="M10,0.5 C12.0273095,0.5 13.9137163,1.10327577 15.4894941,2.14010083 C15.356563,2.37793568 15.2264737,2.58088946 15.0993042,2.75 C14.8601201,3.06806801 14.5435512,3.3712365 14.1495975,3.65950548 C12.9400437,2.92362689 11.5194935,2.5 10,2.5 C5.581722,2.5 2,6.081722 2,10.5 C2,14.918278 5.581722,18.5 10,18.5 C14.418278,18.5 18,14.918278 18,10.5 C18,10.324766 17.9943659,10.150848 17.983269,9.97841706 C18.3658936,9.06778014 18.9941604,8.39734186 19.6589669,7.90547879 C19.8818859,8.7335019 20,9.60295743 20,10.5 C20,16.0228475 15.5228475,20.5 10,20.5 C4.4771525,20.5 0,16.0228475 0,10.5 C0,4.9771525 4.4771525,0.5 10,0.5 Z" id="形状结合" fill-rule="nonzero"></path>
                <g id="编组" transform="translate(5.000000, 1.300000)">
                    <path d="M8.5,6 C9.32842712,6 10,6.67157288 10,7.5 C10,8.32842712 9.32842712,9 8.5,9 C7.67157288,9 7,8.32842712 7,7.5 C7,6.67157288 7.67157288,6 8.5,6 L8.5,6 Z" id="路径备份-4"></path>
                    <path d="M1.5,6 C2.32842712,6 3,6.67157288 3,7.5 C3,8.32842712 2.32842712,9 1.5,9 C0.671572875,9 0,8.32842712 0,7.5 C0,6.67157288 0.671572875,6 1.5,6 L1.5,6 Z" id="路径备份-5"></path>
                    <path d="M5,14 C6.49924124,14 7.74161997,12.8700123 7.96442255,11.4332077 C7.79492187,11.4332077 2.18249512,11.4332077 2.03104781,11.4332077 C2.24099563,12.8847871 3.49026185,14 5,14 Z" id="椭圆形备份"></path>
                    <path d="M12.6250488,0.255053711 C13.049094,1.30218641 13.449094,2.03135308 13.8250488,2.44255371 C14.2010037,2.85375434 14.8676704,3.29125434 15.8250488,3.75505371 C14.8442329,4.24448785 14.1775662,4.68198785 13.8250488,5.06755371 C13.4725315,5.45311957 13.0725315,6.18228624 12.6250488,7.25505371 C12.1717719,6.17594876 11.7717719,5.44678209 11.4250488,5.06755371 C11.0783257,4.68832533 10.4116591,4.25082533 9.42504883,3.75505371 C10.4056912,3.26580946 11.0723579,2.82830946 11.4250488,2.44255371 C11.7777398,2.05679796 12.1777398,1.32763129 12.6250488,0.255053711 Z" id="Polygon备份-2" transform="translate(12.625049, 3.755054) rotate(-360.000000) translate(-12.625049, -3.755054) "></path>
                </g>
            </g>
        </g>
    </g>
</svg>