<?xml version="1.0" encoding="UTF-8"?>
<svg width="24px" height="24px" viewBox="0 0 24 24" version="1.1" xmlns="http://www.w3.org/2000/svg" xmlns:xlink="http://www.w3.org/1999/xlink">
    <title>icons_outlined_landscape</title>
    <g id="icons_outlined_landscape" stroke="none" stroke-width="1" fill="none" fill-rule="evenodd">
        <g id="编组">
            <rect id="矩形" x="0" y="0" width="24" height="24"></rect>
            <path d="M20,11.5 C20.5522847,11.5 21,11.9477153 21,12.5 L21,19.5 C21,20.0522847 20.5522847,20.5 20,20.5 L7,20.5 C6.44771525,20.5 6,20.0522847 6,19.5 L6,12.5 C6,11.9477153 6.44771525,11.5 7,11.5 L20,11.5 Z M19.8,12.7 L7.2,12.7 L7.2,19.3 L19.8,19.3 L19.8,12.7 Z M11,3.5 C11.5522847,3.5 12,3.94771525 12,4.5 L12,10 L10.8,10 L10.8,4.7 L4.2,4.7 L4.2,17.749 L3,17.75 L3,4.5 C3,3.94771525 3.44771525,3.5 4,3.5 L11,3.5 Z M14.5,3.75 C16.7632846,3.75 18.6133615,5.51915212 18.7427688,7.75 L20.25,7.75 L18,9.75 L15.75,7.75 L17.238819,7.75033034 C17.1176135,6.40351114 16.0253878,5.33661375 14.6675223,5.25501879 L14.5,5.25 L14.5,3.75 Z" id="形状" fill-opacity="0.9" fill="#000000"></path>
        </g>
    </g>
</svg>