<?xml version="1.0" encoding="UTF-8"?>
<svg width="24px" height="24px" viewBox="0 0 24 24" version="1.1" xmlns="http://www.w3.org/2000/svg" xmlns:xlink="http://www.w3.org/1999/xlink">
    <!-- Generator: Sketch 59.1 (86144) - https://sketch.com -->
    <title>Icons_outlined_separation</title>
    <desc>Created with Sketch.</desc>
    <g id="Icons_outlined_separation" stroke="none" stroke-width="1" fill="none" fill-rule="evenodd" fill-opacity="0.9">
        <g id="Group-11" transform="translate(1.000000, 4.000000)" fill="#000000">
            <path d="M1.15200007,14.24 L1.15200007,15.36 L-1.02541426e-15,15.36 L-1.02541426e-15,14.24 L1.15200007,14.24 Z M3.45600021,14.24 L3.45600021,15.36 L2.30400014,15.36 L2.30400014,14.24 L3.45600021,14.24 Z M5.76000035,14.24 L5.76000035,15.36 L4.60800028,15.36 L4.60800028,14.24 L5.76000035,14.24 Z M8.06400049,14.24 L8.06400049,15.36 L6.91200042,15.36 L6.91200042,14.24 L8.06400049,14.24 Z M10.3680006,14.24 L10.3680006,15.36 L9.21600056,15.36 L9.21600056,14.24 L10.3680006,14.24 Z M12.6720008,14.24 L12.6720008,15.36 L11.5200007,15.36 L11.5200007,14.24 L12.6720008,14.24 Z M14.9760009,14.24 L14.9760009,15.36 L13.8240008,15.36 L13.8240008,14.24 L14.9760009,14.24 Z M17.280001,14.24 L17.280001,15.36 L16.128001,15.36 L16.128001,14.24 L17.280001,14.24 Z M19.5840012,14.24 L19.5840012,15.36 L18.4320011,15.36 L18.4320011,14.24 L19.5840012,14.24 Z M21.8880013,14.24 L21.8880013,15.36 L20.7360013,15.36 L20.7360013,14.24 L21.8880013,14.24 Z M21.6,7.24 L21.6,8.36 L9.63272678e-15,8.36 L9.63272678e-15,7.24 L21.6,7.24 Z M1.15200007,0.24 L1.15200007,1.36 L-1.02541426e-15,1.36 L-1.02541426e-15,0.24 L1.15200007,0.24 Z M3.45600021,0.24 L3.45600021,1.36 L2.30400014,1.36 L2.30400014,0.24 L3.45600021,0.24 Z M5.76000035,0.24 L5.76000035,1.36 L4.60800028,1.36 L4.60800028,0.24 L5.76000035,0.24 Z M8.06400049,0.24 L8.06400049,1.36 L6.91200042,1.36 L6.91200042,0.24 L8.06400049,0.24 Z M10.3680006,0.24 L10.3680006,1.36 L9.21600056,1.36 L9.21600056,0.24 L10.3680006,0.24 Z M12.6720008,0.24 L12.6720008,1.36 L11.5200007,1.36 L11.5200007,0.24 L12.6720008,0.24 Z M14.9760009,0.24 L14.9760009,1.36 L13.8240008,1.36 L13.8240008,0.24 L14.9760009,0.24 Z M17.280001,0.24 L17.280001,1.36 L16.128001,1.36 L16.128001,0.24 L17.280001,0.24 Z M19.5840012,0.24 L19.5840012,1.36 L18.4320011,1.36 L18.4320011,0.24 L19.5840012,0.24 Z M21.8880013,0.24 L21.8880013,1.36 L20.7360013,1.36 L20.7360013,0.24 L21.8880013,0.24 Z" id="形状结合"></path>
        </g>
    </g>
</svg>