<?xml version="1.0" encoding="UTF-8"?>
<svg width="375px" height="68px" viewBox="0 0 375 68" version="1.1" xmlns="http://www.w3.org/2000/svg" xmlns:xlink="http://www.w3.org/1999/xlink">
    <!-- Generator: Sketch 61 (89581) - https://sketch.com -->
    <title>icons_filled_detail_skin_hb_mask_dark</title>
    <desc>Created with Sketch.</desc>
    <defs>
        <linearGradient x1="50%" y1="0%" x2="50%" y2="100%" id="linearGradient-1">
            <stop stop-color="#232323" offset="0%"></stop>
            <stop stop-color="#232323" offset="88.9227973%"></stop>
            <stop stop-color="#232323" stop-opacity="0" offset="100%"></stop>
        </linearGradient>
    </defs>
    <g id="定稿" stroke="none" stroke-width="1" fill="none" fill-rule="evenodd">
        <g id="Artboard" transform="translate(0.000000, -261.000000)" fill-rule="nonzero">
            <g id="icons_filled_detail_skin_hb_mask_dark" transform="translate(0.000000, 261.000000)">
                <path d="M0.00310248383,8 C0.00310248383,12.4636214 3.20571967,17.7728681 7.1563482,19.8538463 C7.1563482,19.8538463 16.2630166,24.8171041 25.2477033,28.7223144 C68.9488916,47.7171153 125.602826,59.1810544 187.503102,59.1810544 C249.483076,59.1810544 306.203192,47.6875756 349.927236,28.6489075 C358.84884,24.7641931 367.84759,19.8567884 367.84759,19.8567884 C371.805693,17.7845272 375.003102,12.4657205 375.003102,8 L375.003102,68 L0.00310248383,68 L0.00310248383,8 Z" id="Path" fill="url(#linearGradient-1)"></path>
                <path d="M0,8 C0,12.0364011 3.30246934,17.110766 7.13908505,19.2748966 L8.47074054,19.9921195 L10.0584821,20.8300145 C10.481094,21.0511587 10.9222562,21.2805946 11.3803773,21.5172845 C14.4345271,23.0952213 17.6157718,24.6731358 20.7621009,26.1454695 C21.9517195,26.7021549 23.1154473,27.23373 24.2481735,27.7368758 L25.4470159,28.2637574 C70.3459354,47.7791544 127.272824,58.6810544 187.503102,58.6810544 C247.207259,58.6810544 303.664551,47.9686493 348.376326,28.7747091 L349.95442,28.0915152 C351.352758,27.4800271 352.801793,26.8224567 354.291441,26.1253613 C357.426925,24.6580817 360.596527,23.0855815 363.639019,21.5130592 L364.955834,20.8281482 L367.615678,19.4138252 C371.468606,17.396628 374.854677,12.3594365 375.003102,8.27110608 L375.003102,8 C375.003102,10 375.003102,11.4848088 375.003102,12.4544264 C375.003102,12.4624316 375.003102,13.2893814 375.003102,13.2973847 C373.664857,16.431054 371.142658,19.4093697 368.348598,20.9714123 L367.004468,21.6946397 C366.263706,22.0892863 365.440462,22.5225234 364.547373,22.9860904 L364.095067,23.2203631 C361.041682,24.7985158 357.860642,26.3766905 354.712186,27.8500408 C353.51455,28.410486 352.34273,28.9456485 351.201803,29.4521947 L350.123746,29.9262799 C305.069639,49.5440945 247.939646,60.5 187.5,60.5 C127.741127,60.5 71.216846,49.7896445 26.3997886,30.5843922 L24.687851,29.8439325 C23.2836798,29.2295103 21.8295089,28.5694378 20.3351566,27.8701513 C17.7024461,26.638167 15.0465511,25.3331378 12.4606558,24.0159473 L10.9182641,23.2246608 C10.1520115,22.8287738 9.4329466,22.453062 8.7684181,22.1023222 L6.92022345,21.1151725 C4.01455739,19.5846242 1.37619495,16.7312074 0,13.5 C0,13.4921773 0,13.2673652 0,13.2595407 C0,11.9658106 0,10.2126304 0,8 Z" id="Path" fill="#BAA260"></path>
            </g>
        </g>
    </g>
</svg>