<?xml version="1.0" encoding="UTF-8"?>
<svg width="24px" height="24px" viewBox="0 0 24 24" version="1.1" xmlns="http://www.w3.org/2000/svg" xmlns:xlink="http://www.w3.org/1999/xlink">
    <title>icon_filled_switch</title>
    <g id="icon_filled_switch" stroke="none" stroke-width="1" fill="none" fill-rule="evenodd">
        <g id="编组">
            <rect id="矩形" x="0" y="0" width="24" height="24"></rect>
            <path d="M5,11 L5,16 L15.414,15.9993593 L13.5857864,14.1715729 L15,12.7573593 L18.5355339,16.2928932 C18.9260582,16.6834175 18.9260582,17.3165825 18.5355339,17.7071068 L15,21.2426407 L13.5857864,19.8284271 L15.413,17.9993593 L5,18 C3.9456382,18 3.08183488,17.1841222 3.00548574,16.1492623 L3,16 L3,11 L5,11 Z M9,2.75735931 L10.4142136,4.17157288 L8.585,5.99935931 L19,6 C20.0543618,6 20.9181651,6.81587779 20.9945143,7.85073766 L21,8 L21,13 L19,13 L19,8 L8.586,7.99935931 L10.4142136,9.82842712 L9,11.2426407 L5.46446609,7.70710678 C5.0739418,7.31658249 5.0739418,6.68341751 5.46446609,6.29289322 L5.46446609,6.29289322 L9,2.75735931 Z" id="形状结合" fill="#000000" fill-rule="nonzero"></path>
        </g>
    </g>
</svg>