<?xml version="1.0" encoding="UTF-8"?>
<svg width="32px" height="32px" viewBox="0 0 32 32" version="1.1" xmlns="http://www.w3.org/2000/svg" xmlns:xlink="http://www.w3.org/1999/xlink">
    <title>state@3x</title>
    <defs>
        <filter id="filter-1">
            <feColorMatrix in="SourceGraphic" type="matrix" values="0 0 0 0 0.000000 0 0 0 0 0.000000 0 0 0 0 0.000000 0 0 0 0.900000 0"></feColorMatrix>
        </filter>
    </defs>
    <g id="state" stroke="none" stroke-width="1" fill="none" fill-rule="evenodd">
        <g filter="url(#filter-1)">
            <g>
                <rect id="矩形" x="0" y="0" width="32" height="32"></rect>
                <path d="M4.45299462,9.33333333 C8.07029824,3.06797967 16.0046841,0.849053338 22.3294154,4.26461872 L22.6666667,4.45299462 L22.796844,4.53851055 C23.3326112,4.93677107 23.4965911,5.68219 23.1547005,6.27436182 C22.8391093,6.82098196 22.1949158,7.05960132 21.6157027,6.88475978 L21.472481,6.83237459 L21.3333333,6.76239569 C16.2315453,3.81687703 9.70791436,5.56487868 6.76239569,10.6666667 C4.81835337,14.0338467 4.91880851,18.0203816 6.67859293,21.1888042 L6.76239569,21.3333333 C6.96756128,21.6886905 7.19008645,22.0277765 7.42828156,22.3501385 L7.67163742,22.666909 L7.90085347,22.9442274 L7.90085347,22.9442274 L8.23053292,23.3125316 C8.82752232,23.9463336 9.51136584,24.5156198 10.277036,25.0016273 L10.6666667,25.2376043 L10.8111958,25.3214071 C13.9796184,27.0811915 17.9661533,27.1816466 21.3333333,25.2376043 C26.4351213,22.2920856 28.183123,15.7684547 25.2376043,10.6666667 L25.1676254,10.527519 C24.9027677,9.91473172 25.1334664,9.18719002 25.7256382,8.84529946 C26.31781,8.5034089 27.0632289,8.66738884 27.4614895,9.20315601 L27.5470054,9.33333333 C31.2289037,15.7105683 29.0439016,23.8651071 22.6666667,27.5470054 C17.4886336,30.5365441 11.1388736,29.6581983 6.96298116,25.8084173 L6.51342127,25.3738605 L6.51342127,25.3738605 L6.43480286,25.2935162 C2.37978407,21.1242526 1.40163244,14.6184477 4.45299462,9.33333333 Z" id="形状结合" fill-opacity="0.9" fill="#000000"></path>
            </g>
        </g>
    </g>
</svg>