<?xml version="1.0" encoding="UTF-8"?>
<svg width="72px" height="72px" viewBox="0 0 72 72" version="1.1" xmlns="http://www.w3.org/2000/svg" xmlns:xlink="http://www.w3.org/1999/xlink">
    <!-- Generator: Sketch 61.2 (89653) - https://sketch.com -->
    <title>icons_outlined_like圈外</title>
    <desc>Created with Sketch.</desc>
    <g id="icons_outlined_like圈外" stroke="none" stroke-width="1" fill="none" fill-rule="evenodd" fill-opacity="0.9">
        <g id="like" fill="#000000">
            <path d="M56.8908704,34.9352858 C61.2232214,30.4702556 61.1726484,23.3446116 56.7670195,18.9389827 C52.3150426,14.4870058 45.0969618,14.4870058 40.6449849,18.9389827 C40.0681904,19.5157772 39.3365735,20.2214992 38.4467959,21.0598356 L35.9780802,23.385826 L33.5093644,21.0598356 C32.6195868,20.2214992 31.8879699,19.5157772 31.3111754,18.9389827 C26.8591985,14.4870058 19.6411177,14.4870058 15.1891408,18.9389827 C10.783566,23.3445575 10.7327041,30.4706111 15.0259755,34.897852 L35.9779527,55.8500468 L56.8908704,34.9352858 Z M12.6435564,16.3933983 C18.5014208,10.5355339 27.9988954,10.5355339 33.8567598,16.3933983 C34.4051799,16.9418184 35.1122867,17.6238979 35.9780802,18.4396367 C36.8438736,17.6238979 37.5509804,16.9418184 38.0994005,16.3933983 C43.9572649,10.5355339 53.4547396,10.5355339 59.3126039,16.3933983 C65.1159785,22.1967729 65.1699615,31.5723615 59.4745527,37.4421935 L38.0994005,58.8198051 C36.9278889,59.9914393 35.028394,59.9915387 33.8567598,58.8200272 L12.4803779,37.4434232 C6.78619887,31.5723615 6.84018178,22.1967729 12.6435564,16.3933983 Z" id="Combined-Shape"></path>
        </g>
    </g>
</svg>