<?xml version="1.0" encoding="UTF-8"?>
<svg width="24px" height="24px" viewBox="0 0 24 24" version="1.1" xmlns="http://www.w3.org/2000/svg" xmlns:xlink="http://www.w3.org/1999/xlink">
    <!-- Generator: Sketch 59.1 (86144) - https://sketch.com -->
    <title>Icons_outlined_todo</title>
    <desc>Created with Sketch.</desc>
    <g id="Icons_outlined_todo" stroke="none" stroke-width="1" fill="none" fill-rule="evenodd" fill-opacity="0.9">
        <path d="M17.46,5 C17.573,5 17.684,5.013 17.789,5.038 L16.7,6.2 L5.94,6.2 C5.807,6.2 5.7,6.307 5.7,6.44 L5.7,17.96 C5.7,18.092 5.807,18.2 5.94,18.2 L17.46,18.2 C17.593,18.2 17.7,18.092 17.7,17.96 L17.7,11.858 L18.9,10.578 L18.9,17.96 C18.9,18.755 18.255,19.4 17.46,19.4 L5.94,19.4 C5.145,19.4 4.5,18.755 4.5,17.96 L4.5,6.44 C4.5,5.644 5.145,5 5.94,5 L17.46,5 Z M19.4727834,5.31459909 L20.3480915,6.13547403 L12.4378646,14.5702375 C12.1965683,14.8275344 11.7864479,14.8221678 11.5519667,14.5586452 L11.5519667,14.5586452 L7.868911,10.4194278 L8.76539862,9.62173744 L12.0118503,13.2702755 L19.4727834,5.31459909 Z" id="形状结合" fill="#000000"></path>
    </g>
</svg>