<?xml version="1.0" encoding="UTF-8"?>
<svg width="24px" height="24px" viewBox="0 0 24 24" version="1.1" xmlns="http://www.w3.org/2000/svg" xmlns:xlink="http://www.w3.org/1999/xlink">
    <title>0.图标/线型/icons_filled_gift_effects_off</title>
    <g id="0.图标/线型/icons_filled_gift_effects_off" stroke="none" stroke-width="1" fill="none" fill-rule="evenodd">
        <g id="编组" fill="#000000" fill-rule="nonzero">
            <g>
                <path d="M8.16572017,13.1114214 L9.01372017,13.9604214 L3.97323453,18.9445482 C3.78180569,19.133769 3.74648115,19.4205141 3.86828611,19.6471772 L3.92133042,19.7290517 L3.97078802,19.78565 C4.18063643,19.9954984 4.50610795,20.0196964 4.742615,19.8576471 L4.82673536,19.7881472 L9.86272017,14.8084214 L10.7117202,15.6584214 L5.6702981,20.6416118 C5.0027035,21.301461 3.95019923,21.3351505 3.24120669,20.7427491 L3.11980449,20.6317085 C2.45878427,19.9629699 2.42592702,18.9131743 3.01857877,18.2111896 L3.12965701,18.0910688 L8.16572017,13.1114214 Z M12.8726531,2.66659352 L12.9418856,2.70676834 L15.9457506,4.8720251 L19.4261502,3.61967599 C19.5865827,3.5430338 19.7783429,3.61964595 19.9603993,3.74450654 C20.0768874,3.84773226 20.1451564,4.02237613 20.1093353,4.19018602 L20.0874476,4.26145799 L18.9414014,7.78618146 L21.2384228,10.7012083 C21.3643248,10.8706961 21.3859486,11.0721989 21.3165442,11.2112714 C21.2473245,11.3751772 21.1158408,11.4543446 20.9483696,11.4857109 L20.8744696,11.4963347 L17.1643985,11.5197613 L15.0851167,14.5628755 C14.9639073,14.6946545 14.7966556,14.8199028 14.600941,14.7923969 C14.4307186,14.7684737 14.3085968,14.6783473 14.2327503,14.5218533 L14.1986749,14.438075 L13.6417202,12.7624214 L11.5657202,14.8144214 L10.7167202,13.9644214 L13.073412,11.6360724 L12.8708259,10.9530072 L12.2307175,10.7817106 L9.86772017,13.1164214 L9.01972017,12.2674214 L10.9757202,10.3344214 L9.43171267,9.8824116 C9.23995246,9.80579943 9.10682313,9.68782718 9.08519937,9.4863244 C9.06662992,9.30750524 9.1226725,9.14142505 9.24445058,9.05135476 L9.30063992,9.01759133 L12.2614289,6.84572045 L12.1296174,3.14108975 C12.1083951,2.93672499 12.2335523,2.75588723 12.3939849,2.67924502 C12.5343634,2.61218309 12.7091791,2.58795569 12.8726531,2.66659352 Z M13.3783576,4.50059107 L13.4832508,7.43769551 L11.1633004,9.13870248 L13.9780983,9.96390377 L14.891703,12.7179286 L16.5282295,10.3237544 L19.3986025,10.3051872 L17.6018792,8.02510267 L18.5125456,5.2229115 L15.7570351,6.2152527 L13.3783576,4.50059107 Z" id="形状结合"></path>
                <polygon id="Path" points="1.99990475 5.24933568 2.84843292 4.40080751 19.576355 21.1287296 18.7278268 21.9772577"></polygon>
            </g>
        </g>
    </g>
</svg>