<?xml version="1.0" encoding="UTF-8"?>
<svg width="120px" height="120px" viewBox="0 0 120 120" version="1.1" xmlns="http://www.w3.org/2000/svg" xmlns:xlink="http://www.w3.org/1999/xlink">
    <!-- Generator: Sketch 64 (93537) - https://sketch.com -->
    <title>虚线icon备份</title>
    <desc>Created with Sketch.</desc>
    <g id="虚线icon备份" stroke="none" stroke-width="1" fill="none" fill-rule="evenodd">
        <path d="M112.3102,83.6946447 L112.3102,95.4827 C112.3102,99.8815582 108.74405,103.4487 104.3452,103.4487 L104.3452,103.4487 L102.941964,103.4487 L102.941964,97.4487 L104.3452,97.4487 C105.429968,97.4487 106.3102,96.5682233 106.3102,95.4827 L106.3102,95.4827 L106.3102,83.6946447 L112.3102,83.6946447 Z M96.7049637,97.4487 L96.7049637,103.4487 L75.9129639,103.4487 L75.9129639,97.4487 L96.7049637,97.4487 Z M69.6759639,97.4487 L69.6759639,103.4487 L48.8839641,103.4487 L48.8839641,97.4487 L69.6759639,97.4487 Z M42.6469641,97.4487 L42.6469641,103.4487 L21.8549643,103.4487 L21.8549643,97.4487 L42.6469641,97.4487 Z M13.0002,82.9441727 L13.0002,95.4827 C13.0002,96.5682233 13.8804318,97.4487 14.9652,97.4487 L14.9652,97.4487 L15.6179643,97.4487 L15.6179643,103.4487 L14.9652,103.4487 C10.5663496,103.4487 7.0002,99.8815582 7.0002,95.4827 L7.0002,95.4827 L7.0002,82.9441727 L13.0002,82.9441727 Z M112.3102,56.6656449 L112.3102,77.4576447 L106.3102,77.4576447 L106.3102,56.6656449 L112.3102,56.6656449 Z M13.0002,55.9151729 L13.0002,76.7071727 L7.0002,76.7071727 L7.0002,55.9151729 L13.0002,55.9151729 Z M104.3452,32.8967 C108.744054,32.8967 112.3102,36.4628458 112.3102,40.8617 L112.3102,40.8617 L112.3102,50.4286449 L106.3102,50.4286449 L106.3102,40.8617 C106.3102,39.7765542 105.430346,38.8967 104.3452,38.8967 L104.3452,38.8967 L100.7202,38.8967 L100.7202,32.8967 Z M19.340672,32.8967 L19.340672,38.8967 L14.9652,38.8967 C13.8800542,38.8967 13.0002,39.7765542 13.0002,40.8617 L13.0002,40.8617 L13.0002,49.6781729 L7.0002,49.6781729 L7.0002,40.8617 C7.0002,36.4628458 10.5663458,32.8967 14.9652,32.8967 L14.9652,32.8967 L19.340672,32.8967 Z M81.432197,25.9118686 L86.088,32.8963 L94.483,32.8969 L94.483,38.8969 L82.8773952,38.8969 L76.439803,29.2399314 L81.432197,25.9118686 Z M37.878403,25.9116686 L42.870797,29.2397314 L36.4332048,38.8967 L24.8276,38.8967 L24.8276,32.8967 L33.222,32.8963 L37.878403,25.9116686 Z M73.2228,18.0007 C75.0562912,18.0007 76.7696717,18.9164723 77.7850598,20.4417627 L77.7850598,20.4417627 L78.9422631,22.1778138 L73.9497435,25.5056883 L72.9462,24.0007 L62.0821258,24.0007 L62.0821258,18.0007 Z M57.4111258,18.0007 L57.4111258,24.0007 L46.3632,24.0007 L45.4619509,25.3538006 L40.4696491,22.0255994 L41.5245377,20.4432678 C42.5409283,18.9164723 44.2543088,18.0007 46.0878,18.0007 L46.0878,18.0007 L57.4111258,18.0007 Z" id="形状结合" fill="#000000" fill-rule="nonzero"></path>
        <path d="M82.0721219,57.6763018 L76.4527954,59.7794351 C74.0076781,53.2463675 67.7473538,48.827 60.6547,48.827 L60.6547,42.827 C70.2700765,42.827 78.7567523,48.8180217 82.0721219,57.6763018 Z M69.75227,86.6696273 L67.3628098,81.1659486 C73.4792345,78.5104605 77.5166984,72.469181 77.5166919,65.6732153 C77.5164145,65.3874033 77.5090537,65.1025709 77.4946604,64.8188713 L83.4869533,64.514856 C83.5063849,64.8978618 83.5163152,65.2821226 83.5166904,65.6703009 C83.5166904,74.8794883 78.0426874,83.0702853 69.75227,86.6696273 Z M40.1668768,75.8435528 L45.5410532,73.1755522 C48.3714106,78.8767653 54.1864788,82.5519945 60.68669,82.5519722 C61.2591359,82.5509462 61.8275694,82.5214925 62.3907247,82.4640429 L62.9996465,88.4330641 C62.2378258,88.5107803 61.469755,88.5505784 60.6920795,88.5519674 C51.8873549,88.5519674 44.0017407,83.5681519 40.1668768,75.8435528 Z M49.4690153,45.7469483 L52.4085122,50.9775657 C47.1231116,53.9478496 43.7927116,59.5299757 43.7927577,65.732852 C43.7949831,66.5937505 43.8614923,67.4454073 43.9907344,68.283393 L38.0608462,69.1979563 C37.8857607,68.0627286 37.795782,66.9105428 37.7927677,65.7406341 C37.7927677,57.3416603 42.3099802,49.7701754 49.4690153,45.7469483 Z M60.5833724,42.8271149 L60.6022232,48.8270852 C59.4514029,48.8307009 58.3173793,48.9491978 57.2110243,49.1786575 L55.9925464,43.3036841 C57.4929892,42.9924901 59.028903,42.8319987 60.5833724,42.8271149 Z" id="Stroke-25" fill="#000000" fill-rule="nonzero" transform="translate(60.654729, 65.689484) rotate(17.000000) translate(-60.654729, -65.689484) "></path>
    </g>
</svg>