<?xml version="1.0" encoding="UTF-8"?>
<svg width="24px" height="24px" viewBox="0 0 24 24" version="1.1" xmlns="http://www.w3.org/2000/svg" xmlns:xlink="http://www.w3.org/1999/xlink">
    <!-- Generator: Sketch 59.1 (86144) - https://sketch.com -->
    <title>Icons_outlined_item</title>
    <desc>Created with Sketch.</desc>
    <g id="Icons_outlined_item" stroke="none" stroke-width="1" fill="none" fill-rule="evenodd" fill-opacity="0.9">
        <g id="Group" transform="translate(1.000000, 3.000000)" fill="#000000">
            <path d="M1.15200002,14.6666667 C1.78823206,14.6666667 2.30400003,15.1919859 2.30400003,15.84 C2.30400003,16.4880141 1.78823206,17.0133334 1.15200002,17.0133334 C0.515767976,17.0133334 -7.10542736e-15,16.4880141 -7.10542736e-15,15.84 C-7.10542736e-15,15.1919859 0.515767976,14.6666667 1.15200002,14.6666667 Z M21.6,15.5333333 L21.6,16.7333333 L5.76,16.7333333 L5.76,15.5333333 L21.6,15.5333333 Z M1.15200002,7.33333333 C1.78823206,7.33333333 2.30400003,7.85865257 2.30400003,8.50666668 C2.30400003,9.1546808 1.78823206,9.68000003 1.15200002,9.68000003 C0.515767976,9.68000003 -7.10542736e-15,9.1546808 -7.10542736e-15,8.50666668 C-7.10542736e-15,7.85865257 0.515767976,7.33333333 1.15200002,7.33333333 Z M21.6,8.2 L21.6,9.4 L5.76,9.4 L5.76,8.2 L21.6,8.2 Z M1.15200002,0 C1.78823206,0 2.30400003,0.514872527 2.30400003,1.14999998 C2.30400003,1.78512743 1.78823206,2.29999995 1.15200002,2.29999995 C0.515767976,2.29999995 -7.10542736e-15,1.78512743 -7.10542736e-15,1.14999998 C-7.10542736e-15,0.514872527 0.515767976,0 1.15200002,0 Z M21.6,0.866666667 L21.6,2.06666667 L5.76,2.06666667 L5.76,0.866666667 L21.6,0.866666667 Z" id="形状结合"></path>
        </g>
    </g>
</svg>