<?xml version="1.0" encoding="UTF-8"?>
<svg width="32px" height="32px" viewBox="0 0 32 32" version="1.1" xmlns="http://www.w3.org/2000/svg" xmlns:xlink="http://www.w3.org/1999/xlink">
    <title>画板</title>
    <g id="画板" stroke="none" stroke-width="1" fill="none" fill-rule="evenodd">
        <g id="Group"></g>
        <path d="M7.51335279,14 L7.51335279,16 C7.51335279,20.6391919 11.3055467,24.4 15.983455,24.4 C17.8001988,24.4 19.4833516,23.8327622 20.8626608,22.8671298 L22.0172272,24.0128495 C20.5367302,25.111075 18.7417414,25.8152154 16.7903954,25.9684453 L16.7901309,30 L15.176778,30 L15.1765145,25.9684453 C9.98486946,25.5607702 5.9,21.2534732 5.9,16 L5.9,14 L7.51335279,14 Z M15.983455,2 C19.324818,2 22.0335279,4.6862915 22.0335279,8 L22.0335279,16 C22.0335279,17.0434879 21.7649262,18.0247598 21.2925502,18.8795247 L23.0537634,20.6271297 C23.9384588,19.3002631 24.4535571,17.7097875 24.4535571,16 L24.4535571,14 L26.0669099,14 L26.0669099,16 C26.0669099,18.1524405 25.3811889,20.1460477 24.2145763,21.7776877 L28.6,26.1264227 L27.3830171,27.3333333 L27.5916545,27.1264227 L3.6,3.33333333 L4.6083455,2.33333333 L9.94488736,7.62691993 C10.1391237,4.48699009 12.7684317,2 15.983455,2 Z M9.933,12.027 L11.546,13.627 L11.5467348,16 C11.5467348,18.4300529 13.5331221,20.4 15.983455,20.4 C16.6805847,20.4 17.3401615,20.2405474 17.9271258,19.9564116 L19.1150117,21.1347459 C18.2014834,21.6838766 17.1296945,22 15.983455,22 C12.6420919,22 9.93338198,19.3137085 9.93338198,16 L9.933,12.027 Z M15.983455,3.6 C13.5331221,3.6 11.5467348,5.5699471 11.5467348,8 L11.5463626,9.214 L20.0846062,17.6816531 C20.3008468,17.1635624 20.4201751,16.5956012 20.4201751,16 L20.4201751,8 C20.4201751,5.5699471 18.4337878,3.6 15.983455,3.6 Z" id="形状结合" fill="#000000"></path>
    </g>
</svg>