<?xml version="1.0" encoding="UTF-8"?>
<svg width="24px" height="24px" viewBox="0 0 24 24" version="1.1" xmlns="http://www.w3.org/2000/svg" xmlns:xlink="http://www.w3.org/1999/xlink">
    <title>icons_filled_channels_Enterprisewechat</title>
    <g id="icons_filled_channels_Enterprisewechat" stroke="none" stroke-width="1" fill="none" fill-rule="evenodd">
        <g id="图形" transform="translate(1.000000, 2.500000)" fill="#000000">
            <path d="M14.6147198,15.0853238 C14.6213634,15.0934921 14.6284426,15.1014426 14.6360663,15.1090663 C14.6492446,15.1222446 14.663403,15.1336802 14.6782149,15.1439178 C14.7076208,15.1715812 14.7369178,15.1996802 14.7656703,15.2284327 C15.3312446,15.7940069 15.6867297,16.4900564 15.8325614,17.2196505 C15.8350663,17.2607099 15.8395317,17.3016604 15.8460663,17.3423931 C15.8532545,17.3872644 15.8628386,17.4317 15.8748188,17.4757 C15.930799,17.6808881 16.0389475,17.8746406 16.2000267,18.0358287 C16.6936109,18.529304 17.4937792,18.529304 17.9873634,18.0358287 C18.4808386,17.5422446 18.4808386,16.7420762 17.9873634,16.2484921 C17.8133238,16.0745614 17.6012743,15.9621653 17.3780069,15.9108683 C17.3529574,15.905096 17.327799,15.900195 17.3026406,15.8959475 C17.2771554,15.8917 17.2517792,15.8881059 17.2261851,15.8854921 C16.478403,15.7460861 15.7635119,15.3874426 15.1850861,14.8090168 C15.1433733,14.767304 15.1029673,14.7247198 15.0635416,14.6815911 L15.0633238,14.6817 C14.9453733,14.5637495 14.7540168,14.5637495 14.6360663,14.6817 C14.5256307,14.7921356 14.5185515,14.9666109 14.6147198,15.0853238" id="Fill-29"></path>
            <path d="M18.6106168,16.0563188 C18.6187851,16.0496752 18.6267356,16.042596 18.6343594,16.0349723 C18.6475376,16.0217941 18.6589733,16.0076356 18.6692109,15.9928238 C18.6968743,15.9634178 18.7249733,15.9341208 18.7537257,15.9053683 C19.3193,15.3397941 20.0153495,14.9843089 20.7449436,14.8384772 C20.786003,14.8359723 20.8269535,14.8315069 20.8676861,14.8249723 C20.9125574,14.8177842 20.9569931,14.8082 21.0009931,14.7962198 C21.2061812,14.7402396 21.3999337,14.6320911 21.5611218,14.4710119 C22.054597,13.9774277 22.054597,13.1772594 21.5611218,12.6836752 C21.0675376,12.1902 20.2673693,12.1902 19.7737851,12.6836752 C19.5998545,12.8577149 19.4874584,13.0697644 19.4361614,13.2930317 C19.4303891,13.3180812 19.4254881,13.3432396 19.4212406,13.368398 C19.4169931,13.3938832 19.413399,13.4192594 19.4107851,13.4448535 C19.2713792,14.1926356 18.9127356,14.9075267 18.3343099,15.4859525 C18.292597,15.5276653 18.2500129,15.5680713 18.2068842,15.607497 L18.2069931,15.6077149 C18.0890426,15.7256653 18.0890426,15.9170218 18.2069931,16.0349723 C18.3174287,16.1454079 18.491904,16.1524871 18.6106168,16.0563188" id="Fill-30"></path>
            <path d="M19.5816119,12.0604218 C19.5749683,12.0522535 19.5678891,12.044303 19.5602653,12.0366792 C19.5470871,12.023501 19.5329287,12.0120653 19.5181168,12.0018277 C19.4887109,11.9741644 19.4594139,11.9460653 19.4306614,11.9173129 C18.8650871,11.3517386 18.509602,10.6556891 18.3637703,9.92609505 C18.3612653,9.88503564 18.3568,9.84408515 18.3502653,9.80335248 C18.3430772,9.75848119 18.3334931,9.71404554 18.3215129,9.67004554 C18.2655327,9.46485743 18.1573842,9.27110495 17.996305,9.10991683 C17.5027208,8.61644158 16.7025525,8.61644158 16.2089683,9.10991683 C15.7154931,9.60350099 15.7154931,10.4036693 16.2089683,10.8972535 C16.3830079,11.0711842 16.5950574,11.1835802 16.8183248,11.2348772 C16.8433743,11.2406495 16.8685327,11.2455505 16.8936911,11.249798 C16.9191762,11.2540455 16.9445525,11.2576396 16.9701465,11.2602535 C17.7179287,11.3996594 18.4328198,11.758303 19.0112455,12.3367287 C19.0529584,12.3784416 19.0933644,12.4210257 19.1327901,12.4641545 L19.1330079,12.4640455 C19.2509584,12.581996 19.4423149,12.581996 19.5602653,12.4640455 C19.670701,12.3536099 19.6777802,12.1791347 19.5816119,12.0604218" id="Fill-31"></path>
            <path d="M15.585704,11.0894267 C15.5775356,11.0960703 15.5695851,11.1031495 15.5619614,11.1107733 C15.5487832,11.1239515 15.5373475,11.1381099 15.5271099,11.1529218 C15.4994465,11.1823277 15.4713475,11.2116248 15.442595,11.2403772 C14.8770208,11.8059515 14.1809713,12.1614366 13.4513772,12.3072683 C13.4103178,12.3097733 13.3693673,12.3142386 13.3286347,12.3207733 C13.2837634,12.3279614 13.2393277,12.3375455 13.1953277,12.3495257 C12.9901396,12.4055059 12.7963871,12.5136545 12.635199,12.6747337 C12.1417238,13.1683178 12.1417238,13.9684861 12.635199,14.4620703 C13.1287832,14.9555455 13.9289515,14.9555455 14.4225356,14.4620703 C14.5964663,14.2880307 14.7088624,14.0759812 14.7601594,13.8527139 C14.7659317,13.8276644 14.7708327,13.8025059 14.7750802,13.7773475 C14.7793277,13.7518624 14.7829218,13.7264861 14.7855356,13.7008921 C14.9249416,12.9531099 15.2835851,12.2382188 15.8620109,11.6597931 C15.9037238,11.6180802 15.9463079,11.5776743 15.9894366,11.5382485 L15.9893277,11.5380307 C16.1072782,11.4200802 16.1072782,11.2287238 15.9893277,11.1107733 C15.8788921,11.0003376 15.7044168,10.9932584 15.585704,11.0894267" id="Fill-32"></path>
            <path d="M17.464896,4.91428812 C17.1134406,4.19199109 16.6410941,3.52153564 16.0611436,2.92143663 C14.5956386,1.40572376 12.5438663,0.429446535 10.2839653,0.172525743 C9.87827228,0.126456436 9.47617327,0.103149505 9.08877723,0.103149505 C8.71956931,0.103149505 8.33456931,0.12460495 7.9444505,0.167080198 C5.67442079,0.413872277 3.61132178,1.38503069 2.13503465,2.90172376 C1.55236139,3.50040693 1.07761881,4.16933762 0.723658416,4.88967426 C0.243470297,5.86725842 5.44554455e-05,6.90496139 5.44554455e-05,7.97392178 C5.44554455e-05,9.35022871 0.418816832,10.7072584 1.21114356,11.8985257 C1.65920297,12.5722485 2.42539109,13.4429911 3.08125248,13.9765455 L3.08125248,13.9765455 L2.71803465,15.4789713 L2.61337129,15.9020901 C2.59496535,15.9436941 2.58069802,15.9872584 2.57067822,16.0326743 C2.5644703,16.0603376 2.56261881,16.0894168 2.55989604,16.1182782 C2.55782673,16.1401693 2.55325248,16.161298 2.55325248,16.1838426 C2.55325248,16.5701495 2.86637129,16.8832683 3.25278713,16.8832683 C3.37901485,16.8832683 3.49587624,16.8472188 3.59814356,16.7887337 C3.60130198,16.7868822 3.60478713,16.7852485 3.60783663,16.783397 C3.62286634,16.7745752 3.63811386,16.7667337 3.65238119,16.7569317 L6.24663861,15.4547931 C6.80502475,15.615001 7.35905446,15.7174861 7.94325248,15.7817436 C8.32291584,15.8235653 8.70835149,15.8446941 9.08877723,15.8446941 C9.47671782,15.8446941 9.87881683,15.8212782 10.2839653,15.7752089 C11.0806485,15.684704 11.8469455,15.5010802 12.5743614,15.2399119 C12.4957277,15.2138822 12.4185099,15.1797931 12.343797,15.1369911 C11.8987871,14.8824663 11.6683317,14.3982485 11.7140743,13.9190406 C11.1942426,14.0841495 10.6514307,14.2025356 10.0902129,14.2662485 C9.74975743,14.3050208 9.41267822,14.3246248 9.08877723,14.3246248 C8.77043069,14.3246248 8.44783663,14.3068723 8.13003465,14.2719119 C8.06370792,14.2646149 7.99770792,14.2544861 7.93159901,14.2456644 C7.49497525,14.1875059 7.06336139,14.0985257 6.6464505,13.9763277 C6.5615,13.9492089 6.4715396,13.9354861 6.37929208,13.9354861 C6.2355297,13.9354861 6.09601485,13.973496 5.9545396,14.046902 C5.93624257,14.0563772 5.91805446,14.0642188 5.89964851,14.075001 L4.23505446,15.0559614 L4.23331188,15.0569416 C4.19878713,15.0770901 4.17929208,15.084605 4.16143069,15.084605 C4.10294554,15.084605 4.0554604,15.0351594 4.0554604,14.9743871 L4.11699505,14.7257436 C4.13420297,14.6601792 4.1584901,14.5678228 4.18789604,14.4555356 C4.26064851,14.1784663 4.36008416,13.7994564 4.43392574,13.5181396 C4.44993564,13.4606347 4.46627228,13.3915851 4.46627228,13.3140406 C4.46627228,13.0998129 4.36378713,12.8973475 4.19301485,12.7729713 C4.10610396,12.7087139 4.01930198,12.641298 3.92803465,12.5670208 C3.78830198,12.4533178 3.65466832,12.3348228 3.52604455,12.2128426 C3.16467822,11.8701 2.84742079,11.4959911 2.58091584,11.095199 C1.95337129,10.1518129 1.62173762,9.08132772 1.62173762,7.99929802 C1.62173762,7.15959505 1.81374752,6.34298119 2.19232178,5.57232772 C2.47516337,4.99662475 2.85613366,4.46056535 3.32477723,3.97896139 C4.53826238,2.7321495 6.24478713,1.93274356 8.12981683,1.72777327 C8.45796535,1.6920505 8.78055941,1.67397129 9.08877723,1.67397129 C9.41235149,1.67397129 9.74932178,1.69357525 10.0902129,1.73234752 C11.9665297,1.94570396 13.6631436,2.7491396 14.8675891,3.99486238 C15.3340545,4.47744653 15.7129554,5.01470396 15.9938366,5.59182277 C16.3663119,6.35757525 16.5552723,7.16754554 16.5552723,7.99929802 C16.5552723,8.08577327 16.5498267,8.17192178 16.5455792,8.25817921 C17.032302,7.96030792 17.6755297,8.01879307 18.096797,8.4400604 C18.1181436,8.46129802 18.136005,8.48460495 18.1553911,8.50704059 C18.1693317,8.32984257 18.1770644,8.1521 18.1770644,7.97392178 C18.1770644,6.91487228 17.9374604,5.88544653 17.464896,4.91428812" id="Fill-33"></path>
        </g>
    </g>
</svg>