<?xml version="1.0" encoding="UTF-8"?>
<svg width="64px" height="64px" viewBox="0 0 64 64" version="1.1" xmlns="http://www.w3.org/2000/svg" xmlns:xlink="http://www.w3.org/1999/xlink">
    <!-- Generator: Sketch 63.1 (92452) - https://sketch.com -->
    <title>icon_info</title>
    <desc>Created with Sketch.</desc>
    <g id="icon_info" stroke="none" stroke-width="1" fill="none" fill-rule="evenodd">
        <g id="3.Icons/Filled/info" transform="translate(4.000000, 4.000000)" fill="#FFC300">
            <g id="common_icons_info" transform="translate(0.333333, 0.333333)">
                <g id="Group-19">
                    <path d="M26.6666667,53.3333333 C11.9390733,53.3333333 0,41.39426 0,26.6666667 C0,11.9390733 11.9390733,0 26.6666667,0 C41.39426,0 53.3333333,11.9390733 53.3333333,26.6666667 C53.3333333,41.39426 41.39426,53.3333333 26.6666667,53.3333333 Z M26.6666667,21.3333333 C25.5620972,21.3333333 24.6666667,22.2287638 24.6666667,23.3333333 L24.6666667,38 C24.6666667,39.1045695 25.5620972,40 26.6666667,40 C27.7712362,40 28.6666667,39.1045695 28.6666667,38 L28.6666667,23.3333333 C28.6666667,22.2287638 27.7712362,21.3333333 26.6666667,21.3333333 Z M26.6666667,18.6666667 C28.139426,18.6666667 29.3333333,17.4727593 29.3333333,16 C29.3333333,14.5272407 28.139426,13.3333333 26.6666667,13.3333333 C25.1939073,13.3333333 24,14.5272407 24,16 C24,17.4727593 25.1939073,18.6666667 26.6666667,18.6666667 Z" id="形状"></path>
                </g>
            </g>
        </g>
    </g>
</svg>