<?xml version="1.0" encoding="UTF-8"?>
<svg width="24px" height="24px" viewBox="0 0 24 24" version="1.1" xmlns="http://www.w3.org/2000/svg" xmlns:xlink="http://www.w3.org/1999/xlink">
    <title>Icon/player/next</title>
    <g id="Icon/player/next" stroke="none" stroke-width="1" fill="none" fill-rule="evenodd" fill-opacity="0.9">
        <path d="M18.5,4.5 C18.7761424,4.5 19,4.72385763 19,5 L19,19 C19,19.2761424 18.7761424,19.5 18.5,19.5 L17.5,19.5 C17.2238576,19.5 17,19.2761424 17,19 L17,13.142 L6.49613894,19.1450635 C6.01662149,19.4190734 5.40576683,19.2524767 5.13175686,18.7729593 C5.04541532,18.6218616 5,18.4508473 5,18.2768203 L5,5.72317968 C5,5.17089493 5.44771525,4.72317968 6,4.72317968 C6.17402694,4.72317968 6.34504124,4.768595 6.49613894,4.85493654 L17,10.857 L17,5 C17,4.72385763 17.2238576,4.5 17.5,4.5 L18.5,4.5 Z" id="形状结合" fill="#000000"></path>
    </g>
</svg>