<?xml version="1.0" encoding="UTF-8"?>
<svg width="24px" height="24px" viewBox="0 0 24 24" version="1.1" xmlns="http://www.w3.org/2000/svg" xmlns:xlink="http://www.w3.org/1999/xlink">
    <title>担保人</title>
    <g id="担保人" stroke="none" stroke-width="1" fill="none" fill-rule="evenodd" fill-opacity="0.9">
        <path d="M19.0852814,11.3 L20.114,13.785 L22.6,14.8147186 L21.57,17.3 L22.6,19.7852814 L20.114,20.815 L19.0852814,23.3 L16.601,22.27 L14.1147186,23.3 L13.085,20.814 L10.6,19.7852814 L11.629,17.3 L10.6,14.8147186 L13.085,13.785 L14.1147186,11.3 L16.6,12.329 L19.0852814,11.3 Z M10.9,2 C13.0948735,2 14.8883027,3.72720991 14.9949799,5.89566166 L15,6.10020747 L15,7.81018568 C15,8.378009 14.8549596,9.06448729 14.6190866,9.7216291 L12.666573,9.72240577 C12.9363939,9.18021994 13.1480064,8.50390516 13.1917003,7.99330657 L13.2,7.81018568 L13.2,6.10020747 C13.2,4.83089169 12.1692826,3.8 10.9,3.8 C9.68491525,3.8 8.68641655,4.74752592 8.60531785,5.94238421 L8.6,6.09958038 L8.6,7.80929053 C8.6,8.49075448 8.98678439,9.60028202 9.42169619,10.2118911 L9.53123081,10.3538842 L9.89276334,10.7823851 C10.0384519,10.9550602 10.1621497,11.1356176 10.2644237,11.3213805 L10.3387476,14.0214609 C10.0869908,14.5250796 9.68030379,14.9671562 9.13215752,15.284082 L8.91999807,15.3969385 L3.25964492,18.1591282 C3.2344225,18.1714365 3.1473832,18.3052442 3.11357638,18.3765644 L3.105,18.399 L8.999,18.399 L8.999,20.2 L2.40142961,20.2 C1.83447313,20.2 1.36636784,19.7747768 1.30647361,19.2218845 L1.3,19.1015619 L1.3,18.4154633 C1.3,17.7401546 1.75310781,16.9693086 2.34207156,16.6116043 L2.47024188,16.5414624 L8.13059504,13.7792727 C8.85252136,13.4269806 9.0455166,12.6831316 8.60192559,12.0530344 L8.51701475,11.9431244 L8.15548222,11.5146235 C7.45130102,10.6800035 6.87611778,9.17611185 6.80697058,8.03283298 L6.8,7.80929053 L6.8,6.09958038 C6.8,3.83745169 8.63811926,2 10.9,2 Z M18.6294675,15.4279553 L16.0153096,18.0413215 L14.6778802,16.704155 L13.8523789,17.5296564 L16.015574,19.6928513 L19.4549689,16.2534567 L18.6294675,15.4279553 Z" id="形状结合" fill="#000000"></path>
    </g>
</svg>