<?xml version="1.0" encoding="UTF-8"?>
<svg width="64px" height="64px" viewBox="0 0 64 64" version="1.1" xmlns="http://www.w3.org/2000/svg" xmlns:xlink="http://www.w3.org/1999/xlink">
    <!-- Generator: Sketch 55.2 (78181) - https://sketchapp.com -->
    <title>1.iOS/3.Element/Alert</title>
    <desc>Created with Sketch.</desc>
    <g id="1.iOS/3.Element/Alert" stroke="none" stroke-width="1" fill="none" fill-rule="evenodd">
        <g fill="#FA5151" id="Combined-Shape">
            <path d="M32.969697,64 C14.326888,64 0,49.673112 0,32.969697 C0,14.326888 14.326888,0 32.969697,0 C49.673112,0 64,14.326888 64,32.969697 C64,49.673112 49.673112,64 32.969697,64 Z M28.8665126,17.3967535 L29.8666672,38.4 L34.1333341,38.4 L35.1334887,17.3967535 C35.1685147,16.6612073 34.6006309,16.0365352 33.8650847,16.0015091 C33.8439596,16.0005032 33.8228135,16 33.8016645,16 L30.1983368,16 C29.4619571,16 28.8650034,16.5969537 28.8650034,17.3333333 C28.8650034,17.3544824 28.8655066,17.3756284 28.8665126,17.3967535 Z M32.0000006,47.7333333 C33.7673119,47.7333333 35.2000008,46.3006445 35.2000008,44.5333333 C35.2000008,42.7660221 33.7673119,41.3333333 32.0000006,41.3333333 C30.2326894,41.3333333 28.8000005,42.7660221 28.8000005,44.5333333 C28.8000005,46.3006445 30.2326894,47.7333333 32.0000006,47.7333333 Z"></path>
        </g>
    </g>
</svg>