<?xml version="1.0" encoding="UTF-8"?>
<svg width="24px" height="24px" viewBox="0 0 24 24" version="1.1" xmlns="http://www.w3.org/2000/svg" xmlns:xlink="http://www.w3.org/1999/xlink">
    <title>icons_filled_top</title>
    <g id="icons_filled_top" stroke="none" stroke-width="1" fill="none" fill-rule="evenodd">
        <path d="M12.7781746,7.29289322 L18.8492424,13.363961 C19.2397667,13.7544853 19.2397667,14.3876503 18.8492424,14.7781746 C18.661706,14.965711 18.4073521,15.0710678 18.1421356,15.0710678 L16.071,15.071 L16.0710678,21 C16.0710678,21.5522847 15.6233526,22 15.0710678,22 L9.07106781,22 C8.51878306,22 8.07106781,21.5522847 8.07106781,21 L8.071,15.071 L6,15.0710678 C5.44771525,15.0710678 5,14.6233526 5,14.0710678 C5,13.8058513 5.10535684,13.5514974 5.29289322,13.363961 L11.363961,7.29289322 C11.7544853,6.90236893 12.3876503,6.90236893 12.7781746,7.29289322 Z M20,3 L20,5 L4,5 L4,3 L20,3 Z" id="形状" fill="#000000"></path>
    </g>
</svg>