<?xml version="1.0" encoding="UTF-8"?>
<svg width="20px" height="20px" viewBox="0 0 20 20" version="1.1" xmlns="http://www.w3.org/2000/svg" xmlns:xlink="http://www.w3.org/1999/xlink">
    <title>画板</title>
    <defs>
        <filter id="filter-1">
            <feColorMatrix in="SourceGraphic" type="matrix" values="0 0 0 0 1.000000 0 0 0 0 1.000000 0 0 0 0 1.000000 0 0 0 1.000000 0"></feColorMatrix>
        </filter>
    </defs>
    <g id="画板" stroke="none" stroke-width="1" fill="none" fill-rule="evenodd">
        <g id="编组-2" filter="url(#filter-1)">
            <g id="编组" fill="#000000" transform="translate(0.648135, 0.796048)">
                <path d="M7.26788707,1.91845422 C7.6580084,1.61085775 7.98311476,1.55098771 8.2646102,1.62055617 C8.63131458,1.71118306 8.93016683,2.03737211 9.20723838,2.37876202 C9.48353065,2.71919175 10.2130572,3.6362682 10.9860244,4.60913099 L10.9860244,4.60913099 L11.3740905,5.09762277 C12.114731,6.03002808 12.7166564,6.78780378 13.0636506,7.22174229 C13.4796929,6.80690532 13.496778,5.94450461 13.5185068,5.3622193 C13.5236522,5.22545201 13.5976829,4.92975668 13.8167469,4.71321411 C13.9481703,4.58330336 14.1304606,4.48099469 14.3790802,4.46721631 C14.6424069,4.45262286 14.8404967,4.52177963 14.9897881,4.6236796 C15.2116963,4.77514467 15.3254425,5.00242454 15.3812204,5.15225779 C15.860614,6.68127322 16.0353532,7.36079946 16.3562717,8.61495909 C16.8083039,10.4617712 16.8218273,11.7904726 16.5678549,12.8071072 C16.2397703,14.1204077 15.4662611,14.9184642 14.5941116,15.6351238 C13.6988047,16.3708123 12.309019,17.0060741 10.6544774,16.7297614 C9.44381825,16.5275783 8.08840621,15.8367172 6.681593,14.3269185 C6.08026651,13.6705376 5.58037953,13.1258871 5.16071673,12.6686447 C3.86161881,11.2532162 3.33035665,10.6743063 2.93926265,10.2124805 C2.64570761,9.86762326 2.48444006,9.59195759 2.44618889,9.35524464 C2.40196918,9.08159611 2.50822169,8.84978501 2.78468055,8.62010888 L2.78468055,8.62010888 L5.58503414,10.7288012 L3.03283836,7.06693178 C2.85566386,6.84693637 2.7790137,6.55519985 2.80334114,6.2695089 C2.8273011,5.98813368 2.94901557,5.71390311 3.16389087,5.52110868 C3.35043874,5.35373072 3.58283953,5.29194546 3.81084018,5.30184174 C4.07951236,5.31350335 4.34035911,5.42586741 4.51209675,5.57906783 L4.51209675,5.57906783 L7.13978625,8.33946073 L4.38087042,4.47097561 C4.22681991,4.28644509 4.09782474,3.99796907 4.12123927,3.69140566 C4.13903882,3.45835845 4.24298454,3.21336694 4.494135,2.99547388 C4.76428312,2.76109884 5.02977871,2.68110254 5.27310378,2.70256413 C5.55270802,2.7272256 5.80745098,2.88856184 6.00836419,3.12557044 L6.00836419,3.12557044 L9.33655448,6.8493951 L7.19694518,3.27937655 C7.03469542,3.05566013 6.94981718,2.80791708 6.96002926,2.56716657 C6.96965554,2.34022615 7.06266605,2.11787934 7.26788707,1.91845422 Z" id="形状结合备份-2" stroke="#000000" stroke-width="0.2" transform="translate(9.572324, 9.181189) scale(-1, 1) rotate(-285.000000) translate(-9.572324, -9.181189) "></path>
                <path d="M3.625,7.09098142 C4.24632034,7.09098142 4.75,6.58730176 4.75,5.96598142 C4.75,5.34466107 4.24632034,4.84098142 3.625,4.84098142 C3.00367966,4.84098142 2.5,5.34466107 2.5,5.96598142 C2.5,6.58730176 3.00367966,7.09098142 3.625,7.09098142 Z" id="椭圆形"></path>
                <path d="M5.46635437,4.62774238 C6.08767471,4.62774238 6.59135437,4.12406273 6.59135437,3.50274238 C6.59135437,2.88142204 6.08767471,2.37774238 5.46635437,2.37774238 C4.84503403,2.37774238 4.34135437,2.88142204 4.34135437,3.50274238 C4.34135437,4.12406273 4.84503403,4.62774238 5.46635437,4.62774238 Z" id="椭圆形备份"></path>
                <path d="M8.32952627,4.01179848 C8.95084661,4.01179848 9.45452627,3.50811882 9.45452627,2.88679848 C9.45452627,2.26547813 8.95084661,1.76179848 8.32952627,1.76179848 C7.70820592,1.76179848 7.20452627,2.26547813 7.20452627,2.88679848 C7.20452627,3.50811882 7.70820592,4.01179848 8.32952627,4.01179848 Z" id="椭圆形备份-2"></path>
                <polygon id="路径-3" points="7.35469309 3.44737078 8.48032125 5.25733019 8.55931091 3.19572792"></polygon>
                <path d="M11.2901255,3.82840818 C11.7503628,3.82840818 12.1234589,3.45531213 12.1234589,2.99507484 C12.1234589,2.53483755 11.7503628,2.16174151 11.2901255,2.16174151 C10.8298882,2.16174151 10.4567922,2.53483755 10.4567922,2.99507484 C10.4567922,3.45531213 10.8298882,3.82840818 11.2901255,3.82840818 Z" id="椭圆形备份-3"></path>
                <polygon id="路径-4" points="4.50620778 4.08920631 6.09347788 6.4969415 5.66366323 2.77738279"></polygon>
            </g>
        </g>
    </g>
</svg>