<?xml version="1.0" encoding="UTF-8"?>
<svg width="64px" height="64px" viewBox="0 0 64 64" version="1.1" xmlns="http://www.w3.org/2000/svg" xmlns:xlink="http://www.w3.org/1999/xlink">
    <!-- Generator: Sketch 61.2 (89653) - https://sketch.com -->
    <title>画板</title>
    <desc>Created with Sketch.</desc>
    <g id="画板" stroke="none" stroke-width="1" fill="none" fill-rule="evenodd" opacity="0.5">
        <g id="直播2">
            <g id="编组-2">
                <rect id="矩形" stroke="#979797" stroke-width="3.2" fill="#D8D8D8" opacity="0" x="1.6" y="1.6" width="60.8" height="60.8"></rect>
                <path d="M45.7444592,12 C49.3105341,12 50.6036791,12.3713024 51.9073828,13.0685308 C53.2110865,13.7657592 54.2342408,14.7889135 54.9314691,16.0926172 C55.6286975,17.3963209 56,18.6894658 56,22.2555408 L56,41.7444592 C56,45.3105342 55.6286975,46.6036791 54.9314691,47.9073828 C54.2342408,49.2110865 53.2110865,50.2342408 51.9073828,50.9314692 C50.6036791,51.6286976 49.3105341,52 45.7444592,52 L18.2555408,52 C14.6894658,52 13.3963209,51.6286976 12.0926171,50.9314692 C10.7889134,50.2342408 9.76575915,49.2110865 9.06853078,47.9073828 C8.37130241,46.6036791 7.99999996,45.3105342 7.99999996,41.7444592 L7.99999996,22.2555408 C7.99999996,18.6894658 8.37130241,17.3963209 9.06853078,16.0926172 C9.76575915,14.7889135 10.7889134,13.7657592 12.0926171,13.0685308 C13.3963209,12.3713024 14.6894658,12 18.2555408,12 L45.7444592,12 Z M28.8106666,21.12 C27.927011,21.12 27.2106666,21.8363444 27.2106666,22.72 L27.2106666,22.72 L27.2106666,41.28 C27.2106666,42.1636556 27.927011,42.88 28.8106666,42.88 C29.6943222,42.88 30.4106666,42.1636556 30.4106666,41.28 L30.4106666,41.28 L30.4106666,22.72 C30.4106666,21.8363444 29.6943222,21.12 28.8106666,21.12 Z M41.6106666,25.6 C40.727011,25.6 40.0106666,26.3163444 40.0106666,27.2 L40.0106666,27.2 L40.0106666,36.8 C40.0106666,37.6836556 40.727011,38.4 41.6106666,38.4 C42.4943222,38.4 43.2106666,37.6836556 43.2106666,36.8 L43.2106666,36.8 L43.2106666,27.2 C43.2106666,26.3163444 42.4943222,25.6 41.6106666,25.6 Z M22.4106666,25.6 C21.527011,25.6 20.8106666,26.3163444 20.8106666,27.2 L20.8106666,27.2 L20.8106666,36.8 C20.8106666,37.6836556 21.527011,38.4 22.4106666,38.4 C23.2943222,38.4 24.0106666,37.6836556 24.0106666,36.8 L24.0106666,36.8 L24.0106666,27.2 C24.0106666,26.3163444 23.2943222,25.6 22.4106666,25.6 Z M35.2106666,27.2 C34.327011,27.2 33.6106666,27.9163444 33.6106666,28.8 L33.6106666,28.8 L33.6106666,35.2 C33.6106666,36.0836556 34.327011,36.8 35.2106666,36.8 C36.0943222,36.8 36.8106666,36.0836556 36.8106666,35.2 L36.8106666,35.2 L36.8106666,28.8 C36.8106666,27.9163444 36.0943222,27.2 35.2106666,27.2 Z" id="形状结合" fill="#FFFFFF"></path>
            </g>
        </g>
    </g>
</svg>