<?xml version="1.0" encoding="UTF-8"?>
<svg width="32px" height="32px" viewBox="0 0 32 32" version="1.1" xmlns="http://www.w3.org/2000/svg" xmlns:xlink="http://www.w3.org/1999/xlink">
    <!-- Generator: Sketch 62 (91390) - https://sketch.com -->
    <title>画板备份 4</title>
    <desc>Created with Sketch.</desc>
    <g id="画板备份-4" stroke="none" stroke-width="1" fill="none" fill-rule="evenodd">
        <g id="编组" fill="#000000" fill-rule="nonzero" stroke="#000000" stroke-width="0.3">
            <path d="M5.5960758,3.33333333 L13.3642561,11.1009063 C14.0718021,11.033761 14.7848117,10.9999682 15.5005932,11 C19.2131891,11.000165 22.8512985,11.9102941 26.0704731,13.6843077 L26.5068224,13.9315689 L26.8259206,14.1274739 C27.0852916,14.2930944 27.316156,14.4638523 27.5233286,14.6558282 C29.0409017,16.062083 29.4179475,18.1801158 28.5186945,19.9807166 C28.4921859,20.0312131 28.4621765,20.0854356 28.4231882,20.148574 C28.3657623,20.2415703 28.3038781,20.3284794 28.234796,20.4079475 L28.183643,20.4638933 L28.183643,20.4638933 L28.130302,20.5162558 L28.1178102,20.5274518 C27.6229708,20.9564072 26.9498534,21.1055221 26.3138925,20.9244612 L26.155801,20.8722882 L22.2195739,19.2184304 C21.9303934,19.0933685 21.7842256,18.9320981 21.677326,18.6576403 L21.6336137,18.5328613 L21.5030565,18.1005902 L21.1533123,16.9923518 L20.7770089,15.8479292 L20.6132526,15.3704277 C20.5606395,15.2079387 20.464342,15.0564568 20.3395026,14.9407747 C20.2129395,14.8234954 20.03665,14.7345733 19.8445572,14.692091 C18.6532764,14.406551 17.515597,14.2267327 16.424291,14.1612683 L27.8999719,25.6372294 L26.768601,26.7686003 L14.1836805,14.1830522 L14.182,14.1823333 L13.3202394,13.3213665 C13.3212338,13.321244 13.3222283,13.3211216 13.3232227,13.3209993 L12.2462463,12.2459867 L12.245,12.2453333 L4.46470423,4.4647049 L5.5960758,3.33333333 Z M9.54265994,11.8040919 L10.3602187,12.6222208 C8.6673071,13.0410555 7.03441853,13.6692086 5.50384993,14.5002157 L5.05847054,14.7494364 L4.93750578,14.8154656 C4.72122949,14.9402416 4.43964259,15.134885 4.21321264,15.3428652 C3.06091578,16.4012715 2.73691639,17.9732704 3.32735878,19.3320675 L3.41354976,19.5159682 L3.4789727,19.641232 L3.53456151,19.7265358 L3.56039949,19.7573035 L3.58128884,19.7761154 C3.8085233,19.958747 4.08447463,20.024684 4.32503725,19.9733933 L4.42572365,19.9442328 L8.33957122,18.3148881 L8.35818627,18.3113611 L8.36171438,18.2864489 L8.46970322,17.9370902 L9.08566808,16.0259089 L9.40047086,15.0872963 C9.50395415,14.7704124 9.67869509,14.4952498 9.93579294,14.2591006 C10.2105389,14.0067413 10.5440874,13.841783 10.9073116,13.7624548 L11.39,13.6523333 L12.1963161,14.4581666 C11.8563707,14.5233292 11.5110042,14.5980822 11.159674,14.6822428 C10.9693721,14.7242212 10.8085748,14.8044481 10.6745955,14.9285997 C10.5754128,15.020507 10.5019347,15.120822 10.4472673,15.239691 L10.3986147,15.3651205 L9.84681406,17.0450753 L9.37807474,18.5297273 C9.282626,18.830493 9.17165265,19.0006606 8.91099582,19.1468393 L8.78973032,19.2083295 L4.83946044,20.8673413 C4.18573809,21.1128995 3.44713858,20.9831409 2.90363056,20.5423619 C2.85786197,20.5064748 2.81532655,20.4670214 2.77534803,20.4243414 C2.71885386,20.3640299 2.66902635,20.299371 2.62354315,20.2302652 L2.55828628,20.123259 L2.51384309,20.0404731 L2.3856802,19.7737025 C1.61225283,18.0285821 2.01490656,16.0107225 3.47817158,14.6547921 C3.77616595,14.3786564 4.13282925,14.1313202 4.40300122,13.9770375 L4.53020756,13.907948 L4.94398354,13.6735273 C6.39517222,12.8732255 7.93989352,12.2480057 9.54265994,11.8040919 Z M15.5005464,12 C15.0983635,11.9999823 14.6971269,12.0110988 14.2973328,12.0332737 L15.452,13.1893333 L15.5133511,13.1899999 C16.809069,13.190057 18.1591836,13.3497235 19.5665576,13.6521637 L20.0970125,13.7722384 C20.4634249,13.8523861 20.8122665,14.0268014 21.0783144,14.2711714 C21.2854197,14.4614015 21.4485641,14.6936696 21.5539537,14.9398201 L21.6101466,15.088951 L21.775038,15.5654026 L22.1544195,16.7089885 L22.4275479,17.562317 L22.6387015,18.248852 L22.6571084,18.3192948 L26.5696062,19.9491623 C26.8148402,20.0404897 27.0869548,20.0081424 27.3147271,19.8571733 L27.4094213,19.7852245 L27.472261,19.7083663 L27.5205462,19.6361213 L27.581585,19.5301795 C28.2926593,18.11845 27.9931162,16.4505442 26.7882941,15.3438925 C26.6840582,15.2481499 26.5675367,15.1562808 26.4387773,15.0660124 L26.2364659,14.9315262 L25.9325304,14.7462216 L25.5089037,14.5073174 C22.4826629,12.8568002 19.0279557,12.0001554 15.5005464,12 Z" id="形状结合"></path>
        </g>
    </g>
</svg>