<?xml version="1.0" encoding="UTF-8"?>
<svg width="25px" height="25px" viewBox="0 0 25 25" version="1.1" xmlns="http://www.w3.org/2000/svg" xmlns:xlink="http://www.w3.org/1999/xlink">
    <title>3.Icons/Filled/play备份 2</title>
    <g id="20210305" stroke="none" stroke-width="1" fill="none" fill-rule="evenodd" opacity="0.8">
        <g id="Group" fill="#FFFFFF">
            <path d="M9,5 C9.55228475,5 10,5.41786757 10,5.93333333 L10,18.0666667 C10,18.5821324 9.55228475,19 9,19 L7,19 C6.44771525,19 6,18.5821324 6,18.0666667 L6,5.93333333 C6,5.41786757 6.44771525,5 7,5 L9,5 Z M17,5 C17.5522847,5 18,5.41786757 18,5.93333333 L18,18.0666667 C18,18.5821324 17.5522847,19 17,19 L15,19 C14.4477153,19 14,18.5821324 14,18.0666667 L14,5.93333333 C14,5.41786757 14.4477153,5 15,5 L17,5 Z" id="形状结合"></path>
        </g>
    </g>
</svg>