<?xml version="1.0" encoding="UTF-8"?>
<svg width="16px" height="16px" viewBox="0 0 16 16" version="1.1" xmlns="http://www.w3.org/2000/svg" xmlns:xlink="http://www.w3.org/1999/xlink">
    <title>编组 2</title>
    <g id="10月22" stroke="none" stroke-width="1" fill="none" fill-rule="evenodd">
        <g id="1" transform="translate(-335.000000, -568.000000)">
            <g id="编组-2" transform="translate(335.000000, 568.000000)">
                <rect id="矩形" x="0" y="0" width="16" height="16"></rect>
                <path d="M12.2844778,4.38185386 C11.6098143,3.70719041 10.7291518,3.32985887 9.76248977,3.22985935 C9.64049035,3.52852459 9.45115791,3.86585632 9.16515928,4.26052111 C8.35516313,5.37918245 7.11450237,5.90917993 7.11450237,5.90917993 C7.11450237,5.90917993 8.41516285,4.52451985 8.56916211,3.19985949 C8.64582841,2.54052929 8.51049572,1.71919987 8.21716379,1.42253462 C8.04249795,1.24453546 7.74316604,1.34853497 7.71849949,1.59653379 C7.67916635,2.00319852 7.52783374,2.55986253 7.13183562,3.08786002 C6.8145038,3.51119134 6.14117367,3.99918902 5.90050815,4.16652155 C5.32051091,4.5071866 4.76118024,4.93385123 4.24718269,5.44784879 C1.73386132,7.96117016 1.25653025,11.5598197 3.18185442,13.4851439 C5.10651193,15.4098014 8.70516146,14.933137 11.2184828,12.4191489 C13.7324709,9.9051609 14.2098019,6.30717803 12.2844778,4.38185386" id="Fill-2备份" fill="#7AD300"></path>
            </g>
        </g>
    </g>
</svg>