<svg height="28" viewBox="0 0 28 28" width="28" xmlns="http://www.w3.org/2000/svg"><path d="m16 2.66666667c7.3637967 0 13.3333333 5.96953667 13.3333333 13.33333333 0 7.3637967-5.9695366 13.3333333-13.3333333 13.3333333-7.36379666 0-13.33333333-5.9695366-13.33333333-13.3333333 0-7.36379666 5.96953667-13.33333333 13.33333333-13.33333333zm4 17.33333333h-8v2.6666667h8zm-8.6666667-5.3333333h-2.66666663v2.6666666h2.66666663zm4 0h-2.6666666v2.6666666h2.6666666zm4 0h-2.6666666v2.6666666h2.6666666zm4 0h-2.6666666v2.6666666h2.6666666zm-12-4h-2.66666663v2.6666666h2.66666663zm4 0h-2.6666666v2.6666666h2.6666666zm4 0h-2.6666666v2.6666666h2.6666666zm4 0h-2.6666666v2.6666666h2.6666666z" fill="#000" fill-rule="evenodd" transform="translate(-2 -2)"/></svg>