<?xml version="1.0" encoding="UTF-8"?>
<svg width="12px" height="12px" viewBox="0 0 12 12" version="1.1" xmlns="http://www.w3.org/2000/svg" xmlns:xlink="http://www.w3.org/1999/xlink">
    <!-- Generator: Sketch 63.1 (92452) - https://sketch.com -->
    <title>画板备份 3</title>
    <desc>Created with Sketch.</desc>
    <g id="画板备份-3" stroke="none" stroke-width="1" fill="none" fill-rule="evenodd">
        <path d="M2.06592561,3.23536307 L8.41282096,9.90645018 C7.69742257,10.2592753 6.87495661,10.4600687 6,10.4600687 C5.57663125,10.4600687 5.16555235,10.4130561 4.77294639,10.3245553 L4.38672709,10.2224296 L2.89525053,10.9741673 C2.85267636,10.9956257 2.80519139,11.0039727 2.75829149,10.9982423 C2.65543069,10.9856744 2.57444623,10.9091555 2.54710843,10.8108646 L2.53882952,10.7068786 L2.68987813,9.34101269 C1.65349903,8.5225063 1,7.32584516 1,5.99281404 C1,4.95222771 1.39821774,3.99474012 2.06592561,3.23536307 Z M2.06066017,1 L3.25740002,2.25697269 C4.04485513,1.79456873 4.98726587,1.52555937 6,1.52555937 C8.76142375,1.52555937 11,3.52561741 11,5.99281404 C11,7.15698907 10.5015737,8.21715417 9.68497819,9.01225856 L10.5459415,9.91903831 L10.0156115,10.4764782 L1.53033009,1.55743989 L2.06066017,1 Z" id="形状" fill="#FA5151"></path>
    </g>
</svg>