<?xml version="1.0" encoding="UTF-8"?>
<svg width="24px" height="24px" viewBox="0 0 24 24" version="1.1" xmlns="http://www.w3.org/2000/svg" xmlns:xlink="http://www.w3.org/1999/xlink">
    <title>icons_filled_HtoV</title>
    <g id="icons_filled_HtoV" stroke="none" stroke-width="1" fill="none" fill-rule="evenodd" opacity="0.900000036">
        <g id="icons_filled_HtoV">
            <rect id="矩形" x="0" y="0" width="24" height="24"></rect>
            <g id="编组" transform="translate(3.666667, 4.666667)" fill="#000000">
                <path d="M10.7222222,3.33333333 C11.2438245,3.33333333 11.6666667,3.72301142 11.6666667,4.2037037 L11.6666667,10.2962963 C11.6666667,10.7769886 11.2438245,11.1666667 10.7222222,11.1666667 L-1.55555556,11.1666667 C-2.07715782,11.1666667 -2.5,10.7769886 -2.5,10.2962963 L-2.5,4.2037037 C-2.5,3.72301142 -2.07715782,3.33333333 -1.55555556,3.33333333 L10.7222222,3.33333333 Z" id="路径" transform="translate(4.583333, 7.250000) scale(-1, 1) rotate(-90.000000) translate(-4.583333, -7.250000) "></path>
                <path d="M16.3333333,7.33333333 C16.7935706,7.33333333 17.1666667,7.6776767 17.1666667,8.10244578 L17.1666667,13.1658976 L16.1666667,13.1658976 L16.1666667,8.25626827 L10.6666667,8.25626827 L10.6666667,13.1658976 L9.66666667,13.1666667 L9.66666667,8.10244578 C9.66666667,7.6776767 10.0397627,7.33333333 10.5,7.33333333 L16.3333333,7.33333333 Z" id="路径" stroke="#000000" stroke-width="0.5" transform="translate(13.416667, 10.250000) scale(-1, 1) rotate(-90.000000) translate(-13.416667, -10.250000) "></path>
            </g>
        </g>
    </g>
</svg>