<?xml version="1.0" encoding="UTF-8"?>
<svg width="16px" height="16px" viewBox="0 0 16 16" version="1.1" xmlns="http://www.w3.org/2000/svg" xmlns:xlink="http://www.w3.org/1999/xlink">
    <!-- Generator: Sketch 63.1 (92452) - https://sketch.com -->
    <title>画板</title>
    <desc>Created with Sketch.</desc>
    <g id="画板" stroke="none" stroke-width="1" fill="none" fill-rule="evenodd">
        <g id="编组-23备份" fill="#000000">
            <g id="编组-33">
                <g id="3.Icons/Filled/shop">
                    <g id="icon37">
                        <path d="M8,1.33333333 C9.65685425,1.33333333 11,2.67647908 11,4.33333333 L10.9996667,4.66633333 L9.99966667,4.66633333 L10,7.33333333 L11,7.33333333 L10.9996667,4.66633333 L12.6660856,4.66666667 C13.0345963,4.66666667 13.3333333,4.95516268 13.3333333,5.33832265 L13.3333333,13.3387439 C13.3333333,14.0721354 12.7292849,14.6666667 12.0039598,14.6666667 L3.99604019,14.6666667 C3.26184746,14.6666667 2.66666667,14.0710684 2.66666667,13.3387439 L2.66666667,5.33832265 C2.66666667,4.96737729 2.97439575,4.66666667 3.33391444,4.66666667 L4.99966667,4.66633333 L5,4.33333333 C5,2.67647908 6.34314575,1.33333333 8,1.33333333 Z M8,2.33333333 C6.8954305,2.33333333 6,3.22876383 6,4.33333333 L5.99966667,4.66633333 L4.99966667,4.66633333 L5,7.33333333 L6,7.33333333 L5.99966667,4.66633333 L9.99966667,4.66633333 L10,4.33333333 C10,3.22876383 9.1045695,2.33333333 8,2.33333333 Z" id="图标颜色"></path>
                    </g>
                </g>
            </g>
        </g>
    </g>
</svg>