<?xml version="1.0" encoding="UTF-8"?>
<svg width="20px" height="20px" viewBox="0 0 20 20" version="1.1" xmlns="http://www.w3.org/2000/svg" xmlns:xlink="http://www.w3.org/1999/xlink">
    <!-- Generator: Sketch 63.1 (92452) - https://sketch.com -->
    <title>画板</title>
    <desc>Created with Sketch.</desc>
    <g id="画板" stroke="none" stroke-width="1" fill="none" fill-rule="evenodd">
        <g id="编组-5">
            <circle id="椭圆形" fill="#FFFFFF" cx="10" cy="10" r="10"></circle>
            <path d="M6.06592561,7.23536307 L12.412821,13.9064502 C11.6974226,14.2592753 10.8749566,14.4600687 10,14.4600687 C9.57663125,14.4600687 9.16555235,14.4130561 8.77294639,14.3245553 L8.38672709,14.2224296 L6.89525053,14.9741673 C6.85267636,14.9956257 6.80519139,15.0039727 6.75829149,14.9982423 C6.65543069,14.9856744 6.57444623,14.9091555 6.54710843,14.8108646 L6.53882952,14.7068786 L6.68987813,13.3410127 C5.65349903,12.5225063 5,11.3258452 5,9.99281404 C5,8.95222771 5.39821774,7.99474012 6.06592561,7.23536307 Z M6.06066017,5 L7.25740002,6.25697269 C8.04485513,5.79456873 8.98726587,5.52555937 10,5.52555937 C12.7614237,5.52555937 15,7.52561741 15,9.99281404 C15,11.1569891 14.5015737,12.2171542 13.6849782,13.0122586 L14.5459415,13.9190383 L14.0156115,14.4764782 L5.53033009,5.55743989 L6.06066017,5 Z" id="形状" fill="#FA5151"></path>
        </g>
    </g>
</svg>