<?xml version="1.0" encoding="UTF-8"?>
<svg width="24px" height="24px" viewBox="0 0 24 24" version="1.1" xmlns="http://www.w3.org/2000/svg" xmlns:xlink="http://www.w3.org/1999/xlink">
    <!-- Generator: Sketch 62 (91390) - https://sketch.com -->
    <title>画板备份 4</title>
    <desc>Created with Sketch.</desc>
    <g id="画板备份-4" stroke="none" stroke-width="1" fill="none" fill-rule="evenodd">
        <g id="编组-2" fill="#000000">
            <g id="编组">
                <path d="M12,3 C16.9705627,3 21,7.02943725 21,12 L21,18 L21,19 C21,20.1045695 20.1045695,21 19,21 L17,21 C16.4477153,21 16,20.5522847 16,20 L16,15 C16,14.4477153 16.4477153,14 17,14 L19,14 L19,12 C19,8.13400675 15.8659932,5 12,5 C8.13400675,5 5,8.13400675 5,12 L5,14 L7,14 C7.55228475,14 8,14.4477153 8,15 L8,20 C8,20.5522847 7.55228475,21 7,21 L5,21 C3.8954305,21 3,20.1045695 3,19 L3,12 C3,7.02943725 7.02943725,3 12,3 Z" id="路径"></path>
            </g>
        </g>
    </g>
</svg>