<?xml version="1.0" encoding="UTF-8"?>
<svg width="24px" height="24px" viewBox="0 0 24 24" version="1.1" xmlns="http://www.w3.org/2000/svg" xmlns:xlink="http://www.w3.org/1999/xlink">
    <title>画板</title>
    <g id="画板" stroke="none" stroke-width="1" fill="none" fill-rule="evenodd">
        <g id="icons_filled_finder_icon" fill="#FFFFFF" fill-rule="nonzero">
            <rect id="矩形" opacity="0" x="0" y="0" width="24" height="24"></rect>
            <path d="M10.7872079,13.8227327 C10.5022574,14.3653069 10.0072079,15.2577822 9.40938614,16.1274851 C8.45532673,17.5150099 7.79512871,18.046297 7.41552475,18.2488713 C7.2430495,18.3407525 7.03136634,18.2847129 6.92344554,18.1217426 C6.49314851,17.4730297 5.66859406,15.7645149 4.9070099,12.7373861 C4.09473267,9.50887129 3.82324752,6.53916832 4.24681188,5.51540594 C4.31354455,5.3540198 4.50621782,5.28788119 4.65651485,5.37639604 C5.23037624,5.7140198 6.65611881,6.94392079 9.35215842,11.4195644 C9.95908911,12.4272871 10.4818614,13.3070891 10.7872079,13.8227327 M19.0190891,12.7373861 C18.2727525,15.7049109 17.4654257,17.4051089 17.0313663,18.0805545 C16.9000792,18.2847129 16.6289901,18.3411485 16.4228515,18.2130297 C15.6159208,17.7114455 14.2891881,16.0750099 13.1359208,13.8276832 C13.4406733,13.3128317 13.9650297,12.4306535 14.5739406,11.4195644 C17.278495,6.92986139 18.7054257,5.70649505 19.2741386,5.37322772 C19.428,5.28332673 19.6093861,5.34649505 19.677901,5.51085149 L19.6796832,5.51560396 C20.1028515,6.53916832 19.8313663,9.50887129 19.0190891,12.7373861 M21.5765149,4.7310495 C21.0602772,3.48233663 20.1971089,3.23679208 19.727802,3.20154455 C17.9773069,3.07144554 15.9153267,5.21421782 12.8153267,10.3605545 C12.5034455,10.8781782 12.2137426,11.3625347 11.9630495,11.7827327 C11.7137426,11.3647129 11.4244356,10.8811485 11.1107723,10.3605545 C8.01017822,5.21283168 5.93928713,3.07223762 4.19809901,3.20154455 C3.72918812,3.23679208 2.8660198,3.48233663 2.34958416,4.7310495 C1.63730693,6.4530297 2.17255445,9.82194059 2.55512871,11.6767921 C3.13275248,14.4777822 4.06285149,17.2672871 4.92483168,18.7839208 C5.49809901,19.7924356 6.07116832,20.3068911 6.72819802,20.4027327 C6.83354455,20.4181782 6.94087129,20.425901 7.04720792,20.425901 C8.988,20.425901 10.8361188,17.8914455 11.9628515,15.9601584 C13.0895842,17.8914455 14.937505,20.425901 16.8788911,20.425901 C16.9852277,20.425901 17.0927525,20.4181782 17.198297,20.4027327 C17.8549307,20.3068911 18.428,19.7924356 19.0012673,18.7839208 C19.8632475,17.2674851 20.7933465,14.4777822 21.3709703,11.6767921 C21.7535446,9.82194059 22.2887921,6.45322772 21.5765149,4.7310495" id="Fill-1"></path>
        </g>
    </g>
</svg>