<?xml version="1.0" encoding="UTF-8"?>
<svg width="16px" height="16px" viewBox="0 0 16 16" version="1.1" xmlns="http://www.w3.org/2000/svg" xmlns:xlink="http://www.w3.org/1999/xlink">
    <!-- Generator: Sketch 62 (91390) - https://sketch.com -->
    <title>画板</title>
    <desc>Created with Sketch.</desc>
    <g id="画板" stroke="none" stroke-width="1" fill="none" fill-rule="evenodd">
        <g id="Icons/Filled/chats" fill="#FFFFFF">
            <g id="common_icons_chats">
                <path d="M2.75469802,4.16872719 L11.2174475,12.6309083 C10.2635005,13.0785661 9.16675267,13.3333333 8,13.3333333 C7.24734445,13.3333333 6.52382039,13.2273156 5.84896945,13.0318905 L5.84896945,13.0318905 L3.86033404,13.9854622 C3.80356848,14.0126819 3.74025519,14.02327 3.67772198,14.016001 C3.49485835,13.9947447 3.36384973,13.8292728 3.38510603,13.6464092 L3.38510603,13.6464092 L3.58650417,11.9138223 C2.20466537,10.8755553 1.33333333,9.35760296 1.33333333,7.66666667 C1.33333333,6.34662908 1.86434222,5.13201169 2.75469802,4.16872719 Z M2.04044011,2.04044011 L2.7475469,1.33333333 L4.34236083,2.92825918 C5.39247059,2.34141747 6.64932805,2 8,2 C11.6818983,2 14.6666667,4.53705308 14.6666667,7.66666667 C14.6666667,9.14375454 14.0017888,10.4888455 12.9125437,11.4975054 L14.0612554,12.6470418 L13.3541486,13.3541486 L2.04044011,2.04044011 Z" id="形状结合"></path>
            </g>
        </g>
    </g>
</svg>