<?xml version="1.0" encoding="UTF-8"?>
<svg width="32px" height="32px" viewBox="0 0 32 32" version="1.1" xmlns="http://www.w3.org/2000/svg" xmlns:xlink="http://www.w3.org/1999/xlink">
    <!-- Generator: Sketch 62 (91390) - https://sketch.com -->
    <title>画板备份 5</title>
    <desc>Created with Sketch.</desc>
    <g id="画板备份-5" stroke="none" stroke-width="1" fill="none" fill-rule="evenodd">
        <g id="gift" fill="#000000" fill-rule="nonzero">
            <g id="编组-21">
                <g transform="translate(3.000000, 3.000000)">
                    <path d="M16.5537783,0.202160768 C17.6414453,0.169486477 18.7126748,0.508240872 19.5743527,1.15848357 C20.6536563,1.973036 21.288819,3.18305196 21.3732536,4.47659417 L21.3732536,4.47659417 L21.38,4.645 L23.8769231,4.64537815 C24.7784664,4.64537815 25.5182958,5.33775791 25.5936753,6.2197814 L25.5936753,6.2197814 L25.6,6.36845507 L25.6,12.0436975 L24.4,12.043 L24.4,22.1538462 C24.4,23.5590677 23.3046566,24.7084581 21.9211931,24.794794 L21.9211931,24.794794 L21.7538462,24.8 L3.84615385,24.8 C2.38472343,24.8 1.2,23.6152766 1.2,22.1538462 L1.2,22.1538462 L1.2,12.043 L7.38964445e-13,12.0436975 L7.38964445e-13,6.36845507 C7.38964445e-13,5.41682597 0.771447816,4.64537815 1.72298672,4.64537816 L1.72298672,4.64537816 L4.215,4.645 C4.25165063,3.36834192 4.82710272,2.15272564 5.841667,1.30430538 L5.841667,1.30430538 L6.02524569,1.15845962 C6.88693958,0.508204833 7.95817779,0.169490778 9.04611476,0.202157561 C10.3448376,0.240998228 11.5612255,0.796585346 12.4359358,1.76159485 L12.4359358,1.76159485 L12.5987477,1.95269161 L12.799,2.202 L13.0008773,1.9526191 C13.8122248,0.944114666 15.0078904,0.32033297 16.308807,0.215666138 L16.308807,0.215666138 Z M11.5,12.0429974 L2.8,12.0429974 L2.8,22.1538462 C2.8,22.6931026 3.20801018,23.1370633 3.73216386,23.1938613 L3.84615385,23.2 L11.5,23.1999974 L11.5,12.0429974 Z M22.8,12.0429974 L13.5,12.0429974 L13.5,23.1999974 L21.7538462,23.2 C22.2931026,23.2 22.7370633,22.7919898 22.7938613,22.2678361 L22.8,22.1538462 L22.8,12.0429974 Z M23.8768329,6.24537815 L1.72307692,6.24537815 C1.65510342,6.24537815 1.6,6.30048157 1.6,6.36845507 L1.6,6.36845507 L1.6,10.443 L24,10.443 L24,6.36845507 C24,6.31407627 23.9647338,6.26793432 23.9157787,6.25165269 L23.9157787,6.25165269 L23.8768329,6.24537815 Z M8.99818974,1.80143964 C8.27314877,1.77966931 7.55905508,2.00545809 6.98894443,2.4356772 C6.26279456,2.98351063 5.848604,3.79915448 5.8137227,4.64564531 L12.711,4.64499741 L11.3671415,2.97376079 L11.2351176,2.81870211 C10.6695501,2.19508607 9.86443001,1.82734614 8.99818974,1.80143964 Z M16.6018217,1.8014393 L16.3884579,1.81479588 C15.5414531,1.89575272 14.7710231,2.30484182 14.2474523,2.9556399 L14.2474523,2.9556399 L12.887,4.64499741 L19.7835837,4.64547551 C19.7504081,3.85910009 19.3956577,3.10751535 18.773144,2.56725431 L18.6105457,2.43561943 C18.0405457,2.00548384 17.3264651,1.7796705 16.6018217,1.8014393 L16.6018217,1.8014393 Z" id="形状结合"></path>
                </g>
            </g>
        </g>
    </g>
</svg>