<?xml version="1.0" encoding="UTF-8"?>
<svg width="24px" height="24px" viewBox="0 0 24 24" version="1.1" xmlns="http://www.w3.org/2000/svg" xmlns:xlink="http://www.w3.org/1999/xlink">
    <!-- Generator: Sketch 62 (91390) - https://sketch.com -->
    <title>画板</title>
    <desc>Created with Sketch.</desc>
    <g id="画板" stroke="none" stroke-width="1" fill="none" fill-rule="evenodd">
        <g id="Icons/Filled/chats" fill="#FFFFFF">
            <g id="common_icons_chats">
                <path d="M4.13160284,6.25357139 L16.8253763,18.9467355 C15.3946416,19.6179907 13.7498049,20 12,20 C10.8710167,20 9.78573058,19.8409734 8.77345417,19.5478358 L8.77345417,19.5478358 L5.79050106,20.9781933 C5.70535272,21.0190228 5.61038279,21.0349049 5.51658297,21.0240015 C5.24228753,20.9921171 5.04577459,20.7439092 5.07765905,20.4696138 L5.07765905,20.4696138 L5.37975626,17.8707334 C3.30699806,16.313333 2,14.0364044 2,11.5 C2,9.52016314 2.79633672,7.69842153 4.13160284,6.25357139 Z M3.06066017,3.06066017 L4.12132034,2 L6.51310133,4.39263462 C8.08835486,3.51222156 9.97380346,3 12,3 C17.5228475,3 22,6.80557963 22,11.5 C22,13.7163521 21.0020347,15.73458 19.367222,17.2477335 L21.0918831,18.9705627 L20.0312229,20.0312229 L3.06066017,3.06066017 Z" id="形状结合"></path>
            </g>
        </g>
    </g>
</svg>