<?xml version="1.0" encoding="UTF-8"?>
<svg width="24px" height="24px" viewBox="0 0 24 24" version="1.1" xmlns="http://www.w3.org/2000/svg" xmlns:xlink="http://www.w3.org/1999/xlink">
    <title>状态_听歌</title>
    <g id="状态_听歌" stroke="none" stroke-width="1" fill="none" fill-rule="evenodd">
        <g id="编组" transform="translate(3.350000, 2.431770)" fill="#FFFFFF">
            <path d="M2.96473075,1.00043437 L4.99840765,1.12047326 L4.93359235,2.21856205 L3.799,2.15122981 L3.799,5.649 L3.8,5.66822981 C3.8,6.39594619 3.24477112,6.99398191 2.53482934,7.06182101 L2.4,7.06822981 C1.62680135,7.06822981 1,6.44142846 1,5.66822981 C1,4.89503116 1.62680135,4.26822981 2.4,4.26822981 C2.50278278,4.26822981 2.60297858,4.27930595 2.69945893,4.30032975 L2.7,1.25 C2.7,1.11192881 2.81192881,1 2.95,1 L2.96473075,1.00043437 L2.96473075,1.00043437 Z" id="形状结合" transform="translate(2.999204, 4.034115) rotate(-9.000000) translate(-2.999204, -4.034115) "></path>
            <path d="M16.1292159,2.5961027 C16.1429992,2.64240259 16.15,2.6904556 16.15,2.73876357 L16.15,12.5682298 C16.15,13.6727993 15.2545695,14.5682298 14.15,14.5682298 C13.0454305,14.5682298 12.15,13.6727993 12.15,12.5682298 C12.15,11.513868 12.9658778,10.6500647 14.0007377,10.5737155 L14.15,10.5682298 C14.4833333,10.5704881 14.65,10.4568915 14.65,10.22744 L14.65,4.26422981 L8.15,6.19922981 L8.15,14.5682298 C8.15,15.6727993 7.2545695,16.5682298 6.15,16.5682298 C5.0454305,16.5682298 4.15,15.6727993 4.15,14.5682298 C4.15,13.4636603 5.0454305,12.5682298 6.15,12.5682298 L6.15,12.5682298 C6.48333333,12.5704881 6.65,12.4568915 6.65,12.22744 L6.65,5.26918344 C6.65,5.04798815 6.79533853,4.85307937 7.00733913,4.78996754 L15.5073391,2.25954768 C15.7720028,2.18075825 16.0504265,2.33143907 16.1292159,2.5961027 Z" id="形状结合" transform="translate(10.150000, 9.403431) rotate(5.000000) translate(-10.150000, -9.403431) "></path>
        </g>
        <path d="M6.31473075,3.43220455 L8.34840765,3.55224345 L8.28359235,4.65033223 L7.149,4.583 L7.149,8.08077019 L7.15,8.1 C7.15,8.82771638 6.59477112,9.4257521 5.88482934,9.49359119 L5.75,9.5 C4.97680135,9.5 4.35,8.87319865 4.35,8.1 C4.35,7.32680135 4.97680135,6.7 5.75,6.7 C5.85278278,6.7 5.95297858,6.71107614 6.04945893,6.73209994 L6.05,3.68177019 C6.05,3.543699 6.16192881,3.43177019 6.3,3.43177019 L6.31473075,3.43220455 L6.31473075,3.43220455 Z" id="形状结合" fill="#FFFFFF" transform="translate(6.349204, 6.465885) rotate(-9.000000) translate(-6.349204, -6.465885) "></path>
        <path d="M19.4792159,5.02787289 C19.4929992,5.07417278 19.5,5.12222579 19.5,5.17053376 L19.5,15 C19.5,16.1045695 18.6045695,17 17.5,17 C16.3954305,17 15.5,16.1045695 15.5,15 C15.5,13.9456382 16.3158778,13.0818349 17.3507377,13.0054857 L17.5,13 C17.8333333,13.0022583 18,12.8886617 18,12.6592102 L18,6.696 L11.5,8.631 L11.5,17 C11.5,18.1045695 10.6045695,19 9.5,19 C8.3954305,19 7.5,18.1045695 7.5,17 C7.5,15.8954305 8.3954305,15 9.5,15 L9.5,15 C9.83333333,15.0022583 10,14.8886617 10,14.6592102 L10,7.70095362 C10,7.47975833 10.1453385,7.28484955 10.3573391,7.22173773 L18.8573391,4.69131786 C19.1220028,4.61252844 19.4004265,4.76320926 19.4792159,5.02787289 Z" id="形状结合" fill="#FFFFFF" transform="translate(13.500000, 11.835201) rotate(5.000000) translate(-13.500000, -11.835201) "></path>
    </g>
</svg>