<?xml version="1.0" encoding="UTF-8"?>
<svg width="24px" height="24px" viewBox="0 0 24 24" version="1.1" xmlns="http://www.w3.org/2000/svg" xmlns:xlink="http://www.w3.org/1999/xlink">
    <title>清晰度</title>
    <g id="清晰度" stroke="none" stroke-width="1" fill="none" fill-rule="evenodd">
        <g id="0.图标/线型/icons_outlined_empty-screen" opacity="0.8"></g>
        <path d="M20,4 C20.5522847,4 21,4.44771525 21,5 L21,19 C21,19.5522847 20.5522847,20 20,20 L4,20 C3.44771525,20 3,19.5522847 3,19 L3,5 C3,4.44771525 3.44771525,4 4,4 L20,4 Z M19.8,5.2 L4.2,5.2 L4.2,18.8 L4.204,18.8 L19.8,5.235 L19.8,5.2 Z M19.8,6.825 L6.032,18.8 L9.538,18.8 L19.8,9.554 L19.8,6.825 Z M19.8,11.169 L11.33,18.8 L14.179,18.8 L19.8,13.808 L19.8,11.169 Z M19.8,15.413 L15.986,18.8 L19.8,18.8 L19.8,15.413 Z" id="形状结合" fill-opacity="0.9" fill="#000000"></path>
    </g>
</svg>