<?xml version="1.0" encoding="UTF-8"?>
<svg width="24px" height="24px" viewBox="0 0 24 24" version="1.1" xmlns="http://www.w3.org/2000/svg" xmlns:xlink="http://www.w3.org/1999/xlink">
    <title>Icon / Outlined / service</title>
    <g id="Icon-/-Outlined-/-service" stroke="none" stroke-width="1" fill="none" fill-rule="evenodd">
        <g id="编组">
            <rect id="矩形" x="0" y="0" width="24" height="24"></rect>
            <path d="M12,2 C16.7042826,2 20.5655736,5.60927591 20.9657826,10.2097372 L20.9687351,10.249852 C21.5837358,10.5909926 22,11.2468844 22,12 L22,13 C22,13.9037387 21.4005796,14.6674752 20.5776264,14.9153219 L20.568737,14.9179765 C19.4048244,17.673899 16.9496853,19.7512638 13.9613663,20.3927962 L13.9712349,20.3398963 C13.8098463,21.2825696 12.9887056,22 12,22 C10.8954305,22 10,21.1045695 10,20 C10,18.8954305 10.8954305,18 12,18 C12.8033233,18 13.4960276,18.4736161 13.814115,19.1568505 L13.8297351,19.1912515 L13.8297351,19.1912515 C16.1761468,18.6507701 18.1327064,17.0893652 19.2074544,15.0000262 L20,15 L20.0544149,14.9992741 C20.0363354,14.999757 20.0181961,15 20,15 L19.2819426,15 C18.8361832,15 18.6745401,14.9535872 18.5115771,14.8664336 C18.3486142,14.7792801 18.2207199,14.6513858 18.1335664,14.4884229 C18.0464128,14.3254599 18,14.1638168 18,13.7180574 L18,11.2819426 C18,10.8361832 18.0464128,10.6745401 18.1335664,10.5115771 C18.2207199,10.3486142 18.3486142,10.2207199 18.5115771,10.1335664 C18.6745401,10.0464128 18.8361832,10 19.2819426,10 L19.736,9.999 L19.7006278,9.75156996 C19.1031057,6.03720159 15.8828848,3.2 12,3.2 C8.0311754,3.2 4.75467281,6.16418288 4.26357297,9.99946788 L4.7180574,10 C5.16381677,10 5.32545989,10.0464128 5.48842285,10.1335664 C5.65138581,10.2207199 5.7792801,10.3486142 5.86643365,10.5115771 C5.95358719,10.6745401 6,10.8361832 6,11.2819426 L6,13.7180574 C6,14.1638168 5.95358719,14.3254599 5.86643365,14.4884229 C5.7792801,14.6513858 5.65138581,14.7792801 5.48842285,14.8664336 C5.32545989,14.9535872 5.16381677,15 4.7180574,15 L4,15 C2.8954305,15 2,14.1045695 2,13 L2,12 C2,11.2970921 2.36261235,10.6788769 2.91097906,10.3222124 L3.03024013,10.2504209 L3.03024013,10.2504209 C3.41218769,5.63009961 7.28216625,2 12,2 Z M12,19.2 C11.5581722,19.2 11.2,19.5581722 11.2,20 C11.2,20.4418278 11.5581722,20.8 12,20.8 C12.4418278,20.8 12.8,20.4418278 12.8,20 C12.8,19.5581722 12.4418278,19.2 12,19.2 Z M19.199,11.199 L19.199,13.8 L20,13.8 C20.407841,13.8 20.7444016,13.4948119 20.7937669,13.1003503 L20.8,13 L20.8,12 C20.8,11.592159 20.4948119,11.2555984 20.1003503,11.2062331 L20,11.2 L19.199,11.199 Z M4.8,11.199 L4,11.2 C3.59215895,11.2 3.25559842,11.5051881 3.20623314,11.8996497 L3.2,12 L3.2,13 C3.2,13.407841 3.50518815,13.7444016 3.8996497,13.7937669 L4,13.8 L4.8,13.8 L4.8,11.199 Z" id="形状结合" fill="#000000"></path>
        </g>
    </g>
</svg>