<?xml version="1.0" encoding="UTF-8"?>
<svg width="72px" height="72px" viewBox="0 0 72 72" version="1.1" xmlns="http://www.w3.org/2000/svg" xmlns:xlink="http://www.w3.org/1999/xlink">
    <!-- Generator: Sketch 52.2 (67145) - http://www.bohemiancoding.com/sketch -->
    <title>icons_filled_report-problem</title>
    <desc>Created with Sketch.</desc>
    <g id="icons_filled_report-problem" stroke="none" stroke-width="1" fill="none" fill-rule="evenodd">
        <path d="M63.803915,63.1581121 L8.19596837,63.1627725 C6.53911413,63.1629114 5.19585582,61.8198782 5.19571696,60.163024 C5.19567283,59.6364452 5.33423185,59.1191307 5.59746903,58.66307 L33.3967819,10.5005152 C34.2250448,9.06554246 36.0597597,8.57370695 37.4947324,9.40196981 C37.9508571,9.6652439 38.3296378,10.0439537 38.5929972,10.5000292 L66.4016309,58.6579236 C67.2301622,60.0927413 66.7386699,61.9275482 65.3038521,62.7560795 C64.8478235,63.0194119 64.3305135,63.158068 63.803915,63.1581121 Z M33.7412109,28.6347656 L34.0927734,45.6328125 L37.9072266,45.6328125 L38.2587891,28.6347656 L33.7412109,28.6347656 Z M35.9912109,54.3515625 C37.4326172,54.3515625 38.5576172,53.2441406 38.5576172,51.8554688 C38.5576172,50.4667969 37.4326172,49.3769531 35.9912109,49.3769531 C34.5673828,49.3769531 33.4423828,50.4667969 33.4423828,51.8554688 C33.4423828,53.2441406 34.5673828,54.3515625 35.9912109,54.3515625 Z" id="Combined-Shape" fill="#000000"></path>
    </g>
</svg>