<?xml version="1.0" encoding="UTF-8"?>
<svg width="20px" height="20px" viewBox="0 0 20 20" version="1.1" xmlns="http://www.w3.org/2000/svg" xmlns:xlink="http://www.w3.org/1999/xlink">
    <title>画板备份 4</title>
    <g id="画板备份-4" stroke="none" stroke-width="1" fill="none" fill-rule="evenodd">
        <g id="编组" fill="#FFFFFF">
            <path d="M10,2.5 C14.6023729,2.5 18.3333333,5.67131636 18.3333333,9.58333333 C18.3333333,11.6970037 17.2441683,13.5944442 15.5168698,14.8922778 L15.7686175,17.0580115 C15.7951878,17.286591 15.6314271,17.4934309 15.4028475,17.5200013 C15.324681,17.5290874 15.2455394,17.5158523 15.1745825,17.4818277 L12.6887882,16.2898632 C11.8452245,16.5341445 10.9408194,16.6666667 10,16.6666667 C5.39762709,16.6666667 1.66666667,13.4953503 1.66666667,9.58333333 C1.66666667,5.67131636 5.39762709,2.5 10,2.5 Z M6.5,8 C5.94771525,8 5.5,8.44771525 5.5,9 C5.5,9.55228475 5.94771525,10 6.5,10 C7.05228475,10 7.5,9.55228475 7.5,9 C7.5,8.44771525 7.05228475,8 6.5,8 Z M10,8 C9.44771525,8 9,8.44771525 9,9 C9,9.55228475 9.44771525,10 10,10 C10.5522847,10 11,9.55228475 11,9 C11,8.44771525 10.5522847,8 10,8 Z M13.5,8 C12.9477153,8 12.5,8.44771525 12.5,9 C12.5,9.55228475 12.9477153,10 13.5,10 C14.0522847,10 14.5,9.55228475 14.5,9 C14.5,8.44771525 14.0522847,8 13.5,8 Z" id="形状结合"></path>
        </g>
    </g>
</svg>