<?xml version="1.0" encoding="UTF-8"?>
<svg width="32px" height="32px" viewBox="0 0 32 32" version="1.1" xmlns="http://www.w3.org/2000/svg" xmlns:xlink="http://www.w3.org/1999/xlink">
    <!-- Generator: Sketch 62 (91390) - https://sketch.com -->
    <title>画板备份 2</title>
    <desc>Created with Sketch.</desc>
    <g id="画板备份-2" stroke="none" stroke-width="1" fill="none" fill-rule="evenodd">
        <g id="gift" fill="#000000">
            <g id="编组-21">
                <g transform="translate(3.000000, 3.000000)" fill-rule="nonzero">
                    <path d="M3.00691061,0 L5.09759307,2.09298085 C5.26241833,1.87030333 5.44909248,1.66081418 5.65660639,1.46761252 L5.841667,1.30430538 L6.02524569,1.15845962 C6.88693958,0.508204833 7.95817779,0.169490778 9.04611476,0.202157561 C10.2582561,0.238408851 11.3986745,0.724803715 12.2565149,1.57408371 L12.4359358,1.76159485 L12.5987477,1.95269161 L12.799,2.202 L13.0008773,1.9526191 C13.7615156,1.00714619 14.8599334,0.399808505 16.0661867,0.241341736 L16.308807,0.215666138 L16.5537783,0.202160768 C17.6414453,0.169486477 18.7126748,0.508240872 19.5743527,1.15848357 C20.5861998,1.92212647 21.2076887,3.03334474 21.3509943,4.23510998 L21.3732536,4.47659417 L21.38,4.645 L23.8769231,4.64537815 C24.7283807,4.64537815 25.4355935,5.2629638 25.5750459,6.07461965 L25.5936753,6.2197814 L25.6,6.36845507 L25.6,12.0436975 L24.4,12.043 L24.399,21.393 L26.8,23.7930894 L25.5930894,25 L1.8,1.20691061 L3.00691061,0 Z M3.237,4.644 L4.838,6.245 L1.72307692,6.24537815 C1.66869812,6.24537815 1.62255617,6.28064434 1.60627454,6.32955325 L1.6,6.36845507 L1.6,10.443 L9.035,10.442 L10.635,12.042 L2.8,12.0429974 L2.8,22.1538462 C2.8,22.6931026 3.20801018,23.1370633 3.73216386,23.1938613 L3.84615385,23.2 L21.7538462,23.2 L21.791,23.197 L23.0532422,24.4595278 C22.7607955,24.6246943 22.4337888,24.7358301 22.0857741,24.7793827 L21.9211931,24.794794 L21.7538462,24.8 L3.84615385,24.8 C2.44093229,24.8 1.2915419,23.7046566 1.20520599,22.3211931 L1.2,22.1538462 L1.2,12.043 L9.9475983e-14,12.0436975 L9.9475983e-14,6.36845507 C9.9475983e-14,5.46691171 0.692379757,4.7270823 1.57432656,4.65170288 L1.72298672,4.64537816 L3.237,4.644 Z M22.799,19.793 L22.8,12.0429974 L15.048,12.042 L22.799,19.793 Z M13.448,10.442 L24,10.443 L24,6.36845507 C24,6.32767097 23.9801628,6.2915201 23.9495912,6.26912486 L23.9157787,6.25165269 L23.8768329,6.24537815 L9.251,6.245 L13.448,10.442 Z M16.6018217,1.8014393 L16.3884579,1.81479588 C15.6120369,1.88900631 14.8999598,2.238939 14.3833893,2.798026 L14.2474523,2.9556399 L12.887,4.64499741 L19.7835837,4.64547551 C19.7504081,3.85910009 19.3956577,3.10751535 18.773144,2.56725431 L18.6105457,2.43561943 C18.0405457,2.00548384 17.3264651,1.7796705 16.6018217,1.8014393 Z M8.99818974,1.80143964 C8.27314877,1.77966931 7.55905508,2.00545809 6.98894443,2.4356772 C6.68618918,2.66408658 6.43766258,2.93905011 6.24824591,3.24339353 L7.651,4.645 L12.711,4.64499741 L11.3671415,2.97376079 L11.2351176,2.81870211 C10.6695501,2.19508607 9.86443001,1.82734614 8.99818974,1.80143964 Z" id="形状结合"></path>
                </g>
            </g>
        </g>
    </g>
</svg>