<?xml version="1.0" encoding="UTF-8"?>
<svg width="24px" height="24px" viewBox="0 0 24 24" version="1.1" xmlns="http://www.w3.org/2000/svg" xmlns:xlink="http://www.w3.org/1999/xlink">
    <title>画板</title>
    <g id="画板" stroke="none" stroke-width="1" fill="none" fill-rule="evenodd">
        <g id="编组-2" fill="#FFFFFF" fill-rule="nonzero">
            <path d="M14.999,5 L15,5.47180574 C15,5.66341128 15.0335687,5.83724433 15.1315434,6.02044114 C15.2334586,6.21100591 15.3889941,6.36654141 15.5795589,6.46845656 L15.6885704,6.51975937 C15.8329998,6.57851602 15.9749098,6.6 16.1281943,6.6 L17.399,6.598 L17.4000001,7.87224572 C17.4,8.06341128 17.4335687,8.23724433 17.5315434,8.42044114 C17.6334586,8.61100591 17.7889941,8.76654141 17.9795589,8.86845656 C18.1627557,8.96643129 18.3365887,9 18.5281943,9 L19.4718057,9 C19.6634113,9 19.8372443,8.96643129 20.0204411,8.86845656 C20.2110059,8.76654141 20.3665414,8.61100591 20.4684566,8.42044114 L20.4730198,8.41047274 C20.8607904,9.42227715 21.1563098,10.6888968 21.3104392,12.24855 C21.6942573,16.1295799 21.4985481,18.4043005 20.6929101,19.4079785 C20.3793953,19.8005376 19.9727761,20 19.4882532,20 C18.2436945,20 17.5349611,19.1681992 16.7122223,18.20696 C16.4215086,17.8674494 16.1193943,17.5130853 15.7697778,17.1629651 C14.8501344,16.2462866 13.9228907,16.1189702 13.06025,16.1189702 C12.9063428,16.1189702 12.7543356,16.123214 12.6099288,16.1274579 C12.4712222,16.1317018 12.3363159,16.1338237 12.2090099,16.1338237 L11.7928902,16.1338237 C11.6655842,16.1338237 11.5306779,16.1295799 11.3919713,16.1274579 C11.2475645,16.123214 11.0974574,16.1189702 10.9416501,16.1189702 C10.0771093,16.1189702 9.15176564,16.2462866 8.23212226,17.1629651 C7.88060568,17.5130853 7.58039151,17.8653275 7.28777771,18.20696 C6.46693899,19.1681992 5.75630547,20 4.51174676,20 C4.0272239,20 3.62250481,19.8005376 3.30708993,19.4079785 C2.50145192,18.4021785 2.30574269,16.1274579 2.6895608,12.24855 C3.21968581,6.90338096 5.40668897,5 7.27827726,5 L14.999,5 Z M16,9.5 C14.840202,9.5 13.9,10.440202 13.9,11.6 C13.9,12.759798 14.840202,13.7 16,13.7 C17.159798,13.7 18.1,12.759798 18.1,11.6 C18.1,10.440202 17.159798,9.5 16,9.5 Z M8.30895238,9.6244898 L7.69104762,9.6244898 C7.62136506,9.6244898 7.56223745,9.66968089 7.54137371,9.73235417 L7.53333333,9.78220408 L7.533,11.1574898 L6.15771429,11.1578231 C6.08803173,11.1578231 6.02890412,11.2030142 6.00804038,11.2656875 L6,11.3155374 L6,11.9334422 C6,12.0031247 6.0451911,12.0622523 6.10786437,12.0831161 L6.15771429,12.0911565 L7.533,12.0904898 L7.53333333,13.4667755 C7.53333333,13.5364581 7.57852443,13.5955857 7.64119771,13.6164494 L7.69104762,13.6244898 L8.30895238,13.6244898 C8.37863494,13.6244898 8.43776255,13.5792987 8.45862629,13.5166254 L8.46666667,13.4667755 L8.466,12.0904898 L9.84228571,12.0911565 C9.91196827,12.0911565 9.97109588,12.0459654 9.99195962,11.9832921 L10,11.9334422 L10,11.3155374 C10,11.2458549 9.9548089,11.1867272 9.89213563,11.1658635 L9.84228571,11.1578231 L8.466,11.1574898 L8.46666667,9.78220408 C8.46666667,9.69510089 8.39605558,9.6244898 8.30895238,9.6244898 Z M19.4718057,2 C19.5163817,2 19.532546,2.00464128 19.5488423,2.01335664 C19.5651386,2.02207199 19.577928,2.03486142 19.5866434,2.05115771 C19.5924536,2.06202191 19.5964531,2.07282745 19.5984739,2.09203169 L19.599,4.399 L21.8718057,4.4 C21.9163817,4.4 21.932546,4.40464128 21.9488423,4.41335664 C21.9651386,4.42207199 21.977928,4.43486142 21.9866434,4.45115771 C21.9924536,4.46202191 21.9964531,4.47282745 21.9984739,4.49203169 L22,5.47180574 C22,5.51638168 21.9953587,5.53254599 21.9866434,5.54884229 C21.977928,5.56513858 21.9651386,5.57792801 21.9488423,5.58664336 C21.9379781,5.5924536 21.9271725,5.59645314 21.9079683,5.59847391 L19.599,5.599 L19.5987748,6.72905881 C19.5990176,6.72940313 19.5992605,6.7297475 19.5995033,6.73009193 L19.6,7.87180574 C19.6,7.91638168 19.5953587,7.93254599 19.5866434,7.94884229 C19.577928,7.96513858 19.5651386,7.97792801 19.5488423,7.98664336 C19.5379781,7.9924536 19.5271725,7.99645314 19.5079683,7.99847391 L19.4718057,8 L19.4718057,8 L18.5281943,8 C18.4836183,8 18.467454,7.99535872 18.4511577,7.98664336 C18.4348614,7.97792801 18.422072,7.96513858 18.4133566,7.94884229 C18.4046413,7.93254599 18.4,7.91638168 18.4,7.87180574 L18.399,5.599 L16.1281943,5.6 C16.0836183,5.6 16.067454,5.59535872 16.0511577,5.58664336 C16.0348614,5.57792801 16.022072,5.56513858 16.0133566,5.54884229 C16.0046413,5.53254599 16,5.51638168 16,5.47180574 L15.999,5 L15.999,5 L16,4.52819426 C16,4.48361832 16.0046413,4.46745401 16.0133566,4.45115771 C16.022072,4.43486142 16.0348614,4.42207199 16.0511577,4.41335664 C16.067454,4.40464128 16.0836183,4.4 16.1281943,4.4 L18.399,4.399 L18.4,2.12819426 C18.4,2.08361832 18.4046413,2.06745401 18.4133566,2.05115771 C18.422072,2.03486142 18.4348614,2.02207199 18.4511577,2.01335664 C18.4620219,2.0075464 18.4728275,2.00354686 18.4920317,2.00152609 L19.4718057,2 Z" id="形状结合"></path>
            <g id="编组" transform="translate(15.000000, 10.400000)">
                <path d="M0,1.2 C0,1.75228475 0.44771525,2.2 1,2.2 C1.55228475,2.2 2,1.75228475 2,1.2 C2,0.64771525 1.55228475,0.2 1,0.2 C0.44771525,0.2 0,0.64771525 0,1.2 L0,1.2 Z" id="路径"></path>
            </g>
        </g>
    </g>
</svg>