<?xml version="1.0" encoding="UTF-8"?>
<svg width="32px" height="32px" viewBox="0 0 32 32" version="1.1" xmlns="http://www.w3.org/2000/svg" xmlns:xlink="http://www.w3.org/1999/xlink">
    <title>画板</title>
    <g id="画板" stroke="none" stroke-width="1" fill="none" fill-rule="evenodd">
        <g id="编组-27" transform="translate(2.838710, 3.777778)">
            <path d="M21.5806452,12 C25.2150351,12 28.1612903,14.9598953 28.1612903,18.6111111 C28.1612903,22.262327 25.2150351,25.2222222 21.5806452,25.2222222 C17.9462552,25.2222222 15,22.262327 15,18.6111111 C15,14.9598953 17.9462552,12 21.5806452,12 Z M18.0599207,14.9988929 C17.1271791,15.9165668 16.5483871,17.195934 16.5483871,18.6111111 C16.5483871,21.4032173 18.8014058,23.6666667 21.5806452,23.6666667 C22.3932434,23.6666667 23.1608566,23.4731713 23.8403238,23.1295414 Z M21.5806452,13.5555556 C20.7672877,13.5555556 19.9989993,13.7494127 19.319062,14.0936445 L25.1013696,22.2233293 C26.0341112,21.3056554 26.6129032,20.0262882 26.6129032,18.6111111 C26.6129032,15.8190049 24.3598845,13.5555556 21.5806452,13.5555556 Z" id="形状结合" fill="#FFFFFF" fill-rule="nonzero"></path>
            <g id="icons_outlined_mini_window备份" transform="translate(0.161290, 0.222222)">
                <path d="M23.3333333,0 C24.0697129,0 24.6666667,0.596953667 24.6666667,1.33333333 L24.6666667,13.3333333 L23.0666667,13.3333333 L23.0666667,1.6 L1.6,1.6 L1.6,19.7333333 L15.9550781,19.7333333 L15.9550781,21.3333333 L1.33333333,21.3333333 C0.596953667,21.3333333 0,20.7363796 0,20 L0,1.33333333 C0,0.596953667 0.596953667,0 1.33333333,0 L23.3333333,0 Z" id="形状结合" fill="#FFFFFF" fill-rule="nonzero"></path>
                <g id="编组-28" transform="translate(5.000000, 5.500000)" stroke="#FFFFFF" stroke-linecap="square" stroke-width="1.4">
                    <line x1="13.5" y1="0.5" x2="0.5" y2="0.5" id="直线-2"></line>
                    <line x1="13.6388889" y1="4.5" x2="0.5" y2="4.5" id="直线-2备份"></line>
                    <line x1="7.5" y1="8.5" x2="0.5" y2="8.5" id="直线-2备份-2"></line>
                </g>
            </g>
        </g>
    </g>
</svg>