<?xml version="1.0" encoding="UTF-8"?>
<svg width="12px" height="12px" viewBox="0 0 12 12" version="1.1" xmlns="http://www.w3.org/2000/svg" xmlns:xlink="http://www.w3.org/1999/xlink">
    <!-- Generator: Sketch 61.2 (89653) - https://sketch.com -->
    <title>画板</title>
    <desc>Created with Sketch.</desc>
    <g id="画板" stroke="none" stroke-width="1" fill="none" fill-rule="evenodd">
        <g id="编组" transform="translate(-0.000000, -0.000000)">
            <g id="编组-2" transform="translate(0.000000, 1.000000)"></g>
            <path d="M9.4361148,1 C10.3276335,1 10.6509198,1.09282561 10.9768457,1.2671327 C11.3027716,1.4414398 11.5585602,1.69722837 11.7328673,2.0231543 C11.9071744,2.34908022 12,2.67236646 12,3.5638852 L12,8.4361148 C12,9.32763354 11.9071744,9.65091978 11.7328673,9.9768457 C11.5585602,10.3027716 11.3027716,10.5585602 10.9768457,10.7328673 C10.6509198,10.9071744 10.3276335,11 9.4361148,11 L2.5638852,11 C1.67236646,11 1.34908022,10.9071744 1.0231543,10.7328673 C0.69722837,10.5585602 0.441439796,10.3027716 0.267132704,9.9768457 C0.0928256109,9.65091978 -2.6068832e-10,9.32763354 -2.60688429e-10,8.4361148 L-2.60688291e-10,3.5638852 C-2.606884e-10,2.67236646 0.0928256109,2.34908022 0.267132704,2.0231543 C0.441439796,1.69722837 0.69722837,1.4414398 1.0231543,1.2671327 C1.34908022,1.09282561 1.67236646,1 2.5638852,1 L9.4361148,1 Z M5.20266667,3.28 C4.98175277,3.28 4.80266667,3.4590861 4.80266667,3.68 L4.80266667,3.68 L4.80266667,8.32 C4.80266667,8.5409139 4.98175277,8.72 5.20266667,8.72 C5.42358057,8.72 5.60266667,8.5409139 5.60266667,8.32 L5.60266667,8.32 L5.60266667,3.68 C5.60266667,3.4590861 5.42358057,3.28 5.20266667,3.28 Z M8.40266667,4.4 C8.18175277,4.4 8.00266667,4.5790861 8.00266667,4.8 L8.00266667,4.8 L8.00266667,7.2 C8.00266667,7.4209139 8.18175277,7.6 8.40266667,7.6 C8.62358057,7.6 8.80266667,7.4209139 8.80266667,7.2 L8.80266667,7.2 L8.80266667,4.8 C8.80266667,4.5790861 8.62358057,4.4 8.40266667,4.4 Z M3.60266667,4.4 C3.38175277,4.4 3.20266667,4.5790861 3.20266667,4.8 L3.20266667,4.8 L3.20266667,7.2 C3.20266667,7.4209139 3.38175277,7.6 3.60266667,7.6 C3.82358057,7.6 4.00266667,7.4209139 4.00266667,7.2 L4.00266667,7.2 L4.00266667,4.8 C4.00266667,4.5790861 3.82358057,4.4 3.60266667,4.4 Z M6.80266667,4.8 C6.58175277,4.8 6.40266667,4.9790861 6.40266667,5.2 L6.40266667,5.2 L6.40266667,6.8 C6.40266667,7.0209139 6.58175277,7.2 6.80266667,7.2 C7.02358057,7.2 7.20266667,7.0209139 7.20266667,6.8 L7.20266667,6.8 L7.20266667,5.2 C7.20266667,4.9790861 7.02358057,4.8 6.80266667,4.8 Z" id="形状结合" fill="#6467F0"></path>
        </g>
    </g>
</svg>