<?xml version="1.0" encoding="UTF-8"?>
<svg width="16px" height="16px" viewBox="0 0 16 16" version="1.1" xmlns="http://www.w3.org/2000/svg" xmlns:xlink="http://www.w3.org/1999/xlink">
    <!-- Generator: Sketch 61.2 (89653) - https://sketch.com -->
    <title>画板</title>
    <desc>Created with Sketch.</desc>
    <g id="画板" stroke="none" stroke-width="1" fill="none" fill-rule="evenodd">
        <g id="0.图标/线型/icons_outlined_like" fill="#000000">
            <g id="common_icons_like">
                <path d="M12.8564257,8.43006352 C13.8191704,7.43783457 13.8079319,5.85435813 12.8289033,4.87532949 C11.8395751,3.88600128 10.2355572,3.88600128 9.24622895,4.87532949 C9.11805239,5.00350604 8.95547086,5.16033316 8.7577425,5.34663013 L8.209139,5.86351689 L7.66053549,5.34663013 C7.46280714,5.16033316 7.30022561,5.00350604 7.17204905,4.87532949 C6.18272085,3.88600128 4.5787029,3.88600128 3.5893747,4.87532949 C2.61035807,5.85434611 2.59905543,7.43791358 3.55311575,8.4217449 L8.20911066,13.0777882 L12.8564257,8.43006352 Z M3.02368927,4.30964406 C4.32543691,3.00789642 6.43598684,3.00789642 7.73773448,4.30964406 C7.85960562,4.4315152 8.01674046,4.58308841 8.209139,4.7643637 C8.40153754,4.58308841 8.55867238,4.4315152 8.68054352,4.30964406 C9.98229116,3.00789642 12.0928411,3.00789642 13.3945887,4.30964406 C14.6842275,5.59928286 14.6962237,7.682747 13.4305773,8.98715411 L8.68054352,13.7377345 C8.42020762,13.9980976 7.99809763,13.9981197 7.73773448,13.7377838 L2.98742738,8.98742738 C1.72205427,7.682747 1.73405047,5.59928286 3.02368927,4.30964406 Z" id="Combined-Shape"></path>
            </g>
        </g>
    </g>
</svg>