<?xml version="1.0" encoding="UTF-8"?>
<svg width="28px" height="28px" viewBox="0 0 28 28" version="1.1" xmlns="http://www.w3.org/2000/svg" xmlns:xlink="http://www.w3.org/1999/xlink">
    <title>画板</title>
    <defs>
        <filter id="filter-1">
            <feColorMatrix in="SourceGraphic" type="matrix" values="0 0 0 0 1.000000 0 0 0 0 1.000000 0 0 0 0 1.000000 0 0 0 1.000000 0"></feColorMatrix>
        </filter>
        <filter id="filter-2">
            <feColorMatrix in="SourceGraphic" type="matrix" values="0 0 0 0 0.000000 0 0 0 0 0.000000 0 0 0 0 0.000000 0 0 0 1.000000 0"></feColorMatrix>
        </filter>
    </defs>
    <g id="画板" stroke="none" stroke-width="1" fill="none" fill-rule="evenodd">
        <g filter="url(#filter-1)" id="游戏备份">
            <g filter="url(#filter-2)" id="编组-5">
                <g id="编组" transform="translate(1.400000, 4.666667)" fill="#FFFFFF" fill-rule="nonzero">
                    <path d="M18.8553667,3.37507799e-14 C21.3367457,3.37507799e-14 24.2388255,2.5015864 24.9391537,9.52666572 C25.4480254,14.6274478 25.1885512,17.6170806 24.1204246,18.9362003 C23.7047622,19.4521351 23.1656605,19.7142857 22.5232731,19.7142857 C20.8732191,19.7142857 19.93357,18.6210618 18.8427709,17.3577188 C18.4573384,16.911505 18.056791,16.4457693 17.5932643,15.9856112 C16.3739878,14.7808338 15.1446345,14.6135036 14.000933,14.6135036 C13.7968805,14.6135036 13.5953472,14.6190813 13.4038905,14.624659 C13.2199914,14.6302366 13.0411306,14.6330255 12.8723464,14.6330255 L12.320649,14.6330255 C12.1518648,14.6330255 11.973004,14.6274478 11.7891048,14.624659 C11.5976482,14.6190813 11.398634,14.6135036 11.1920624,14.6135036 C10.0458416,14.6135036 8.81900758,14.7808338 7.59973101,15.9856112 C7.13368522,16.4457693 6.73565692,16.9087161 6.34770528,17.3577188 C5.25942538,18.6210618 4.31725712,19.7142857 2.66720309,19.7142857 C2.02481565,19.7142857 1.48823319,19.4521351 1.07005156,18.9362003 C0.00192498217,17.6142918 -0.257549163,14.624659 0.251322461,9.52666572 C0.954169903,2.5015864 3.85373049,3.37507799e-14 6.33510945,3.37507799e-14 L18.8553667,3.37507799e-14 L18.8553667,3.37507799e-14 Z M7.84920635,4.38095238 L6.82698413,4.38095238 C6.68584469,4.38095238 6.57142857,4.4953685 6.57142857,4.63650794 L6.57142857,4.63650794 L6.57138095,6.89995238 L4.30793651,6.9 C4.16679707,6.9 4.05238095,7.01441612 4.05238095,7.15555556 L4.05238095,7.15555556 L4.05238095,8.17777778 C4.05238095,8.31891721 4.16679707,8.43333333 4.30793651,8.43333333 L4.30793651,8.43333333 L6.57138095,8.43295238 L6.57142857,10.6968254 C6.57142857,10.8379648 6.68584469,10.952381 6.82698413,10.952381 L6.82698413,10.952381 L7.84920635,10.952381 C7.99034579,10.952381 8.1047619,10.8379648 8.1047619,10.6968254 L8.1047619,10.6968254 L8.10438095,8.43295238 L10.368254,8.43333333 C10.5093934,8.43333333 10.6238095,8.31891721 10.6238095,8.17777778 L10.6238095,8.17777778 L10.6238095,7.15555556 C10.6238095,7.01441612 10.5093934,6.9 10.368254,6.9 L10.368254,6.9 L8.10438095,6.89995238 L8.1047619,4.63650794 C8.1047619,4.4953685 7.99034579,4.38095238 7.84920635,4.38095238 L7.84920635,4.38095238 Z M17.852381,4.38095238 C16.0377311,4.38095238 14.5666667,5.85201677 14.5666667,7.66666667 C14.5666667,9.48131656 16.0377311,10.952381 17.852381,10.952381 C19.6670308,10.952381 21.1380952,9.48131656 21.1380952,7.66666667 C21.1380952,5.85201677 19.6670308,4.38095238 17.852381,4.38095238 Z" id="形状结合"></path>
                    <path d="M15.9833333,7.66666667 C15.9833333,8.69496827 16.8169365,9.52857143 17.8452381,9.52857143 C18.8735397,9.52857143 19.7071429,8.69496827 19.7071429,7.66666667 C19.7071429,6.63836506 18.8735397,5.8047619 17.8452381,5.8047619 C16.8169365,5.8047619 15.9833333,6.63836506 15.9833333,7.66666667 L15.9833333,7.66666667 Z" id="路径"></path>
                </g>
            </g>
        </g>
    </g>
</svg>