<?xml version="1.0" encoding="UTF-8"?>
<svg width="32px" height="32px" viewBox="0 0 32 32" version="1.1" xmlns="http://www.w3.org/2000/svg" xmlns:xlink="http://www.w3.org/1999/xlink">
    <title>画板备份</title>
    <g id="画板备份" stroke="none" stroke-width="1" fill="none" fill-rule="evenodd">
        <g id="游戏" fill="#FFFFFF" fill-rule="nonzero">
            <path d="M6.26274246,4 L8.54504767,6.28287719 C9.01409843,6.11853875 9.5074368,6.02426522 10.0226265,6.00410353 L10.233281,6 L21.7664405,6 C25.4396122,6 28.043993,9.7090895 28.7239747,15.7101403 L28.7610633,16.0588875 L28.8532909,17.0670362 C28.8835032,17.4315015 28.9090677,17.7836738 28.9300415,18.1251519 L28.9580664,18.6295483 L28.98783,19.3897471 C29.0713368,22.3525694 28.7289262,24.3387845 27.8420344,25.5788287 L28.5666385,26.3038961 L27.4352677,27.435267 L25.27,25.27 L25.271,25.271 L14.183,14.183 L14.183,14.183 L13.769,13.769 L13.77,13.77 L11.863,11.863 L11.863,11.863 L11.443,11.443 L11.444,11.444 L8.32021919,8.32012336 L7.07987931,7.08077279 C7.08021714,7.08051509 7.08055498,7.08025743 7.08089283,7.07999982 L5.13137157,5.13137089 L6.26274246,4 Z M5.93912165,8.2012557 L7.16347919,9.42544794 C6.05312958,10.8603796 5.2551753,13.1695759 4.94996401,16.2268829 C4.86263259,17.1037016 4.80024656,17.9073227 4.76274427,18.637634 L4.74322845,19.0670227 L4.72293154,19.7853099 C4.68151154,22.3149848 4.99972598,23.8916671 5.63327245,24.6774568 C5.95927541,25.0805453 6.36235244,25.2767427 6.85455257,25.2767427 C7.88679323,25.2767427 8.44037969,24.9685417 9.62544302,23.642234 L9.79915341,23.4457589 L10.5032098,22.6362503 L10.7795303,22.3322187 L10.9566444,22.1456912 L11.1714484,21.9279456 C12.1079457,21.0005621 13.0697178,20.6140384 14.4579275,20.5718984 L14.7233121,20.5679849 L15.6414432,20.5852461 L16.2482077,20.5858856 L16.4860243,20.5840325 L17.2947306,20.5678357 C17.6894269,20.5678357 18.0508458,20.5932656 18.3873411,20.6484933 L24.7177878,26.9826244 C23.4950631,26.8801994 22.5245308,26.3201834 21.4408322,25.176541 L21.2382939,24.9575298 L21.1675663,24.878742 L20.2581543,23.8335373 L19.9542597,23.4977811 L19.6218752,23.153597 C19.0149362,22.5525645 18.4645912,22.3240455 17.5338364,22.2943257 L17.3120951,22.2909172 L16.5103029,22.3070862 L16.2542674,22.3091146 L15.6245882,22.3083538 L14.7073115,22.2910929 C13.6207426,22.2910929 13.0343282,22.5058017 12.3797936,23.1539665 L12.2876165,23.246275 L12.1978605,23.3382567 L12.0383141,23.5060059 L11.7873311,23.7821506 L11.0935668,24.5801164 C9.48969006,26.4117312 8.52260664,27 6.85455257,27 C5.83916538,27 4.94709161,26.5657838 4.29663801,25.7615246 C3.38603548,24.6321037 2.99103973,22.8220484 3.00015401,20.1207563 L3.00389121,19.7468543 L3.02473647,19.0088452 C3.05955902,18.1214425 3.13091231,17.1406164 3.23898769,16.0555258 C3.5797492,12.6421115 4.52991635,9.94076176 5.93912165,8.2012557 Z M21.7664405,7.72325727 L10.233281,7.72325727 C10.1531965,7.72325727 10.0736116,7.72607759 9.99455457,7.73169851 L18.1770204,15.9159826 C17.9466258,15.4880011 17.8158618,14.9982099 17.8158618,14.4778103 C17.8158618,12.8025736 19.1709474,11.4445259 20.8425302,11.4445259 C22.514113,11.4445259 23.8691985,12.8025736 23.8691985,14.4778103 C23.8691985,16.1530471 22.514113,17.5110948 20.8425302,17.5110948 C20.3254044,17.5110948 19.8385691,17.3811223 19.4127746,17.1519947 L26.59584,24.3342405 C27.0766107,23.470781 27.3126477,21.9923704 27.27712,19.797352 L27.2693376,19.4479174 L27.2402907,18.7061521 C27.216943,18.2352591 27.1833901,17.736382 27.139688,17.2093767 L27.092605,16.6729901 L27.0497617,16.2269251 C26.5094203,10.7948452 24.410062,7.72325727 21.7664405,7.72325727 Z M10.45,12.713 L12.922,15.185 L11.8629095,15.1850712 L11.8634139,17.2751727 C11.8634139,17.4054689 11.7580184,17.5110948 11.6280064,17.5110948 L10.6863762,17.5110948 C10.5563642,17.5110948 10.4509687,17.4054689 10.4509687,17.2751727 L10.4507713,15.1850712 L8.36593048,15.1855767 C8.23591848,15.1855767 8.13052293,15.0799508 8.13052293,14.9496546 L8.13052293,14.0059661 C8.13052293,13.8756699 8.23591848,13.770044 8.36593048,13.770044 L10.4507713,13.7698461 L10.45,12.713 Z M20.8425302,12.5215616 C19.7644804,12.5215616 18.8905484,13.397404 18.8905484,14.4778103 C18.8905484,15.5582167 19.7644804,16.434059 20.8425302,16.434059 C21.9205799,16.434059 22.7945119,15.5582167 22.7945119,14.4778103 C22.7945119,13.397404 21.9205799,12.5215616 20.8425302,12.5215616 Z" id="形状结合"></path>
        </g>
    </g>
</svg>