<?xml version="1.0" encoding="UTF-8"?>
<svg width="32px" height="32px" viewBox="0 0 32 32" version="1.1" xmlns="http://www.w3.org/2000/svg" xmlns:xlink="http://www.w3.org/1999/xlink">
    <title>画板</title>
    <g id="画板" stroke="none" stroke-width="1" fill="none" fill-rule="evenodd">
        <g id="编组-29">
            <rect id="矩形" x="0" y="0" width="32" height="32"></rect>
            <g id="编组-13" transform="translate(3.000000, 4.000000)" stroke="#FFFFFF">
                <path d="M4.05102518,-0.7 C4.51837547,-0.684809018 4.92442086,-0.549494601 5.26134705,-0.324855589 C5.61354735,-0.0900328561 5.89151963,0.242938474 6.05890518,0.646474947 L6.05890518,0.646474947 L7.81398847,5.31349936 C7.97548925,5.75766913 7.93804315,6.00600502 7.6884118,6.46370641 C7.27374213,7.1897245 6.2947549,8.98472059 5.7440713,10.0657958 C5.64674545,10.2469441 5.59413194,10.4394651 5.59413194,10.6323907 C5.59413194,10.8314048 5.65833659,11.0296225 5.75763501,11.1909979 C6.61865796,12.6526171 7.61017456,14.0245067 8.78626269,15.2007427 C9.9569518,16.3913882 11.3273952,17.3817254 12.7757025,18.2349197 C12.9486308,18.3411938 13.1343628,18.4053985 13.3457632,18.4053985 C13.551501,18.4053985 13.7311162,18.3527852 13.907402,18.2579428 C14.2621276,18.0737407 14.6987108,17.8417787 15.1506287,17.5991061 L15.6960332,17.3051291 C16.4217001,16.9126279 17.1185038,16.5306458 17.5139658,16.3109365 C17.9670836,16.0637576 18.1712853,16.0186583 18.6596412,16.183577 L18.6596412,16.183577 L23.3307922,17.9405944 C23.7303063,18.1063457 24.0608202,18.3805028 24.2981717,18.7286518 C24.524341,19.0603986 24.6660998,19.4605599 24.6959129,19.8984156 C24.7207021,20.2253342 24.5996697,20.6019033 24.5437213,20.7523663 C24.1048155,21.9477402 23.3368598,22.9356967 22.3505877,23.6290424 C21.3906384,24.3038832 20.2232459,24.7 18.9596204,24.7 C18.2545775,24.7 17.5939276,24.5444972 17.404692,24.4924565 C12.9642687,23.473094 9.0097431,21.2088308 5.90027476,18.0990641 C2.78587774,14.9843683 0.519584294,11.0218512 -0.497331989,6.57241558 C-0.592514147,6.11554766 -0.7,5.59072148 -0.7,5.03856041 C-0.7,3.77484641 -0.303927387,2.60737393 0.370830761,1.64735803 C1.06505281,0.659649755 2.05505489,-0.108153533 3.21328874,-0.533668019 C3.36208297,-0.584290059 3.73275602,-0.7 4.05102518,-0.7 Z" id="XMLID_46_-path" stroke-width="1.4"></path>
                <path d="M20.8888889,2 C21.2395459,2 21.5238095,2.27551708 21.5238095,2.61538462 L21.5238095,9.38461538 C21.5238095,9.72448292 21.2395459,10 20.8888889,10 L12.6349206,10 C12.2842637,10 12,9.72448292 12,9.38461538 L12,2.61538462 C12,2.27551708 12.2842637,2 12.6349206,2 L20.8888889,2 Z M25.1942024,3.20364911 C25.2842662,3.31276483 25.3333333,3.44834052 25.3333333,3.58807683 L25.3333333,8.41192317 C25.3333333,8.75179071 25.0490697,9.02730779 24.6984127,9.02730779 C24.5542403,9.02730779 24.4143606,8.9797504 24.3017809,8.89245782 L22.1587302,7.23076923 L22.1587302,4.76923077 L24.3017809,3.10754218 C24.575598,2.89522861 24.9751487,2.93825715 25.1942024,3.20364911 Z" id="形状结合" stroke-width="1.3"></path>
            </g>
        </g>
    </g>
</svg>