<?xml version="1.0" encoding="UTF-8"?>
<svg width="20px" height="20px" viewBox="0 0 20 20" version="1.1" xmlns="http://www.w3.org/2000/svg" xmlns:xlink="http://www.w3.org/1999/xlink">
    <title>画板备份 4</title>
    <g id="画板备份-4" stroke="none" stroke-width="1" fill="none" fill-rule="evenodd">
        <g id="icon22" fill="#FFFFFF">
            <path d="M10,1.66666667 C14.6023729,1.66666667 18.3333333,5.39762708 18.3333333,10 C18.3333333,14.6023729 14.6023729,18.3333333 10,18.3333333 C5.39762709,18.3333333 1.66666667,14.6023729 1.66666667,10 C1.66666667,5.39762708 5.39762709,1.66666667 10,1.66666667 Z M10,3.33333333 C6.31810167,3.33333333 3.33333333,6.31810167 3.33333333,10 C3.33333333,13.6818983 6.31810167,16.6666667 10,16.6666667 C13.6818983,16.6666667 16.6666667,13.6818983 16.6666667,10 C16.6666667,6.31810167 13.6818983,3.33333333 10,3.33333333 Z" id="Combined-Shape"></path>
            <polygon id="Path" transform="translate(10.000000, 10.000000) scale(-1, 1) rotate(45.000000) translate(-10.000000, -10.000000) " points="9.00484156 2.20790107 11 2.21127349 10.9951584 17.7920989 9 17.7887265"></polygon>
        </g>
    </g>
</svg>