<?xml version="1.0" encoding="UTF-8"?>
<svg width="24px" height="24px" viewBox="0 0 24 24" version="1.1" xmlns="http://www.w3.org/2000/svg" xmlns:xlink="http://www.w3.org/1999/xlink">
    <title>编组 26备份</title>
    <g id="20210305" stroke="none" stroke-width="1" fill="none" fill-rule="evenodd">
        <g id="编组-26备份">
            <rect id="矩形" x="0" y="0" width="24" height="24"></rect>
            <path d="M6,17 L6,18.4 L4,18.4 L4,17 L6,17 Z M20,17 L20,18.4 L7.6,18.4 L7.6,17 L20,17 Z M6,11 L6,12.4 L4,12.4 L4,11 L6,11 Z M20,11 L20,12.4 L7.6,12.4 L7.6,11 L20,11 Z M20,5 L20,6.4 L7.6,6.399 L7.6,5 L20,5 Z M6,6.399 L4,6.4 L4,5 L6,5 L6,6.399 Z" id="形状结合" fill="#FFFFFF" opacity="0.801757812"></path>
        </g>
    </g>
</svg>