<?xml version="1.0" encoding="UTF-8"?>
<svg width="24px" height="24px" viewBox="0 0 24 24" version="1.1" xmlns="http://www.w3.org/2000/svg" xmlns:xlink="http://www.w3.org/1999/xlink">
    <!-- Generator: Sketch 63.1 (92452) - https://sketch.com -->
    <title>3.Icons/Filled/cheers</title>
    <desc>Created with Sketch.</desc>
    <g id="3.Icons/Filled/cheers" stroke="none" stroke-width="1" fill="none" fill-rule="evenodd">
        <g id="编组" fill="#FFFFFF">
            <path d="M16.1771236,16.1993227 C16.3986842,16.4224616 16.3986842,16.7842261 16.1771236,17.007365 C16.1208139,17.0640526 16.0532937,17.1081813 15.9789445,17.1368723 L3.57770797,21.9224514 C3.14919738,22.0878116 2.66418837,21.9838457 2.33968235,21.6570926 C2.0153408,21.3304304 1.91265293,20.8419467 2.07774532,20.410958 L6.85291172,7.9449513 C6.96568605,7.65054364 7.29410386,7.50394432 7.58645344,7.61751256 C7.66034211,7.64621589 7.72744528,7.690179 7.78344501,7.74657295 L16.1771236,16.1993227 Z M15.2417575,2 L15.2234925,5.27215895 L16.9445464,8.03726688 L13.727477,8.01600753 L11.0062159,9.76842531 L11.0259476,6.49357631 L9.30342701,3.73115842 L12.5240194,3.74912827 L15.2417575,2 Z M18.642114,10.3667291 C18.6381861,10.6822583 18.3810729,10.9349089 18.0677495,10.9310401 C17.6674276,10.9260971 17.2486489,11.0053717 16.4808733,11.2273514 C16.2904126,11.2824175 16.0874744,11.3583363 15.8757153,11.4523902 C15.5382567,11.6022742 15.1966136,11.7895134 14.8707396,11.9935107 L14.66185,12.1278946 L14.4547874,12.2709651 C14.2017032,12.4570214 13.8467637,12.4012402 13.662008,12.1463743 C13.4772523,11.8915083 13.5326436,11.5340702 13.7857279,11.3480139 L13.9352208,11.2425179 L14.271675,11.0230183 C14.6396136,10.7926885 15.0265589,10.5806213 15.4178024,10.4068484 C15.6741246,10.2930015 15.9245797,10.1993068 16.1677425,10.1290034 C17.0325373,9.87897348 17.55068,9.78185163 18.0816617,9.78840798 C18.3949851,9.79227677 18.6458696,10.0512 18.642114,10.3667291 Z M18.5640981,13.9354169 C18.6024952,14.2131786 18.4356778,14.4725907 18.1802014,14.5579472 L18.0804695,14.581493 L16.6738083,14.8424304 L16.5715561,14.8477446 C16.3028345,14.8372867 16.0721474,14.6346711 16.0337503,14.3569093 C15.9953532,14.0791476 16.1621706,13.8197356 16.417647,13.734379 L16.5173789,13.7108333 L17.9240401,13.4498958 L18.0262923,13.4445816 C18.2950139,13.4550396 18.5257009,13.6576552 18.5640981,13.9354169 Z M22,9.12508424 L21.3679588,10.1305191 L21.3744522,11.3219864 L20.3762625,10.684735 L19.1929077,10.6920348 L19.8261375,9.68529659 L19.8184555,8.49513269 L20.8176172,9.13184143 L22,9.12508424 Z" id="形状"></path>
        </g>
    </g>
</svg>