<?xml version="1.0" encoding="UTF-8"?>
<svg width="20px" height="20px" viewBox="0 0 20 20" version="1.1" xmlns="http://www.w3.org/2000/svg" xmlns:xlink="http://www.w3.org/1999/xlink">
    <title>画板备份 2</title>
    <g id="画板备份-2" stroke="none" stroke-width="1" fill="none" fill-rule="evenodd">
        <g id="common_icons_chats" fill="#FFFFFF">
            <path d="M3.44309493,5.21120934 L14.0215529,15.7887558 C12.8291791,16.3482533 11.4583363,16.6666667 10,16.6666667 C9.19358334,16.6666667 8.41392008,16.5693034 7.67639287,16.3876522 L7.31121181,16.2898632 L4.82541755,17.4818277 C4.7544606,17.5158523 4.67531899,17.5290874 4.59715248,17.5200013 C4.39714538,17.4967522 4.24676515,17.3354843 4.23009528,17.1424001 L4.23138254,17.0580115 L4.48313022,14.8922778 C2.75583171,13.5944442 1.66666667,11.6970037 1.66666667,9.58333333 C1.66666667,7.93342354 2.3303174,6.41526709 3.44309493,5.21120934 Z M3.76776695,2 L5.42840774,3.66006876 C6.74095265,2.92667285 8.31185586,2.5 10,2.5 C14.6023729,2.5 18.3333333,5.67131636 18.3333333,9.58333333 C18.3333333,11.4301208 17.501851,13.1118356 16.1397336,14.3727577 L17.9099026,16.1421356 L17.0260191,17.0260191 L15.1510675,15.151761 L2.88388348,2.88388348 L3.76776695,2 Z" id="形状结合"></path>
        </g>
    </g>
</svg>