<?xml version="1.0" encoding="UTF-8"?>
<svg width="24px" height="24px" viewBox="0 0 24 24" version="1.1" xmlns="http://www.w3.org/2000/svg" xmlns:xlink="http://www.w3.org/1999/xlink">
    <title>Icon / Outlined / order</title>
    <g id="Icon-/-Outlined-/-order" stroke="none" stroke-width="1" fill="none" fill-rule="evenodd">
        <g transform="translate(4.000000, 1.000000)" fill="#000000" id="形状结合">
            <path d="M11.4,0.6 C11.7313708,0.6 12,0.86862915 12,1.2 L11.999,2.099 L14.5,2.1 C15.3284271,2.1 16,2.77157288 16,3.6 L16,19.1 C16,19.9284271 15.3284271,20.6 14.5,20.6 L1.5,20.6 C0.671572875,20.6 -1.65201186e-13,19.9284271 -1.65201186e-13,19.1 L-1.65201186e-13,3.6 C-1.65201186e-13,2.77157288 0.671572875,2.1 1.5,2.1 L3.999,2.099 L4,1.2 C4,0.86862915 4.26862915,0.6 4.6,0.6 C4.93137085,0.6 5.2,0.86862915 5.2,1.2 L5.199,2.099 L10.799,2.099 L10.8,1.2 C10.8,0.86862915 11.0686292,0.6 11.4,0.6 Z M10.799,3.299 L5.199,3.299 L5.2,4.5 C5.2,4.83137085 4.93137085,5.1 4.6,5.1 C4.26862915,5.1 4,4.83137085 4,4.5 L3.999,3.299 L1.5,3.3 C1.33431458,3.3 1.2,3.43431458 1.2,3.6 L1.2,19.1 C1.2,19.2656854 1.33431458,19.4 1.5,19.4 L14.5,19.4 C14.6656854,19.4 14.8,19.2656854 14.8,19.1 L14.8,3.6 C14.8,3.43431458 14.6656854,3.3 14.5,3.3 L11.999,3.299 L12,4.5 C12,4.83137085 11.7313708,5.1 11.4,5.1 C11.0686292,5.1 10.8,4.83137085 10.8,4.5 L10.799,3.299 Z M12.4,12.6 C12.7313708,12.6 13,12.8686292 13,13.2 C13,13.5313708 12.7313708,13.8 12.4,13.8 L3.6,13.8 C3.26862915,13.8 3,13.5313708 3,13.2 C3,12.8686292 3.26862915,12.6 3.6,12.6 L12.4,12.6 Z M12.4,9.1 C12.7313708,9.1 13,9.36862915 13,9.7 C13,10.0313708 12.7313708,10.3 12.4,10.3 L3.6,10.3 C3.26862915,10.3 3,10.0313708 3,9.7 C3,9.36862915 3.26862915,9.1 3.6,9.1 L12.4,9.1 Z"></path>
        </g>
    </g>
</svg>