<?xml version="1.0" encoding="UTF-8"?>
<svg width="24px" height="24px" viewBox="0 0 24 24" version="1.1" xmlns="http://www.w3.org/2000/svg" xmlns:xlink="http://www.w3.org/1999/xlink">
    <!-- Generator: Sketch 62 (91390) - https://sketch.com -->
    <title>画板</title>
    <desc>Created with Sketch.</desc>
    <g id="画板" stroke="none" stroke-width="1" fill="none" fill-rule="evenodd">
        <g id="☾-iOS/☾图标/面型/icons_filled_airplay" fill="#000">
            <g id="common_icons_tv&amp;display">
                <path d="M18.3,1 C18.6865993,1 19,1.56710598 19,2.26666667 L19,18.7333333 C19,19.432894 18.6865993,20 18.3,20 L14.4,20 L15.375,21.21875 C15.720178,21.6502225 15.5469637,22 15.0029699,22 L8.99703014,22 C8.4463856,22 8.2749362,21.6563298 8.625,21.21875 L9.6,20 L14.4,20 L12.625,17.78125 C12.2999408,17.3749259 11.7983848,17.3511688 11.4520236,17.695309 L11.375,17.78125 L9.6,20 L5.7,20 L5.7,20 C5.31340068,20 5,19.432894 5,18.7333333 L5,2.26666667 C5,1.56710598 5.31340068,1 5.7,1 L18.3,1 Z M13.5,2 L10.5,2 C10.2238576,2 10,2.22385763 10,2.5 C10,2.77614237 10.2238576,3 10.5,3 L10.5,3 L13.5,3 C13.7761424,3 14,2.77614237 14,2.5 C14,2.22385763 13.7761424,2 13.5,2 L13.5,2 Z" id="形状结合"></path>
            </g>
        </g>
    </g>
</svg>