<?xml version="1.0" encoding="UTF-8"?>
<svg width="12px" height="12px" viewBox="0 0 12 12" version="1.1" xmlns="http://www.w3.org/2000/svg" xmlns:xlink="http://www.w3.org/1999/xlink">
    <title>编组 43</title>
    <g id="10月22" stroke="none" stroke-width="1" fill="none" fill-rule="evenodd" opacity="0.296177455">
        <g id="1" transform="translate(-194.000000, -709.000000)">
            <g id="编组-17" transform="translate(171.000000, 616.000000)">
                <g id="编组-25" transform="translate(23.000000, 92.000000)">
                    <g id="编组-2备份" transform="translate(0.000000, 1.000000)">
                        <g id="编组-43">
                            <rect id="矩形" x="0" y="0" width="12" height="12"></rect>
                            <path d="M9.21335832,3.2863904 C8.70736073,2.78039281 8.04686387,2.49739415 7.32186732,2.42239451 C7.23036776,2.64639344 7.08836844,2.89939224 6.87386946,3.19539083 C6.26637235,4.03438684 5.33587678,4.43188494 5.33587678,4.43188494 C5.33587678,4.43188494 6.31137213,3.39338989 6.42687158,2.39989462 C6.48437131,1.90539697 6.38287179,1.2893999 6.16287284,1.06690096 C6.03187346,0.933401597 5.80737453,1.01140123 5.78887462,1.19740034 C5.75937476,1.50239889 5.6458753,1.9198969 5.34887672,2.31589502 C5.11087785,2.6333935 4.60588025,2.99939176 4.42538111,3.12489117 C3.99038318,3.38038995 3.57088518,3.70038843 3.18538701,4.08588659 C1.30039599,5.97087762 0.942397691,8.66986477 2.38639082,10.1138579 C3.82988395,11.557351 6.5288711,11.1998527 8.41386213,9.3143617 C10.2993532,7.42887068 10.6573514,4.73038352 9.21335832,3.2863904" id="Fill-2备份" fill="#FFFFFF"></path>
                        </g>
                    </g>
                </g>
            </g>
        </g>
    </g>
</svg>