<?xml version="1.0" encoding="UTF-8"?>
<svg width="24px" height="24px" viewBox="0 0 24 24" version="1.1" xmlns="http://www.w3.org/2000/svg" xmlns:xlink="http://www.w3.org/1999/xlink">
    <title>icons_filled_channels_authentication_enterprise</title>
    <g id="icons_filled_channels_authentication_enterprise" stroke="none" stroke-width="1" fill="none" fill-rule="evenodd">
        <ellipse id="椭圆形" fill="#FFFFFF" cx="12.5" cy="12" rx="6.5" ry="5"></ellipse>
        <path d="M16.3795309,2.71364682 L17.8141156,6.17707997 L21.2781213,7.61223722 C21.6373334,7.76102778 21.8079139,8.17284537 21.6591233,8.53205755 L20.2240619,11.9952049 L21.6591233,15.4597105 C21.8079139,15.8189227 21.6373334,16.2307403 21.2781213,16.3795309 L17.8139216,17.8137982 L16.3795309,21.2781213 C16.2307403,21.6373334 15.8189227,21.8079139 15.4597105,21.6591233 L11.9957967,20.2237444 L8.53205755,21.6591233 C8.17284537,21.8079139 7.76102778,21.6373334 7.61223722,21.2781213 L6.17720344,17.8136041 L2.71364682,16.3795309 C2.35443464,16.2307403 2.18385421,15.8189227 2.33264476,15.4597105 L3.76725721,11.9954792 L2.33264476,8.53205755 C2.18385421,8.17284537 2.35443464,7.76102778 2.71364682,7.61223722 L6.17739746,6.17688595 L7.61223722,2.71364682 C7.76102778,2.35443464 8.17284537,2.18385421 8.53205755,2.33264476 L11.9955223,3.76693971 L15.4597105,2.33264476 C15.8189227,2.18385421 16.2307403,2.35443464 16.3795309,2.71364682 Z M16.422754,8.53999996 L10.8234373,14.1393166 L8.05753759,11.3734169 L7,12.4309545 L10.3732755,15.8066699 L10.3732755,15.8066699 L10.4525902,15.874308 C10.7026511,16.0543129 11.0533764,16.0318853 11.2783026,15.8069275 L11.2783026,15.8069275 L17.4852815,9.60252752 L16.422754,8.53999996 Z" id="形状结合" fill="#0075E2"></path>
    </g>
</svg>