<?xml version="1.0" encoding="UTF-8"?>
<svg width="24px" height="24px" viewBox="0 0 24 24" version="1.1" xmlns="http://www.w3.org/2000/svg" xmlns:xlink="http://www.w3.org/1999/xlink">
    <title>状态_听歌</title>
    <g id="状态_听歌" stroke="none" stroke-width="1" fill="none" fill-rule="evenodd">
        <g id="编组-2">
            <rect id="矩形" x="0" y="0" width="24" height="24"></rect>
            <g id="编组" transform="translate(2.610000, 2.252728)" fill="#FFFFFF">
                <path d="M16.8689131,2.2756134 C16.8828961,2.32222341 16.89,2.37062506 16.89,2.41928734 L16.89,13.247272 C16.89,14.6279839 15.7707119,15.747272 14.39,15.747272 C13.0092881,15.747272 11.89,14.6279839 11.89,13.247272 C11.89,11.8665601 13.0092881,10.747272 14.39,10.747272 L14.39,10.747272 C14.6661424,10.747272 14.89,10.5234144 14.89,10.247272 L14.89,4.8471557 L8.89,6.6471557 L8.89,15.247272 C8.89,16.5727554 7.85846406,17.6573107 6.55437569,17.7419543 L6.39,17.747272 C5.00928813,17.747272 3.89,16.6279839 3.89,15.247272 C3.89,13.9217886 4.92153594,12.8372333 6.22562431,12.7525897 L6.39,12.747272 C6.66614237,12.747272 6.89,12.5234144 6.89,12.247272 L6.89,5.11928734 C6.89,4.89848323 7.03483408,4.70382179 7.24632606,4.6403742 L16.2463261,1.9403742 C16.5108225,1.86102527 16.7895642,2.01111697 16.8689131,2.2756134 Z" id="形状结合" transform="translate(10.390000, 9.833214) rotate(5.000000) translate(-10.390000, -9.833214) "></path>
                <path d="M3.54419483,1 L5.96722562,1.10754106 L5.90071679,2.60606586 L4.50178115,2.54329138 L4.50255473,6.11226954 L4.498,6.11150817 L4.5,6.16383696 C4.5,7.08201035 3.79288973,7.8350293 2.89352721,7.90803576 L2.75,7.91383696 C1.78350169,7.91383696 1,7.13033527 1,6.16383696 C1,5.19733864 1.78350169,4.41383696 2.75,4.41383696 C2.83836556,4.41383696 2.92520142,4.42038639 3.01004863,4.43302631 L3.02202965,1.49740533 C3.02306202,1.25194762 3.20079424,1.04854485 3.43421944,1.00719028 L3.54419483,1 Z" id="路径" transform="translate(3.483613, 4.456918) rotate(-8.000000) translate(-3.483613, -4.456918) "></path>
            </g>
        </g>
    </g>
</svg>