<?xml version="1.0" encoding="UTF-8"?>
<svg width="24px" height="24px" viewBox="0 0 24 24" version="1.1" xmlns="http://www.w3.org/2000/svg" xmlns:xlink="http://www.w3.org/1999/xlink">
    <title>icons_filled_VtoH</title>
    <g id="icons_filled_VtoH" stroke="none" stroke-width="1" fill="none" fill-rule="evenodd">
        <g id="icons_filled_HtoV">
            <rect id="矩形" x="0" y="0" width="24" height="24"></rect>
            <g id="编组" opacity="0.900000036" transform="translate(12.000000, 12.000000) rotate(-90.000000) translate(-12.000000, -12.000000) translate(4.500000, 4.500000)" fill="#000000">
                <path d="M9.58333333,3.75 C10.0435706,3.75 10.4166667,4.11480502 10.4166667,4.56481481 L10.4166667,10.2685185 C10.4166667,10.7185283 10.0435706,11.0833333 9.58333333,11.0833333 L-2.08333333,11.0833333 C-2.54357062,11.0833333 -2.91666667,10.7185283 -2.91666667,10.2685185 L-2.91666667,4.56481481 C-2.91666667,4.11480502 -2.54357062,3.75 -2.08333333,3.75 L9.58333333,3.75 Z" id="路径" transform="translate(3.750000, 7.416667) scale(-1, 1) rotate(-90.000000) translate(-3.750000, -7.416667) "></path>
                <path d="M14.9351852,1.75 C15.385195,1.75 15.75,2.09434337 15.75,2.51911244 L15.75,7.58256422 L14.7722222,7.58256422 L14.7722222,2.67293493 L9.39444444,2.67293493 L9.39444444,7.58256422 L8.41666667,7.58333333 L8.41666667,2.51911244 C8.41666667,2.09434337 8.78147169,1.75 9.23148148,1.75 L14.9351852,1.75 Z" id="路径" stroke="#000000" stroke-width="0.5" transform="translate(12.083333, 4.666667) scale(-1, 1) rotate(-90.000000) translate(-12.083333, -4.666667) "></path>
            </g>
        </g>
    </g>
</svg>