<?xml version="1.0" encoding="UTF-8"?>
<svg width="16px" height="16px" viewBox="0 0 16 16" version="1.1" xmlns="http://www.w3.org/2000/svg" xmlns:xlink="http://www.w3.org/1999/xlink">
    <title>结束页 - 热度 - iocn</title>
    <defs>
        <filter id="filter-1">
            <feColorMatrix in="SourceGraphic" type="matrix" values="0 0 0 0 0.000000 0 0 0 0 0.000000 0 0 0 0 0.000000 0 0 0 1.000000 0"></feColorMatrix>
        </filter>
    </defs>
    <g id="结束页---热度---iocn" stroke="none" stroke-width="1" fill="none" fill-rule="evenodd" opacity="0.900000036">
        <g id="编组-34备份-2" filter="url(#filter-1)">
            <g id="编组-34" fill="#FFFFFF" fill-rule="nonzero" stroke="#FFFFFF" stroke-width="0.2">
                <path d="M9.68533245,12.7984517 C11.1436184,12.1479099 12.1608047,10.6790134 12.1608047,8.97117039 C12.1608047,8.27613864 11.9856849,7.49833746 11.6722046,6.68763985 C11.132829,7.10121781 10.4275623,7.21487762 9.76828537,6.7192881 C9.17125865,6.27049295 9.1156635,5.86915158 9.17991327,4.8120159 C9.22058508,4.14281975 9.19299017,3.81822446 9.02161271,3.44496703 C8.77081114,2.89872534 8.35683041,2.42765595 7.90070151,2.14061675 C7.81423677,2.6803012 7.55248782,3.15008775 7.11971737,3.60571482 C6.89860254,3.8385078 5.97907443,4.65555986 5.98522225,4.64985319 C5.49951983,5.10070275 5.10923824,5.53108213 4.73187553,6.06243609 C4.20622744,6.8025866 3.83919535,8.10673545 3.83919535,8.97117039 C3.83919535,10.6468491 4.81842857,12.092497 6.23274789,12.7608292 C5.95934347,12.384549 5.79731782,11.9167258 5.79731782,11.4097537 C5.79731782,10.5810476 6.52254834,9.45566881 7.97300945,8.03361734 C9.42347056,9.45566881 10.1487011,10.5810476 10.1487011,11.4097537 C10.1487011,11.9337624 9.97560277,12.4159471 9.68533245,12.7984517 Z M9.30950573,11.4097537 C9.30950573,10.9659153 8.87428161,10.2176391 7.97300945,9.24033856 C7.07173729,10.2176391 6.63651317,10.9659153 6.63651317,11.4097537 C6.63651317,12.1919039 7.24025603,12.8164771 7.97300945,12.8164771 C8.70576287,12.8164771 9.30950573,12.1919039 9.30950573,11.4097537 Z M8,14 C5.23857626,14 3,11.7485163 3,8.97117039 C3,8.10372337 3.33881726,6.57183169 4.04899418,5.57185127 C5.79731782,3.1100852 7.54564146,3.1100852 6.98617789,1 C8.22313085,1 9.30779531,2.0550426 9.78349571,3.09111023 C10.3824815,4.39569155 9.64362982,5.57185127 10.2706866,6.04322039 C10.9562872,6.55859801 11.7416182,5.57185127 11.7416182,4.86848954 C12.3882499,6.03983377 13,7.54829225 13,8.97117039 C13,11.7485163 10.7614238,14 8,14 Z" id="形状结合"></path>
            </g>
        </g>
    </g>
</svg>