<?xml version="1.0" encoding="UTF-8"?>
<svg width="32px" height="32px" viewBox="0 0 32 32" version="1.1" xmlns="http://www.w3.org/2000/svg" xmlns:xlink="http://www.w3.org/1999/xlink">
    <!-- Generator: Sketch 63.1 (92452) - https://sketch.com -->
    <title>画板</title>
    <desc>Created with Sketch.</desc>
    <g id="画板" stroke="none" stroke-width="1" fill="none" fill-rule="evenodd">
        <g id="编组">
            <rect id="矩形" stroke="#979797" fill="#D8D8D8" opacity="0" x="0.5" y="0.5" width="31" height="31"></rect>
            <path d="M18.5110051,4.99346489 C18.6429965,4.99346489 18.7696336,5.04565574 18.8632974,5.13865486 L26.7027671,12.9224951 C27.0946794,13.3116264 27.0969339,13.9447874 26.7078026,14.3366997 C26.7061301,14.3383842 26.7044516,14.3400627 26.7027671,14.3417352 L18.8632974,22.1255755 C18.6673412,22.3201411 18.3507607,22.3190139 18.1561951,22.1230577 C18.0631959,22.0293939 18.0110051,21.9027569 18.0110051,21.7707654 L18.0112027,16.1788966 C7.35519482,15.9157106 5.08664551,28.233658 5.08664551,26.8988151 C4.32807423,18.3998914 8.54333811,10.6245952 18.0109452,10.0817681 L18.0110051,5.49346489 C18.0110051,5.21732251 18.2348627,4.99346489 18.5110051,4.99346489 Z" id="形状结合" fill="#07C160" opacity="0.900000036"></path>
        </g>
    </g>
</svg>