<?xml version="1.0" encoding="UTF-8"?>
<svg width="16px" height="16px" viewBox="0 0 16 16" version="1.1" xmlns="http://www.w3.org/2000/svg" xmlns:xlink="http://www.w3.org/1999/xlink">
    <!-- Generator: Sketch 63.1 (92452) - https://sketch.com -->
    <title>画板</title>
    <desc>Created with Sketch.</desc>
    <g id="画板" stroke="none" stroke-width="1" fill="none" fill-rule="evenodd">
        <g id="编组-12">
            <g id="编组">
                <g transform="translate(6.900194, 7.882965) rotate(-315.000000) translate(-6.900194, -7.882965) translate(-1.099806, -0.617035)">
                    <path d="M7.36903176,5.83445731 L4.88748027,13.9366704 L12.7944267,10.9026742 L7.36903176,5.83445731 Z" id="路径" stroke="#FFFFFF" stroke-width="0.734117647" transform="translate(8.600641, 9.786094) rotate(-45.000000) translate(-8.600641, -9.786094) "></path>
                    <g id="编组-10" transform="translate(2.752941, 0.323439)">
                        <path d="M8.60476174,3.85890119 C8.8054446,3.86133853 8.96613546,4.02446047 8.96370272,4.22324422 C8.96121421,4.42202798 8.79653387,4.5811982 8.59585101,4.57876086 C8.33944583,4.57564676 8.07121915,4.62558983 7.57946078,4.76543735 C7.45747122,4.80012906 7.32748979,4.84795797 7.19185865,4.90721205 C6.97571725,5.00163918 6.75689569,5.11960007 6.54817426,5.24811863 L6.41438101,5.3327807 L6.28175793,5.42291526 C6.11965809,5.54013099 5.89232027,5.50498877 5.77398471,5.3444229 C5.65564915,5.18385704 5.69112711,4.95867057 5.85322696,4.84145484 L5.94897684,4.77499228 L6.16447488,4.63670724 C6.4001386,4.49159918 6.64797608,4.35799657 6.89856655,4.24851944 C7.06274031,4.17679576 7.22315618,4.11776797 7.37890133,4.07347676 C7.93280021,3.91595757 8.26466932,3.85477068 8.60476174,3.85890119 Z" id="路径" fill="#FFFFFF" transform="translate(7.333887, 4.675437) rotate(-45.000000) translate(-7.333887, -4.675437) "></path>
                        <path d="M10.0628689,5.47650081 C10.0628689,5.65321077 9.93431753,5.80018007 9.76479398,5.83065831 L9.69947313,5.8364577 L8.78439954,5.87385897 L8.71907869,5.86805958 C8.54955514,5.83758134 8.42100376,5.69061204 8.42100376,5.51390208 C8.42100376,5.33719213 8.54955514,5.19022282 8.71907869,5.15974458 L8.78439954,5.15394519 L9.69947313,5.11654392 L9.76479398,5.12234331 C9.93431753,5.15282155 10.0628689,5.29979085 10.0628689,5.47650081 Z" id="路径" fill="#FFFFFF" transform="translate(9.241936, 5.495201) rotate(-53.000000) translate(-9.241936, -5.495201) "></path>
                        <path d="M4.65615268,1.92765481 L3.39180507,2.72805012 L1.89315972,2.71982521 L2.69451152,3.98389826 L2.68532882,5.48296766 L3.95174568,4.68079453 L5.44824317,4.69052177 L4.64765338,3.4253437 L4.65615268,1.92765481 Z" id="路径" stroke="#FFFFFF" stroke-width="0.734117647" transform="translate(3.670588, 3.705513) rotate(-45.000000) translate(-3.670588, -3.705513) "></path>
                        <polygon id="路径" fill="#FFFFFF" transform="translate(8.847628, 2.113990) rotate(-45.000000) translate(-8.847628, -2.113990) " points="9.74659579 1.62039967 9.34177502 2.2538249 9.34593399 3.00445076 8.70659601 2.60298162 7.94866024 2.6075805 8.35424234 1.97333416 8.34932204 1.22352941 8.98928261 1.62465671"></polygon>
                    </g>
                </g>
            </g>
        </g>
    </g>
</svg>