<?xml version="1.0" encoding="UTF-8"?>
<svg width="32px" height="32px" viewBox="0 0 32 32" version="1.1" xmlns="http://www.w3.org/2000/svg" xmlns:xlink="http://www.w3.org/1999/xlink">
    <title>画板</title>
    <g id="画板" stroke="none" stroke-width="1" fill="none" fill-rule="evenodd">
        <g id="游戏" fill="#FFFFFF" fill-rule="nonzero">
            <path d="M21.7664405,6 C25.5102502,6 28.1437662,9.85311849 28.7610633,16.0588875 L28.7610633,16.0588875 L28.8532909,17.0670362 C28.8986094,17.6137342 28.9334701,18.1327728 28.9580664,18.6295483 L28.9580664,18.6295483 L28.98783,19.3897471 C29.0755286,22.5012976 28.6934762,24.5357322 27.7043424,25.7599609 C27.0578952,26.5641077 26.1623752,27 25.1451689,27 C23.6348021,27 22.530364,26.3874289 21.2382939,24.9575298 L21.2382939,24.9575298 L21.1675663,24.878742 L20.2581543,23.8335373 L19.9542597,23.4977811 L19.6218752,23.153597 C18.9682486,22.5063312 18.3802576,22.2910929 17.3120951,22.2909172 L17.3120951,22.2909172 L16.5103029,22.3070862 L16.2542674,22.3091146 L15.6245882,22.3083538 L14.7073115,22.2910929 C13.6207426,22.2910929 13.0343282,22.5058017 12.3797936,23.1539665 C12.318207,23.2149079 12.256219,23.277751 12.1978605,23.3382567 L12.1978605,23.3382567 L12.0383141,23.5060059 L11.7873311,23.7821506 L11.0935668,24.5801164 C9.48969006,26.4117312 8.52260664,27 6.85455257,27 C5.83916538,27 4.94709161,26.5657838 4.29663801,25.7615246 C3.34464445,24.5807663 2.95619633,22.6560916 3.00389121,19.7468543 L3.00389121,19.7468543 L3.02473647,19.0088452 C3.05955902,18.1214425 3.13091231,17.1406164 3.23898769,16.0555258 C3.85831627,9.85170003 6.49066284,6 10.233281,6 L10.233281,6 Z M21.7664405,7.72325727 L10.233281,7.72325727 C7.59083022,7.72325727 5.49234987,10.793794 4.94996401,16.2268829 C4.84516631,17.2790653 4.77628996,18.2258433 4.74322845,19.0670227 L4.74322845,19.0670227 L4.72293154,19.7853099 C4.68151154,22.3149848 4.99972598,23.8916671 5.63327245,24.6774568 C5.95927541,25.0805453 6.36235244,25.2767427 6.85455257,25.2767427 C7.93594755,25.2767427 8.49201683,24.9384904 9.79915341,23.4457589 L9.79915341,23.4457589 L10.5032098,22.6362503 L10.7795303,22.3322187 L10.9566444,22.1456912 L11.1714484,21.9279456 C12.1664767,20.9426007 13.190038,20.5678357 14.7233121,20.5679849 L14.7233121,20.5679849 L15.6414432,20.5852461 L16.2482077,20.5858856 L16.4860243,20.5840325 L17.2947306,20.5678357 C18.8109279,20.5678357 19.8360633,20.9430938 20.8436958,21.9412107 L20.8436958,21.9412107 L21.2080361,22.3187859 L21.5423197,22.6876719 L22.454008,23.7353966 L22.6966639,23.9997666 C23.5925721,24.9462305 24.2447471,25.2767427 25.1451689,25.2767427 C25.6383655,25.2767427 26.0430234,25.0797764 26.3666711,24.6771797 C27.0297197,23.8565365 27.3460631,22.1720032 27.2693376,19.4479174 L27.2693376,19.4479174 L27.2402907,18.7061521 C27.2091604,18.0782948 27.1598875,17.4006879 27.092605,16.6729901 L27.092605,16.6729901 L27.0497617,16.2269251 C26.5094203,10.7948452 24.410062,7.72325727 21.7664405,7.72325727 L21.7664405,7.72325727 Z M11.6280064,11.4445259 C11.7580184,11.4445259 11.8634139,11.5501518 11.8634139,11.680448 L11.8629095,13.7698461 L13.9484522,13.770044 C14.0784642,13.770044 14.1838597,13.8756699 14.1838597,14.0059661 L14.1838597,14.9496546 C14.1838597,15.0799508 14.0784642,15.1855767 13.9484522,15.1855767 L11.8629095,15.1850712 L11.8634139,17.2751727 C11.8634139,17.4054689 11.7580184,17.5110948 11.6280064,17.5110948 L10.6863762,17.5110948 C10.5563642,17.5110948 10.4509687,17.4054689 10.4509687,17.2751727 L10.4507713,15.1850712 L8.36593048,15.1855767 C8.23591848,15.1855767 8.13052293,15.0799508 8.13052293,14.9496546 L8.13052293,14.0059661 C8.13052293,13.8756699 8.23591848,13.770044 8.36593048,13.770044 L10.4507713,13.7698461 L10.4509687,11.680448 C10.4509687,11.5501518 10.5563642,11.4445259 10.6863762,11.4445259 L11.6280064,11.4445259 Z M20.8425302,11.4445259 C22.514113,11.4445259 23.8691985,12.8025736 23.8691985,14.4778103 C23.8691985,16.1530471 22.514113,17.5110948 20.8425302,17.5110948 C19.1709474,17.5110948 17.8158618,16.1530471 17.8158618,14.4778103 C17.8158618,12.8025736 19.1709474,11.4445259 20.8425302,11.4445259 Z M20.8425302,12.5215616 C19.7644804,12.5215616 18.8905484,13.397404 18.8905484,14.4778103 C18.8905484,15.5582167 19.7644804,16.434059 20.8425302,16.434059 C21.9205799,16.434059 22.7945119,15.5582167 22.7945119,14.4778103 C22.7945119,13.397404 21.9205799,12.5215616 20.8425302,12.5215616 Z" id="形状结合"></path>
        </g>
    </g>
</svg>