<?xml version="1.0" encoding="UTF-8"?>
<svg width="84px" height="44px" viewBox="0 0 84 44" version="1.1" xmlns="http://www.w3.org/2000/svg" xmlns:xlink="http://www.w3.org/1999/xlink">
    <title>画板</title>
    <g id="画板" stroke="none" stroke-width="1" fill="none" fill-rule="evenodd">
        <g id="编组" transform="translate(2.000000, 2.000000)" fill-rule="nonzero">
            <path d="M9.3341784,40 L-1.43884904e-13,39.9373837 L7.79177931,-8.8817842e-14 L26.2809564,7.28306304e-14 C27.7257288,0.0175630802 29.1686923,0.108152737 30.6043303,0.27142264 C32.2526841,0.459388196 33.8451911,0.982804975 35.2839169,1.80948447 C36.8889376,2.77031209 38.0725739,4.3018079 38.5983226,6.09796278 C39.2475065,8.16170237 39.4133179,10.3472794 39.0829165,12.4854432 C38.8311964,14.6195906 38.2146639,16.6945365 37.2602646,18.6195957 C36.3240265,20.565677 34.9076477,22.2408941 33.1448322,23.4871091 C31.7134616,24.45947 30.111781,25.1531499 28.4236574,25.5318266 C26.4179562,25.8809117 24.3836404,26.038442 22.3481508,26.0022925 L11.974,26.002 L9.3341784,40 Z M13.66,17.057 L24.00479,17.0572562 C24.3624449,17.0495395 24.7193969,17.0201244 25.0739089,16.9691542 L25.4275433,16.9110042 C25.9222899,16.7929011 26.3917021,16.5765536 26.8112009,16.2732899 C27.3278378,15.8846157 27.7429428,15.3621426 28.0173306,14.7551913 C28.2970411,14.1547965 28.4777312,13.5076545 28.5515041,12.8420485 C28.6483364,12.1751898 28.5997413,11.4935437 28.4094818,10.8498967 C28.255398,10.2897051 27.908504,9.81205635 27.4381128,9.51238977 C27.0164585,9.25456182 26.5497347,9.0913166 26.0666437,9.03269319 C25.7861441,8.99874569 25.5046903,8.97487277 25.2227614,8.96110643 L24.7995715,8.94804086 L15.19,8.948 L13.66,17.057 Z" id="形状结合" fill="#FF6146"></path>
            <polygon id="路径" fill="#10AEFF" points="63.70497 39.9373837 54.1383618 24.157121 48.4812581 29.6685842 46.5825692 40 37.2483908 39.9373837 44.9068895 0.176022996 53.9925828 0.176022996 51.1343248 15.3709157 67.1964774 0.155150884 79.4563601 0.176022996 60.8585882 17.8101139 74.1551186 39.8747673"></polygon>
        </g>
    </g>
</svg>