<?xml version="1.0" encoding="UTF-8"?>
<svg width="24px" height="24px" viewBox="0 0 24 24" version="1.1" xmlns="http://www.w3.org/2000/svg" xmlns:xlink="http://www.w3.org/1999/xlink">
    <title>广场卡片声音icon</title>
    <g id="广场卡片声音icon" stroke="none" stroke-width="1" fill="none" fill-rule="evenodd" opacity="0.900000036">
        <g id="编组-3" fill="#000000">
            <path d="M13.5710678,4.5 C15.3807119,6.41941738 16.5,9.07106781 16.5,12 C16.5,14.9289322 15.3807119,17.5805826 13.5710678,19.5 L12.5104076,18.375 C14.0951523,16.6941245 15,14.4250539 15,12 C15,9.57494611 14.0951523,7.30587554 12.5104076,5.625 L13.5710678,4.5 Z M11.0961941,7.125 C12.2724627,8.3726213 13,10.0961941 13,12 C13,13.9038059 12.2724627,15.6273787 11.0961941,16.875 L10.0355339,15.75 C10.9681374,14.7608247 11.5,13.4270821 11.5,12 C11.5,10.5729179 10.9681374,9.23917534 10.0355339,8.25 L11.0961941,7.125 Z M8.62132034,9.75 C9.16421356,10.3258252 9.5,11.1213203 9.5,12 C9.5,12.8786797 9.16421356,13.6741748 8.62132034,14.25 L8.62132034,14.25 L6.5,12 Z" id="形状结合"></path>
        </g>
    </g>
</svg>