<?xml version="1.0" encoding="UTF-8"?>
<svg width="96px" height="96px" viewBox="0 0 96 96" version="1.1" xmlns="http://www.w3.org/2000/svg" xmlns:xlink="http://www.w3.org/1999/xlink">
    <title>上传empty</title>
    <defs>
        <filter id="filter-1">
            <feColorMatrix in="SourceGraphic" type="matrix" values="0 0 0 0 1.000000 0 0 0 0 1.000000 0 0 0 0 1.000000 0 0 0 1.000000 0"></feColorMatrix>
        </filter>
    </defs>
    <g id="上传empty" stroke="none" stroke-width="1" fill="none" fill-rule="evenodd" opacity="0.454146984">
        <g id="编组-4">
            <g filter="url(#filter-1)" id="empty_musicstory" opacity="0.699999988">
                <g id="编组-2" opacity="0">
                    <rect id="矩形" x="0" y="0" width="96" height="96"></rect>
                </g>
            </g>
            <rect id="矩形" transform="translate(48.000000, 48.000000) rotate(-5.000000) translate(-48.000000, -48.000000) " x="16" y="16" width="64" height="64"></rect>
            <path d="M47.8787186,29.2221994 L47.8787186,36.5555327 C47.8787186,37.6098945 48.6945964,38.4736979 49.7294563,38.550047 L49.8787186,38.5555327 L57.2117186,38.5541994 L57.2120519,45.8888661 C57.2120519,46.9432279 58.0279297,47.8070312 59.0627896,47.8833803 L59.2120519,47.8888661 L66.5453853,47.8888661 L66.5453853,59.0694401 C66.5453853,63.5270338 66.0812572,65.143465 65.2097218,66.7730946 C64.3381863,68.4027242 63.0592434,69.6816671 61.4296138,70.5532026 C59.7999842,71.424738 58.183553,71.8888661 53.7259593,71.8888661 L36.6981446,71.8888661 C32.2405509,71.8888661 30.6241197,71.424738 28.9944901,70.5532026 C27.3648605,69.6816671 26.0859176,68.4027242 25.2143821,66.7730946 C24.3428467,65.143465 23.8787186,63.5270338 23.8787186,59.0694401 L23.8787186,42.0416254 C23.8787186,37.5840317 24.3428467,35.9676005 25.2143821,34.3379709 C26.0859176,32.7083413 27.3648605,31.4293984 28.9944901,30.5578629 C30.6241197,29.6863275 32.2405509,29.2221994 36.6981446,29.2221994 L47.8787186,29.2221994 Z M40.4342742,42.9949746 C39.8014479,42.9949746 39.2809521,43.4759187 39.2183621,44.0922317 L39.2120519,44.2171968 L39.2120519,59.5605354 C39.2120519,59.773235 39.2675596,59.9822524 39.3730881,60.1669274 C39.6856624,60.7139325 40.3568724,60.9277736 40.9214801,60.6815676 L41.0406662,60.6217214 L54.4660874,52.9500521 C54.6555701,52.8417763 54.8126057,52.6847408 54.9208815,52.4952581 C55.2334558,51.948253 55.07692,51.2614143 54.5781571,50.89998 L54.4660874,50.82768 L41.0406662,43.1560107 C40.8559912,43.0504822 40.6469738,42.9949746 40.4342742,42.9949746 Z M65.5453853,21.2221994 C66.09767,21.2221994 66.5453853,21.6699147 66.5453853,22.2221994 L66.5450519,29.2221994 L73.5453853,29.2221994 C74.09767,29.2221994 74.5453853,29.6699147 74.5453853,30.2221994 L74.5453853,33.5555327 C74.5453853,34.1078175 74.09767,34.5555327 73.5453853,34.5555327 L66.5450519,34.5551994 L66.5453853,41.5555327 C66.5453853,42.1078175 66.09767,42.5555327 65.5453853,42.5555327 L62.2120519,42.5555327 C61.6597672,42.5555327 61.2120519,42.1078175 61.2120519,41.5555327 L61.2110519,34.5551994 L54.2120519,34.5555327 C53.6597672,34.5555327 53.2120519,34.1078175 53.2120519,33.5555327 L53.2120519,30.2221994 C53.2120519,29.6699147 53.6597672,29.2221994 54.2120519,29.2221994 L61.2110519,29.2221994 L61.2120519,22.2221994 C61.2120519,21.6699147 61.6597672,21.2221994 62.2120519,21.2221994 L65.5453853,21.2221994 Z" id="形状结合" fill="#FFFFFF" transform="translate(49.212052, 46.555533) rotate(-5.000000) translate(-49.212052, -46.555533) "></path>
        </g>
    </g>
</svg>