<?xml version="1.0" encoding="UTF-8"?>
<svg width="288px" height="48px" viewBox="0 0 288 48" version="1.1" xmlns="http://www.w3.org/2000/svg" xmlns:xlink="http://www.w3.org/1999/xlink">
    <!-- Generator: Sketch 59.1 (86144) - https://sketch.com -->
    <title>密码输入框</title>
    <desc>Created with Sketch.</desc>
    <g id="密码输入框" stroke="none" stroke-width="1" fill="none" fill-rule="evenodd" fill-opacity="0.05">
        <path d="M288,0 L288,48 L0,48 L0,0 L288,0 Z M287.5,0.5 L0.5,0.5 L0.5,47.5 L287.5,47.5 L287.5,0.5 Z" id="Rectangle-26" fill="#FFFFFF" fill-rule="nonzero"></path>
        <polygon id="Line-Copy-2" fill="#FFFFFF" fill-rule="nonzero" points="144 0 144.5 0 144.5 48 144 48"></polygon>
        <polygon id="Line-Copy-10" fill="#FFFFFF" fill-rule="nonzero" points="96 0 96.5 0 96.5 48 96 48"></polygon>
        <polygon id="Line-Copy-11" fill="#FFFFFF" fill-rule="nonzero" points="48 0 48.5 0 48.5 48 48 48"></polygon>
        <polygon id="Line-Copy-3" fill="#FFFFFF" fill-rule="nonzero" points="192 0 192.5 0 192.5 48 192 48"></polygon>
        <polygon id="Line-Copy-4" fill="#FFFFFF" fill-rule="nonzero" points="240 0 240.5 0 240.5 48 240 48"></polygon>
    </g>
</svg>