<?xml version="1.0" encoding="UTF-8"?>
<svg width="24px" height="24px" viewBox="0 0 24 24" version="1.1" xmlns="http://www.w3.org/2000/svg" xmlns:xlink="http://www.w3.org/1999/xlink">
    <title>3.Icons/Outlined/pay_reward_code</title>
    <defs>
        <path d="M15.4891585,3.46211609 C16.1013258,4.36390881 16.2657034,5.31531514 16.2657034,7.31543933 C16.2657034,7.86118324 16.423,8.14334079 16.6820626,8.29273056 C16.8323225,8.3793787 16.9941123,8.40925271 17.0871319,8.40773046 C17.4970515,8.41444312 18.0501664,8.48741498 18.6172755,8.69212848 C19.3215375,8.94635104 19.861682,9.35513625 20.1362748,9.96701693 C21.1163959,12.1510405 20.623202,17.4544787 18.3212167,19.3494209 C17.6305316,19.9182013 16.2430131,20.4392264 15.1708886,20.5270282 C14.5031404,20.581574 11.0842281,20.5743141 4.9754194,20.5353586 C4.12446531,20.5302878 3.43529412,19.8469415 3.43529412,19.00079 L3.43529412,11.7202783 C3.43529412,10.8704714 4.13216522,10.1856996 4.98700949,10.1856996 L6.86166952,10.1856996 C7.3285977,10.1856996 7.76526623,10.1418897 8.28622508,10.0272424 C8.65379668,9.94630911 8.95918592,9.8008477 9.5203021,9.47183856 C10.1491719,9.10313186 10.5197564,8.68467116 10.7979437,7.94907774 C10.9552341,7.53251792 11.0086457,7.12386962 11.0658393,5.91472634 C11.0734254,5.75462004 11.0753214,5.70424184 11.088211,5.34079772 C11.1466675,3.6925057 11.3214426,3.10522856 12.2343022,2.68131187 C13.4543214,2.11468158 14.9117124,2.61129227 15.4891585,3.46211609 Z M12.7397231,3.76968209 C12.3822013,3.9357092 12.3346516,4.05258897 12.287457,5.38332889 C12.2740842,5.76040113 12.2721953,5.80899299 12.2644991,5.97142403 C12.2014578,7.30419712 12.1358843,7.80277292 11.9203606,8.37355431 C11.5508697,9.35057599 11.0068268,9.99133024 10.1272739,10.5070126 C9.44232307,10.9086319 9.04756254,11.0883525 8.54413736,11.1991985 C7.9548101,11.3288917 7.43207473,11.3856996 6.86166952,11.3856996 L4.98700949,11.3856996 C4.78987767,11.3856996 4.63529412,11.5382733 4.63529412,11.7202783 L4.63529412,19.00079 C4.63529412,19.1828499 4.78743813,19.3342172 4.98307157,19.335383 C11.5678314,19.3773736 14.5084619,19.3771424 15.0729526,19.3310313 C15.908559,19.2626064 17.0642774,18.829989 17.5585623,18.4229446 C19.2166591,17.0580369 19.939459,12.4593511 19.0414651,10.4583331 C18.9242302,10.1970963 18.6650229,9.98515358 18.2098358,9.82084142 C17.829692,9.68361813 17.420027,9.61334269 17.1067672,9.6075698 C16.7768709,9.61296852 16.4042015,9.51772425 16.0826047,9.33227385 C15.3885106,8.93202099 15.0657034,8.22330475 15.0657034,7.31543933 C15.0657034,5.47846193 14.9271012,4.77070306 14.4963086,4.13609608 C14.2084027,3.71188821 13.3595901,3.4817887 12.7397231,3.76968209 Z M17.5394198,11 L18,11.4847882 L13.4330239,16.6688628 C13.4029936,16.7029508 13.3703236,16.7346192 13.3353173,16.7635738 C12.9673351,17.0679413 12.422288,17.0163713 12.1179206,16.6483891 L12.1179206,16.6483891 L10,14.0878093 L10.4605802,13.603021 L12.7634809,15.5946253 L17.5394198,11 Z" id="path-1"></path>
    </defs>
    <g id="3.Icons/Outlined/pay_reward_code" stroke="none" stroke-width="1" fill="none" fill-rule="evenodd">
        <g id="编组">
            <rect id="矩形" x="0" y="0" width="24" height="24"></rect>
            <mask id="mask-2" fill="white">
                <use xlink:href="#path-1"></use>
            </mask>
            <use id="Combined-Shape" fill-opacity="0.9" fill="#000000" xlink:href="#path-1"></use>
        </g>
    </g>
</svg>