<?xml version="1.0" encoding="UTF-8"?>
<svg width="64px" height="136px" viewBox="0 0 64 136" version="1.1" xmlns="http://www.w3.org/2000/svg" xmlns:xlink="http://www.w3.org/1999/xlink">
    <!-- Generator: Sketch 59.1 (86144) - https://sketch.com -->
    <title>EmoticonTips</title>
    <desc>Created with Sketch.</desc>
    <g id="ios" stroke="none" stroke-width="1" fill="none" fill-rule="evenodd" stroke-opacity="0.0989300272">
        <g id="emoji表情面板300" transform="translate(-219.000000, -514.000000)" fill="#FFFFFF">
            <path d="M270.75,614.296107 C270.75,607.966513 272.612593,601.776852 276.105686,596.498399 L280.134432,590.410517 C281.840362,587.832668 282.75,584.80981 282.75,581.718613 L282.75,530 C282.75,521.301515 275.698485,514.25 267,514.25 L235,514.25 C226.301515,514.25 219.25,521.301515 219.25,530 L219.25,581.718613 C219.25,584.80981 220.159638,587.832668 221.865568,590.410517 L225.894314,596.498399 C229.387407,601.776852 231.25,607.966513 231.25,614.296107 L231.25,642 C231.25,646.280207 234.719793,649.75 239,649.75 L263,649.75 C267.280207,649.75 270.75,646.280207 270.75,642 L270.75,614.296107 Z" id="EmoticonTips"></path>
        </g>
    </g>
</svg>