<?xml version="1.0" encoding="UTF-8"?>
<svg width="40px" height="40px" viewBox="0 0 40 40" version="1.1" xmlns="http://www.w3.org/2000/svg" xmlns:xlink="http://www.w3.org/1999/xlink">
    <title>编组 3</title>
    <g id="扫条码-没有结果-引导使用识物" stroke="none" stroke-width="1" fill="none" fill-rule="evenodd">
        <g id="识物年货方案备份-16" transform="translate(-188.000000, -375.000000)" fill-rule="nonzero">
            <g id="erroe" transform="translate(188.000000, 375.000000)">
                <g id="编组-3" transform="translate(-0.000000, -0.000000)">
                    <path d="M20,40 C8.954305,40 0,31.045695 0,20 C0,8.954305 8.954305,0 20,0 C31.045695,0 40,8.954305 40,20 C40,31.045695 31.045695,40 20,40 Z" id="Oval-78" fill="#FA9D3B"></path>
                    <path d="M19.6699219,27.9443359 C20.6220703,27.9443359 21.3398437,28.6621094 21.3398437,29.6142578 C21.3398437,30.5517578 20.6220703,31.2841797 19.6699219,31.2841797 C18.7324219,31.2841797 18,30.5517578 18,29.6142578 C18,28.6621094 18.7324219,27.9443359 19.6699219,27.9443359 Z M20.9882812,10 L20.8125,24.1210938 L18.5273438,24.1210938 L18.3515625,10 L20.9882812,10 Z" id="形状结合" fill="#FFFFFF"></path>
                </g>
            </g>
        </g>
    </g>
</svg>