<?xml version="1.0" encoding="UTF-8"?>
<svg width="24px" height="24px" viewBox="0 0 24 24" version="1.1" xmlns="http://www.w3.org/2000/svg" xmlns:xlink="http://www.w3.org/1999/xlink">
    <!-- Generator: Sketch 57.1 (83088) - https://sketch.com -->
    <title>icons_outlined_translate</title>
    <desc>Created with Sketch.</desc>
    <g id="icons_outlined_translate" stroke="none" stroke-width="1" fill="none" fill-rule="evenodd">
        <path d="M17.0064013,3.5 C18.4917725,3.5 19.8690873,3.63218426 21.0021074,3.85762761 C21.5604553,3.9563446 22.007,4.31771525 22.007,4.87 L22.008,19.169 L21.9971068,19.15 C21.9971068,19.5296958 21.7149529,19.843491 21.3488773,19.8931534 L21.2471068,19.9 C21.2367066,19.9 21.2266981,19.9005201 21.2170814,19.9015603 C20.0476868,19.6499272 18.5883245,19.5 17.0064013,19.5 C15.0458123,19.5 13.2734816,19.7302941 12.0027038,20.1013695 L11.7255755,20.023532 C10.4807378,19.698363 8.82329542,19.5 7.00369747,19.5 C5.42094928,19.5 3.96088979,19.6500836 2.78834618,19.9031574 C2.777756,19.9009758 2.76424544,19.9 2.75,19.9 C2.33578644,19.9 2,19.5642136 2,19.15 L2,4.86530036 C2.01040063,4.32186525 2.53173828,3.96179199 3,3.8593893 C4.1338447,3.63287303 5.5144613,3.5 7.00369747,3.5 C8.82282095,3.5 10.4798735,3.69825952 11.7246016,4.02327761 L12.0046913,4.10078938 C13.2753292,3.73005408 15.0468342,3.5 17.0064013,3.5 Z M17.0064013,4.7 C15.1868033,4.7 13.5293609,4.89836296 12.2845232,5.22353195 L12.0046913,5.30078938 L12.005,18.899 L12.2828131,18.823532 C13.5276508,18.498363 15.1850932,18.3 17.0046913,18.3 C18.2485363,18.3 19.4166085,18.392692 20.4289076,18.5552188 L20.8010616,18.6193952 L20.8027717,5.01939517 C19.7091528,4.81731333 18.405727,4.7 17.0064013,4.7 Z M16.7489942,8.25 C16.9433389,8.67085526 17.0934758,9.05858948 17.199194,9.41417807 L16.7619937,9.544 L19.7509937,9.54439234 L19.7509937,10.5443923 L18.7286151,10.5450543 C18.3978606,11.4219181 17.9183491,12.1841136 17.2931776,12.8302378 C17.9460813,13.2957661 18.7307344,13.6637931 19.6486867,13.9359958 L19.3643903,14.8947322 C18.2565684,14.5662271 17.3092045,14.1035093 16.5260508,13.5082786 C15.8312438,14.0388424 15.0042236,14.4643738 14.0493516,14.7835829 L13.6852901,14.8982999 L13.4009937,13.9395635 C14.3208898,13.6667845 15.1069216,13.2977748 15.7621746,12.8311367 C15.1342084,12.1846241 14.6538636,11.4223255 14.3224689,10.5452045 L13.2509937,10.5443923 L13.2509937,9.54439234 L16.1912161,9.54607635 C16.1076784,9.30358604 15.9735341,8.97489392 15.7887831,8.56 L16.7489942,8.25 Z M7.56024523,8.5 L6.08415376,8.5 L4.00099367,14.5 L5.28997496,14.5 L5.74735542,13.0446985 L7.85546353,13.0446985 L8.31284399,14.5 L9.64756332,14.5 L7.56024523,8.5 Z M17.6471899,10.5449859 L15.4042831,10.5453952 C15.6835422,11.1643699 16.0566464,11.7097727 16.5255596,12.1824935 C16.9959979,11.7094595 17.3684685,11.1639737 17.6471899,10.5449859 Z M6.81596249,9.64760915 L7.58519326,12.1049896 L6.01762569,12.1049896 L6.78685646,9.64760915 L6.81596249,9.64760915 Z" id="形状" fill="#FFFFFF"></path>
    </g>
</svg>