<?xml version="1.0" encoding="UTF-8"?>
<svg width="24px" height="24px" viewBox="0 0 24 24" version="1.1" xmlns="http://www.w3.org/2000/svg" xmlns:xlink="http://www.w3.org/1999/xlink">
    <!-- Generator: Sketch 63.1 (92452) - https://sketch.com -->
    <title>3.Icons/Filled/myqr</title>
    <desc>Created with Sketch.</desc>
    <g id="3.Icons/Filled/myqr" stroke="none" stroke-width="1" fill="none" fill-rule="evenodd">
        <g id="编组" transform="translate(1.000000, 3.000000)" fill="#FFFFFF">
            <path d="M17,15 L17,19 L13,19 L13,15 L17,15 Z M22,17 L22,19 L20,19 L20,17 L22,17 Z M16,16 L14,16 L14,18 L16,18 L16,16 Z M9.5,0 C11.709139,0 13.5,1.79298022 13.5,4.00020747 L13.5,5.71018568 C13.5,6.84929595 12.9009324,8.48286035 12.1680872,9.35157303 L11.8065546,9.78013273 C11.4802019,10.1669903 11.5,10.7362976 11.5,11.4515686 L11.5,18 L1,18 C0.44771525,18 0,17.5522847 0,17 L0,16.3154633 C0,15.6303744 0.498150907,14.8319079 1.11409761,14.5313327 L6.77445076,11.769143 C7.59537712,11.36854 7.78625906,10.4812624 7.19344522,9.7786389 L6.83191269,9.35013798 C6.09631763,8.47828515 5.5,6.84949648 5.5,5.70929053 L5.5,3.99958038 C5.5,1.79067313 7.29535615,0 9.5,0 Z M20,15 L20,17 L18,17 L18,15 L20,15 Z M17,10 L17,14 L13,14 L13,10 L17,10 Z M22,10 L22,14 L18,14 L18,10 L22,10 Z M16,11 L14,11 L14,13 L16,13 L16,11 Z M21,11 L19,11 L19,13 L21,13 L21,11 Z" id="形状结合"></path>
        </g>
    </g>
</svg>