<?xml version="1.0" encoding="UTF-8"?>
<svg width="24px" height="32px" viewBox="0 0 24 32" version="1.1" xmlns="http://www.w3.org/2000/svg" xmlns:xlink="http://www.w3.org/1999/xlink">
    <!-- Generator: Sketch 57.1 (83088) - https://sketch.com -->
    <title>icons_outlined_torch</title>
    <desc>Created with Sketch.</desc>
    <g id="icons_outlined_torch" stroke="none" stroke-width="1" fill="none" fill-rule="evenodd" fill-opacity="0.9">
        <g id="编组" fill="#000000">
            <path d="M14.5,19.8507811 L14.5,30 C14.5,30.5522847 14.0522847,31 13.5,31 L10.5,31 C9.94771525,31 9.5,30.5522847 9.5,30 L9.5,19.8507811 C9.5,19.6237096 9.42271925,19.4033991 9.28086881,19.226086 L7.71913119,17.273914 C7.57728075,17.0966009 7.5,16.8762904 7.5,16.6492189 L7.5,14 C7.5,13.4477153 7.94771525,13 8.5,13 L15.5,13 C16.0522847,13 16.5,13.4477153 16.5,14 L16.5,16.6492189 C16.5,16.8762904 16.4227192,17.0966009 16.2808688,17.273914 L14.7191312,19.226086 C14.5772808,19.4033991 14.5,19.6237096 14.5,19.8507811 Z M13.3,19.0790627 L15.3,16.5790627 L15.3,14.2 L8.7,14.2 L8.7,16.5790627 L10.7,19.0790627 L10.7,29.8 L13.3,29.8 L13.3,19.0790627 Z M8.1,11 L15.9,11 C16.2313708,11 16.5,11.2686292 16.5,11.6 C16.5,11.9313708 16.2313708,12.2 15.9,12.2 L8.1,12.2 C7.76862915,12.2 7.5,11.9313708 7.5,11.6 C7.5,11.2686292 7.76862915,11 8.1,11 Z M12,21 C12.3313708,21 12.6,21.2686292 12.6,21.6 L12.6,22.9 C12.6,23.2313708 12.3313708,23.5 12,23.5 C11.6686292,23.5 11.4,23.2313708 11.4,22.9 L11.4,21.6 C11.4,21.2686292 11.6686292,21 12,21 Z" id="形状"></path>
        </g>
    </g>
</svg>