<?xml version="1.0" encoding="UTF-8"?>
<svg width="24px" height="24px" viewBox="0 0 24 24" version="1.1" xmlns="http://www.w3.org/2000/svg" xmlns:xlink="http://www.w3.org/1999/xlink">
    <!-- Generator: Sketch 57.1 (83088) - https://sketch.com -->
    <title>icons_filled_dislike</title>
    <desc>Created with Sketch.</desc>
    <g id="icons_filled_dislike" stroke="none" stroke-width="1" fill="none" fill-rule="evenodd" fill-opacity="0.9">
        <path d="M15.763932,5 C16.5214761,5 17.2140024,5.42800475 17.5527864,6.10557281 L19.7888544,10.5777088 C19.9277098,10.8554196 20,11.1616458 20,11.472136 L20,13.2494689 C20,14.077896 19.3284271,14.7494689 18.5,14.7494689 L14,14.7494689 L14.5545654,17.6914063 C14.7026571,18.4062907 14.6513634,18.9256915 14.4006846,19.2496088 C14.262104,19.4286771 14.1185292,19.5851953 13.9699601,19.7191634 C13.7769364,19.8932505 13.4827212,19.8903863 13.2931063,19.7125925 L8.63199505,15.3420641 C8.22876829,14.9639753 8,14.4358641 8,13.8831047 L8,7 C8,5.8954305 8.8954305,5 10,5 L15.763932,5 Z M6.5,5 C6.77614237,5 7,5.22385763 7,5.5 L7,14.25 C7,14.5261424 6.77614237,14.75 6.5,14.75 L4.5,14.75 C4.22385763,14.75 4,14.5261424 4,14.25 L4,5.5 C4,5.22385763 4.22385763,5 4.5,5 L6.5,5 Z" id="形状" fill="#000000"></path>
    </g>
</svg>