<?xml version="1.0" encoding="UTF-8"?>
<svg width="24px" height="24px" viewBox="0 0 24 24" version="1.1" xmlns="http://www.w3.org/2000/svg" xmlns:xlink="http://www.w3.org/1999/xlink">
    <!-- Generator: Sketch 57.1 (83088) - https://sketch.com -->
    <title>icons_outlined_object</title>
    <desc>Created with Sketch.</desc>
    <g id="icons_outlined_object" stroke="none" stroke-width="1" fill="none" fill-rule="evenodd" fill-opacity="0.9">
        <path d="M11.5018449,5.28875659 L6.500011,8.17648203 C6.19060372,8.35511317 6,8.68524366 6,9.04251379 L6,14.8181064 C6,15.1753765 6.19060372,15.505507 6.500011,15.6841382 L11.5018449,18.5718636 C11.8113298,18.7505395 12.1926398,18.7504845 12.502073,18.5717192 L17.5002391,15.6841863 C17.8095054,15.5055174 18,15.1754659 18,14.8182989 L18,9.04232126 C18,8.68515431 17.8095054,8.35510282 17.5002391,8.17643395 L12.502073,5.28890103 C12.1926398,5.11013574 11.8113298,5.11008067 11.5018449,5.28875659 Z M12.0018006,6.38574602 L16.8,9.1577545 L16.8,14.7028657 L12.0018006,17.4748742 L7.2,14.7026347 L7.2,9.15798554 L12.0018006,6.38574602 Z M3.7,3.7 L3.7,8.5 L2.5,8.5 L2.5,3.5 C2.5,2.94771525 2.94771525,2.5 3.5,2.5 L8.5,2.5 L8.5,2.5 L8.5,3.7 L3.7,3.7 Z M20.55,3.7 L15.75,3.7 L15.75,2.5 L20.75,2.5 C21.3022847,2.5 21.75,2.94771525 21.75,3.5 L21.75,8.5 L21.75,8.5 L20.55,8.5 L20.55,3.7 Z M3.7,20.55 L8.5,20.55 L8.5,21.75 L3.5,21.75 C2.94771525,21.75 2.5,21.3022847 2.5,20.75 L2.5,15.75 L2.5,15.75 L3.7,15.75 L3.7,20.55 Z M20.55,20.55 L20.55,15.75 L21.75,15.75 L21.75,20.75 C21.75,21.3022847 21.3022847,21.75 20.75,21.75 L15.75,21.75 L15.75,21.75 L15.75,20.55 L20.55,20.55 Z" id="形状结合" fill="#FFFFFF"></path>
    </g>
</svg>