<?xml version="1.0" encoding="UTF-8"?>
<svg width="24px" height="32px" viewBox="0 0 24 32" version="1.1" xmlns="http://www.w3.org/2000/svg" xmlns:xlink="http://www.w3.org/1999/xlink">
    <!-- Generator: Sketch 57.1 (83088) - https://sketch.com -->
    <title>icons_outlined_torchon</title>
    <desc>Created with Sketch.</desc>
    <g id="icons_outlined_torchon" stroke="none" stroke-width="1" fill="none" fill-rule="evenodd" fill-opacity="0.9">
        <g id="编组" fill="#000000">
            <path d="M15.5,13 C16.0522847,13 16.5,13.4477153 16.5,14 L16.5,16.6492189 C16.5,16.8762904 16.4227192,17.0966009 16.2808688,17.273914 L14.7191312,19.226086 C14.5772808,19.4033991 14.5,19.6237096 14.5,19.8507811 L14.5,30 C14.5,30.5522847 14.0522847,31 13.5,31 L10.5,31 C9.94771525,31 9.5,30.5522847 9.5,30 L9.5,19.8507811 C9.5,19.6237096 9.42271925,19.4033991 9.28086881,19.226086 L7.71913119,17.273914 C7.57728075,17.0966009 7.5,16.8762904 7.5,16.6492189 L7.5,14 C7.5,13.4477153 7.94771525,13 8.5,13 L15.5,13 Z M12,19 C11.6203042,19 11.306509,19.2821539 11.2568466,19.6482294 L11.25,19.75 L11.25,21.25 C11.25,21.6642136 11.5857864,22 12,22 C12.3796958,22 12.693491,21.7178461 12.7431534,21.3517706 L12.75,21.25 L12.75,19.75 C12.75,19.3357864 12.4142136,19 12,19 Z M15.9,11 C16.2313708,11 16.5,11.2686292 16.5,11.6 C16.5,11.9313708 16.2313708,12.2 15.9,12.2 L8.1,12.2 C7.76862915,12.2 7.5,11.9313708 7.5,11.6 C7.5,11.2686292 7.76862915,11 8.1,11 L15.9,11 Z M19.3116504,6.43933983 C19.6045436,6.73223305 19.6045436,7.20710678 19.3116504,7.5 L18.2509903,8.56066017 C17.958097,8.85355339 17.4832233,8.85355339 17.1903301,8.56066017 C16.8974369,8.26776695 16.8974369,7.79289322 17.1903301,7.5 L18.2509903,6.43933983 C18.5438835,6.14644661 19.0187572,6.14644661 19.3116504,6.43933983 Z M4.68933983,6.43933983 C4.98223305,6.14644661 5.45710678,6.14644661 5.75,6.43933983 L6.81066017,7.5 C7.10355339,7.79289322 7.10355339,8.26776695 6.81066017,8.56066017 C6.51776695,8.85355339 6.04289322,8.85355339 5.75,8.56066017 L4.68933983,7.5 C4.39644661,7.20710678 4.39644661,6.73223305 4.68933983,6.43933983 Z M11.997767,3.5 C12.4119805,3.5 12.747767,3.83578644 12.747767,4.25 L12.747767,5.75 C12.747767,6.16421356 12.4119805,6.5 11.997767,6.5 C11.5835534,6.5 11.247767,6.16421356 11.247767,5.75 L11.247767,4.25 C11.247767,3.83578644 11.5835534,3.5 11.997767,3.5 Z" id="形状"></path>
        </g>
    </g>
</svg>