<?xml version="1.0" encoding="UTF-8"?>
<svg width="24px" height="24px" viewBox="0 0 24 24" version="1.1" xmlns="http://www.w3.org/2000/svg" xmlns:xlink="http://www.w3.org/1999/xlink">
    <title>编组 6</title>
    <g id="编组-6" stroke="none" stroke-width="1" fill="none" fill-rule="evenodd">
        <g>
            <rect id="矩形" x="0" y="0" width="24" height="24"></rect>
            <path d="M6.09340778,15.155205 L2.68322335,16.6654447 C2.27851976,16.8261417 1.83336319,16.7409605 1.50665686,16.4418505 C1.3737191,16.3243466 1.29943761,16.1105705 1.28029838,16.0678187 C0.692670888,14.6355899 1.03166224,12.892566 2.27204113,11.7154904 C2.62160245,11.3837691 3.01958069,11.1482352 3.11879083,11.0946978 C5.97343326,9.36037169 9.16689325,8.50250055 12.314845,8.50000546 C15.4627968,8.49751037 18.5652403,9.35039134 21.2355744,11.0803383 C21.3178198,11.1444236 21.7020447,11.3686458 22.0163372,11.6998409 C23.1315684,12.8750495 23.2851138,14.617683 22.5450337,16.0509641 C22.5213437,16.0937499 22.4141696,16.2969781 22.2788555,16.4253863 C21.9304319,16.7357232 21.4761737,16.8216173 21.0885357,16.6615483 L17.8387678,15.1565873 C17.6821399,15.0818692 17.6438615,14.9963656 17.5999954,14.8146406 C17.4706725,14.2266968 17.1197437,12.772897 16.8868617,11.9177416 C16.8339948,11.7039485 16.7270225,11.50089 16.5749455,11.3406343 C16.4127301,11.1696949 16.1941338,11.0522589 15.9721243,10.9989761 C14.7471409,10.6791946 13.4837782,10.4770527 12.2203145,10.4780541 C10.9467124,10.4683718 9.6617333,10.6725336 8.40261872,10.994284 C8.17492076,11.0479233 7.95508585,11.155015 7.76339093,11.3369267 C7.58297218,11.5081377 7.46565964,11.7006822 7.39003867,11.9145771 C7.07741633,12.7594731 6.57175958,14.2139519 6.36858672,14.8128509 C6.30537963,14.9946608 6.2692757,15.0695316 6.09340778,15.155205 Z" id="XMLID_46_-path备份" fill="#FFFFFF"></path>
        </g>
    </g>
</svg>