<?xml version="1.0" encoding="UTF-8"?>
<svg width="24px" height="24px" viewBox="0 0 24 24" version="1.1" xmlns="http://www.w3.org/2000/svg" xmlns:xlink="http://www.w3.org/1999/xlink">
    <title>编组 5</title>
    <g id="编组-5" stroke="none" stroke-width="1" fill="none" fill-rule="evenodd">
        <g>
            <rect id="矩形" x="0" y="0" width="24" height="24"></rect>
            <path d="M17.0864325,15.6323907 C16.8910785,15.5706941 16.809681,15.6015424 16.6306064,15.6940874 C16.0445444,16.0025707 14.6119484,16.7429306 13.7654144,17.159383 C13.5537808,17.2673522 13.3258678,17.3290488 13.0653958,17.3290488 C12.7886443,17.3290488 12.5444518,17.251928 12.3328183,17.1285347 C11.1444148,16.4652956 10.0211292,15.6940874 9.06063871,14.7686375 C8.10014818,13.8586118 7.28617315,12.7943445 6.58615463,11.6683805 C6.45591862,11.4678663 6.37452112,11.2210797 6.37452112,10.9742931 C6.37452112,10.7429306 6.43963912,10.5115681 6.55359563,10.311054 C6.99314214,9.49357326 7.77455817,8.13624679 8.10014818,7.59640103 C8.19782518,7.42673522 8.23038418,7.33419023 8.16526618,7.16452442 L6.78150864,3.67866324 C6.60243413,3.27763496 6.19544662,3.01542416 5.7070616,3 C5.5117076,3 5.28379459,3.07712082 5.23495609,3.09254499 C3.63956504,3.64781491 2.5,5.08226221 2.5,6.77892031 C2.5,7.25706941 2.630236,7.70437018 2.6465155,7.81233933 C3.42793153,11.0514139 5.16983808,13.9357326 7.56292466,16.2030848 C9.95601124,18.470437 13.0002778,20.1208226 16.4189729,20.8611825 C16.5329294,20.8920308 17.005035,21 17.5096995,21 C19.3004445,21 20.8144381,19.9203085 21.4005001,18.4087404 C21.4167796,18.3624679 21.5144566,18.1465296 21.4981771,17.9614396 C21.4656181,17.4987147 21.1888666,17.1131105 20.7655996,16.9434447 L17.0864325,15.6323907 Z" id="XMLID_46_-path" fill="#FFFFFF"></path>
        </g>
    </g>
</svg>