<?xml version="1.0" encoding="UTF-8"?>
<svg width="32px" height="32px" viewBox="0 0 32 32" version="1.1" xmlns="http://www.w3.org/2000/svg" xmlns:xlink="http://www.w3.org/1999/xlink">
    <!-- Generator: Sketch 64 (93537) - https://sketch.com -->
    <title>vip_empty</title>
    <desc>Created with Sketch.</desc>
    <g id="vip_empty" stroke="none" stroke-width="1" fill="none" fill-rule="evenodd">
        <g id="会员卡" fill="#000000" fill-rule="nonzero">
            <path d="M28.6666667,6 C29.4030463,6 30,6.59695367 30,7.33333333 L30,24.6666667 C30,25.4030463 29.4030463,26 28.6666667,26 L3.33333333,26 C2.59695367,26 2,25.4030463 2,24.6666667 L2,7.33333333 C2,6.59695367 2.59695367,6 3.33333333,6 L28.6666667,6 Z M28.4,7.6 L3.6,7.6 L3.6,24.4 L28.4,24.4 L28.4,7.6 Z" id="矩形"></path>
            <path d="M10.6666667,20.6666667 L14.0533333,11.1466667 L12.36,11.1466667 L9.74666667,18.9066667 L9.70666667,18.9066667 L7.09333333,11.1466667 L5.4,11.1466667 L8.78666667,20.6666667 L10.6666667,20.6666667 Z M16.6133333,20.6666667 L16.6133333,11.1466667 L15.0533333,11.1466667 L15.0533333,20.6666667 L16.6133333,20.6666667 Z M20.04,20.6666667 L20.04,17.0133333 L22.4,17.0133333 C24.72,17.0133333 25.88,16.0266667 25.88,14.0666667 C25.88,12.12 24.72,11.1466667 22.4266667,11.1466667 L18.48,11.1466667 L18.48,20.6666667 L20.04,20.6666667 Z M22.3066667,15.68 L20.04,15.68 L20.04,12.48 L22.3066667,12.48 C22.9866667,12.48 23.4933333,12.6 23.8133333,12.8533333 C24.1333333,13.0933333 24.3066667,13.4933333 24.3066667,14.0666667 C24.3066667,14.64 24.1466667,15.0533333 23.8266667,15.3066667 C23.5066667,15.5466667 23,15.68 22.3066667,15.68 Z" id="VIP"></path>
        </g>
    </g>
</svg>