<?xml version="1.0" encoding="UTF-8"?>
<svg width="32px" height="32px" viewBox="0 0 32 32" version="1.1" xmlns="http://www.w3.org/2000/svg" xmlns:xlink="http://www.w3.org/1999/xlink">
    <!-- Generator: Sketch 64 (93537) - https://sketch.com -->
    <title>coupon_empty</title>
    <desc>Created with Sketch.</desc>
    <g id="coupon_empty" stroke="none" stroke-width="1" fill="none" fill-rule="evenodd">
        <g id="Group" fill="#000000" fill-rule="nonzero">
            <path d="M28.6666667,6 C29.4030463,6 30,6.59695367 30,7.33333333 L30.0010041,13.5 C28.5941843,13.5 27.4545455,14.6192881 27.4545455,16 C27.4545455,17.3254834 28.5048366,18.4100387 29.8326357,18.4946823 L30,18.5 L30,24.6666667 C30,25.4030463 29.4030463,26 28.6666667,26 L3.33333333,26 C2.59695367,26 2,25.4030463 2,24.6666667 L2,18.5 C3.40581573,18.5 4.54545455,17.3807119 4.54545455,16 C4.54545455,14.6192881 3.40581573,13.5 2,13.5 L2,7.33333333 C2,6.59695367 2.59695367,6 3.33333333,6 L28.6666667,6 Z M28.399,7.6 L3.599,7.6 L3.599,12.217 L3.74485429,12.2800067 C5.10141733,12.9034518 6.06261915,14.2316222 6.14036416,15.7948115 L6.14545455,16 C6.14545455,17.6515525 5.16039834,19.0694419 3.74485429,19.7199933 L3.599,19.782 L3.599,24.4 L28.399,24.4 L28.399,19.782 L28.3866763,19.7778389 C26.9560834,19.1797602 25.9386171,17.8114177 25.8595087,16.2023491 L25.8545455,16 C25.8545455,14.3484475 26.8396017,12.9305581 28.2552624,12.2800067 L28.401,12.217 L28.399,7.6 Z" id="Combined-Shape"></path>
            <path d="M20.6145833,12.3333333 C20.9111226,12.3333333 21.1515152,12.5737259 21.1515152,12.8702652 L21.1515152,13.3964015 C21.1515152,13.6929408 20.9111226,13.9333333 20.6145833,13.9333333 L10.2339015,13.9333333 C9.93736226,13.9333333 9.6969697,13.6929408 9.6969697,13.3964015 L9.6969697,12.8702652 C9.6969697,12.5737259 9.93736226,12.3333333 10.2339015,12.3333333 L20.6145833,12.3333333 Z" id="Rectangle-9"></path>
            <path d="M16.7964015,17.3333333 C17.0929408,17.3333333 17.3333333,17.5737259 17.3333333,17.8702652 L17.3333333,18.3964015 C17.3333333,18.6929408 17.0929408,18.9333333 16.7964015,18.9333333 L10.2339015,18.9333333 C9.93736226,18.9333333 9.6969697,18.6929408 9.6969697,18.3964015 L9.6969697,17.8702652 C9.6969697,17.5737259 9.93736226,17.3333333 10.2339015,17.3333333 L16.7964015,17.3333333 Z" id="Rectangle-9-Copy"></path>
        </g>
    </g>
</svg>