<?xml version="1.0" encoding="UTF-8"?>
<svg width="32px" height="32px" viewBox="0 0 32 32" version="1.1" xmlns="http://www.w3.org/2000/svg" xmlns:xlink="http://www.w3.org/1999/xlink">
    <!-- Generator: Sketch 64 (93537) - https://sketch.com -->
    <title>card_empty</title>
    <desc>Created with Sketch.</desc>
    <g id="card_empty" stroke="none" stroke-width="1" fill="none" fill-rule="evenodd" fill-opacity="0.9">
        <g id="3.Icons/Outlined/cards&amp;offers" fill="#000000">
            <g id="icon35" transform="translate(4.000000, 4.000000)">
                <path d="M1.6,5.66143219 L1.6,19.1005169 L23.7333333,22.0127976 L23.7333333,8.5737129 L1.6,5.66143219 Z M22.8746206,0.822969367 C23.4961505,0.736645769 24,1.17199354 24,1.80822374 L24,1.80822374 L24,6.99406707 L24.2121039,7.02291804 C24.8313418,7.10439672 25.3333333,7.68752449 25.3333333,8.31601573 L25.3333333,22.501385 C25.3333333,23.2390882 24.7320995,23.7580052 24.0069718,23.6625936 L1.12122943,20.6513118 C0.501991515,20.5698331 0,19.9867053 0,19.3582141 L0,5.1728448 L0.001,5.14106707 C0,4.55312348 0.436665446,4.00802823 1.00230826,3.86748902 L1.12537944,3.8436973 Z M22.4,2.50424728 L6.576,4.70206707 L22.399,6.78306707 L22.4,2.50424728 Z" id="图标颜色"></path>
            </g>
        </g>
    </g>
</svg>