<?xml version="1.0" encoding="UTF-8"?>
<svg width="48px" height="48px" viewBox="0 0 48 48" version="1.1" xmlns="http://www.w3.org/2000/svg" xmlns:xlink="http://www.w3.org/1999/xlink">
    <title>画板</title>
    <g id="交互视觉过完kk定稿-1期迭代" stroke="none" stroke-width="1" fill="none" fill-rule="evenodd">
        <g id="画板" transform="translate(-293.000000, -71.000000)" fill="#000000" fill-rule="nonzero">
            <g id="编组-3" transform="translate(299.000000, 74.000000)">
                <g id="father" transform="translate(0.200000, 0.000000)">
                    <path d="M17.8,0 C22.7115897,0 27.6231795,3.35051581 28.9527684,7.32751171 L29.02,7.39006219 L29.0029111,7.48329038 C29.2606267,8.31608117 29.3604896,9.17458065 29.27,10.0340734 C28.74,15.0681468 28.1789766,16.0334354 27.8,16 L27.7998005,18 C27.7998005,20.7866972 25.9360989,23.2627672 23.5936253,24.9088355 L23.6,25 L23.5999968,27.6622826 C23.6003416,27.7836105 23.7190323,27.9193204 23.9084606,27.9706269 L23.9938363,27.9871599 L25.8083714,28.1998254 L25.8993856,28.206006 L25.99,28.222 L25.987,28.222 L28.6467972,28.5365197 C32.5092837,28.9960719 35.4687857,31.9318369 35.5956343,35.4511483 L35.5998732,35.6866128 L35.5998732,43 C35.5998732,43.4418278 35.241701,43.8 34.7998732,43.8 C34.3920321,43.8 34.0554716,43.4948119 34.0061063,43.1003503 L33.9998732,43 L33.9998732,35.6866128 C33.9998732,32.983908 31.7564207,30.6301353 28.7074315,30.1594088 L28.4584794,30.1253985 L26.327,29.873 L23.5491263,37.2808988 L23.5034053,37.3814123 C23.3305844,37.7011301 22.9607263,37.864421 22.6080302,37.776717 L22.5029504,37.7427814 L17.8,35.861 L13.0971125,37.7427814 C12.7152786,37.8955149 12.2867607,37.7331019 12.0966576,37.3814123 L12.0509367,37.2808988 L9.272,29.873 L7.1413938,30.1253985 L6.89244161,30.1594088 C3.92814662,30.6170595 1.7252578,32.8545959 1.60516236,35.462228 L1.6,35.6866128 L1.6,43 L1.59376686,43.1003503 C1.54440158,43.4948119 1.20784105,43.8 0.8,43.8 C0.392158954,43.8 0.055598419,43.4948119 0.00623313573,43.1003503 L0,43 L0,35.6866128 L0.00423887558,35.4511483 C0.128204579,32.0118213 2.95752979,29.1298172 6.69114651,28.5716677 L6.95307596,28.5365197 L9.612,28.222 L9.62330898,28.2196584 C9.67939682,28.2068843 9.73580664,28.2004016 9.79169159,28.1998254 L11.6060369,27.9871599 L11.6914125,27.9706269 C11.8492695,27.9278715 11.958003,27.8265026 11.9900622,27.7236877 L11.9998764,27.6622826 L11.9998732,25 L12.0051838,24.9088355 C9.66208972,23.2627672 7.7980937,20.7866972 7.79992944,18 L7.7993497,15.7639534 C7.17762247,15.3059636 6.62994652,13.9593583 6.3,10 C5.8,4 11.8,0 17.8,0 Z M12.1730033,29.4961868 C12.0920946,29.5209323 12.0090424,29.5411449 11.9242046,29.5565101 L11.7956535,29.5758831 L10.909,29.68 L13.262,35.953 L16.48,34.666 L12.185423,29.5121475 L12.1730033,29.4961868 Z M23.4268698,29.4961868 L23.41464,29.5121475 L19.120063,34.666 L22.338063,35.953 L24.69,29.68 L23.8042196,29.5758831 C23.6744189,29.5602243 23.5482329,29.5333051 23.4268698,29.4961868 Z M21.9998382,25.8656472 C20.570072,26.5889389 19.082281,27 17.8000001,27 C16.5177191,27 15.0295619,26.5889389 13.5994065,25.8656472 L13.5998732,27.6645566 L13.5929622,27.8185906 C13.5725354,28.0526714 13.5074856,28.2745139 13.4059397,28.4769781 L13.414577,28.4878525 L17.8,33.75 L22.185486,28.4878525 L22.1944373,28.4779819 C22.0926027,28.2752472 22.0273715,28.0530583 22.006911,27.8185906 L22,27.6645566 L21.9998382,25.8656472 Z M23.833,7.601 L23.8203568,7.6074182 L23.0169367,7.73783707 L18.1569316,8.56809925 L17.9914005,8.59156184 L17.8920835,8.59932545 L17.7579584,8.59864695 L17.5444991,8.57633153 L16.8043265,8.46313692 L13.9526112,7.97300603 L11.845,7.603 L11.7854356,7.60482513 C10.4710088,7.67513523 9.48856477,8.50372426 9.40561959,9.4247817 L9.39992914,9.55089106 L9.39992914,18.0010566 C9.39756273,21.5967379 14.0795032,25.4 17.8000001,25.4 C21.4492798,25.4 26.0235259,21.7392779 26.1948398,18.2038038 L26.1998005,18 L26.1998005,9.55097429 C26.1998005,8.53312228 25.3003346,7.67745303 23.9822836,7.60497111 L23.833,7.601 Z" id="形状结合"></path>
                </g>
            </g>
        </g>
    </g>
</svg>