<?xml version="1.0" encoding="UTF-8"?>
<svg width="112px" height="102px" viewBox="0 0 112 102" version="1.1" xmlns="http://www.w3.org/2000/svg" xmlns:xlink="http://www.w3.org/1999/xlink">
    <!-- Generator: Sketch 63.1 (92452) - https://sketch.com -->
    <title>视觉优化/接受者-卡面</title>
    <desc>Created with Sketch.</desc>
    <g id="视觉优化/接受者-卡面" stroke="none" stroke-width="1" fill="none" fill-rule="evenodd">
        <g>
            <path d="M29.7939369,16.8566656 L98.7963691,41.8819049 C100.528596,42.5101349 101.421739,44.4186538 100.79126,46.1447013 L87.0922611,83.6481267 C86.4617821,85.3741742 84.5464305,86.2641312 82.8142037,85.6359012 L13.8117714,60.6106619 C12.0795446,59.982432 11.1864015,58.0739131 11.8168805,56.3478656 L25.5158794,18.8444402 C26.1463585,17.1183927 28.06171,16.2284357 29.7939369,16.8566656 Z" id="Rectangle" fill="#FA9D3B" opacity="0.424720982" transform="translate(56.304070, 51.246283) rotate(26.000000) translate(-56.304070, -51.246283) "></path>
            <path d="M67.294524,19.5084702 C72.6290198,16.7151338 78.3308528,15.109462 84.4000228,14.6914546 C93.7649174,14.6301665 101.192743,17.5162968 104.613838,23.4206702 C111.763788,35.7605679 98.7050893,56.611067 75.4464194,69.9915632 C52.1877495,83.3720594 27.536693,84.2156311 20.3867437,71.8757333 C19.5345126,70.4048914 18.96939,68.8131377 18.6744271,67.1275338 C18.2177033,63.5122396 18.4310456,60.4721854 19.3144542,58.007371" id="Oval-Copy" stroke="#FA9D3B" stroke-width="3" stroke-linecap="round" stroke-linejoin="round" transform="translate(62.505732, 47.648202) rotate(-4.000000) translate(-62.505732, -47.648202) "></path>
        </g>
    </g>
</svg>