<?xml version="1.0" encoding="UTF-8"?>
<svg width="24px" height="24px" viewBox="0 0 24 24" version="1.1" xmlns="http://www.w3.org/2000/svg" xmlns:xlink="http://www.w3.org/1999/xlink">
    <!-- Generator: Sketch 63.1 (92452) - https://sketch.com -->
    <title>画板</title>
    <desc>Created with Sketch.</desc>
    <g id="画板" stroke="none" stroke-width="1" fill="none" fill-rule="evenodd">
        <path d="M5.07692308,2.9 C5.45927406,2.9 5.76923077,3.20995671 5.76923077,3.59230769 L5.76923077,3.60769231 C5.76923077,3.99004329 5.45927406,4.3 5.07692308,4.3 L4.384,4.3 L4.384,21.099 L19.615,21.099 L19.615,4.3 L18.9230769,4.3 C18.5407259,4.3 18.2307692,3.99004329 18.2307692,3.60769231 L18.2307692,3.59230769 C18.2307692,3.20995671 18.5407259,2.9 18.9230769,2.9 L20.3076923,2.9 C20.6900433,2.9 21,3.20995671 21,3.59230769 L21,21.8076923 C21,22.1900433 20.6900433,22.5 20.3076923,22.5 L20.294,22.499 L3.70549806,22.4998769 C3.70111113,22.4999588 3.69671422,22.5 3.69230769,22.5 C3.30995671,22.5 3,22.1900433 3,21.8076923 L3,3.59230769 C3,3.20995671 3.30995671,2.9 3.69230769,2.9 L5.07692308,2.9 Z M16.1538462,15.5 C16.5361971,15.5 16.8461538,15.8099567 16.8461538,16.1923077 L16.8461538,16.2076923 C16.8461538,16.5900433 16.5361971,16.9 16.1538462,16.9 L7.84615385,16.9 C7.46380287,16.9 7.15384615,16.5900433 7.15384615,16.2076923 L7.15384615,16.1923077 C7.15384615,15.8099567 7.46380287,15.5 7.84615385,15.5 L16.1538462,15.5 Z M16.1538462,9.9 C16.5361971,9.9 16.8461538,10.2099567 16.8461538,10.5923077 L16.8461538,10.6076923 C16.8461538,10.9900433 16.5361971,11.3 16.1538462,11.3 L7.84615385,11.3 C7.46380287,11.3 7.15384615,10.9900433 7.15384615,10.6076923 L7.15384615,10.5923077 C7.15384615,10.2099567 7.46380287,9.9 7.84615385,9.9 L16.1538462,9.9 Z M7.84615385,1.5 C8.22850483,1.5 8.53846154,1.80995671 8.53846154,2.19230769 L8.53846154,5.00769231 C8.53846154,5.39004329 8.22850483,5.7 7.84615385,5.7 C7.46380287,5.7 7.15384615,5.39004329 7.15384615,5.00769231 L7.15384615,2.19230769 C7.15384615,1.80995671 7.46380287,1.5 7.84615385,1.5 Z M16.1538462,1.5 C16.5361971,1.5 16.8461538,1.80995671 16.8461538,2.19230769 L16.8461538,5.00769231 C16.8461538,5.39004329 16.5361971,5.7 16.1538462,5.7 C15.7714952,5.7 15.4615385,5.39004329 15.4615385,5.00769231 L15.4615385,2.19230769 C15.4615385,1.80995671 15.7714952,1.5 16.1538462,1.5 Z M13.3846154,2.9 C13.7669664,2.9 14.0769231,3.20995671 14.0769231,3.59230769 L14.0769231,3.60769231 C14.0769231,3.99004329 13.7669664,4.3 13.3846154,4.3 L10.6153846,4.3 C10.2330336,4.3 9.92307692,3.99004329 9.92307692,3.60769231 L9.92307692,3.59230769 C9.92307692,3.20995671 10.2330336,2.9 10.6153846,2.9 L13.3846154,2.9 Z" id="Combined-Shape" fill="#000000"></path>
    </g>
</svg>