<?xml version="1.0" encoding="UTF-8"?>
<svg width="48px" height="48px" viewBox="0 0 48 48" version="1.1" xmlns="http://www.w3.org/2000/svg" xmlns:xlink="http://www.w3.org/1999/xlink">
    <title>画板</title>
    <g id="交互视觉过完kk定稿-1期迭代" stroke="none" stroke-width="1" fill="none" fill-rule="evenodd">
        <g id="画板" transform="translate(-293.000000, -143.000000)" fill="#000000" fill-rule="nonzero">
            <g id="编组-5" transform="translate(300.000000, 145.000000)">
                <g id="father" transform="translate(0.000000, 0.799517)">
                    <path d="M23.0191238,1.64875577 L23.2921286,1.8165311 L23.625,2.03548269 L23.7151867,2.06105211 C24.3662037,2.2521504 25.1595808,2.62781039 25.9710184,3.25831014 L26.2148673,3.45517554 L26.4387103,3.6494278 C28.1967627,5.22812109 29.2685685,7.57265368 29.34555,10.7422199 L29.35,11.1116039 L29.35,19.6036933 C29.35,22.158451 27.4014449,24.2796266 24.9434556,24.3954984 L24.7315568,24.4004827 L23.9645744,24.4010354 C23.4345714,25.0613249 22.8146647,25.645949 22.1199891,26.1336026 L22.1188512,27.242 L22.4047027,27.4065513 C23.0151612,27.7726403 23.581077,28.177221 24.1020064,28.6202796 L27.6751525,29.6247049 L28.3216814,29.8158494 L28.8632257,29.9867742 L29.1861251,30.0959597 C31.3853102,30.8618298 32.2905925,31.7530182 32.688636,33.6818437 L34.412853,42.0415387 C34.5006353,42.4745584 34.2207652,42.8967519 33.7877454,42.9845342 C33.3908107,43.0650014 33.002973,42.8365383 32.8734751,42.4643669 L32.8447499,42.3594267 L31.1213074,34.0035239 C30.8475268,32.6768536 30.3632923,32.2001578 28.6599183,31.6069548 L28.3576121,31.5048204 L27.8429287,31.3426384 L27.2206425,31.1588492 L25.0651905,30.5542547 C25.2499923,32.2895394 24.4299836,34.5444219 22.5948714,35.2788145 L22.4418422,35.3229775 L17.399652,36.2482639 C17.3199015,36.2744491 17.2343101,36.2882127 17.144824,36.2869595 C17.036761,36.29108 16.9348999,36.2745763 16.8416804,36.2409753 L12.295364,35.3201937 L12.1567755,35.2788145 C10.3114702,34.5403428 9.49257651,32.2644431 9.68962881,30.5253872 L6.02892356,31.5773054 L5.61233053,31.7373404 C4.24314325,32.2854109 3.7848,32.7312514 3.52907772,33.8408076 L2.99875956,36.3722286 L2.18485851,40.3382089 L1.90289712,41.7508794 L1.78544889,42.3523709 C1.70156334,42.7861624 1.28190322,43.0698171 0.848111772,42.9859316 C0.414320325,42.902046 0.130665553,42.4823859 0.214551105,42.0485945 L0.539755674,40.4029036 L1.08235973,37.7379974 L1.9263947,33.6828534 C2.3006654,31.8360609 3.10950369,31.0250408 5.05907819,30.2396602 L5.52955118,30.0584139 L10.7168362,28.563551 C11.3362412,28.0444971 12.0182913,27.5790485 12.7622569,27.1672278 L12.4958512,27.32 L12.4986784,26.9231483 C12.5007004,26.7266041 12.5039398,26.5406726 12.5087207,26.3575453 C11.7004462,25.8370092 10.9709689,25.1783706 10.3534774,24.4012401 L9.56844318,24.4004827 C7.08251823,24.4004827 5.06490962,22.3502726 4.95473841,19.8215741 L4.95,19.6036933 L4.95,12.6718479 C4.95,9.15721107 6.3253058,5.86688782 8.71333961,3.48868682 C12.6137339,-0.392297514 18.4435343,-1.07917419 23.0191238,1.64875577 Z M21.7948512,29.115 L18.6916469,34.383 L22.0558512,33.767 L22.1601995,33.7191722 C23.4450491,33.0374332 23.7848759,30.7201973 23.2947511,30.0557437 L23.2859483,30.0546516 C23.2340819,30.0397272 23.183926,30.0196121 23.1362294,29.994651 L23.0666223,29.953618 L21.7948512,29.115 Z M12.8798512,29.074 L11.5768512,29.934 L11.531179,29.9736266 C10.9370233,30.499643 11.2464457,33.0055166 12.5914474,33.7191722 L12.7512432,33.7933489 L12.698,33.768 L15.659,34.368 L12.8798512,29.074 Z M20.2602661,27.1291184 C18.1611321,27.944409 15.9984891,27.8943556 14.0971114,27.1648814 L14.0955876,27.842753 L14.0888512,27.934 L17.1718512,33.808 L20.5532764,28.0719435 C20.5420376,28.0343681 20.5335242,27.9958342 20.5278893,27.9566261 L20.5197546,27.842753 L20.5200007,27.023439 C20.4341636,27.0599862 20.3475791,27.0952216 20.2602661,27.1291184 Z M22.9684973,8.73711186 C21.1671269,9.91771944 18.8881143,10.4696078 16.1992212,9.93221092 L15.8609796,9.85932964 L15.6085196,9.80663746 C13.7721916,9.46478496 12.2658483,10.0985585 11.0226169,11.4028061 C10.731878,11.7078141 10.4747836,12.0316935 10.2522202,12.3589247 L10.091786,12.6047341 L9.95864748,12.8254075 L9.875,12.974 L9.87596009,17.9706337 L9.88150248,18.8275855 L9.90524395,19.1083716 C10.43877,24.3404617 15.2361164,27.3640242 19.6811052,25.6376183 C22.4254311,24.5722119 24.3054488,21.8757288 24.4136641,18.7944449 L24.4185956,18.5133028 L24.4201481,12.7348142 L24.424816,12.4508257 C24.4164008,11.280812 24.1817062,10.0015701 23.5994984,8.92115678 C23.4658972,8.67325459 23.181979,8.59717752 22.9684973,8.73711186 Z" id="形状结合"></path>
                </g>
            </g>
        </g>
    </g>
</svg>