<?xml version="1.0" encoding="UTF-8"?>
<svg width="48px" height="48px" viewBox="0 0 48 48" version="1.1" xmlns="http://www.w3.org/2000/svg" xmlns:xlink="http://www.w3.org/1999/xlink">
    <title>画板</title>
    <g id="交互视觉过完kk定稿-1期迭代" stroke="none" stroke-width="1" fill="none" fill-rule="evenodd">
        <g id="画板" transform="translate(-293.000000, -291.000000)" fill="#000000">
            <path d="M327,299 C328.656854,299 330,300.343146 330,302 C330,302.19063 329.98222,302.377108 329.948227,302.557865 C330.938706,302.951205 331.804072,303.539257 332.477766,304.264014 C333.360487,304.854813 333.969503,305.74118 334.304991,306.922582 C334.975212,309.282725 334.751997,309.873125 334.481705,310.271299 L334.362395,310.439087 L334.304991,310.523756 C334.215489,310.663514 333.837619,310.607208 333.324324,310.436736 L333.36888,312.245211 C333.36888,314.836966 331.955275,317.165741 329.78635,318.27897 C329.804313,318.547799 329.838946,318.842238 329.895733,319.136197 C329.984293,319.594626 330.113983,319.927115 330.234641,320.052633 C330.244355,320.062739 330.264543,320.075679 330.294835,320.091098 L330.347807,320.116041 L330.498123,320.176015 L330.544746,320.192916 L330.544746,320.192916 L330.594917,320.210513 L330.830398,320.287199 L331.119901,320.372359 L331.461224,320.463862 L332.959828,320.82792 L333.765735,321.033562 C335.001692,321.367825 335.804483,321.687096 336.38114,322.137009 C337.427808,322.953628 338.079581,324.851974 338.455386,327.366436 L338.502849,327.697865 L338.588619,328.380769 L338.662573,329.08887 L338.72518,329.820331 L338.776908,330.573315 L338.798839,330.957305 C338.822419,331.398503 338.483873,331.77528 338.042675,331.79886 C337.635415,331.820626 337.283047,331.533835 337.212699,331.14257 L337.20112,331.042695 L337.158975,330.359446 L337.146791,330.19063 L337.146791,330.19063 L337.133955,330.022704 L337.076166,329.360843 L337.008234,328.71696 L336.970536,328.40269 L336.88782,327.791351 L336.865637,327.642371 L336.865637,327.642371 L336.842859,327.495026 L336.745877,326.922925 C336.424038,325.157007 335.963451,323.840493 335.396926,323.398485 C335.087851,323.157342 334.56368,322.934458 333.776336,322.700178 L333.53219,322.629522 L333.04262,322.497621 L332.777014,322.430242 L331.158756,322.037646 L330.605778,321.891097 C330.196983,321.775762 329.879683,321.666425 329.627,321.543241 C328.748966,321.931612 327.859734,322.127278 326.965456,322.127278 C326.052046,322.127278 325.143902,321.923151 324.246201,321.51996 C324.050449,321.610095 323.809733,321.692608 323.509446,321.77612 L323.131676,321.874438 L322.694419,321.97702 L320.653413,322.411102 L320.047822,322.549626 C320.208679,323.067975 320.305146,323.60304 320.326534,324.137183 L320.331073,324.363052 L320.331073,331 C320.331073,331.441828 319.972901,331.8 319.531073,331.8 C319.123232,331.8 318.786672,331.494812 318.737307,331.10035 L318.731073,331 L318.731073,324.363052 C318.731073,322.328028 317.176145,320.171795 315.363718,319.822743 L315.181665,319.793933 L315.050926,319.766502 L313.268029,319.232866 C312.218562,320.541223 309.800909,321.8 307.7,321.8 C305.635616,321.8 303.083857,320.597468 301.884186,319.330156 L300.375455,319.768308 L300.250849,319.793933 L300.058084,319.82342 C298.273196,320.148765 296.897726,321.863447 296.804988,323.751616 L296.8,323.954529 L296.8,331 L296.793767,331.10035 C296.744402,331.494812 296.407841,331.8 296,331.8 C295.592159,331.8 295.255598,331.494812 295.206233,331.10035 L295.2,331 L295.2,323.954529 L295.20452,323.727149 C295.30648,321.161067 297.12309,318.823948 299.596616,318.284158 L299.830402,318.238867 L299.978028,318.217 L303.320761,317.247668 L303.479511,317.21407 C303.491567,317.209962 303.498899,317.20608 303.502441,317.205935 L303.505031,317.20896 L303.505193,315.641771 C302.002873,314.695048 300.843385,313.331909 300.844576,311.807692 L300.844599,308.079164 C300.38497,306.432551 300.233495,304.149758 301,303 C302.28005,301.079925 304.5,300 308,300 C311.5,300 314,302 315,304 C315.580923,305.161846 315.149431,307.336108 314.68575,308.954423 L314.686441,311.807692 C314.686441,313.33123 313.528092,314.693834 312.027113,315.640507 L312.026043,317.20896 C312.026024,317.202253 312.033478,317.207908 312.051563,317.21407 L312.216446,317.249474 L315.459,318.218 L315.594533,318.238376 C317.158617,318.512252 318.525591,319.625521 319.383753,321.063997 L319.448447,321.047679 L319.845989,320.952309 L320.299411,320.850673 L322.109125,320.468074 L322.452203,320.390114 L322.894141,320.280597 L323.240146,320.18536 L323.535304,320.09104 L323.605124,320.061908 C323.612199,320.058204 323.616952,320.0551 323.619323,320.052633 C323.739981,319.927115 323.869671,319.594626 323.958231,319.136197 C324.018502,318.824204 324.053817,318.51167 324.072113,318.226282 C322.24512,317.233831 320.877394,315.302377 320.621665,312.819538 L320.598169,312.535527 L320.593857,312.238379 L320.592996,310.575616 C320.026181,310.770881 319.63494,310.786994 319.578934,310.523756 C319.022871,307.910132 319.507501,306.022359 321.032825,304.860437 C321.750434,303.860821 322.800767,303.055009 324.051664,302.556503 C324.01778,302.377108 324,302.19063 324,302 C324,300.343146 325.343146,299 327,299 Z M325.624736,318.81847 C325.600994,319.023034 325.569773,319.229577 325.529186,319.439676 C325.473772,319.726527 325.405384,319.990216 325.319671,320.229033 C325.872233,320.428695 326.420517,320.527278 326.965456,320.527278 C327.487785,320.527278 328.013187,320.436706 328.54397,320.253304 C328.453352,320.008526 328.382119,319.736501 328.324778,319.439676 C328.284858,319.233033 328.253999,319.029829 328.230551,318.83293 C327.344458,319.024556 326.460514,319.010218 325.624736,318.81847 Z M310.426889,316.445039 C309.513969,316.80033 308.579895,317 307.765581,317 C306.951793,317 306.018194,316.800588 305.1056,316.445728 L305.105028,317.211144 L305.098125,317.354355 C305.035968,318.0148 304.560638,318.559421 303.924919,318.750292 L303.786331,318.785691 L303.731028,318.794 L303.662956,318.8139 C304.669146,319.459241 306.364638,320.2 307.7,320.2 C309.081762,320.2 310.706913,319.408348 311.576331,318.739295 C310.954839,318.54139 310.494079,318.003887 310.432949,317.354355 L310.426046,317.211144 L310.426889,316.445039 Z M326.762,305.972 L326.600502,306.091852 C326.328711,306.287264 326.016107,306.497504 325.665521,306.722029 L325.173571,307.031166 L324.708026,307.314548 C324.063656,307.701572 323.375016,308.095506 322.686605,308.476194 L322.192,308.746 L322.196246,312.462363 C322.453996,316.027244 325.538417,318.125586 328.452846,317.113082 C328.563762,317.019425 328.70042,316.955953 328.850586,316.934311 L328.901,316.93 L329.105028,316.82978 C330.648546,316.013858 331.685473,314.356628 331.764297,312.493317 L331.76913,312.265209 L331.681,308.764 L331.130777,308.478406 C330.398383,308.093849 329.665767,307.696462 328.980419,307.306876 C328.738444,307.169325 328.506162,307.03486 328.284776,306.903989 C327.846947,306.645171 327.457498,306.404 327.120229,306.181055 L326.817,305.975 L326.792746,305.99793 L326.762,305.972 Z M308,305 C306.890094,305.012735 305.374507,304.297492 304.084322,304.547972 C303.670971,304.831712 303.328635,305.168528 303.050562,305.550788 C302.69164,306.044188 302.484492,306.582472 302.449795,306.858555 L302.444579,306.933206 L302.444579,311.808944 C302.443339,313.394157 305.405537,315.4 307.765581,315.4 C310.057675,315.4 312.917712,313.507247 313.079272,311.944655 L313.086441,311.807692 L313.086441,306.933254 C313.086441,306.584743 312.751078,305.78547 312.142617,305.145365 C311.949762,304.94248 311.734934,304.756527 311.496812,304.58937 L311.37747,304.509305 C310.282259,304.085416 309.202227,304.986205 308,305 Z" id="形状结合"></path>
        </g>
    </g>
</svg>