<?xml version="1.0" encoding="UTF-8"?>
<svg width="48px" height="48px" viewBox="0 0 48 48" version="1.1" xmlns="http://www.w3.org/2000/svg" xmlns:xlink="http://www.w3.org/1999/xlink">
    <title>画板</title>
    <g id="交互视觉过完kk定稿-1期迭代" stroke="none" stroke-width="1" fill="none" fill-rule="evenodd">
        <g id="画板" transform="translate(-293.000000, -215.000000)" fill="#000000" fill-rule="nonzero">
            <g id="编组-4" transform="translate(303.199987, 220.500000)">
                <g id="编组-2" transform="translate(0.000000, 24.644576)">
                    <path d="M11.5086578,0.440842861 L11.4796477,0.646281742 L11.4796477,0.646281742 C11.3674501,1.37125382 11.2063166,1.97445433 10.9655199,2.44248818 C11.9326703,2.82763293 12.893431,3.018502 13.8502467,3.018502 C14.7762192,3.018502 15.7058862,2.83974007 16.6426107,2.47911565 C16.391023,2.00509167 16.2244954,1.38971534 16.1094313,0.64629334 L16.0987959,0.570896636 C16.6547966,0.517211653 17.1808287,0.426241074 17.6768164,0.298307084 C17.680021,0.332097257 17.6852271,0.366823318 17.6906044,0.401565351 C17.7998022,1.10708607 17.9652226,1.63640852 18.1430336,1.86727916 C18.1706403,1.90312386 18.2344755,1.94879883 18.3338946,2.00262541 L18.415121,2.04449755 L18.6173641,2.13678288 L18.73826,2.18688133 L18.73826,2.18688133 L18.8722583,2.23940713 L19.1793206,2.35111131 L19.5380675,2.47063641 L21.2453932,2.98827595 L21.753624,3.146965 C23.3246879,3.65323522 24.3168512,4.1180649 24.9989358,4.78228125 C26.2702085,6.02025105 27.1012542,8.49440964 27.5825406,12.244688 C27.6387807,12.6829218 27.3291136,13.0837721 26.8908798,13.1400122 C26.452646,13.1962523 26.0517957,12.8865852 25.9955556,12.4483514 C25.5569048,9.03029751 24.8224566,6.84372566 23.8826789,5.92856681 C23.4943889,5.55044862 22.8280257,5.2123713 21.7983065,4.85014038 L21.5332575,4.7590423 L20.9565554,4.57293535 L19.0504303,3.99451633 L18.5806456,3.83798998 C18.4426179,3.78975838 18.3136563,3.74227989 18.1930891,3.69490618 L18.02,3.624 L17.8473907,3.70677696 C16.5240786,4.31283779 15.1897928,4.618502 13.8502467,4.618502 C12.5107006,4.618502 11.1764149,4.31283779 9.85310281,3.70677696 L9.62963096,3.59864577 C9.44601419,3.67834454 9.24007464,3.75710399 9.00864645,3.83798084 L8.53890069,3.99450946 L6.63295959,4.57292881 C5.1122123,5.04582424 4.19246286,5.45590225 3.70715794,5.92853974 C2.27840954,7.31999496 1.74367021,8.96902722 1.59929751,12.3792618 C1.58060942,12.8206942 1.20760807,13.1633962 0.766175671,13.1447081 C0.324743275,13.12602 -0.0179586934,12.7530186 0.000729400144,12.3115862 C0.160732556,8.53214366 0.816284052,6.51055014 2.59084546,4.78230833 C3.27287372,4.11808236 4.26495289,3.65324692 5.83587756,3.14697238 L6.34406212,2.98828235 L8.0512206,2.47064328 L8.40992558,2.35112063 L8.71695103,2.23941926 C8.81062592,2.20362891 8.89560705,2.16935195 8.9718139,2.1367982 L9.17403117,2.04451645 C9.3204757,1.97227277 9.41157789,1.91211069 9.4460798,1.8673089 C9.62387576,1.63643539 9.78928273,1.1071046 9.89847103,0.401576949 C9.91921961,0.267508577 9.93742003,0.133678086 9.95331532,0.00100760161 C10.440354,0.190617331 10.9592449,0.337662022 11.5086578,0.440842861 Z" id="形状结合"></path>
                </g>
                <g id="编组" transform="translate(3.396918, 0.000000)">
                    <path d="M10.4030954,0 C17.3492418,0 19.9030954,4 20.9030954,7 C21.2697621,8.1 21.305433,10.1411111 21.1542458,11.9895185 L21.1247302,12.3232167 C20.9719176,13.9287715 20.6806194,15.3310794 20.3496469,15.7528738 C20.0118014,22.2986287 16.7643839,25.5647484 10.6775455,25.2529184 C6.53868677,25.4274199 3.70634001,23.6488056 2.07901431,20.4028296 C1.39888623,19.0461993 0.95812563,17.5173531 0.704413682,15.8487118 C0.047247978,15.3561617 -0.336232622,9.23518016 0.403095409,7 C1.39540204,4 3.456949,0 10.4030954,0 Z M10.7445943,8.00083029 L10.0621862,8.00083029 C8.09612156,8.01405751 3.75335214,8.2380047 2.02670681,12.0296078 C2.03492374,13.1721565 2.09742527,14.242786 2.22182948,15.2401629 L2.22182948,15.2401629 L2.30395275,15.829731 C3.0809754,20.8619628 5.56728971,23.8676012 10.6844191,23.6546581 C16.4389644,23.9468828 19.1160272,20.6820472 18.7610294,13.4560367 L18.7610294,13.4560367 L18.7180543,12.755856 C18.6894369,12.3649647 18.6525385,11.9632146 18.6073656,11.5505481 C16.7294479,8.21867949 12.629914,8.01347471 10.7445943,8.00083029 Z" id="形状结合"></path>
                </g>
            </g>
        </g>
    </g>
</svg>