<?xml version="1.0" encoding="UTF-8"?>
<svg width="24px" height="24px" viewBox="0 0 24 24" version="1.1" xmlns="http://www.w3.org/2000/svg" xmlns:xlink="http://www.w3.org/1999/xlink">
    <title>app_open</title>
    <g id="app_open" stroke="none" stroke-width="1" fill="none" fill-rule="evenodd">
        <path d="M15.3634372,2.40060059 L8.6383626,2.40060059 L8.05405893,2.40548472 L7.54717682,2.41750503 C7.46843381,2.42019826 7.39238088,2.42326021 7.31875009,2.42672655 L6.90388781,2.4526629 C6.31876306,2.49970311 5.88642983,2.58528093 5.41157695,2.73541177 C4.15857681,3.19089624 3.19089624,4.15857681 2.74368675,5.38723153 C2.55450741,5.98433539 2.46566638,6.50645733 2.42698092,7.31745894 L2.41055224,7.79065968 L2.40226203,8.33428084 C2.40145799,8.43148174 2.40091765,8.53216356 2.40060059,8.6365997 L2.40060059,15.3616312 L2.40548454,15.9459051 L2.41750442,16.4527623 C2.42019756,16.5315016 2.4232594,16.6075511 2.42672563,16.6811788 L2.45266121,17.0960262 C2.49970006,17.6811347 2.58527574,18.1134805 2.73540376,18.5883977 C3.19091382,19.8414715 4.15863866,20.8091498 5.38730186,21.2561888 L5.64043573,21.3320286 L5.85876131,21.3887664 L6.07251233,21.4370398 L6.28901436,21.4775106 C6.32573426,21.4836422 6.36287402,21.4894764 6.40058625,21.4950268 L6.63495027,21.5250344 L6.89037925,21.548894 L7.17419878,21.5672672 L7.85631181,21.5902015 L8.26925648,21.5960863 L9.27555,21.6 L15.2599553,21.5991326 L16.1432954,21.5902103 L16.6704244,21.574626 L16.9711101,21.5587624 L17.2397526,21.5377481 C17.2822629,21.5337797 17.3237433,21.5295692 17.3643462,21.5251028 L17.5986551,21.4951229 L17.8192292,21.4583394 L18.0333915,21.4140912 L18.3586329,21.3322764 L18.5884779,21.2644209 C19.8413613,20.8091498 20.8090862,19.8414715 21.2563132,18.6127685 L21.3324163,18.3585609 L21.3890714,18.1402927 L21.4372746,17.926597 L21.4776866,17.7101508 C21.4838094,17.6734403 21.4896351,17.6363102 21.4951775,17.5986077 L21.5251418,17.3643047 L21.5489669,17.1089433 L21.5673137,16.8252002 L21.5860074,16.3303507 L21.5960918,15.7304497 L21.6,14.72445 L21.5991319,8.73986046 L21.5902024,7.85621662 L21.5746057,7.32890673 L21.5587294,7.02811806 L21.5376983,6.75938362 C21.5337268,6.71685875 21.5295129,6.67536422 21.5250429,6.63474743 L21.495039,6.40035846 L21.458226,6.17970921 C21.4514864,6.14367233 21.4444354,6.10790269 21.4370594,6.07224767 L21.3887924,5.85847213 L21.3320622,5.64012181 L21.2645882,5.41157695 C20.8375715,4.23688932 19.9603825,3.31297084 18.8400216,2.83358039 L18.5883977,2.73540376 C18.1134805,2.58527574 17.6811347,2.49970006 17.0963476,2.45266169 L16.6817656,2.42672652 L16.2091756,2.41049689 L15.6657371,2.40225987 C15.5685467,2.40145792 15.4678692,2.40091763 15.3634372,2.40060059 Z M15.3616313,3.60059787 L15.9023654,3.6049195 L16.3670941,3.615267 L16.7677343,3.63299386 L17.116203,3.65945088 C17.4425583,3.69072324 17.7085317,3.73711701 17.9677498,3.80471074 L18.2023315,3.87131325 C19.0976768,4.19720376 19.8027962,4.90232319 20.1286868,5.79766847 L20.200361,6.05348999 L20.2456723,6.24288615 L20.2837338,6.43527349 L20.3151503,6.63832446 L20.3405265,6.85971155 L20.360467,7.10710721 L20.3755766,7.38818391 L20.3905057,7.88973444 L20.3961834,8.2885808 L20.4,9.27555 L20.3991477,15.2518662 L20.3905175,16.1098163 L20.3756068,16.6112074 L20.3605158,16.8921961 L20.3405999,17.1395155 L20.315255,17.3608357 L20.2838771,17.5638264 L20.2458625,17.7561578 L20.1750752,18.0414465 L20.1204038,18.2267023 C19.8027908,19.0976917 19.0976755,19.8027732 18.2024019,20.1285112 L17.9454319,20.2005179 L17.7560977,20.2457935 L17.5637734,20.2838251 L17.3607892,20.3152169 L17.1394753,20.3405732 L16.8921618,20.360498 L16.6111789,20.3755958 L16.1097968,20.3905132 L15.7110849,20.3961864 L14.72445,20.4 L8.74800457,20.3991466 L7.88985454,20.3905053 L7.38835667,20.3755754 L7.10731335,20.360465 L6.85995023,20.3405233 L6.63859528,20.3151456 L6.43557648,20.2837271 L6.24322181,20.2456632 L6.05385926,20.200349 L5.95790252,20.1747841 C5.89654346,20.1579515 5.8351608,20.1398221 5.77340326,20.1202871 C4.90232453,19.8027732 4.19720919,19.0976917 3.87131325,18.2023315 C3.7788009,17.9088752 3.71631649,17.6258899 3.6749009,17.2701084 L3.64435258,16.9453831 L3.62286993,16.5733499 L3.6091992,16.1423564 C3.60750208,16.0649634 3.60607823,15.9846282 3.6049015,15.901108 L3.60059787,15.3598253 L3.60059787,8.63840566 L3.6049199,8.09765282 L3.61526814,7.63290156 L3.63299572,7.23223931 L3.65945305,6.88375349 C3.70114951,6.44859554 3.76972643,6.12080788 3.87958823,5.77332305 C4.19720376,4.90232319 4.90232319,4.19720376 5.79766847,3.87131325 C6.13298844,3.76558646 6.45467383,3.69907824 6.88699903,3.65841641 L7.23392968,3.63255729 C7.29585622,3.62898549 7.35999694,3.6257653 7.42659458,3.62287062 L7.85760524,3.60919951 C7.93500145,3.60750234 8.01534002,3.60607843 8.09886368,3.60490166 L8.64016847,3.60059787 L15.3616313,3.60059787 Z" id="Icon-Shape-2-Copy-7" fill="#000000" fill-rule="nonzero"></path>
    </g>
</svg>