<?xml version="1.0" encoding="UTF-8"?>
<svg width="32px" height="32px" viewBox="0 0 32 32" version="1.1" xmlns="http://www.w3.org/2000/svg" xmlns:xlink="http://www.w3.org/1999/xlink">
    <title>编组 24</title>
    <g id="页面1" stroke="none" stroke-width="1" fill="none" fill-rule="evenodd">
        <g id="编组-13备份-3" transform="translate(-343.000000, -36.000000)">
            <g id="编组-14" transform="translate(331.000000, 24.000000)">
                <g id="编组-24" transform="translate(12.000000, 12.000000)">
                    <rect id="矩形" fill="#F7F7F7" x="0" y="0" width="32" height="32" rx="16"></rect>
                    <g id="编组" transform="translate(5.000000, 5.000000)" fill="#000000" fill-opacity="0.3">
                        <g id="common_icons_more">
                            <path d="M4.58333333,9.16666667 C5.5957,9.16666667 6.41666667,9.98726667 6.41666667,11 C6.41666667,12.0123667 5.5957,12.8333333 4.58333333,12.8333333 C3.57096667,12.8333333 2.75,12.0123667 2.75,11 C2.75,9.98726667 3.57096667,9.16666667 4.58333333,9.16666667 Z M11,9.16666667 C12.0123667,9.16666667 12.8333333,9.98726667 12.8333333,11 C12.8333333,12.0123667 12.0123667,12.8333333 11,12.8333333 C9.98763333,12.8333333 9.16666667,12.0123667 9.16666667,11 C9.16666667,9.98726667 9.98763333,9.16666667 11,9.16666667 Z M17.4166667,9.16666667 C18.4290333,9.16666667 19.25,9.98726667 19.25,11 C19.25,12.0123667 18.4290333,12.8333333 17.4166667,12.8333333 C16.4043,12.8333333 15.5833333,12.0123667 15.5833333,11 C15.5833333,9.98726667 16.4043,9.16666667 17.4166667,9.16666667 Z" id="Combined-Shape"></path>
                        </g>
                    </g>
                </g>
            </g>
        </g>
    </g>
</svg>