<?xml version="1.0" encoding="UTF-8"?>
<svg width="24px" height="24px" viewBox="0 0 24 24" version="1.1" xmlns="http://www.w3.org/2000/svg" xmlns:xlink="http://www.w3.org/1999/xlink">
    <title>List</title>
    <g id="页面-1" stroke="none" stroke-width="1" fill="none" fill-rule="evenodd">
        <g id="编组" fill="#FF6146">
            <path d="M12,1.2 C13.7120827,1.2 15.1,2.58791728 15.1,4.3 L15.099886,6.2 L17.864447,6.2 C18.3909109,6.2 18.8272121,6.60818316 18.862232,7.133481 L19.728899,20.533481 C19.7656364,21.0845425 19.3486945,21.5610477 18.797633,21.5977852 L18.731114,21.6 L5.268886,21.6 C4.71660125,21.6 4.268886,21.1522847 4.268886,20.6 L5.137768,7.133481 C5.17278786,6.60818316 5.60908913,6.2 6.135553,6.2 L8.899886,6.2 L8.9,4.3 C8.9,2.58791728 10.2879173,1.2 12,1.2 Z M17.676,7.4 L15.099886,7.399 L15.1,7.4 L8.9,7.4 L8.899886,7.399 L6.323,7.4 L5.482,20.4 L18.517,20.4 L17.676,7.4 Z M12,2.4 C11.0006276,2.4 10.1814657,3.17157277 10.1057164,4.15151612 L10.1,4.3 L10.1,6.2 L13.899,6.2 L13.9,4.3 C13.9,3.3006276 13.1284272,2.48146567 12.1484839,2.4057164 L12,2.4 Z" id="形状结合"></path>
        </g>
    </g>
</svg>