<?xml version="1.0" encoding="UTF-8"?>
<svg width="14px" height="14px" viewBox="0 0 14 14" version="1.1" xmlns="http://www.w3.org/2000/svg" xmlns:xlink="http://www.w3.org/1999/xlink">
    <title>编组 5备份</title>
    <g id="控件" stroke="none" stroke-width="1" fill="none" fill-rule="evenodd">
        <g id="编组-5备份" transform="translate(1.000000, 1.000000)">
            <circle id="椭圆形" stroke="#FFFFFF" fill="#6467F0" cx="6" cy="6" r="6.5"></circle>
            <g id="编组-3" transform="translate(2.000000, 2.000000)" fill="#FFFFFF">
                <path d="M7.53856167,3.49207382 C7.27339501,3.92738599 6.83231835,4.26098275 6.30384454,4.41457859 C6.29045605,4.41848357 6.27743945,4.4225745 6.26405095,4.42629352 C6.1824183,4.44935149 6.09855423,4.46366975 6.01561992,4.46366975 C5.64948166,4.46366975 5.44270373,4.21635442 5.55390265,3.91120822 C5.63497745,3.68806657 5.84826368,3.49988378 6.1085956,3.41267259 C6.51192413,3.26558505 6.79364046,2.93012877 6.79364046,2.53963089 C6.79364046,2.0137604 6.28190228,1.5873739 5.65078332,1.5873739 C5.01966436,1.5873739 4.50792618,2.0137604 4.50792618,2.53963089 L4.50792618,5.46036911 C4.50792618,6.16270745 4.10106457,6.7785784 3.49207382,7.12705128 C3.16015062,7.31690763 2.76928083,7.42847845 2.34921668,7.42847845 C1.15894194,7.42847845 0.190507182,6.54558133 0.190507182,5.46036911 C0.190507182,5.11487146 0.289247362,4.79038631 0.461438334,4.50792618 C0.727906652,4.0707545 1.17158663,3.73604203 1.70322161,3.58337595 C1.70377946,3.58319 1.70415136,3.58300404 1.70452327,3.58300404 C1.79415183,3.55511134 1.88712752,3.53949142 1.97880154,3.53949142 C2.34661336,3.53949142 2.55432105,3.78792246 2.44275022,4.09455627 C2.36706801,4.30207801 2.16363721,4.48096323 1.92636326,4.57617033 C1.89809865,4.5854679 1.87039189,4.59606713 1.84324299,4.60741016 C1.46613361,4.76305146 1.20635954,5.086049 1.20635954,5.46036911 C1.20635954,5.98642555 1.71809772,6.4126261 2.34921668,6.4126261 C2.98033564,6.4126261 3.49207382,5.98642555 3.49207382,5.46036911 L3.49207382,2.53963089 C3.49207382,1.83729255 3.89893543,1.2214216 4.50792618,0.872948724 C4.83984938,0.683092371 5.23090512,0.571335596 5.65078332,0.571335596 C6.84124401,0.571335596 7.80949282,1.45441867 7.80949282,2.53963089 C7.80949282,2.88512854 7.71075264,3.20961369 7.53856167,3.49207382" id="路径"></path>
            </g>
        </g>
    </g>
</svg>