<?xml version="1.0" encoding="UTF-8"?>
<svg width="32px" height="32px" viewBox="0 0 32 32" version="1.1" xmlns="http://www.w3.org/2000/svg" xmlns:xlink="http://www.w3.org/1999/xlink">
    <title>切片</title>
    <g id="2021/3/9" stroke="none" stroke-width="1" fill="none" fill-rule="evenodd">
        <g id="icons_filled_miniprogram_add" fill="#FFFFFF">
            <g id="编组" transform="translate(3.733333, 3.733333)">
                <path d="M5.6,13.6 C8.54551867,13.6 10.9333333,15.9878147 10.9333333,18.9333333 C10.9333333,21.878852 8.54551867,24.2666667 5.6,24.2666667 C2.65448133,24.2666667 0.266666667,21.878852 0.266666667,18.9333333 C0.266666667,15.9878147 2.65448133,13.6 5.6,13.6 Z M18.9333333,13.6 C21.878852,13.6 24.2666667,15.9878147 24.2666667,18.9333333 C24.2666667,21.878852 21.878852,24.2666667 18.9333333,24.2666667 C15.9878147,24.2666667 13.6,21.878852 13.6,18.9333333 C13.6,15.9878147 15.9878147,13.6 18.9333333,13.6 Z M5.6,0.266666667 C8.54551867,0.266666667 10.9333333,2.65448133 10.9333333,5.6 C10.9333333,8.54551867 8.54551867,10.9333333 5.6,10.9333333 C2.65448133,10.9333333 0.266666667,8.54551867 0.266666667,5.6 C0.266666667,2.65448133 2.65448133,0.266666667 5.6,0.266666667 Z M18.9333333,0.266666667 C21.878852,0.266666667 24.2666667,2.65448133 24.2666667,5.6 C24.2666667,8.54551867 21.878852,10.9333333 18.9333333,10.9333333 C15.9878147,10.9333333 13.6,8.54551867 13.6,5.6 C13.6,2.65448133 15.9878147,0.266666667 18.9333333,0.266666667 Z" id="形状结合"></path>
            </g>
        </g>
    </g>
</svg>