<?xml version="1.0" encoding="UTF-8"?>
<svg width="24px" height="24px" viewBox="0 0 24 24" version="1.1" xmlns="http://www.w3.org/2000/svg" xmlns:xlink="http://www.w3.org/1999/xlink">
    <title>app_open_page</title>
    <g id="app_open_page" stroke="none" stroke-width="1" fill="none" fill-rule="evenodd">
        <g id="编组" transform="translate(2.000000, 2.000000)" fill="#FFFFFF">
            <circle id="椭圆形" fill-opacity="0.1" cx="10" cy="10" r="10"></circle>
            <g id="3.Icons/Outlined/time" transform="translate(5.000000, 5.000000)" fill-rule="nonzero">
                <path d="M6.81619563,0.0509241172 L3.18682643,0.0509241172 C2.44646342,0.0558959747 2.07864721,0.0925034079 1.66057021,0.22468383 C0.986320109,0.469659683 0.469659683,0.986320109 0.230890063,1.64231115 C0.092505355,2.07864106 0.0558961555,2.44649118 0.0509241172,3.18382563 L0.0509241172,6.81316749 C0.0558958202,7.55348817 0.0925018462,7.92128337 0.224677818,8.33941077 C0.469669987,9.0137082 0.986358594,9.53037198 1.64236389,9.76905413 L1.78053452,9.81066987 L1.95342773,9.85416805 C2.32130209,9.93716702 2.67708753,9.95 3.637775,9.95 L6.93809407,9.94724764 C7.48744849,9.94034917 7.76321021,9.9180427 8.04612241,9.85425783 L8.21897373,9.81080093 C8.2792439,9.79385493 8.2792439,9.79385493 8.33947092,9.77522816 C9.01364141,9.53037198 9.53033001,9.0137082 9.76910994,8.35768885 L9.81087578,8.21891977 L9.85430923,8.04607714 C9.93718487,7.6783089 9.95,7.32261775 9.95,6.362225 L9.94724543,3.06170713 C9.93965104,2.45720876 9.91339799,2.18387215 9.83375867,1.86789906 L9.77531617,1.66057021 C9.55075497,1.04250762 9.09790326,0.556864127 8.5187073,0.296302241 L8.33941077,0.224677818 C7.92128337,0.0925018462 7.55348817,0.0558958202 6.81619563,0.0509241172 Z M3.1898545,0.950913929 L6.81316749,0.950913929 L7.0174211,0.953365461 C7.46546545,0.961485452 7.72211625,0.987566643 7.96457876,1.05253617 L8.04986115,1.07660994 C8.45587011,1.22439032 8.77560968,1.54412989 8.92339006,1.95013885 L8.94274082,2.01843225 C9.02287603,2.31061668 9.04467377,2.54679247 9.04906302,3.26832532 L9.04906302,6.73155748 C9.04535452,7.34189274 9.02919623,7.60484029 8.97582253,7.84826944 L8.91717782,8.06813923 C8.77560849,8.4558734 8.455877,8.77558952 8.04991389,8.92329587 L7.98102997,8.94282468 C7.68893989,9.02289717 7.4528398,9.04467792 6.73154996,9.04906261 L3.26835755,9.04906261 C2.65788579,9.04534874 2.39490285,9.02917034 2.15145691,8.97573013 L1.93193994,8.91712785 C1.544123,8.77558952 1.22439151,8.4558734 1.07660994,8.04986115 C0.984455314,7.75696404 0.955315224,7.46418204 0.950913929,6.81013934 L0.950913929,3.18685381 L0.958006613,2.80176261 C0.971686184,2.40476152 1.00631635,2.17384311 1.08281617,1.93187979 C1.22439032,1.54412989 1.54412989,1.22439032 1.95013885,1.07660994 C2.24298348,0.984456736 2.53578455,0.955315292 3.1898545,0.950913929 Z" id="Icon-Shape-2-Copy-7"></path>
            </g>
        </g>
    </g>
</svg>