<?xml version="1.0" encoding="UTF-8"?>
<svg width="72px" height="72px" viewBox="0 0 72 72" version="1.1" xmlns="http://www.w3.org/2000/svg" xmlns:xlink="http://www.w3.org/1999/xlink">
    <!-- Generator: Sketch 63.1 (92452) - https://sketch.com -->
    <title>二维码收款图标 - 大</title>
    <desc>Created with Sketch.</desc>
    <g id="二维码收款图标---大" stroke="none" stroke-width="1" fill="none" fill-rule="evenodd">
        <rect id="矩形" fill="#FFC300" x="0" y="0" width="72" height="72"></rect>
        <path d="M36,25 C42.1717045,25 47.5752692,29.3981221 50.5537534,34.7006722 C44.5382429,37.2048537 34.8033513,41.2611066 34.8033513,41.2611066 C34.6000534,41.3309843 34.3809141,41.3706312 34.15227,41.3706312 C33.7678521,41.3706312 33.4093085,41.2625933 33.1109623,41.0792263 L33.1109623,41.0792263 L29.0159615,38.3430924 C28.9092961,38.2687544 28.7788686,38.2246472 28.63524,38.2246472 C28.2846171,38.2246472 28,38.4912728 28,38.8203423 C28,38.9060788 28.023234,38.9942932 28.0607253,39.0721003 L28.0607253,39.0721003 L31.5315751,46.219451 L31.6144784,46.3899328 C31.8320336,46.7536934 32.2465501,47 32.7233761,47 C32.9287862,47 33.1225793,46.9524237 33.2947224,46.8716431 L33.2947224,46.8716431 L33.4341267,46.7958183 C33.4341267,46.7958183 44.0130226,41.0692547 51.643087,36.9389514 C52.5169201,39.0410694 53,41.2055099 53,43.2352941 C53,51.292154 45.3888407,56 36,56 C26.6111593,56 19,51.292154 19,43.2352941 C19,35.1784342 26.6111593,25 36,25 Z M34.1941151,16.8965389 C34.7039677,17.1385091 35.009941,17.281389 35.3319391,17.4259837 C36.8624113,18.1132493 37.934592,18.4359375 38.8489583,18.4359375 C39.8553817,18.4359375 40.7089807,18.3253679 41.8012934,18.0953676 C45.0729961,17.4064694 45.8697726,17.4686501 47.1137681,19.4380556 C48.2538719,21.2429872 47.4403572,23.3217834 44.958479,25.7634397 C42.2424422,24.0361887 39.1711159,23 36,23 C33.0252206,23 30.1382565,23.9118516 27.5503108,25.4505468 C24.2076153,21.6103083 23.4538233,18.5113102 25.7782721,16.2969333 C27.8277816,14.3444762 29.6430777,14.7366682 34.1941151,16.8965389 Z" id="形状结合" fill="#FFFFFF"></path>
    </g>
</svg>