<?xml version="1.0" encoding="UTF-8"?>
<svg width="96px" height="96px" viewBox="0 0 96 96" version="1.1" xmlns="http://www.w3.org/2000/svg" xmlns:xlink="http://www.w3.org/1999/xlink">
    <title>icon</title>
    <g id="Page-1" stroke="none" stroke-width="1" fill="none" fill-rule="evenodd">
        <rect id="矩形" x="0" y="0" width="96" height="96"></rect>
        <g id="编组-2" transform="translate(2.000000, 10.000000)">
            <path d="M78.7328185,33.6224447 C76.7680183,33.0677492 74.695531,32.7709602 72.5537249,32.7709602 L72.2130704,32.7709602 C72.0394828,32.7709602 71.8663505,32.7729097 71.6936942,32.776788 C71.5804368,29.5188321 70.7685959,26.3463232 69.2760998,23.3342213 C68.0594345,20.8810894 66.4185112,18.5970391 64.397626,16.5448721 C59.1805334,11.2492377 51.8323076,7.83282399 43.7054554,6.92654684 C42.2289197,6.76133 40.7691181,6.67823849 39.3673936,6.67823849 C38.0326054,6.67823849 36.6348183,6.75553292 35.214391,6.90722323 C27.0491488,7.77775171 19.6576113,11.1767741 14.4011444,16.4772395 C12.3714001,18.5245756 10.7216176,20.803795 9.49609297,23.2511298 C7.85615404,26.5284135 7.02437229,29.9998995 7.02437229,33.5699358 C7.02437229,38.1699204 8.46153366,42.7206298 11.1793436,46.7312444 C12.3339945,48.4355865 13.708157,50.0259193 15.2732848,51.4829193 C15.8304309,52.0017581 16.4092329,52.5051381 17.0146125,52.9891944 C17.4093397,53.3051354 17.7853641,53.5911248 18.1613886,53.8645538 C18.9016251,54.3930544 19.3455701,55.2539211 19.3455701,56.1650292 C19.3455701,56.4944967 19.2746964,56.7882155 19.2048071,57.0326591 C19.0374664,57.6606763 18.8396106,58.4007705 18.6437235,59.1350675 C18.4655549,59.7988334 18.289355,60.4577684 18.1397327,61.018153 C18.0127506,61.4954461 17.9074244,61.8877153 17.8326133,62.1669414 L17.5658525,63.2239427 C17.5658525,63.4819129 17.7715831,63.6925402 18.0255473,63.6925402 C18.1023271,63.6925402 18.1869818,63.6606562 18.3366041,63.5746662 L18.344479,63.5708015 L18.6437235,63.396889 L25.5539104,59.399801 C25.6336433,59.3543905 25.7123919,59.3205742 25.7921248,59.2799946 C26.4043949,58.9688845 27.0087902,58.8065662 27.6318882,58.8065662 C28.0305529,58.8065662 28.4213426,58.8655032 28.7885078,58.9804787 C30.5948031,59.4993175 32.4640973,59.8780602 34.3550473,60.1254024 C34.6414952,60.1630834 34.9279431,60.2065615 35.214391,60.2374793 C36.5915066,60.3862711 37.9883093,60.4616331 39.3673936,60.4616331 C40.7710869,60.4616331 42.2299041,60.3775755 43.7054554,60.2133248 C45.8010443,59.9792273 47.8380859,59.572731 49.8026975,59.0155142 C50.1472329,61.2036028 50.8045351,63.2877993 51.7273965,65.2208964 C49.409192,65.8759976 47.0103388,66.353278 44.5441276,66.6287622 C42.7900033,66.8239307 41.0476912,66.9234472 39.3673936,66.9234472 C37.7195798,66.9234472 36.0501102,66.8335925 34.4052495,66.6558153 C31.8754517,66.3823863 29.4755891,65.9476051 27.0570237,65.266448 L18.6437235,69.4113616 L15.8205874,70.8016951 C15.7585729,70.844207 15.6926209,70.8770572 15.6276534,70.9147382 C15.6138724,70.9224677 15.599107,70.9292309 15.585326,70.9369604 C15.1423653,71.1862349 14.6364058,71.3398576 14.0891032,71.3398576 C12.520038,71.3398576 11.2452955,70.1640161 11.0897671,68.6645042 C11.0799236,68.5640215 11.0592521,68.4674034 11.0592521,68.3659545 C11.0592521,68.2703026 11.0799236,68.1794817 11.0877984,68.0867284 C11.0996107,67.9640235 11.1084699,67.8403524 11.1350476,67.7224784 C11.1645783,67.5910779 11.2147805,67.468373 11.2620296,67.3437357 L12.4432581,58.2258918 L12.4432581,58.2210609 C9.82782132,55.9437739 6.984998,52.7128668 5.24662336,50.1466919 C1.81417014,45.0819745 -2.89495412e-13,39.3129117 -2.89495412e-13,33.4617236 C-2.89495412e-13,28.9177775 1.05523081,24.5052319 3.13517737,20.3496903 C4.66782138,17.2868986 6.72414337,14.4434299 9.24803498,11.8975447 C15.6424187,5.45022328 24.5784125,1.32076852 34.4111556,0.271496675 C36.1012968,0.0908209517 37.7678133,4.66928083e-15 39.3673936,4.66928083e-15 C41.0457225,4.66928083e-15 42.7870502,0.0995165747 44.5441276,0.294685003 C54.3325747,1.38743496 63.2193506,5.53814569 69.5674695,11.9816024 C72.0795489,14.5332846 74.1260273,17.3835166 75.6478434,20.4540377 C77.6943218,24.5825263 78.7328185,28.9593232 78.7328185,33.4617236 C78.7328185,33.515307 78.7328185,33.5688807 78.7328185,33.6224447 L78.7328185,33.6224447 Z" id="Path" fill="#0082EF"></path>
            <path d="M72.2414583,36.5522248 L72.525337,36.5522248 C82.967011,36.5522248 91.4316602,45.016874 91.4316602,55.458548 C91.4316602,65.900222 82.967011,74.3648712 72.525337,74.3648712 L72.2414583,74.3648712 C61.7997843,74.3648712 53.3351351,65.900222 53.3351351,55.458548 C53.3351351,45.016874 61.7997843,36.5522248 72.2414583,36.5522248 Z" id="Rectangle-3" fill="#FB584B"></path>
            <polygon id="Combined-Shape" fill="#FFFFFF" points="72.3833977 59.8802199 65.3199135 64.746723 67.9261044 56.7504146 60.9544402 51.7617706 69.6286389 51.6862833 72.3833977 43.7366286 75.1381564 51.6862833 83.8123552 51.7617706 76.840691 56.7504146 79.4468819 64.746723"></polygon>
        </g>
    </g>
</svg>
